<?xml version="1.0" encoding="utf-8"?>
<!-- Generator: Adobe Illustrator 23.0.1, SVG Export Plug-In . SVG Version: 6.00 Build 0)  -->
<svg version="1.1" id="レイヤー_1" xmlns="http://www.w3.org/2000/svg" xmlns:xlink="http://www.w3.org/1999/xlink" x="0px"
	 y="0px" viewBox="0 0 239.3 210" style="enable-background:new 0 0 239.3 210;" xml:space="preserve">
<g>
	<path d="M199.5,63.8l-0.1-4.9l0.5,0c0,0,4.6-0.2,10.7-1.7c3.4-0.9,5.4-3.8,5.1-5.9c-0.2-1.8-2.1-2.8-5-2.7c-8.8,0.2-9-0.7-9-1.1
		l0-0.1l0-0.1c0.1-0.2,5.6-22.2,1.7-27.8C186.7-1.6,157.7,0.6,145.4,1.5c-1.2,0.1-2.3,0.2-3.2,0.2c-9.3,0.5-16.6,11.7-17.3,12.8
		l-2.8,22.9l-0.3,0.1c-0.2,0-17.6,4-20.4,6.8c-1.6,1.6-2.4,3.3-2.1,4.6c0.2,1,0.8,1.8,2,2.4c2.5,1.3,4.6,2.2,5.3,2.5
		c1.2-1.1,6.8-5.6,18.1-5.8c12.8-0.3,29.4,1.3,35.8,5.5c6.1,4,28.6,6.1,31,6.1c2.6,0,6.7-0.3,6.7-0.3l0.1,1c0,0-4.1,0.3-6.8,0.3
		c-2.4,0-25.1-2.1-31.5-6.3c-5.9-3.9-22.2-5.6-35.3-5.3c-12.3,0.3-17.6,5.7-17.7,5.8l-0.2,0.2l-0.3-0.1c0,0-2.5-1.1-5.7-2.7
		c-1.4-0.7-2.3-1.8-2.5-3.1c-0.3-1.7,0.6-3.6,2.4-5.5c2.8-2.8,18-6.4,20.6-7l2.7-22.4l0.1-0.1c0.3-0.5,7.9-12.8,18.1-13.3
		c0.9,0,1.9-0.1,3.1-0.2c12.5-1,41.8-3.2,58.9,18.3c4,5.7-0.7,25.4-1.5,28.3c0.5,0.2,2.3,0.6,8,0.4c3.4,0,5.6,1.3,6,3.6
		c0.4,2.6-1.9,6-5.8,7c-5,1.3-9.1,1.6-10.4,1.7l0.1,4L199.5,63.8z"/>
	<path d="M146.5,112.2c-1.5-1.3-4.5-5.2-5.4-6.7c-5.9-6.5-4.7-13.9-3.3-17c0.2-0.4,0.5-0.8,0.8-1.5c2.1-3.5,6.5-10.9,0.4-15.7
		c-1.5-1.2-2.3-2.7-2.4-4.5c-0.4-6.8,8.6-15.7,9-16.1l0.7,0.7c-0.1,0.1-9.1,9-8.7,15.4c0.1,1.6,0.7,2.8,2,3.8
		c6.8,5.3,1.9,13.5-0.2,17c-0.4,0.6-0.6,1.1-0.8,1.4c0,0.1-3.7,8.3,3.2,16l0.1,0.1c0.8,1.4,3.8,5.3,5.2,6.5L146.5,112.2z"/>
	<path d="M191.3,92.1l-0.7-0.6c0.7-0.8,1-1.6,0.9-2.5c-0.2-2.7-3.4-5.8-6.6-8.5c-1.1-0.9-1.6-2-1.6-3.3c0-3.9,4.8-8.2,5-8.3l0.6,0.7
		c0,0-4.7,4.1-4.7,7.6c0,1,0.4,1.9,1.3,2.6c3.3,2.8,6.7,6.1,6.9,9.1C192.5,90,192.1,91.1,191.3,92.1z"/>
	<path d="M179.6,62.1c0,0-2.2,3.6-2.9,4.3c-0.7,0.7-2.5,0.9-4.8-0.9c-2.3-1.8-2.9-5.3-9.5-1.7c-4.1,2.6-9.7,6.9-11.1,7.5
		c-1.4,0.5-4.3-0.2-1.1-3.2c3.2-3,9.7-8.1,12.9-8.8c3-0.6,7.6-0.9,11.7,1.6C176.6,61.8,177.1,62.7,179.6,62.1z"/>
	<path d="M154.6,72.6c10-9,10.2,0,10.2,0s-1.2-5.7-8.1-0.6C154.2,73.7,154.6,72.6,154.6,72.6z"/>
	<ellipse transform="matrix(0.4048 -0.9144 0.9144 0.4048 27.3699 191.0624)" cx="160.5" cy="74.5" rx="3.2" ry="2"/>
	<ellipse transform="matrix(0.4048 -0.9144 0.9144 0.4048 43.8107 217.7275)" cx="189.2" cy="75.2" rx="3" ry="1.9"/>
	<path d="M168.1,82c0,0-4,4.5-6.9,5"/>
	<path d="M157.5,86.3c0,0-3.7-0.5-5.9-2.6"/>
	<path d="M168.1,91.2c-2.1-0.1-3.3-0.6-3.6-1.5c-0.4-1.6,2.3-3.5,2.8-3.8l0.5,0.8c-1.1,0.7-2.6,2.1-2.4,2.8c0,0.2,0.4,0.7,2.7,0.8
		L168.1,91.2z"/>
	<path d="M149.1,126.1c-0.3,0-0.6-0.1-0.9-0.3c-1.8-1.2-2.5-5.7-1.8-12.4c0.8-8,5.1-12.4,9.3-16.7c1-1,2-2,2.9-3.1
		c4.8-5.3,6.9-4.1,8-3.5c0.1,0,0.2,0.1,0.2,0.1c1.2,0.5,20.4,3.2,25,1c1.3-0.6,2.3-1.1,3.1-1.5c2.1-1.1,2.7-1.4,4.4-0.7
		c2.1,0.9,7.7,4.3,11.6,7.4c2.5,2,2.7,3.4,2.4,4.3c-0.3,0.9-1.1,1.5-2.2,1.6c-0.2,0-0.3,0.1-0.4,0.2c-0.3,0.5-0.1,1.8,0.1,2.3l0,0.1
		c0.5,6.7,0,7.1-0.2,7.3c-0.4,0.4-0.9,0.1-1.2,0c0,0-0.1-0.1-0.2-0.1c0,0.1-0.1,0.3-0.1,0.8c0,2.1-2.6,7.3-3.7,7.5
		c-0.3,0-0.6-0.1-0.7-0.5c-0.2-0.9-3.7-3.9-6.5-4.3c-2.7-0.3-5.3-1.4-7.9-3.3c-1.7-1.2-2.1-1.3-3.3-0.4c-2.5,1.8-7.5,4.2-11.5,6.2
		c-2.6,1.3-5.3,2.6-5.6,2.9c-0.7,1.2-8.1,1.7-10.3,1.4c-1.7-0.2-5.1,1-9.6,3.5C149.7,126,149.4,126.1,149.1,126.1z M164.6,90.5
		c-1.1,0-2.7,0.7-5.4,3.7c-0.9,1.1-1.9,2.1-2.9,3.1c-4.1,4.2-8.3,8.5-9,16.1c-0.7,7.3,0.3,10.8,1.4,11.5c0.3,0.2,0.5,0.2,0.9,0
		c3.3-1.8,7.7-4,10.2-3.6c2.7,0.4,8.8-0.4,9.4-1c0.2-0.4,1.4-1,6-3.3c4-1.9,9-4.4,11.4-6.1c1.7-1.2,2.7-0.8,4.4,0.5
		c2.4,1.8,4.8,2.8,7.4,3.1c2.7,0.3,6.3,3,7.2,4.6c0.8-1,2.7-4.5,2.7-6.3c0-0.9,0.2-1.4,0.5-1.6c0.4-0.2,0.8,0,1.1,0.1
		c0,0,0.1,0,0.1,0c0.1-0.9,0-3.8-0.1-6.3c-0.1-0.4-0.6-2.1,0.1-3.1c0.2-0.4,0.6-0.6,1.1-0.6c0.5,0,1.2-0.3,1.3-0.9
		c0.3-0.8-0.5-2-2.1-3.3c-3.7-2.9-9.3-6.4-11.4-7.2c-1.3-0.5-1.5-0.4-3.6,0.7c-0.8,0.4-1.8,0.9-3.1,1.5c-5,2.3-24.6-0.4-25.8-1
		c-0.1,0-0.2-0.1-0.3-0.2C165.7,90.8,165.3,90.5,164.6,90.5z M209.9,111.5L209.9,111.5L209.9,111.5z"/>
	<path d="M169.5,121.1l-0.1-1c0.1,0,9.4-0.7,14.1-2.2c4.4-1.4,4.4-7.3,4.3-7.3l1,0c0,0.3,0,6.6-5,8.2
		C179.1,120.4,169.9,121.1,169.5,121.1z"/>
	<path d="M174.2,136.9c-1.8,0-3.7-0.4-5.7-1.2c-6.9-3-11.8-8.9-14.2-12.1c-0.1-0.1-0.1-0.2-0.1-0.2l0.4-0.3l-0.2-0.5
		c0.4-0.1,0.5,0.1,0.7,0.4c2.3,3.2,7.1,8.9,13.8,11.8c8,3.5,14.7-2,15.9-3.9c0.2-0.4,0.5-0.9,0.8-1.6c1.2-2.5,3.3-6.6,6.8-9.1
		c4-2.8,3.9-4.5,3.9-4.6l0.9-0.2c0,0.2,0.3,2.3-4.3,5.5c-3.4,2.4-5.3,6.3-6.5,8.7c-0.4,0.7-0.6,1.3-0.9,1.7
		C184.9,132.5,180.5,136.9,174.2,136.9z"/>
	<path d="M172.2,150.7c-2.6,0-4.9-0.3-5.8-0.6c-2-0.7-18.2-8.3-27.3-18.7c-9-9.9-12.5-19.2-12-22.4c0.2-1.4,0.1-6.5-0.1-11.9
		c-0.2-7.3-0.5-14.9,0.1-16.8c0.5-1.6-2.4-6.6-6.1-7.9c-2.7-1-5.1,0.5-6.8,4.3c-5.1,11.5,2.3,21.1,3.3,21.8c1.1,0.8,2.5,0.8,3.2,0.6
		c1-0.2,1.9,1.1,2.1,1.5l-0.8,0.5c-0.4-0.6-0.9-1.1-1.1-1c-0.9,0.2-2.6,0.2-4-0.8c-1.8-1.3-8.7-11.6-3.6-23c2.6-5.8,6.1-5.5,8-4.8
		c3.8,1.4,7.3,6.8,6.6,9.1c-0.5,1.7-0.3,9.6,0,16.5c0.2,5.7,0.3,10.7,0.1,12.1c-0.5,3.1,3.3,12.3,11.7,21.6
		c8.9,10.3,25,17.8,26.9,18.4c2.4,0.8,13.8,0.9,15.4-1.9c1.5-2.7,2.7-3.7,5.5-6.1c0.6-0.5,1.2-1.1,2-1.7c4-3.5-0.1-13.2-0.1-13.3
		l0.9-0.4c0.2,0.4,4.4,10.4-0.1,14.4c-0.8,0.7-1.4,1.2-2,1.7c-2.8,2.4-3.8,3.3-5.2,5.9C181.7,150,176.5,150.7,172.2,150.7z"/>
	<path d="M116.1,112.9c-0.8,0-1.7-0.2-2.7-0.7c-2.9-1.6-10.5-13-10.7-15.5c-0.1,0-1.1-0.8-10.4,1.2c-5,1.1-9.9,2.4-10.3,2.6
		c-0.3,0.1-0.6,0.1-0.7-0.2c-0.6-0.8,0.3-6.1,2.9-9c0.9-1,0.9-1.4,0.9-1.4c-0.2-0.3-2.2,0-2.9,0.1c-0.2,0-0.4,0.1-0.6,0.1
		c-0.8,0.1-1.6-0.2-1.9-0.9c-0.6-1.2,0.1-3.8,6.4-9.3c6.8-5.8,8.9-11.6,10.1-14.7c0.3-0.8,0.5-1.3,0.7-1.8l0.1-0.1
		c1.1-2.1,4-7.6,9.5-9.5l0.3,0.9c-5.1,1.8-7.8,6.9-9,9L97.8,64c-0.2,0.4-0.4,0.9-0.7,1.7c-1.2,3.2-3.4,9.1-10.3,15.1
		c-5.2,4.5-6.6,7.2-6.2,8.1c0.2,0.4,0.7,0.4,0.9,0.3c0.2,0,0.4-0.1,0.6-0.1c1.9-0.3,3.4-0.5,3.9,0.4c0.4,0.8-0.3,1.7-1,2.5
		c-2.3,2.5-3,6.4-2.9,7.6c2.8-0.8,18.6-5.1,21.1-3.6c0.4,0.2,0.5,0.6,0.5,0.7c0.2,2.2,7.5,13.3,10.2,14.7c1.9,1,3.5,0.5,4.1,0.2
		c-0.3-1-1-3.3-0.5-4.4c0.4-0.9,1-4.8,1.2-6.2l1,0.1c-0.1,0.5-0.7,5.2-1.3,6.5c-0.3,0.8,0.2,2.9,0.6,4.1l0.1,0.4l-0.3,0.2
		C118.7,112.3,117.6,112.9,116.1,112.9z M81.7,99.7C81.7,99.7,81.7,99.7,81.7,99.7C81.6,99.7,81.7,99.7,81.7,99.7z"/>
	<path d="M122.1,86.4c-0.7-4.8-1.9-5.7-2.5-5.9c-1-0.2-2,1.2-2,1.2l-0.8-0.5c0.1-0.1,1.4-1.9,3-1.6c1.5,0.4,2.6,2.5,3.2,6.7
		L122.1,86.4z"/>
	<path d="M190.1,63.8c0,0,6.8-1.7,9.7,0.7c2.9,2.4,3.1,4.8,2.8,7.1c-0.4,2.3-1.4,4.3-1.9,4.4c-0.5-1.4-1.3-6.8-3.5-8.1
		c-2.2-1.3-3.7-2.2-4.5-2c-0.8,0.1-2,1.9-2.5,2c-0.5,0.1-1.1-0.7-0.9-1.7S190.1,63.8,190.1,63.8z"/>
	<path d="M184.8,73.7c0,0,7.1-6.5,7.2,0.8c0,0,0.3-2,0-3.7c-0.3-1.7-2.5-1.8-3.6-1.1S184.8,73.7,184.8,73.7z"/>
	<path d="M154.5,74.5c0,0,0,2.5,2.9,2.7"/>
	<path d="M192,77.2c0,0-0.7,2.7-2.8,2.8"/>
	<path d="M201.8,91l-0.8-0.6c0,0,0.9-1.6-2.9-5.6c-1.4-1.5-2-3.1-1.8-4.7c0.4-3.1,3.7-5.2,3.9-5.3l0.5,0.8c0,0-3.1,1.9-3.4,4.6
		c-0.2,1.3,0.4,2.7,1.6,3.9C203.1,88.7,201.9,90.8,201.8,91z"/>
	<path d="M191.7,55.7c-7.8,0-18.6-1.6-29.3-9c-17.9-12.4-42.2-7.5-42.4-7.5l-0.2-0.9c0.2-0.1,24.9-5.1,43.2,7.6
		c15.7,10.9,31.7,8.9,37.7,8.2c0.9-0.1,1.6-0.2,2-0.2c2.7,0,7.9-2.2,8.3-3.1l0.9,0.4c-0.7,1.4-6.3,3.7-9.2,3.7c-0.3,0-1,0.1-1.9,0.2
		C198.8,55.3,195.6,55.7,191.7,55.7z"/>
	<path d="M201.3,44.9c-21.5-11.6-79-7.4-79.6-7.4l-0.1-1c0.6,0,58.3-4.3,80.1,7.5L201.3,44.9z"/>
	<path d="M187.3,50.4c-5.4,0-11.6-0.2-16.7-0.9l0.1-1c11.2,1.5,28.1,0.6,28.3,0.6l0.1,1C198.9,50.1,193.8,50.4,187.3,50.4z"/>
	<path d="M136.2,148c-0.6,0-1.2-0.2-1.7-0.6c-5.2-3.9-5.1-26.7-5.1-27.6l1,0c0,0.2-0.2,23.3,4.7,26.9c0.6,0.4,1.2,0.5,1.8,0.3
		c5.9-1.9,11.3-4.6,13.4-5.7c1-0.5,1-0.5,1.3-0.4l-0.5,0.8l0.3-0.4l0.1,0.5c-0.1,0-0.3,0.2-0.7,0.4c-2.1,1.1-7.5,3.9-13.5,5.7
		C136.9,147.9,136.5,148,136.2,148z"/>
	<path d="M1.3,208.1c-6.1-50.4,11.2-80.1,21.2-88.8c7.5-6.5,55.5-18.4,57.6-18.9l0.2,0.9c-0.5,0.1-49.8,12.2-57.2,18.6
		C13.2,128.6-3.8,158,2.2,208L1.3,208.1z"/>
	<path d="M78.5,208.2c-2.2-11.5-15.9-35.9-21.7-45.9c-10.9-22.3-21.4-29.7-28.3-32c-6.7-2.2-11.1,0-11.1,0l-0.4-0.9
		c0.2-0.1,4.8-2.4,11.8-0.1c7.1,2.3,17.8,9.8,28.9,32.5c7.2,12.4,19.7,34.9,21.8,46.1L78.5,208.2z"/>
	<path d="M114.7,208.4c-5-4.2-23.7-34.9-29.2-45.4c-1.6-2-2.1-3.9-1.6-5.6c1.1-3.6,6.5-5.4,10.4-6.7c1.1-0.4,2-0.7,2.7-1
		c1.8-0.8,2.8-1.6,3-2.5c0.2-0.7-0.1-1.4-0.9-2.5c-0.4-0.5-2.8-1.8-5.4-3.1c-6.2-3.1-14.6-7.3-16.6-11.7c-3-6.5,9.4-28.4,10-29.4
		l0.8,0.5c-0.1,0.2-12.8,22.5-9.9,28.5c1.9,4.1,10.5,8.4,16.2,11.2c3.4,1.7,5.3,2.7,5.8,3.3c0.7,0.9,1.4,2,1,3.3
		c-0.3,1.2-1.5,2.2-3.6,3.1c-0.7,0.3-1.7,0.6-2.8,1c-3.7,1.3-8.9,3-9.8,6.1c-0.4,1.4,0.1,3,1.5,4.8c6,11.5,24.4,41.3,29,45.1
		L114.7,208.4z"/>
	<path d="M131.6,208.3c-15.6-30.1-22.6-57.7-25.7-75.5c-3.4-19.3-3.1-31.7-3.1-31.9l1,0c0,0.5-1,49.5,28.7,106.9L131.6,208.3z"/>
	<path d="M153.6,191.4c-1.3,0-2.6-0.6-3.9-1.9c-12.3-11.5-44.2-61.5-44.5-62l0.8-0.5c0.3,0.5,32.2,50.4,44.4,61.8
		c1.6,1.5,3,1.9,4.4,1.4c3.5-1.3,6.9-8.6,9.7-21.1c2.1-9.6,3.2-18.9,3.2-19l1,0.1c-0.2,1.5-4.3,37.5-13.5,40.9
		C154.6,191.4,154.1,191.4,153.6,191.4z"/>
	<path d="M146.5,185l-1,0c0-0.6,0.2-15.2,0.8-17.9c0.1-0.4,0.2-1,0.3-1.6c0.5-2.4,2.1-9.8,1.4-10.6c-1.1-1.1-4.7-8.8-5.1-9.7
		l0.9-0.4c1.6,3.4,4.2,8.7,4.9,9.4c0.9,0.9,0.3,4.7-1.1,11.5c-0.1,0.6-0.3,1.2-0.3,1.6C146.7,169.9,146.5,184.9,146.5,185z"/>
	<path d="M159.3,186l-1,0c0.1-2.8-1.6-18.2-2.8-20.8c-1.1-2.4-3.2-9.5-1.4-12.3c1.5-2.3,2.8-6.5,2.9-6.5l0.9,0.3
		c-0.1,0.2-1.4,4.3-3,6.7c-1.4,2.2,0.2,8.6,1.5,11.4C157.7,167.6,159.5,183.1,159.3,186z"/>
	<path d="M188.7,208.1c-1.2-20.6-19.4-56-19.6-56.3l0.9-0.4c0.2,0.4,18.6,35.9,19.7,56.7L188.7,208.1z"/>
	<path d="M205.4,207.3l-1-0.1c0.7-6.3,1.5-18.1,1.9-38.7l0-1.1c0-1.6-1.5-2.3-2.4-2.8c-0.4-0.2-0.7-0.3-0.9-0.5
		c-0.4-0.4-5.8-3-12.1-5.2c-2.2-0.8-3.3-1.7-3.3-2.8c0-1,0.9-2.7,8.2-5c0.9-0.3,1.5-0.9,1.8-1.8c2.4-6.3-8.7-24.8-8.8-25l0.8-0.5
		c0.5,0.8,11.4,19.1,8.9,25.8c-0.4,1.2-1.3,2-2.4,2.3c-6.7,2.1-7.5,3.5-7.5,4.1c0,0.3,0.3,1,2.6,1.9c5.8,2.1,12,4.9,12.5,5.5
		c0.1,0.1,0.3,0.2,0.6,0.3c1.1,0.5,3,1.5,3,3.7l0,1.1C206.9,189.1,206,201,205.4,207.3z"/>
	<path d="M218.1,208.2l-0.9-0.2c0.3-1.2,0.2-15.4,0-20.4c-0.2-4.4-5.3-22.2-5.4-22.4l0.9-0.3c0.2,0.7,5.2,18.2,5.4,22.6
		C218.3,191.7,218.5,206.8,218.1,208.2z"/>
	<path d="M218.3,182.8l-1-0.1c0.4-3,1.9-17.5,1.9-17.7l1,0.1C220.3,165.2,218.8,179.8,218.3,182.8z"/>
	<path d="M238.3,210c0,0,0-1.7-1.1-7.6c-1-5.9-4.5-13.9-5.7-16.1c-1.1-2.1-1.6-6.8-1.8-8.3c-0.1-1.3-0.3-20.7-0.3-23.4
		c0-0.5,0-1,0.1-1.6c0.3-3.2,0.8-8.7-5.7-14.7c-7.7-7.2-30-17.9-30.3-18l0.4-0.9c0.9,0.4,22.6,10.9,30.5,18.2
		c6.9,6.4,6.3,12.1,6,15.5c-0.1,0.6-0.1,1.1-0.1,1.5c0,3.1,0.2,22.1,0.3,23.3c0.1,1.2,0.6,5.9,1.7,7.9c0.9,1.7,4.6,9.9,5.8,16.4
		c1.1,6.1,1.1,7.7,1.1,7.8L238.3,210z"/>
	<path d="M127.9,115.4c-4.1-3.6-9.1-9.9-9.1-9.9l0.8-0.6c0,0.1,5,6.3,9,9.8L127.9,115.4z"/>
	<path d="M129.6,130.3c-17.3-13.2-24.6-28.5-24.7-28.7l0.9-0.4c0.1,0.1,7.3,15.2,24.4,28.3L129.6,130.3z"/>
	<path d="M129.7,135.4c-15.5-9-26.3-22.5-26.4-22.6l0.7-0.6c0.1,0.1,10.8,13.4,26.1,22.4L129.7,135.4z"/>
</g>
</svg>
