<?xml version="1.0" encoding="utf-8"?>
<!-- Generator: Adobe Illustrator 23.0.1, SVG Export Plug-In . SVG Version: 6.00 Build 0)  -->
<svg version="1.1" id="レイヤー_1" xmlns="http://www.w3.org/2000/svg" xmlns:xlink="http://www.w3.org/1999/xlink" x="0px"
	 y="0px" viewBox="0 0 239.3 210" style="enable-background:new 0 0 239.3 210;" xml:space="preserve">
<style type="text/css">
	.st0{fill:none;stroke:#000000;stroke-miterlimit:10;}
</style>
<g>
	<g>
		<path class="st0" d="M154.4,94.6c9.9-6,22.9-29.1,13.7-52.3S141.3,13,135.8,11.9s-25.6-4-42.6,3.7s-26.9,3.1-26.9,3.1
			s1.3,4.9,11.9,6.6c-2.6,1.3-7.9,4.4-9.3,8.2c2,0.4,3.3-2.6,9-1.5c-0.7,1.8-7.3,4-7.7,12.8c1.5-0.9,2-2.4,6.8-2.9
			c-1.1,2-3.1,7.9-1.8,14.3s6.4,15,9,18.1c2.6,3.1,0.4-4.6-1.3-6.6c-1.8-2-7.3-15.4-0.2-27.1S94.6,30,94.8,30c-0.2,0.9-6,7.7-4,11.5
			c3.3-0.9,3.1-4.4,14.8-9.3c-2,3.1-2,2.2-2.9,5.3c2.4-0.7,14.3-7.9,18.5-7.7c4.2,0.2,18.5,17.2,19.2,21.6c1.8-1.3,3.7-8.2,2.9-14.6
			c4.2,3.5,18.1,26.5,2,52.7c3.3-2.4,5.1-6,6.8-7.1c1.8-1.1,7.1-3.1,5.7,2.9c-2,6.2-3.7,10.1-15.7,11.9c-2.5,3.7-7.1,8.4-10.1,10.4
			c-3,1.9-10.1,6.1-14.8,7.4c-4.7,1.3-7.1,0.9-10.5-0.6c-3.4-1.4-12.9-7.5-17.3-13.2s-5.6-7.8-5.7-16.2c-1.8-2.5-4.8-4.6-4.3-10
			s1.5-4.1,1.8-4.3"/>
		<path class="st0" d="M175.3,182.5c-0.3-1.2-1-1.9-2.1-3"/>
		<path class="st0" d="M184.7,184.6c0.5,0.9,0.9,1.4,0.9,1.4s4.6,2.5,6.5,8.2c-1.2,1.9-4.1-3.7-4.1-2.8s2.9,8.4-0.9,12.6
			c-5.3,0.6-8.8-12.2-9.1-10.9c-0.3,1.3-0.9,4.4-0.4,5.3c0.4,0.9-3.7,0-2.5-11.5"/>
		<path class="st0" d="M157.9,91.9c0,0,12,7.4,5.4,20.8c2.4,1.5,13.2,5.9,10,21.2c1.5,2.1,11,12.2,4.6,20.3
			c2.1,2.4,6.2,8.4,1.3,15.9c1.9,1.8,4.9,4.6,3.7,9.4"/>
		<path d="M126.3,56c0,0-1.2,1.7,1,1.6c2.1-0.1,5.4-0.8,11.5,2c1.3,0.7,3.2,1.5,2.6,0c-0.7-1.5-4.2-3.2-5.8-3.7
			C134.3,55.4,127.5,54.3,126.3,56z"/>
		<path d="M99,55.1c0,0,3.2,0.7,3.6,0.5s0-1.4-2.6-2.4c-2.6-1-8.8,0.1-10.1,0.7c-1.3,0.6-4.7,2.9-1,2.4c1.1-0.2,0.6-0.4,3.7-1.1
			C95.8,54.5,99,55.1,99,55.1z"/>
		<path class="st0" d="M108.4,64.1c0,0,3.5,3.3,2.2,8.2"/>
		<path class="st0" d="M109.6,73.9c0,0-3,3-4.8,3.7c-1.8,0.8,0.3,3,1,4c0.7,1.4,0.3,2.6,0.3,2.6"/>
		<path class="st0" d="M110.1,82c0,0,1.7,1.1,2.1,2.3"/>
		<path class="st0" d="M101.4,92.7c0,0,5.3,4.1,18.7,1.9"/>
		<path class="st0" d="M108.4,99.1c0,0,2.2,1,2.8,1.9"/>
		<path d="M126,66c0,0,1.5-3.2,6.5-2.8c5,0.4,7.3,4.5,7.6,5c0.3,0.5,1.1,2.7,0.8,4.4c-0.6-1.1-1.9-4.3-4.1-5.8
			c-0.8-0.5-3.8-4.8-8.1-1.2C124.3,69,126,66,126,66z"/>
		<path d="M103.3,66c0,0,0-4.2-3.5-6.4s-7.7,1-8.6,1.7s-2.5,3.2-2.6,3.9c-0.1,0.7,0.1,1.7,1,0c0.9-1.7,3.5-4.7,6.4-4.6
			C98.8,60.7,101.9,62.8,103.3,66z"/>
		<path class="st0" d="M90.5,64.5c0,0-0.6,3.3,0,5.6s2.2,2.4,3.4,2.5c1.3,0.1,3.7-0.9,4.4-3.4c0.6-2.5,0.3-6-1-7.3
			c-1.3-1.3-1.2-1.2-2.3-1.2S90.7,62.3,90.5,64.5z"/>
		<path class="st0" d="M128,66.6c0,0-2,5.2,0,8.6c1.8,2.8,5.4,0.9,6.3,0s3-4.3,2-7.8c-1-3.5-3.9-3.4-4.4-3.3S129.4,64.5,128,66.6z"
			/>
		<path class="st0" d="M93.7,74.9c0,0,2.3,1.6,4.8,0"/>
		<path class="st0" d="M128.3,77.9c0,0,0.9,2.1,5,1.9"/>
		<path class="st0" d="M83.8,85.7c0,0,0.3-2.1,1-3.2s1-4.9,0.7-6.9"/>
		<path class="st0" d="M123.3,112.6c0,0,7.9,3,15.6,0c7.8-3,14,0.3,14.7,2.5s4.3,19.6,4.2,19.9s-3.2,6-9.6,5.7
			c-6.4-0.4-6.5-1.2-7.6-2.4c-0.1-2.2,0-7.8,0-7.8"/>
		<path class="st0" d="M83.8,88.3c0,0-6.8,3.8-5.9,11.7s6,12.3,7.7,12.8"/>
		<path class="st0" d="M83.7,112.3c0,0-2.9,0.7-1.9,5.6c0,0-6.5-1.2-9.7,0.9c-3.2,2.1-5.5,4.8-7.8,15.4c-1.3,4.4-1.8,6.7-2.3,8
			c-0.6,1.2-0.3,5.5,0,8.3c0.3,2.8,0.1,10.8,0.1,10.8"/>
		<path class="st0" d="M100.4,110.7c0,0-1.8,1.9-3.4,3"/>
		<path class="st0" d="M99.5,112c0,0,1.4,0.8,1.4,1.9"/>
		<path class="st0" d="M103.3,112.8c0,0-3.7,2.4-5.4,3c-1.7,0.7-2.1,2.7,0,3c2.1,0.3,5.1-2.1,6.3-2.6c1.1-0.6,2.2-0.7,2.7-1"/>
		<path class="st0" d="M111.2,116.4c0,0-5.8,5-7.9,5.5c-2.1,0.6-5.2,0.8-4.8-1.5c0.5-2.3,3.2-2.7,3.2-2.7"/>
		<path class="st0" d="M118.8,115.1c0,0,1.3,1.5,3,2s0.7,2.9-1.8,3c-2.5,0.1-4.7-2.6-6.9-2.2c-2.2,0.4-3.3,1.1-5.6,1.4"/>
		<path class="st0" d="M103.3,121.9c0,0-3.4,3-0.9,4.2c2.5,1.1,5.4-1.4,6-2.1c0.6-0.6,4.2-4,6.7-3c2.5,1,4.1,1.9,5.9,1.9
			c1.9,0,3.5,0.6,1.6,2.8c-1.9,2.2-5.3,0-5.3,0c-1.9-0.7-4-0.1-4.7,0.5c-0.7,0.5-4.2,3.8-6.9,5.2s-0.4,2.8,2.1,2.9
			c2.5,0.1,4.8-0.7,6.2-1.9c1.4-1.2,0.8-1.8,4.7-0.4c3.9,1.4,12.1,1.2,15.3,0.7c5.6-0.7,8.6-4.3,8.6-4.3"/>
		<path class="st0" d="M104.8,133.2c0,0-5.2,3.6-7.9,3.9c-2.7,0.3-11.7,0.4-15.2-0.9"/>
		<path class="st0" d="M84.7,138v6.4c0,0-2,1.8-6.9,1.7c-4.9-0.1-9.2-1.5-9.2-3.4s1.7-7.4,2-11.7c0.3-4.3-0.9-8.1,4-10.1
			c4.9-2,6.5-1.4,7.1-1.5c0.6-0.1,8.4,0.7,12-0.5s2.4-0.9,2.4-0.9"/>
		<path class="st0" d="M68.7,142.6c0,0-2.6-1.3-3.1,2.4c-0.5,3.7-6,26.5-7.1,29.8c-1.1,3.3-1.3,12.9,3.2,16.5c4.5,3.6,12.6,8.6,24,4
			s5.4-26.7,5-28.6s-3.5-19-3.4-20.7c0.1-1.8-1.8-2.1-2.5-1.7"/>
		<path class="st0" d="M93.3,137.9v5.5c0,0-0.5,3.7,4.6,3.7c5.1,0,29.7-1.3,32-1.8c2.3-0.4,5.8,0,6.5-4.7s0-8.5,0-8.5"/>
		<path class="st0" d="M140,138.3c0,0-1.8-0.3-1.5,2.4s0.2,13.2,0,16.4c-0.2,3.2-2,24.1,2.2,29.1c4.1,5,12.6,10.4,21.7,7.4
			c9-3,9.8-9.5,10.5-12c0.7-2.5,1.1-14-2.2-18.5s-9-15.2-9.9-24.3s-3.7-2.3-3.7-2.3"/>
		<line class="st0" x1="135.3" y1="105.1" x2="135.3" y2="113.3"/>
		<path class="st0" d="M135,108.9c0,0-2.9,2.7-10,2.9"/>
		<path class="st0" d="M152.7,113.8c0,0,5.7-3.6,9.9,1.3s10.7,17.9,10.6,21.7s0,7.5-1.2,9.8c-0.4,3.2-0.2,17.6-0.2,17.6"/>
		<path class="st0" d="M173.2,182.3l6,0.8l8.6-6.2c0,0,2.1-1.5,3.3,1s1.2,6.5,0.9,7.5s-3.2,0.6-4.5,0c-1.3-0.6-5.8-1.3-7.6-0.9
			c-1.8,0.4-7.3,4.7-8,6.1c-0.8,1.3-1.7,1-2.3,0"/>
	</g>
	<ellipse cx="94" cy="64.6" rx="2.8" ry="4.1"/>
	<ellipse cx="130.5" cy="68.7" rx="2.8" ry="4.1"/>
</g>
</svg>
