<?xml version="1.0" encoding="utf-8"?>
<!-- Generator: Adobe Illustrator 23.0.1, SVG Export Plug-In . SVG Version: 6.00 Build 0)  -->
<svg version="1.1" id="レイヤー_1" xmlns="http://www.w3.org/2000/svg" xmlns:xlink="http://www.w3.org/1999/xlink" x="0px"
	 y="0px" viewBox="0 0 239.3 210" style="enable-background:new 0 0 239.3 210;" xml:space="preserve">
<style type="text/css">
	.st0{fill:none;stroke:#000000;stroke-miterlimit:10;}
</style>
<g>
	<path d="M68.4,70.4c0,0-0.5-4-4.3-9.8c-4.1-6.1-1.2-23.4-1.1-24.1c0.8-3.7,2.6-12.5,3.2-13.2c0-0.1,0.1-0.2,0.2-0.3
		c5.8-9.3,14.7-13.5,21.2-15.4c15.4-4.4,23-3.6,35-1.6c11.8,1.9,19.6,13.9,20,14.5l-0.9,0.6c-0.1-0.1-7.9-12.1-19.2-14
		c-11.8-1.9-19.3-2.8-34.5,1.6c-6.3,1.8-15,5.9-20.6,14.9c-0.1,0.2-0.2,0.4-0.3,0.5c-0.3,0.6-1.8,7-3,12.7c0,0.2-2.9,17.5,0.9,23.3
		c4.1,6.1,4.5,10.1,4.5,10.3L68.4,70.4z"/>
	<path d="M152.4,49.3l-0.8-0.8c0,0,4-4,4.7-7.4l0.1-0.4c0.7-3.5,2.2-10.8-4.1-20.8c-6.4-10.1-18.5-7.9-18.6-7.9l-0.2-1.1
		c0.1,0,12.9-2.4,19.7,8.4c6.6,10.3,5,17.9,4.3,21.6l-0.1,0.4C156.6,45,152.5,49.1,152.4,49.3z"/>
	<path d="M78.8,117.7c-4.1-3.5-9.2-11.2-9.5-11.6c-1.9-3.7-1.8-12.7-1.8-16.5l0-0.7c0-0.5,0-1.2-0.1-2c-0.2-3.9-0.5-11.3,1.4-15.9
		c1.9-4.6,0.1-6.8-1.3-8.6c-0.2-0.2-0.3-0.4-0.5-0.6c-1.1-1.5-1.2-2.5-1.4-4.1c-0.1-0.5-0.1-1.2-0.3-1.9c-0.6-3.5,0.2-13.4,0.9-21.1
		c1-10.5,10.6-18.5,26.4-21.8c14.9-3.2,21.4,2,26.1,5.8c0.6,0.5,1.2,1,1.8,1.4c4.7,3.5,12,14.9,11.9,16.5c-0.1,1.5-0.8,27,0.1,28.6
		c1.2,1,1.4,3.1,0.6,5.5c-0.4,1.1-0.7,5-0.9,8.2c-0.2,2-0.3,4-0.5,5c-0.3,1.8,0.2,3.8,0.6,4.8c0.5-1.7,1.3-6,1.7-8.7
		c1.3-8.5,4.4-10.8,6.8-11.1c1.3-0.2,2.3,0.1,3.1,0.8c1.6,1.5,1.5,4.6,1.3,6.2l0,0.2c-0.4,3.9-1.6,7.8-3.4,11.7
		c-2.6,5.6-6.6,7.1-7.9,7.2c0,0,0,0,0,0c-0.1,1.3-0.4,4.4-0.1,5.8c0.1,0.5,0.2,0.6,0.2,0.6c0.2,0,0.8-0.6,1.2-1.1l0.3-0.3
		c1.3-1.2,11.9-17,13.5-19.7c1.4-2.4,3.3-11.9,2.3-19.3c-1-7.4,0.6-17.2,0.7-17.7l1.1,0.2c0,0.1-1.7,10.1-0.7,17.3
		c1,7.4-0.8,17.3-2.5,20.1c-1.5,2.5-12.3,18.5-13.7,19.9l-0.3,0.3c-0.9,0.9-1.6,1.5-2.4,1.3c-0.6-0.2-0.9-0.9-1-1.4
		c-0.4-1.6-0.1-4.9,0.1-6.3c0-0.3,0-0.4,0-0.5l0-1.7l0.9,1.3c0,0,0,0,0,0c0.9,0,4.6-1.4,7-6.6c1.8-3.8,2.9-7.7,3.3-11.4l0-0.2
		c0.3-2.5,0-4.4-0.9-5.3c-0.5-0.5-1.2-0.7-2.2-0.5c-2.9,0.4-4.9,4-5.9,10.2c0,0.1-1.5,9-2.2,9.9c-0.2,0.3-0.5,0.3-0.8,0.2
		c-1-0.4-1.8-4.1-1.4-6.6c0.1-1,0.3-2.9,0.4-5c0.3-3.6,0.6-7.3,1-8.5c0.5-1.5,0.7-3.4-0.3-4.3c-1.5-1.4-0.5-29.2-0.4-29.5
		c-0.1-1-6.6-11.9-11.4-15.5c-0.6-0.4-1.2-0.9-1.8-1.4c-4.6-3.6-10.8-8.6-25.2-5.5c-15.3,3.2-24.5,10.8-25.5,20.8
		c-1,10.9-1.4,18.1-0.9,20.8c0.1,0.8,0.2,1.4,0.3,2c0.2,1.5,0.3,2.3,1.2,3.6c0.1,0.2,0.3,0.4,0.5,0.6c1.5,1.9,3.5,4.5,1.4,9.7
		c-1.8,4.4-1.5,11.5-1.3,15.4c0,0.9,0.1,1.6,0.1,2.1l0,0.8c0,3.4-0.1,12.6,1.7,16c0,0,5.2,7.9,9.2,11.3L78.8,117.7z M133.8,94
		L133.8,94C133.9,94,133.8,94,133.8,94z"/>
	<rect x="77.7" y="116.4" width="1.1" height="15.6"/>
	<path d="M96.1,129.1c-4.5,0-9.4-0.8-12.8-2.7c-1.5-0.9-2.5-2-2.8-3.5c-0.6-2.7,1.1-5.4,1.2-5.5l0.9,0.6c0,0-1.6,2.4-1.1,4.6
		c0.3,1.1,1,2,2.3,2.7c4.7,2.6,12.4,3.1,17.6,2.1c1.6-0.3,2.9-1,3.7-2.2l0.9,0.6c-1,1.5-2.5,2.4-4.4,2.7
		C99.9,129,98,129.1,96.1,129.1z"/>
	<path d="M68,86.8c-1.3,0-1.7-1.3-2.5-3.5L65,82.2c-1-2.5-1-5.7-1-9c0-0.8,0-1.6,0-2.4c0-1.7,0.4-3,1.2-3.8c1-1,2.1-1,2.2-1l0,1.1h0
		c0,0-0.8,0-1.4,0.6c-0.6,0.6-0.9,1.6-0.9,3c0,0.8,0,1.6,0,2.4c0,3.3,0,6.2,0.9,8.6c0.2,0.4,0.3,0.8,0.4,1.2c0.8,2.1,1,2.7,1.5,2.7
		l0.1,1.1C68,86.8,68,86.8,68,86.8z"/>
	<path d="M101.6,57.5c0,0,1.1,0.1,4.9-1.3c4.2-1.5,8.5-3,10.5-3.1s6.5,0.1,8.7,2.7s-0.9-0.4-2.8-0.7c-1.9-0.3-7-1.1-9.7,0.9
		c-1.7,1.3-4.6,2.7-8.2,2.7c0,0-2.8,0-4.1-0.4C99.6,58.1,101.6,57.5,101.6,57.5z"/>
	<path d="M87.6,58.6c0,0-5.6-4.5-6.8-5.1s-4.2-3.6-7.6-0.3c-2.9,2.7-3.2,2.9-4.1,4.9c0.7,0,4.4-2.8,5-3.3c0.6-0.5,2.1-1.6,4.8-0.2
		c2.8,1.4,6.6,4.4,7.1,4.6c0.5,0.2,1.6,0.1,1.7,0C87.7,59,87.6,58.6,87.6,58.6z"/>
	<path d="M90.1,65.8c-0.8-1.7-2.6-4.3-2.6-4.3l0.9-0.6c0.1,0.1,1.8,2.7,2.7,4.4L90.1,65.8z"/>
	<path d="M75.4,59.8l-0.5-0.2c0.4-0.8,3.5-3.4,3.8-3.7l0.4,0.4C77.7,57.3,75.6,59.2,75.4,59.8z"/>
	<path d="M86,63.4c0,0-1.3-1.9-2.2-2.6c-0.9-0.8-3.2-2.8-6.1-0.4c-1.3,1.1-2.7,2.9-2.9,3.6c0.1,0.5,0.8-0.3,1-0.5s2.1-2.3,3.5-2.6
		c1.4-0.3,2.5-0.4,3.5,0.5c1,0.8,2.6,2,2.8,2.2C85.7,63.5,86,63.4,86,63.4z"/>
	<path d="M112.4,61.6c0,0-1.3-0.7-2.6,1.8c-0.5,0.9-1.8,0.9-0.5-0.9c1.3-1.9,2.8-3,7.1-1.9c2.7,0.9,4.1,3.1,4.3,3.5
		s-0.6,0.5-0.8,0.3s-1.3-2.7-4.2-3.1C112.8,60.8,112.7,61.5,112.4,61.6z"/>
	<path d="M117.1,64.3c0,1.9-1.2,3.5-2.8,3.5s-2.8-1.6-2.8-3.5c0-1.9,1.2-3.5,2.8-3.5S117.1,62.3,117.1,64.3z M116.2,62.7
		c-0.4,0-0.8,0.4-0.8,0.9s0.3,0.9,0.8,0.9s0.8-0.4,0.8-0.9S116.7,62.7,116.2,62.7z"/>
	<path d="M83.5,63.9c0,1.9-1.3,3.4-2.9,3.4s-2.9-1.5-2.9-3.4s1.3-3.4,2.9-3.4S83.5,62,83.5,63.9z M81.9,61.7c-0.4,0-0.7,0.4-0.7,1
		s0.3,1,0.7,1c0.4,0,0.7-0.4,0.7-1S82.3,61.7,81.9,61.7z"/>
	<path d="M85.4,77.9L84.6,77c5.1-4.6,5.4-8.8,5.4-8.9l1.1,0.1C91.2,68.4,90.8,72.9,85.4,77.9z"/>
	<path d="M82.7,73.1l-0.3-0.5c1.3-0.7,3.2-3.5,3.3-3.6l0.5,0.3C86.1,69.4,84.2,72.3,82.7,73.1z"/>
	<path d="M77.5,74.6c-1.8-1-4.4-4-4.5-4.1l0.4-0.4c0,0,2.6,3.1,4.3,4L77.5,74.6z"/>
	<path d="M88.7,88.7c0-0.6-0.4-2.3-1.9-2.9c-2-0.8-2.3-3.8-2.4-3.9l1.1-0.1c0.1,0.7,0.5,2.5,1.7,3c1.8,0.8,2.6,2.8,2.6,3.9
		L88.7,88.7z"/>
	<path d="M93.8,85.9c-1-1.1-1.6-1.1-1.6-1.1l0-0.6c0.1,0,0.8,0,2,1.3L93.8,85.9z"/>
	<path d="M84,94.8c-0.5-1.6,0-6,0-6.2l0.6,0.1c0,0-0.5,4.4,0,5.9L84,94.8z"/>
	<path d="M109.8,108.7h-1.1c0-0.7,0.2-1.9,0.5-3.2c0.3-1.5,0.7-3.3,0.8-4.7l0-0.1c0.1-2.5,0.2-4.3-1.1-5.1c-1.6-1-5.3-7.1-5.7-7.8
		l1-0.6c1.6,2.6,4.3,6.8,5.4,7.5c1.7,1.2,1.7,3.3,1.6,6.1l0,0.1c-0.1,1.5-0.5,3.3-0.8,4.9C110,107,109.8,108.1,109.8,108.7z"/>
	<path d="M85.6,105c-1.3-0.8-1.9-1.8-1.8-2.8c0.1-1.6,1.8-2.6,1.9-2.7l0.6,1c-0.4,0.2-1.3,0.9-1.3,1.7c0,0.6,0.4,1.2,1.3,1.8
		L85.6,105z"/>
	<path d="M111.3,73.8c-0.8-0.8-3.6-3.3-3.6-3.3l0.4-0.4c0,0,2.7,2.5,3.6,3.3L111.3,73.8z"/>
	<path d="M118.6,74.7l-0.1-0.6c1.2-0.3,3.8-3,4.7-4l0.4,0.4C123.5,70.6,120.3,74.3,118.6,74.7z"/>
	<rect x="116.8" y="55.4" transform="matrix(0.683 -0.7304 0.7304 0.683 -4.8403 103.7259)" width="0.6" height="4.1"/>
	<path d="M106.1,103.1c0,0-0.5-0.5-2.5-1.1c-1.7-0.5-3.6-0.9-4.9-1.1c-0.6-0.1-1-0.2-1.2-0.3c-0.2,0-0.7,0-1.2,0
		c-1.3,0-3,0.1-4.6-0.5c-1.9-0.7-5.5,0-5.6,0L85.8,99c0.2,0,4-0.8,6.2,0c1.3,0.5,2.9,0.5,4.1,0.4c0.7,0,1.2,0,1.5,0.1
		c0.2,0.1,0.7,0.1,1.2,0.3c1.3,0.3,3.3,0.7,5,1.2c2.4,0.7,3,1.4,3.1,1.5L106.1,103.1C106.1,103.1,106.1,103.1,106.1,103.1z"/>
	<path d="M92.3,105.5h3.4c0,0-0.6,0.7-1.6,0.7C93.1,106.2,92.3,105.5,92.3,105.5z"/>
	<path d="M79.5,104.6c-0.2-0.7,0-2.5,0-2.7l0.6,0.1c-0.1,0.5-0.2,2,0,2.5L79.5,104.6z"/>
	<path d="M116.6,107.1l-0.5-0.3c0.3-0.5,0.1-1.8,0-2.3l0.6-0.1C116.6,104.6,117,106.4,116.6,107.1z"/>
	<path d="M84.4,109.5l-0.5-0.3c1-1.5,1.4-3.7,1.4-3.8l0.6,0.1C85.9,105.6,85.5,108,84.4,109.5z"/>
	<path class="st0" d="M48.5,71.4"/>
	<path d="M114.9,120.9l-0.5-1c1.2-0.6,10.9-8.8,11.6-10.7c0.8-2.1,3.3-12.9,3.3-13.1l1.1,0.3c-0.1,0.4-2.5,11.1-3.4,13.2
		C126.1,112,115.8,120.4,114.9,120.9z"/>
	<path d="M135.6,85.3l-1.1,0c0-0.5,1.2-6.8,3.2-9.4c0.7-0.9,1.4-1.3,2.1-1.2c1,0.2,1.4,1.7,1.4,1.8l-1.1,0.3c-0.1-0.4-0.4-0.9-0.6-1
		c-0.1,0-0.5,0.2-1,0.8C136.9,78.8,135.7,84.7,135.6,85.3z"/>
	<path d="M136.9,87.9l-0.8-0.8c0.3-0.3,2.8-3.9,2.8-6.5c0-0.7-0.1-1.1-0.4-1.3c-0.3-0.2-0.8,0-0.9,0.1l-0.5-1c0.1-0.1,1.2-0.6,2-0.1
		c0.6,0.4,0.9,1.1,0.9,2.2C140,83.5,137.4,87.4,136.9,87.9z"/>
	<path d="M73.5,142l-1.1,0c0,0,0-2.7,0-4l0-0.4c0-1.4,0-3.7,1.2-5.6c1.4-2.1,4.2-2.7,4.3-2.7l0.2,1.1c0,0-2.5,0.5-3.6,2.2
		c-1.1,1.6-1.1,3.6-1,4.9l0,0.4C73.5,139.4,73.5,142,73.5,142z"/>
	<path d="M98.7,135.3c-9.2,0-19.4-1.4-20.5-1.8c-0.7-0.2-0.9-0.6-1-0.9c-0.1-0.7,0.5-1.2,0.6-1.3l0.7,0.9l-0.3-0.4l0.3,0.4
		c-0.1,0-0.1,0.1-0.1,0.2c0,0,0.1,0,0.2,0.1c1.1,0.4,12,1.8,21.1,1.7c9.2-0.1,22.4-3.2,25-4c2.7-0.8,6.5-2.2,7.4-2.7
		c0,0-0.1,0-0.1-0.1l-0.3-0.1l-0.1-0.3c-0.7-3.1,1-24.2,1.1-25.1l1.1,0.1c-0.6,7.3-1.6,21.5-1.1,24.5c0.2,0.1,0.5,0.4,0.6,0.7
		c0.1,0.3,0,0.6-0.2,0.8c-0.6,0.9-8,3.2-8.1,3.2c-2.6,0.8-16,3.9-25.3,4C99.3,135.3,99,135.3,98.7,135.3z"/>
	<path d="M237.1,204c-1.1-1.9-1.1-2.8-0.9-4.3c0.1-0.7,0.1-1.6,0.1-2.8c0-8.5-7-18-9.1-20.7l-0.1-0.1c-0.1-0.1-0.1-0.1-0.2-0.2
		c-0.5-0.4-1.4-1.3-6.2-7.7c-6.1-8.3-14-11.8-27.3-12.2c-13-0.4-19.9-2.2-23.3-3.7c-2-0.9-17.7-6-25.2-8.5c-2-0.7-3.5-1.2-4-1.3
		l-0.2-0.1l-0.1-0.2c-1.5-2.2-4.3-2.8-4.4-2.8l-0.5-0.1l0-0.5c0,0,0.1-5,0-8.7c-0.1-1.6-0.5-2.7-1.3-3.4c-1-0.8-2.4-0.6-2.4-0.6
		l-0.2-1.1c0.1,0,1.8-0.3,3.3,0.8c1.1,0.9,1.7,2.3,1.7,4.2c0.1,3.1,0,7.1,0,8.4c0.9,0.3,3.1,1.1,4.5,3c0.6,0.2,2,0.7,3.9,1.3
		c7.5,2.5,23.2,7.7,25.3,8.6c2.8,1.2,9.4,3.2,22.9,3.6c13.5,0.4,21.9,4.2,28.2,12.6c4.6,6.3,5.6,7.2,6,7.5c0.1,0.1,0.2,0.2,0.3,0.4
		c2.3,2.9,9.4,12.6,9.4,21.5c0.1,1.3,0,2.2-0.1,2.9c-0.1,1.3-0.2,2,0.8,3.6L237.1,204z"/>
	<path d="M3,204.7l-0.3-0.2c-0.4-0.3-0.2-0.7-0.2-0.9l0.1,0c0.2-0.5,1.3-4-0.5-9.2c-3.2-6.6,4-23,8-30c4.9-8.5,10.2-12,18.5-12
		c8.8,0,20.2-2.6,23.2-3.7c3.1-1.1,20.3-9.3,20.4-9.4l0.5,1c-0.7,0.3-17.4,8.4-20.6,9.5c-3.1,1.1-14.7,3.8-23.6,3.8
		c-7.8,0-12.8,3.3-17.5,11.4c-4.1,7.2-10.7,23.1-7.9,29c2,5.8,0.8,10.1,0.3,10.5L3,204.7z"/>
	<path d="M126.9,147.8l-1-0.6c1.7-3,6.8-4.8,7-4.9l0.4,1.1C133.3,143.4,128.4,145.2,126.9,147.8z"/>
	<path d="M129.7,151l-1.1-0.3c0.5-1.8,3.7-5.4,4.1-5.8l0.8,0.7C132.6,146.6,130.1,149.7,129.7,151z"/>
	<path d="M177,204.2l-1.1-0.3c4-13.2,18.1-27.8,18.2-28l0.8,0.8C194.8,176.8,181,191.2,177,204.2z"/>
	<path d="M17.5,204.1c-3.7-4.2-4.1-18.2-4.2-18.7l1.1,0c0,0.1,0.4,14.1,3.9,18L17.5,204.1z"/>
	<path d="M20.5,203.8c-0.2-1.4,2.3-7.7,3.5-10.3c1.3-2.6,2.5-8.8,2.5-8.8l1.1,0.2c0,0.3-1.2,6.4-2.6,9.1c-1.5,3-3.5,8.7-3.4,9.6
		L20.5,203.8z"/>
</g>
</svg>
