<?xml version="1.0" encoding="utf-8"?>
<!-- Generator: Adobe Illustrator 23.0.1, SVG Export Plug-In . SVG Version: 6.00 Build 0)  -->
<svg version="1.1" id="レイヤー_1" xmlns="http://www.w3.org/2000/svg" xmlns:xlink="http://www.w3.org/1999/xlink" x="0px"
	 y="0px" viewBox="0 0 2256 1171.1" style="enable-background:new 0 0 2256 1171.1;" xml:space="preserve">
<style type="text/css">
	.st0{clip-path:url(#SVGID_2_);}
	.st1{fill:#231815;}
	.st2{fill:none;stroke:#01559C;stroke-miterlimit:10;}
</style>
<g>
	<defs>
		<rect id="SVGID_1_" y="0.5" width="2256.3" height="1170.6"/>
	</defs>
	<clipPath id="SVGID_2_">
		<use xlink:href="#SVGID_1_"  style="overflow:visible;"/>
	</clipPath>
	<g class="st0">
		<polygon class="st1" points="22.8,0.5 8.5,958 40.2,1171.1 377.4,1171.1 141.9,937.4 148.6,0.5 		"/>
		<polygon class="st1" points="259,0.5 259,919 761.3,1171.1 1172.8,1171.1 377.4,905.5 360,0.5 		"/>
		<polygon class="st1" points="459,0.5 483.1,888.3 1713,1171.1 2256.3,1171.1 2256.3,1136.7 571.4,876 546.4,0.5 		"/>
		<polygon class="st1" points="626.2,0.5 666.3,866.1 2256.3,1039.5 2256.3,973.1 739.9,853 706.5,0.5 		"/>
		<polygon class="st1" points="770.7,0.5 814.8,842.7 2256.3,917.8 2256.3,877.2 877.1,832.9 830.9,0.5 		"/>
		<polyline class="st2" points="2256.3,855.1 932.6,829.2 897.8,829.2 8.5,958 		"/>
		<polygon class="st1" points="881.1,0.5 920.1,829.2 971.4,830 915.7,0.5 		"/>
		<polygon class="st1" points="958.6,0.5 1023.5,829.2 1073.7,832 1007.5,0.5 		"/>
		<polygon class="st1" points="1063.7,0.5 1128.3,832 1186.1,832 1113.9,0.5 		"/>
		<polygon class="st1" points="1177,0.5 1254.4,835.5 1322.6,835.5 1245.7,0.5 		"/>
		<polygon class="st1" points="1312.5,0.5 1408.8,838.5 1493.1,838.5 1392.8,0.5 		"/>
		<polygon class="st1" points="1483.1,0.5 1593.5,842.1 1713,844.5 1585.4,0.5 		"/>
		<polygon class="st1" points="1703.8,0.5 1868.4,844.5 1986.8,849.8 1841.1,0.5 		"/>
		<polygon class="st1" points="1996.3,0.5 2159.4,849.8 2342,849.8 2256.3,397.6 2168.7,0.5 		"/>
	</g>
</g>
</svg>
