<?xml version="1.0" encoding="utf-8"?>
<!-- Generator: Adobe Illustrator 23.0.1, SVG Export Plug-In . SVG Version: 6.00 Build 0)  -->
<svg version="1.1" id="レイヤー_1" xmlns="http://www.w3.org/2000/svg" xmlns:xlink="http://www.w3.org/1999/xlink" x="0px"
	 y="0px" viewBox="0 0 2256 1176.5" style="enable-background:new 0 0 2256 1176.5;" xml:space="preserve">
<style type="text/css">
	.st0{opacity:0.46;fill:#FFFFFF;}
	.st1{font-family:'Arial-BoldMT';}
	.st2{font-size:226.7383px;}
	.st3{fill:#231815;}
	.st4{fill:none;stroke:#01559C;stroke-miterlimit:10;}
	.st5{fill:#FFFFFF;}
	.st6{fill:none;}
	.st7{fill:#EFCB20;}
</style>
<text transform="matrix(1 0 0 1 1150.9385 226.5053)" class="st0 st1 st2">IKEA</text>
<g>
	<polygon class="st3" points="22.8,0.5 8.5,958 40.2,1171.1 377.4,1171.1 141.9,937.4 148.6,0.5 	"/>
	<polygon class="st3" points="259,0.5 259,919 761.3,1171.1 1172.8,1171.1 377.4,905.5 360,0.5 	"/>
	<polygon class="st3" points="459,0.5 483.1,888.3 1713,1171.1 2256.3,1171.1 2256.3,1136.7 571.4,876 546.4,0.5 	"/>
	<polygon class="st3" points="626.2,0.5 666.3,866.1 2256.3,1039.5 2256.3,973.1 739.9,853 706.5,0.5 	"/>
	<polygon class="st3" points="770.7,0.5 814.8,842.7 2256.3,917.8 2256.3,877.2 877.1,832.9 830.9,0.5 	"/>
	<polyline class="st4" points="2256.3,855.1 932.6,829.2 897.8,829.2 8.5,958 	"/>
	<polygon class="st3" points="881.1,0.5 920.1,829.2 971.4,830 915.7,0.5 	"/>
	<polygon class="st3" points="958.6,0.5 1023.5,829.2 1073.7,832 1007.5,0.5 	"/>
	<polygon class="st3" points="1063.7,0.5 1128.3,832 1186.1,832 1113.9,0.5 	"/>
	<polygon class="st3" points="1177,0.5 1254.4,835.5 1322.6,835.5 1245.7,0.5 	"/>
	<polygon class="st3" points="1312.5,0.5 1408.8,838.5 1493.1,838.5 1392.8,0.5 	"/>
	<polygon class="st3" points="1483.1,0.5 1593.5,842.1 1713,844.5 1585.4,0.5 	"/>
	<polygon class="st3" points="1703.8,0.5 1868.4,844.5 1986.8,849.8 1841.1,0.5 	"/>
	<polygon class="st3" points="1996.3,0.5 2159.4,849.8 2342,849.8 2256.3,397.6 2168.7,0.5 	"/>
</g>
<g id="flzZ0y_1_">
	
		<image style="overflow:visible;" width="105" height="177" id="flzZ0y_2_" xlink:href="35921449B0A125B2.png"  transform="matrix(3.4959 0 0 3.4959 1548.3406 239.9413)">
	</image>
</g>
<path class="st3" d="M225.9,339.3h0.5l0,2.6h-0.4L225.9,339.3z M227.4,339.3h0.5l0,2.6h-0.4L227.4,339.3z"/>
<path class="st3" d="M238.2,338.9c-0.3,4.1-2.7,7-7.4,8.2l-0.3-0.5c3.1-0.8,5.1-2.3,6.2-4.4l-6.3,0.5l-0.2-0.6l6.6-0.4
	c0.3-0.7,0.5-1.5,0.6-2.3h-6.5v-0.5H238.2z M233,354.3v-3.7h9.7v-2.3h-9.8v-0.5h10.3v3.3h-9.7v2.7h10.5v0.5H233z M238.3,342.9v-0.5
	h4.3V338h0.5v8.8h-0.5v-3.9H238.3z"/>
<path class="st3" d="M254.4,346.7c-2.1,0.4-4.2,0.6-6.7,0.6h-0.6v-4.4h5.4v-3.1h-5.4v-0.5h5.9v4.1h-5.4v3.4c2.5,0,4.8-0.2,6.6-0.5
	L254.4,346.7z"/>
<polygon class="st3" points="256.6,348.2 256.6,343.3 253.8,343.3 253.8,342.8 256.6,342.8 256.6,338.3 257,338.3 257,348.2 "/>
<rect x="259.5" y="338" class="st5" width="0.5" height="10.4"/>
<path class="st5" d="M271.8,347.4c-1.6-0.6-3.6-2.6-4.3-4.5c-0.4,2-2.3,4.1-4.2,5l-0.3-0.4c2.4-1,4.3-3.5,4.3-6.2V339h0.5v2.3
	c0,2.8,2.5,5,4.3,5.7L271.8,347.4z M266,353.7v-4.9h0.5v4.4h10.2v0.5H266z M271.7,340.7h3.9V338h0.5v12h-0.5v-5.2h-3.9v-0.5h3.9
	v-3.2h-3.9V340.7z"/>
<path class="st5" d="M279.2,346v-0.5h14.9v0.5H279.2z M286.6,343.9c-3.7,0-5.6-1.2-5.6-2.8c0-1.6,1.9-2.8,5.6-2.8
	c3.7,0,5.6,1.2,5.6,2.8C292.2,342.7,290.3,343.9,286.6,343.9z M281.2,354.1v-3.5h10.2v-2.2h-10.2V348h10.7v3.2h-10.2v2.5h11.1v0.5
	H281.2z M286.6,338.9c-3.4,0-5.1,1-5.1,2.3c0,1.2,1.7,2.3,5.1,2.3c3.4,0,5.1-1.1,5.1-2.3C291.7,339.9,290,338.9,286.6,338.9z"/>
<path class="st5" d="M301.5,346.8v-7.2h7.3v7.2H301.5z M308.3,340.1h-6.2v6.2h6.2V340.1z M303.4,353.7v-4.9h0.5v4.4h10.2v0.5H303.4z
	 M313.2,343.7v6.2h-0.5V338h0.5v5.2h2.7v0.5H313.2z"/>
<path class="st5" d="M317.1,345.7v-0.5h14.9v0.5H317.1z M319,354.1v-3.6h10.3v-2.2H319v-0.5h10.9v3.2h-10.3v2.6h11.1v0.5H319z
	 M319.1,343.2v-4.5H330v0.5h-10.4v3.6h10.5v0.5H319.1z"/>
<path class="st5" d="M339.3,351l-0.4-0.5c4.4-2.1,7.2-5.7,7.5-10.2h-6.9v-0.5h7.4C346.9,345,343.7,348.8,339.3,351z M351.3,354.4
	V338h0.5v16.5H351.3z"/>
<rect x="355.5" y="341.5" class="st5" width="10" height="0.5"/>
<path class="st5" d="M366.1,350.3c-1.3,0.2-3.4,0.4-5.5,0.5v-2c1.9-0.1,3.3-1.2,3.3-2.7c0-1.6-1.5-2.8-3.6-2.8c-2,0-3.6,1.2-3.6,2.8
	c0,1.5,1.4,2.7,3.3,2.7v2.1c-2.1,0.1-4.1,0.1-5,0.1l0.1,0.5c1.6,0,3.7-0.1,5.8-0.2c2.2-0.1,3.8-0.3,5.2-0.5L366.1,350.3z
	 M357.3,345.9c0-1.2,1.2-2.2,3-2.2c1.8,0,3,1,3,2.2c0,1.2-1.2,2.2-3,2.2C358.5,348.2,357.3,347.1,357.3,345.9z"/>
<rect x="358" y="339" class="st5" width="4.7" height="0.5"/>
<rect x="367.5" y="338" class="st3" width="0.5" height="16.5"/>
<path class="st3" d="M371.4,346.5V346h14.9v0.5H371.4z M373.4,354v-3.2h10.5v-2h-10.5v-0.5h11v3h-10.5v2.2H385v0.5H373.4z
	 M373.4,344.1v-3.1h10.3v-2h-10.4v-0.5h10.8v3h-10.3v2.1h10.6v0.5H373.4z"/>
<path class="st3" d="M401.3,342.7c0,2.3-1.8,3.8-4,3.8c-2.3,0-4.1-1.5-4.1-3.8c0-2.3,1.9-3.8,4.1-3.8
	C399.5,339,401.3,340.4,401.3,342.7z M393.7,342.8c0,2,1.6,3.3,3.6,3.3c2,0,3.6-1.3,3.6-3.3c0-2-1.6-3.3-3.6-3.3
	C395.3,339.5,393.7,340.8,393.7,342.8z M395.8,354.2v-5.5h10.4v0.5h-9.9v4.5h10.1v0.5H395.8z M402,343v-0.5h3.6V338h0.5v9.7h-0.5
	V343H402z"/>
<path class="st3" d="M409.3,351.9v-0.5h14.9v0.5H409.3z M416.7,347.4c-3.5,0-5.7-1.7-5.7-3.9c0-2.2,2.2-4,5.7-4c3.5,0,5.7,1.7,5.7,4
	C422.4,345.7,420.2,347.4,416.7,347.4z M416.7,340c-3.1,0-5.2,1.5-5.2,3.5c0,1.9,2,3.5,5.2,3.5c3.1,0,5.2-1.5,5.2-3.5
	C421.9,341.5,419.8,340,416.7,340z"/>
<path class="st3" d="M434.9,346.4c-1.6-0.6-3.6-2.3-4.2-4.2c-0.5,2-2.3,3.8-4.2,4.7l-0.4-0.4c2.4-1,4.4-3.2,4.4-5.9v-1.8h0.5v1.8
	c0,2.8,2.5,4.7,4.4,5.4L434.9,346.4z M428.8,354.2v-6.4h0.5v2.6h9.2v-2.6h0.5v6.5H428.8z M438.5,350.9h-9.2v2.8h9.2V350.9z
	 M438.5,346.8V338h0.5v8.8H438.5z"/>
<path class="st3" d="M451.6,350.4c-1.9-1.1-4-3.5-4.5-5.8c-0.6,2.2-2.2,4.7-4.4,6.1l-0.4-0.5c2.4-1.3,4.5-4.8,4.5-7.3v-3.5h0.5v3.5
	c0,2.7,2.4,6,4.6,7L451.6,350.4z M454.9,354.4V338h0.5v16.5H454.9z"/>
<path class="st5" d="M475.6,351.8h0.8v0.9h-0.8V351.8z"/>
<path class="st5" d="M494.1,339.3c2.1,0,3.9,2.1,3.9,5.6c0,3.4-1.8,5.6-3.9,5.6c-2.2,0-3.9-2.2-3.9-5.6
	C490.2,341.4,491.9,339.3,494.1,339.3z M494.1,350c1.8,0,3.4-2,3.4-5.1c0-3.2-1.5-5.1-3.4-5.1c-1.8,0-3.4,1.9-3.4,5.1
	C490.7,348.1,492.3,350,494.1,350z M502.2,354.4V338h0.5v16.5H502.2z"/>
<path class="st5" d="M506.6,350.9l-0.4-0.5c2.7-1.4,4.5-3.4,5.5-6.1l-5.4,0.6l-0.2-0.6l5.7-0.4c0.3-1,0.5-2.1,0.6-3.4h-5.6V340h6.1
	C512.7,345.3,510.7,348.6,506.6,350.9z M515.9,353.5v-8.3h-3.2v-0.5h3.2v-6.2h0.5v15.1H515.9z M519.2,354.4V338h0.5v16.5H519.2z"/>
<path class="st5" d="M526.7,339.3c2.1,0,3.9,2.1,3.9,5.6c0,3.4-1.7,5.6-3.9,5.6c-2.2,0-3.9-2.2-3.9-5.6
	C522.7,341.4,524.4,339.3,526.7,339.3z M526.7,350c1.9,0,3.4-1.9,3.4-5.1c0-3.2-1.5-5.1-3.4-5.1c-1.9,0-3.4,1.9-3.4,5.1
	C523.2,348.1,524.8,350,526.7,350z M534.7,345.4v9h-0.5V338h0.5v7h3v0.5H534.7z"/>
<path class="st3" d="M570.2,349.7c-2.3,0.4-5.3,0.6-8.8,0.6h-0.5v-5.8h6.7v-4.3h-6.7v-0.5h7.2v5.3h-6.7v4.9c3.6,0,6.8-0.3,8.8-0.6
	L570.2,349.7z M572.6,345.4v9h-0.5V338h0.5v7h3v0.5H572.6z"/>
<path class="st3" d="M586.2,350.4c-1.8-1.1-3.9-3.5-4.5-5.8c-0.6,2.2-2.2,4.7-4.4,6.1l-0.4-0.5c2.4-1.3,4.5-4.8,4.5-7.3v-3.5h0.5
	v3.5c0,2.7,2.5,6,4.6,7L586.2,350.4z M584.9,344.7v-0.5h4.5V338h0.5v16.5h-0.5v-9.7H584.9z"/>
<path class="st3" d="M606,350.2c-1.7-1.1-3.2-3.3-3.8-5.4c-0.4,2.2-2,4.6-3.8,5.7l-0.3-0.4c2.4-1.4,3.9-4.2,3.9-7.4v-3.1h0.6v3.2
	c0,3.2,1.9,5.8,3.9,7L606,350.2z M608.1,353.5v-8.7h-3.5v-0.5h3.5v-5.8h0.5v15H608.1z M611.4,354.4V338h0.5v16.5H611.4z"/>
<path class="st3" d="M623.5,346.7c-1.6-0.6-3.6-2.4-4.3-4.3c-0.5,2-2.3,3.9-4.3,4.8l-0.3-0.5c2.3-1,4.3-3.3,4.3-5.9v-2h0.5v2
	c0,2.8,2.5,4.8,4.4,5.5L623.5,346.7z M622,354.4c-3.4,0-5.4-1.2-5.4-2.9c0-1.8,2-2.9,5.4-2.9c3.4,0,5.4,1.1,5.4,2.9
	C627.4,353.2,625.4,354.4,622,354.4z M622,349.1c-3.2,0-4.9,1-4.9,2.4s1.7,2.4,4.9,2.4c3.2,0,4.9-1,4.9-2.4S625.2,349.1,622,349.1z
	 M627.1,343.3v4.8h-0.5V338h0.5v4.8h2.7v0.5H627.1z"/>
<path class="st3" d="M641,338.5v6.3h-2.9c-0.1-3.2-1.5-5.2-3.4-5.2c-2,0-3.4,2.1-3.4,5.4c0,3.4,1.4,5.5,3.4,5.5c1.9,0,3.3-2,3.4-5.2
	h2.9v8.2h0.5v-15H641z M634.7,350c-1.6,0-2.9-1.9-2.9-5c0-3,1.2-4.9,2.9-4.9s2.9,1.9,2.9,4.9S636.3,350,634.7,350z"/>
<rect x="644.3" y="338" class="st5" width="0.5" height="16.5"/>
<path class="st5" d="M660.4,349.4c-1.5,0.4-3.8,0.6-5.8,0.6h-1.5v-9.9h6.1v0.5h-5.6v8.9c3,0,5.2-0.2,6.7-0.5L660.4,349.4z
	 M665.7,354.4v-9h-3.3v8.1h-0.5v-15.1h0.5v6.5h3.3V338h0.5v16.5H665.7z"/>
<path class="st5" d="M668.8,341.7v-0.5h9.6v0.5H668.8z M673.8,348.7c-2,0-3.6-1.2-3.6-2.8c0-1.7,1.5-2.8,3.6-2.8
	c2.1,0,3.6,1.2,3.6,2.8C677.4,347.5,675.8,348.7,673.8,348.7z M673.8,343.5c-1.8,0-3,1.1-3,2.3c0,1.3,1.2,2.4,3,2.4
	c1.8,0,3-1.1,3-2.4C676.8,344.6,675.6,343.5,673.8,343.5z M671.3,339.3v-0.5h4.7v0.5H671.3z M671.6,353.9v-4.1h0.5v3.6h10.2v0.5
	H671.6z M681.4,344.4v5.7h-0.5V338h0.5v6h2.7v0.5H681.4z"/>
<path class="st5" d="M700.1,345.7c-1.9,0.4-5.1,0.6-7.5,0.6h-1.4v-6.9h7.1v0.5h-6.6v5.9c3.6,0,6.6-0.2,8.3-0.6L700.1,345.7z
	 M697.8,354.3c-3.4,0-5.4-1.2-5.4-2.9c0-1.8,2-2.9,5.4-2.9c3.4,0,5.4,1.1,5.4,2.9C703.1,353.1,701.2,354.3,697.8,354.3z
	 M697.8,348.9c-3.2,0-4.9,1-4.9,2.4c0,1.4,1.7,2.4,4.9,2.4c3.2,0,4.9-1,4.9-2.4C702.6,350,701,348.9,697.8,348.9z M702.8,343.2v4.8
	h-0.5v-10h0.5v4.7h2.7v0.5H702.8z"/>
<path class="st5" d="M715.8,347.1c-1.6-0.6-3.7-2.6-4.3-4.5c-0.5,2-2.3,4.1-4.3,5l-0.3-0.5c2.4-1,4.4-3.5,4.4-6.2v-2.1h0.5v2.1
	c0,2.8,2.5,5,4.3,5.7L715.8,347.1z M709.8,353.7v-4.9h0.5v4.4h10.1v0.5H709.8z M719.3,349.9V338h0.5v11.9H719.3z"/>
<path class="st3" d="M728.7,350.4c-2.1,0.1-3.6,0.1-5.2,0.2l-0.1-0.6c1,0,3.1,0,5.3-0.1c2.2-0.1,4.5-0.2,5.8-0.4l0,0.5
	C733.1,350.1,730.9,350.3,728.7,350.4z M732.6,342.9c0,2.2-1.8,3.7-4.2,3.7c-2.3,0-4.2-1.5-4.2-3.7c0-2.2,1.9-3.7,4.2-3.7
	C730.7,339.3,732.6,340.8,732.6,342.9z M724.7,343c0,1.9,1.7,3.2,3.7,3.2s3.7-1.2,3.7-3.2c0-1.9-1.7-3.2-3.7-3.2
	S724.7,341,724.7,343z M736.2,338v16.5h-0.5V338H736.2z"/>
<path class="st3" d="M745.7,350.3v-10.9h0.5v4.5h6.2v-4.5h0.5v10.9H745.7z M752.5,344.3h-6.2v5.4h6.2V344.3z M757.4,354.4V338h0.5
	v16.5H757.4z"/>
<path class="st3" d="M766.2,340.1v1.6c0,2.8,2.4,4.7,4.3,5.4l-0.3,0.5c-1.7-0.6-3.6-2.4-4.2-4.3c-0.5,2-2.3,3.8-4.3,4.7l-0.3-0.5
	c2.4-1,4.4-3.1,4.4-5.8v-1.6h-4.1v-0.5h8.6v0.5H766.2z M764,353.7v-4.9h0.5v4.4h10.3v0.5H764z M769.8,343.3v-0.5h4.1V338h0.5v12
	h-0.5v-6.7H769.8z"/>
<path class="st5" d="M798.9,346.6v-0.5h6.8v-3.6h0.5v3.6h7.6v0.5H798.9z M806.3,354.2c-3.6,0-5.6-1.2-5.6-2.9c0-1.7,2.1-2.9,5.6-2.9
	c3.5,0,5.6,1.2,5.6,2.9C811.9,353,809.9,354.2,806.3,354.2z M811.8,340.5c0,1.7-0.2,3.3-0.5,4.1l-0.5-0.1c0.3-0.9,0.5-2.5,0.5-3.8
	v-1.3h-10.5v-0.5h11V340.5z M806.3,348.8c-3.5,0-5.1,1.2-5.1,2.4c0,1.3,1.6,2.4,5.1,2.4c3.5,0,5.1-1.2,5.1-2.4
	C811.4,350,809.8,348.8,806.3,348.8z"/>
<path class="st5" d="M819.7,354.4v-6.3h-4.3v-0.5h14.9v0.5h-4.4v6.3h-0.5v-6.3h-5.1v6.3H819.7z M822.8,345.6c-3.4,0-5.5-1.4-5.5-3.4
	c0-2,2.2-3.4,5.5-3.4c3.4,0,5.5,1.4,5.5,3.4C828.3,344.2,826.2,345.6,822.8,345.6z M822.8,339.3c-3,0-5,1.2-5,2.9c0,1.7,2,2.9,5,2.9
	c3,0,5-1.2,5-2.9C827.8,340.5,825.8,339.3,822.8,339.3z"/>
<path class="st5" d="M831.7,342.6v-0.5h9.7v0.5H831.7z M836.7,350.7c-2.1,0-3.6-1.5-3.6-3.3c0-1.9,1.6-3.2,3.6-3.2
	c2.1,0,3.6,1.4,3.6,3.2C840.3,349.2,838.8,350.7,836.7,350.7z M836.7,344.7c-1.9,0-3.1,1.3-3.1,2.8c0,1.5,1.2,2.7,3.1,2.7
	c1.9,0,3.1-1.3,3.1-2.7C839.8,346,838.6,344.7,836.7,344.7z M834.1,339.7v-0.5h4.8v0.5H834.1z M844.2,345.7v8.7h-0.5V338h0.5v7.2h3
	v0.5H844.2z"/>
<path class="st3" d="M878.1,339.3c-0.4,4-3.1,7.1-7.7,8.6l-0.3-0.5c4.2-1.3,6.9-4.2,7.4-7.6h-6.7v-0.5H878.1z M872,354.7l-0.3-0.5
	c2.8-0.6,6-3,6-5.1v-1.1h0.5v1.1c0,2.1,3.1,4.5,5.9,5.1l-0.3,0.5c-2.8-0.8-5.1-2.6-5.9-4.5C877.2,352,874.9,353.9,872,354.7z
	 M878.1,343.4v-0.5h4.3v-5h0.5v11.3h-0.5v-5.9H878.1z"/>
<path class="st3" d="M890.8,339.3c-2.2,0-3.9,2.1-3.9,5.6c0,3.4,1.7,5.6,3.9,5.6c2.1,0,3.9-2.2,3.9-5.6
	C894.7,341.4,892.9,339.3,890.8,339.3z M890.8,350c-1.8,0-3.4-2-3.4-5.1c0-3.2,1.6-5.1,3.4-5.1c1.8,0,3.4,1.9,3.4,5.1
	C894.2,348.1,892.7,350,890.8,350z"/>
<rect x="898.9" y="338" class="st5" width="0.5" height="16.5"/>
<path class="st5" d="M909.5,354.2v-5.5h5.2v-3.6h-7.2v-0.5h5.5c0.3-1.5,0.6-4,0.6-5.4h-4.5v-0.5h5.1c0,2-0.3,4.3-0.7,5.8h6.1
	c0.2-1.3,0.5-3.9,0.5-5.4h-4.4v-0.5h4.9c0,1.9-0.3,4.2-0.6,5.8h2.4v0.5h-7.2v3.6h5.3v5.5H909.5z M920,349.2h-10v4.5h10V349.2z"/>
<path class="st5" d="M928.7,339.3c2.1,0,3.9,2.1,3.9,5.6c0,3.4-1.8,5.6-3.9,5.6c-2.2,0-3.9-2.2-3.9-5.6
	C924.8,341.4,926.5,339.3,928.7,339.3z M928.7,350c1.8,0,3.4-2,3.4-5.1c0-3.2-1.5-5.1-3.4-5.1c-1.8,0-3.4,1.9-3.4,5.1
	C925.3,348.1,926.8,350,928.7,350z M936.8,354.4V338h0.5v16.5H936.8z"/>
<path class="st3" d="M950.1,339.3c2.1,0,3.9,2.1,3.9,5.6c0,3.4-1.8,5.6-3.9,5.6c-2.2,0-3.9-2.2-3.9-5.6
	C946.2,341.4,947.9,339.3,950.1,339.3z M950.1,350c1.8,0,3.4-2,3.4-5.1c0-3.2-1.5-5.1-3.4-5.1c-1.8,0-3.4,1.9-3.4,5.1
	C946.7,348.1,948.3,350,950.1,350z M958.2,354.4V338h0.5v16.5H958.2z"/>
<path class="st3" d="M969.1,354.4v-5.8h-7.2v-0.5h14.9v0.5h-7.2v5.8H969.1z M963.8,345.8v-4h10.5v-2.6h-10.6v-0.5h11.1v3.6h-10.5
	v2.9h11v0.5H963.8z"/>
<path class="st3" d="M234.9,378c-1.9-1.1-3.8-3.4-4.4-5.5c-0.6,2.1-2.3,4.5-4.4,5.9l-0.4-0.5c2.3-1.2,4.6-4.5,4.6-7.1v-3H226v-0.5
	h9.1v0.5h-4.4v3c0,2.6,2.4,5.7,4.5,6.7L234.9,378z M238.2,382v-16.5h0.5V382H238.2z"/>
<path class="st3" d="M241.9,379.7v-0.5h7.2v-5.1H244v-7h10.8v0.5h-10.3v6.1h10.4v0.5h-5.3v5.1h7.2v0.5H241.9z"/>
<path class="st5" d="M266,372.5v2.3h7.2v0.5h-14.9v-0.5h7.2v-2.3h-5.1v-3.4h10.3v-2.5h-10.4v-0.5h10.8v3.4h-10.3v2.5h10.6v0.5H266z
	 M271.3,377.5v4.7h-0.5V378H260v-0.5H271.3z"/>
<path class="st5" d="M274.7,370.2v-0.5h9.7v0.5H274.7z M279.7,378.3c-2.1,0-3.6-1.5-3.6-3.3c0-1.9,1.6-3.2,3.6-3.2
	c2.1,0,3.6,1.4,3.6,3.2C283.3,376.8,281.8,378.3,279.7,378.3z M279.7,372.2c-1.9,0-3.1,1.3-3.1,2.8c0,1.5,1.2,2.7,3.1,2.7
	c1.9,0,3.1-1.3,3.1-2.7C282.7,373.6,281.5,372.2,279.7,372.2z M277.1,367.3v-0.5h4.8v0.5H277.1z M287.2,373.3v8.7h-0.5v-16.5h0.5
	v7.2h3v0.5H287.2z"/>
<path class="st5" d="M291.2,374.8v-0.5h14.9v0.5H291.2z M293.4,381.3v-4.6h0.5v4.1h10.5v0.5H293.4z M293.4,371.5v-5.4h0.5v4.9h10.4
	v0.5H293.4z"/>
<path class="st5" d="M321,366.9c-0.4,4-3.1,7.1-7.7,8.6l-0.3-0.5c4.2-1.3,6.9-4.2,7.4-7.6h-6.7v-0.5H321z M315,382.2l-0.3-0.5
	c2.8-0.6,6-3,6-5.1v-1.1h0.5v1.1c0,2.1,3.1,4.5,5.9,5.1l-0.3,0.5c-2.8-0.8-5.1-2.6-5.9-4.5C320.2,379.6,317.8,381.5,315,382.2z
	 M321.1,371v-0.5h4.3v-5h0.5v11.3h-0.5V371H321.1z"/>
<path class="st5" d="M337.8,370.1c0,2.4-1.8,3.7-4,3.7c-2.3,0-4.1-1.4-4.1-3.7c0-2.4,1.9-3.7,4.1-3.7
	C336,366.4,337.8,367.7,337.8,370.1z M330.1,370.1c0,2,1.6,3.2,3.6,3.2c1.9,0,3.5-1.2,3.5-3.2c0-2-1.6-3.2-3.5-3.2
	C331.8,366.9,330.1,368.1,330.1,370.1z M332.1,381.7v-6.4h0.5v2.6h9.2v-2.6h0.5v6.5H332.1z M341.9,378.4h-9.2v2.8h9.2V378.4z
	 M341.9,374.3v-8.8h0.5v8.8H341.9z"/>
<path class="st5" d="M356,376.7c-2.3,0.5-5.7,0.8-8.7,0.8h-0.5v-10.4h0.5v9.8c3.4,0,6.6-0.3,8.6-0.8L356,376.7z M358.2,382v-16.5
	h0.5V382H358.2z"/>
<path class="st3" d="M378.9,379.3h0.8v0.9h-0.8V379.3z"/>
<path class="st3" d="M397.1,378.2c-1.9-1.1-3.8-3.4-4.4-5.5c-0.5,2.2-2.4,4.6-4.5,5.9l-0.4-0.4c2.4-1.2,4.7-4.6,4.7-7.1v-3.1h-4.1
	v-0.5h8.6v0.5h-4.1v3.1c0,2.6,2.3,5.7,4.5,6.7L397.1,378.2z M396.3,372.2v-0.5h4.3v-6.3h0.5V382h-0.5v-9.7H396.3z"/>
<path class="st3" d="M408,367.1c1.9,0,3.3,1.9,3.4,5.2h2.9V366h0.5v15h-0.5v-8.2h-2.9c-0.1,3.2-1.5,5.2-3.4,5.2
	c-2,0-3.4-2.1-3.4-5.5C404.6,369.2,406,367.1,408,367.1z M408,377.6c1.6,0,2.9-1.9,2.9-5s-1.3-4.9-2.9-4.9c-1.6,0-2.9,1.9-2.9,4.9
	C405.1,375.6,406.3,377.6,408,377.6z M417.6,382v-16.5h0.5V382H417.6z"/>
<path class="st3" d="M421.3,378.3l-0.4-0.5c3.6-2.1,5.8-5.5,6.1-9.6h-5.7v-0.5h6.2C427.4,372.5,425,376,421.3,378.3z M430.8,381
	v-7.9h-3.5v-0.6h3.5V366h0.5V381H430.8z M434,382v-16.5h0.5V382H434z"/>
<path class="st3" d="M445.8,370.3c0,2.3-1.8,3.8-4.1,3.8c-2.2,0-4.1-1.5-4.1-3.8c0-2.3,1.9-3.8,4.1-3.8
	C444,366.5,445.8,368,445.8,370.3z M438.2,370.3c0,2,1.7,3.3,3.6,3.3c1.9,0,3.5-1.3,3.5-3.3c0-2-1.6-3.2-3.5-3.2
	C439.8,367.1,438.2,368.3,438.2,370.3z M444.6,381c-0.9-0.4-2.2-1.6-2.5-2.7c-0.4,1.4-1.8,2.9-3.5,3.7l-0.4-0.4
	c2.1-0.9,3.6-2.8,3.6-4.4v-1.6h0.5v1.4c0,1.5,1.1,2.9,2.6,3.5L444.6,381z M451.6,382c-1.2-0.5-2.9-2.1-3.3-3.5
	c-0.4,1.4-1.9,2.9-3.4,3.6l-0.4-0.4c1.8-0.7,3.6-2.8,3.6-4.3v-1.7h0.5v1.6c0,1.8,1.6,3.6,3.4,4.4L451.6,382z M449.9,375.2v-9.7h0.5
	v9.7H449.9z"/>
<path class="st3" d="M457.8,366.9c2.1,0,3.8,2,3.9,5.3h4.6v-6.7h0.5V382h-0.5v-9.4h-4.6c0,3.4-1.8,5.5-3.9,5.5
	c-2.2,0-3.9-2.2-3.9-5.6C453.9,369,455.6,366.9,457.8,366.9z M457.8,377.6c1.9,0,3.4-1.9,3.4-5.1c0-3.2-1.6-5.1-3.4-5.1
	s-3.4,1.9-3.4,5.1C454.4,375.6,456,377.6,457.8,377.6z"/>
<path class="st5" d="M477.3,367.6v1.5c0,2.7,2.4,4.7,4.3,5.4l-0.3,0.5c-1.6-0.6-3.6-2.4-4.2-4.2c-0.5,1.9-2.4,3.8-4.3,4.7l-0.4-0.5
	c2.4-1,4.4-3.1,4.4-5.8v-1.6h-4.2v-0.5h8.9v0.5H477.3z M475.1,381.2v-4.8h0.5v4.3h10.2v0.5H475.1z M484.8,377.5v-11.9h0.5v11.9
	H484.8z"/>
<path class="st5" d="M493.6,367.4v1.3c0,2.8,2.4,4.6,4.3,5.2l-0.3,0.5c-1.6-0.6-3.6-2.2-4.1-4.1c-0.5,1.9-2.5,3.7-4.4,4.6l-0.4-0.5
	c2.4-1,4.5-3,4.5-5.7v-1.3h-4.1v-0.5h8.7v0.5H493.6z M496.4,381.9c-3.5,0-5.5-1.2-5.5-2.9c0-1.8,2-2.9,5.5-2.9
	c3.5,0,5.5,1.1,5.5,2.9C501.9,380.8,499.8,381.9,496.4,381.9z M496.4,376.6c-3.3,0-5,1-5,2.4c0,1.4,1.7,2.4,5,2.4
	c3.2,0,4.9-1,4.9-2.4C501.3,377.6,499.6,376.6,496.4,376.6z M497.1,370.5V370h4v-4.5h0.5v10.3h-0.5v-5.4H497.1z"/>
<path class="st5" d="M504.8,369.3v-0.5h9.6v0.5H504.8z M509.8,376.2c-2,0-3.6-1.2-3.6-2.8c0-1.7,1.5-2.8,3.6-2.8
	c2.1,0,3.6,1.2,3.6,2.8C513.4,375,511.9,376.2,509.8,376.2z M509.8,371.1c-1.8,0-3,1.1-3,2.3c0,1.3,1.2,2.4,3,2.4c1.8,0,3-1.1,3-2.4
	C512.8,372.2,511.6,371.1,509.8,371.1z M507.3,366.8v-0.5h4.7v0.5H507.3z M507.6,381.4v-4.1h0.5v3.6h10.2v0.5H507.6z M517.4,372v5.7
	h-0.5v-12.2h0.5v6h2.7v0.5H517.4z"/>
<path class="st5" d="M526.2,369.1v-0.5h8.3v0.5H526.2z M530.6,375.3c-1.9,0-3.3-1-3.3-2.5c0-1.4,1.3-2.4,3.3-2.4
	c1.9,0,3.2,1,3.2,2.4C533.8,374.3,532.4,375.3,530.6,375.3z M530.6,370.9c-1.7,0-2.8,0.9-2.8,1.9c0,1.1,1.1,2,2.8,2
	c1.7,0,2.8-0.9,2.8-2C533.3,371.8,532.2,370.9,530.6,370.9z M528.4,366.9v-0.5h4.2v0.5H528.4z M535,381.7c-3.4,0-5.4-1-5.4-2.6
	c0-1.6,2-2.5,5.4-2.5c3.4,0,5.4,0.9,5.4,2.5C540.3,380.7,538.4,381.7,535,381.7z M535,377c-3.2,0-4.9,0.8-4.9,2.1
	c0,1.3,1.7,2.1,4.9,2.1c3.2,0,4.9-0.9,4.9-2.1C539.9,377.8,538.1,377,535,377z M539.5,376.1v-5.1h-3.2v4.5h-0.5v-9.7h0.5v4.7h3.2
	v-5.1h0.5v10.6H539.5z"/>
<path class="st5" d="M542.7,374.8v-0.5h7.2v-2.5h-5.1v-5.9h0.5v2.3h9.7v-2.3h0.5v5.9h-5.1v2.5h7.2v0.5H542.7z M555.7,377v5.2h-0.5
	v-4.7h-10.8V377H555.7z M555.1,368.7h-9.7v2.6h9.7V368.7z"/>
<path class="st3" d="M559.2,375v-0.5H574v0.5H559.2z M566.6,372.3c-3.5,0-5.6-1.2-5.6-3.1c0-1.9,2.1-3.1,5.6-3.1
	c3.5,0,5.6,1.2,5.6,3.1C572.2,371.1,570.1,372.3,566.6,372.3z M561.4,381.3v-4.5h0.5v4h10.5v0.5H561.4z M566.6,366.6
	c-3.2,0-5.1,1.1-5.1,2.6c0,1.5,1.9,2.6,5.1,2.6c3.2,0,5.1-1.1,5.1-2.6C571.6,367.7,569.8,366.6,566.6,366.6z"/>
<path class="st3" d="M590.8,382.2v-6.5h-7.2v-0.5h14.9v0.5h-7.2v6.5H590.8z M584.9,372.7l-0.3-0.5c3-0.5,6.2-2.8,6.2-4.8v-1.2h0.5
	v1.2c0,2.1,3.2,4.4,6.2,4.8l-0.3,0.5c-2.9-0.6-5.5-2.5-6.2-4.2C590.5,370.2,587.9,372.1,584.9,372.7z"/>
<path class="st3" d="M601,373.3v-6.5h7.3v6.5H601z M607.8,367.3h-6.2v5.5h6.2V367.3z M601.9,381.6V376h0.5v5c1.5,0,3.2-0.2,4.3-0.5
	l0.1,0.6C605.5,381.4,603.7,381.6,601.9,381.6z M606.4,377.2v-0.5h8.3v0.5H606.4z M610.5,382c-2,0-3.1-1-3.1-2c0-1,1-2,3.1-2
	s3.1,1,3.1,2C613.6,381,612.5,382,610.5,382z M610.5,378.5c-1.7,0-2.6,0.8-2.6,1.5c0,0.8,0.8,1.5,2.6,1.5c1.7,0,2.6-0.7,2.6-1.5
	C613.1,379.2,612.2,378.5,610.5,378.5z M608.6,375.3v-0.5h3.9v0.5H608.6z M612.7,370v3.7h-0.5v-8.2h0.5v4h2.7v0.5H612.7z"/>
<path class="st3" d="M616.6,375v-0.5h14.9v0.5H616.6z M624,372.3c-3.5,0-5.6-1.2-5.6-3.1c0-1.9,2.1-3.1,5.6-3.1
	c3.5,0,5.6,1.2,5.6,3.1C629.5,371.1,627.4,372.3,624,372.3z M618.7,381.3v-4.5h0.5v4h10.5v0.5H618.7z M624,366.6
	c-3.2,0-5.1,1.1-5.1,2.6c0,1.5,1.9,2.6,5.1,2.6c3.2,0,5.1-1.1,5.1-2.6C629,367.7,627.2,366.6,624,366.6z"/>
<path class="st5" d="M664.4,373.8c-2.3,0.4-5,0.5-8.5,0.5h-0.6V370h6.6v-3h-6.6v-0.5h7.1v4h-6.6v3.3c3.6,0,6.6-0.2,8.5-0.5
	L664.4,373.8z M656.8,381.7v-5.3H667v5.3H656.8z M666.5,376.9h-9.1v4.3h9.1V376.9z M667,370.6v4.8h-0.5v-9.9h0.5v4.6h2.7v0.5H667z"
	/>
<path class="st5" d="M670.9,373.3v-0.5h14.9v0.5H670.9z M672.8,381.7v-3.6h10.3v-2.2h-10.4v-0.5h10.9v3.2h-10.3v2.6h11.1v0.5H672.8z
	 M672.8,370.8v-4.5h10.9v0.5h-10.4v3.6h10.5v0.5H672.8z"/>
<path class="st5" d="M692,366.9c2.1,0,3.9,2.1,3.9,5.6c0,3.4-1.8,5.6-3.9,5.6c-2.2,0-3.9-2.2-3.9-5.6
	C688.1,369,689.8,366.9,692,366.9z M692,377.6c1.8,0,3.4-2,3.4-5.1c0-3.2-1.5-5.1-3.4-5.1c-1.8,0-3.4,1.9-3.4,5.1
	C688.6,375.6,690.1,377.6,692,377.6z M700.1,382v-16.5h0.5V382H700.1z"/>
<path class="st5" d="M713.4,366.9c-2.2,0-3.9,2.1-3.9,5.6c0,3.4,1.7,5.6,3.9,5.6c2.1,0,3.9-2.2,3.9-5.6
	C717.3,369,715.6,366.9,713.4,366.9z M713.4,377.6c-1.8,0-3.4-2-3.4-5.1c0-3.2,1.6-5.1,3.4-5.1c1.8,0,3.4,1.9,3.4,5.1
	C716.8,375.6,715.3,377.6,713.4,377.6z"/>
<rect x="721.5" y="365.5" class="st3" width="0.5" height="16.5"/>
<path class="st3" d="M725.2,375v-0.5h4v-2.6h0.5v2.6h5.9v-2.6h0.5v2.6h4v0.5H725.2z M732.6,371.6c-3.5,0-5.6-1.1-5.6-2.8
	c0-1.7,2.1-2.8,5.6-2.8c3.5,0,5.6,1,5.6,2.8C738.2,370.5,736.1,371.6,732.6,371.6z M732.6,381.9c-3.5,0-5.6-1-5.6-2.7
	c0-1.7,2.1-2.7,5.6-2.7c3.6,0,5.6,1,5.6,2.7C738.2,380.8,736.2,381.9,732.6,381.9z M732.6,366.4c-3.2,0-5.1,0.9-5.1,2.3
	c0,1.4,1.9,2.4,5.1,2.4c3.2,0,5.1-1,5.1-2.4C737.7,367.3,735.8,366.4,732.6,366.4z M732.6,377c-3.3,0-5.1,0.9-5.1,2.2
	c0,1.3,1.8,2.2,5.1,2.2s5.1-0.9,5.1-2.2C737.7,377.9,735.9,377,732.6,377z"/>
<path class="st3" d="M741.8,368.6v-0.5h9.4v0.5H741.8z M746.4,374.6c-2,0-3.5-1.1-3.5-2.5c0-1.4,1.5-2.5,3.5-2.5c2,0,3.5,1,3.5,2.5
	C750,373.5,748.5,374.6,746.4,374.6z M746.4,370.1c-1.8,0-3,0.9-3,2c0,1.1,1.2,2,3,2c1.8,0,3-0.9,3-2
	C749.4,371,748.2,370.1,746.4,370.1z M744.1,366.4v-0.5h4.7v0.5H744.1z M744.3,381.8v-3.3h9.4v-2.1h-9.5v-0.5h10v3.1h-9.5v2.3h10.2
	v0.5H744.3z M754.2,370.8v4.2h-0.5v-9.5h0.5v4.8h2.7v0.5H754.2z"/>
<path class="st3" d="M770.2,382.2v-6.5h-7.2v-0.5h14.9v0.5h-7.2v6.5H770.2z M764.3,372.7l-0.3-0.5c3-0.5,6.2-2.8,6.2-4.8v-1.2h0.5
	v1.2c0,2.1,3.2,4.4,6.2,4.8l-0.3,0.5c-2.9-0.6-5.5-2.5-6.2-4.2C769.9,370.2,767.3,372.1,764.3,372.7z"/>
<path class="st3" d="M788.2,370.3c0,2.3-1.8,3.8-4.1,3.8c-2.2,0-4.1-1.5-4.1-3.8c0-2.3,1.9-3.8,4.1-3.8
	C786.4,366.5,788.2,368,788.2,370.3z M780.5,370.3c0,2,1.7,3.3,3.6,3.3c1.9,0,3.5-1.3,3.5-3.3c0-2-1.6-3.2-3.5-3.2
	C782.2,367.1,780.5,368.3,780.5,370.3z M786.9,381c-0.9-0.4-2.2-1.6-2.5-2.7c-0.4,1.4-1.8,2.9-3.5,3.7l-0.4-0.4
	c2.1-0.9,3.6-2.8,3.6-4.4v-1.6h0.5v1.4c0,1.5,1.1,2.9,2.6,3.5L786.9,381z M793.9,382c-1.2-0.5-2.9-2.1-3.3-3.5
	c-0.4,1.4-1.9,2.9-3.4,3.6l-0.4-0.4c1.8-0.7,3.6-2.8,3.6-4.3v-1.7h0.5v1.6c0,1.8,1.6,3.6,3.4,4.4L793.9,382z M792.3,375.2v-9.7h0.5
	v9.7H792.3z"/>
<path class="st5" d="M796,374.8v-0.5h14.9v0.5H796z M798.1,381.3v-4.6h0.5v4.1h10.5v0.5H798.1z M798.1,371.5v-5.4h0.5v4.9H809v0.5
	H798.1z"/>
<path class="st5" d="M825.3,378c-1.7-1.1-3.2-3-3.7-5.1c-0.4,2.2-1.9,4.4-3.8,5.5l-0.4-0.4c2.5-1.4,3.9-4,3.9-7.3v-2.5h-3.6v-0.5
	h7.6v0.5h-3.5v2.5c0,3.2,1.8,5.7,3.8,6.9L825.3,378z M827.4,381v-8.8H824v-0.5h3.3V366h0.5v15H827.4z M830.7,382v-16.5h0.5V382
	H830.7z"/>
<path class="st5" d="M835.8,381.7v-4.9h5.2v-2.7h-7.2v-0.5h14.9v0.5h-7.2v2.7h5.2v4.9H835.8z M838.1,371.2l-0.5-3.4l0.6-0.1l0.4,3.5
	h5.2l0.6-3.5l0.6,0.1l-0.6,3.4h2.8v0.5h-11.9v-0.5H838.1z M835.3,366.8v-0.5h11.8v0.5H835.3z M846.2,377.3h-9.9v3.9h9.9V377.3z"/>
<path class="st3" d="M850.3,373.6v-0.5h14.9v0.5H850.3z M857.7,371.5c-3.7,0-5.6-1.2-5.6-2.8c0-1.6,1.9-2.8,5.6-2.8
	c3.7,0,5.6,1.2,5.6,2.8C863.3,370.3,861.4,371.5,857.7,371.5z M852.2,381.7v-3.5h10.2v-2.2h-10.2v-0.5h10.7v3.2h-10.2v2.5h11.1v0.5
	H852.2z M857.7,366.4c-3.4,0-5.1,1-5.1,2.3c0,1.2,1.7,2.3,5.1,2.3c3.4,0,5.1-1.1,5.1-2.3C862.7,367.4,861.1,366.4,857.7,366.4z"/>
<path class="st3" d="M872.6,374.4v-7.2h7.3v7.2H872.6z M879.4,367.6h-6.2v6.2h6.2V367.6z M874.4,381.3v-4.9h0.5v4.4h10.2v0.5H874.4z
	 M884.2,371.3v6.2h-0.5v-11.9h0.5v5.2h2.7v0.5H884.2z"/>
<path class="st3" d="M888.2,379.5V379H903v0.5H888.2z M890.2,374.3v-7.1H901v0.5h-10.3v6.1h10.4v0.5H890.2z"/>
<path class="st5" d="M904.6,374.8v-0.5h14.9v0.5H904.6z M906.7,381.3v-4.6h0.5v4.1h10.5v0.5H906.7z M906.8,371.5v-5.4h0.5v4.9h10.4
	v0.5H906.8z"/>
<path class="st5" d="M934.4,366.9c-0.4,4-3.1,7.1-7.7,8.6l-0.3-0.5c4.2-1.3,6.9-4.2,7.4-7.6h-6.7v-0.5H934.4z M928.3,382.2l-0.3-0.5
	c2.8-0.6,6-3,6-5.1v-1.1h0.5v1.1c0,2.1,3.1,4.5,5.9,5.1l-0.3,0.5c-2.8-0.8-5.1-2.6-5.9-4.5C933.5,379.6,931.2,381.5,928.3,382.2z
	 M934.5,371v-0.5h4.3v-5h0.5v11.3h-0.5V371H934.5z"/>
<path class="st3" d="M942.5,379.5V379h14.9v0.5H942.5z M949.9,374.9c-3.5,0-5.7-1.7-5.7-3.9c0-2.2,2.2-4,5.7-4c3.5,0,5.7,1.7,5.7,4
	C955.6,373.2,953.4,374.9,949.9,374.9z M949.9,367.5c-3.1,0-5.2,1.5-5.2,3.5c0,1.9,2,3.5,5.2,3.5c3.1,0,5.2-1.5,5.2-3.5
	C955,369,953,367.5,949.9,367.5z"/>
<path class="st3" d="M958.9,379.7v-0.5h7.2v-3.8h-5.1v-4.6h10.3v-3.4H961v-0.5h10.8v4.4h-10.3v3.6h10.8v0.5h-5.6v3.8h7.2v0.5H958.9z
	"/>
<path class="st3" d="M235.3,404.5c-2.3,0.5-5.5,0.8-8.5,0.8h-0.5v-10.5h0.5v10c3.4,0,6.4-0.3,8.4-0.8L235.3,404.5z M237.8,400.6v9
	h-0.5v-16.5h0.5v7h3v0.5H237.8z"/>
<path class="st3" d="M251.8,404.7c-1.9,0.4-5.3,0.6-7.6,0.6h-1.5v-10.6h7.5v0.5h-7v4.2h6.5v0.5h-6.5v4.9c3.5,0,6.8-0.2,8.5-0.6
	L251.8,404.7z M254.3,400.5v9.1h-0.5v-16.5h0.5v6.9h3v0.5H254.3z"/>
<path class="st5" d="M268.3,400.3c-2.3,0.5-5.5,0.8-8.5,0.8h-0.5v-6.8h0.5v6.4c3.4,0,6.4-0.3,8.4-0.8L268.3,400.3z M265.7,408.5
	c-0.9-0.4-2.2-1.6-2.5-2.7c-0.4,1.4-1.8,2.9-3.5,3.7l-0.3-0.4c2.1-0.9,3.6-2.8,3.6-4.4v-1.6h0.5v1.4c0,1.5,1.2,2.9,2.6,3.5
	L265.7,408.5z M272.7,409.6c-1.2-0.5-2.9-2.1-3.3-3.5c-0.4,1.4-1.9,2.9-3.4,3.6l-0.4-0.4c1.8-0.7,3.5-2.8,3.5-4.3v-1.7h0.5v1.6
	c0,1.8,1.6,3.6,3.4,4.4L272.7,409.6z M270.9,397.9v4.4h-0.5v-9.3h0.5v4.4h2.7v0.5H270.9z"/>
<path class="st5" d="M274.8,401.3v-0.5h14.9v0.5H274.8z M276.1,398.9l-0.3-0.5c3-0.4,6.1-2.5,6.1-4.5v-0.7h0.5v0.7
	c0,2.1,3.2,4.1,6.1,4.5l-0.3,0.5c-2.9-0.6-5.4-2.3-6.1-3.9C281.6,396.7,279.1,398.3,276.1,398.9z M276.9,409.3v-6.4h0.5v2.4h9.7
	v-2.4h0.5v6.4H276.9z M287.1,405.9h-9.7v2.9h9.7V405.9z"/>
<path class="st5" d="M301.7,404.3c-2.3,0.5-5.7,0.8-8.7,0.8h-0.5v-10.4h0.5v9.8c3.4,0,6.6-0.3,8.6-0.8L301.7,404.3z M303.9,409.5
	v-16.5h0.5v16.5H303.9z"/>
<path class="st5" d="M317.6,404.6c-1.9,0.5-5.3,0.6-7.6,0.6h-1.5v-10.5h7.5v0.5h-7v9.5c3.5,0,6.9-0.2,8.5-0.6L317.6,404.6z
	 M320,400.5v9h-0.5v-16.5h0.5v7h3v0.5H320z"/>
<path class="st5" d="M324.6,406.9h0.8v0.9h-0.8V406.9z"/>
<path class="st5" d="M329,393.3h1.2v1.2c0,1.1-0.7,2-1.8,2.2v-0.4c0.8-0.2,1.4-0.9,1.4-1.9H329V393.3z M331.3,393.3h1.2v1.2
	c0,1.1-0.7,2-1.8,2.2v-0.4c0.8-0.2,1.3-0.9,1.3-1.9h-0.8V393.3z"/>
<rect x="249" y="349.2" width="9.9" height="0.5"/>
<polygon class="st5" points="259.5,354.4 260,354.4 260,349.2 259,349.2 259,349.7 259.5,349.7 "/>
<path class="st6" d="M466.3,351.6h2.2l-0.1-4.3c-0.6,0.2-1.3,0.3-2.1,0.3V351.6z"/>
<path class="st6" d="M466,339.6c-3.2,0-5.3,1.6-5.3,3.8c0,2.2,2.1,3.8,5.3,3.8c0.9,0,1.7-0.1,2.4-0.3l-0.2-6.9
	C467.5,339.7,466.8,339.6,466,339.6z"/>
<path d="M466.3,351.6v-4c0.8,0,1.5-0.1,2.1-0.3l0-0.5c-0.7,0.2-1.5,0.3-2.4,0.3c-3.2,0-5.3-1.6-5.3-3.8c0-2.2,2.1-3.8,5.3-3.8
	c0.8,0,1.5,0.1,2.2,0.3l0-0.5c-0.6-0.2-1.4-0.3-2.1-0.3c-3.6,0-5.8,1.8-5.8,4.3c0,2.4,2.1,4.1,5.5,4.2v4h-7.2v0.5h9.9l0-0.5H466.3z"
	/>
<path d="M471.3,343.4c0-1.6-1.2-3-3.1-3.5l0.2,6.9C470.2,346.2,471.3,345,471.3,343.4z"/>
<path class="st5" d="M471.3,343.4c0,1.6-1.1,2.8-2.9,3.4l0,0.5c2.1-0.6,3.4-2.1,3.4-3.9c0-1.9-1.4-3.4-3.6-4l0,0.5
	C470.1,340.4,471.3,341.8,471.3,343.4z"/>
<polygon class="st5" points="473.5,351.6 468.5,351.6 468.5,352.1 473.5,352.1 "/>
<polygon class="st5" points="556.1,344.8 556.1,338 555.6,338 555.6,354.4 556.1,354.4 556.1,345.3 556.2,345.3 556.2,344.8 "/>
<path class="st5" d="M544.7,349.4v-9.1h3.5v-0.5h-4v10.1c1.7,0,3.3-0.2,4.6-0.5l-0.1-0.5C547.3,349.3,546.1,349.4,544.7,349.4z"/>
<path class="st5" d="M549.8,349.3v-9h3.7v-0.5h-4.2v10c2.1,0,3.8-0.1,5.2-0.4l-0.1-0.5C553.5,349.1,551.5,349.3,549.8,349.3z"/>
<rect x="556.2" y="344.8" class="st3" width="2.7" height="0.5"/>
<path class="st5" d="M643.5,373.1l0.1,1.2c0.9,1.6,2.3,3,3.7,3.7l0.3-0.4C646,376.8,644.3,375,643.5,373.1z"/>
<polygon class="st5" points="650.4,372.5 650.4,365.5 649.9,365.5 649.9,382 650.4,382 650.4,373 653.3,373 653.3,372.5 "/>
<path class="st3" d="M642.9,370.6v-3.5h-0.5v3.5c0,2.5-2.2,6-4.5,7.3l0.3,0.5c2.2-1.4,3.8-3.9,4.4-6.1c0.2,0.7,0.5,1.3,0.9,2
	l-0.1-1.2C643.1,372.2,642.9,371.4,642.9,370.6z"/>
<path class="st6" d="M779.8,341.1c0,1.2,1.7,2.3,5.1,2.3c1.6,0,2.9-0.3,3.7-0.7l-0.2-3.3c-0.8-0.4-2-0.6-3.5-0.6
	C781.5,338.9,779.8,339.9,779.8,341.1z"/>
<polygon class="st6" points="779.9,353.7 789.2,353.7 789.1,351.2 779.9,351.2 "/>
<polygon points="777.5,345.5 777.5,346 788.8,346 788.8,345.5 "/>
<polygon points="779.9,353.7 779.9,351.2 789.1,351.2 789,350.7 779.4,350.7 779.4,354.1 789.2,354.1 789.2,353.7 "/>
<path d="M784.9,343.4c-3.4,0-5.1-1.1-5.1-2.3c0-1.3,1.7-2.3,5.1-2.3c1.5,0,2.7,0.2,3.5,0.6l0-0.5c-0.9-0.3-2.1-0.5-3.5-0.5
	c-3.7,0-5.6,1.2-5.6,2.8c0,1.6,1.9,2.8,5.6,2.8c1.6,0,2.8-0.2,3.8-0.6l0-0.6C787.8,343.2,786.6,343.4,784.9,343.4z"/>
<polygon points="779.4,348 779.4,348.5 788.9,348.5 788.9,348 "/>
<path d="M790,341.1c0-0.7-0.5-1.3-1.5-1.7l0.2,3.3C789.5,342.4,790,341.8,790,341.1z"/>
<polygon points="789.6,348.5 788.9,348.5 789,350.7 789.6,350.7 "/>
<polygon class="st5" points="790.1,351.2 790.1,348 788.9,348 788.9,348.5 789.6,348.5 789.6,350.7 789,350.7 789.1,351.2 "/>
<polygon class="st5" points="791,353.7 789.2,353.7 789.2,354.1 791,354.1 "/>
<polygon class="st5" points="792.4,345.5 788.8,345.5 788.8,346 792.4,346 "/>
<path class="st5" d="M790.5,341.1c0-1-0.7-1.8-2.1-2.3l0,0.5c1,0.4,1.5,1,1.5,1.7c0,0.6-0.4,1.2-1.3,1.6l0,0.6
	C789.9,342.8,790.5,342.1,790.5,341.1z"/>
<polygon points="850.1,346.7 850.1,347.3 863.2,347.3 863.2,346.7 "/>
<polygon points="851,349.2 850.5,349.2 850.5,353.8 861.5,353.8 861.5,353.3 851,353.3 "/>
<polygon points="861.5,343.5 851,343.5 851,338.6 850.6,338.6 850.6,343.9 861.5,343.9 "/>
<polygon class="st5" points="848.4,346.7 848.4,347.3 850.1,347.3 850.1,346.7 "/>
<path class="st6" d="M982.6,339.9c-1.9,0-3.4,1.9-3.4,5.1c0,3.1,1.5,5.1,3.4,5.1c1.4,0,2.7-1.1,3.2-3.1l-0.4-5.1
	C984.7,340.6,983.7,339.9,982.6,339.9z"/>
<path d="M982.6,350c-1.9,0-3.4-1.9-3.4-5.1c0-3.2,1.5-5.1,3.4-5.1c1.1,0,2.1,0.7,2.8,2l-0.1-1.1c-0.7-0.9-1.6-1.4-2.7-1.4
	c-2.2,0-3.9,2.1-3.9,5.6c0,3.4,1.7,5.6,3.9,5.6c1.4,0,2.6-0.9,3.3-2.4l-0.1-1.2C985.2,348.9,984,350,982.6,350z"/>
<path class="st5" d="M991.1,345.1v9.4h0.5V338h-0.5v6.7h-4.6c-0.1-1.7-0.5-3-1.2-3.9l0.1,1.1c0.4,0.8,0.7,1.9,0.7,3.1
	c0,0.7-0.1,1.4-0.3,2l0.1,1.2c0.4-0.8,0.6-1.9,0.6-3.1H991.1z"/>
<polygon points="370.3,367.7 370.3,367.2 367,367.2 367,367.7 "/>
<polygon points="374.4,372.5 374.4,365.5 373.9,365.5 373.9,382 374.4,382 374.4,373 377.4,373 377.4,372.5 "/>
<path d="M371.8,376.6c-1,0.2-2.7,0.4-4.6,0.5l0,0.5c1.7-0.1,3.5-0.3,4.7-0.5L371.8,376.6z"/>
<path d="M363.3,377.2c1.4,0,2.7,0,3.9-0.1l-0.2-9.4h-3.8V377.2z"/>
<path class="st5" d="M363.3,377.2v-9.5h3.8l0-0.5h-4.2v10.5h1.5c0.9,0,1.9,0,3-0.1l0-0.5C366,377.2,364.6,377.2,363.3,377.2z"/>
<g>
	<g>
		<path class="st7" d="M244.3,256.2l-10.9,51.3h-7.2l10.9-51.3H244.3z"/>
		<path class="st7" d="M256.8,256.2h7.1l-5.3,24.7c3.7-3.5,19-16.4,28.3-24.7h9.1l-25.6,21.9l15.9,29.4h-8L265,282.3l-7.9,6l-4,19.1
			H246L256.8,256.2z"/>
		<path class="st7" d="M326.9,283.5h-23.8l-3.7,17.9h27.2l-2.2,6.1H291l10.9-51.3H334l-1.3,6.1h-25l-3.3,15.2h23.8L326.9,283.5z"/>
		<path class="st7" d="M344.3,292.5l-8.1,15h-7.6l28.3-51.3h8.8l7.5,51.3h-7.2l-2.2-15H344.3z M363.2,286.4
			c-1.7-11.9-2.7-19.9-3.1-24.2h-0.1c-2.3,4.7-6.9,13.4-12.7,24.2H363.2z"/>
		<path class="st7" d="M441.9,270l-36,37.5l-4-4.3l36-37.4L441.9,270z M437.8,307.5L401.9,270l4-4.2l36,37.4L437.8,307.5z"/>
		<path class="st7" d="M461.3,256.2h7.2l-9.6,45.3h25.5l-2.1,6.1h-31.9L461.3,256.2z"/>
		<path class="st7" d="M519.5,298.2c-0.7,3.3-1.6,7.9-1.7,9.3h-6.7c0.1-1.3,0.5-3.6,0.9-5.5c-1.9,2.9-4.9,6.2-12.5,6.2
			c-7.5,0-10.4-5-10.4-9.5c0-10.7,9.9-13.1,17.6-13.9c3.8-0.3,7-0.3,9-0.4l0.5-2.4c0.7-3.4,0.5-7.8-6.4-7.8c-6,0-7.6,3.2-8.7,5.8h-7
			c1.3-5.7,5.5-11,16.3-11c8.7,0,14.5,3.9,12.6,13.1L519.5,298.2z M514.6,289.4c-2.1,0-4.5,0.1-7.5,0.4c-6,0.7-10.8,2.4-10.8,7.9
			c0,2.7,1.8,5,5.8,5c7.9,0,10.9-6.2,12.4-12.7L514.6,289.4z"/>
		<path class="st7" d="M571.1,253.3l-9.2,43.8c-0.7,3.5-1.5,7-2.1,10.4h-6.7c0.1-1.2,0.5-3.4,0.9-5.7c-2.5,3.8-6.1,6.4-12.2,6.4
			c-8.1,0-12.2-6-12.2-14.7c0-11.1,6.6-24.4,19.7-24.4c6.2,0,9.5,3.2,10.3,5.5l4.5-21.3H571.1z M536.8,292.9c0,6.3,2.7,9.4,7.5,9.4
			c7.5,0,11.3-6.7,12.9-14.9c1.5-7.6-0.7-12.3-7.6-12.3C541.3,275.1,536.8,284.9,536.8,292.9z"/>
		<path class="st7" d="M580.2,269.9c2.1,16.6,3.4,28.4,3.6,32.2h0.1c2.1-4.1,6.7-14.4,16-32.2h7.3l-20.8,39.6
			c-6.5,12.4-10.1,13.4-17.2,13.4c-1.5,0-3.4-0.2-4.4-0.5l1.4-6c0.8,0.1,1.6,0.3,3.4,0.3c4.9,0,6.5-2,9.5-7.3l-5.6-39.7H580.2z"/>
		<path class="st7" d="M666.4,307.5h-5.8c0.1-1.6,0.6-5.2,1.1-7.4c-3.4,5-7.8,8.1-16,8.1c-11.9,0-17.9-8.7-17.9-20.5
			c0-15.6,9-32.2,27.5-32.2c11.4,0,18.4,6.6,18.6,15.8h-7.1c-0.6-5.1-4-9.9-12.4-9.9c-12.6,0-19,13.2-19,25.6
			c0,8.7,3.7,15.2,12.3,15.2c10.6,0,14.4-7.6,16.1-16.1l0.1-0.3h-14.4l1.3-6.4H672L666.4,307.5z"/>
		<path class="st7" d="M707.1,298.2c-0.7,3.3-1.6,7.9-1.7,9.3h-6.7c0.1-1.3,0.5-3.6,0.9-5.5c-1.9,2.9-4.9,6.2-12.5,6.2
			c-7.5,0-10.4-5-10.4-9.5c0-10.7,9.9-13.1,17.6-13.9c3.8-0.3,7-0.3,9-0.4l0.5-2.4c0.7-3.4,0.5-7.8-6.4-7.8c-6,0-7.6,3.2-8.7,5.8h-7
			c1.3-5.7,5.5-11,16.3-11c8.7,0,14.5,3.9,12.6,13.1L707.1,298.2z M702.2,289.4c-2.1,0-4.5,0.1-7.5,0.4c-6,0.7-10.8,2.4-10.8,7.9
			c0,2.7,1.8,5,5.8,5c7.9,0,10.9-6.2,12.4-12.7L702.2,289.4z"/>
		<path class="st7" d="M747.6,303.5c-2.5,12-6.2,19.5-19.5,19.5c-12.8,0-14.3-7.1-14.3-11.5h6.9c0.1,3.2,2.2,6.1,8,6.1
			c7.5,0,10-5,11.9-13.7l0.7-2.9c-2.6,4-6.3,6.4-11.8,6.4c-7.6,0-12.3-5.4-12.3-14.5c0-11.1,6.8-23.6,19-23.6
			c6.4,0,9.7,3.1,10.5,5.8c0.4-1.6,1.1-4,1.5-5h6.6c-0.7,2.9-1.5,6.6-2.2,9.9L747.6,303.5z M724.5,292.3c0,6,2.6,9.1,7.5,9.1
			c6.6,0,10.7-6.1,12.4-13.8c1.5-6.8,0-12.7-7.5-12.7C728.8,275,724.5,283.9,724.5,292.3z"/>
		<path class="st7" d="M788.1,298.2c-0.7,3.3-1.6,7.9-1.7,9.3h-6.7c0.1-1.3,0.5-3.6,0.9-5.5c-1.9,2.9-4.9,6.2-12.5,6.2
			c-7.5,0-10.4-5-10.4-9.5c0-10.7,9.9-13.1,17.6-13.9c3.8-0.3,7-0.3,9-0.4l0.5-2.4c0.7-3.4,0.5-7.8-6.4-7.8c-6,0-7.6,3.2-8.7,5.8h-7
			c1.3-5.7,5.5-11,16.3-11c8.7,0,14.5,3.9,12.6,13.1L788.1,298.2z M783.1,289.4c-2.1,0-4.5,0.1-7.5,0.4c-6,0.7-10.8,2.4-10.8,7.9
			c0,2.7,1.8,5,5.8,5c7.9,0,10.9-6.2,12.4-12.7L783.1,289.4z"/>
	</g>
</g>
<g>
	<path class="st6" d="M503.5,162c-14.2,0-20.4,11-20.4,26.3c0,15.3,6.7,27,20.7,27c15.1,0,20.5-12.7,20.5-26.7
		C524.2,173.7,518.1,162,503.5,162z"/>
	<path class="st6" d="M325.9,179.2c-7.8,0-11,5.4-11.6,12.7h22.5C336.6,185,333.8,179.2,325.9,179.2z"/>
	<path class="st6" d="M380.6,209.1c0,4.3,2.6,7.9,8.5,7.9c10.4,0,11.7-7.2,11.7-15v-1.6c-1.4,0-4.5,0-6.7,0
		C384.3,200.4,380.6,203.4,380.6,209.1z"/>
	<path class="st6" d="M242.8,193.4v21.3h15.3c0.3,0,0.5,0,0.8,0v-21.3c-0.3,0-0.6,0-0.9,0H242.8z"/>
	<path class="st6" d="M242.8,180.3h15.7c0.1,0,0.3,0,0.4,0v-17.9h-16.1V180.3z"/>
	<path d="M258.2,214.8h-15.3v-21.3h15.2c0.3,0,0.6,0,0.9,0v-13.2c-0.1,0-0.3,0-0.4,0h-15.7v-17.9H259v-13.1h-32.8v78.6H259v-13.2
		C258.7,214.7,258.5,214.8,258.2,214.8z"/>
	<path class="st5" d="M325.9,167.5c-19,0-28.5,13.2-28.5,31.7c0,15.5,8.4,30,27.9,30c18.5,0,25-11.9,27.1-19.1H336
		c-1.6,3.6-3.5,6.3-10.3,6.3c-8.1,0-11.8-7.2-11.8-14.6h39c0.2-1.7,0.2-3,0.2-5C353.1,182.2,346.2,167.5,325.9,167.5z M314.2,191.8
		c0.7-7.3,3.8-12.7,11.6-12.7c8,0,10.7,5.8,10.8,12.7H314.2z"/>
	<path class="st5" d="M696.2,179.2c0-3.2-0.2-9-0.4-10.4h-16c0.1,4.9,0.1,10.1,0.1,16v43h16.3v-25.7c0-16.2,7.1-19.4,18.9-19.1
		v-15.6C705.1,167.6,698.8,172.5,696.2,179.2z"/>
	<path class="st5" d="M289,204.4c0-10.3-7-15.9-12.3-17.9c5.3-2.4,10-8.2,10-17c0-10.2-7.2-20.1-26.2-20.1H259v13.1h0.1
		c6.6,0,10.9,3,10.9,8.7c0,5.4-3.2,9-11,9.1v13.2c8.7,0.3,12.6,4.2,12.6,10.3c0,6.9-4,10.7-12.6,10.9v13.2h2.7
		C278.4,227.9,289,217.8,289,204.4z"/>
	<g>
		<path class="st3" d="M416.7,212.6v-24.8c0-14.1-8.6-20.2-24.4-20.3c-17.9-0.1-24.4,8.4-25.3,18.9h15.5c0.8-4.3,2.3-7.2,9.2-7.2
			c7.6,0,9.1,4.1,9.1,8.3v3.6c-2,0-5.5,0-8.4,0c-11.8,0-20.6,2.9-25,9l0.4,21.9c3.2,4.3,8.6,7.3,16.7,7.3c10.4,0,14.5-3.8,16.6-7.1
			c0,1.5,0.4,4.6,0.8,5.8h15.6C417.2,226.5,416.7,218.3,416.7,212.6z M400.8,202.6c0,7.8-1.3,15-11.7,15c-5.9,0-8.5-3.6-8.5-7.9
			c0-5.7,3.7-8.7,13.5-8.7c2.2,0,5.3,0,6.7,0V202.6z"/>
		<path class="st3" d="M364.2,210.8c0,4,1.1,8,3.6,11.2l-0.4-21.9C365.3,202.9,364.2,206.5,364.2,210.8z"/>
	</g>
	<path class="st6" d="M503.5,162c-14.2,0-20.4,11-20.4,26.3c0,15.3,6.7,27,20.7,27c15.1,0,20.5-12.7,20.5-26.7
		C524.2,173.7,518.1,162,503.5,162z"/>
	<path class="st5" d="M504.2,148.1c-12.6,0-22.4,4.7-29,12.3c-6.3,7.2-9.7,17-9.7,28.2c0,12.2,3.8,23.1,11.3,30.4
		c6.3,6.2,15.1,10,26.3,10c25.5,0,38.7-18.8,38.7-40.7C541.8,164.2,527.2,148.1,504.2,148.1z M503.8,215.2
		c-13.9,0-20.7-11.6-20.7-27c0-15.3,6.2-26.3,20.4-26.3c14.7,0,20.7,11.7,20.7,26.6C524.2,202.5,518.9,215.2,503.8,215.2z"/>
	<path class="st3" d="M589,191.2l20.6-22.3h-18.7c-8.1,9.9-16,19-20.3,24.9v-49.1h-8.1h-8.2v83.2h10.6h5.8V209l7.6-7.3l14.9,26.3
		h18.5L589,191.2z"/>
	<g>
		<path class="st6" d="M641.2,179.2c-7.8,0-11,5.4-11.6,12.7H652C651.9,185,649.2,179.2,641.2,179.2z"/>
		<path class="st6" d="M641.1,216.5c3.3,0,5.4-0.7,7-1.7l-0.6-12.9h-18.2C629.2,209.3,632.9,216.5,641.1,216.5z"/>
		<path class="st6" d="M641.2,179.2c-7.8,0-11,5.4-11.6,12.7H647l-0.5-11.5C645,179.6,643.3,179.2,641.2,179.2z"/>
		<path class="st6" d="M652,191.8c-0.1-5.1-1.6-9.5-5.6-11.5c-1.4-0.7-3.1-1.1-5.2-1.1c-2.8,0-4.9,0.7-6.6,1.9l0.5,10.8H647H652z"/>
		<path class="st5" d="M640.6,229.3c3,0,5.6-0.3,8-0.9c12.5-2.8,17.3-12.2,19.1-18.2h-16.4c-0.8,1.8-1.7,3.4-3.3,4.6
			c-1.5,1.1-3.7,1.7-7,1.7c-1.9,0-3.5-0.4-4.9-1.1l0.6,13.6C638,229.2,639.3,229.3,640.6,229.3z"/>
		<path class="st5" d="M641.2,179.2c2.1,0,3.8,0.4,5.2,1.1c4,2,5.5,6.5,5.6,11.5H647h-11.9l0.5,10h11.9h20.7c0.2-1.7,0.2-3,0.2-5
			c0-13.5-5.9-27-22.5-29.1c-1.5-0.2-3-0.3-4.6-0.3c-2.6,0-5,0.3-7.2,0.7l0.6,12.8C636.3,179.9,638.4,179.2,641.2,179.2z"/>
		<path class="st5" d="M629.6,191.8h5.5l-0.5-10.8C631.5,183.3,630,187.1,629.6,191.8z"/>
		<path class="st5" d="M629.2,201.9c0,5.7,2.2,11.3,7,13.5l-0.6-13.5H629.2z"/>
		<path class="st3" d="M629.2,201.9h6.3l-0.5-10h-5.5c0.4-4.7,1.9-8.6,5-10.8l-0.6-12.8c-14.1,3-21.2,15-21.2,31
			c0,14.4,7.3,28,24,29.8l-0.6-13.6C631.4,213.2,629.2,207.6,629.2,201.9z"/>
	</g>
	<g>
		<polygon class="st3" points="743.4,144.7 727.1,144.7 727.1,154.1 729.8,227.9 743.4,227.9 		"/>
		<polygon class="st3" points="727.1,227.9 729.8,227.9 727.1,154.1 		"/>
	</g>
	<path d="M855.6,167.5c-1.3,0-2.5,0.1-3.6,0.2c-5.7,0.7-9.3,3.3-11.6,5.8l0.6,10.8c1.9-2.5,4.7-3.6,8.3-3.6c1.3,0,2.4,0.2,3.4,0.5
		c4.5,1.3,6,5.5,6,10.9v35.7h16.3v-37.6C875.2,175.5,867.5,167.5,855.6,167.5z"/>
	<path class="st5" d="M838.5,176.4c-0.1-1.9-0.3-6-0.6-7.5H822c0.1,4.4,0.1,9.9,0.1,14.9v44.2h16.3V195c0-5,0.9-8.4,2.6-10.7
		l-0.6-10.8C839.6,174.5,839,175.5,838.5,176.4z"/>
	<path d="M780.4,216c-7.1,0-9.1-5.4-9.1-11.9v-35.2H755v38.5c0,14.6,7.7,21.9,19.7,21.9c2.9,0,5.5-0.4,7.8-1.1l-0.6-12.2
		C781.4,215.9,781,216,780.4,216z"/>
	<path class="st5" d="M791,221.1c0.1,2.1,0.2,5.2,0.4,6.8h3.1h12.9c-0.1-5.3-0.1-11.5-0.1-17.2v-41.9h-15.9H791v31.4
		c0,10.9-2.7,15.1-9.1,15.6l0.6,12.2C786.1,226.9,788.9,224.7,791,221.1z"/>
	<path d="M916,180.6c-8.6,0-12.9,6.7-12.9,17.8c0,11.5,4.5,17.7,12.5,17.7c11.2,0,12.5-9.4,12.5-17.9
		C928.1,188.2,926.7,180.6,916,180.6z"/>
	<path class="st5" d="M913.1,167.5c-4.6,0-8.7,1-12.2,2.8c-9.3,4.8-14.6,15.3-14.6,28.5c0,15.3,6.6,26.1,17.4,29.4
		c2.2,0.7,4.5,1,7.1,1c8.8,0,13.9-2.9,16.8-7.5c0.1,1.3,0.4,4.4,0.7,6.2h2.7l-3.7-55.2C925.7,170.2,921.2,167.5,913.1,167.5z
		 M915.6,216.2c-8,0-12.5-6.2-12.5-17.7c0-11.1,4.3-17.8,12.9-17.8c10.7,0,12.1,7.6,12.1,17.7C928.1,206.8,926.8,216.2,915.6,216.2z
		"/>
	<path class="st3" d="M943.9,227.9c-0.1-5.4-0.1-10.8-0.1-16.2v-67h-6.6h-9.7v28.5c-0.1-0.1-0.2-0.3-0.3-0.4l3.7,55.2h11.9H943.9z"
		/>
</g>
</svg>
