<?xml version="1.0" encoding="utf-8"?>
<!-- Generator: Adobe Illustrator 23.0.1, SVG Export Plug-In . SVG Version: 6.00 Build 0)  -->
<svg version="1.1" id="レイヤー_1" xmlns="http://www.w3.org/2000/svg" xmlns:xlink="http://www.w3.org/1999/xlink" x="0px"
	 y="0px" viewBox="0 0 624.1 79.2" style="enable-background:new 0 0 624.1 79.2;" xml:space="preserve">
<style type="text/css">
	.st0{fill:#FFFFFF;}
	.st1{fill:#231815;}
</style>
<g>
	<path class="st0" d="M51.8,38.9c4-3.4,6.3-8.6,6.3-14.7c0-9.7-6.7-20.1-25.5-20.1H0V78h33.6c15.6,0,26.4-9.5,26.4-23.1
		C60.1,47.2,56.3,42,51.8,38.9z M19.6,47.8h10.9c8.3,0,9.3,3.8,9.3,6.6c0,3.5-1.1,7.1-9.2,7.1h-11V47.8z M30.9,31.2H19.6V20.6h11.7
		c3.2,0,7.1,0.9,7.1,5.2C38.4,28.3,37.6,31.2,30.9,31.2z"/>
	<path class="st0" d="M96.6,59c-1.1,2.5-2.1,4-6.7,4c-4.8,0-7.1-3.8-7.7-7.8h33.7l0.3-2.2c0.2-1.6,0.2-2.9,0.2-4.7
		c0-17.7-9.8-28.3-26.3-28.3C73,20,62.5,31.7,62.5,50.4c0,7.7,2.3,14.8,6.4,19.8c4.8,5.9,11.9,9,20.6,9c18.8,0,24.5-13,26.2-18.5
		l0.9-3.2H97.2L96.6,59z M82.6,41.4c1.3-5.3,4.5-6.1,7.3-6.1c5,0,6.4,3.4,6.8,6.1H82.6z"/>
	<path class="st0" d="M169,62.1V40.4c0-13.4-8-20.2-23.9-20.3c-8.6,0-23.3,2.3-24.7,18.8l-0.2,2.7h15.2
		c-14.9,2.9-17.4,12.7-17.4,18.9c0,9.3,6.3,18.7,20.2,18.7c5.4,0,9.6-1.1,12.8-3.3c0.1,0.2,0.1,0.4,0.2,0.5l0.6,1.6h15.4l3.1,0
		l-0.7-3C169.4,73.9,169,67.1,169,62.1z M146.6,54.4h3.3c-0.2,7.2-2.1,9.5-7.7,9.5c-4.1,0-5-2.4-5-4.4
		C137.3,57.6,137.3,54.4,146.6,54.4z M138.9,39.5c0.5-2.8,1-4.3,5.6-4.3c4.6,0,5.5,1.8,5.5,4.8v0.7h-4.9c-2.3,0-4.5,0.1-6.4,0.3
		L138.9,39.5z"/>
	<path class="st0" d="M235.9,3.1c-21.8,0-36.4,15.3-36.4,38c0,23.1,13.9,38,35.5,38c11.3,0,20.7-4,27.2-11.5
		c5.9-6.8,9.2-16.3,9.2-26.7C271.4,18.2,257.1,3.1,235.9,3.1z M235.3,20.2c13.7,0,15.7,13,15.7,20.8c0,7.8-2,20.9-15.5,20.9
		c-4.7,0-15.6-2.1-15.6-21.1C219.9,23.7,228.3,20.2,235.3,20.2z"/>
	<path class="st0" d="M334,21.2h-23.3l-0.8,0.9c-1.8,2.2-3.6,4.4-5.3,6.4c-3,3.6-5.7,6.8-8,9.7V0h-19.3v78h19.3V59.9l3.5-3.4
		L312.3,78h22.2l-21.1-34.4L334,21.2z"/>
	<path class="st0" d="M362.6,59c-1.1,2.5-2.1,4-6.7,4c-4.8,0-7.1-3.8-7.7-7.8h33.7l0.3-2.2c0.2-1.6,0.2-2.9,0.2-4.7
		c0-17.7-9.8-28.3-26.3-28.3c-16.9,0-27.5,11.6-27.5,30.3c0,7.7,2.3,14.8,6.4,19.8c4.8,5.9,11.9,9,20.6,9c18.8,0,24.5-13,26.2-18.5
		l0.9-3.2h-19.3L362.6,59z M348.7,41.4c1.3-5.3,4.5-6.1,7.3-6.1c5,0,6.4,3.4,6.8,6.1H348.7z"/>
	<path class="st0" d="M406.5,25.1c0-0.8-0.1-1.4-0.2-1.8l-0.3-2.1h-18.7l0.1,2.6c0.1,4.1,0.1,8.4,0.1,14V78h19.3V52.9
		c0-5.7,1-9.5,3.2-11.6c2-2,5.4-2.8,10.9-2.6l2.6,0.1V20l-2.5,0C415,20.1,410.1,21.9,406.5,25.1z"/>
	<rect x="426.4" class="st0" width="19.3" height="78"/>
	<path class="st0" d="M504.2,60.5V21.2h-19.3v30c0,10.4-2.8,11.2-6.7,11.2c-1.8,0-5.5,0-5.5-7.9V21.2h-19.3v36.2
		c0,13.6,7.4,21.7,19.8,21.7c5.1,0,9.1-1.1,12.1-3.5c0,0,0,0.1,0,0.1l0.3,2.1h18.8l0-2.5C504.2,70.9,504.2,65.5,504.2,60.5z"/>
	<path class="st0" d="M544.1,20c-6.1,0-10.2,1.8-13,4c0-0.3-0.1-0.6-0.1-0.9l-0.4-2H512l0.1,2.6c0.1,3.8,0.1,8.7,0.1,13V78h19.3
		V46.7c0-4.9,0.5-10,7.1-10c3.5,0,5.8,1.3,5.8,7.5V78h19.3V42.6C563.7,28.7,556.2,20,544.1,20z"/>
	<path class="st0" d="M624,75.4c-0.1-4.7-0.1-9.5-0.1-14.2V0h-19.3v22.1c-2.4-1.2-5.8-2-10.1-2c-15.6,0-26,12.1-26,30
		c0,17.7,9.4,29.2,23.9,29.2c5.4,0,9.7-1.1,12.8-3.5c0,0.1,0,0.1,0,0.2l0.4,2h18.4L624,75.4z M605.1,49.6c0,9.6-2.3,13.2-8.5,13.2
		c-7,0-8.4-7.1-8.4-13.1c0-8.7,3-13.2,8.8-13.2C603.2,36.5,605.1,39.6,605.1,49.6z"/>
</g>
<g>
	<g>
		<path class="st1" d="M2.5,6.6h30.1c16.7,0,23,8.7,23,17.6c0,7.8-4.1,12.8-8.8,14.9c4.6,1.8,10.7,6.7,10.7,15.7
			c0,11.8-9.3,20.6-23.9,20.6H2.5V6.6z M30.9,33.7c7.1,0,10-3.2,10-8c0-5.1-3.8-7.7-9.6-7.7H17.1v15.7H30.9z M17.1,64h13.5
			c8.1,0,11.7-3.4,11.7-9.6c0-5.6-3.6-9.1-11.8-9.1H17.1V64z"/>
		<path class="st1" d="M79.4,52.7c0,6.5,3.3,12.8,10.4,12.8c6,0,7.7-2.4,9-5.5h14.3c-1.8,6.3-7.5,16.7-23.8,16.7
			C72.4,76.7,65,64,65,50.4c0-16.2,8.3-27.8,25-27.8c17.8,0,23.8,12.9,23.8,25.8c0,1.8,0,2.9-0.2,4.4H79.4z M99.4,43.9
			c-0.1-6-2.5-11.1-9.5-11.1c-6.9,0-9.6,4.7-10.2,11.1H99.4z"/>
		<path class="st1" d="M166.5,62.1c0,4.9,0.4,12.1,0.7,13.4h-13.7c-0.4-1-0.7-3.8-0.7-5.1c-1.9,2.9-5.4,6.3-14.6,6.3
			c-12.5,0-17.7-8.2-17.7-16.2c0-11.8,9.5-17.2,24.6-17.2c2.5,0,5.7,0,7.4,0v-3.2c0-3.7-1.3-7.3-8-7.3c-6.1,0-7.4,2.6-8,6.3h-13.6
			c0.8-9.2,6.5-16.6,22.2-16.6c13.9,0.1,21.4,5.5,21.4,17.8V62.1z M152.5,51.9c-1.2,0-3.9,0-5.8,0c-8.6,0-11.8,2.6-11.8,7.6
			c0,3.7,2.3,6.9,7.5,6.9c9.1,0,10.2-6.3,10.2-13.2V51.9z"/>
		<path class="st1" d="M268.9,40.8c0,19.2-11.5,35.7-33.9,35.7c-21.6,0-33-15.7-33-35.5c0-20.1,12.5-35.5,33.9-35.5
			C256.1,5.6,268.9,19.7,268.9,40.8z M217.4,40.7c0,13.5,5.9,23.6,18.1,23.6c13.3,0,18-11.1,18-23.4c0-13-5.3-23.3-18.2-23.3
			C222.8,17.7,217.4,27.3,217.4,40.7z"/>
		<path class="st1" d="M294.1,45.6c3.8-5.2,10.7-13.2,17.8-21.8h16.4l-18,19.5L330,75.5h-16.2l-13.1-23l-6.6,6.4v16.6h-14.3v-73
			h14.3V45.6z"/>
		<path class="st1" d="M345.5,52.7c0,6.5,3.3,12.8,10.4,12.8c6,0,7.7-2.4,9-5.5h14.3c-1.8,6.3-7.5,16.7-23.8,16.7
			c-17,0-24.4-12.7-24.4-26.3c0-16.2,8.3-27.8,25-27.8c17.8,0,23.8,12.9,23.8,25.8c0,1.8,0,2.9-0.2,4.4H345.5z M365.5,43.9
			c-0.1-6-2.5-11.1-9.5-11.1c-6.9,0-9.6,4.7-10.2,11.1H365.5z"/>
		<path class="st1" d="M389.9,37.8c0-5.1,0-9.7-0.1-14h14.1c0.2,1.2,0.4,6.3,0.4,9.1c2.3-5.9,7.8-10.2,16.6-10.3v13.7
			c-10.4-0.3-16.6,2.5-16.6,16.7v22.6h-14.3V37.8z"/>
		<path class="st1" d="M428.9,75.5v-73h14.3v73H428.9z"/>
		<path class="st1" d="M501.7,60.5c0,5,0,10.4,0.1,15h-14c-0.2-1.4-0.3-4.2-0.4-6c-3.1,5.2-7.6,7.2-14.3,7.2
			c-10.5,0-17.3-6.4-17.3-19.2V23.7h14.3v30.8c0,5.7,1.8,10.4,8,10.4c6.5,0,9.2-3.5,9.2-13.7V23.7h14.3V60.5z"/>
		<path class="st1" d="M514.7,36.8c0-4.4,0-9.2-0.1-13h13.9c0.3,1.3,0.5,4.9,0.6,6.6c1.8-3.3,5.9-7.8,15-7.8c10.4,0,17.2,7,17.2,20
			v32.9h-14.3V44.2c0-5.8-1.9-10-8.3-10c-6.1,0-9.6,3.4-9.6,12.5v28.8h-14.3V36.8z"/>
		<path class="st1" d="M621.4,2.5v58.8c0,4.7,0,9.5,0.1,14.2h-13.8c-0.3-1.6-0.6-4.2-0.7-5.4c-2.5,4.1-7,6.6-14.7,6.6
			C579.3,76.7,571,66.2,571,50c0-15.9,8.9-27.5,23.5-27.5c7.4,0,11.4,2.6,12.6,4.9v-25H621.4z M585.7,49.7
			c0,10.1,3.9,15.6,10.9,15.6c9.9,0,11-8.2,11-15.7c0-8.9-1.3-15.5-10.6-15.5C589.5,34,585.7,39.9,585.7,49.7z"/>
	</g>
</g>
</svg>
