<?xml version="1.0" encoding="utf-8"?>
<!-- Generator: Adobe Illustrator 23.0.1, SVG Export Plug-In . SVG Version: 6.00 Build 0)  -->
<svg version="1.1" id="レイヤー_1" xmlns="http://www.w3.org/2000/svg" xmlns:xlink="http://www.w3.org/1999/xlink" x="0px"
	 y="0px" viewBox="0 0 154.2 30.7" style="enable-background:new 0 0 154.2 30.7;" xml:space="preserve">
<g>
	<g>
		<path d="M25,3.9c5.1,0,10.4,0,15.5,0c-0.5,1.2-0.3,2.5-0.3,3.7c0,2.3,0,4.5,0,6.8c0,0.2,0,0.3,0,0.5c0,0,0.1,0,0.1,0
			c0.4-0.5,0.8-1.1,1.3-1.6c1.7-2.2,3.3-4.3,4.9-6.5c0.6-0.8,1.2-2.1,1.5-3c0.1,0,2.5,0,3.5,0c4,0,12.3,0,12.6,0
			c-0.4,0.3-1,0.8-1.3,1c-1.1,1.2-2,2.2-3,3.4c-1.5,1.8-3,3.7-4.6,5.6c-0.3,0.3-0.3,0.5,0,0.9c2.6,3.8,5.1,7.7,7.6,11.6
			c0.6,1,1.4,1.9,2.1,2.9c-0.1,0-0.3,0-0.5,0c-5.8,0-17.7,0.1-18,0c0.1-0.5-0.7-2.3-1.2-3.1c-1.6-2.5-3.2-5-4.9-7.5
			c0-0.1-0.1-0.1-0.2-0.3c0.1,3.7-0.2,7.3,0.2,10.9c-5,0-10.4,0-15.3,0c0.6-0.4,0.5-2.3,0.5-3.4c0-5.8,0-11.5,0-17.3
			C25.5,6.9,25.7,4.8,25,3.9z"/>
		<path d="M139.7,29.2c-5.3,0-10.6,0-16,0c0-1.3-0.7-2.4-1.1-3.6c-0.1-0.3-0.1-0.3-0.2-0.4c-2.8,0-6.4,0-9.2,0
			c-0.1,0.1-0.1,0.1-0.2,0.4c-0.3,1.1-0.6,2.2-0.9,3.3c0,0.1-0.2,0.2-0.3,0.3c-0.1,0-0.2,0-0.3,0c-3.8,0-7.7,0-11.5,0
			c-0.1,0-0.7,0-0.7,0c1.2-1.5,1.8-3.9,2.6-5.9c2.1-5.8,4.2-11.6,6.3-17.4c0.2-0.6,0.4-0.6,0.4-2.1c0.1,0,0.6,0,0.8,0
			c6.7,0,13.3,0,20,0c0.3,0,0.6,0,0.6,0s-0.1,0.8,0.3,1.7c2.8,7.3,5.6,14.5,8.4,21.8C139,28,139.4,28.6,139.7,29.2z M117.7,12.5
			c-0.9,2.4-1.7,5-2.5,7.3c1.8,0,3.5,0,5.2,0c-0.9-2.4-1.7-4.7-2.6-7C117.8,12.8,117.8,12.5,117.7,12.5z"/>
		<path d="M82.8,19.2c0,1.1,0,2.3,0,3.3c0.2,0,0.6,0,0.8,0c4,0,8,0,12,0c0.6,0,1.3-0.1,1.9-0.3c0,0.2,0,0.4,0,0.6c0,1.9,0,4.5,0,6.4
			c-0.2,0-19.1,0-28.3,0c-0.4,0-1.2,0-1.5,0c0.4-0.5,0.4-2.1,0.4-3.1c0-6.5,0-13,0-19.5c0-0.9,0.1-1.9-0.4-2.8c0.1,0,0.5,0,0.7,0
			c9.5,0,19.6,0,29.1,0c0,0.3,0,0.1,0,0.6c0,2,0,3.9,0,5.9c0,0.1,0,0.3,0,0.5c-1.4-0.5-2.9-0.3-4.3-0.3c-3.3,0-6.5,0-9.8,0
			c-0.4,0-0.6,0.1-0.6,0.6c0,0.7,0,1.5,0,2.2c0,0.4,0.1,0.6,0.6,0.6c3.6,0,11.2-0.1,11.4,0c0,1.3,0,4,0,5.4c-0.3,0-7.6,0-11.1,0
			C83.4,19.2,83.2,19.2,82.8,19.2z"/>
		<path d="M17.8,29.2c-5.4,0-11.2,0-16.7,0c0.6-1.1,0.3-3,0.3-4.5c0-6-0.2-12,0-18c0.1-1.8-0.1-2.4-0.3-2.8c5.4,0,11.1,0,16.6,0
			c-0.4,2-0.2,4-0.3,6c0,5.2,0,10.4,0,15.6C17.5,26.7,17.4,28.5,17.8,29.2z"/>
	</g>
	<g>
		<path d="M143.9,4.3h3.5c1.2,0.5,1.8,1.5,1.8,2.5c0,1.9-1.5,2.4-1.5,2.4l1.8,3.1h-1.4l-1.5-2.8h-1.8v2.8h-1.1V4.3 M145,5.5v2.9h2
			c0,0,1.1-0.2,1.1-1.5s-0.9-1.5-1.1-1.5C146.7,5.5,145,5.5,145,5.5z"/>
		<path d="M153,8.3c0,3.7-3,6.6-6.6,6.6c-3.7,0-6.6-3-6.6-6.6s3-6.6,6.6-6.6C150,1.6,153,4.6,153,8.3z M146.4,3
			c-2.9,0-5.2,2.3-5.2,5.2s2.3,5.2,5.2,5.2c2.9,0,5.2-2.3,5.2-5.2S149.2,3,146.4,3z"/>
	</g>
</g>
</svg>
