<?xml version="1.0" encoding="utf-8"?>
<!-- Generator: Adobe Illustrator 23.0.1, SVG Export Plug-In . SVG Version: 6.00 Build 0)  -->
<svg version="1.1" id="レイヤー_1" xmlns="http://www.w3.org/2000/svg" xmlns:xlink="http://www.w3.org/1999/xlink" x="0px"
	 y="0px" viewBox="0 0 193.4 78.2" style="enable-background:new 0 0 193.4 78.2;" xml:space="preserve">
<style type="text/css">
	.st0{fill:#EFCB20;}
	.st1{fill:#01559C;}
	.st2{fill:none;}
</style>
<g>
	<path class="st0" d="M96.7,77.2c3.9-0.1,7.8-0.2,11.6-0.3c6.4-0.2,12.8-0.8,19.1-1.6c10.9-1.4,21.7-3.6,32.1-7.1
		c6.8-2.3,13.3-5.1,19.4-9.2c3.9-2.6,7.4-5.6,10.2-9.6c4.3-6.3,4.5-13.2,0.5-19.7c-2.4-3.9-5.6-6.8-9.2-9.4
		c-5.7-4.1-11.9-7-18.3-9.3c-8.5-3.1-17.2-5.2-26.1-6.8c-6.9-1.2-13.8-2-20.7-2.5c-7.5-0.5-15-0.8-22.5-0.6C86.4,1.1,80,1.5,73.7,2
		c-6.6,0.6-13.1,1.5-19.6,2.7C44.8,6.5,35.7,9,26.8,12.7c-5.5,2.3-10.8,5.1-15.5,8.8c-3.2,2.5-6,5.4-8,9.1c-2.6,4.7-3,9.6-1,14.6
		c1.4,3.4,3.6,6.2,6.1,8.7c4.5,4.3,9.7,7.3,15.1,9.9c6.4,3,13,5.2,19.8,7c8.4,2.2,16.9,3.7,25.5,4.7C78.1,76.7,87.4,77.1,96.7,77.2z
		"/>
	<g>
		<path class="st1" d="M46.4,22.7c6,0,12.1,0.1,18.1,0.1c-0.5,1.5-0.3,3.1-0.4,4.6c0,2.8,0,5.6,0,8.5c0,0.2,0,0.4,0,0.6
			c0.1,0,0.1,0,0.2,0.1c0.5-0.7,1-1.3,1.5-2c1.9-2.7,3.9-5.4,5.8-8.1c0.7-1,1.4-2.6,1.8-3.7c0.1,0,2.9,0,4.1,0c4.7,0,14.4,0,14.7,0
			c-0.4,0.4-1.2,1-1.5,1.3c-1.3,1.5-2.3,2.7-3.5,4.3c-1.8,2.3-3.6,4.6-5.4,6.9c-0.3,0.4-0.3,0.6,0,1.1c3,4.8,5.9,9.6,8.9,14.4
			c0.8,1.2,1.6,2.3,2.4,3.5c-0.2,0-0.4,0-0.5,0c-6.8,0-20.7,0.1-21,0c0.1-0.7-0.8-2.8-1.4-3.9c-1.9-3.1-3.8-6.3-5.7-9.4
			c0-0.1-0.1-0.1-0.3-0.3c0.1,4.6-0.2,9,0.2,13.5c-5.8,0-12.1,0-17.9,0c0.7-0.5,0.6-2.9,0.6-4.3c0-7.1,0-14.3,0-21.4
			C47,26.5,47.2,23.8,46.4,22.7z"/>
		<path class="st1" d="M180.3,54.2c-6.2,0-12.4,0-18.6,0c0-1.6-0.8-3-1.3-4.4c-0.1-0.4-0.1-0.4-0.2-0.5c-3.3,0-7.5,0-10.8,0
			c-0.1,0.1-0.1,0.1-0.2,0.5c-0.4,1.4-0.7,2.7-1.1,4.1c0,0.1-0.2,0.3-0.3,0.3c-0.1,0.1-0.2,0-0.3,0c-4.5,0-9,0-13.5,0
			c-0.2,0-0.8,0-0.8,0c1.5-1.9,2.2-4.9,3-7.3c2.5-7.2,4.9-14.4,7.4-21.6c0.2-0.7,0.5-0.7,0.4-2.6c0.1,0,0.8,0,0.9,0
			c7.8,0,15.6,0,23.4,0c0.3,0,0.7,0,0.7,0s-0.1,1.1,0.4,2.1c3.2,9,6.5,18,9.7,27C179.5,52.7,179.9,53.4,180.3,54.2z M154.7,33.4
			c-1,3-1.9,6.2-2.9,9.1c2.1,0,4,0,6,0c-1-2.9-2-5.8-3-8.7C154.8,33.8,154.7,33.5,154.7,33.4z"/>
		<path class="st1" d="M113.9,41.7c0,1.3,0,2.9,0,4.1c0.2,0,0.8,0,0.9,0c4.7,0,9.3,0,14,0c0.7,0,1.5-0.2,2.3-0.4c0,0.2,0,0.5,0,0.7
			c0,2.4,0,5.5,0,7.9c-0.3,0-22.3,0-33.1-0.1c-0.5,0-1.4,0-1.7,0c0.5-0.6,0.5-2.6,0.5-3.8c0-8.1,0-16.1,0-24.2
			c0-1.1,0.1-2.4-0.5-3.5c0.1,0,0.6,0,0.8,0c11.1,0,22.9,0,34,0c0,0.4,0,0.1,0,0.7c0,2.5,0,4.9,0,7.4c0,0.2,0,0.4,0,0.6
			c-1.7-0.6-3.4-0.4-5.1-0.4c-3.8,0-7.6,0-11.4,0c-0.5,0-0.7,0.1-0.7,0.7c0,0.9,0,1.8,0,2.8c0,0.6,0.2,0.7,0.7,0.7
			c4.2,0,13.1-0.1,13.3,0c0,1.7,0,5,0,6.6c-0.3,0-8.9,0-13,0C114.6,41.7,114.3,41.7,113.9,41.7z"/>
		<path class="st1" d="M38,54.1c-6.3,0-13,0-19.5,0c0.7-1.4,0.4-3.7,0.4-5.6c0-7.4-0.2-14.9,0-22.3c0.1-2.3-0.1-2.9-0.4-3.5
			c6.3,0,12.9,0,19.4,0c-0.5,2.4-0.3,5-0.3,7.4c0,6.5,0,12.9,0,19.4C37.6,51.1,37.5,53.3,38,54.1z"/>
	</g>
	<path class="st2" d="M178.6,24.3c0-0.6-0.4-1.3-1.1-1.6l-2.1,0"/>
	<path class="st1" d="M175.4,22.7l2.1,0c0.7,0.3,1.1,0.9,1.1,1.6c0,1.2-0.9,1.5-0.9,1.5l1.1,1.9l-0.8,0l-0.9-1.8l-1.1,0l0,1.8
		l-0.6,0L175.4,22.7 M176.1,23.4l0,1.8l1.2,0c0,0,0.7-0.1,0.7-0.9s-0.6-0.9-0.7-0.9C177.1,23.4,176.1,23.4,176.1,23.4z"/>
	<path class="st1" d="M180.8,25.2c0,2.3-1.8,4.2-3.9,4.2s-3.9-1.9-3.9-4.2c0-2.3,1.8-4.2,3.9-4.2C179.1,21,180.8,22.9,180.8,25.2z
		 M176.9,21.9c-1.7,0-3.1,1.5-3.1,3.3c0,1.8,1.4,3.3,3.1,3.3c1.7,0,3.1-1.5,3.1-3.3C180,23.4,178.6,21.9,176.9,21.9z"/>
</g>
</svg>
