<?xml version="1.0" encoding="utf-8"?>
<!-- Generator: Adobe Illustrator 23.0.1, SVG Export Plug-In . SVG Version: 6.00 Build 0)  -->
<svg version="1.1" id="レイヤー_1" xmlns="http://www.w3.org/2000/svg" xmlns:xlink="http://www.w3.org/1999/xlink" x="0px"
	 y="0px" viewBox="0 0 181.7 535" style="enable-background:new 0 0 181.7 535;" xml:space="preserve">
<style type="text/css">
	.st0{fill:none;stroke:#231815;stroke-miterlimit:10;}
	.st1{fill:none;stroke:#231815;stroke-linecap:round;stroke-linejoin:round;stroke-miterlimit:10;}
	.st2{fill:none;stroke:#231815;stroke-linejoin:round;stroke-miterlimit:10;}
</style>
<g>
	<path class="st0" d="M76.7,12.3c0,0-2.5-9.6-22.4-10.1S28.1,24,29.8,28.9c-2.2,5.2-15.8,19.7-15.8,19.7s-3.8,5.2,0,9.6
		c1.9,2.5-1.7,7.1-1.7,7.1s-4.3,7.4,1.4,13.9C16.4,83,23.5,89.3,30,92c5.5,1.6,13.4,3.3,21.4-6.6c-0.6,0.1-9.1,0.3-6-4.4
		c1.4-1.6,10-9.4,10-9.4s4.5-5.2,1.4-12.9c-0.6-1.3-4.9-12-3.3-22.4c1.2,0.1,5.2,0.1,5.2,0.1s4.1-10.8,12.9-15.3
		c1.3,4.7,2.6,9,11.9,20.9c0.8,1.1,3.4,4.3,5.6,0.7c1.1-2.7,3-9.3,0.9-17.4C89.6,22.4,84.1,9,76.7,12.3z"/>
	<path class="st0" d="M83.9,43.2c0,0,0.2,26.6-15.1,27.5c-2.2,0-4.2,0-4.2,0s-1.4,10.5,1,17.1c0.4,1.9,0.3,6.8-5.1,7
		c-2.3,0-7.4,0.7-12.5-5.7"/>
	<path class="st0" d="M81.7,59.5c0,0,3.3,8.4-1.7,12.4c-4.3,3.2-7.6,5.2-8,5.4c-0.3,0.2-5.7,4,1.7,5.9c2.3,0.1,2.6,0.4,2.6,0.4
		s-3.6,5-10.3,5.5"/>
	<path class="st1" d="M65.9,58h11.2c0,0-2.2,4-5.9,4.3C69.4,62.3,66.9,61.3,65.9,58z"/>
	<path class="st1" d="M22.5,87.6c0,0-11.4,17.9-13.7,39.4c-2.5,13.9-7.6,55.3-6.8,65.5c-0.2,4.3-2,25.4,30.9,10.4
		c14.3-7.2,44-25.2,52.2-31.7c4.2,3.4,14.3,13.4,19.5,16.4c3.7,0.7,15.6,1.5,17.6,1.2c2-0.3,0-1.8,0-1.8l-5.9-1.9l9.4-0.3
		c0,0,5.5-0.8,0-2.2c-2.9,0.5-9.8,0.3-9.8,0.3l7.8-2.6c0,0,4.2-1.6,0.4-2.6s-8.3,2.3-8.3,2.3s-7.4,1-14.3-6.3
		c-1.5-2.9-0.4-4.2,1.6-4.1s6.6-1.5,7.6-4.6s-8.1,1-8.1,1s-4.1,0.8-6.7-1.5c-2.6-2.3-10.5-2.3-15.6,0.7
		c-8.1,3.1-55.8,19.9-55.8,19.9l17.2-67.9c0,0,4.2-13.9-0.3-19c-2.3-3.8-3.3-5-3.3-5"/>
	<path class="st1" d="M70.5,89.1c0,0,16,15.3,17.6,32.7c0.2,7-3.5,28.5-5.3,32.4c-1.4,5.7-2.2,11-2.2,11"/>
	<path class="st2" d="M88.1,130.1l18.4,32.5l18.4-30.6c0,0,4.8-13.5,6.1-16.9c1.4-3.4,4.2-10.5,7.4-9.8"/>
	<path class="st2" d="M138.5,129.7c0,0-6.4,1.8-8.5,17.6c-0.3,3.8-5.6,28.1-14.1,31.8"/>
	<ellipse class="st2" cx="151.6" cy="91.2" rx="13.1" ry="2.1"/>
	<path class="st2" d="M138.5,91.9v39.4c0,0,9.8,5.1,26.2,0c0.1-1.3,0-40.2,0-40.2"/>
	<path class="st2" d="M77.1,176.9c0,0-5.2,40.3,8.6,50.9c12.2,12.4,89.8,91.3,93.4,104.7c-6,1.1-91.5,21.3-91.5,21.3
		s3-15.6-8.5-28.7c-10.9-13.1-64.7-84.1-64.7-84.1s-11.2-6.3-4.9-29.5c0.3-3.9,0.3-3.9,0.3-3.9"/>
	<path class="st2" d="M127.2,345.2l8.5,122.9c0,0,1.4,7.6,2.5,9.6c0.5,5.2,3.8,39.3,8.2,42.3c2.7,1.6,8.1,4,9.8,11.7
		c-1.8,0.7-19.5,2.9-22.9-0.8c-1.2-1-3.5-4.6-4.1-8.7c-0.8-3.5-4.6-14.9-5.7-11c-1,3.9,0.8,20.3,0.8,20.3l-3.2,0.1l-4.1-27.2
		c0,0-1.4-4,1.6-7.1c2-2.5,5.7-6.8,5.7-12.3s-3-13.2-4.5-16.6c-1.5-3.3-17.5-49.3-19.4-76.2c-2.2-21.9-2.7-34.5-3-39.8"/>
	<path class="st2" d="M166.8,335.4c0,0,2.7,7-1.4,12.1c-3.5,5.4-29.9,46.9-33.9,51.4"/>
	<line class="st2" x1="133.1" y1="344" x2="127.9" y2="350"/>
	<path class="st2" d="M108.2,432.2c0,0-21.4,29.4-23.6,33.5c-2.5,4.1-11.7,16.5-11.4,29.5c-2.9-0.1-6.7-0.7-6.4-9.4
		c0.1-4.8,2.6-24.2,0.8-29.4c2-1.4,7-2,10.8-13.9c4.6-11.3,21-51.9,21-51.9"/>
	<path class="st2" d="M66.8,456.4c0,0-6.7,0.4-9.8,9.5c-3.3,8.1-10,24.2-10,24.2s-0.8,2.9,2.8,2.5c0.9-2,3.8-12.1,5.1-14.3
		c1.3-2.3,4.2-8.9,7-4.7c0.5,1.3,0.6,14.6-3.7,22.3c2.3,2.9,16.6,17.5,16.6,17.5s4.2-3.2,2.7-11.4c-1.1-3.2-2.9-6.4-4.7-6.8"/>
	<path class="st2" d="M147.7,520.7c0,0-8.2,5.2-13.7-7.3c-2.4-5.8-2.7-14.7-12.4-20.3"/>
</g>
</svg>
