<?xml version="1.0" encoding="utf-8"?>
<!-- Generator: Adobe Illustrator 23.0.1, SVG Export Plug-In . SVG Version: 6.00 Build 0)  -->
<svg version="1.1" id="レイヤー_1" xmlns="http://www.w3.org/2000/svg" xmlns:xlink="http://www.w3.org/1999/xlink" x="0px"
	 y="0px" viewBox="0 0 354.9 36.7" style="enable-background:new 0 0 354.9 36.7;" xml:space="preserve">
<style type="text/css">
	.st0{fill:#231815;}
</style>
<g>
	<g>
		<path class="st0" d="M31.9,2c6.4,0,13,0,19.3,0c-0.6,1.5-0.4,3.1-0.4,4.6c0,2.8,0,5.7,0,8.5c0,0.2,0,0.4,0,0.7
			c0.1,0,0.1,0,0.2,0.1c0.5-0.7,1.1-1.3,1.6-2c2.1-2.7,4.2-5.4,6.2-8.2c0.8-1.1,1.5-2.6,1.9-3.7c0.1,0,3.1,0,4.3,0
			c5,0,15.4,0,15.8,0c-0.5,0.4-1.3,1-1.6,1.3c-1.4,1.5-2.5,2.7-3.7,4.3c-1.9,2.3-3.8,4.6-5.7,6.9c-0.3,0.4-0.3,0.7,0,1.1
			c3.2,4.8,6.4,9.6,9.5,14.5c0.8,1.2,1.7,2.3,2.6,3.6c-0.2,0-0.4,0-0.6,0c-7.2,0-22.2,0.1-22.5,0c0.1-0.7-0.9-2.8-1.5-3.9
			c-2-3.2-4-6.3-6.1-9.4c0-0.1-0.1-0.1-0.3-0.3c0.2,4.6-0.2,9.1,0.2,13.6c-6.2,0-13,0-19.2,0c0.7-0.5,0.6-2.9,0.6-4.3
			c0-7.2,0-14.4,0-21.6C32.5,5.8,32.7,3.2,31.9,2z"/>
		<path class="st0" d="M175.2,33.7c-6.6,0-13.3,0-19.9,0c0-1.6-0.8-3-1.4-4.5c-0.1-0.4-0.1-0.4-0.3-0.5c-3.5,0-8,0-11.5,0
			c-0.1,0.1-0.1,0.1-0.2,0.5c-0.4,1.4-0.8,2.8-1.2,4.1c0,0.1-0.2,0.3-0.3,0.3c-0.1,0.1-0.2,0-0.4,0c-4.8,0-9.6,0-14.4,0
			c-0.2,0-0.8,0-0.8,0c1.6-1.9,2.3-4.9,3.2-7.4c2.7-7.2,5.3-14.5,7.9-21.7c0.2-0.7,0.5-0.7,0.5-2.6c0.1,0,0.8,0,1,0
			c8.3,0,16.7,0,25,0c0.4,0,0.8,0,0.8,0s-0.1,1.1,0.4,2.2c3.5,9.1,7,18.1,10.5,27.2C174.4,32.2,174.8,32.9,175.2,33.7z M147.8,12.8
			c-1.1,3-2.1,6.2-3.1,9.2c2.2,0,4.3,0,6.5,0c-1.1-3-2.1-5.9-3.2-8.7C147.9,13.1,147.8,12.8,147.8,12.8z"/>
		<path class="st0" d="M104.1,21.2c0,1.3-0.1,2.9,0,4.1c0.2,0,0.8,0,1,0c5,0,10,0,15,0c0.7,0,1.6-0.2,2.4-0.4c0,0.2,0,0.5,0,0.8
			c0,2.4,0,5.6,0,8c-0.3,0-23.9,0-35.4,0c-0.5,0-1.5,0-1.8,0c0.5-0.6,0.5-2.6,0.5-3.8c0-8.1,0-16.2,0-24.4c0-1.1,0.2-2.4-0.6-3.5
			c0.1,0,0.7,0,0.9,0c11.9,0,24.5,0,36.4,0c0,0.4,0,0.1,0,0.7c0,2.5,0,4.9,0,7.4c0,0.2,0,0.4,0,0.7c-1.8-0.6-3.6-0.4-5.4-0.4
			c-4.1,0-8.1,0-12.2,0c-0.6,0-0.8,0.1-0.7,0.7c0,0.9,0,1.9,0,2.8c0,0.6,0.2,0.7,0.7,0.7c4.5,0,14-0.1,14.3,0c0,1.7,0,5,0,6.7
			c-0.4,0-9.5,0-13.9,0C104.9,21.2,104.6,21.2,104.1,21.2z"/>
		<path class="st0" d="M22.9,33.6c-6.8,0-13.9,0-20.9,0c0.7-1.4,0.4-3.7,0.4-5.6c0-7.5-0.3-15,0-22.4c0.1-2.3-0.1-3-0.4-3.5
			c6.7,0,13.8,0,20.8,0c-0.5,2.5-0.3,5-0.3,7.5c0,6.5,0,13,0,19.5C22.4,30.6,22.4,32.8,22.9,33.6z"/>
	</g>
	<g>
		<path class="st0" d="M187,3.1h6c3.4,0,5.7,0.1,6.8,0.4c1.1,0.3,2.1,0.8,3,1.4c0.9,0.7,1.6,1.6,2.1,2.6c0.5,1,0.8,2.2,0.8,3.5
			c0,1.3-0.2,2.5-0.7,3.5c-0.5,1-1.2,1.9-2.1,2.6c-0.9,0.7-2.1,1.2-3.4,1.5c-1.3,0.3-3.7,0.4-7.1,0.4h-1.8v13.4H187V3.1z
			 M190.4,15.8h4.6c2.7,0.1,4.6-0.4,5.5-1.3c1-0.9,1.5-2.1,1.5-3.4c0-3.1-2.3-4.6-6.8-4.6h-4.8V15.8z"/>
		<path class="st0" d="M213.2,32.6h-3.3V2.4h3.3V32.6z"/>
		<path class="st0" d="M240.2,32.6H237v-3.2c-2.4,2.6-5.1,3.9-8.3,3.9c-3.1,0-5.8-1.1-8-3.4c-2.2-2.3-3.3-5-3.3-8.2s1.1-5.9,3.3-8.2
			c2.2-2.3,4.9-3.4,8.2-3.4c3.2,0,5.9,1.3,8.1,3.9v-3.3h3.3V32.6z M229,30.2c2.2,0,4.1-0.8,5.8-2.4c1.6-1.6,2.4-3.6,2.4-6
			c0-2.4-0.8-4.4-2.4-6c-1.6-1.6-3.5-2.4-5.8-2.4c-2.3,0-4.2,0.8-5.8,2.5c-1.6,1.7-2.4,3.7-2.4,5.9c0,2.3,0.8,4.3,2.4,5.9
			C224.8,29.4,226.7,30.2,229,30.2z"/>
		<path class="st0" d="M265.1,32.6h-3.3V22.1c0-2.4-0.1-4.1-0.3-4.9c-0.2-0.9-0.6-1.6-1-2.2c-0.4-0.6-1-1-1.7-1.3
			c-0.7-0.3-1.5-0.4-2.5-0.4c-1,0-1.9,0.2-2.9,0.7c-0.9,0.5-1.7,1.2-2.4,2c-0.7,0.9-1.1,1.8-1.4,2.7c-0.3,1-0.4,2.9-0.4,5.8v8.1
			h-3.3V10.7h3.3V14c2.2-2.6,4.7-3.9,7.7-3.9c1.6,0,3,0.4,4.3,1.2c1.3,0.8,2.3,1.9,2.9,3.4c0.6,1.4,1,3.6,1,6.6V32.6z"/>
		<path class="st0" d="M289.6,32.6h-3.3V22.1c0-2.4-0.1-4.1-0.3-4.9c-0.2-0.9-0.6-1.6-1-2.2c-0.4-0.6-1-1-1.7-1.3
			c-0.7-0.3-1.5-0.4-2.5-0.4c-1,0-1.9,0.2-2.9,0.7c-0.9,0.5-1.7,1.2-2.4,2c-0.7,0.9-1.1,1.8-1.4,2.7c-0.3,1-0.4,2.9-0.4,5.8v8.1
			h-3.3V10.7h3.3V14c2.2-2.6,4.7-3.9,7.7-3.9c1.6,0,3,0.4,4.3,1.2c1.3,0.8,2.3,1.9,2.9,3.4c0.6,1.4,1,3.6,1,6.6V32.6z"/>
		<path class="st0" d="M316.6,22.2h-19.2c0.1,2.4,0.9,4.4,2.4,5.8c1.5,1.5,3.3,2.2,5.3,2.2c3.5,0,6.2-1.7,8-5.2l2.8,1.4
			c-1.3,2.3-2.8,4.1-4.5,5.2c-1.7,1.1-3.8,1.7-6.2,1.7c-3.3,0-6-1.1-8.2-3.4c-2.1-2.3-3.2-5-3.2-8.2c0-3.2,1.1-5.9,3.2-8.2
			c2.2-2.3,4.8-3.4,8-3.4c3.2,0,5.9,1.1,8,3.2C315.4,15.5,316.5,18.5,316.6,22.2z M312.9,19.3c-0.4-1.9-1.3-3.3-2.7-4.4
			s-3.1-1.6-4.9-1.6c-3.8,0-6.3,2-7.5,6H312.9z"/>
		<path class="st0" d="M330.4,11l-1.7,2.8c-0.5-0.2-0.9-0.4-1.3-0.4c-0.8,0-1.6,0.4-2.3,1.2c-0.7,0.8-1.2,1.9-1.5,3.2
			c-0.3,1.3-0.5,3.7-0.5,7.2v7.5h-3.4V10.7h3.4V13c0.7-1,1.3-1.7,2-2.2c0.7-0.5,1.5-0.7,2.3-0.7C328.3,10.1,329.3,10.4,330.4,11z"/>
	</g>
	<g>
		<path class="st0" d="M342.5,10.9h4.4c1.5,0.7,2.3,1.9,2.3,3.1c0,2.3-1.8,2.9-1.8,2.9l2.3,3.8H348l-1.9-3.5h-2.2v3.5h-1.3V10.9
			 M343.8,12.4V16h2.5c0,0,1.4-0.3,1.4-1.8s-1.2-1.8-1.4-1.8C346,12.4,343.8,12.4,343.8,12.4z"/>
		<path class="st0" d="M353.9,15.8c0,4.6-3.7,8.3-8.3,8.3c-4.6,0-8.3-3.7-8.3-8.3s3.7-8.3,8.3-8.3C350.2,7.5,353.9,11.2,353.9,15.8z
			 M345.6,9.3c-3.6,0-6.6,2.9-6.6,6.6s2.9,6.6,6.6,6.6s6.6-2.9,6.6-6.6S349.2,9.3,345.6,9.3z"/>
	</g>
</g>
</svg>
