<?xml version="1.0" encoding="utf-8"?>
<!-- Generator: Adobe Illustrator 23.0.1, SVG Export Plug-In . SVG Version: 6.00 Build 0)  -->
<svg version="1.1" id="レイヤー_1" xmlns="http://www.w3.org/2000/svg" xmlns:xlink="http://www.w3.org/1999/xlink" x="0px"
	 y="0px" viewBox="0 0 161.5 161.5" style="enable-background:new 0 0 161.5 161.5;" xml:space="preserve">
<style type="text/css">
	.st0{fill:#231815;}
	.st1{fill:none;stroke:#231815;stroke-width:5;stroke-miterlimit:10;}
	.st2{fill:none;stroke:#231815;stroke-width:2;stroke-miterlimit:10;}
</style>
<g>
	<g>
		<path class="st0" d="M80.8,65c-8.1,0-14.6-6.6-14.6-14.6s6.6-14.6,14.6-14.6s14.6,6.6,14.6,14.6S88.9,65,80.8,65z M80.8,38.4
			c-6.7,0-12.1,5.4-12.1,12.1s5.4,12.1,12.1,12.1c6.7,0,12.1-5.4,12.1-12.1S87.5,38.4,80.8,38.4z"/>
		<path class="st0" d="M51.1,117.4c0-9.9-0.1-27.2,0-31.9l0-0.2C53.7,71.2,67.1,69,67.3,69l0.2,0c0.2,0,16.2-0.2,24.9,0l0.1,0
			c3.6,0.3,6.8,1.6,9.6,4l-1.6,2c-2.4-2-5.1-3.1-8.1-3.4c-8.3-0.2-23.3,0-24.7,0c-1.1,0.2-11.7,2.3-14,14.2
			c-0.1,4.8-0.1,21.9,0,31.7L51.1,117.4z"/>
		<path class="st0" d="M68.8,124.6l7.3-17.3l0.2-0.2l41.2-40.9l9.2,9.4l-40.6,40.6L68.8,124.6z M78.3,108.8l-4.5,10.6l10.8-5.3
			l38.5-38.5l-5.6-5.7L78.3,108.8z"/>
		<rect x="37.3" y="124.6" class="st0" width="6.5" height="2.5"/>
		<rect x="47.4" y="124.6" class="st0" width="6.5" height="2.5"/>
		<path class="st1" d="M47.4,125.9"/>
		<rect x="57.3" y="124.6" class="st0" width="6.7" height="2.5"/>
	</g>
	<circle class="st2" cx="82" cy="81.5" r="72.2"/>
</g>
</svg>
