<?xml version="1.0" encoding="utf-8"?>
<!-- Generator: Adobe Illustrator 23.0.1, SVG Export Plug-In . SVG Version: 6.00 Build 0)  -->
<svg version="1.1" id="レイヤー_1" xmlns="http://www.w3.org/2000/svg" xmlns:xlink="http://www.w3.org/1999/xlink" x="0px"
	 y="0px" viewBox="0 0 161.5 161.5" style="enable-background:new 0 0 161.5 161.5;" xml:space="preserve">
<style type="text/css">
	.st0{fill:#231815;}
	.st1{fill:none;stroke:#231815;stroke-width:2;stroke-miterlimit:10;}
</style>
<g>
	<g>
		<g>
			<path class="st0" d="M74.2,65.6c-8.1,0-14.6-6.6-14.6-14.6s6.6-14.6,14.6-14.6c8.1,0,14.6,6.6,14.6,14.6S82.2,65.6,74.2,65.6z
				 M74.2,39c-6.7,0-12.1,5.4-12.1,12.1s5.4,12.1,12.1,12.1S86.2,57.7,86.2,51S80.8,39,74.2,39z"/>
			<path class="st0" d="M44.4,124c0-0.3-0.2-31.5,0-37.9l0-0.2c2.6-14.1,16-16.3,16.2-16.3l0.2,0c0.2,0,16.2-0.2,24.9,0l0.1,0
				c9.4,0.8,13.5,8.4,13.6,8.7l-2.3,1.2c-0.1-0.3-3.6-6.6-11.6-7.4c-8.3-0.2-23.3,0-24.7,0c-1.1,0.2-11.7,2.3-14,14.2
				c-0.2,6.6,0,37.4,0,37.7L44.4,124z"/>
		</g>
		<polygon class="st0" points="113.8,125.3 111.2,125.3 111.2,107.4 115.9,107.4 115.9,101.6 110.8,101.6 110.8,93.3 66.7,93.3 
			66.7,112.3 72.5,112.3 80.7,104.3 96.7,104.3 96.7,125.3 94.2,125.3 94.2,106.8 81.7,106.8 73.5,114.9 64.1,114.9 64.1,90.8 
			113.4,90.8 113.4,99 118.5,99 118.5,109.9 113.8,109.9 		"/>
		<rect x="60.3" y="124" class="st0" width="58.5" height="2.5"/>
		<rect x="67.6" y="113.6" class="st0" width="2.5" height="6.7"/>
	</g>
	<circle class="st1" cx="81.6" cy="81.5" r="72.2"/>
</g>
</svg>
