<?xml version="1.0" encoding="utf-8"?>
<!-- Generator: Adobe Illustrator 23.0.1, SVG Export Plug-In . SVG Version: 6.00 Build 0)  -->
<svg version="1.1" id="レイヤー_1" xmlns="http://www.w3.org/2000/svg" xmlns:xlink="http://www.w3.org/1999/xlink" x="0px"
	 y="0px" viewBox="0 0 161.5 161.5" style="enable-background:new 0 0 161.5 161.5;" xml:space="preserve">
<style type="text/css">
	.st0{fill:#231815;}
	.st1{fill:none;stroke:#231815;stroke-width:2;stroke-miterlimit:10;}
</style>
<g>
	<g>
		<path class="st0" d="M72.3,66.3c-8.1,0-14.6-6.6-14.6-14.6S64.3,37,72.3,37C80.4,37,87,43.6,87,51.7S80.4,66.3,72.3,66.3z
			 M72.3,39.6c-6.7,0-12.1,5.4-12.1,12.1s5.4,12.1,12.1,12.1c6.7,0,12.1-5.4,12.1-12.1S79,39.6,72.3,39.6z"/>
		<path class="st0" d="M42.6,124.7c0-0.3-0.2-31.5,0-37.9l0-0.2c2.6-14.1,16-16.3,16.2-16.3l0.2,0c0.2,0,16.2-0.2,24.9,0l0.1,0
			c9.4,0.8,13.5,8.4,13.6,8.7l-2.3,1.2c-0.1-0.3-3.6-6.6-11.6-7.4c-8.3-0.2-23.3,0-24.7,0c-1.1,0.2-11.7,2.3-14,14.2
			c-0.2,6.6,0,37.4,0,37.7L42.6,124.7z"/>
		<path class="st0" d="M95,125.9H69.5v-12.2h4.8l5.3-10.6h-8.5V86.6h32.6v3.5h8.3v9.1h-8.5v3.8H90.6l-5.2,11H95V125.9z M72.1,123.4
			h20.4v-6.7H81.4l7.6-16.1h12v-3.8h8.5v-4h-8.3v-3.5H73.6v11.3h10.1l-7.8,15.7h-3.9V123.4z"/>
		<rect x="110.8" y="93.3" class="st0" width="10.1" height="2.5"/>
	</g>
	<circle class="st1" cx="81.7" cy="81.5" r="72.2"/>
</g>
</svg>
