<?xml version="1.0" encoding="utf-8"?>
<!-- Generator: Adobe Illustrator 23.0.1, SVG Export Plug-In . SVG Version: 6.00 Build 0)  -->
<svg version="1.1" id="レイヤー_1" xmlns="http://www.w3.org/2000/svg" xmlns:xlink="http://www.w3.org/1999/xlink" x="0px"
	 y="0px" viewBox="0 0 161.5 161.5" style="enable-background:new 0 0 161.5 161.5;" xml:space="preserve">
<style type="text/css">
	.st0{fill:#231815;}
	.st1{fill:#FFFFFF;}
	.st2{fill:none;stroke:#231815;stroke-width:2;stroke-miterlimit:10;}
</style>
<g>
	<g>
		<path class="st0" d="M91.2,102.4H34.7V52.8h56.5V102.4z M37.2,99.9h51.4V55.4H37.2V99.9z"/>
		<polygon class="st0" points="127.8,102.4 90.8,102.4 90.8,99.9 125.3,99.9 125.3,83.9 115.7,78.9 106.2,65.4 89.9,65.4 89.9,62.9 
			107.5,62.9 117.5,77 127.8,82.4 		"/>
		<g>
			<circle class="st1" cx="56.4" cy="101.2" r="7.2"/>
			<path class="st0" d="M56.4,109.7c-4.7,0-8.5-3.8-8.5-8.5c0-4.7,3.8-8.5,8.5-8.5s8.5,3.8,8.5,8.5C64.9,105.8,61,109.7,56.4,109.7z
				 M56.4,95.2c-3.3,0-5.9,2.7-5.9,5.9s2.7,5.9,5.9,5.9c3.3,0,5.9-2.7,5.9-5.9S59.6,95.2,56.4,95.2z"/>
		</g>
		<g>
			<circle class="st1" cx="106.5" cy="101.2" r="7.2"/>
			<path class="st0" d="M106.5,109.7c-4.7,0-8.5-3.8-8.5-8.5c0-4.7,3.8-8.5,8.5-8.5c4.7,0,8.5,3.8,8.5,8.5
				C115,105.8,111.2,109.7,106.5,109.7z M106.5,95.2c-3.3,0-5.9,2.7-5.9,5.9s2.7,5.9,5.9,5.9c3.3,0,5.9-2.7,5.9-5.9
				S109.8,95.2,106.5,95.2z"/>
		</g>
	</g>
	<circle class="st2" cx="81.2" cy="81.2" r="72.2"/>
</g>
</svg>
