<?xml version="1.0" encoding="utf-8"?>
<!-- Generator: Adobe Illustrator 23.0.1, SVG Export Plug-In . SVG Version: 6.00 Build 0)  -->
<svg version="1.1" id="レイヤー_1" xmlns="http://www.w3.org/2000/svg" xmlns:xlink="http://www.w3.org/1999/xlink" x="0px"
	 y="0px" viewBox="0 0 55 50" style="enable-background:new 0 0 55 50;" xml:space="preserve">
<style type="text/css">
	.st0{fill:#231815;}
	.st1{fill:#FFFFFF;}
</style>
<g>
	<path class="st0" d="M43.4,23.1c0-6.6-7.1-12-15.9-12s-15.9,5.4-15.9,12c0,6.6,7.1,12,15.9,12c-0.1,1.2-0.4,3.5-2.1,3.9
		c1.8,0.1,6.6-2.7,9.8-5.4C40.1,31.5,43.4,27.6,43.4,23.1z"/>
	<g>
		<polygon class="st1" points="19.6,19.7 18.3,19.7 18.3,27 22.6,27 22.6,25.8 19.6,25.8 		"/>
		<rect x="23.1" y="19.7" class="st1" width="1.3" height="7.3"/>
		<path class="st1" d="M29.9,22.9c0,0.6,0,1.1,0,1.7c-0.2-0.4-0.5-0.8-0.7-1.2l-2.4-3.7h-1.2V27h1.3v-3.2c0-0.7,0-1.2,0-1.7
			c0.2,0.4,0.5,0.8,0.8,1.3L30,27h1.2v-7.3h-1.3V22.9z"/>
		<polygon class="st1" points="33.7,25.8 33.7,23.7 36.4,23.7 36.4,22.6 33.7,22.6 33.7,20.8 36.5,20.8 36.5,19.7 32.3,19.7 
			32.3,27 36.7,27 36.7,25.8 		"/>
	</g>
</g>
</svg>
