<?xml version="1.0" encoding="utf-8"?>
<!-- Generator: Adobe Illustrator 23.0.1, SVG Export Plug-In . SVG Version: 6.00 Build 0)  -->
<svg version="1.1" id="レイヤー_1" xmlns="http://www.w3.org/2000/svg" xmlns:xlink="http://www.w3.org/1999/xlink" x="0px"
	 y="0px" viewBox="0 0 55 50" style="enable-background:new 0 0 55 50;" xml:space="preserve">
<style type="text/css">
	.st0{fill:#221714;}
</style>
<g>
	<path class="st0" d="M25.6,12.4c0-0.2-0.1-5-6-5s-6,4.8-6,5l-1.4,0c0-0.1,0.1-6.3,7.4-6.3s7.4,6.3,7.4,6.3L25.6,12.4l0.7,0
		L25.6,12.4z"/>
	<rect x="18.9" y="6.8" class="st0" width="1.4" height="6.7"/>
	<rect x="11.2" y="14.2" class="st0" width="3.2" height="3.2"/>
	<rect x="24.7" y="14.2" class="st0" width="3.2" height="3.2"/>
	<polygon class="st0" points="20.3,17.4 21.9,17.6 20.8,18.8 21,20.4 19.6,19.6 18.1,20.4 18.4,18.8 17.2,17.6 18.8,17.4 19.6,15.9 
			"/>
	<rect x="8.4" y="23.5" class="st0" width="1.4" height="17.2"/>
	<rect x="29.4" y="23.5" class="st0" width="1.4" height="17.2"/>
	<rect x="9.1" y="27.1" class="st0" width="21" height="1.4"/>
	<rect x="9.1" y="37.5" class="st0" width="21" height="1.4"/>
	<rect x="12.1" y="27.8" class="st0" width="1.4" height="10.1"/>
	<rect x="15.4" y="27.8" class="st0" width="1.4" height="10.1"/>
	<rect x="18.7" y="27.8" class="st0" width="1.4" height="10.1"/>
	<rect x="22.1" y="27.8" class="st0" width="1.4" height="10.1"/>
	<rect x="25.4" y="27.8" class="st0" width="1.4" height="10.1"/>
	<path class="st0" d="M43.8,20h-9.3l0.1-0.7c0.1-1.2,1.2-3.6,4.6-3.6s4.5,2.3,4.6,3.6L43.8,20z M36.2,18.6h6c-0.3-0.7-1.1-1.6-3-1.6
		C37.3,17,36.5,17.9,36.2,18.6z"/>
	<rect x="38.5" y="21.9" class="st0" width="1.4" height="4.3"/>
	<rect x="35.3" y="25.5" class="st0" width="7.8" height="1.4"/>
	<path class="st0" d="M43.6,41.1h-8.9c-1.1,0-2-0.9-2-2v-8.9c0-1.1,0.9-2,2-2h8.9c1.1,0,2,0.9,2,2v8.9
		C45.6,40.2,44.7,41.1,43.6,41.1z M34.7,29.6c-0.3,0-0.6,0.3-0.6,0.6v8.9c0,0.3,0.3,0.6,0.6,0.6h8.9c0.3,0,0.6-0.3,0.6-0.6v-8.9
		c0-0.3-0.3-0.6-0.6-0.6H34.7z"/>
	<rect x="33.4" y="32.1" class="st0" width="11.5" height="1.4"/>
	<rect x="36.6" y="35.7" class="st0" width="1.8" height="1.8"/>
</g>
</svg>
