<?xml version="1.0" encoding="utf-8"?>
<!-- Generator: Adobe Illustrator 23.0.1, SVG Export Plug-In . SVG Version: 6.00 Build 0)  -->
<svg version="1.1" id="レイヤー_1" xmlns="http://www.w3.org/2000/svg" xmlns:xlink="http://www.w3.org/1999/xlink" x="0px"
	 y="0px" viewBox="0 0 55 50" style="enable-background:new 0 0 55 50;" xml:space="preserve">
<style type="text/css">
	.st0{fill:#221714;}
</style>
<g>
	<path class="st0" d="M46,37H9.8l0-7.9c0-1.2,0.9-2.3,2.1-2.3h31.9c1.2,0,2.1,1,2.1,2.3C46,29.8,46,37,46,37z M11.1,35.6h33.6
		c0-1.3,0-4.4,0-6.6v0c0-0.5-0.4-0.9-0.8-0.9H11.9c-0.5,0-0.8,0.4-0.8,0.9L11.1,35.6z"/>
	<path class="st0" d="M43.9,28.1H11.8l0-3.1c0-0.9,0.7-1.7,1.5-1.7h29c0.9,0,1.5,0.7,1.6,1.7c0,0.5,0,2.2,0,2.6L43.9,28.1z
		 M12.7,27.1H43c0-1,0-0.5,0-2.1v0c0-0.4-0.3-0.7-0.6-0.7h-29c-0.3,0-0.6,0.3-0.6,0.7L12.7,27.1z"/>
	<path class="st0" d="M38.7,24.3l-21.8,0l0-9.5c0-0.9,0.7-1.7,1.5-1.7l18.7,0c0.9,0,1.5,0.7,1.6,1.7c0,0.5,0,8.6,0,9.1L38.7,24.3z
		 M17.9,23.3l19.9,0c0-1,0-7,0-8.5v0c0-0.4-0.3-0.7-0.6-0.7l-18.7,0c-0.3,0-0.6,0.3-0.6,0.7L17.9,23.3z"/>
	<path class="st0" d="M13.8,23.3l0-4.4c0-0.9,0.7-1.7,1.5-1.7l1.7,0l0,1l-1.6,0c-0.3,0-0.6,0.3-0.6,0.7l0,4.4H13.8z"/>
	<path class="st0" d="M41.1,23.3l0-4.4c0-0.4-0.3-0.7-0.6-0.7l-1.6,0l0-1l1.7,0c0.9,0,1.5,0.7,1.5,1.7l0,4.4H41.1z"/>
	<rect x="9.8" y="36.4" class="st0" width="2.9" height="2.3"/>
	<rect x="43.1" y="36.4" class="st0" width="2.9" height="2.3"/>
</g>
</svg>
