<?xml version="1.0" encoding="utf-8"?>
<!-- Generator: Adobe Illustrator 23.0.1, SVG Export Plug-In . SVG Version: 6.00 Build 0)  -->
<svg version="1.1" id="レイヤー_1" xmlns="http://www.w3.org/2000/svg" xmlns:xlink="http://www.w3.org/1999/xlink" x="0px"
	 y="0px" viewBox="0 0 55 50" style="enable-background:new 0 0 55 50;" xml:space="preserve">
<style type="text/css">
	.st0{fill:#231815;}
</style>
<g>
	<path class="st0" d="M41.6,41.1H11.1c-1.1,0-2-0.9-2-2v-9.6c0-1.1,0.9-2,2-2h30.5c1.1,0,2,0.9,2,2v9.6
		C43.6,40.2,42.7,41.1,41.6,41.1z M11.1,28.9c-0.4,0-0.6,0.3-0.6,0.6v9.6c0,0.4,0.3,0.6,0.6,0.6h30.5c0.4,0,0.6-0.3,0.6-0.6v-9.6
		c0-0.4-0.3-0.6-0.6-0.6H11.1z"/>
	<rect x="9.7" y="31.3" class="st0" width="33.2" height="0.7"/>
	<path class="st0" d="M12.4,25.8h-1.4V11.1c0,0-0.1-1.5,1-2.7C13,7.5,14.4,7,16.2,7.1c1.8,0.1,3.2,0.6,3.9,1.6
		c0.8,1,0.8,2.1,0.7,2.6c-0.1,0-1.4,0-1.4,0c0,0,0.2-1-0.5-1.7c-0.5-0.7-1.5-1-2.9-1.1c-1.4-0.1-2.4,0.2-3,0.9
		c-0.7,0.7-0.7,1.7-0.7,1.8L12.4,25.8z"/>
	<polygon class="st0" points="20.2,12.6 17.4,15.1 22.9,15.1 	"/>
	<rect x="17.6" y="17.3" class="st0" width="1.8" height="1.8"/>
	<rect x="20.9" y="17.3" class="st0" width="1.8" height="1.8"/>
	<rect x="17.6" y="20.8" class="st0" width="1.8" height="1.8"/>
	<rect x="20.9" y="20.8" class="st0" width="1.8" height="1.8"/>
	<rect x="17.6" y="24.1" class="st0" width="1.8" height="1.8"/>
	<rect x="20.9" y="24.1" class="st0" width="1.8" height="1.8"/>
</g>
</svg>
