<?xml version="1.0" encoding="utf-8"?>
<!-- Generator: Adobe Illustrator 23.0.1, SVG Export Plug-In . SVG Version: 6.00 Build 0)  -->
<svg version="1.1" id="レイヤー_1" xmlns="http://www.w3.org/2000/svg" xmlns:xlink="http://www.w3.org/1999/xlink" x="0px"
	 y="0px" viewBox="0 0 55 50" style="enable-background:new 0 0 55 50;" xml:space="preserve">
<style type="text/css">
	.st0{fill:#221714;}
</style>
<g>
	<rect x="19.5" y="26.4" class="st0" width="1.4" height="14.7"/>
	<rect x="27.2" y="26.4" class="st0" width="1.4" height="14.7"/>
	<path class="st0" d="M16.7,25.6c-0.3,0-0.6,0-0.9-0.1c-2.2-0.4-3.1-2.2-3.2-3.9c-1.6-0.4-4-1.7-4.2-4.8c-0.3-2.9,2-4.4,3.7-4.9
		c0.1-1.6,1-4.2,4.1-5c1.5-0.4,2.7-0.3,3.5,0.4c0.2,0.2,0.4,0.4,0.6,0.7c0.1-0.1,0.1-0.2,0.2-0.2c0.8-0.8,1.9-1.1,3.4-1.1
		c1.5,0.1,2.6,0.5,3.2,1.3c0,0,0.1,0.1,0.1,0.1c0.6-0.6,1.4-1,2.5-0.9c1.3,0.1,3,0.7,4,3.1c0.8,0,2,0.2,3.1,0.9
		c1.2,0.8,1.9,2.1,2.1,3.7c0.2,1.3-0.1,2.5-0.8,3.3c-0.9,1.1-2.4,1.5-3.1,1.6c-0.3,0.9-1.1,2.7-2.7,3.5l-0.1,0
		c-0.8,0.3-2.7,0.7-4.2,0c-0.8,0.9-2.3,2.1-4,2.1c-1,0-2.4-0.3-3.5-2C19.8,24.4,18.5,25.6,16.7,25.6z M17.8,8C17.4,8,17,8,16.6,8.1
		c-3.4,0.9-3.1,4.1-3.1,4.2l0.1,0.6l-0.6,0.1c-0.1,0-3.4,0.7-3.1,3.6c0.2,3.3,3.4,3.7,3.6,3.7l0.6,0.1l0,0.6c-0.1,1,0.1,2.7,2.1,3.1
		c2,0.4,3.2-1,4-2.2l0.6-1l0.5,1c0.7,1.5,1.7,2.2,2.8,2.2c1.6-0.1,3.1-1.6,3.3-2l0.4-0.9l0.7,0.6c0.9,0.8,2.8,0.4,3.4,0.2
		c1.2-0.7,1.9-2.5,2.1-3.1l0.1-0.5l0.5,0c0,0,1.7-0.1,2.6-1.1c0.5-0.5,0.6-1.3,0.5-2.2c-0.2-1.3-0.7-2.2-1.6-2.8
		c-1.1-0.8-2.3-0.7-2.6-0.6l-0.6,0.1l-0.2-0.6c-0.6-1.7-1.6-2.6-3-2.7c-1.5-0.1-1.9,1.3-2,1.5c0,0,0,0.1,0,0.1l-1.3-0.3
		c0,0,0,0,0-0.1c0-0.1,0.1-0.6-0.2-1C25.7,8.3,25,8,23.9,8c-1.1,0-1.9,0.2-2.4,0.7c-0.5,0.5-0.6,1.2-0.6,1.3c0,0,0,0,0,0l-1.4,0
		c0,0,0,0,0,0c0-0.1,0-1.1-0.7-1.6C18.6,8.1,18.2,8,17.8,8z"/>
	<path class="st0" d="M27.6,20.4c-0.7,0-1.4-0.2-2-0.6c-1.7-1.2-2.9-3.3-3-3.4c-0.2-0.3-0.1-0.6,0.2-0.9c0.2-0.2,0.6-0.2,0.9,0
		c0.4,0.3,1.5,1,2.4,0.8c0.5-0.1,0.8-0.5,1.1-1.1c0,0,0-0.1,0.1-0.1c0.6-0.9,1.5-1.7,2.8-1.4l0.1,0c0.5,0.1,1.1,0.3,1.5,0.9
		c0.4,0.6,0.4,1.4,0.1,2.5c-0.3,1.3-1.3,2.4-2.7,2.9C28.6,20.3,28.1,20.4,27.6,20.4z M25.3,17.7c0.3,0.4,0.7,0.7,1.1,1
		c0.6,0.4,1.4,0.5,2.3,0.1c0.9-0.4,1.6-1.1,1.9-2c0.2-1,0.1-1.3,0-1.5c-0.1-0.2-0.3-0.2-0.7-0.3l-0.1,0c-0.3-0.1-0.6-0.2-1.4,0.8
		c-0.5,1-1.2,1.6-2,1.8C26,17.8,25.7,17.8,25.3,17.7z"/>
	<path class="st0" d="M27.5,23.5c-0.4,0-0.7-0.3-0.7-0.7v-2.8c0-0.4,0.3-0.7,0.7-0.7c0.4,0,0.7,0.3,0.7,0.7v2.8
		C28.2,23.2,27.9,23.5,27.5,23.5z"/>
	<rect x="9.6" y="35.7" class="st0" width="1.4" height="5.1"/>
	<rect x="30.2" y="35.7" class="st0" width="1.4" height="5.1"/>
	<rect x="33.7" y="35.7" class="st0" width="1.4" height="5.1"/>
	<rect x="37.2" y="35.7" class="st0" width="1.4" height="5.1"/>
	<rect x="40.8" y="35.7" class="st0" width="1.4" height="5.1"/>
	<rect x="44.3" y="35.7" class="st0" width="1.4" height="5.1"/>
	<rect x="13" y="35.7" class="st0" width="1.4" height="5.1"/>
	<rect x="16.4" y="35.7" class="st0" width="1.4" height="5.1"/>
	<rect x="10.3" y="37.6" class="st0" width="6.8" height="1.4"/>
	<rect x="30.7" y="37.6" class="st0" width="14.4" height="1.4"/>
</g>
</svg>
