<?xml version="1.0" encoding="utf-8"?>
<!-- Generator: Adobe Illustrator 23.0.1, SVG Export Plug-In . SVG Version: 6.00 Build 0)  -->
<svg version="1.1" id="レイヤー_1" xmlns="http://www.w3.org/2000/svg" xmlns:xlink="http://www.w3.org/1999/xlink" x="0px"
	 y="0px" viewBox="0 0 55 50" style="enable-background:new 0 0 55 50;" xml:space="preserve">
<style type="text/css">
	.st0{fill:#221714;}
</style>
<g>
	<path class="st0" d="M11.9,41.1c-1.1,0-2.5,0-2.9,0c-0.9,0-1.6-0.7-1.6-1.6V27.5c0-0.9,0.7-1.6,1.6-1.6l4.9,0V41l-0.6,0
		C13.1,41.1,12.5,41.1,11.9,41.1z M12.5,27.3l-3.5,0c-0.1,0-0.2,0.1-0.2,0.2v11.9c0,0.1,0.1,0.2,0.2,0.2h0c1.1,0,2.6,0,3.5,0V27.3z"
		/>
	<path class="st0" d="M31,41.1c-0.7,0-1.2,0-1.3,0L29,41V25.9l4.9,0c0.9,0,1.6,0.7,1.6,1.6v11.9c0,0.9-0.7,1.6-1.6,1.6
		C33.5,41.1,32.1,41.1,31,41.1z M30.4,39.7c0.9,0,2.4,0,3.5,0h0c0.1,0,0.2-0.1,0.2-0.2V27.5c0-0.1-0.1-0.2-0.2-0.2l-3.5,0V39.7z"/>
	<path class="st0" d="M30.3,32.3H12.5l0-10.5c0-1,0.8-1.8,1.8-1.8h14.3c1,0,1.8,0.8,1.8,1.8c0,1,0,9.4,0,9.9L30.3,32.3z M13.9,30.9
		H29c0-1.6,0-6.1,0-9.1v0c0-0.2-0.2-0.4-0.4-0.4H14.3c-0.2,0-0.4,0.2-0.4,0.4L13.9,30.9z"/>
	<path class="st0" d="M30.4,37.3H12.5v-6.4h17.9V37.3z M13.9,36H29v-3.7H13.9V36z"/>
	<path class="st0" d="M30.4,41.1H12.5V36h17.9V41.1z M13.9,39.7H29v-2.4H13.9V39.7z"/>
	<path class="st0" d="M46.9,16.9H36.1c-0.2,0-0.4-0.1-0.6-0.3c-0.1-0.2-0.1-0.4-0.1-0.6l3.9-9.3c0.1-0.3,0.4-0.4,0.6-0.4h3.5
		c0.3,0,0.5,0.2,0.6,0.4l3.3,9.3c0.1,0.2,0,0.4-0.1,0.6C47.3,16.8,47.1,16.9,46.9,16.9z M37.1,15.6h8.8l-2.9-7.9h-2.6L37.1,15.6z"/>
	<polygon class="st0" points="45.8,41.1 37.2,41.1 37.2,39.7 40.8,39.7 40.8,18.7 42.2,18.7 42.2,39.7 45.8,39.7 	"/>
	<rect x="37.7" y="18.7" class="st0" width="0.7" height="3.5"/>
</g>
</svg>
