<?xml version="1.0" encoding="utf-8"?>
<!-- Generator: Adobe Illustrator 23.0.1, SVG Export Plug-In . SVG Version: 6.00 Build 0)  -->
<svg version="1.1" id="レイヤー_1" xmlns="http://www.w3.org/2000/svg" xmlns:xlink="http://www.w3.org/1999/xlink" x="0px"
	 y="0px" viewBox="0 0 55 50" style="enable-background:new 0 0 55 50;" xml:space="preserve">
<style type="text/css">
	.st0{fill:#221714;}
</style>
<g>
	<g>
		<path class="st0" d="M10.8,41.1H9.4V16.7l3.6,0c1.1,0,1.6,0.8,1.6,1.6V28h-3.8V41.1z M10.8,26.6h2.5v-8.4c0-0.2,0-0.2-0.2-0.2
			l-2.2,0V26.6z"/>
		<path class="st0" d="M19.5,41.1l-1.4,0c0-0.1,0.1-6.6,0-8.1c0-0.3,0-0.5-0.1-0.5c-0.1-0.1-0.3-0.1-0.3-0.1l-0.1,0h-7.1V31h7
			c0.2,0,0.8,0,1.3,0.4c0.3,0.2,0.6,0.7,0.6,1.6C19.6,34.5,19.5,40.8,19.5,41.1z"/>
		<rect x="10.6" y="34.5" class="st0" width="8.3" height="1.4"/>
	</g>
	<g>
		<path class="st0" d="M43.2,41.1h-1.4V28H38v-9.7c0-0.8,0.5-1.6,1.6-1.6l3.6,0V41.1z M39.4,26.6h2.5V18l-2.2,0
			c-0.2,0-0.2,0-0.2,0.2V26.6z"/>
		<path class="st0" d="M33.1,41.1c0-0.3-0.1-6.6,0-8.2c0-0.8,0.3-1.3,0.6-1.5c0.5-0.4,1.1-0.4,1.3-0.4h7v1.4l-7.2,0
			c0,0-0.2,0-0.3,0.1c-0.1,0.1-0.1,0.3-0.1,0.5c-0.1,1.6,0,8.1,0,8.2L33.1,41.1z"/>
		<rect x="33.8" y="34.5" class="st0" width="8.3" height="1.4"/>
	</g>
	<rect x="17.8" y="26" class="st0" width="17.2" height="1.4"/>
	<rect x="21.4" y="29.2" class="st0" width="1.4" height="11.9"/>
	<rect x="30" y="29.2" class="st0" width="1.4" height="11.9"/>
	<rect x="19.5" y="22.6" class="st0" width="6.9" height="1.4"/>
	<g>
		<path class="st0" d="M31.3,25.6h-3.2l-0.9-7.1H32L31.3,25.6z M28.7,24.9h2l0.6-5.7H28L28.7,24.9z"/>
		<rect x="29.1" y="12.9" class="st0" width="1.2" height="1.2"/>
		<rect x="29.1" y="16.4" class="st0" width="1.2" height="1.2"/>
		<rect x="26.4" y="14.3" class="st0" width="1.2" height="1.2"/>
		<rect x="31.8" y="14.3" class="st0" width="1.2" height="1.2"/>
	</g>
</g>
</svg>
