<?xml version="1.0" encoding="utf-8"?>
<!-- Generator: Adobe Illustrator 23.0.1, SVG Export Plug-In . SVG Version: 6.00 Build 0)  -->
<svg version="1.1" id="レイヤー_1" xmlns="http://www.w3.org/2000/svg" xmlns:xlink="http://www.w3.org/1999/xlink" x="0px"
	 y="0px" viewBox="0 0 55 50" style="enable-background:new 0 0 55 50;" xml:space="preserve">
<style type="text/css">
	.st0{fill:#221714;}
</style>
<g>
	<g>
		<path class="st0" d="M42,41.1H31c-1.3,0-2.4-1.1-2.4-2.4V9c0-1.3,1.1-2.4,2.4-2.4h11c1.3,0,2.4,1.1,2.4,2.4v29.7
			C44.3,40,43.3,41.1,42,41.1z M31,8c-0.6,0-1,0.4-1,1v29.7c0,0.6,0.4,1,1,1h11c0.6,0,1-0.4,1-1V9c0-0.6-0.4-1-1-1H31z"/>
		<rect x="29.8" y="26.7" class="st0" width="13" height="1.4"/>
		<rect x="32.1" y="21.9" class="st0" width="1.4" height="3"/>
		<rect x="32.1" y="30.4" class="st0" width="1.4" height="2.9"/>
	</g>
	<g>
		<rect x="9.9" y="17.5" class="st0" width="9.8" height="1.4"/>
		<path class="st0" d="M14.8,22.3h-3.4c-0.6,0-1.1-0.5-1.1-1.1v-2.5c0-0.6,0.5-1.1,1.1-1.1h3.4c0.6,0,1.1,0.5,1.1,1.1v2.5
			C15.9,21.8,15.4,22.3,14.8,22.3z M11.6,20.9h2.9v-2h-2.9V20.9z"/>
		<path class="st0" d="M23.6,41.1H10.3c-1.1,0-1.9-0.9-1.9-1.9V25.8c0-1.1,0.9-1.9,1.9-1.9h13.3c1.1,0,1.9,0.9,1.9,1.9v13.3
			C25.5,40.2,24.7,41.1,23.6,41.1z M10.3,25.2c-0.3,0-0.6,0.3-0.6,0.6v13.3c0,0.3,0.3,0.6,0.6,0.6h13.3c0.3,0,0.6-0.3,0.6-0.6V25.8
			c0-0.3-0.3-0.6-0.6-0.6H10.3z"/>
		<path class="st0" d="M22.4,37.4H11.7v-6.9h10.7V37.4z M13.1,36h8v-4.2h-8V36z"/>
		<rect x="11.8" y="26.9" class="st0" width="1.5" height="1.5"/>
		<rect x="16.2" y="26.9" class="st0" width="1.5" height="1.5"/>
		<rect x="20.6" y="26.9" class="st0" width="1.5" height="1.5"/>
	</g>
</g>
</svg>
