<?xml version="1.0" encoding="utf-8"?>
<!-- Generator: Adobe Illustrator 23.0.1, SVG Export Plug-In . SVG Version: 6.00 Build 0)  -->
<svg version="1.1" id="レイヤー_1" xmlns="http://www.w3.org/2000/svg" xmlns:xlink="http://www.w3.org/1999/xlink" x="0px"
	 y="0px" viewBox="0 0 257.1 57.1" style="enable-background:new 0 0 257.1 57.1;" xml:space="preserve">
<style type="text/css">
	.st0{fill:#EFCB20;}
	.st1{fill:#01559C;}
	.st2{fill:#FFFFFF;}
</style>
<g>
	<path class="st0" d="M243.5,57.1h-230C6.1,57.1,0,51,0,43.5l0-29.9C0,6.1,6.1,0,13.6,0l230,0c7.5,0,13.6,6.1,13.6,13.6v29.9
		C257.1,51,251,57.1,243.5,57.1z"/>
	<g>
		<path class="st1" d="M32.9,35.3c-0.1-0.2-0.1-0.4-0.1-0.5c0-0.2,0.1-0.4,0.3-0.6c0.2-0.1,0.4-0.2,0.6-0.2c0.1,0,0.3,0,0.4,0.1
			c0.1,0.1,0.2,0.1,0.4,0.2c0.5,0.4,0.9,0.7,1.4,0.9s1,0.3,1.6,0.3c0.7,0,1.2-0.1,1.5-0.4c0.3-0.3,0.5-0.7,0.5-1.1
			c0-0.4-0.1-0.8-0.3-1.1c-0.2-0.3-0.5-0.5-0.8-0.7s-0.6-0.3-1-0.3c-0.4-0.1-0.7-0.1-0.9-0.2c-0.4-0.1-0.9-0.2-1.3-0.3
			c-0.4-0.1-0.8-0.3-1.1-0.6c-0.3-0.2-0.6-0.5-0.8-0.9c-0.2-0.3-0.3-0.8-0.3-1.2c0-0.6,0.2-1.1,0.5-1.6c0.3-0.4,0.7-0.8,1.2-1.1
			c0.5-0.3,1-0.5,1.5-0.6s1.1-0.2,1.7-0.2c0.5,0,0.9,0,1.2,0.1s0.7,0.2,1.1,0.4c0.2,0.1,0.3,0.2,0.4,0.4c0.1,0.1,0.1,0.3,0.1,0.4
			c0,0.1,0,0.2-0.1,0.3c-0.1,0.1-0.1,0.2-0.2,0.3s-0.2,0.1-0.4,0.2c-0.1,0-0.3,0-0.5,0c-0.3-0.1-0.7-0.2-1-0.3
			c-0.3-0.1-0.7-0.1-1.1-0.1c-0.3,0-0.6,0-0.8,0.1c-0.3,0.1-0.6,0.1-0.8,0.3c-0.2,0.1-0.4,0.3-0.6,0.5c-0.2,0.2-0.3,0.5-0.3,0.8
			c0,0.3,0.1,0.5,0.3,0.7c0.2,0.2,0.4,0.3,0.7,0.4c0.2,0.1,0.5,0.2,0.7,0.2c0.2,0,0.3,0.1,0.3,0.1c0.5,0.1,1,0.2,1.5,0.4
			c0.5,0.1,1,0.3,1.5,0.7c0.5,0.3,0.9,0.6,1.1,1.1c0.3,0.5,0.4,1,0.4,1.6c0,0.6-0.1,1.1-0.3,1.5s-0.5,0.8-0.9,1.1s-0.8,0.5-1.2,0.7
			c-0.5,0.1-1,0.2-1.5,0.2c-0.4,0-0.9,0-1.3-0.1c-0.4-0.1-0.9-0.2-1.3-0.4c-0.4-0.2-0.8-0.4-1.1-0.6C33.4,35.9,33.1,35.6,32.9,35.3
			L32.9,35.3z"/>
		<path class="st1" d="M51,25.2c0.3,0.1,0.5,0.2,0.6,0.4c0.1,0.2,0.2,0.3,0.2,0.5c0,0.2-0.1,0.4-0.2,0.5c-0.1,0.1-0.4,0.3-0.7,0.3
			L48,27c0,1.5,0,3.1,0,4.7c0,1.6,0,3.1,0,4.7c0,0.3-0.1,0.6-0.3,0.7s-0.4,0.2-0.7,0.2c-0.2,0-0.4-0.1-0.6-0.2s-0.3-0.4-0.3-0.7
			l0-9.4h-2.9c-0.3-0.1-0.6-0.2-0.7-0.3c-0.1-0.2-0.2-0.4-0.2-0.6c0-0.2,0.1-0.4,0.3-0.6c0.2-0.2,0.4-0.2,0.8-0.2c1.4,0,2.5,0,3.4,0
			c0.9,0,1.7,0,2.3,0c0.6,0,1,0,1.3,0C50.7,25.2,50.9,25.2,51,25.2z"/>
		<path class="st1" d="M62.4,36.1c0,0.3-0.1,0.6-0.3,0.7s-0.4,0.2-0.6,0.2c-0.2,0-0.4-0.1-0.5-0.2c-0.2-0.1-0.3-0.3-0.4-0.5
			c-0.1-0.6-0.2-1.2-0.3-1.7s-0.3-1.1-0.5-1.7c-0.8,0-1.6,0-2.5,0c-0.8,0-1.6,0-2.5,0h0c-0.2,0.5-0.3,1.1-0.4,1.6
			c-0.1,0.5-0.3,1-0.4,1.6c-0.1,0.3-0.2,0.5-0.4,0.6c-0.2,0.1-0.4,0.2-0.5,0.2c-0.3,0-0.5-0.1-0.7-0.3c-0.2-0.2-0.3-0.5-0.2-0.8
			c0.4-1.9,0.9-3.7,1.5-5.4c0.6-1.8,1.3-3.5,2.3-5.2l0,0c0.1-0.3,0.3-0.4,0.7-0.5h0c0.4-0.1,0.7-0.1,0.9,0.2c0.3,0.3,0.6,0.7,0.9,1
			c0.3,0.4,0.5,0.8,0.8,1.2c0.2,0.4,0.5,0.8,0.7,1.2s0.4,0.8,0.6,1.2c0.1,0.2,0.2,0.5,0.4,0.8c0.1,0.3,0.3,0.6,0.4,0.9
			c0.1,0,0.3,0,0.5,0c0.2,0,0.3,0,0.5,0c0.3,0.1,0.5,0.2,0.6,0.4c0.1,0.2,0.2,0.3,0.2,0.5c0,0.2-0.1,0.4-0.2,0.5
			c-0.1,0.2-0.4,0.3-0.7,0.3h-0.2C62.1,34,62.3,35.1,62.4,36.1z M58,28.8c-0.2-0.3-0.3-0.6-0.5-0.9c-0.2-0.3-0.3-0.5-0.5-0.8
			c-0.3,0.7-0.6,1.3-0.9,2c-0.3,0.7-0.5,1.4-0.8,2.1c0.7,0,1.3,0,1.9,0c0.6,0,1.2,0,1.9,0c-0.2-0.4-0.3-0.7-0.5-1.1
			c-0.2-0.3-0.3-0.7-0.5-1.1L58,28.8z"/>
		<path class="st1" d="M66.1,36.2c0,0.3-0.1,0.6-0.3,0.7c-0.2,0.2-0.4,0.2-0.7,0.2c-0.2,0-0.4-0.1-0.6-0.2c-0.2-0.1-0.3-0.4-0.3-0.7
			v-9.1c-0.2-0.1-0.3-0.2-0.5-0.3c-0.1-0.1-0.2-0.3-0.2-0.5c0-0.3,0.1-0.5,0.4-0.7c0.6-0.4,1.2-0.7,1.9-0.9c0.7-0.2,1.4-0.3,2.1-0.3
			c0.6,0,1.2,0.1,1.7,0.2s1,0.4,1.5,0.8c0.5,0.4,0.9,0.9,1.2,1.4s0.4,1,0.4,1.5c0,0.4-0.1,0.8-0.2,1.2c-0.1,0.4-0.3,0.8-0.6,1.1
			c-0.2,0.3-0.5,0.7-0.9,1c-0.3,0.3-0.7,0.5-1.1,0.7l3.1,3.4c0.2,0.2,0.3,0.4,0.3,0.6c0,0.2-0.1,0.4-0.3,0.6
			c-0.2,0.1-0.4,0.2-0.6,0.2c-0.1,0-0.3,0-0.4-0.1c-0.1,0-0.3-0.1-0.4-0.3c-0.1-0.1-0.3-0.4-0.7-0.8c-0.3-0.4-0.7-0.8-1.1-1.2
			c-0.4-0.4-0.8-0.8-1.1-1.2c-0.3-0.4-0.6-0.6-0.7-0.8c-0.6,0.1-1.2,0.2-1.8,0.2V36.2z M69.9,26.7c-0.3-0.2-0.6-0.4-1-0.5
			c-0.3-0.1-0.7-0.1-1.1-0.1c-0.6,0-1.2,0.1-1.8,0.3v4.9c0.4,0,0.9-0.1,1.3-0.1c0.4-0.1,0.9-0.2,1.3-0.3c0.3-0.1,0.5-0.2,0.8-0.4
			c0.2-0.2,0.4-0.4,0.6-0.6c0.2-0.2,0.3-0.5,0.4-0.8c0.1-0.3,0.2-0.5,0.2-0.8c0-0.3-0.1-0.6-0.2-0.8C70.4,27.2,70.2,27,69.9,26.7z"
			/>
		<path class="st1" d="M83,25.2c0.3,0.1,0.5,0.2,0.6,0.4c0.1,0.2,0.2,0.3,0.2,0.5c0,0.2-0.1,0.4-0.2,0.5c-0.1,0.1-0.4,0.3-0.7,0.3
			L80,27c0,1.5,0,3.1,0,4.7c0,1.6,0,3.1,0,4.7c0,0.3-0.1,0.6-0.3,0.7s-0.4,0.2-0.7,0.2c-0.2,0-0.4-0.1-0.6-0.2s-0.3-0.4-0.3-0.7
			l0-9.4h-2.9c-0.3-0.1-0.6-0.2-0.7-0.3c-0.1-0.2-0.2-0.4-0.2-0.6c0-0.2,0.1-0.4,0.3-0.6c0.2-0.2,0.4-0.2,0.8-0.2c1.4,0,2.5,0,3.4,0
			c0.9,0,1.7,0,2.3,0c0.6,0,1,0,1.3,0C82.7,25.2,82.9,25.2,83,25.2z"/>
		<path class="st1" d="M91.9,26.1c0.2-0.5,0.5-0.8,1-0.8c0.1,0,0.2,0,0.2,0c0.5-0.2,1-0.4,1.5-0.5c0.5-0.1,1.1-0.2,1.6-0.2
			c0.4,0,0.7,0,1.1,0.1c0.4,0.1,0.7,0.2,1,0.4v0c0.4,0.2,0.7,0.4,1,0.7c0.3,0.3,0.5,0.6,0.7,1s0.4,0.7,0.5,1.1
			c0.1,0.4,0.2,0.8,0.2,1.2c0,0.8-0.2,1.5-0.6,2.1c-0.4,0.7-1,1.2-1.6,1.6c-0.6,0.4-1.4,0.6-2.2,0.7c-0.2,0-0.3,0-0.5,0
			c-0.2,0-0.3,0-0.5,0c-0.3,0-0.5,0-0.8,0c-0.3,0-0.5,0-0.7-0.1c0,0.5,0,1,0,1.6s0,1.1,0,1.6c0,0.3-0.1,0.6-0.3,0.7
			c-0.2,0.2-0.4,0.2-0.7,0.2c-0.2,0-0.4-0.1-0.6-0.2c-0.2-0.1-0.3-0.4-0.3-0.7v-3.7l0,0c-0.4-0.2-0.6-0.5-0.6-0.9
			c0-0.2,0.1-0.3,0.2-0.4c0.1-0.1,0.3-0.2,0.5-0.3V26.1z M97.4,26.6c-0.4-0.2-0.8-0.3-1.2-0.3c-0.4,0-0.8,0.1-1.2,0.2
			s-0.8,0.3-1.2,0.5v4.7c0.5,0.1,1,0.2,1.5,0.2c0.5,0,1-0.1,1.5-0.2c0.5-0.1,0.9-0.4,1.2-0.7c0.3-0.3,0.4-0.6,0.6-0.9
			c0.1-0.3,0.2-0.7,0.2-1c0-0.5-0.1-0.9-0.3-1.4C98.2,27.1,97.8,26.8,97.4,26.6z"/>
		<path class="st1" d="M108.9,35.2c0.3,0.1,0.5,0.2,0.6,0.4c0.1,0.2,0.2,0.3,0.2,0.5c0,0.2-0.1,0.3-0.2,0.5
			c-0.1,0.2-0.4,0.3-0.7,0.3c-0.5,0-1,0-1.5,0c-0.5,0-1,0-1.5,0c-0.4,0-0.9,0-1.5,0c-0.5,0-1,0-1.5,0c-0.6-0.1-0.9-0.4-1-0.9
			c0-0.9,0-1.7,0-2.5s0-1.7,0-2.5c0-0.9,0-1.7,0-2.5c0-0.8,0-1.7,0-2.5c0.1-0.3,0.2-0.5,0.4-0.6c0.2-0.1,0.4-0.2,0.6-0.2
			s0.4,0.1,0.6,0.2c0.2,0.1,0.3,0.3,0.4,0.6c0,0.8,0,1.6,0,2.4c0,0.8,0,1.6,0,2.4c0,0.8,0,1.6,0,2.3c0,0.7,0,1.5,0,2.3
			c0.4,0,0.8,0,1.2,0c0.4,0,0.8,0,1.2,0c0.4,0,0.9,0,1.3,0S108.5,35.2,108.9,35.2z"/>
		<path class="st1" d="M120.9,36.1c0,0.3-0.1,0.6-0.3,0.7s-0.4,0.2-0.6,0.2c-0.2,0-0.4-0.1-0.5-0.2c-0.2-0.1-0.3-0.3-0.4-0.5
			c-0.1-0.6-0.2-1.2-0.3-1.7s-0.3-1.1-0.5-1.7c-0.8,0-1.6,0-2.5,0c-0.8,0-1.6,0-2.5,0h0c-0.2,0.5-0.3,1.1-0.4,1.6
			c-0.1,0.5-0.3,1-0.4,1.6c-0.1,0.3-0.2,0.5-0.4,0.6c-0.2,0.1-0.4,0.2-0.5,0.2c-0.3,0-0.5-0.1-0.7-0.3c-0.2-0.2-0.3-0.5-0.2-0.8
			c0.4-1.9,0.9-3.7,1.5-5.4c0.6-1.8,1.3-3.5,2.3-5.2l0,0c0.1-0.3,0.3-0.4,0.7-0.5h0c0.4-0.1,0.7-0.1,0.9,0.2c0.3,0.3,0.6,0.7,0.9,1
			c0.3,0.4,0.5,0.8,0.8,1.2c0.2,0.4,0.5,0.8,0.7,1.2s0.4,0.8,0.6,1.2c0.1,0.2,0.2,0.5,0.4,0.8c0.1,0.3,0.3,0.6,0.4,0.9
			c0.1,0,0.3,0,0.5,0c0.2,0,0.3,0,0.5,0c0.3,0.1,0.5,0.2,0.6,0.4c0.1,0.2,0.2,0.3,0.2,0.5c0,0.2-0.1,0.4-0.2,0.5
			c-0.1,0.2-0.4,0.3-0.7,0.3h-0.2C120.5,34,120.8,35.1,120.9,36.1z M116.4,28.8c-0.2-0.3-0.3-0.6-0.5-0.9c-0.2-0.3-0.3-0.5-0.5-0.8
			c-0.3,0.7-0.6,1.3-0.9,2c-0.3,0.7-0.5,1.4-0.8,2.1c0.7,0,1.3,0,1.9,0c0.6,0,1.2,0,1.9,0c-0.2-0.4-0.3-0.7-0.5-1.1
			c-0.2-0.3-0.3-0.7-0.5-1.1L116.4,28.8z"/>
		<path class="st1" d="M130.2,25.5c0.1-0.3,0.2-0.5,0.4-0.6c0.2-0.1,0.4-0.2,0.6-0.2c0.2,0,0.4,0.1,0.6,0.2c0.2,0.1,0.3,0.3,0.4,0.6
			c0,1.8,0,3.6,0,5.3c0,1.7-0.1,3.5-0.2,5.4c0,0.1,0,0.1,0,0.1s0,0.1,0,0.1c-0.1,0.2-0.2,0.4-0.4,0.6c-0.2,0.1-0.3,0.2-0.5,0.2
			c-0.3,0-0.6-0.1-0.9-0.4l-0.1-0.2c-0.4-0.7-0.9-1.5-1.4-2.1c-0.5-0.7-0.9-1.4-1.4-2c-0.5-0.6-1-1.3-1.5-1.9
			c-0.5-0.6-1-1.3-1.5-1.9v3.3c0,0.7,0,1.4,0,2.1c0,0.7,0,1.5,0,2.4c0,0.3-0.1,0.6-0.3,0.7c-0.2,0.2-0.4,0.2-0.6,0.2
			c-0.2,0-0.4-0.1-0.6-0.2c-0.2-0.1-0.3-0.4-0.3-0.7c0-0.9,0-1.7,0-2.6c0-0.9,0-1.8,0-2.7v-5.3c0.1-0.3,0.2-0.5,0.4-0.6
			c0.2-0.1,0.4-0.2,0.6-0.2c0.2,0,0.4,0.1,0.7,0.3l0.6,0.7c1,1.2,2,2.4,2.9,3.5c0.9,1.1,1.8,2.4,2.7,3.7c0-1.3,0.1-2.6,0.1-3.8
			C130.2,28.1,130.2,26.9,130.2,25.5L130.2,25.5z"/>
		<path class="st1" d="M141.8,25.5c0.1-0.3,0.2-0.5,0.4-0.6c0.2-0.1,0.4-0.2,0.6-0.2c0.2,0,0.4,0.1,0.6,0.2c0.2,0.1,0.3,0.3,0.4,0.6
			c0,1.8,0,3.6,0,5.3c0,1.7-0.1,3.5-0.2,5.4c0,0.1,0,0.1,0,0.1s0,0.1,0,0.1c-0.1,0.2-0.2,0.4-0.4,0.6c-0.2,0.1-0.3,0.2-0.5,0.2
			c-0.3,0-0.6-0.1-0.9-0.4l-0.1-0.2c-0.4-0.7-0.9-1.5-1.4-2.1c-0.5-0.7-0.9-1.4-1.4-2c-0.5-0.6-1-1.3-1.5-1.9
			c-0.5-0.6-1-1.3-1.5-1.9v3.3c0,0.7,0,1.4,0,2.1c0,0.7,0,1.5,0,2.4c0,0.3-0.1,0.6-0.3,0.7c-0.2,0.2-0.4,0.2-0.6,0.2
			c-0.2,0-0.4-0.1-0.6-0.2c-0.2-0.1-0.3-0.4-0.3-0.7c0-0.9,0-1.7,0-2.6c0-0.9,0-1.8,0-2.7v-5.3c0.1-0.3,0.2-0.5,0.4-0.6
			c0.2-0.1,0.4-0.2,0.6-0.2c0.2,0,0.4,0.1,0.7,0.3l0.6,0.7c1,1.2,2,2.4,2.9,3.5s1.8,2.4,2.7,3.7c0-1.3,0.1-2.6,0.1-3.8
			C141.8,28.1,141.8,26.9,141.8,25.5L141.8,25.5z"/>
		<path class="st1" d="M149.5,35.1c0.1,0,0.3,0,0.4,0c0.1,0,0.2,0,0.4,0h0.1c0.4,0,0.7,0.1,0.9,0.2s0.3,0.4,0.3,0.6
			c0,0.2-0.1,0.4-0.2,0.5c-0.1,0.2-0.4,0.3-0.7,0.3c-0.2,0-0.5,0-0.7,0s-0.5,0-0.7,0h-2.6c-0.3-0.1-0.6-0.2-0.7-0.3
			c-0.2-0.2-0.2-0.3-0.2-0.5c0-0.2,0.1-0.4,0.3-0.6c0.2-0.2,0.4-0.3,0.8-0.3c0.2,0,0.4,0,0.5,0c0.1,0,0.3,0,0.5,0v-8.2h-1.1
			c-0.3-0.1-0.6-0.2-0.7-0.3c-0.2-0.2-0.2-0.4-0.2-0.6s0.1-0.4,0.3-0.5c0.2-0.2,0.4-0.3,0.8-0.3h4c0.3,0.1,0.5,0.2,0.6,0.4
			s0.2,0.3,0.2,0.5c0,0.2-0.1,0.4-0.2,0.5c-0.1,0.2-0.4,0.3-0.7,0.3h-1V35.1z"/>
		<path class="st1" d="M161.1,25.5c0.1-0.3,0.2-0.5,0.4-0.6c0.2-0.1,0.4-0.2,0.6-0.2c0.2,0,0.4,0.1,0.6,0.2c0.2,0.1,0.3,0.3,0.4,0.6
			c0,1.8,0,3.6,0,5.3c0,1.7-0.1,3.5-0.2,5.4c0,0.1,0,0.1,0,0.1s0,0.1,0,0.1c-0.1,0.2-0.2,0.4-0.4,0.6c-0.2,0.1-0.3,0.2-0.5,0.2
			c-0.3,0-0.6-0.1-0.9-0.4l-0.1-0.2c-0.4-0.7-0.9-1.5-1.4-2.1c-0.5-0.7-0.9-1.4-1.4-2c-0.5-0.6-1-1.3-1.5-1.9
			c-0.5-0.6-1-1.3-1.5-1.9v3.3c0,0.7,0,1.4,0,2.1c0,0.7,0,1.5,0,2.4c0,0.3-0.1,0.6-0.3,0.7c-0.2,0.2-0.4,0.2-0.6,0.2
			c-0.2,0-0.4-0.1-0.6-0.2c-0.2-0.1-0.3-0.4-0.3-0.7c0-0.9,0-1.7,0-2.6c0-0.9,0-1.8,0-2.7v-5.3c0.1-0.3,0.2-0.5,0.4-0.6
			c0.2-0.1,0.4-0.2,0.6-0.2c0.2,0,0.4,0.1,0.7,0.3l0.6,0.7c1,1.2,2,2.4,2.9,3.5s1.8,2.4,2.7,3.7c0-1.3,0.1-2.6,0.1-3.8
			C161.1,28.1,161.1,26.9,161.1,25.5L161.1,25.5z"/>
		<path class="st1" d="M174.3,30.3c0.3,0.1,0.5,0.2,0.6,0.3c0.1,0.2,0.2,0.3,0.2,0.5c0,0.2,0,0.3-0.1,0.4c-0.1,0.1-0.2,0.2-0.4,0.3
			v2.8c0,0.2-0.1,0.5-0.2,0.7c-0.2,0.2-0.3,0.4-0.5,0.5l-0.2,0.1c-0.4,0.4-0.9,0.7-1.5,0.9c-0.6,0.2-1.2,0.3-1.8,0.3
			c-1,0-1.8-0.2-2.5-0.6s-1.3-0.9-1.8-1.5c-0.5-0.6-0.8-1.3-1.1-2c-0.2-0.7-0.4-1.4-0.4-2c0-0.4,0-0.8,0.1-1.2
			c0.1-0.4,0.2-0.9,0.4-1.3c0.2-0.4,0.4-0.8,0.7-1.2c0.3-0.4,0.6-0.7,1-1c0.7-0.4,1.4-0.8,2.2-1.1c0.7-0.3,1.5-0.4,2.3-0.4
			c0.2,0,0.5,0,0.8,0.1c0.3,0,0.6,0.1,1,0.2c0.3,0.1,0.6,0.2,0.8,0.4s0.3,0.4,0.3,0.7c0,0.2-0.1,0.4-0.3,0.6
			c-0.2,0.2-0.4,0.2-0.7,0.2c-0.1,0-0.3,0-0.4,0s-0.3-0.1-0.4-0.1c-0.2-0.1-0.4-0.1-0.6-0.2s-0.4-0.1-0.5-0.1c-0.1,0-0.2,0-0.3,0
			c-0.1,0-0.2,0-0.3,0.1c-0.5,0.2-1,0.3-1.5,0.5c-0.5,0.2-0.9,0.5-1.3,0.8s-0.7,0.8-1,1.3c-0.3,0.5-0.4,1.1-0.4,1.9
			c0,0.6,0.1,1.2,0.3,1.7c0.2,0.5,0.5,1,0.8,1.4c0.3,0.4,0.7,0.7,1.2,0.9s0.9,0.3,1.4,0.3c0.4,0,0.8-0.1,1.2-0.2
			c0.4-0.2,0.8-0.4,1.1-0.8V32c-0.5,0-0.9,0-1.4,0c-0.5,0-0.9,0-1.4,0c-0.3-0.1-0.6-0.2-0.7-0.3c-0.2-0.2-0.2-0.3-0.2-0.5
			s0.1-0.4,0.3-0.6c0.2-0.2,0.4-0.3,0.8-0.3h2.1c0.5,0,0.9,0,1.3,0S174.1,30.3,174.3,30.3L174.3,30.3z"/>
	</g>
	<circle class="st2" cx="228.3" cy="28.5" r="21.1"/>
	<polygon class="st1" points="220.4,29.3 220.4,17.5 230.6,23.4 240.9,29.3 230.6,35.2 220.4,41.1 	"/>
</g>
</svg>
