<?xml version="1.0" encoding="utf-8"?>
<!-- Generator: Adobe Illustrator 23.0.1, SVG Export Plug-In . SVG Version: 6.00 Build 0)  -->
<svg version="1.1" id="レイヤー_1" xmlns="http://www.w3.org/2000/svg" xmlns:xlink="http://www.w3.org/1999/xlink" x="0px"
	 y="0px" viewBox="0 0 377.4 19.1" style="enable-background:new 0 0 377.4 19.1;" xml:space="preserve">
<style type="text/css">
	.st0{fill:#FFFFFF;}
</style>
<g>
	<path class="st0" d="M11.2,12.7c0,0.8,0,0.9,1.4,0.9c0.1,0,0.1,0.1,0.1,0.1c0,0.1,0,0.1-0.1,0.1c-0.1,0-0.2,0-0.5,0
		c-0.6,0-1.3-0.1-1.9-0.1s-1.3,0-1.9,0.1c-0.3,0-0.4,0-0.5,0c-0.1,0-0.1-0.1-0.1-0.1c0-0.1,0.1-0.1,0.1-0.1c1.4-0.1,1.4-0.1,1.4-0.9
		V8.6h-5v4.1c0,0.8,0,0.9,1.4,0.9c0.1,0,0.1,0.1,0.1,0.1c0,0.1,0,0.1-0.1,0.1c-0.1,0-0.2,0-0.5,0c-0.6,0-1.3-0.1-1.9-0.1
		s-1.3,0-1.9,0.1c-0.3,0-0.4,0-0.5,0C1,14,1,13.9,1,13.8c0-0.1,0.1-0.1,0.1-0.1c1.4-0.1,1.4-0.1,1.4-0.9V4.6c0-0.8,0-0.9-1.4-0.9
		C1.1,3.6,1,3.6,1,3.5c0-0.1,0-0.1,0.1-0.1c0.1,0,0.2,0,0.5,0c0.6,0,1.3,0.1,1.9,0.1s1.3,0,1.9-0.1c0.3,0,0.4,0,0.5,0
		C5.9,3.3,6,3.4,6,3.5c0,0.1-0.1,0.1-0.1,0.1C4.4,3.7,4.4,3.7,4.4,4.6v3.7h5V4.6c0-0.8,0-0.9-1.4-0.9c-0.1,0-0.1-0.1-0.1-0.1
		c0-0.1,0-0.1,0.1-0.1c0.1,0,0.2,0,0.5,0c0.6,0,1.3,0.1,1.9,0.1s1.3,0,1.9-0.1c0.3,0,0.4,0,0.5,0c0.1,0,0.1,0.1,0.1,0.1
		c0,0.1-0.1,0.1-0.1,0.1c-1.4,0.1-1.4,0.1-1.4,0.9V12.7z"/>
	<path class="st0" d="M15.4,9.4c0,0.3,0,0.5,0,0.8c0,1.3,0.2,2.5,0.8,3.1c0.3,0.3,0.7,0.5,1.2,0.5c1.5,0,2.2-1.1,2.5-1.6
		c0-0.1,0.1-0.1,0.1-0.1c0.1,0,0.2,0.1,0.2,0.1c0,0,0,0.1,0,0.1c-0.5,0.9-1.4,1.8-3,1.8c-1.6,0-3.6-1.2-3.6-3.6c0-2.6,2-4.1,3.7-4.1
		c1.8,0,3,1.2,3,2.8v0.2H15.4z M18,9.1c0.3,0,0.4-0.1,0.4-0.4c0-0.6-0.2-1.3-0.4-1.6c-0.2-0.3-0.6-0.4-0.9-0.4c-0.4,0-0.7,0.1-1,0.5
		c-0.3,0.4-0.5,1.1-0.6,2H18z"/>
	<path class="st0" d="M21.5,7c-0.1,0-0.2-0.1-0.2-0.1s0.1-0.1,0.2-0.1c1.1,0,2-0.1,2.5-0.2c0,0,0.1,0,0.2,0c0.1,0,0.2,0.1,0.2,0.2
		c0,0.1,0,0.1,0,0.3c0,0.2-0.1,0.8-0.1,1.5v6.4c0,2.1-1.2,3.2-3,3.2c-0.9,0-1.7-0.7-1.7-1.2c0-0.5,0.3-0.8,0.8-0.8
		c0.3,0,0.7,0.2,0.7,0.7c0,0.2-0.1,0.3-0.1,0.4s-0.1,0.2-0.1,0.3c0,0.3,0.2,0.4,0.5,0.4c0.4,0,1-0.4,1-1.9V8.1c0-1,0-1.2-0.6-1.2
		H21.5z M22.3,3.7c0-0.6,0.5-1,1.1-1c0.6,0,1,0.5,1,1s-0.5,1-1,1C22.8,4.8,22.3,4.3,22.3,3.7z"/>
	<path class="st0" d="M28.8,4.3c0,0.5-0.1,1.1-0.3,1.8c-0.3,1.2-0.7,2.7-0.7,4.8c0,0.1,0,0.2-0.1,0.2s-0.1-0.1-0.1-0.2
		c0-2.1-0.4-3.6-0.7-4.8c-0.2-0.7-0.3-1.3-0.3-1.8c0-0.6,0.5-1.1,1.1-1.1S28.8,3.7,28.8,4.3z M28.7,13.2c0,0.5-0.4,0.9-0.9,0.9
		s-0.9-0.4-0.9-0.9c0-0.5,0.4-0.9,0.9-0.9S28.7,12.7,28.7,13.2z"/>
	<path class="st0" d="M45.9,5.6c0.1-0.5,0.2-0.8,0.2-1.1c0-0.7-0.5-0.8-1.7-0.9c-0.1,0-0.1-0.1-0.1-0.2c0-0.1,0.1-0.1,0.1-0.1
		c0.1,0,0.4,0,0.7,0c0.3,0,0.7,0,1.1,0c0.4,0,0.7,0,1,0c0.3,0,0.5,0,0.7,0c0.1,0,0.1,0.1,0.1,0.1s0,0.1-0.1,0.1c-1,0.1-1.2,0.5-2,3
		L43.9,14h-0.7l-2.7-8L38,14h-0.7l-2.6-8.5c-0.5-1.6-0.7-1.8-1.6-1.9C33,3.6,33,3.6,33,3.5s0-0.1,0.2-0.1c0.1,0,0.1,0,0.4,0
		c0.8,0,1.3,0.1,1.8,0.1c0.4,0,1.5,0,2,0c0.5,0,0.7,0,0.9,0c0.1,0,0.2,0.1,0.2,0.1s-0.1,0.2-0.2,0.2c-1.3,0-1.7,0.2-1.7,0.7
		c0,0.2,0,0.4,0.1,0.6l1.9,6.6l2.5-8h0.8l2.6,8L45.9,5.6z"/>
	<path class="st0" d="M49.7,9.4c0,0.3,0,0.5,0,0.8c0,1.3,0.2,2.5,0.8,3.1c0.3,0.3,0.7,0.5,1.2,0.5c1.5,0,2.2-1.1,2.5-1.6
		c0-0.1,0.1-0.1,0.1-0.1c0.1,0,0.2,0.1,0.2,0.1c0,0,0,0.1,0,0.1c-0.5,0.9-1.4,1.8-3,1.8c-1.6,0-3.6-1.2-3.6-3.6c0-2.6,2-4.1,3.7-4.1
		c1.8,0,3,1.2,3,2.8v0.2H49.7z M52.3,9.1c0.3,0,0.4-0.1,0.4-0.4c0-0.6-0.2-1.3-0.4-1.6c-0.2-0.3-0.6-0.4-0.9-0.4
		c-0.4,0-0.7,0.1-1,0.5c-0.3,0.4-0.5,1.1-0.6,2H52.3z"/>
	<path class="st0" d="M55.9,2.9c-0.1,0-0.1-0.1-0.1-0.1s0-0.1,0.1-0.1c1.2-0.1,1.6-0.2,2.4-0.5c0.1,0,0.1,0,0.1,0
		c0.1,0,0.2,0.1,0.2,0.2c0,0.1,0,0.1,0,0.6c0,0.5,0,0.8,0,1.6v8.3c0,1,0,1,1,1c0.1,0,0.2,0.1,0.2,0.1s0,0.1-0.2,0.1
		c-0.1,0-0.5,0-0.9,0c-0.4,0-0.8,0-1,0s-0.6,0-0.9,0c-0.4,0-0.7,0-1,0c-0.1,0-0.2-0.1-0.2-0.1s0.1-0.1,0.2-0.1c1,0,1,0,1-1V4.2
		c0-1.3,0-1.3-0.7-1.3H55.9z"/>
	<path class="st0" d="M66.7,7.2c0.3,0.3,0.4,0.7,0.4,1c0,0.7-0.3,1.2-1,1.2c-0.5,0-0.8-0.3-0.8-0.8c0-0.5,0.3-0.8,0.8-0.8
		c0.1,0,0.2-0.1,0.2-0.2c0-0.5-0.6-1-1.4-1c-0.6,0-0.9,0.2-1.3,0.6c-0.6,0.6-0.8,1.9-0.8,3c0,1.6,0.3,2.6,1,3.1
		c0.3,0.3,0.6,0.4,1.1,0.4c1,0,1.7-0.5,2.3-1.8c0-0.1,0.1-0.1,0.1-0.1c0.1,0,0.2,0.1,0.2,0.2c0,0,0,0.1,0,0.1c-0.6,1.4-1.5,2-2.8,2
		c-2.2,0-3.7-1.4-3.7-3.6c0-2.6,1.8-4.1,3.9-4.1C65.5,6.4,66.2,6.7,66.7,7.2z"/>
	<path class="st0" d="M75.9,10.3c0,2.3-2,3.9-3.8,3.9s-3.8-1.5-3.8-3.9c0-2.3,2-3.9,3.8-3.9S75.9,7.9,75.9,10.3z M74,10.3
		c0-0.7-0.1-1.7-0.4-2.5c-0.2-0.5-0.7-1-1.4-1s-1.2,0.5-1.4,1c-0.4,0.8-0.4,1.9-0.4,2.5s0.1,1.7,0.4,2.5c0.2,0.5,0.7,1,1.4,1
		s1.2-0.5,1.4-1C73.9,12,74,10.9,74,10.3z"/>
	<path class="st0" d="M89.8,12.7c0,1,0.1,1,0.9,1c0.1,0,0.2,0.1,0.2,0.1S90.8,14,90.7,14c-0.2,0-0.6,0-0.9,0c-0.3,0-0.7,0-0.9,0
		s-0.6,0-0.9,0s-0.7,0-0.9,0c-0.1,0-0.2-0.1-0.2-0.1s0.1-0.1,0.2-0.1c0.8-0.1,0.9-0.1,0.9-1V9c0-1.5-0.5-2.2-1.5-2.2
		c-0.9,0-1.7,0.9-1.7,2.3v3.5c0,0.9,0.1,1,0.9,1c0.1,0,0.2,0.1,0.2,0.1S85.7,14,85.6,14c-0.2,0-0.6,0-0.9,0c-0.3,0-0.7,0-0.9,0
		s-0.6,0-0.9,0s-0.7,0-0.9,0c-0.1,0-0.2-0.1-0.2-0.1s0.1-0.1,0.2-0.1c0.8-0.1,0.9-0.1,0.9-1V9c0-1.5-0.5-2.2-1.5-2.2
		c-0.9,0-1.7,0.9-1.7,2.3v3.5c0,0.9,0,1,1,1c0.1,0,0.2,0.1,0.2,0.1s0,0.1-0.2,0.1c-0.1,0-0.5,0-1,0c-0.4,0-0.8,0-1,0s-0.6,0-0.9,0
		c-0.4,0-0.7,0-0.9,0c-0.1,0-0.2-0.1-0.2-0.1s0.1-0.1,0.2-0.1c0.8-0.1,0.9-0.1,0.9-1V8.1c0-1,0-1.2-0.6-1.2h-0.2
		c-0.1,0-0.2-0.1-0.2-0.1s0.1-0.1,0.2-0.1c1.1,0,1.8,0,2.3-0.2c0,0,0.1,0,0.1,0c0.1,0,0.2,0.1,0.2,0.2c0,0.1,0,0.3-0.1,0.5
		c-0.1,0.3-0.1,0.9-0.2,1.4h0.1c0.2-1.3,1.2-2.1,2.7-2.1c1.2,0,2.1,0.6,2.4,1.7C85,7,85.8,6.4,87.2,6.4c1.5,0,2.5,0.9,2.5,2.6V12.7z
		"/>
	<path class="st0" d="M93.6,9.4c0,0.3,0,0.5,0,0.8c0,1.3,0.2,2.5,0.8,3.1c0.3,0.3,0.7,0.5,1.2,0.5c1.5,0,2.2-1.1,2.5-1.6
		c0-0.1,0.1-0.1,0.1-0.1c0.1,0,0.2,0.1,0.2,0.1c0,0,0,0.1,0,0.1c-0.5,0.9-1.4,1.8-3,1.8c-1.6,0-3.6-1.2-3.6-3.6c0-2.6,2-4.1,3.7-4.1
		c1.8,0,3,1.2,3,2.8v0.2H93.6z M96.2,9.1c0.3,0,0.4-0.1,0.4-0.4c0-0.6-0.2-1.3-0.4-1.6c-0.2-0.3-0.6-0.4-0.9-0.4
		c-0.4,0-0.7,0.1-1,0.5c-0.3,0.4-0.5,1.1-0.6,2H96.2z"/>
	<path class="st0" d="M105.4,12c0,1.2,0.4,1.5,1,1.5c0.5,0,1-0.4,1.2-1.3c0-0.1,0.1-0.1,0.1-0.1c0.1,0,0.1,0.1,0.1,0.1
		c0,0.1-0.4,1.9-2.1,1.9c-1.2,0-2.2-0.6-2.2-2.1v-4c0-0.8-0.1-1-0.7-1h-0.5c-0.1,0-0.1-0.1-0.1-0.1s0-0.1,0.1-0.1h0.2
		c1,0,2.1-0.7,2.4-2.4c0-0.1,0.1-0.1,0.1-0.1c0.1,0,0.1,0.1,0.1,0.2v2.4h2c0.1,0,0.2,0.1,0.2,0.1c0,0.1-0.1,0.2-0.2,0.2h-2V12z"/>
	<path class="st0" d="M116.2,10.3c0,2.3-2,3.9-3.8,3.9s-3.8-1.5-3.8-3.9c0-2.3,2-3.9,3.8-3.9S116.2,7.9,116.2,10.3z M114.3,10.3
		c0-0.7-0.1-1.7-0.4-2.5c-0.2-0.5-0.7-1-1.4-1s-1.2,0.5-1.4,1c-0.4,0.8-0.4,1.9-0.4,2.5s0.1,1.7,0.4,2.5c0.2,0.5,0.7,1,1.4,1
		s1.2-0.5,1.4-1C114.2,12,114.3,10.9,114.3,10.3z"/>
	<path class="st0" d="M126.7,12.5c0,0.7,0.2,0.8,0.5,0.8c0.3,0,0.6-0.3,0.8-1.2c0-0.1,0.1-0.1,0.1-0.1c0.1,0,0.1,0.1,0.1,0.1l0,0.1
		c-0.2,1.1-0.8,1.7-1.9,1.7c-0.8,0-1.3-0.4-1.3-1.4H125c-0.4,1.1-1.2,1.5-2.3,1.5c-1.1,0-2-0.5-2-1.7c0-1.3,1.3-2,4.3-2.3V8.7
		c0-1.6-0.7-2-1.5-2c-0.8,0-1.3,0.5-1.3,0.8c0,0.1,0.1,0.2,0.2,0.2c0.3,0.1,0.6,0.2,0.6,0.8c0,0.4-0.3,0.8-1,0.8
		c-0.5,0-0.9-0.4-0.9-0.9c0-1.1,1.4-2,2.8-2c1.8,0,2.8,0.9,2.8,3V12.5z M124.9,10.3c-1.8,0.2-2.6,0.8-2.6,2c0,0.6,0.4,1.2,1.1,1.2
		c0.8,0,1.5-0.7,1.5-1.8V10.3z"/>
	<path class="st0" d="M141.9,8.7c0.2-0.5,0.2-0.8,0.2-1.1c0-0.5-0.3-0.6-1.1-0.7c-0.1,0-0.2-0.1-0.2-0.1c0-0.1,0.1-0.1,0.2-0.1
		c0.1,0,0.1,0,0.5,0s0.9,0,1.1,0c0.2,0,0.4,0,0.6,0c0.3,0,0.4,0,0.5,0s0.2,0.1,0.2,0.1s-0.1,0.1-0.2,0.2c-0.7,0.1-0.9,0.1-1.4,1.7
		l-1.8,5.3h-0.4l-2.4-5.2l-2.2,5.2h-0.4l-2.2-5.7c-0.5-1.2-0.6-1.3-1.3-1.3c-0.1,0-0.1-0.1-0.1-0.1c0-0.1,0-0.1,0.1-0.1
		c0.2,0,0.2,0,0.6,0c0.5,0,0.9,0,1.4,0c0.5,0,1,0,1.4,0c0.4,0,0.7,0,0.9,0c0.1,0,0.2,0.1,0.2,0.1c0,0.1,0,0.1-0.2,0.1
		c-0.8,0-1.1,0.2-1.1,0.7c0,0.2,0.1,0.5,0.2,0.8l1.2,3.3l2.1-5.1h0.5l2.2,5.1L141.9,8.7z"/>
	<path class="st0" d="M151.5,10.3c0,2.3-2,3.9-3.8,3.9s-3.8-1.5-3.8-3.9c0-2.3,2-3.9,3.8-3.9S151.5,7.9,151.5,10.3z M149.6,10.3
		c0-0.7-0.1-1.7-0.4-2.5c-0.2-0.5-0.7-1-1.4-1s-1.2,0.5-1.4,1c-0.4,0.8-0.4,1.9-0.4,2.5s0.1,1.7,0.4,2.5c0.2,0.5,0.7,1,1.4,1
		s1.2-0.5,1.4-1C149.5,12,149.6,10.9,149.6,10.3z"/>
	<path class="st0" d="M155.2,8.5c0.3-1.3,1-2.1,2.1-2.1c0.8,0,1.3,0.5,1.3,1.1c0,0.7-0.4,1.1-1,1.1c-0.6,0-0.9-0.4-0.9-0.8
		c0-0.4,0.3-0.8,0.6-0.8c0.1,0,0.1-0.1,0.1-0.1c0,0-0.1-0.1-0.2-0.1c-1,0-1.9,1-1.9,3v3c0,0.9,0,1,1.3,1c0.1,0,0.2,0.1,0.2,0.1
		s0,0.1-0.2,0.1c-0.4,0-0.8,0-1.2,0c-0.4,0-0.8,0-1,0s-0.6,0-0.9,0c-0.4,0-0.7,0-0.9,0c-0.1,0-0.2-0.1-0.2-0.1s0.1-0.1,0.2-0.1
		c0.8-0.1,0.9-0.1,0.9-1V8c0-1-0.1-1-0.7-1h-0.2c-0.1,0-0.2-0.1-0.2-0.1s0.1-0.1,0.2-0.1c1.1,0,1.9-0.1,2.4-0.2c0.1,0,0.1,0,0.1,0
		c0.1,0,0.2,0.1,0.2,0.2c0,0.1,0,0.3-0.1,0.5c-0.1,0.3-0.1,0.9-0.2,1.4H155.2z"/>
	<path class="st0" d="M159.1,2.9c-0.1,0-0.1-0.1-0.1-0.1s0-0.1,0.1-0.1c1.2-0.1,1.6-0.2,2.4-0.5c0.1,0,0.1,0,0.1,0
		c0.1,0,0.2,0.1,0.2,0.2c0,0.1,0,0.1,0,0.6c0,0.5,0,0.8,0,1.6v8.3c0,1,0,1,1,1c0.1,0,0.2,0.1,0.2,0.1s0,0.1-0.2,0.1
		c-0.1,0-0.5,0-0.9,0c-0.4,0-0.8,0-1,0s-0.6,0-0.9,0c-0.4,0-0.7,0-1,0c-0.1,0-0.2-0.1-0.2-0.1s0.1-0.1,0.2-0.1c1,0,1,0,1-1V4.2
		c0-1.3,0-1.3-0.7-1.3H159.1z"/>
	<path class="st0" d="M171.3,12c0,1.3,0.2,1.7,1.2,1.7c0.1,0,0.2,0.1,0.2,0.1s-0.1,0.1-0.2,0.1h-2.3c-0.4,0-0.6-0.2-0.6-0.6
		c0-0.4,0.1-0.8,0.2-1.5h0c-0.4,1.5-1.2,2.2-2.4,2.2c-2,0-3.4-1.5-3.4-3.6c0-2.4,1.7-4.1,3.6-4.1c0.7,0,1.6,0.3,2,1.3h0.1
		c-0.1-0.8-0.1-1.5-0.1-2.5c0-2.3,0-2.4-0.7-2.4h-0.5c-0.1,0-0.1-0.1-0.1-0.1c0-0.1,0-0.1,0.2-0.1c1.1-0.1,2.1-0.2,2.8-0.5
		c0,0,0.1,0,0.1,0c0.1,0,0.2,0.1,0.2,0.2c0,0.1,0,0.1,0,0.6c0,0.5,0,0.8,0,1.6V12z M169.6,9.7c0-2.4-1-3.1-2-3.1
		c-1.2,0-1.8,1.3-1.8,3.7c0,1.7,0.5,3.3,1.8,3.3c1,0,2-1.1,2-3.5V9.7z"/>
	<path class="st0" d="M184.2,10.3c0,2.3-2,3.9-3.8,3.9s-3.8-1.5-3.8-3.9c0-2.3,2-3.9,3.8-3.9S184.2,7.9,184.2,10.3z M182.2,10.3
		c0-0.7-0.1-1.7-0.4-2.5c-0.2-0.5-0.7-1-1.4-1s-1.2,0.5-1.4,1c-0.4,0.8-0.4,1.9-0.4,2.5s0.1,1.7,0.4,2.5c0.2,0.5,0.7,1,1.4,1
		s1.2-0.5,1.4-1C182.2,12,182.2,10.9,182.2,10.3z"/>
	<path class="st0" d="M186.3,6c0-2.4,1-4,3.1-4c1,0,2,0.6,2,1.5c0,0.8-0.4,1-0.9,1c-0.6,0-0.9-0.4-0.9-0.8c0-0.5,0.4-0.8,0.8-0.8
		c0.1,0,0.2,0,0.2-0.1c0-0.2-0.5-0.5-0.9-0.5c-1.1,0-1.6,0.7-1.6,2.5v1.8h2c0.1,0,0.2,0.1,0.2,0.1S190.1,7,190,7h-2v5.6
		c0,1,0,1,1.3,1.1c0.1,0,0.2,0.1,0.2,0.1s0,0.1-0.2,0.1c-0.1,0-0.6,0-1,0c-0.4,0-0.9,0-1.2,0c-0.2,0-0.8,0-1.4,0.1
		c-0.2,0-0.3,0-0.4,0c-0.1,0-0.2-0.1-0.2-0.1s0.1-0.1,0.2-0.1c0.8,0,0.9,0,0.9-1V7h-1.1C185,7,185,6.9,185,6.8s0.1-0.1,0.2-0.1h1.1
		V6z"/>
	<path class="st0" d="M193.9,7c-0.1,0-0.2-0.1-0.2-0.1s0.1-0.1,0.2-0.1c1.1,0,1.9-0.1,2.4-0.2c0,0,0.1,0,0.2,0
		c0.1,0,0.2,0.1,0.2,0.2c0,0.1,0,0.1,0,0.3c0,0.2-0.1,0.8-0.1,1.5v4.1c0,1,0,1,1,1.1c0.1,0,0.2,0.1,0.2,0.1s-0.1,0.1-0.2,0.1
		c-0.1,0-0.5,0-0.9,0c-0.4,0-0.8,0-1,0c-0.2,0-0.6,0-0.9,0c-0.4,0-0.8,0-1,0c-0.1,0-0.1-0.1-0.1-0.1s0-0.1,0.1-0.1
		c1-0.1,1-0.1,1-1.1V8.1c0-1,0-1.2-0.6-1.2H193.9z M196.7,3.7c0,0.6-0.5,1-1,1c-0.6,0-1.1-0.5-1.1-1s0.5-1,1.1-1
		C196.2,2.7,196.7,3.1,196.7,3.7z"/>
	<path class="st0" d="M206.4,12.7c0,1,0.1,1,0.9,1c0.1,0,0.2,0.1,0.2,0.1s-0.1,0.1-0.2,0.1c-0.2,0-0.6,0-0.9,0c-0.3,0-0.7,0-0.9,0
		s-0.6,0-0.9,0s-0.7,0-0.9,0c-0.1,0-0.2-0.1-0.2-0.1s0.1-0.1,0.2-0.1c0.8-0.1,0.9-0.1,0.9-1V9c0-1.5-0.5-2.2-1.5-2.2
		c-0.9,0-1.7,0.9-1.7,2.3v3.5c0,0.9,0,1,1,1c0.1,0,0.2,0.1,0.2,0.1s0,0.1-0.2,0.1c-0.1,0-0.5,0-1,0c-0.4,0-0.8,0-1,0s-0.6,0-0.9,0
		c-0.4,0-0.7,0-0.9,0c-0.1,0-0.2-0.1-0.2-0.1s0.1-0.1,0.2-0.1c0.8-0.1,0.9-0.1,0.9-1V8.1c0-1,0-1.2-0.6-1.2h-0.2
		c-0.1,0-0.2-0.1-0.2-0.1s0.1-0.1,0.2-0.1c1.1,0,1.8,0,2.3-0.2c0,0,0.1,0,0.1,0c0.1,0,0.2,0.1,0.2,0.2c0,0.1,0,0.3-0.1,0.5
		c-0.1,0.3-0.1,0.9-0.2,1.4h0.1c0.2-1.3,1.2-2.1,2.7-2.1c1.5,0,2.5,0.9,2.5,2.6V12.7z"/>
	<path class="st0" d="M213.5,7c-0.1,0.4-0.1,1-0.1,1.6c0,0.1-0.1,0.2-0.1,0.2s-0.1,0-0.1-0.1c-0.1-1-0.6-2-1.8-2
		c-0.8,0-1.3,0.6-1.3,1.3c0,1,0.9,1.3,1.8,1.6c1,0.4,2.2,0.8,2.2,2.1c0,1.4-1.2,2.4-2.8,2.4c-0.8,0-1.4-0.1-2.1-0.5
		c-0.1,0-0.1-0.1-0.2-0.1c-0.1,0-0.2,0.1-0.2,0.4c0,0.1-0.1,0.1-0.2,0.1c-0.1,0-0.1,0-0.1-0.1c0,0,0-0.1,0-0.3
		c0.1-0.7,0.2-1.4,0.2-2.5c0-0.1,0.1-0.1,0.1-0.1s0.1,0,0.1,0.1c0.2,2.2,1.3,2.6,2.3,2.6c0.9,0,1.4-0.6,1.4-1.3
		c0-0.9-0.8-1.2-1.7-1.5c-1-0.4-2.2-0.8-2.2-2.3c0-1.4,1.1-2.3,2.7-2.3c0.4,0,0.8,0.1,1,0.2c0.2,0.1,0.4,0.1,0.6,0.1
		c0.1,0,0.2-0.1,0.3-0.2c0,0,0.1-0.1,0.1-0.1c0.1,0,0.1,0,0.1,0.1L213.5,7z"/>
	<path class="st0" d="M217.7,8.5c0.4-1.4,1.3-2.1,2.4-2.1c2,0,3.4,1.5,3.4,3.6c0,2.4-1.7,4.1-3.6,4.1c-0.8,0-1.8-0.3-2.2-1.7h-0.1
		c0.1,0.6,0.2,1.2,0.2,1.9v1.6c0,1.7,0.1,1.8,1.6,1.8c0.1,0,0.2,0.1,0.2,0.1s0,0.1-0.2,0.1c-0.1,0-0.6,0-1.2,0c-0.5,0-1.1,0-1.3,0
		s-0.6,0-1,0c-0.4,0-0.7,0-0.8,0c-0.1,0-0.2-0.1-0.2-0.1s0.1-0.1,0.2-0.1c0.8,0,0.9-0.1,0.9-1.1V8c0-0.9,0-1.1-0.8-1.1h-0.2
		c-0.1,0-0.2-0.1-0.2-0.1s0.1-0.1,0.2-0.1c1,0,1.7-0.1,2.4-0.2c0.2,0,0.3-0.1,0.4-0.1c0.1,0,0.2,0.1,0.2,0.2c0,0.1,0,0.2-0.1,0.5
		C217.7,7.6,217.7,7.9,217.7,8.5L217.7,8.5z M217.8,10.8c0,2.4,1,3.1,2,3.1c1.2,0,1.8-1.3,1.8-3.7c0-1.7-0.5-3.3-1.8-3.3
		c-1,0-2,1.1-2,3.5V10.8z"/>
	<path class="st0" d="M224.9,7c-0.1,0-0.2-0.1-0.2-0.1s0.1-0.1,0.2-0.1c1.1,0,1.9-0.1,2.4-0.2c0,0,0.1,0,0.2,0
		c0.1,0,0.2,0.1,0.2,0.2c0,0.1,0,0.1,0,0.3c0,0.2-0.1,0.8-0.1,1.5v4.1c0,1,0,1,1,1.1c0.1,0,0.2,0.1,0.2,0.1s-0.1,0.1-0.2,0.1
		c-0.1,0-0.5,0-0.9,0c-0.4,0-0.8,0-1,0c-0.2,0-0.6,0-0.9,0c-0.4,0-0.8,0-1,0c-0.1,0-0.1-0.1-0.1-0.1s0-0.1,0.1-0.1
		c1-0.1,1-0.1,1-1.1V8.1c0-1,0-1.2-0.6-1.2H224.9z M227.7,3.7c0,0.6-0.5,1-1,1c-0.6,0-1.1-0.5-1.1-1s0.5-1,1.1-1
		C227.3,2.7,227.7,3.1,227.7,3.7z"/>
	<path class="st0" d="M232.3,8.5c0.3-1.3,1-2.1,2.1-2.1c0.8,0,1.3,0.5,1.3,1.1c0,0.7-0.4,1.1-1,1.1c-0.6,0-0.9-0.4-0.9-0.8
		c0-0.4,0.3-0.8,0.6-0.8c0.1,0,0.1-0.1,0.1-0.1c0,0-0.1-0.1-0.2-0.1c-1,0-1.9,1-1.9,3v3c0,0.9,0,1,1.3,1c0.1,0,0.2,0.1,0.2,0.1
		s0,0.1-0.2,0.1c-0.4,0-0.8,0-1.2,0c-0.4,0-0.8,0-1,0s-0.6,0-0.9,0c-0.4,0-0.7,0-0.9,0c-0.1,0-0.2-0.1-0.2-0.1s0.1-0.1,0.2-0.1
		c0.8-0.1,0.9-0.1,0.9-1V8c0-1-0.1-1-0.7-1h-0.2c-0.1,0-0.2-0.1-0.2-0.1s0.1-0.1,0.2-0.1c1.1,0,1.9-0.1,2.4-0.2c0.1,0,0.1,0,0.1,0
		c0.1,0,0.2,0.1,0.2,0.2c0,0.1,0,0.3-0.1,0.5c-0.1,0.3-0.1,0.9-0.2,1.4H232.3z"/>
	<path class="st0" d="M242.3,12.5c0,0.7,0.2,0.8,0.5,0.8c0.3,0,0.6-0.3,0.8-1.2c0-0.1,0.1-0.1,0.1-0.1c0.1,0,0.1,0.1,0.1,0.1l0,0.1
		c-0.2,1.1-0.8,1.7-1.9,1.7c-0.8,0-1.3-0.4-1.3-1.4h-0.1c-0.4,1.1-1.2,1.5-2.3,1.5c-1.1,0-2-0.5-2-1.7c0-1.3,1.3-2,4.3-2.3V8.7
		c0-1.6-0.7-2-1.5-2c-0.8,0-1.3,0.5-1.3,0.8c0,0.1,0.1,0.2,0.2,0.2c0.3,0.1,0.6,0.2,0.6,0.8c0,0.4-0.3,0.8-1,0.8
		c-0.5,0-0.9-0.4-0.9-0.9c0-1.1,1.4-2,2.8-2c1.8,0,2.8,0.9,2.8,3V12.5z M240.5,10.3c-1.8,0.2-2.6,0.8-2.6,2c0,0.6,0.4,1.2,1.1,1.2
		c0.8,0,1.5-0.7,1.5-1.8V10.3z"/>
	<path class="st0" d="M247,12c0,1.2,0.4,1.5,1,1.5c0.5,0,1-0.4,1.2-1.3c0-0.1,0.1-0.1,0.1-0.1c0.1,0,0.1,0.1,0.1,0.1
		c0,0.1-0.4,1.9-2.1,1.9c-1.2,0-2.2-0.6-2.2-2.1v-4c0-0.8-0.1-1-0.7-1h-0.5C244,7,244,6.9,244,6.8s0-0.1,0.1-0.1h0.2
		c1,0,2.1-0.7,2.4-2.4c0-0.1,0.1-0.1,0.1-0.1c0.1,0,0.1,0.1,0.1,0.2v2.4h2c0.1,0,0.2,0.1,0.2,0.1c0,0.1-0.1,0.2-0.2,0.2h-2V12z"/>
	<path class="st0" d="M250.5,7c-0.1,0-0.2-0.1-0.2-0.1s0.1-0.1,0.2-0.1c1.1,0,1.9-0.1,2.4-0.2c0,0,0.1,0,0.2,0
		c0.1,0,0.2,0.1,0.2,0.2c0,0.1,0,0.1,0,0.3c0,0.2-0.1,0.8-0.1,1.5v4.1c0,1,0,1,1,1.1c0.1,0,0.2,0.1,0.2,0.1s-0.1,0.1-0.2,0.1
		c-0.1,0-0.5,0-0.9,0c-0.4,0-0.8,0-1,0c-0.2,0-0.6,0-0.9,0c-0.4,0-0.8,0-1,0c-0.1,0-0.1-0.1-0.1-0.1s0-0.1,0.1-0.1
		c1-0.1,1-0.1,1-1.1V8.1c0-1,0-1.2-0.6-1.2H250.5z M253.3,3.7c0,0.6-0.5,1-1,1c-0.6,0-1.1-0.5-1.1-1s0.5-1,1.1-1
		C252.8,2.7,253.3,3.1,253.3,3.7z"/>
	<path class="st0" d="M262.9,10.3c0,2.3-2,3.9-3.8,3.9s-3.8-1.5-3.8-3.9c0-2.3,2-3.9,3.8-3.9S262.9,7.9,262.9,10.3z M260.9,10.3
		c0-0.7-0.1-1.7-0.4-2.5c-0.2-0.5-0.7-1-1.4-1s-1.2,0.5-1.4,1c-0.4,0.8-0.4,1.9-0.4,2.5s0.1,1.7,0.4,2.5c0.2,0.5,0.7,1,1.4,1
		s1.2-0.5,1.4-1C260.9,12,260.9,10.9,260.9,10.3z"/>
	<path class="st0" d="M271.7,12.7c0,1,0.1,1,0.9,1c0.1,0,0.2,0.1,0.2,0.1s-0.1,0.1-0.2,0.1c-0.2,0-0.6,0-0.9,0c-0.3,0-0.7,0-0.9,0
		s-0.6,0-0.9,0s-0.7,0-0.9,0c-0.1,0-0.2-0.1-0.2-0.1s0.1-0.1,0.2-0.1c0.8-0.1,0.9-0.1,0.9-1V9c0-1.5-0.5-2.2-1.5-2.2
		c-0.9,0-1.7,0.9-1.7,2.3v3.5c0,0.9,0,1,1,1c0.1,0,0.2,0.1,0.2,0.1s0,0.1-0.2,0.1c-0.1,0-0.5,0-1,0c-0.4,0-0.8,0-1,0s-0.6,0-0.9,0
		c-0.4,0-0.7,0-0.9,0c-0.1,0-0.2-0.1-0.2-0.1s0.1-0.1,0.2-0.1c0.8-0.1,0.9-0.1,0.9-1V8.1c0-1,0-1.2-0.6-1.2h-0.2
		c-0.1,0-0.2-0.1-0.2-0.1s0.1-0.1,0.2-0.1c1.1,0,1.8,0,2.3-0.2c0,0,0.1,0,0.1,0c0.1,0,0.2,0.1,0.2,0.2c0,0.1,0,0.3-0.1,0.5
		c-0.1,0.3-0.1,0.9-0.2,1.4h0.1c0.2-1.3,1.2-2.1,2.7-2.1c1.5,0,2.5,0.9,2.5,2.6V12.7z"/>
	<path class="st0" d="M277.9,6c0-2.4,1-4,3.1-4c1,0,2,0.6,2,1.5c0,0.8-0.4,1-0.9,1c-0.6,0-0.9-0.4-0.9-0.8c0-0.5,0.4-0.8,0.8-0.8
		c0.1,0,0.2,0,0.2-0.1c0-0.2-0.5-0.5-0.9-0.5c-1.1,0-1.6,0.7-1.6,2.5v1.8h2c0.1,0,0.2,0.1,0.2,0.1S281.7,7,281.6,7h-2v5.6
		c0,1,0,1,1.3,1.1c0.1,0,0.2,0.1,0.2,0.1s0,0.1-0.2,0.1c-0.1,0-0.6,0-1,0c-0.4,0-0.9,0-1.2,0c-0.2,0-0.8,0-1.4,0.1
		c-0.2,0-0.3,0-0.4,0c-0.1,0-0.2-0.1-0.2-0.1s0.1-0.1,0.2-0.1c0.8,0,0.9,0,0.9-1V7h-1.1c-0.1,0-0.2-0.1-0.2-0.1s0.1-0.1,0.2-0.1h1.1
		V6z"/>
	<path class="st0" d="M289.5,10.3c0,2.3-2,3.9-3.8,3.9s-3.8-1.5-3.8-3.9c0-2.3,2-3.9,3.8-3.9S289.5,7.9,289.5,10.3z M287.5,10.3
		c0-0.7-0.1-1.7-0.4-2.5c-0.2-0.5-0.7-1-1.4-1s-1.2,0.5-1.4,1c-0.4,0.8-0.4,1.9-0.4,2.5s0.1,1.7,0.4,2.5c0.2,0.5,0.7,1,1.4,1
		s1.2-0.5,1.4-1C287.5,12,287.5,10.9,287.5,10.3z"/>
	<path class="st0" d="M293.1,8.5c0.3-1.3,1-2.1,2.1-2.1c0.8,0,1.3,0.5,1.3,1.1c0,0.7-0.4,1.1-1,1.1c-0.6,0-0.9-0.4-0.9-0.8
		c0-0.4,0.3-0.8,0.6-0.8c0.1,0,0.1-0.1,0.1-0.1c0,0-0.1-0.1-0.2-0.1c-1,0-1.9,1-1.9,3v3c0,0.9,0,1,1.3,1c0.1,0,0.2,0.1,0.2,0.1
		s0,0.1-0.2,0.1c-0.4,0-0.8,0-1.2,0c-0.4,0-0.8,0-1,0s-0.6,0-0.9,0c-0.4,0-0.7,0-0.9,0c-0.1,0-0.2-0.1-0.2-0.1s0.1-0.1,0.2-0.1
		c0.8-0.1,0.9-0.1,0.9-1V8c0-1-0.1-1-0.7-1h-0.2c-0.1,0-0.2-0.1-0.2-0.1s0.1-0.1,0.2-0.1c1.1,0,1.9-0.1,2.4-0.2c0.1,0,0.1,0,0.1,0
		c0.1,0,0.2,0.1,0.2,0.2c0,0.1,0,0.3-0.1,0.5c-0.1,0.3-0.1,0.9-0.2,1.4H293.1z"/>
	<path class="st0" d="M305.9,9.5c0.3-0.9,0.5-1.5,0.5-1.9c0-0.6-0.3-0.7-0.9-0.7c-0.1,0-0.2-0.1-0.2-0.1s0.1-0.1,0.2-0.1
		c0,0,0.2,0,0.4,0c0.3,0,0.5,0,1,0c0.2,0,0.5,0,0.8,0c0.1,0,0.3,0,0.4,0c0.1,0,0.1,0.1,0.1,0.1s0,0.1-0.1,0.1
		c-0.7,0.1-0.9,0.2-1.6,2.2l-1.9,5.4c-0.9,2.5-1.5,3.6-2.9,3.6c-0.8,0-1.3-0.4-1.3-1c0-0.6,0.4-1,0.9-1c0.6,0,0.8,0.4,0.8,0.8v0.3
		c0,0.1,0.1,0.2,0.2,0.2c0.5,0,0.9-0.5,1.6-2.3l-2.8-7.3C300.8,7.1,300.7,7,300,7c-0.1,0-0.1-0.1-0.1-0.1s0-0.1,0.1-0.1
		c0.1,0,0.2,0,0.4,0c0.4,0,1.1,0.1,1.6,0.1c0.4,0,0.9,0,1.4,0c0.3,0,0.6,0,0.7,0c0.1,0,0.2,0.1,0.2,0.1s0,0.1-0.2,0.1
		c-0.8,0-1.1,0.1-1.1,0.5c0,0.2,0.1,0.5,0.2,0.8l1.6,4.5L305.9,9.5z"/>
	<path class="st0" d="M315.8,10.3c0,2.3-2,3.9-3.8,3.9s-3.8-1.5-3.8-3.9c0-2.3,2-3.9,3.8-3.9S315.8,7.9,315.8,10.3z M313.9,10.3
		c0-0.7-0.1-1.7-0.4-2.5c-0.2-0.5-0.7-1-1.4-1s-1.2,0.5-1.4,1c-0.4,0.8-0.4,1.9-0.4,2.5s0.1,1.7,0.4,2.5c0.2,0.5,0.7,1,1.4,1
		s1.2-0.5,1.4-1C313.8,12,313.9,10.9,313.9,10.3z"/>
	<path class="st0" d="M324.8,12c0,1.3,0.2,1.6,1.2,1.6c0.1,0,0.2,0.1,0.2,0.1S326,14,325.9,14h-2.4c-0.4,0-0.5-0.2-0.5-0.6
		c0-0.3,0.1-1,0.1-1.2h-0.1c-0.3,1.2-1.2,2-2.7,2c-1.5,0-2.5-0.8-2.5-2.4v-4c0-0.4,0-0.7-0.6-0.7h-0.5c-0.1,0-0.2-0.1-0.2-0.1
		s0.1-0.1,0.2-0.1c0.9,0,1.8-0.1,2.4-0.2c0.2,0,0.4-0.1,0.5-0.1c0.1,0,0.1,0,0.1,0.1c0,0,0,0.1,0,0.3c-0.1,0.4-0.2,1.4-0.2,2v2.7
		c0,1.4,0.5,2.1,1.5,2.1c1.1,0,1.8-1,1.8-2.3V7.8c0-0.5,0-0.8-0.6-0.8h-0.8c-0.1,0-0.2-0.1-0.2-0.1s0.1-0.1,0.2-0.1
		c1.1,0,2.2,0,2.8-0.2c0.1,0,0.1,0,0.2,0c0.1,0,0.2,0,0.2,0.2c0,0.1,0,0.2,0,0.3c0,0.3-0.1,0.8-0.1,2.2V12z"/>
	<path class="st0" d="M329.4,8.5c0.3-1.3,1-2.1,2.1-2.1c0.8,0,1.3,0.5,1.3,1.1c0,0.7-0.4,1.1-1,1.1c-0.6,0-0.9-0.4-0.9-0.8
		c0-0.4,0.3-0.8,0.6-0.8c0.1,0,0.1-0.1,0.1-0.1c0,0-0.1-0.1-0.2-0.1c-1,0-1.9,1-1.9,3v3c0,0.9,0,1,1.3,1c0.1,0,0.2,0.1,0.2,0.1
		s0,0.1-0.2,0.1c-0.4,0-0.8,0-1.2,0c-0.4,0-0.8,0-1,0s-0.6,0-0.9,0c-0.4,0-0.7,0-0.9,0c-0.1,0-0.2-0.1-0.2-0.1s0.1-0.1,0.2-0.1
		c0.8-0.1,0.9-0.1,0.9-1V8c0-1-0.1-1-0.7-1h-0.2c-0.1,0-0.2-0.1-0.2-0.1s0.1-0.1,0.2-0.1c1.1,0,1.9-0.1,2.4-0.2c0.1,0,0.1,0,0.1,0
		c0.1,0,0.2,0.1,0.2,0.2c0,0.1,0,0.3-0.1,0.5c-0.1,0.3-0.1,0.9-0.2,1.4H329.4z"/>
	<path class="st0" d="M344.6,12.7c0,1,0.1,1,0.9,1c0.1,0,0.1,0.1,0.1,0.1s0,0.1-0.1,0.1c-0.2,0-0.6,0-0.9,0c-0.3,0-0.7,0-0.9,0
		c-0.2,0-0.6,0-0.9,0c-0.4,0-0.7,0-0.9,0c-0.1,0-0.2-0.1-0.2-0.1s0.1-0.1,0.2-0.1c0.8,0,0.9,0,0.9-1V9c0-1.5-0.5-2.2-1.5-2.2
		c-0.9,0-1.7,0.9-1.7,2.3v3.5c0,1,0,1,1,1c0.1,0,0.2,0.1,0.2,0.1s0,0.1-0.2,0.1c-0.1,0-0.5,0-0.9,0c-0.4,0-0.8,0-1,0s-0.6,0-0.9,0
		c-0.4,0-0.7,0-1,0c-0.1,0-0.2-0.1-0.2-0.1s0.1-0.1,0.2-0.1c1,0,1,0,1-1V4.2c0-1.3,0-1.3-0.7-1.3H337c-0.1,0-0.2-0.1-0.2-0.1
		s0.1-0.1,0.2-0.1c1.2-0.1,1.6-0.2,2.4-0.5c0,0,0.1,0,0.1,0c0.1,0,0.2,0.1,0.2,0.2c0,0.1,0,0.1,0,0.6c0,0.3,0,0.8,0,1.6v1.7
		c0,0.7-0.1,1.4-0.3,2.4h0.1c0.2-1.3,1.2-2.1,2.7-2.1c1.5,0,2.5,0.9,2.5,2.6V12.7z"/>
	<path class="st0" d="M354,10.3c0,2.3-2,3.9-3.8,3.9s-3.8-1.5-3.8-3.9c0-2.3,2-3.9,3.8-3.9S354,7.9,354,10.3z M352,10.3
		c0-0.7-0.1-1.7-0.4-2.5c-0.2-0.5-0.7-1-1.4-1s-1.2,0.5-1.4,1c-0.4,0.8-0.4,1.9-0.4,2.5s0.1,1.7,0.4,2.5c0.2,0.5,0.7,1,1.4,1
		s1.2-0.5,1.4-1C352,12,352,10.9,352,10.3z"/>
	<path class="st0" d="M367.8,12.7c0,1,0.1,1,0.9,1c0.1,0,0.2,0.1,0.2,0.1s-0.1,0.1-0.2,0.1c-0.2,0-0.6,0-0.9,0c-0.3,0-0.7,0-0.9,0
		s-0.6,0-0.9,0s-0.7,0-0.9,0c-0.1,0-0.2-0.1-0.2-0.1s0.1-0.1,0.2-0.1c0.8-0.1,0.9-0.1,0.9-1V9c0-1.5-0.5-2.2-1.5-2.2
		c-0.9,0-1.7,0.9-1.7,2.3v3.5c0,0.9,0.1,1,0.9,1c0.1,0,0.2,0.1,0.2,0.1s-0.1,0.1-0.2,0.1c-0.2,0-0.6,0-0.9,0c-0.3,0-0.7,0-0.9,0
		s-0.6,0-0.9,0s-0.7,0-0.9,0c-0.1,0-0.2-0.1-0.2-0.1s0.1-0.1,0.2-0.1c0.8-0.1,0.9-0.1,0.9-1V9c0-1.5-0.5-2.2-1.5-2.2
		c-0.9,0-1.7,0.9-1.7,2.3v3.5c0,0.9,0,1,1,1c0.1,0,0.2,0.1,0.2,0.1s0,0.1-0.2,0.1c-0.1,0-0.5,0-1,0c-0.4,0-0.8,0-1,0s-0.6,0-0.9,0
		c-0.4,0-0.7,0-0.9,0c-0.1,0-0.2-0.1-0.2-0.1s0.1-0.1,0.2-0.1c0.8-0.1,0.9-0.1,0.9-1V8.1c0-1,0-1.2-0.6-1.2h-0.2
		c-0.1,0-0.2-0.1-0.2-0.1s0.1-0.1,0.2-0.1c1.1,0,1.8,0,2.3-0.2c0,0,0.1,0,0.1,0c0.1,0,0.2,0.1,0.2,0.2c0,0.1,0,0.3-0.1,0.5
		c-0.1,0.3-0.1,0.9-0.2,1.4h0.1c0.2-1.3,1.2-2.1,2.7-2.1c1.2,0,2.1,0.6,2.4,1.7c0.3-1.1,1.2-1.7,2.6-1.7c1.5,0,2.5,0.9,2.5,2.6V12.7
		z"/>
	<path class="st0" d="M371.7,9.4c0,0.3,0,0.5,0,0.8c0,1.3,0.2,2.5,0.8,3.1c0.3,0.3,0.7,0.5,1.2,0.5c1.5,0,2.2-1.1,2.5-1.6
		c0-0.1,0.1-0.1,0.1-0.1c0.1,0,0.2,0.1,0.2,0.1c0,0,0,0.1,0,0.1c-0.5,0.9-1.4,1.8-3,1.8c-1.6,0-3.6-1.2-3.6-3.6c0-2.6,2-4.1,3.7-4.1
		c1.8,0,3,1.2,3,2.8v0.2H371.7z M374.3,9.1c0.3,0,0.4-0.1,0.4-0.4c0-0.6-0.2-1.3-0.4-1.6c-0.2-0.3-0.6-0.4-0.9-0.4
		c-0.4,0-0.7,0.1-1,0.5c-0.3,0.4-0.5,1.1-0.6,2H374.3z"/>
</g>
</svg>
