<?xml version="1.0" encoding="utf-8"?>
<!-- Generator: Adobe Illustrator 23.0.1, SVG Export Plug-In . SVG Version: 6.00 Build 0)  -->
<svg version="1.1" id="レイヤー_1" xmlns="http://www.w3.org/2000/svg" xmlns:xlink="http://www.w3.org/1999/xlink" x="0px"
	 y="0px" viewBox="0 0 1094.5 617.6" style="enable-background:new 0 0 1094.5 617.6;" xml:space="preserve">
<style type="text/css">
	.st0{fill:#3A302E;}
</style>
<g>
	<g>
		<g>
			<g>
				<g>
					<path class="st0" d="M593.2,513.5c-0.7-0.2-0.5,0.1-0.6,0.1C593.8,513.9,593.2,513.5,593.2,513.5z"/>
					<polygon class="st0" points="605.5,515.6 605.3,515.7 607.1,515.8 					"/>
					<path class="st0" d="M616.9,518c-1-0.6-4.2-0.8-6.2-1.4l-0.3-0.1l-1,0.1C612,517.1,615.2,517.6,616.9,518z"/>
					<path class="st0" d="M622.9,520c-0.3-0.2,1.3,0.2-1.4-0.3c0.1,0,0.2,0.1,0.3,0.1C622,519.8,622.3,519.9,622.9,520z"/>
					<path class="st0" d="M621.7,519.8C620.5,519.5,622.5,520.1,621.7,519.8L621.7,519.8z"/>
					<path class="st0" d="M627.3,520.9l-1.6-0.2c0.3,0.1,1.7,0.5,1.2,0.4C628.5,521.3,628.2,521.2,627.3,520.9z"/>
					<path class="st0" d="M628.9,520.9l-0.8-0.1C628.2,520.9,628.4,520.9,628.9,520.9z"/>
					<path class="st0" d="M626.3,520.6l1.8,0.3c-0.2-0.1-0.2-0.2-0.8-0.1C627.4,520.6,627,520.6,626.3,520.6z"/>
					<path class="st0" d="M625.3,520.3c-0.9-0.3-2-0.5-0.4-0.3C621.8,519.4,622.2,519.7,625.3,520.3z"/>
					<path class="st0" d="M617.6,517.8l-1.2-0.3l-1.1-0.1C615.9,517.4,617.6,517.9,617.6,517.8z"/>
					<path class="st0" d="M637.1,523.1c0.1-0.1-0.5-0.3-0.6-0.4l-1.2-0.2C636,522.7,637.1,523,637.1,523.1z"/>
					<path class="st0" d="M636.5,522.7l1.8,0.2C636.8,522.6,636.5,522.6,636.5,522.7z"/>
					<polygon class="st0" points="629.2,520.6 626.3,520.3 629.8,520.7 					"/>
					<polygon class="st0" points="643.8,524.5 642.8,524.5 644.6,524.6 					"/>
					<path class="st0" d="M648.3,525.4c-0.8,0,1,0.5,0.2,0.4c1.2,0.2,2.3,0.3,3.2,0.4C650.7,526,649.6,525.8,648.3,525.4z"/>
					<path class="st0" d="M653.3,526.3c-0.5-0.1-1-0.1-1.6-0.2C652.2,526.3,652.7,526.3,653.3,526.3z"/>
					<path class="st0" d="M641.3,523.6c0.1,0.1,0.4,0.2,1.3,0.5l-0.6-0.4C641.8,523.7,641.5,523.6,641.3,523.6z"/>
					<path class="st0" d="M642,523.7L642,523.7c0.8,0.2,1.3,0.3,1.5,0.3C643.3,524,642.8,523.9,642,523.7z"/>
					<path class="st0" d="M641.1,523.5c0.1,0,0.1,0,0.2,0C641.2,523.5,641.2,523.5,641.1,523.5z"/>
					<path class="st0" d="M633.8,521.7c1.1,0.1,3.2,0.4,1.2-0.2C634.2,521.5,635.4,521.9,633.8,521.7z"/>
					<path class="st0" d="M640.3,523.1l-1.9-0.4c0,0.1,0.3,0.2-0.2,0.2L640.3,523.1z"/>
					<polygon class="st0" points="641.3,523.2 640.3,523.1 641,523.3 					"/>
					<path class="st0" d="M650.1,525.5c0.8,0.1,1.7,0.3,2.7,0.4c-1.1-0.3-2.2-0.5-3.2-0.7C649.4,525.2,649,525.3,650.1,525.5z"/>
					<path class="st0" d="M646.2,524.6c0.1,0,0.1,0,0.2,0C646.2,524.6,646.1,524.6,646.2,524.6z"/>
					<path class="st0" d="M662.6,528c-0.1,0-0.1,0-0.1-0.1c0,0,0,0,0,0L662.6,528z"/>
					<path class="st0" d="M649.4,525.1c-0.8-0.2-1.3-0.3-1.8-0.3c0.6,0.1,1.2,0.2,1.9,0.4C649.7,525.2,649.7,525.2,649.4,525.1z"/>
					<path class="st0" d="M656,526.8c-0.4-0.1-0.9-0.3-1.4-0.4C655,526.6,655.8,526.8,656,526.8z"/>
					<path class="st0" d="M646.6,524.7c0,0-0.1,0-0.1,0C646.7,524.8,646.7,524.8,646.6,524.7z"/>
					<path class="st0" d="M646.6,524.7c0.4,0.1,0.8,0.1,1.1,0.1c-0.5-0.1-0.9-0.2-1.3-0.2C646.4,524.7,646.5,524.7,646.6,524.7z"/>
					<path class="st0" d="M665.8,527.2c-0.2,0.2-2.3-0.1-4.1-0.7c-1.8-0.2-0.8,0.7,0.7,1.3c0.1-0.1,0.1-0.2,2,0.1
						c-0.6-0.2-4-1.1-2.4-0.9c2.5,0.4,2,0.5,3.1,0.8c-1-0.5,3.2,0.3,2.7-0.2l-2.2-0.3C665.6,527.3,666.4,527.4,665.8,527.2z"/>
					<path class="st0" d="M658.9,527.1l-0.8-0.1c0.9,0.2,1.5,0.4,2.6,0.8c1.3,0.2,1.6,0.2,1.7,0.1l-3.7-0.8L658.9,527.1z"/>
					<path class="st0" d="M654.8,526.3c0.6-0.1,2.5,0.2,1.4-0.3c-2.2-0.4-1.6-0.1-2.9-0.3C656.8,526.4,652.2,525.6,654.8,526.3
						c-0.7-0.1-1.4-0.3-2-0.4c0.6,0.2,1.3,0.3,1.8,0.5c0,0-0.1,0-0.1,0l0,0c0,0,0,0,0,0c-0.1-0.1-0.2-0.1,0,0c0,0,0.1,0,0.1,0
						C654.6,526.3,654.7,526.3,654.8,526.3c1,0.3,0.2,0.1-0.2,0c0,0,0,0-0.1,0c0,0,0,0,0,0l3.6,0.6
						C657.4,526.8,656.5,526.6,654.8,526.3z"/>
					<path class="st0" d="M637,521.5c0.1,0,0.1,0.1,0.1,0.1C637.3,521.6,637.4,521.6,637,521.5z"/>
					<path class="st0" d="M638.4,521.9c-0.3,0-0.5,0-1.3-0.2c-0.7-0.2,0-0.1,0-0.2c-0.5-0.1-1.8-0.2-0.2,0.2l0.3,0
						c1.4,0.4,3.2,1,3,1C639.7,522.5,639.3,522.3,638.4,521.9z"/>
					<path class="st0" d="M646.7,524.1l3,0.5l-1.5-0.5l0.1,0.1C646.6,523.8,646.9,524,646.7,524.1z"/>
					<polygon class="st0" points="662.9,528.1 662.5,528.3 664.3,528.3 					"/>
					<polygon class="st0" points="666.8,528.9 666.6,529.1 667.7,529.2 					"/>
					<path class="st0" d="M886.7,572.2l0.9,0.1C887.2,572.2,886.9,572.2,886.7,572.2z"/>
					<path class="st0" d="M880.3,570.8l-0.2,0.1C880.5,570.9,880.6,570.9,880.3,570.8z"/>
					<path class="st0" d="M762.3,548.8c1.2,0.4,2.6,1,2.5,0.8l-0.3-0.3C763.6,549.1,762.9,548.9,762.3,548.8z"/>
					<path class="st0" d="M828,561.1c-0.1,0-0.2-0.1-0.4-0.1c-0.3,0-0.6,0-0.9,0C827.1,561,827.5,561.1,828,561.1z"/>
					<path class="st0" d="M829,560.4l1.7,0.5C830.3,560.8,829.8,560.6,829,560.4z"/>
					<path class="st0" d="M921.5,579.2l1.1,0C921,578.9,921.7,579.1,921.5,579.2z"/>
					<path class="st0" d="M706.6,537.1c1.1,0.3,2,0.5,2.7,0.7C708.1,537.4,707,537,706.6,537.1z"/>
					<path class="st0" d="M883.7,573.9c0.5,0.1,0.8,0.1,0.8,0C884,573.9,883.6,573.8,883.7,573.9z"/>
					<path class="st0" d="M712.6,538.5c-0.2-0.1-0.4-0.1-0.6-0.2c-0.8-0.1-1.6-0.3-2.6-0.5C710.3,538.1,711.5,538.4,712.6,538.5z"/>
					<path class="st0" d="M1047.5,605.6c0.1,0,0.2,0.1,0.3,0.1C1047.9,605.7,1047.7,605.6,1047.5,605.6z"/>
					<path class="st0" d="M1083.8,615.4c-0.4-0.1-1-0.2-1.5-0.3C1082.6,615.2,1083,615.3,1083.8,615.4z"/>
					<path class="st0" d="M682.4,532.3C681.6,532.1,682.3,532.3,682.4,532.3L682.4,532.3z"/>
					<path class="st0" d="M678.6,530.6c0.2,0,0.3,0,0.4,0C678.9,530.6,678.7,530.6,678.6,530.6z"/>
					<path class="st0" d="M721.1,538.9C721.1,538.9,721.1,538.9,721.1,538.9C720.9,538.8,720.9,538.8,721.1,538.9z"/>
					<path class="st0" d="M681.2,531.9c0.3,0.1,0.7,0.2,1,0.3C682.1,532.1,681.8,532.1,681.2,531.9z"/>
					<path class="st0" d="M681.4,532.1c-0.3-0.1-0.5-0.1-0.7-0.2C680.5,531.9,680.6,531.9,681.4,532.1z"/>
					<path class="st0" d="M683.6,532.5c-0.5-0.1-0.9-0.2-1.3-0.3c0.2,0,0.2,0.1,0.2,0.1C682.7,532.3,683,532.4,683.6,532.5z"/>
					<path class="st0" d="M979.9,592.1c0.1,0,0.1,0,0.2,0.1C980.9,592.3,980.5,592.2,979.9,592.1z"/>
					<path class="st0" d="M784.2,551C784.2,551,784.2,551,784.2,551C784.2,551,784.2,551,784.2,551L784.2,551z"/>
					<path class="st0" d="M787.2,551.5c-1.3,0-2-0.2-3-0.4l0.9,0.8L787.2,551.5z"/>
					<path class="st0" d="M902,575.3l-2-0.6c2.6,0.2,4.4,0.7,2.5,0c-0.4,0.6-8.1-1.6-8.5-1l-1.3-0.4c0.4,0.1,0.5,0.1,0.8,0.1
						c-2.6-0.9-2.1,0.1-5.5-0.7c-1.2-0.3-2-0.6-1.2-0.5l-2.7-0.4c-0.8-0.2-0.6-0.3,0.2-0.1l-4.1-0.8l0,0c-0.6,0-2-0.1-2.6-0.2
						c-1-0.3,0.5,0,0.3-0.1l-2.3-0.3c-0.9-0.4,1-0.1,2.6,0.2c-2-1.1-1.9-0.2-6.4-1.6l2.1,0.4c-1.3-0.7-3-0.9-5.3-1.6
						c0.5,0.2,4.7,1.6,2.2,1.3c-0.7-0.2-1.6-0.4-2.9-0.5c0-0.2-1.3-0.4-2.9-0.8l0.2-0.3c-1.8-0.3-1.7-0.1-2.7-0.2
						c-1.9-0.4-2.3-0.8-2.7-1.1c-3.1-0.7,2.1,0.8-1.6,0.1c-2.6-0.7-4.4-0.9-7.5-1.4c-1.8-0.5,0.4-0.1-0.3-0.4l-1.7-0.1
						c-0.4-0.1-0.2-0.1-0.2-0.2c-1.4-0.2-0.2,0.3-2.3-0.1c-0.6,0.2-4.3-1.4-7-1.6c-0.6-0.2,0.4-0.1,0.2-0.3
						c-3.7-0.5-3.1-0.5-6.2-0.7l-2.5-0.7c1.8,0.6-0.6,0.4-2.7,0.2c0.6,0.3,1.2,0.5,1.5,0.6l-3.3-0.5c-0.4-0.1,0-0.2,0.5-0.2
						c-0.2,0-0.5,0-0.6-0.1c-1.2-0.4-0.5-0.4,0.4-0.4c0.4,0.1,0.8,0.3,1.2,0.4c0.9,0,1.7-0.1,1.5-0.3c-0.2,0-0.6-0.1-1.1-0.1
						c0.2,0,0.4,0,0.3-0.1c-0.1-0.1-0.5-0.1-1-0.1l-0.7-0.5l-0.2,0.1l-4.3-1.1c-3.2-0.3-6-0.3-10.9-1.2c1.3,0,0.3-0.4,0.5-0.7
						c1.3,0.6,3.8,0.7,6.4,1.3c-1.3-0.3-1-0.4-0.7-0.4l-4.6-0.7c0.2-0.2-0.9-0.4-2.1-0.7c0.8,0.7-3.5-0.4-5.3-0.6
						c-0.1-0.2,0.4-0.3,2.6,0.2c-2.4-0.9-3.3-0.1-5.7-0.9c0.6,0.1,0.8,0.2,1.1,0.2c-1.3-0.1-4.4-0.9-3.7-0.9l0.6,0.1
						c-3.6-0.8-11.1-2.3-11.8-2c0-0.1,0.6-0.4,0.8-0.4l-6.8,0c0.6-0.2-1.4-1.5,1.7-1.1c-0.9-0.2-1.9-0.5-3.8-0.8
						c0.6,0.2,1.4,0.8,0.6,0.7c-2.1-0.9-1.5-0.5-4.2-1.4c0.9,0.3-0.2,0.6-1.6,0.3c0.2,0,0-0.6,0.5-0.5l-3.6-0.2
						c0.9,0.1,0.3-0.4-0.5-0.8c0.3,0.2-3-0.6-4-0.8l1.5,0.4c-3.9-0.9-4.1,0-8-0.9c0.5,0,1.3-0.5-0.7-0.9c-1,0.1-4.3,0.5-7.9,0
						l-0.6-0.3l-2.7-0.4c1.7-0.1,6.6,0,9.2,0.2c-1.5-0.4-0.4-0.3-2.6-0.7c-0.8-0.3,1.3,0,1.9,0.1l-5.1-1.2c0.2,0.4-4-0.5-3.9-0.2
						l5.7,0.8c0.2,0.4-3.4,0.3-7.1-0.6c-0.9-0.3,0.8-0.4,0.8-0.6c-0.5,0-3.5-0.5-3.8-0.7l1.6,0.1c-2-0.5-3.4-0.3-5.8-1.1
						c-0.8-0.2-2.4-0.9-2.6-0.8c1.3,0.7,1.3,1.9,0.4,2c-0.3-0.1-4.4-1.3-5.3-1.7c-1.3-0.6,2.2-0.3,1.1-0.8c-0.1,0.1-0.9,0-1.2,0
						c-0.9-0.3,0.4-0.2-1.5-0.6c-0.4,0.3-3.9-0.8-1,0.1c-1.9-0.3-2-0.5-4.2-0.9c0.7,0.4-2.1,0.3-4.1,0c0.1-0.1-0.3-0.3-0.5-0.4
						c-3.9-0.8-5.9-1.4-9.5-2.2c-0.3-0.1-2-0.6-1.3-0.6c-0.5,0-1,0-2.1-0.3c-2.1-0.7,2.5,0.5,0.9-0.2c-0.2,0.2-2.9-0.3-4.5-0.5
						c0.4,0.4,3.6,0.8,5.3,1c-0.1,0.4-2.9,0.3-6.7-0.3c-3-0.5-1.2-0.5-1.8-0.6c-5.6-1.2-4.9-0.3-9.6-1.5c-1.8-0.6,0-0.5-0.3-0.8
						c2.5,0.4,3.7,0.9,5.4,1.3l-2-0.5c0.8,0.1,2.4,0.3,3.3,0.6c-1.5-0.6-9.5-2-13.8-3.1c-0.8-0.1-2.1-0.3-1.5,0l1.4,0.2
						c1.2,0.5-2.6-0.2-0.9,0.2c-1.9-0.2-4-0.4-6.6-1.1l-0.4-0.4c0,0.1,1.7,0.5,2.4,0.6c-1.1-0.1-3.9-1.2-5.2-1.1l1.8,0.6
						c-1.9-0.2-4.2-0.4-6.5-1c1,0.5,0.5,0.1,2.1,0.8c-1.3-0.7,5.9,1.2,3.7,0.3c1.6,0.8,2.9,0.8,5,1.6c0-0.1-0.7-0.4,1.2,0.1
						c0.1,0,0.3,0,0.4,0c0.1,0,0.1,0,0.1,0c0,0-0.1,0-0.1,0c0.1,0,0.1,0,0,0c-0.5-0.1-0.8-0.3-1-0.4c1,0,4.1,0.6,5.1,0.7
						c1.1,0.3-0.5,0,0.1,0.2l1.6,0.1c0.1,0.3,3,1,0.2,0.6l2.4,0.5c1.4,0.4,3.4,0.9,4.6,1c1.1,0.3,2.9,0.4,1.9,0.3l3.8,0.7l0,0.1
						c3.8,0.8,7.8,1.2,12,2.5c1.3,0.2,2.6,0.4,4.7,0.9l0.4,0.3c1.6,0.3,4.8,1.2,5.6,1.2c1.6,0.9,7.9,1.8,10.7,2.4l0.2-0.2
						c2,0.4,3.9,0.7,6.3,1.2l-0.1-0.3c2.1,0.3,5.4,1.3,8.7,2c-0.2,0-1.1-0.2-1.7-0.3c3.9,1.3,8.5,1.4,12,2.5
						c0.9,0.1,1.6,0.3,2.2,0.5c-0.1,0-0.2,0-0.2,0c0.1,0,0.2,0.1,0.4,0.1c0.4,0.1,0.8,0.2,1.2,0.4c-0.4-0.1-0.7-0.3-1-0.3
						c0.7,0.1,1.8,0.3,2.8,0.5l0.4,0.3c0.1,0,0.2,0,0.2,0c1,0.3,0.8,0.1,0.3-0.2c0.5,0.1,1,0.1,1.4,0.1c0.7,0.6,2.7,0.4,3.8,1.1
						c0.7-0.1,5.2,0.9,5.8,0.6c0,0.1,0.3,0.2-0.2,0c1.1,0.3,2.3,0.6,3.3,0.7l0.4,0.4l2.6,0.1c1.5,0.5,2.1,0.7,0.5,0.7
						c3.7,0.4,3,0.5,6.2,0.8l-0.2,0.2c1.1,0.2,2.9,0.3,3.6,0.6c2.4,0.9,12.3,2.6,18.6,4.3c-1.1-0.8,2.9,0.9,3.3,0.5
						c0.3,0.2,1.2,0.5,0.2,0.4c3.3,0.5,4.8,1.2,7.2,1.3c0.3,0.2-0.7,0.1-0.4,0.2c0.3,0,1.1,0.1,1.4,0.2c0.3,0.1-0.5,0-1,0
						c3.3,0.7,3.8,0.3,4.1,0c1.6,0.5,2.5,0.7,3.8,0.7c0.6,0.2,1.5,0.6-0.6,0.2c1.2,0.3,7.1,1.7,7.2,1.4c0.3,0.2,1.6,0.4,1.9,0.4
						c2.6,0.6,2.8,0.6,5.4,1.1l-0.7-0.2c1.1-0.2,2.1,0.4,4.2,0.7l-0.1,0c4.7,1.3,2.1,0.3,6.7,1.6l-0.2-0.3c0.5-0.4,4.1,1.2,6.8,1.5
						l-1-0.3c1.5,0.1,4,1.5,5.5,1.9c0.3,0.1-0.5,0-1-0.1c3.8,1.1,0.6-0.2,3.5,0.3c0.5,0.3-0.8,0.3,1.2,0.7c0.9,0.3,5.8,0.6,8.4,1.5
						c-0.6-0.2-1.1-0.5,0.3-0.3c2.1,0.4,5.5,1.6,7.4,1.6c0.3,0.1,0.3,0.1,0.4,0.2c1.6,0.2,5.2,0.9,6.2,0.9c1.3,1.1,9.9,1.6,9.7,2.4
						l4.9,1l-0.1,0.1c3.1,0.7,4.2,0.7,5.4,0.8c0.7,0.2,0.2,0.2,0.1,0.2c4.5,1.1,5,1.2,8.8,1.6l0.3,0.3c1.1,0.1,6.5,1.7,11,2.4
						c0,0-0.2,0-0.5,0c5.1,0.8,11.8,3.2,13.9,2.7l3.3,0.5c-4.3-1,0.7-0.3-1-0.8c1.7,0.3,4.3,1.2,2.2,0.8l-0.3-0.1
						c-0.9,0.3,5.3,1.3,5.1,1.6c8.4,1.7,16.5,3.7,24.4,5.3l-0.8-0.5l2.7,0.6c0.7,0.2,0.9,0.5-1,0.1c1,0.4,3.3,0.5,3.4,0.4
						c3.8,0.9-1.6,0.1-0.4,0.4l1.6,0.3l-0.4-0.1c1.3,0.1,1.5,0,3.8,0.5c1.5,0.4,0.7,0.4,1.3,0.5c0,0,0.2,0.1,0.9,0.2l3.5,0.8
						l-1.3-0.6c1.6,0.2,3.3,0.7,1.7,0c2.2,1,12.9,2.9,14.3,3.3c2.2,0.2,4.3,0.7,6.9,1.3c-0.6-0.2-1-0.6,1.3-0.1
						c-1,0.5,4.1,1.1,5.8,2c-1.6-0.7,6.5,1.3,4,0.3c1.9,0.4,0.1,0.3,1.5,0.7c4.6,0.7,9.9,2.2,15.5,3.3c0.1-0.1-0.8-0.4,0.4-0.3
						l2.8,1c1.1,0.2,1.1-0.3,3.1,0.4c-0.3-0.1-0.7-0.3,0.1-0.2c10.8,2.7,22.3,4.3,33.2,7.4c-1.5-0.5-0.5-0.3,0.7-0.1
						c-0.7-0.2,0.1-0.2-0.1-0.4l4.6,1.3c0.9-0.1,5,1,5.5,0.8l-1.5-0.2c2,0-2.6-1.4-2.2-1.8c-2.3,0-5.6-1.8-9.3-2
						c-0.8-0.3,0.7,0,0.3-0.2c-1,0-2.1-0.2-4.1-0.7l0.2,0c-5.7-1.1-8.1-1.8-14.5-3.3l0.4,0.3c-1.4-0.3-1.6-0.5-2.3-0.6
						c-1.7,0,3.9,0.8,2.3,0.9c-1.7-0.9-9.7-2-10.8-2.8c-2.1-0.4,0.6,0.4-1.6,0l-0.5-0.3l-0.6,0.1c-1.4-0.3-2-0.6-2.1-0.8
						c0.3,0.1,1,0.2,1.3,0.2c-1.8-0.5-5.1-1-5.7-1.2l2,0.5c-5.8-1.1-12.8-2.7-18.5-3.6l0.4,0.2c-4.3-0.7-3.4-0.8-8.1-1.7l0.2,0
						c-1-0.1-2.2-0.3-3.5-0.6c1.2,0.1-2.2-0.7-0.6-0.5c-4.7-0.7-2.3-0.3-5.5-0.5l-0.7-0.3c-1.1-0.1-1.2,0-3.5-0.4
						c2,0.2-1.4-0.6,0.8-0.3c-4.8-1.4-7.4-1.1-9.5-2.2c-2.4,0,4.2,1.2,2.9,1c1,0.4-1.9,0-3.5-0.4c-1.6-0.3-2.5-1.2-6.5-2
						c0.4,0.1,0.4,0.1,0.8,0.1c-1.5-0.4-2.9-0.4-4.7-1c-1.1,0.1-2.3-0.5-2.7-0.2l3.6,0.7c-2.1-0.3-4.1-0.3-7.4-1.2
						c0.3,0,1.3,0.1,2,0.2c-1-0.3-1.9-0.3-2.9-0.7c0.4-0.3,4.4,0.8,6.7,1c-1-0.4-4.2-0.6-3-0.8c-1.7,0.2-3.9-0.9-6.6-1l0.2-0.2
						c-0.4-0.1-1.3-0.1-2.1-0.3l1.5,0c-2.2-0.2-4.1-1.1-6.2-1.4c4.3,0.9,0.9,0.5,2.7,1c-5.4-0.8-3-1.2-9-2.4c0.8,0.1,3,0.8,1.7,0.6
						c-1.1-0.3-2.6-0.7-3.3-1c-4-0.8,0.6,0.4-1.2,0.2c-1.3-0.6-2-0.3-3.7-0.6l0-0.2c-4.5-1.1-1.3,0.2-5.3-0.8l1.8,0l-2.1-0.4
						l0.5-0.2c-2.4-0.3-3.1-0.5-5.3-1c0.5,0.3-0.4,0.4-2.4,0c-1.3-0.4,0.8-0.1-2-0.6c0.7,0,1.4-0.1,2.6,0.4c0.1-0.1,0.7,0,0.8-0.1
						c-1.4-0.5-3.7-0.8-4.7-1c0.4,0.1,0.9,0.2,1.1,0.3l-4.2-0.5c-0.6-0.2-0.1-0.2,0.4-0.2c-0.8-0.1-1.4-0.2-2.7-0.4
						c0.4-0.1,0.3-0.3,2.1-0.1l-4-0.6c-0.2-0.1-2-0.6-1.4-0.6c-2.2-0.6-5.4-0.7-8.3-1.5c-0.2,0-0.5,0-1.1-0.1
						c-2.7-0.6-5.1-1.3-8.3-1.8l-1.8-0.7c-2.5-0.4,2.4,0.9-1.8,0.2c-3-0.5-1-0.5-2.1-0.8c-1.5-0.1-4.2-0.3-6.8-1.2
						C900.4,574.9,901.1,575.1,902,575.3z M870.8,569c0.6,0.1,1.8,0.2,2.3,0.4C872.4,569.5,871.9,569.3,870.8,569z M823.5,559.7
						c0.5,0,1.1,0.2,1.9,0.4C824.8,560.1,824.2,559.9,823.5,559.7z M691.5,534C691.5,534,691.6,534,691.5,534
						C692.9,534.3,692.4,534.2,691.5,534z M688.7,533.3c-0.3,0-0.3,0-0.2,0.1c0.2,0,0.8,0.1,1.5,0.3
						C689.9,533.5,689.6,533.4,688.7,533.3z M988.4,595.5l-0.5-0.2C989.1,595.5,988.7,595.5,988.4,595.5z"/>
					<path class="st0" d="M828.9,560.5c0.2,0.1,0.2,0.1,0.2,0.2C829.4,560.7,829.4,560.6,828.9,560.5z"/>
					<path class="st0" d="M921.3,579.2C921.3,579.2,921.4,579.2,921.3,579.2c0.1,0,0.2,0,0.2,0L921.3,579.2z"/>
					<path class="st0" d="M732.4,540.3c0.6,0.2,0.9,0.3,1.1,0.4C733.5,540.6,733.2,540.5,732.4,540.3z"/>
					<path class="st0" d="M673.9,530.6l1.8,0.3c-0.9-0.2-1.2-0.3-1.6-0.4C674.1,530.6,674.4,530.7,673.9,530.6z"/>
					<path class="st0" d="M658.7,525.9c-0.3,0-0.6-0.1-0.8-0.1l0,0.1C659,526.1,659.8,526.2,658.7,525.9z"/>
					<path class="st0" d="M672.4,529.5c-0.1-0.2-1.2-0.4-2.5-0.6c0.1,0,0.1,0,0.2,0C669.7,529.1,671,529.3,672.4,529.5z"/>
					<path class="st0" d="M669.6,528.8c-0.4-0.1-0.8-0.1-1.2-0.2C668.3,528.6,668.9,528.7,669.6,528.8z"/>
					<path class="st0" d="M685.2,532.7c-0.6-0.2-0.4,0.2-0.7,0C683.7,532.8,688.5,533.2,685.2,532.7z"/>
					<polygon class="st0" points="671.5,528.6 671.9,528.9 672.6,528.9 					"/>
					<path class="st0" d="M681.4,530.8l-2-0.5c0,0-0.2,0-0.6,0C680,530.6,681.4,530.9,681.4,530.8z"/>
					<path class="st0" d="M678.8,530.3c-0.6-0.1-1.3-0.3-1.6-0.3C677.5,530.1,678.3,530.3,678.8,530.3z"/>
					<polygon class="st0" points="674.3,529.1 674.8,529.3 676.2,529.6 					"/>
					<path class="st0" d="M702.8,535.4l2.2,0.4c0.2,0-0.3-0.2-1.2-0.3C703.3,535.4,702.5,535.2,702.8,535.4z"/>
					<path class="st0" d="M696.4,533.3c0.6,0.2,0.6,0.2,0.9,0.4l0.1-0.3L696.4,533.3z"/>
					<path class="st0" d="M702.8,534.6c0.2,0,3.2,0.4,0.4-0.1C703,534.5,700.8,534.1,702.8,534.6z"/>
					<polygon class="st0" points="735.6,541.8 735,541.7 735,542.2 					"/>
					<path class="st0" d="M764.8,546.6c-2.6-0.7-0.7,0.2-3-0.5c-0.6,0,1.9,0.5,1.2,0.5C764.7,546.9,765.5,547.1,764.8,546.6z"/>
					<path class="st0" d="M763.1,546.7c-0.3,0-0.5-0.1-0.8-0.1C762.7,546.7,762.9,546.7,763.1,546.7z"/>
					<polygon class="st0" points="1089.9,616.9 1091.5,617.4 1090.5,617 					"/>
					<path class="st0" d="M1093.1,617.2l0.3,0.4l1.1-0.1C1094.1,617.5,1093.4,617.3,1093.1,617.2z"/>
					<path class="st0" d="M866.4,567.4l-0.1,0.1c0.2,0.1,0.6,0.2,1.4,0.4L866.4,567.4z"/>
					<polygon class="st0" points="888.9,572.3 888.5,572.2 889.1,572.7 					"/>
					<path class="st0" d="M907.9,575.9c-0.8-0.2-1.7-0.3-2.5-0.5C907.1,575.7,908,576.3,907.9,575.9z"/>
				</g>
			</g>
		</g>
	</g>
</g>
<g>
	<g>
		<g>
			<g>
				<g>
					<path class="st0" d="M0.4,587.4c-0.6,0.1-0.3,0.3-0.4,0.3C1,587.5,0.4,587.4,0.4,587.4z"/>
					<polygon class="st0" points="9.8,584.6 9.7,584.7 11,584.1 					"/>
					<path class="st0" d="M18.8,582.3c-0.9-0.1-3.2,0.9-4.8,1.1l-0.3,0l-0.6,0.5C14.9,583.4,17.4,582.6,18.8,582.3z"/>
					<path class="st0" d="M23.7,581.9c-0.3-0.1,1-0.4-1.1,0.2c0.1,0,0.1,0,0.2,0C23,582,23.2,582,23.7,581.9z"/>
					<path class="st0" d="M22.8,582.1C21.9,582.3,23.4,582,22.8,582.1L22.8,582.1z"/>
					<path class="st0" d="M27.1,580.9l-1.2,0.4c0.3,0,1.4-0.2,1-0.1C28.1,580.9,27.9,580.9,27.1,580.9z"/>
					<path class="st0" d="M28.2,580.4l-0.6,0.2C27.7,580.6,27.9,580.6,28.2,580.4z"/>
					<path class="st0" d="M26.3,581l1.3-0.5c-0.2,0-0.2-0.1-0.6,0.2C27.1,580.6,26.8,580.8,26.3,581z"/>
					<path class="st0" d="M25.5,581.2c-0.7,0.1-1.6,0.3-0.4-0.2C22.7,581.7,23.1,581.8,25.5,581.2z"/>
					<path class="st0" d="M19.1,581.8l-1,0.1l-0.8,0.3C17.8,582.1,19.2,581.9,19.1,581.8z"/>
					<path class="st0" d="M34.9,579.2c0.1-0.1-0.5-0.1-0.6-0.2l-0.9,0.3C33.9,579.2,34.8,579.1,34.9,579.2z"/>
					<path class="st0" d="M34.3,579l1.3-0.5C34.4,578.8,34.2,578.9,34.3,579z"/>
					<polygon class="st0" points="28.3,579.9 26.2,580.8 28.8,579.8 					"/>
					<polygon class="st0" points="40.1,577.8 39.4,578.2 40.7,577.6 					"/>
					<path class="st0" d="M43.5,576.9c-0.5,0.3,0.8,0,0.3,0.3c0.9-0.3,1.7-0.6,2.4-0.9C45.5,576.6,44.6,576.8,43.5,576.9z"/>
					<path class="st0" d="M47.4,575.9c-0.4,0.1-0.8,0.3-1.2,0.5C46.6,576.2,47,576.1,47.4,575.9z"/>
					<path class="st0" d="M38,578c0.1,0,0.4,0.1,1.1-0.1l-0.6-0.1C38.3,577.9,38.1,577.9,38,578z"/>
					<path class="st0" d="M38.5,577.8L38.5,577.8c0.6-0.1,1-0.2,1.2-0.3C39.5,577.6,39.2,577.7,38.5,577.8z"/>
					<path class="st0" d="M37.8,578c0,0,0.1,0,0.1,0C37.9,578,37.9,578,37.8,578z"/>
					<path class="st0" d="M32,579.2c0.8-0.3,2.4-0.9,0.8-0.6C32.2,578.9,33.1,578.7,32,579.2z"/>
					<path class="st0" d="M37.1,577.9l-1.5,0.3c0,0,0.3,0.1-0.1,0.2L37.1,577.9z"/>
					<polygon class="st0" points="37.8,577.7 37.1,577.9 37.6,577.8 					"/>
					<path class="st0" d="M44.9,576.3c0.6-0.2,1.3-0.4,2.1-0.6c-0.8,0.2-1.7,0.4-2.5,0.6C44.3,576.3,44,576.5,44.9,576.3z"/>
					<path class="st0" d="M41.7,577c0,0,0.1,0,0.1,0C41.8,577,41.7,577,41.7,577z"/>
					<path class="st0" d="M54.5,573.8c0,0-0.1,0-0.1,0c0,0,0,0,0,0L54.5,573.8z"/>
					<path class="st0" d="M44.2,576.2c-0.6,0.1-1,0.3-1.3,0.4c0.5-0.1,1-0.3,1.5-0.4C44.4,576.2,44.4,576.2,44.2,576.2z"/>
					<path class="st0" d="M49.5,575.2c-0.3,0-0.7,0.1-1.1,0.2C48.7,575.4,49.4,575.3,49.5,575.2z"/>
					<path class="st0" d="M42.1,577C42.1,577,42.1,577,42.1,577C42.2,577,42.2,577,42.1,577z"/>
					<path class="st0" d="M42.1,577c0.3-0.1,0.6-0.2,0.8-0.3c-0.4,0.1-0.7,0.2-1,0.3C42,577,42.1,577,42.1,577z"/>
					<path class="st0" d="M56.5,571.8c-0.1,0.2-1.7,0.8-3.1,1c-1.4,0.5-0.3,0.9,1,0.9c0-0.1,0-0.2,1.4-0.6c-0.5,0-3.2,0.6-2.1,0.1
						c1.9-0.6,1.6-0.3,2.5-0.5c-0.8,0,2.3-1,1.8-1.2l-1.6,0.5C56.4,572,57,571.8,56.5,571.8z"/>
					<path class="st0" d="M51.7,574.4l-0.6,0.2c0.7-0.1,1.2-0.2,2.1-0.3c1-0.3,1.1-0.5,1.2-0.5l-2.9,0.7L51.7,574.4z"/>
					<path class="st0" d="M48.4,575.3c0.4-0.3,1.8-0.8,0.9-0.8c-1.7,0.5-1.2,0.5-2.2,0.8C49.9,574.6,46.4,575.6,48.4,575.3
						c-0.6,0.2-1.1,0.3-1.5,0.4c0.5-0.1,1-0.2,1.5-0.3c0,0,0,0-0.1,0l0,0c0,0,0,0,0,0c-0.1,0-0.2,0,0,0c0,0,0,0,0.1,0
						C48.3,575.3,48.4,575.3,48.4,575.3c0.8-0.2,0.1,0-0.1,0.1c0,0,0,0,0,0c0,0,0,0,0,0l2.8-0.8C50.5,574.7,49.8,574.9,48.4,575.3z"
						/>
					<path class="st0" d="M34.1,577.8c0.1,0,0.1,0,0.1,0C34.4,577.7,34.5,577.7,34.1,577.8z"/>
					<path class="st0" d="M35.3,577.6c-0.2,0.1-0.3,0.2-1,0.4c-0.6,0.1,0-0.1-0.1-0.2c-0.4,0.2-1.4,0.5-0.1,0.3l0.2-0.1
						c1.1-0.2,2.7-0.3,2.5-0.2C36.4,577.6,36.1,577.6,35.3,577.6z"/>
					<path class="st0" d="M41.9,576.4l2.3-0.7l-1.2,0.1l0.1,0.1C41.8,576.2,42.1,576.2,41.9,576.4z"/>
					<polygon class="st0" points="54.8,573.8 54.6,574.1 55.9,573.4 					"/>
					<polygon class="st0" points="57.9,573 57.8,573.2 58.6,572.9 					"/>
					<path class="st0" d="M228.4,527.5l0.7-0.2C228.8,527.4,228.6,527.4,228.4,527.5z"/>
					<path class="st0" d="M223.5,528.7l-0.1,0.1C223.6,528.8,223.7,528.7,223.5,528.7z"/>
					<path class="st0" d="M132.4,554.2c1-0.1,2.2-0.1,2.1-0.3l-0.4-0.1C133.4,554,132.8,554.1,132.4,554.2z"/>
					<path class="st0" d="M183.1,540.1c-0.1,0-0.2,0-0.3,0c-0.2,0.1-0.4,0.3-0.6,0.4C182.4,540.4,182.7,540.2,183.1,540.1z"/>
					<path class="st0" d="M183.5,539.1l1.4-0.2C184.6,538.9,184.2,539,183.5,539.1z"/>
					<path class="st0" d="M255.5,520.5l0.7-0.4C255,520.4,255.6,520.3,255.5,520.5z"/>
					<path class="st0" d="M88.9,565.1c0.9-0.1,1.6-0.3,2.2-0.4C90,564.8,89.1,564.9,88.9,565.1z"/>
					<path class="st0" d="M227,530.2c0.4-0.1,0.6-0.2,0.6-0.3C227.2,530.1,226.9,530.2,227,530.2z"/>
					<path class="st0" d="M93.6,564.1c-0.2,0-0.3,0-0.5,0.1c-0.6,0.2-1.2,0.4-2,0.6C91.9,564.6,92.8,564.4,93.6,564.1z"/>
					<path class="st0" d="M353.9,495.9c0.1,0,0.2,0,0.2,0C354.1,495.8,354,495.8,353.9,495.9z"/>
					<path class="st0" d="M383.1,490.8c-0.3,0.1-0.7,0.2-1.2,0.3C382.1,491,382.5,490.9,383.1,490.8z"/>
					<path class="st0" d="M70.1,570C69.5,570.2,70,570.1,70.1,570L70.1,570z"/>
					<path class="st0" d="M66.8,570c0.1-0.1,0.2-0.1,0.2-0.2C66.9,569.9,66.9,569.9,66.8,570z"/>
					<path class="st0" d="M99.7,561.1C99.7,561.1,99.7,561.1,99.7,561.1C99.5,561.1,99.6,561.1,99.7,561.1z"/>
					<path class="st0" d="M69.1,570.2c0.2,0,0.5-0.1,0.8-0.1C69.8,570,69.6,570.1,69.1,570.2z"/>
					<path class="st0" d="M69.3,570.2c-0.2,0-0.4,0.1-0.6,0.1C68.6,570.4,68.7,570.4,69.3,570.2z"/>
					<path class="st0" d="M71,569.8c-0.4,0.1-0.7,0.2-1,0.2c0.1,0,0.2,0,0.2,0C70.3,570,70.5,569.9,71,569.8z"/>
					<path class="st0" d="M301.3,509.7c0,0,0.1,0,0.1,0C302.1,509.4,301.8,509.5,301.3,509.7z"/>
					<path class="st0" d="M148.6,547.8C148.5,547.8,148.5,547.8,148.6,547.8C148.5,547.8,148.5,547.8,148.6,547.8L148.6,547.8z"/>
					<path class="st0" d="M150.8,547.1c-0.9,0.5-1.5,0.6-2.2,0.8l0.9,0.4L150.8,547.1z"/>
					<path class="st0" d="M240.3,524.4l-1.7,0.2c1.9-0.8,3.3-1.1,1.7-0.9c-0.1,0.7-6.3,1.7-6.3,2.4l-1.1,0.1
						c0.3-0.1,0.3-0.1,0.7-0.2c-2.2,0.2-1.4,0.9-4.1,1.4c-0.9,0.2-1.6,0.3-1,0l-2,0.7c-0.6,0.1-0.5,0,0.1-0.2l-3.2,0.9l0,0
						c-0.4,0.2-1.4,0.6-1.9,0.8c-0.8,0.1,0.4-0.2,0.2-0.2l-1.7,0.6c-0.8,0,0.7-0.5,1.9-0.8c-1.8-0.2-1.4,0.5-5.1,1l1.6-0.5
						c-1.2-0.1-2.4,0.4-4.4,0.6c0.5,0,3.9-0.4,2,0.3c-0.6,0.1-1.3,0.2-2.3,0.6c-0.1-0.2-1.1,0.1-2.3,0.4l0-0.3
						c-1.3,0.4-1.2,0.6-2,0.9c-1.5,0.4-1.9,0.2-2.3,0.1c-2.4,0.6,1.8,0-1.1,0.7c-2,0.4-3.4,0.9-5.8,1.7c-1.4,0.2,0.2-0.3-0.3-0.2
						l-1.2,0.6c-0.3,0.1-0.2,0-0.2-0.1c-1,0.4,0,0.3-1.6,0.8c-0.4,0.5-3.5,0.4-5.5,1.3c-0.5,0,0.2-0.3,0-0.3c-2.8,1-2.4,0.8-4.6,1.7
						l-2,0.3c1.5-0.1-0.3,0.6-1.8,1.2c0.5,0,1,0,1.3-0.1l-2.5,0.8c-0.3,0-0.1-0.1,0.3-0.4c-0.2,0.1-0.3,0.1-0.5,0.2
						c-1,0.1-0.5-0.2,0.1-0.5c0.3,0,0.7,0,1,0c0.6-0.3,1.1-0.7,1-0.9c-0.2,0.1-0.5,0.2-0.8,0.3c0.2-0.1,0.2-0.2,0.2-0.2
						c-0.1,0-0.3,0.1-0.8,0.3l-0.7-0.2l-0.1,0.2l-3.4,0.6c-2.3,1-4.3,2-8.1,3.1c0.9-0.5,0.1-0.5,0.1-0.8c1.1,0.1,2.9-0.9,4.9-1.3
						c-1,0.2-0.9,0-0.6-0.1l-3.5,1.2c0-0.3-0.8,0-1.8,0.1c0.8,0.3-2.6,1-4,1.5c-0.1-0.1,0.2-0.4,1.9-0.8c-2,0.1-2.4,1.2-4.4,1.4
						c0.4-0.1,0.7-0.1,0.8-0.3c-1,0.4-3.5,0.9-2.9,0.6l0.4-0.1c-2.9,0.7-8.7,2.2-9,2.7c0,0,0.2-0.6,0.4-0.7l-4.7,2.7
						c0.4-0.5-1.6-0.9,0.7-1.7c-0.7,0.1-1.5,0.3-3,0.8c0.5-0.1,1.3,0.2,0.7,0.4c-1.8,0-1.3,0.1-3.5,0.3c0.7-0.1,0.1,0.7-1,0.9
						c0.2-0.1-0.2-0.5,0.2-0.7l-2.6,1.2c0.7-0.3,0-0.5-0.6-0.5c0.3,0-2.4,0.6-3.1,0.8l1.2-0.2c-3.1,0.7-2.9,1.5-5.9,2.3
						c0.3-0.2,0.7-0.9-0.8-0.6c-0.6,0.5-2.8,2.1-5.5,3l-0.6,0l-2,0.7c1.2-0.7,4.6-2.5,6.5-3.4c-1.2,0.2-0.4-0.1-2.1,0.3
						c-0.6,0,0.9-0.5,1.4-0.6l-4.1,0.9c0.3,0.3-3,1.1-2.8,1.3l4.3-1.4c0.3,0.3-2.3,1.6-5.2,2.2c-0.8,0.1,0.4-0.7,0.3-0.8
						c-0.3,0.2-2.7,0.9-2.9,0.9l1.2-0.5c-1.6,0.3-2.5,1.1-4.5,1.3c-0.7,0.1-2.1,0.1-2.1,0.3c1.2,0.1,1.7,1.2,1,1.7
						c-0.2,0-3.6,0.5-4.4,0.5c-1.2,0,1.5-1.1,0.5-1.1c0,0.1-0.6,0.4-0.8,0.5c-0.7,0.1,0.2-0.3-1.3,0.1c-0.2,0.4-3.1,0.7-0.6,0.5
						c-1.4,0.5-1.6,0.3-3.3,0.8c0.6,0.1-1.4,1.1-2.8,1.6c0.1-0.1-0.3-0.1-0.5-0.1c-3,0.7-4.7,1-7.5,1.7c-0.3,0-1.7,0.2-1.1-0.1
						c-0.4,0.2-0.7,0.4-1.6,0.6c-1.8,0.1,1.9-0.5,0.6-0.6c-0.1,0.2-2.2,0.8-3.4,1.3c0.5,0.2,2.9-0.7,4.1-1.1
						c0.1,0.4-1.9,1.4-4.8,2.3c-2.3,0.7-1.1,0-1.5,0.2c-4.4,1-3.6,1.7-7.3,2.3c-1.5,0.1-0.2-0.5-0.6-0.6c1.9-0.6,3-0.6,4.3-0.9
						l-1.6,0.3c0.6-0.2,1.8-0.6,2.5-0.7c-1.3,0.1-7.4,1.8-10.9,2.5c-0.6,0.2-1.6,0.6-1.1,0.6l1.1-0.3c1,0-1.9,0.8-0.6,0.6
						c-1.4,0.5-3,1.1-5,1.5l-0.5-0.2c0.1,0.1,1.4-0.2,1.9-0.4c-0.8,0.3-3.2,0.4-4,1l1.5-0.2c-1.4,0.5-3.1,1.3-4.9,1.6
						c0.9,0.1,0.4-0.1,1.8-0.1c-1.2-0.1,4.6-1.1,2.7-1.1c1.4,0.1,2.3-0.4,4.1-0.5c-0.1-0.1-0.7,0,0.9-0.4c0.1,0,0.2-0.1,0.3-0.2
						c0,0,0.1,0,0.1,0c0,0-0.1,0-0.1,0c0.1,0,0.1,0,0,0c-0.4,0-0.7,0.1-0.8,0c0.7-0.4,3.1-1,3.9-1.3c0.9-0.2-0.3,0.2,0.2,0.2
						l1.2-0.5c0.2,0.2,2.5-0.2,0.4,0.4l1.9-0.5c1.1-0.2,2.7-0.5,3.6-0.8c0.9-0.2,2.2-0.8,1.5-0.4l2.9-0.9l0,0
						c2.9-0.7,5.9-1.9,9.4-2.3c1-0.3,2-0.6,3.6-1l0.4,0.1c1.3-0.4,3.9-0.8,4.3-1.1c1.5,0.2,6.2-1.4,8.4-1.9l0-0.3
						c1.5-0.4,3-0.8,4.9-1.4l-0.2-0.2c1.6-0.6,4.3-0.9,6.9-1.6c-0.2,0.1-0.8,0.3-1.3,0.3c3.2-0.3,6.5-2,9.4-2.4
						c0.7-0.3,1.2-0.4,1.7-0.4c-0.1,0-0.1,0-0.2,0.1c0.1,0,0.2,0,0.3-0.1c0.3,0,0.6-0.1,1-0.1c-0.3,0-0.6,0-0.8,0.1
						c0.5-0.1,1.4-0.4,2.1-0.6l0.4,0.1c0.1,0,0.1,0,0.2-0.1c0.8-0.1,0.6-0.3,0.1-0.3c0.4-0.1,0.8-0.3,1-0.4c0.7,0.2,2.1-0.7,3.1-0.5
						c0.5-0.3,4-1.2,4.3-1.7c0,0,0.3,0-0.1,0.1c0.9-0.2,1.8-0.4,2.6-0.7l0.5,0.2l1.9-0.9c1.2-0.1,1.8-0.1,0.6,0.4
						c2.8-1.1,2.3-0.7,4.6-1.7l-0.1,0.2c0.9-0.2,2.2-0.8,2.7-0.8c2-0.1,9.6-2.4,14.7-3.3c-1.1-0.3,2.4-0.3,2.5-0.8
						c0.3,0.1,1,0,0.3,0.3c2.5-0.8,3.9-0.7,5.5-1.6c0.3,0.1-0.5,0.3-0.2,0.3c0.2-0.1,0.8-0.3,1.1-0.3c0.3,0-0.3,0.2-0.7,0.4
						c2.6-0.7,2.7-1.2,2.8-1.6c1.4-0.1,2-0.3,2.9-0.8c0.5,0,1.3,0-0.3,0.4c0.9-0.2,5.6-1.2,5.6-1.5c0.3,0,1.3-0.3,1.5-0.4
						c2-0.5,2.2-0.5,4.2-1l-0.6,0.1c0.7-0.6,1.6-0.5,3.2-1l0,0c3.8-0.7,1.6-0.5,5.3-1.1l-0.3-0.2c0.2-0.6,3.3-0.5,5.4-1.2l-0.8,0.1
						c1.1-0.5,3.4-0.1,4.6-0.4c0.3,0-0.4,0.2-0.7,0.3c3.1-0.5,0.3-0.4,2.6-1c0.5,0.1-0.4,0.6,1.1,0.2c0.8-0.1,4.3-1.6,6.4-1.9
						c-0.5,0-1,0,0.1-0.4c1.6-0.5,4.5-0.6,5.8-1.4c0.2,0,0.3,0,0.3,0c1.2-0.4,4-1.2,4.6-1.6c1.3,0.5,7.6-2.3,7.7-1.6l3.8-1l-0.1,0.1
						c2.4-0.6,3.2-1,4.1-1.3c0.6-0.1,0.2,0.1,0.1,0.1c3.6-0.7,3.9-0.9,6.8-2l0.4,0.2c0.8-0.3,5.2-0.9,8.6-2.1c0,0-0.1,0.1-0.4,0.2
						c3.8-1.3,9.5-1.7,10.7-2.9l2.5-0.9c-3.3,0.8,0.4-0.5-1-0.3c1.3-0.4,3.5-0.6,1.9-0.1l-0.3,0c-0.5,0.6,4.2-0.9,4.2-0.5
						c6.6-1.7,13-3,19.2-4.6l-0.8-0.2l2.1-0.5c0.6-0.1,0.8,0.1-0.7,0.5c0.9,0,2.5-0.8,2.5-0.9c3-0.6-1.1,0.7-0.1,0.5l1.2-0.3l-0.3,0
						c1-0.4,1-0.6,2.9-1c1.2-0.2,0.7,0.1,1.1,0c0,0,0.2,0,0.7-0.2l2.7-0.6l-1.1,0c1.2-0.4,2.5-0.6,1.2-0.6c2,0,10.1-2.4,11.3-2.5
						c1.6-0.6,3.3-1,5.3-1.5c-0.5,0.1-0.9-0.2,0.9-0.6c-0.5,0.8,3.3-0.5,4.9-0.4c-1.4,0,5-1.3,2.9-1.3c1.5-0.3,0.2,0.2,1.3,0.1
						c3.4-1.1,7.8-1.8,12.1-3c0-0.1-0.7,0,0.2-0.4l2.4-0.2c0.8-0.3,0.7-0.7,2.3-0.8c-0.2,0-0.6,0,0-0.2c8.6-1.7,17.3-4.7,26.1-6.1
						c-1.2,0.1-0.4-0.1,0.5-0.3c-0.6,0.1,0-0.2-0.2-0.3l3.7-0.6c0.6-0.5,3.9-1,4.2-1.4l-1.1,0.3c1.4-0.7-2.3-0.3-2.2-0.8
						c-1.6,0.8-4.6,0.5-7.3,1.8c-0.6,0.1,0.5-0.3,0.1-0.3c-0.7,0.4-1.5,0.6-3.1,0.9l0.2-0.1c-4.4,1.2-6.4,1.5-11.4,2.6l0.4,0.1
						c-1.1,0.2-1.3,0.2-1.8,0.3c-1.1,0.7,3-0.7,2-0.1c-1.5-0.1-7.6,1.9-8.7,1.6c-1.7,0.4,0.6,0.1-1.1,0.6l-0.5,0l-0.4,0.3
						c-1.1,0.2-1.7,0.2-1.8,0.1c0.3-0.1,0.7-0.2,1-0.3c-1.4,0.2-4,1.1-4.4,1.1l1.6-0.3c-4.5,1.3-10,2.5-14.3,3.9l0.4,0
						c-3.3,1-2.7,0.6-6.3,1.6l0.1-0.1c-0.7,0.3-1.7,0.6-2.7,0.8c0.9-0.4-1.8,0.2-0.6-0.3c-3.6,1.1-1.7,0.6-4,1.6l-0.6,0
						c-0.8,0.4-0.8,0.5-2.6,1c1.5-0.5-1.2,0,0.4-0.6c-3.9,0.6-5.6,1.8-7.5,1.7c-1.6,0.9,3.4-0.6,2.4-0.2c0.9,0-1.4,0.7-2.6,1
						c-1.2,0.3-2.2-0.1-5.3,0.7c0.3-0.1,0.3-0.1,0.6-0.2c-1.2,0.2-2.2,0.7-3.7,0.9c-0.7,0.5-1.8,0.4-2,0.9l2.8-0.8
						c-1.6,0.5-3,1.3-5.7,1.8c0.2-0.1,0.9-0.4,1.5-0.6c-0.8,0.1-1.5,0.4-2.3,0.5c0.1-0.4,3.4-0.9,5.1-1.7c-0.9,0-3.2,1.1-2.4,0.5
						c-1.1,0.8-3.1,0.7-5,1.6l0.1-0.3c-0.3,0.1-1,0.4-1.6,0.5l1-0.6c-1.6,0.7-3.3,0.6-4.9,1.1c3.4-0.9,0.8,0.1,2.3-0.1
						c-4.1,1.4-2.6,0-7.2,1.3c0.6-0.2,2.4-0.5,1.5-0.1c-0.9,0.2-2.1,0.4-2.7,0.4c-3.1,0.8,0.5,0.1-0.7,0.6c-1.1,0-1.5,0.5-2.8,0.9
						l-0.1-0.2c-3.6,0.7-0.8,0.7-4,1.3l1.3-0.7l-1.6,0.5l0.3-0.4c-1.8,0.7-2.3,0.7-4.1,1.1c0.5,0.1-0.1,0.5-1.7,0.9
						c-1.1,0.1,0.5-0.4-1.7,0.2c0.5-0.3,1-0.6,2-0.6c0.1-0.1,0.5-0.3,0.5-0.4c-1.2,0.1-2.9,0.7-3.7,0.9c0.3-0.1,0.7-0.1,0.9-0.2
						l-3.1,1.1c-0.5,0-0.1-0.1,0.2-0.3c-0.6,0.2-1.1,0.4-2,0.7c0.2-0.3,0.1-0.4,1.4-0.9l-3,1c-0.2,0-1.6,0.2-1.3,0
						c-1.7,0.3-4.1,1.4-6.4,1.8c-0.1,0.1-0.3,0.2-0.8,0.3c-2.1,0.5-4.1,0.7-6.5,1.6l-1.5,0c-1.9,0.6,2-0.1-1.2,0.9
						c-2.3,0.7-0.9-0.1-1.8,0c-1.1,0.5-3,1.3-5.2,1.6C239.1,524.7,239.7,524.6,240.3,524.4z M216.1,530.7c0.5-0.2,1.4-0.6,1.7-0.5
						C217.4,530.6,216.9,530.6,216.1,530.7z M179.4,540.6c0.3-0.2,0.9-0.3,1.5-0.3C180.5,540.4,179.9,540.5,179.4,540.6z
						 M77.1,568.1C77.1,568,77.1,568,77.1,568.1C78.2,567.9,77.8,567.9,77.1,568.1z M74.9,568.5c-0.2,0.1-0.2,0.1-0.1,0.1
						c0.1-0.1,0.6-0.2,1.2-0.3C75.8,568.3,75.5,568.3,74.9,568.5z M308.6,509.5l-0.4,0C309.1,509.3,308.9,509.4,308.6,509.5z"/>
					<path class="st0" d="M183.5,539.2c0.1,0,0.2,0,0.2,0.1C183.9,539.2,183.9,539.1,183.5,539.2z"/>
					<path class="st0" d="M255.4,520.5C255.4,520.5,255.4,520.5,255.4,520.5c0.1,0,0.1-0.1,0.1-0.1L255.4,520.5z"/>
					<path class="st0" d="M108.1,558c0.5-0.1,0.7-0.1,0.9-0.1C109,557.9,108.8,557.9,108.1,558z"/>
					<path class="st0" d="M63.5,571.8l1.4-0.4c-0.7,0.2-0.9,0.2-1.3,0.2C63.6,571.7,63.9,571.7,63.5,571.8z"/>
					<path class="st0" d="M51,573.4c-0.2,0.1-0.4,0.1-0.6,0.2l0.1,0.1C51.3,573.5,51.9,573.2,51,573.4z"/>
					<path class="st0" d="M62,571.3c-0.2-0.2-1,0.1-2,0.4c0.1,0,0.1,0,0.2,0C59.9,572.1,61,571.7,62,571.3z"/>
					<path class="st0" d="M59.8,571.8c-0.3,0.1-0.6,0.2-0.9,0.2C58.8,572.2,59.2,572,59.8,571.8z"/>
					<path class="st0" d="M72.2,569.3c-0.5,0.1-0.2,0.3-0.5,0.3C71.2,570,74.7,568.6,72.2,569.3z"/>
					<polygon class="st0" points="61,570.9 61.4,571.1 61.9,570.7 					"/>
					<path class="st0" d="M68.8,569.1l-1.6,0.3c0,0-0.2,0.1-0.4,0.2C67.8,569.4,68.8,569.2,68.8,569.1z"/>
					<path class="st0" d="M66.8,569.7c-0.5,0.1-1,0.2-1.2,0.4C65.8,569.9,66.4,569.8,66.8,569.7z"/>
					<polygon class="st0" points="63.1,570.3 63.6,570.2 64.7,570 					"/>
					<path class="st0" d="M85.6,565l1.7-0.5c0.2-0.1-0.3-0.1-1,0.1C85.9,564.8,85.3,564.9,85.6,565z"/>
					<path class="st0" d="M80.2,565.6c0.5-0.1,0.5,0,0.8,0l0-0.3L80.2,565.6z"/>
					<path class="st0" d="M85.2,564.3c0.1-0.1,2.4-0.9,0.3-0.3C85.3,564.1,83.6,564.6,85.2,564.3z"/>
					<polygon class="st0" points="111,558.2 110.5,558.3 110.7,558.8 					"/>
					<path class="st0" d="M133.3,551.3c-2,0.4-0.4,0.4-2.3,0.7c-0.4,0.2,1.5-0.3,1.1,0C133.3,551.6,133.9,551.5,133.3,551.3z"/>
					<path class="st0" d="M132.1,552c-0.2,0.1-0.4,0.1-0.6,0.2C131.8,552.1,132,552.1,132.1,552z"/>
					<polygon class="st0" points="387.9,489.8 389.2,489.6 388.3,489.6 					"/>
					<path class="st0" d="M390.3,488.8l0.4,0.2l0.7-0.5C391.1,488.7,390.5,488.8,390.3,488.8z"/>
					<path class="st0" d="M212.3,531l-0.1,0.1c0.2,0,0.5,0,1.1-0.2L212.3,531z"/>
					<polygon class="st0" points="230,526.8 229.7,526.9 230.3,527 					"/>
					<path class="st0" d="M244.7,522.7c-0.6,0.1-1.3,0.4-1.9,0.5C244.1,522.8,244.9,523,244.7,522.7z"/>
				</g>
			</g>
		</g>
	</g>
</g>
<g>
	<g>
		<g>
			<g>
				<g>
					<path class="st0" d="M392.4,462.9c0,0.7,0.2,0.4,0.2,0.5C392.6,462.3,392.3,463,392.4,462.9z"/>
					<polygon class="st0" points="391.9,451.6 392,451.8 391.8,450.2 					"/>
					<path class="st0" d="M391.9,441.1c-0.4,1,0.1,3.8-0.1,5.7l-0.1,0.3l0.3,0.8C392,445.7,391.8,442.7,391.9,441.1z"/>
					<path class="st0" d="M392.7,435.5c-0.1,0.3-0.1-1.2,0,1.3c0-0.1,0-0.2,0-0.2C392.7,436.3,392.7,436,392.7,435.5z"/>
					<path class="st0" d="M392.7,436.5C392.7,437.6,392.8,435.8,392.7,436.5L392.7,436.5z"/>
					<path class="st0" d="M392.6,431.4l0.1,1.5c0.1-0.3,0.1-1.6,0.2-1.1C392.8,430.2,392.7,430.5,392.6,431.4z"/>
					<path class="st0" d="M392.3,430l0.1,0.8C392.4,430.6,392.4,430.4,392.3,430z"/>
					<path class="st0" d="M392.5,432.4l-0.1-1.6c-0.1,0.2-0.2,0.2,0,0.7C392.3,431.4,392.4,431.7,392.5,432.4z"/>
					<path class="st0" d="M392.5,433.3c-0.1,0.8-0.1,1.9-0.2,0.4C392.3,436.5,392.5,436.1,392.5,433.3z"/>
					<path class="st0" d="M391.6,440.5l-0.1,1.1l0.1,1C391.5,442.1,391.7,440.5,391.6,440.5z"/>
					<path class="st0" d="M392.8,422.3c-0.1-0.1-0.2,0.5-0.3,0.6l0.1,1.1C392.6,423.4,392.7,422.3,392.8,422.3z"/>
					<path class="st0" d="M392.5,422.9l-0.1-1.6C392.3,422.7,392.4,423,392.5,422.9z"/>
					<polygon class="st0" points="391.9,429.7 392.2,432.4 391.9,429.2 					"/>
					<polygon class="st0" points="392.8,416.1 393,417 392.7,415.4 					"/>
					<path class="st0" d="M392.8,412c0.1,0.7,0.2-0.9,0.3-0.2c0-1.1-0.2-2.1-0.3-2.9C392.9,409.8,392.9,410.7,392.8,412z"/>
					<path class="st0" d="M392.7,407.4c0,0.5,0.1,0.9,0.2,1.4C392.8,408.4,392.8,407.9,392.7,407.4z"/>
					<path class="st0" d="M392.4,418.5c0-0.1,0.2-0.4,0.2-1.3l-0.2,0.6C392.4,418,392.4,418.3,392.4,418.5z"/>
					<path class="st0" d="M392.4,417.9L392.4,417.9c0-0.7,0-1.2,0-1.4C392.4,416.7,392.4,417.1,392.4,417.9z"/>
					<path class="st0" d="M392.4,418.6c0-0.1,0-0.1,0-0.2C392.4,418.5,392.4,418.6,392.4,418.6z"/>
					<path class="st0" d="M392.1,425.5c-0.1-1-0.2-2.9-0.4-1C391.9,425.2,392,424.1,392.1,425.5z"/>
					<path class="st0" d="M392.1,419.4l0,1.7c0.1,0,0.1-0.3,0.2,0.1L392.1,419.4z"/>
					<polygon class="st0" points="392.1,418.6 392.1,419.4 392.1,418.8 					"/>
					<path class="st0" d="M392.5,410.3c-0.1-0.7-0.1-1.6-0.1-2.5c0,1-0.1,2-0.1,3C392.4,411,392.5,411.4,392.5,410.3z"/>
					<path class="st0" d="M392.4,414c0-0.1,0-0.1,0-0.2C392.4,413.9,392.4,414,392.4,414z"/>
					<path class="st0" d="M392.4,398.8c0,0.1,0,0.1,0,0.1c0,0,0,0,0,0L392.4,398.8z"/>
					<path class="st0" d="M392.3,411c0,0.7,0,1.2,0.1,1.6c0-0.6,0-1.1,0-1.8C392.3,410.8,392.2,410.8,392.3,411z"/>
					<path class="st0" d="M392.6,404.9c0,0.4-0.1,0.8-0.1,1.3C392.5,405.8,392.6,405,392.6,404.9z"/>
					<path class="st0" d="M392.5,413.6c0,0,0,0.1,0,0.1C392.5,413.5,392.5,413.5,392.5,413.6z"/>
					<path class="st0" d="M392.5,413.6c0-0.4-0.1-0.7-0.1-1c0,0.5,0,0.9,0.1,1.2C392.4,413.7,392.4,413.7,392.5,413.6z"/>
					<path class="st0" d="M391,396.1c0.2,0.1,0.4,2.1,0.2,3.8c0.1,1.7,0.8,0.6,1.2-0.9c-0.1-0.1-0.2-0.1-0.3-1.8
						c-0.1,0.6-0.3,3.8-0.4,2.3c-0.1-2.3,0.1-1.8,0.2-2.9c-0.2,0.9-0.4-2.9-0.7-2.4l0.1,2C391.1,396.3,391,395.5,391,396.1z"/>
					<path class="st0" d="M392.3,402.2l0,0.7c0-0.8,0.1-1.4,0.3-2.4c-0.1-1.2-0.2-1.4-0.2-1.5l0,3.4L392.3,402.2z"/>
					<path class="st0" d="M392.3,406.1c-0.2-0.5-0.3-2.2-0.5-1.2c0,2.1,0.2,1.4,0.3,2.7C392,404.2,392.2,408.5,392.3,406.1
						c0,0.7,0,1.3,0,1.8c0-0.6,0.1-1.2,0.1-1.7c0,0,0,0.1,0,0.1l0,0c0,0,0,0,0,0c0,0.1,0,0.2,0,0c0,0,0-0.1,0-0.1
						C392.4,406.2,392.4,406.1,392.3,406.1c0-1,0.1-0.2,0.1,0.1c0,0,0,0,0,0c0,0,0,0,0,0l-0.1-3.3
						C392.3,403.6,392.3,404.5,392.3,406.1z"/>
					<path class="st0" d="M391.2,422.7c0-0.1,0-0.1,0.1-0.1C391.3,422.4,391.3,422.3,391.2,422.7z"/>
					<path class="st0" d="M391.4,421.3c0,0.2,0.1,0.4,0.1,1.2c-0.1,0.7-0.1,0-0.2,0c0.1,0.5,0.2,1.7,0.3,0.2l0-0.2
						c0.1-1.3,0.3-3.1,0.4-2.8C391.7,420.1,391.6,420.5,391.4,421.3z"/>
					<path class="st0" d="M391.8,413.6l-0.1-2.8l-0.2,1.4l0.1-0.1C391.6,413.8,391.7,413.4,391.8,413.6z"/>
					<polygon class="st0" points="392.5,398.5 392.7,398.9 392.4,397.3 					"/>
					<polygon class="st0" points="392.4,394.9 392.6,395.1 392.5,394.1 					"/>
					<path class="st0" d="M390,192.3l-0.1-0.8C389.9,191.9,390,192.1,390,192.3z"/>
					<path class="st0" d="M390,198.2l0.1,0.1C390,198.1,390,197.9,390,198.2z"/>
					<path class="st0" d="M392.4,306.7c0.2-1.2,0.5-2.5,0.2-2.4l-0.2,0.4C392.5,305.6,392.5,306.2,392.4,306.7z"/>
					<path class="st0" d="M391.1,246.3c0,0.1,0,0.2-0.1,0.3c0.1,0.3,0.1,0.6,0.2,0.8C391.2,247.1,391.2,246.8,391.1,246.3z"/>
					<path class="st0" d="M390.2,245.5l0.1-1.6C390.3,244.3,390.3,244.8,390.2,245.5z"/>
					<path class="st0" d="M389.8,160.2l-0.2-0.9C389.5,160.7,389.6,160.1,389.8,160.2z"/>
					<path class="st0" d="M392.4,358.2c0.1-1,0.1-1.8,0.1-2.5C392.4,356.8,392.2,357.8,392.4,358.2z"/>
					<path class="st0" d="M392.3,194.6c0-0.5-0.1-0.7-0.1-0.7C392.2,194.4,392.2,194.7,392.3,194.6z"/>
					<path class="st0" d="M392.5,352.7c0,0.2,0,0.4-0.1,0.5c0,0.7,0.1,1.5,0.1,2.4C392.6,354.7,392.6,353.7,392.5,352.7z"/>
					<path class="st0" d="M389.9,43.8c0-0.1,0-0.2,0-0.3C389.9,43.5,389.9,43.6,389.9,43.8z"/>
					<path class="st0" d="M392.1,9.9c0,0.3,0,0.9,0,1.4C392.2,11,392.2,10.6,392.1,9.9z"/>
					<path class="st0" d="M392.5,380.5C392.6,381.2,392.6,380.6,392.5,380.5L392.5,380.5z"/>
					<path class="st0" d="M391.7,384.2c0-0.2-0.1-0.3-0.1-0.3C391.6,383.9,391.7,384.1,391.7,384.2z"/>
					<path class="st0" d="M391.1,345.1C391.1,345.1,391.1,345,391.1,345.1C391.1,345.2,391.1,345.2,391.1,345.1z"/>
					<path class="st0" d="M392.4,381.6c0-0.3,0-0.6,0.1-1C392.5,380.8,392.5,381.1,392.4,381.6z"/>
					<path class="st0" d="M392.5,381.5c0,0.3,0,0.5,0,0.7C392.6,382.2,392.6,382.2,392.5,381.5z"/>
					<path class="st0" d="M392.5,379.4c0,0.4,0,0.8,0,1.2c0-0.1,0-0.2,0-0.2C392.5,380.3,392.5,379.9,392.5,379.4z"/>
					<path class="st0" d="M390.5,106.2c0-0.1,0-0.1,0-0.2C390.4,105.2,390.5,105.6,390.5,106.2z"/>
					<path class="st0" d="M390.2,286.9C390.2,287,390.2,287,390.2,286.9C390.2,287,390.2,286.9,390.2,286.9L390.2,286.9z"/>
					<path class="st0" d="M390,284.2c0.3,1.2,0.2,1.8,0.2,2.7l0.6-0.9L390,284.2z"/>
					<path class="st0" d="M389.9,178.2l-0.2,1.9c-0.3-2.3-0.2-4-0.5-2.2c0.7,0.3,0.1,7.5,0.7,7.7l-0.1,1.3c0-0.4,0-0.4,0-0.8
						c-0.3,2.5,0.5,1.8,0.4,5c-0.1,1.1-0.2,1.9-0.2,1.1l0.2,2.5c0,0.7-0.1,0.5-0.1-0.2l0.1,3.8l0,0c0.1,0.5,0.3,1.8,0.3,2.3
						c-0.1,1-0.1-0.5-0.2-0.2l0.2,2.1c-0.2,0.8-0.3-0.9-0.3-2.3c-0.7,1.9,0.2,1.7-0.2,5.9l-0.1-2c-0.4,1.3-0.2,2.8-0.5,5
						c0.1-0.5,0.6-4.4,0.8-2.2c-0.1,0.6-0.1,1.5,0.1,2.7c-0.2,0-0.2,1.2-0.2,2.7l-0.3-0.1c0.1,1.6,0.3,1.5,0.4,2.4
						c0,1.8-0.3,2.2-0.5,2.6c-0.1,2.9,0.4-2,0.5,1.4c-0.1,2.4,0,4.1,0.2,6.9c-0.1,1.7-0.2-0.3-0.3,0.3l0.3,1.5
						c0,0.4-0.1,0.2-0.1,0.2c0.1,1.2,0.3,0.1,0.4,2.1c0.4,0.5-0.5,4-0.1,6.5c-0.1,0.6-0.2-0.3-0.3-0.1c0.3,3.3,0.2,2.9,0.5,5.6
						l-0.2,2.3c0.2-1.7,0.5,0.5,0.8,2.4c0.1-0.6,0.2-1.1,0.3-1.5l0.2,3.1c-0.1,0.4-0.2,0.1-0.3-0.4c0,0.2,0.1,0.4,0.1,0.6
						c-0.1,1.1-0.3,0.5-0.5-0.3c0.1-0.4,0.1-0.7,0.2-1.1c-0.2-0.8-0.4-1.5-0.6-1.3c0,0.2,0.1,0.6,0.1,1c-0.1-0.2-0.1-0.3-0.1-0.2
						c0,0.1,0,0.4,0.1,0.9l-0.4,0.7l0.1,0.2l-0.2,4c0.4,2.9,0.9,5.4,1,9.9c-0.3-1.1-0.4-0.2-0.7-0.3c0.3-1.2-0.1-3.5-0.1-5.9
						c0,1.2-0.2,1-0.2,0.6l0.3,4.2c-0.3-0.1-0.2,0.9-0.3,2c0.5-0.8,0.3,3.1,0.5,4.8c-0.2,0.1-0.3-0.3-0.3-2.4
						c-0.4,2.3,0.6,3,0.3,5.2c0-0.5,0-0.8-0.1-1c0.1,1.2,0,4.1-0.1,3.4l0-0.5c-0.1,3.4,0,10.3,0.4,10.8c-0.1,0-0.5-0.4-0.6-0.6
						l1.4,6c-0.4-0.5-1.2,1.5-1.4-1.3c-0.1,0.8-0.1,1.8,0,3.5c0.1-0.5,0.5-1.4,0.6-0.6c-0.4,2.1-0.2,1.4-0.6,4
						c0.1-0.8,0.7,0.1,0.6,1.4c-0.1-0.2-0.6,0.1-0.6-0.4l0.6,3.2c-0.1-0.8-0.5-0.1-0.6,0.6c0.1-0.3,0,2.8,0,3.7l0.1-1.4
						c-0.1,3.7,0.8,3.6,0.8,7.2c-0.1-0.4-0.7-1.1-0.8,0.8c0.3,0.8,1.4,3.7,1.6,7l-0.2,0.6l0.2,2.5c-0.4-1.5-1.3-5.8-1.7-8.2
						c-0.1,1.4-0.2,0.4-0.2,2.4c-0.2,0.7-0.2-1.1-0.2-1.7l-0.1,4.8c0.3-0.2,0.3,3.6,0.6,3.5l-0.3-5.2c0.3-0.2,1,3,0.9,6.4
						c-0.1,0.9-0.6-0.6-0.7-0.6c0.1,0.4,0.2,3.2,0.1,3.5l-0.2-1.4c-0.1,1.9,0.4,3.1,0.1,5.3c0,0.8-0.4,2.3-0.2,2.5
						c0.4-1.3,1.6-1.5,1.9-0.7c0,0.3-0.4,4.1-0.6,5c-0.3,1.3-0.7-1.9-1-0.8c0.1,0,0.2,0.8,0.2,1.1c-0.1,0.8-0.3-0.3-0.2,1.4
						c0.3,0.3,0,3.6,0.3,0.8c0.1,1.7-0.1,1.9-0.1,3.9c0.2-0.7,0.7,1.8,0.8,3.6c-0.1-0.1-0.2,0.3-0.3,0.5c0,3.6-0.2,5.5-0.2,8.8
						c-0.1,0.3-0.2,1.9-0.3,1.2c0.1,0.5,0.2,0.9,0.2,1.9c-0.3,2,0-2.3-0.4-0.8c0.2,0.1,0.3,2.7,0.4,4.1c0.3-0.5,0.1-3.4-0.1-4.8
						c0.4,0,0.9,2.5,1.1,6c0.1,2.8-0.3,1.2-0.2,1.7c-0.1,5.2,0.7,4.4,0.4,8.7c-0.3,1.7-0.5,0.1-0.7,0.5c-0.1-2.3,0.2-3.5,0.2-5
						l-0.1,1.9c-0.1-0.7-0.2-2.2-0.1-3c-0.2,1.4,0,8.8-0.3,12.8c0.1,0.7,0.2,1.9,0.3,1.4l0-1.3c0.2-1.2,0.3,2.4,0.4,0.8
						c0.2,1.7,0.4,3.6,0.3,6l-0.3,0.5c0.1-0.1,0.2-1.6,0.1-2.2c0.1,1-0.4,3.7,0,4.8l0.2-1.7c0.2,1.7,0.5,3.8,0.4,5.9
						c0.3-1,0-0.5,0.3-2c-0.4,1.3,0-5.4-0.4-3.3c0.4-1.5,0.2-2.7,0.5-4.7c-0.1,0.1-0.2,0.7-0.1-1.1c0-0.1-0.1-0.3-0.1-0.4
						c0-0.1,0-0.1,0-0.1c0,0,0,0.1,0,0.1c0-0.1,0-0.1,0,0c0,0.4-0.1,0.8-0.2,0.9c-0.2-0.9-0.2-3.7-0.3-4.7c0-1.1,0.1,0.4,0.2-0.1
						l-0.2-1.4c0.2-0.1,0.4-2.8,0.5-0.3l0-2.2c0.1-1.3,0.2-3.1,0.1-4.3c0-1.1-0.2-2.7-0.1-1.8l-0.1-3.5l0.1,0c0-3.5-0.4-7.1,0-11.1
						c-0.1-1.2-0.1-2.4-0.1-4.3l0.2-0.4c-0.1-1.5,0.2-4.5,0-5.1c0.5-1.6,0.1-7.3,0.2-9.9l-0.3-0.1c0-1.8-0.1-3.6-0.2-5.8l-0.2,0.1
						c-0.2-1.9,0.2-5,0.1-8.1c0.1,0.2,0.1,1,0,1.5c0.5-3.7-0.4-7.7,0-11.1c-0.1-0.8-0.1-1.4,0-2c0,0.1,0,0.1,0,0.2
						c0-0.1,0-0.2,0-0.3c0-0.4,0.1-0.7,0.1-1.2c-0.1,0.3-0.1,0.7-0.1,1c0-0.6,0-1.6-0.1-2.6l0.2-0.4c0-0.1,0-0.1,0-0.2
						c0.1-0.9-0.1-0.8-0.3-0.3c0-0.5-0.1-0.9-0.1-1.3c0.4-0.8-0.1-2.5,0.3-3.5c-0.2-0.6-0.2-4.8-0.6-5.3c0.1,0,0.1-0.3,0.1,0.2
						c0-1.1,0.1-2.1,0-3.1l0.3-0.5l-0.4-2.3c0.2-1.4,0.3-2,0.5-0.6c-0.4-3.4-0.1-2.7-0.5-5.6l0.2,0.1c0-1-0.3-2.7-0.1-3.3
						c0.4-2.3,0.1-11.4,0.4-17.2c-0.6,1.1,0.3-2.7-0.2-3c0.1-0.3,0.2-1.2,0.3-0.2c-0.1-3,0.2-4.5-0.2-6.6c0.1-0.3,0.2,0.6,0.3,0.3
						c0-0.2-0.1-1,0-1.3c0.1-0.3,0.1,0.4,0.2,0.9c0-3.1-0.4-3.4-0.8-3.6c0.2-1.6,0.2-2.3-0.1-3.5c0.1-0.5,0.3-1.4,0.3,0.5
						c0-1.1,0.2-6.6-0.1-6.7c0.1-0.3,0-1.5,0-1.8c0-2.4,0-2.6,0-5l-0.1,0.7c-0.4-0.9-0.1-2-0.1-3.9l0,0.1c0.3-4.4-0.1-1.9,0.2-6.2
						l-0.2,0.2c-0.5-0.4,0.3-3.8,0.1-6.3l-0.1,0.9c-0.2-1.4,0.7-3.8,0.8-5.2c0-0.3,0.1,0.5,0.1,0.9c0.3-3.6-0.3-0.5-0.4-3.1
						c0.2-0.5,0.4,0.6,0.5-1.2c0.1-0.9-0.6-5.2-0.2-7.7c-0.1,0.5-0.3,1.1-0.4-0.2c0-1.9,0.5-5.2,0.1-6.9c0-0.2,0.1-0.3,0.1-0.3
						c-0.1-1.5-0.2-4.7-0.4-5.6c0.8-1.3-0.4-9.1,0.4-9l0-4.5l0.1,0.1c0.1-2.9-0.1-3.9-0.3-4.9c0.1-0.7,0.1-0.2,0.2-0.1
						c0.2-4.2,0.1-4.6-0.3-8.1l0.2-0.4c-0.1-1,0.4-6.1,0.1-10.2c0,0,0.1,0.1,0.1,0.5c-0.3-4.6,0.7-11.1-0.2-12.8l-0.2-3
						c-0.1,3.9-0.4-0.6-0.5,1c-0.1-1.6,0.3-4,0.3-2.1l0,0.3c0.5,0.7,0.2-4.9,0.5-4.8c0-7.8,0.2-15.3,0.3-22.6l-0.4,0.8l0-2.5
						c0.1-0.7,0.3-0.9,0.3,0.9c0.2-1-0.2-3-0.3-3.1c0.1-3.5,0.4,1.4,0.4,0.3l0-1.5l0,0.3c-0.1-1.2-0.3-1.3-0.3-3.5
						c0.1-1.4,0.2-0.7,0.2-1.2c0,0,0-0.2,0-0.8l0-3.2l-0.3,1.3c-0.1-1.4,0-3-0.3-1.5c0.5-2.2,0.2-11.9,0.3-13.2
						c-0.2-2-0.2-3.9-0.2-6.4c-0.1,0.6-0.4,1-0.3-1.1c0.7,0.8,0.3-3.8,0.8-5.5c-0.3,1.5-0.1-5.9-0.5-3.6c0.1-1.7,0.3-0.1,0.4-1.4
						c-0.3-4.2,0.2-9.2,0.1-14.3c-0.1-0.1-0.2,0.8-0.4-0.3l0.4-2.7c0-1-0.5-0.9-0.2-2.8c-0.1,0.3-0.2,0.7-0.2,0
						c0.4-10.1-0.4-20.6,0.5-30.8c-0.2,1.4-0.2,0.5-0.2-0.6c0,0.7-0.2,0-0.3,0.1l0.3-4.3c-0.3-0.8,0-4.6-0.3-5l0.1,1.4
						c-0.4-1.8-0.8,2.5-1.3,2.3c0.4,2-0.6,5.3,0,8.6c-0.1,0.7-0.2-0.6-0.3-0.2c0.2,0.8,0.2,1.9,0.2,3.7l-0.1-0.2
						c0.1,5.3-0.2,7.5-0.3,13.5l0.2-0.4c0,1.3-0.1,1.5-0.2,2.1c0.4,1.5,0-3.6,0.4-2.2c-0.5,1.7,0,9-0.6,10.1c0,2,0.3-0.6,0.3,1.4
						l-0.1,0.5l0.2,0.5c0,1.3-0.2,1.9-0.3,2c0-0.3,0-0.9,0-1.2c-0.2,1.7,0.1,4.7,0,5.3l0.1-1.9c0.1,5.3-0.1,11.9,0.2,17l0.1-0.4
						c0.2,3.9-0.1,3.2,0,7.5l0-0.2c0.1,0.9,0.2,2,0.2,3.2c-0.1-1.1-0.3,2.1-0.4,0.6c0.2,4.3,0.2,2.1,0.6,4.9l-0.2,0.7
						c0.2,1,0.3,1,0.3,3.2c-0.2-1.8-0.3,1.4-0.5-0.6c-0.4,4.5,0.4,6.7-0.2,8.8c0.5,2.1,0.3-3.9,0.4-2.8c0.2-1,0.4,1.7,0.3,3.1
						c0,1.4-0.7,2.5-0.6,6.1c0-0.4,0-0.4,0-0.7c-0.1,1.4,0.2,2.7,0,4.3c0.3,0.9,0,2.2,0.4,2.4l-0.1-3.3c0.1,1.9,0.6,3.7,0.3,6.8
						c-0.1-0.2-0.2-1.2-0.2-1.8c-0.1,0.9,0.1,1.8,0,2.7c-0.4-0.3-0.1-4.1-0.4-6.1c-0.2,1,0.3,3.8-0.1,2.8c0.5,1.5-0.1,3.6,0.3,6.1
						l-0.2-0.2c0,0.4,0.1,1.2,0.1,1.9l-0.3-1.3c0.3,2-0.2,3.9-0.1,5.8c0-4,0.3-0.9,0.5-2.6c0.3,5-0.6,2.8-0.5,8.4
						c0-0.8,0.1-2.8,0.3-1.6c0,1.1-0.1,2.4-0.3,3.1c0,3.7,0.2-0.6,0.4,1c-0.3,1.3,0.1,1.8,0.2,3.4l-0.2,0c-0.2,4.2,0.5,1.1,0.3,4.9
						l-0.3-1.6l0.1,2l-0.3-0.4c0.2,2.1,0.2,2.8,0.1,4.9c0.2-0.5,0.4,0.3,0.4,2.1c-0.1,1.3-0.2-0.7-0.2,1.9c-0.2-0.6-0.3-1.2-0.1-2.4
						c-0.1-0.1-0.2-0.6-0.2-0.7c-0.2,1.4,0,3.4,0,4.4c0-0.4,0-0.8,0.1-1l0.3,3.8c-0.1,0.6-0.2,0.1-0.2-0.3c0,0.8,0.1,1.3,0.2,2.4
						c-0.2-0.3-0.4-0.2-0.5-1.8l0.2,3.6c-0.1,0.2-0.2,1.9-0.3,1.4c-0.1,2,0.4,4.9,0.2,7.6c0,0.1,0.1,0.4,0.1,1c0,2.5-0.3,4.7,0,7.7
						l-0.4,1.7c0.1,2.3,0.4-2.3,0.6,1.6c0.1,2.7-0.3,1-0.4,2c0.2,1.4,0.5,3.7,0.3,6.3C389.9,179.7,390,179,389.9,178.2z
						 M390.1,206.9c-0.1-0.6-0.2-1.7-0.1-2.1C390.3,205.5,390.2,206,390.1,206.9z M390.7,250.6c-0.1-0.4,0-1.1,0.1-1.8
						C390.7,249.3,390.7,249.9,390.7,250.6z M392.3,372.1C392.3,372.1,392.3,372.1,392.3,372.1C392.4,370.8,392.4,371.3,392.3,372.1
						z M392.2,374.7c0,0.3,0.1,0.2,0.1,0.1c-0.1-0.2-0.1-0.8,0-1.4C392.2,373.6,392.2,373.9,392.2,374.7z M392.1,98l-0.1,0.5
						C392,97.4,392.1,97.7,392.1,98z"/>
					<path class="st0" d="M390.3,245.6c0-0.2,0.1-0.2,0.1-0.2C390.4,245.2,390.4,245.2,390.3,245.6z"/>
					<path class="st0" d="M389.8,160.4C389.8,160.4,389.8,160.3,389.8,160.4c0-0.1,0-0.2,0-0.2L389.8,160.4z"/>
					<path class="st0" d="M390.2,334.8c0-0.5,0.1-0.8,0.1-1C390.3,333.7,390.2,334,390.2,334.8z"/>
					<path class="st0" d="M392.6,388.4l-0.1-1.7c0,0.8,0,1.1-0.1,1.5C392.6,388.2,392.6,387.8,392.6,388.4z"/>
					<path class="st0" d="M391.2,402.7c0,0.2,0,0.5,0,0.7l0.1-0.1C391.3,402.3,391.2,401.6,391.2,402.7z"/>
					<path class="st0" d="M391.8,389.9c-0.2,0.1-0.1,1.2-0.1,2.3c0-0.1,0-0.1,0-0.2C392,392.4,391.9,391.1,391.8,389.9z"/>
					<path class="st0" d="M391.8,392.5c0,0.4,0,0.7,0,1.1C391.9,393.7,391.8,393.1,391.8,392.5z"/>
					<path class="st0" d="M392.4,378c-0.1,0.5,0.3,0.3,0.2,0.7C392.8,379.2,392.2,375,392.4,378z"/>
					<polygon class="st0" points="391.2,390.8 391.4,390.4 391.2,389.8 					"/>
					<path class="st0" d="M391.4,381.7l-0.1,1.8c0,0,0.1,0.2,0.1,0.5C391.4,382.9,391.4,381.7,391.4,381.7z"/>
					<path class="st0" d="M391.4,384c0,0.6,0,1.2,0,1.5C391.4,385.2,391.4,384.5,391.4,384z"/>
					<polygon class="st0" points="391.1,388.3 391.2,387.8 391.2,386.5 					"/>
					<path class="st0" d="M391.4,361.8l-0.1-2c-0.1-0.2-0.1,0.3-0.1,1.1C391.3,361.4,391.3,362.2,391.4,361.8z"/>
					<path class="st0" d="M390.7,367.9c0.1-0.5,0.1-0.6,0.2-0.9l-0.3-0.1L390.7,367.9z"/>
					<path class="st0" d="M390.6,362.1c-0.1-0.2-0.2-2.9-0.2-0.4C390.5,361.9,390.6,363.9,390.6,362.1z"/>
					<polygon class="st0" points="391,331.7 391,332.2 391.6,332.1 					"/>
					<path class="st0" d="M389.8,304.9c-0.1,2.4,0.3,0.6,0.2,2.7c0.1,0.6,0.1-1.8,0.2-1.2C390.1,305,390.2,304.2,389.8,304.9z"/>
					<path class="st0" d="M390.2,306.4c0,0.2,0,0.5,0.1,0.7C390.3,306.8,390.2,306.6,390.2,306.4z"/>
					<polygon class="st0" points="392.4,4.2 392.5,2.7 392.3,3.7 					"/>
					<path class="st0" d="M392,1.3l0.3-0.4L392.1,0C392.1,0.3,392.1,1,392,1.3z"/>
					<path class="st0" d="M389.4,211.2l0.1,0.1c0.1-0.2,0.1-0.6,0.1-1.3L389.4,211.2z"/>
					<polygon class="st0" points="389.7,190.4 389.7,190.7 390,190.1 					"/>
					<path class="st0" d="M389.3,172.9c0,0.7,0.1,1.6,0,2.3C389.3,173.6,389.7,172.7,389.3,172.9z"/>
				</g>
			</g>
		</g>
	</g>
</g>
</svg>
