<svg xmlns="http://www.w3.org/2000/svg" width="930.435" height="147.628" viewBox="0 0 930.435 147.628">
  <g id="グループ化_141" data-name="グループ化 141" transform="translate(-587 -689)">
    <path id="パス_159" data-name="パス 159" d="M712.422,210.925A34.7,34.7,0,0,1,698.789,238.6s19.467,13.335,19.467,35.885c0,24.606-19.467,45.108-46.725,45.108s-46.726-20.5-46.726-45.108c0-22.55,19.468-35.885,19.468-35.885a34.7,34.7,0,0,1-13.633-27.678c0-20.5,17.528-38.957,40.891-38.957S712.422,190.423,712.422,210.925Zm-68.149,63.563c0,13.327,11.685,25.63,27.259,25.63s27.258-12.3,27.258-25.63-11.685-25.63-27.258-25.63S644.273,261.161,644.273,274.488Zm5.843-63.563c0,11.279,8.76,20.5,21.416,20.5s21.415-9.223,21.415-20.5-8.76-20.5-21.415-20.5S650.116,199.646,650.116,210.925Z" transform="translate(-37.805 517.032)" fill="#333537"/>
    <path id="パス_160" data-name="パス 160" d="M693.552,177.136v12.405H675.186v51.885H661.414V189.541H643.041V177.136Z" transform="translate(77.978 556.901)" fill="#333537"/>
    <path id="パス_161" data-name="パス 161" d="M707.207,241.427h-13.78v-26.17H665.876v26.17H652.1v-64.29h13.772v25.715h27.552V177.136h13.78Z" transform="translate(138.607 556.901)" fill="#333537"/>
    <path id="パス_162" data-name="パス 162" d="M710.627,229.028v12.4h-48.21v-64.29h47.292v12.405h-33.52V202.4h26.171v12.4H676.188v14.235Z" transform="translate(205.22 556.901)" fill="#333537"/>
    <path id="パス_163" data-name="パス 163" d="M725.177,177.136v12.405H706.811v51.885H693.039V189.541H674.666V177.136Z" transform="translate(284.389 556.901)" fill="#333537"/>
    <path id="パス_164" data-name="パス 164" d="M738.832,241.427H725.052v-26.17H697.5v26.17H683.729v-64.29H697.5v25.715h27.552V177.136h13.779Z" transform="translate(342.982 556.901)" fill="#333537"/>
    <path id="パス_165" data-name="パス 165" d="M713.438,226.28l-5.511,15.147h-14.7l25.258-64.29h14.691l25.259,64.29h-14.7l-5.512-15.147Zm12.4-33.064-7.812,21.122h15.61Z" transform="translate(404.467 556.901)" fill="#333537"/>
    <path id="パス_166" data-name="パス 166" d="M704.353,241.427v-64.29h13.772v51.892h29.853v12.4Z" transform="translate(476.152 556.901)" fill="#333537"/>
    <path id="パス_167" data-name="パス 167" d="M732.438,226.28l-5.512,15.147h-14.7l25.259-64.29h14.691l25.259,64.29h-14.7l-5.512-15.147Zm12.4-33.064-7.812,21.122h15.61Z" transform="translate(527.279 556.901)" fill="#333537"/>
    <path id="パス_168" data-name="パス 168" d="M725.154,195.778c0-10.1,8.724-18.829,22.5-18.829,14.235,0,21.121,8.724,21.121,8.724L760.5,194.4a16.754,16.754,0,0,0-11.935-5.512c-5.512,0-8.716,3.212-8.716,6.886,0,11.935,31.675,5.049,31.675,28.015,0,11.472-8.724,20.2-24.334,20.2-16.072,0-24.34-10.568-24.34-10.568l8.268-8.26a20.544,20.544,0,0,0,15.154,6.886c6.886,0,10.561-3.674,10.561-8.26C756.836,211.85,725.154,218.736,725.154,195.778Z" transform="translate(595.743 555.735)" fill="#333537"/>
    <path id="パス_169" data-name="パス 169" d="M733.709,195.778c0-10.1,8.731-18.829,22.5-18.829,14.228,0,21.122,8.724,21.122,8.724l-8.268,8.731a16.754,16.754,0,0,0-11.935-5.512c-5.512,0-8.723,3.212-8.723,6.886,0,11.935,31.682,5.049,31.682,28.015,0,11.472-8.731,20.2-24.34,20.2-16.065,0-24.333-10.568-24.333-10.568l8.268-8.26a20.538,20.538,0,0,0,15.147,6.886c6.893,0,10.568-3.674,10.568-8.26C765.4,211.85,733.709,218.736,733.709,195.778Z" transform="translate(652.374 555.735)" fill="#333537"/>
    <path id="パス_170" data-name="パス 170" d="M775,176.949c19.754,0,34.909,15.154,34.909,33.52S794.751,244,775,244c-19.732,0-34.893-15.161-34.893-33.527S755.264,176.949,775,176.949Zm0,54.641c11.487,0,20.673-9.179,20.673-21.121S786.484,189.347,775,189.347s-20.651,9.186-20.651,21.121S763.524,231.59,775,231.59Z" transform="translate(707.529 555.735)" fill="#333537"/>
  </g>
</svg>
