<svg id="レイヤー_1" data-name="レイヤー 1" xmlns="http://www.w3.org/2000/svg" viewBox="0 0 303 45"><defs><style>.cls-1{fill:#fff;}</style></defs><title>logo_white</title><path class="cls-1" d="M29.2062,12.0929a10.2712,10.2712,0,0,1-4.4939,8.32s6.42,4.0058,6.42,10.7848c0,7.3952-6.42,13.5577-15.407,13.5577S.3176,38.5925.3176,31.1973c0-6.779,6.42-10.7848,6.42-10.7848a10.2712,10.2712,0,0,1-4.4938-8.32C2.2435,5.93,8.0211.3839,15.725.3839S29.2062,5.93,29.2062,12.0929ZM6.7373,31.1973c0,4.0058,3.8518,7.7032,8.9877,7.7032s8.9873-3.6974,8.9873-7.7032-3.8517-7.7035-8.9873-7.7035S6.7373,27.1915,6.7373,31.1973ZM8.6632,12.0929c0,3.39,2.8888,6.1629,7.0618,6.1629s7.0614-2.7732,7.0614-6.1629S19.8976,5.93,15.725,5.93,8.6632,8.7036,8.6632,12.0929Z"/><path class="cls-1" d="M61.161,12.9073v4.0891H55.1054V34.1053H50.5643V16.9964H44.5064V12.9073Z"/><path class="cls-1" d="M84.6354,34.1053H80.0919v-8.63H71.0074v8.63h-4.541V12.9073h4.541V21.386h9.0845V12.9073h4.5435Z"/><path class="cls-1" d="M107.3525,30.0162v4.0891H91.4552V12.9073H107.05v4.0891H95.9963v4.2382h8.63v4.0891h-8.63v4.6925Z"/><path class="cls-1" d="M137.7935,12.9073v4.0891H131.738V34.1053h-4.5411V16.9964H121.139V12.9073Z"/><path class="cls-1" d="M161.2679,34.1053h-4.5434v-8.63H147.64v8.63h-4.5411V12.9073H147.64V21.386h9.0845V12.9073h4.5434Z"/><path class="cls-1" d="M172.7827,29.11l-1.8174,4.9954H166.119l8.3273-21.198H179.29l8.33,21.198h-4.8463L180.9561,29.11Zm4.0867-10.9019-2.5746,6.9642h5.1469Z"/><path class="cls-1" d="M193.0767,34.1053V12.9073h4.5411V30.0162H207.46v4.0891Z"/><path class="cls-1" d="M218.8228,29.11l-1.8174,4.9954h-4.8463l8.3273-21.198H225.33l8.33,21.198h-4.8464L226.9963,29.11ZM222.91,18.208l-2.5746,6.9642h5.1469Z"/><path class="cls-1" d="M238.6625,18.6623c0-3.3318,2.8775-6.2093,7.4186-6.2093a9.077,9.077,0,0,1,6.9642,2.8775l-2.7261,2.8775a5.524,5.524,0,0,0-3.9353-1.8174c-1.8173,0-2.8751,1.06-2.8751,2.2717,0,3.9353,10.4452,1.6636,10.4452,9.236,0,3.7838-2.8775,6.6613-8.0244,6.6613a10.5457,10.5457,0,0,1-8.0244-3.4833l2.7261-2.7237a6.7738,6.7738,0,0,0,4.9954,2.2694c2.2717,0,3.4833-1.2116,3.4833-2.7237C249.11,23.9606,238.6625,26.2323,238.6625,18.6623Z"/><path class="cls-1" d="M259.4108,18.6623c0-3.3318,2.8775-6.2093,7.4186-6.2093a9.077,9.077,0,0,1,6.9642,2.8775l-2.726,2.8775a5.524,5.524,0,0,0-3.9353-1.8174c-1.8174,0-2.8751,1.06-2.8751,2.2717,0,3.9353,10.4451,1.6636,10.4451,9.236,0,3.7838-2.8775,6.6613-8.0243,6.6613a10.5454,10.5454,0,0,1-8.0244-3.4833l2.726-2.7237a6.7739,6.7739,0,0,0,4.9955,2.2694c2.2717,0,3.4833-1.2116,3.4833-2.7237C269.8584,23.9606,259.4108,26.2323,259.4108,18.6623Z"/><path class="cls-1" d="M291.21,12.453a11.2218,11.2218,0,0,1,11.51,11.0533,11.517,11.517,0,0,1-23.0154,0A11.2206,11.2206,0,0,1,291.21,12.453Zm0,18.0175a6.82,6.82,0,0,0,6.8152-6.9642,6.8144,6.8144,0,1,0-13.6256,0A6.8171,6.8171,0,0,0,291.21,30.4705Z"/></svg>