<?xml version="1.0" encoding="utf-8"?>
<!-- Generator: Adobe Illustrator 23.0.1, SVG Export Plug-In . SVG Version: 6.00 Build 0)  -->
<svg version="1.1" id="レイヤー_1" xmlns="http://www.w3.org/2000/svg" xmlns:xlink="http://www.w3.org/1999/xlink" x="0px"
	 y="0px" viewBox="0 0 21.06 1230.56" style="enable-background:new 0 0 21.06 1230.56;" xml:space="preserve">
<style type="text/css">
	.st0{fill:none;}
	.st1{fill:#F5F3F1;}
	.st2{fill:none;stroke:#000000;stroke-miterlimit:10;}
</style>
<path class="st0" d="M834.63,50.61v-1.22C834.6,50.17,834.63,50.61,834.63,50.61z"/>
<path class="st0" d="M834.63,50.61v-1.22C834.63,49.39,834.6,49.83,834.63,50.61z"/>
<path class="st1" d="M13.62,0c0,0,0,575.51,0,578.82c0,3.31-3.11,13.92-8.52,21.96c-3.81,5.67-4.48,10.97-4.58,13.28v1.22v1.22
	c0.1,2.31,0.77,7.61,4.58,13.28c5.4,8.04,8.52,18.65,8.52,21.96c0,3.31,0,578.82,0,578.82h7.44V0H13.62z"/>
<rect x="1280.76" y="79.42" class="st1" width="212.86" height="212.86"/>
<path class="st2" d="M13.64,1230.56c0,0,0-575.51,0-578.82c0-3.31-3.11-13.92-8.52-21.96c-5.09-7.58-4.58-14.5-4.58-14.5
	s-0.52-6.92,4.58-14.5c5.4-8.04,8.52-18.65,8.52-21.96c0-3.31,0-578.82,0-578.82"/>
</svg>
