<?xml version="1.0" encoding="utf-8"?>
<!-- Generator: Adobe Illustrator 23.0.1, SVG Export Plug-In . SVG Version: 6.00 Build 0)  -->
<svg version="1.1" id="レイヤー_1" xmlns="http://www.w3.org/2000/svg" xmlns:xlink="http://www.w3.org/1999/xlink" x="0px"
	 y="0px" viewBox="0 0 31.35 27.78" style="enable-background:new 0 0 31.35 27.78;" xml:space="preserve">
<style type="text/css">
	.st0{opacity:0.1;}
	.st1{fill:#EEEEEC;}
	.st2{fill:#EDEDEB;}
	.st3{fill:#ECECEA;}
	.st4{fill:#ECEBE9;}
	.st5{fill:#EBEAE8;}
	.st6{fill:#EAE9E7;}
	.st7{fill:#E9E8E6;}
	.st8{fill:#E8E7E5;}
	.st9{fill:#E7E6E4;}
	.st10{fill:#E6E5E3;}
	.st11{fill:#E5E4E2;}
	.st12{fill:#E4E3E1;}
	.st13{fill:#E4E2E0;}
	.st14{fill:#E3E1DF;}
	.st15{fill:#E2E0DE;}
	.st16{fill:#E1DFDD;}
	.st17{fill:#E0DEDC;}
	.st18{fill:#DFDDDB;}
	.st19{fill:#DEDCDA;}
	.st20{fill:#DDDBD9;}
	.st21{fill:#DCDAD8;}
	.st22{fill:#DBD9D7;}
	.st23{fill:#DAD8D6;}
	.st24{fill:#D9D7D5;}
	.st25{fill:#D9D6D3;}
	.st26{fill:#D8D5D2;}
	.st27{fill:#D7D4D1;}
	.st28{fill:#D6D3D0;}
	.st29{fill:#D5D2CF;}
	.st30{fill:#D4D1CE;}
	.st31{fill:#D3D0CD;}
	.st32{fill:#D2CFCC;}
	.st33{fill:#D1CECB;}
	.st34{fill:#D0CDCA;}
	.st35{fill:#CFCCC9;}
	.st36{fill:#CECBC8;}
	.st37{fill:#CECAC7;}
	.st38{fill:#CDC9C6;}
	.st39{fill:#CCC8C5;}
	.st40{fill:#CBC7C4;}
	.st41{fill:#CAC6C3;}
	.st42{fill:#C9C5C2;}
	.st43{fill:#C8C4C1;}
	.st44{fill:#C7C4C0;}
	.st45{fill:#C7C3BF;}
	.st46{fill:#C6C2BE;}
	.st47{fill:#C5C1BD;}
	.st48{fill:#C4C0BC;}
	.st49{fill:#C3BFBC;}
	.st50{fill:#C2BEBB;}
	.st51{fill:#C1BDBA;}
	.st52{fill:#C0BCB9;}
	.st53{fill:#C0BBB8;}
	.st54{fill:#BFBAB7;}
	.st55{fill:#BEB9B6;}
	.st56{fill:#BDB8B5;}
	.st57{fill:#BCB7B4;}
	.st58{fill:#BBB6B3;}
	.st59{fill:#BAB5B2;}
	.st60{fill:#BAB4B1;}
	.st61{fill:#B9B4B0;}
	.st62{fill:#B8B3AF;}
	.st63{fill:#B7B2AE;}
	.st64{fill:#B6B1AD;}
	.st65{fill:#B5B0AC;}
	.st66{fill:#B5AFAB;}
	.st67{fill:#B4AEAA;}
	.st68{fill:#B3ADAA;}
	.st69{fill:#B2ACA9;}
	.st70{fill:#B1ABA8;}
	.st71{fill:#B0AAA7;}
	.st72{fill:#B0AAA6;}
	.st73{fill:#AFA9A5;}
	.st74{fill:#AEA8A4;}
	.st75{fill:#ADA7A3;}
	.st76{fill:#ACA6A2;}
	.st77{fill:#ABA5A1;}
	.st78{fill:#ABA4A0;}
	.st79{fill:#AAA3A0;}
	.st80{fill:#A9A29F;}
	.st81{fill:#A8A29E;}
	.st82{fill:#A7A19D;}
	.st83{fill:#A6A09C;}
	.st84{fill:#A69F9B;}
	.st85{fill:#A59E9A;}
	.st86{fill:#A49D99;}
	.st87{fill:#A39C98;}
	.st88{fill:#A29B98;}
	.st89{fill:#A19B97;}
	.st90{fill:#A19A96;}
	.st91{fill:#A09995;}
	.st92{fill:#9F9894;}
	.st93{fill:#9E9793;}
	.st94{fill:#9D9692;}
	.st95{fill:#9D9591;}
	.st96{fill:#9C9591;}
	.st97{fill:#9B9490;}
	.st98{fill:#9A938F;}
	.st99{fill:#99928E;}
	.st100{fill:#99918D;}
	.st101{fill:#98908C;}
	.st102{fill:#97908B;}
	.st103{fill:#968F8B;}
	.st104{fill:#958E8A;}
	.st105{fill:#958D89;}
	.st106{fill:#948C88;}
	.st107{fill:#938B87;}
	.st108{fill:#928B86;}
	.st109{fill:#928A86;}
	.st110{fill:#918985;}
	.st111{fill:#908884;}
	.st112{fill:#8F8783;}
	.st113{fill:#8E8682;}
	.st114{fill:#8E8681;}
	.st115{fill:#8D8581;}
	.st116{fill:#8C8480;}
	.st117{fill:#8B837F;}
	.st118{fill:#8B827E;}
	.st119{fill:#8A827D;}
	.st120{fill:#89817D;}
	.st121{fill:#88807C;}
	.st122{fill:#887F7B;}
	.st123{fill:#877E7A;}
	.st124{fill:#867E79;}
	.st125{fill:#857D79;}
	.st126{fill:#847C78;}
	.st127{fill:#847B77;}
	.st128{fill:#837A76;}
	.st129{fill:#827A75;}
	.st130{fill:#817975;}
	.st131{fill:#817874;}
	.st132{fill:#807773;}
	.st133{fill:#7F7772;}
	.st134{fill:#7E7672;}
	.st135{fill:#7E7571;}
	.st136{fill:#7D7470;}
	.st137{fill:#7C746F;}
	.st138{fill:#7B736F;}
	.st139{fill:#7A726E;}
	.st140{fill:#7A716D;}
	.st141{fill:#79706C;}
	.st142{fill:#78706C;}
	.st143{fill:#776F6B;}
	.st144{fill:#776E6A;}
	.st145{fill:#766D69;}
	.st146{fill:#756D69;}
	.st147{fill:#756C68;}
	.st148{fill:#746B67;}
	.st149{fill:#736B67;}
	.st150{fill:#726A66;}
	.st151{fill:#726965;}
	.st152{fill:#716865;}
	.st153{fill:#706864;}
	.st154{fill:#6F6763;}
	.st155{fill:#6F6662;}
	.st156{fill:#6E6662;}
	.st157{fill:#6D6561;}
	.st158{fill:#6D6460;}
	.st159{fill:#6C6360;}
	.st160{fill:#6B635F;}
	.st161{fill:#6B625E;}
	.st162{fill:#6A615E;}
	.st163{fill:#69615D;}
	.st164{fill:#68605C;}
	.st165{fill:#685F5C;}
	.st166{fill:#675E5B;}
	.st167{fill:#665E5A;}
	.st168{fill:#665D5A;}
	.st169{fill:#655C59;}
	.st170{fill:#645C58;}
	.st171{fill:#635B58;}
	.st172{fill:#635A57;}
	.st173{fill:#625A56;}
	.st174{fill:#615956;}
	.st175{fill:#615855;}
	.st176{fill:#605855;}
	.st177{fill:#5F5754;}
	.st178{fill:#5E5653;}
	.st179{fill:#5D5552;}
	.st180{fill:#5C5551;}
	.st181{fill:#5C5451;}
	.st182{fill:#5B5350;}
	.st183{fill:#5A5350;}
	.st184{fill:#5A524F;}
	.st185{fill:#59514E;}
	.st186{fill:#58514E;}
	.st187{fill:#58504D;}
	.st188{fill:#574F4C;}
	.st189{fill:#564F4C;}
	.st190{fill:#564E4B;}
	.st191{fill:#554D4B;}
	.st192{fill:#544D4A;}
	.st193{fill:#544C49;}
	.st194{fill:#534C49;}
	.st195{fill:#524B48;}
	.st196{fill:#524A48;}
	.st197{fill:#514A47;}
	.st198{fill:#504947;}
	.st199{fill:#504946;}
	.st200{fill:#4F4845;}
	.st201{fill:#4F4745;}
	.st202{fill:#4E4744;}
	.st203{fill:#4D4644;}
	.st204{fill:#4D4543;}
	.st205{fill:#4C4543;}
	.st206{fill:#4B4442;}
	.st207{fill:#4B4441;}
	.st208{fill:#4A4341;}
	.st209{fill:#4A4240;}
	.st210{fill:#494240;}
	.st211{fill:#48413F;}
	.st212{fill:#47403E;}
	.st213{fill:#46403E;}
	.st214{fill:#463F3D;}
	.st215{fill:#453E3C;}
	.st216{fill:#443E3C;}
	.st217{fill:#443D3B;}
	.st218{fill:#433D3B;}
	.st219{fill:#423C3A;}
	.st220{fill:#413B39;}
	.st221{fill:#413A39;}
	.st222{fill:#403A38;}
	.st223{fill:#3F3938;}
	.st224{fill:#3F3937;}
	.st225{fill:#3E3837;}
	.st226{fill:#3D3836;}
	.st227{fill:#3D3736;}
	.st228{fill:#3C3735;}
	.st229{fill:#3B3635;}
	.st230{fill:#3B3534;}
	.st231{fill:#3A3534;}
	.st232{fill:#3A3433;}
	.st233{fill:#393433;}
	.st234{fill:#383332;}
	.st235{fill:#373231;}
	.st236{fill:#363130;}
	.st237{fill:#35302F;}
	.st238{fill:#342F2F;}
	.st239{fill:#342F2E;}
	.st240{fill:#332E2E;}
	.st241{fill:#332E2D;}
	.st242{fill:#322D2D;}
	.st243{fill:#312D2C;}
	.st244{fill:#312C2C;}
	.st245{fill:#302C2B;}
	.st246{fill:#302B2B;}
	.st247{fill:#2F2B2A;}
	.st248{fill:#2E2A2A;}
	.st249{fill:#2E2A29;}
	.st250{fill:#2D2929;}
	.st251{fill:#2D2928;}
	.st252{fill:#2C2828;}
	.st253{fill:#2B2828;}
	.st254{fill:#2B2727;}
	.st255{fill:#2A2727;}
	.st256{fill:#292626;}
	.st257{fill:#282525;}
	.st258{fill:#272424;}
	.st259{fill:#262424;}
	.st260{fill:#262323;}
	.st261{fill:#252323;}
	.st262{fill:#252222;}
	.st263{fill:#242222;}
	.st264{fill:#232121;}
	.st265{fill:#222020;}
	.st266{fill:#211F20;}
	.st267{fill:#201F1F;}
	.st268{fill:#201E1F;}
	.st269{fill:#1F1E1E;}
	.st270{fill:#1F1D1E;}
	.st271{fill:#1E1D1D;}
	.st272{fill:#1D1C1D;}
	.st273{fill:#1D1C1C;}
	.st274{fill:#1C1B1C;}
	.st275{fill:#1B1A1B;}
	.st276{fill:#1A191A;}
	.st277{fill:#191819;}
	.st278{fill:#181819;}
	.st279{fill:#181718;}
	.st280{fill:#171718;}
	.st281{fill:#171618;}
	.st282{fill:#161617;}
	.st283{fill:#151516;}
	.st284{fill:#141516;}
	.st285{fill:#141416;}
	.st286{fill:#131415;}
	.st287{fill:#131315;}
	.st288{fill:#121314;}
	.st289{fill:#696C6B;}
	.st290{fill:url(#SVGID_1_);}
	.st291{fill:#464748;}
</style>
<g>
	<g class="st0">
		<path class="st1" d="M21.44,25.29c0,0.78-0.64,1.42-1.42,1.42h-9.09c-0.78,0-1.42-0.64-1.42-1.42V8.38c0-0.78,0.64-1.42,1.42-1.42
			h9.09c0.78,0,1.42,0.64,1.42,1.42V25.29z"/>
		<path class="st2" d="M21.42,25.27c0,0.78-0.64,1.42-1.42,1.42h-9.09c-0.78,0-1.42-0.64-1.42-1.42V8.36c0-0.78,0.64-1.42,1.42-1.42
			H20c0.78,0,1.42,0.64,1.42,1.42V25.27z"/>
		<path class="st3" d="M21.4,25.26c0,0.78-0.64,1.42-1.42,1.42h-9.09c-0.78,0-1.42-0.64-1.42-1.42V8.35c0-0.78,0.64-1.42,1.42-1.42
			h9.09c0.78,0,1.42,0.64,1.42,1.42V25.26z"/>
		<path class="st4" d="M21.37,25.24c0,0.78-0.64,1.42-1.42,1.42h-9.09c-0.78,0-1.42-0.64-1.42-1.42V8.33c0-0.78,0.64-1.42,1.42-1.42
			h9.09c0.78,0,1.42,0.64,1.42,1.42V25.24z"/>
		<path class="st5" d="M21.35,25.23c0,0.78-0.64,1.42-1.42,1.42h-9.09c-0.78,0-1.42-0.64-1.42-1.42V8.32c0-0.78,0.64-1.42,1.42-1.42
			h9.09c0.78,0,1.42,0.64,1.42,1.42V25.23z"/>
		<path class="st6" d="M21.33,25.22c0,0.78-0.64,1.42-1.42,1.42h-9.09c-0.78,0-1.42-0.64-1.42-1.42V8.31c0-0.78,0.64-1.42,1.42-1.42
			h9.09c0.78,0,1.42,0.64,1.42,1.42V25.22z"/>
		<path class="st7" d="M21.3,25.2c0,0.78-0.64,1.42-1.42,1.42h-9.09c-0.78,0-1.42-0.64-1.42-1.42V8.29c0-0.78,0.64-1.42,1.42-1.42
			h9.09c0.78,0,1.42,0.64,1.42,1.42V25.2z"/>
		<path class="st8" d="M21.28,25.19c0,0.78-0.64,1.42-1.42,1.42h-9.09c-0.78,0-1.42-0.64-1.42-1.42V8.28c0-0.78,0.64-1.42,1.42-1.42
			h9.09c0.78,0,1.42,0.64,1.42,1.42V25.19z"/>
		<path class="st9" d="M21.25,25.17c0,0.78-0.64,1.42-1.42,1.42h-9.09c-0.78,0-1.42-0.64-1.42-1.42V8.26c0-0.78,0.64-1.42,1.42-1.42
			h9.09c0.78,0,1.42,0.64,1.42,1.42V25.17z"/>
		<path class="st10" d="M21.23,25.16c0,0.78-0.64,1.42-1.42,1.42h-9.09c-0.78,0-1.42-0.64-1.42-1.42V8.25
			c0-0.78,0.64-1.42,1.42-1.42h9.09c0.78,0,1.42,0.64,1.42,1.42V25.16z"/>
		<path class="st11" d="M21.21,25.14c0,0.78-0.64,1.42-1.42,1.42H10.7c-0.78,0-1.42-0.64-1.42-1.42V8.23c0-0.78,0.64-1.42,1.42-1.42
			h9.09c0.78,0,1.42,0.64,1.42,1.42V25.14z"/>
		<path class="st12" d="M21.18,25.13c0,0.78-0.64,1.42-1.42,1.42h-9.09c-0.78,0-1.42-0.64-1.42-1.42V8.22
			c0-0.78,0.64-1.42,1.42-1.42h9.09c0.78,0,1.42,0.64,1.42,1.42V25.13z"/>
		<path class="st13" d="M21.16,25.12c0,0.78-0.64,1.42-1.42,1.42h-9.09c-0.78,0-1.42-0.64-1.42-1.42V8.21
			c0-0.78,0.64-1.42,1.42-1.42h9.09c0.78,0,1.42,0.64,1.42,1.42V25.12z"/>
		<path class="st14" d="M21.14,25.1c0,0.78-0.64,1.42-1.42,1.42h-9.09c-0.78,0-1.42-0.64-1.42-1.42V8.19c0-0.78,0.64-1.42,1.42-1.42
			h9.09c0.78,0,1.42,0.64,1.42,1.42V25.1z"/>
		<path class="st15" d="M21.11,25.09c0,0.78-0.64,1.42-1.42,1.42H10.6c-0.78,0-1.42-0.64-1.42-1.42V8.18c0-0.78,0.64-1.42,1.42-1.42
			h9.09c0.78,0,1.42,0.64,1.42,1.42V25.09z"/>
		<path class="st16" d="M21.09,25.07c0,0.78-0.64,1.42-1.42,1.42h-9.09c-0.78,0-1.42-0.64-1.42-1.42V8.16
			c0-0.78,0.64-1.42,1.42-1.42h9.09c0.78,0,1.42,0.64,1.42,1.42V25.07z"/>
		<path class="st17" d="M21.07,25.06c0,0.78-0.64,1.42-1.42,1.42h-9.09c-0.78,0-1.42-0.64-1.42-1.42V8.15
			c0-0.78,0.64-1.42,1.42-1.42h9.09c0.78,0,1.42,0.64,1.42,1.42V25.06z"/>
		<path class="st18" d="M21.04,25.05c0,0.78-0.64,1.42-1.42,1.42h-9.09c-0.78,0-1.42-0.64-1.42-1.42V8.14
			c0-0.78,0.64-1.42,1.42-1.42h9.09c0.78,0,1.42,0.64,1.42,1.42V25.05z"/>
		<path class="st19" d="M21.02,25.03c0,0.78-0.64,1.42-1.42,1.42h-9.09c-0.78,0-1.42-0.64-1.42-1.42V8.12
			c0-0.78,0.64-1.42,1.42-1.42h9.09c0.78,0,1.42,0.64,1.42,1.42V25.03z"/>
		<path class="st20" d="M21,25.02c0,0.78-0.64,1.42-1.42,1.42h-9.09c-0.78,0-1.42-0.64-1.42-1.42V8.11c0-0.78,0.64-1.42,1.42-1.42
			h9.09c0.78,0,1.42,0.64,1.42,1.42V25.02z"/>
		<path class="st21" d="M20.97,25c0,0.78-0.64,1.42-1.42,1.42h-9.09c-0.78,0-1.42-0.64-1.42-1.42V8.09c0-0.78,0.64-1.42,1.42-1.42
			h9.09c0.78,0,1.42,0.64,1.42,1.42V25z"/>
		<path class="st22" d="M20.95,24.99c0,0.78-0.64,1.42-1.42,1.42h-9.09c-0.78,0-1.42-0.64-1.42-1.42V8.08
			c0-0.78,0.64-1.42,1.42-1.42h9.09c0.78,0,1.42,0.64,1.42,1.42V24.99z"/>
		<path class="st23" d="M20.93,24.98c0,0.78-0.64,1.42-1.42,1.42h-9.09C9.64,26.39,9,25.75,9,24.98V8.07c0-0.78,0.64-1.42,1.42-1.42
			h9.09c0.78,0,1.42,0.64,1.42,1.42V24.98z"/>
		<path class="st24" d="M20.9,24.96c0,0.78-0.64,1.42-1.42,1.42h-9.09c-0.78,0-1.42-0.64-1.42-1.42V8.05c0-0.78,0.64-1.42,1.42-1.42
			h9.09c0.78,0,1.42,0.64,1.42,1.42V24.96z"/>
		<path class="st25" d="M20.88,24.95c0,0.78-0.64,1.42-1.42,1.42h-9.09c-0.78,0-1.42-0.64-1.42-1.42V8.04
			c0-0.78,0.64-1.42,1.42-1.42h9.09c0.78,0,1.42,0.64,1.42,1.42V24.95z"/>
		<path class="st26" d="M20.85,24.93c0,0.78-0.64,1.42-1.42,1.42h-9.09c-0.78,0-1.42-0.64-1.42-1.42V8.02
			c0-0.78,0.64-1.42,1.42-1.42h9.09c0.78,0,1.42,0.64,1.42,1.42V24.93z"/>
		<path class="st27" d="M20.83,24.92c0,0.78-0.64,1.42-1.42,1.42h-9.09c-0.78,0-1.42-0.64-1.42-1.42V8.01
			c0-0.78,0.64-1.42,1.42-1.42h9.09c0.78,0,1.42,0.64,1.42,1.42V24.92z"/>
		<path class="st28" d="M20.81,24.9c0,0.78-0.64,1.42-1.42,1.42H10.3c-0.78,0-1.42-0.64-1.42-1.42V7.99c0-0.78,0.64-1.42,1.42-1.42
			h9.09c0.78,0,1.42,0.64,1.42,1.42V24.9z"/>
		<path class="st29" d="M20.78,24.89c0,0.78-0.64,1.42-1.42,1.42h-9.09c-0.78,0-1.42-0.64-1.42-1.42V7.98
			c0-0.78,0.64-1.42,1.42-1.42h9.09c0.78,0,1.42,0.64,1.42,1.42V24.89z"/>
		<path class="st30" d="M20.76,24.88c0,0.78-0.64,1.42-1.42,1.42h-9.09c-0.78,0-1.42-0.64-1.42-1.42V7.97
			c0-0.78,0.64-1.42,1.42-1.42h9.09c0.78,0,1.42,0.64,1.42,1.42V24.88z"/>
		<path class="st31" d="M20.74,24.86c0,0.78-0.64,1.42-1.42,1.42h-9.09c-0.78,0-1.42-0.64-1.42-1.42V7.95
			c0-0.78,0.64-1.42,1.42-1.42h9.09c0.78,0,1.42,0.64,1.42,1.42V24.86z"/>
		<path class="st32" d="M20.71,24.85c0,0.78-0.64,1.42-1.42,1.42H10.2c-0.78,0-1.42-0.64-1.42-1.42V7.94c0-0.78,0.64-1.42,1.42-1.42
			h9.09c0.78,0,1.42,0.64,1.42,1.42V24.85z"/>
		<path class="st33" d="M20.69,24.83c0,0.78-0.64,1.42-1.42,1.42h-9.09c-0.78,0-1.42-0.64-1.42-1.42V7.92
			c0-0.78,0.64-1.42,1.42-1.42h9.09c0.78,0,1.42,0.64,1.42,1.42V24.83z"/>
		<path class="st34" d="M20.67,24.82c0,0.78-0.64,1.42-1.42,1.42h-9.09c-0.78,0-1.42-0.64-1.42-1.42V7.91
			c0-0.78,0.64-1.42,1.42-1.42h9.09c0.78,0,1.42,0.64,1.42,1.42V24.82z"/>
		<path class="st35" d="M20.64,24.81c0,0.78-0.64,1.42-1.42,1.42h-9.09c-0.78,0-1.42-0.64-1.42-1.42V7.9c0-0.78,0.64-1.42,1.42-1.42
			h9.09c0.78,0,1.42,0.64,1.42,1.42V24.81z"/>
		<path class="st36" d="M20.62,24.79c0,0.78-0.64,1.42-1.42,1.42h-9.09c-0.78,0-1.42-0.64-1.42-1.42V7.88
			c0-0.78,0.64-1.42,1.42-1.42h9.09c0.78,0,1.42,0.64,1.42,1.42V24.79z"/>
		<path class="st37" d="M20.6,24.78c0,0.78-0.64,1.42-1.42,1.42h-9.09c-0.78,0-1.42-0.64-1.42-1.42V7.87c0-0.78,0.64-1.42,1.42-1.42
			h9.09c0.78,0,1.42,0.64,1.42,1.42V24.78z"/>
		<path class="st38" d="M20.57,24.76c0,0.78-0.64,1.42-1.42,1.42h-9.09c-0.78,0-1.42-0.64-1.42-1.42V7.85
			c0-0.78,0.64-1.42,1.42-1.42h9.09c0.78,0,1.42,0.64,1.42,1.42V24.76z"/>
		<path class="st39" d="M20.55,24.75c0,0.78-0.64,1.42-1.42,1.42h-9.09c-0.78,0-1.42-0.64-1.42-1.42V7.84
			c0-0.78,0.64-1.42,1.42-1.42h9.09c0.78,0,1.42,0.64,1.42,1.42V24.75z"/>
		<path class="st40" d="M20.53,24.74c0,0.78-0.64,1.42-1.42,1.42h-9.09c-0.78,0-1.42-0.64-1.42-1.42V7.83
			c0-0.78,0.64-1.42,1.42-1.42h9.09c0.78,0,1.42,0.64,1.42,1.42V24.74z"/>
		<path class="st41" d="M20.5,24.72c0,0.78-0.64,1.42-1.42,1.42H9.99c-0.78,0-1.42-0.64-1.42-1.42V7.81c0-0.78,0.64-1.42,1.42-1.42
			h9.09c0.78,0,1.42,0.64,1.42,1.42V24.72z"/>
		<path class="st42" d="M20.48,24.71c0,0.78-0.64,1.42-1.42,1.42H9.97c-0.78,0-1.42-0.64-1.42-1.42V7.8c0-0.78,0.64-1.42,1.42-1.42
			h9.09c0.78,0,1.42,0.64,1.42,1.42V24.71z"/>
		<path class="st43" d="M20.45,24.69c0,0.78-0.64,1.42-1.42,1.42H9.95c-0.78,0-1.42-0.64-1.42-1.42V7.78c0-0.78,0.64-1.42,1.42-1.42
			h9.09c0.78,0,1.42,0.64,1.42,1.42V24.69z"/>
		<path class="st44" d="M20.43,24.68c0,0.78-0.64,1.42-1.42,1.42H9.92c-0.78,0-1.42-0.64-1.42-1.42V7.77c0-0.78,0.64-1.42,1.42-1.42
			h9.09c0.78,0,1.42,0.64,1.42,1.42V24.68z"/>
		<path class="st45" d="M20.41,24.66c0,0.78-0.64,1.42-1.42,1.42H9.9c-0.78,0-1.42-0.64-1.42-1.42V7.75c0-0.78,0.64-1.42,1.42-1.42
			h9.09c0.78,0,1.42,0.64,1.42,1.42V24.66z"/>
		<path class="st46" d="M20.38,24.65c0,0.78-0.64,1.42-1.42,1.42H9.87c-0.78,0-1.42-0.64-1.42-1.42V7.74c0-0.78,0.64-1.42,1.42-1.42
			h9.09c0.78,0,1.42,0.64,1.42,1.42V24.65z"/>
		<path class="st47" d="M20.36,24.64c0,0.78-0.64,1.42-1.42,1.42H9.85c-0.78,0-1.42-0.64-1.42-1.42V7.73c0-0.78,0.64-1.42,1.42-1.42
			h9.09c0.78,0,1.42,0.64,1.42,1.42V24.64z"/>
		<path class="st48" d="M20.34,24.62c0,0.78-0.64,1.42-1.42,1.42H9.83c-0.78,0-1.42-0.64-1.42-1.42V7.71c0-0.78,0.64-1.42,1.42-1.42
			h9.09c0.78,0,1.42,0.64,1.42,1.42V24.62z"/>
		<path class="st49" d="M20.31,24.61c0,0.78-0.64,1.42-1.42,1.42H9.8c-0.78,0-1.42-0.64-1.42-1.42V7.7c0-0.78,0.64-1.42,1.42-1.42
			h9.09c0.78,0,1.42,0.64,1.42,1.42V24.61z"/>
		<path class="st50" d="M20.29,24.59c0,0.78-0.64,1.42-1.42,1.42H9.78c-0.78,0-1.42-0.64-1.42-1.42V7.68C8.36,6.9,9,6.27,9.78,6.27
			h9.09c0.78,0,1.42,0.64,1.42,1.42V24.59z"/>
		<path class="st51" d="M20.27,24.58c0,0.78-0.64,1.42-1.42,1.42H9.76c-0.78,0-1.42-0.64-1.42-1.42V7.67c0-0.78,0.64-1.42,1.42-1.42
			h9.09c0.78,0,1.42,0.64,1.42,1.42V24.58z"/>
		<path class="st52" d="M20.24,24.57c0,0.78-0.64,1.42-1.42,1.42H9.73c-0.78,0-1.42-0.64-1.42-1.42V7.66c0-0.78,0.64-1.42,1.42-1.42
			h9.09c0.78,0,1.42,0.64,1.42,1.42V24.57z"/>
		<path class="st53" d="M20.22,24.55c0,0.78-0.64,1.42-1.42,1.42H9.71c-0.78,0-1.42-0.64-1.42-1.42V7.64c0-0.78,0.64-1.42,1.42-1.42
			h9.09c0.78,0,1.42,0.64,1.42,1.42V24.55z"/>
		<path class="st54" d="M20.2,24.54c0,0.78-0.64,1.42-1.42,1.42H9.69c-0.78,0-1.42-0.64-1.42-1.42V7.63c0-0.78,0.64-1.42,1.42-1.42
			h9.09c0.78,0,1.42,0.64,1.42,1.42V24.54z"/>
		<path class="st55" d="M20.17,24.52c0,0.78-0.64,1.42-1.42,1.42H9.66c-0.78,0-1.42-0.64-1.42-1.42V7.61c0-0.78,0.64-1.42,1.42-1.42
			h9.09c0.78,0,1.42,0.64,1.42,1.42V24.52z"/>
		<path class="st56" d="M20.15,24.51c0,0.78-0.64,1.42-1.42,1.42H9.64c-0.78,0-1.42-0.64-1.42-1.42V7.6c0-0.78,0.64-1.42,1.42-1.42
			h9.09c0.78,0,1.42,0.64,1.42,1.42V24.51z"/>
		<path class="st57" d="M20.13,24.5c0,0.78-0.64,1.42-1.42,1.42H9.62c-0.78,0-1.42-0.64-1.42-1.42V7.59c0-0.78,0.64-1.42,1.42-1.42
			h9.09c0.78,0,1.42,0.64,1.42,1.42V24.5z"/>
		<path class="st58" d="M20.1,24.48c0,0.78-0.64,1.42-1.42,1.42H9.59c-0.78,0-1.42-0.64-1.42-1.42V7.57c0-0.78,0.64-1.42,1.42-1.42
			h9.09c0.78,0,1.42,0.64,1.42,1.42V24.48z"/>
		<path class="st59" d="M20.08,24.47c0,0.78-0.64,1.42-1.42,1.42H9.57c-0.78,0-1.42-0.64-1.42-1.42V7.56c0-0.78,0.64-1.42,1.42-1.42
			h9.09c0.78,0,1.42,0.64,1.42,1.42V24.47z"/>
		<path class="st60" d="M20.05,24.45c0,0.78-0.64,1.42-1.42,1.42H9.55c-0.78,0-1.42-0.64-1.42-1.42V7.54c0-0.78,0.64-1.42,1.42-1.42
			h9.09c0.78,0,1.42,0.64,1.42,1.42V24.45z"/>
		<path class="st61" d="M20.03,24.44c0,0.78-0.64,1.42-1.42,1.42H9.52c-0.78,0-1.42-0.64-1.42-1.42V7.53c0-0.78,0.64-1.42,1.42-1.42
			h9.09c0.78,0,1.42,0.64,1.42,1.42V24.44z"/>
		<path class="st62" d="M20.01,24.42c0,0.78-0.64,1.42-1.42,1.42H9.5c-0.78,0-1.42-0.64-1.42-1.42V7.51c0-0.78,0.64-1.42,1.42-1.42
			h9.09c0.78,0,1.42,0.64,1.42,1.42V24.42z"/>
		<path class="st63" d="M19.98,24.41c0,0.78-0.64,1.42-1.42,1.42H9.47c-0.78,0-1.42-0.64-1.42-1.42V7.5c0-0.78,0.64-1.42,1.42-1.42
			h9.09c0.78,0,1.42,0.64,1.42,1.42V24.41z"/>
		<path class="st64" d="M19.96,24.4c0,0.78-0.64,1.42-1.42,1.42H9.45c-0.78,0-1.42-0.64-1.42-1.42V7.49c0-0.78,0.64-1.42,1.42-1.42
			h9.09c0.78,0,1.42,0.64,1.42,1.42V24.4z"/>
		<path class="st65" d="M19.94,24.38c0,0.78-0.64,1.42-1.42,1.42H9.43c-0.78,0-1.42-0.64-1.42-1.42V7.47c0-0.78,0.64-1.42,1.42-1.42
			h9.09c0.78,0,1.42,0.64,1.42,1.42V24.38z"/>
		<path class="st66" d="M19.91,24.37c0,0.78-0.64,1.42-1.42,1.42H9.4c-0.78,0-1.42-0.64-1.42-1.42V7.46c0-0.78,0.64-1.42,1.42-1.42
			h9.09c0.78,0,1.42,0.64,1.42,1.42V24.37z"/>
		<path class="st67" d="M19.89,24.35c0,0.78-0.64,1.42-1.42,1.42H9.38c-0.78,0-1.42-0.64-1.42-1.42V7.44c0-0.78,0.64-1.42,1.42-1.42
			h9.09c0.78,0,1.42,0.64,1.42,1.42V24.35z"/>
		<path class="st68" d="M19.87,24.34c0,0.78-0.64,1.42-1.42,1.42H9.36c-0.78,0-1.42-0.64-1.42-1.42V7.43c0-0.78,0.64-1.42,1.42-1.42
			h9.09c0.78,0,1.42,0.64,1.42,1.42V24.34z"/>
		<path class="st69" d="M19.84,24.33c0,0.78-0.64,1.42-1.42,1.42H9.33c-0.78,0-1.42-0.64-1.42-1.42V7.42C7.92,6.64,8.55,6,9.33,6
			h9.09c0.78,0,1.42,0.64,1.42,1.42V24.33z"/>
		<path class="st70" d="M19.82,24.31c0,0.78-0.64,1.42-1.42,1.42H9.31c-0.78,0-1.42-0.64-1.42-1.42V7.4c0-0.78,0.64-1.42,1.42-1.42
			h9.09c0.78,0,1.42,0.64,1.42,1.42V24.31z"/>
		<path class="st71" d="M19.8,24.3c0,0.78-0.64,1.42-1.42,1.42H9.29c-0.78,0-1.42-0.64-1.42-1.42V7.39c0-0.78,0.64-1.42,1.42-1.42
			h9.09c0.78,0,1.42,0.64,1.42,1.42V24.3z"/>
		<path class="st72" d="M19.77,24.28c0,0.78-0.64,1.42-1.42,1.42H9.26c-0.78,0-1.42-0.64-1.42-1.42V7.37c0-0.78,0.64-1.42,1.42-1.42
			h9.09c0.78,0,1.42,0.64,1.42,1.42V24.28z"/>
		<path class="st73" d="M19.75,24.27c0,0.78-0.64,1.42-1.42,1.42H9.24c-0.78,0-1.42-0.64-1.42-1.42V7.36c0-0.78,0.64-1.42,1.42-1.42
			h9.09c0.78,0,1.42,0.64,1.42,1.42V24.27z"/>
		<path class="st74" d="M19.73,24.26c0,0.78-0.64,1.42-1.42,1.42H9.22c-0.78,0-1.42-0.64-1.42-1.42V7.35c0-0.78,0.64-1.42,1.42-1.42
			h9.09c0.78,0,1.42,0.64,1.42,1.42V24.26z"/>
		<path class="st75" d="M19.7,24.24c0,0.78-0.64,1.42-1.42,1.42H9.19c-0.78,0-1.42-0.64-1.42-1.42V7.33c0-0.78,0.64-1.42,1.42-1.42
			h9.09c0.78,0,1.42,0.64,1.42,1.42V24.24z"/>
		<path class="st76" d="M19.68,24.23c0,0.78-0.64,1.42-1.42,1.42H9.17c-0.78,0-1.42-0.64-1.42-1.42V7.32c0-0.78,0.64-1.42,1.42-1.42
			h9.09c0.78,0,1.42,0.64,1.42,1.42V24.23z"/>
		<path class="st77" d="M19.65,24.21c0,0.78-0.64,1.42-1.42,1.42H9.15c-0.78,0-1.42-0.64-1.42-1.42V7.3c0-0.78,0.64-1.42,1.42-1.42
			h9.09c0.78,0,1.42,0.64,1.42,1.42V24.21z"/>
		<path class="st78" d="M19.63,24.2c0,0.78-0.64,1.42-1.42,1.42H9.12c-0.78,0-1.42-0.64-1.42-1.42V7.29c0-0.78,0.64-1.42,1.42-1.42
			h9.09c0.78,0,1.42,0.64,1.42,1.42V24.2z"/>
		<path class="st79" d="M19.61,24.18c0,0.78-0.64,1.42-1.42,1.42H9.1c-0.78,0-1.42-0.64-1.42-1.42V7.27c0-0.78,0.64-1.42,1.42-1.42
			h9.09c0.78,0,1.42,0.64,1.42,1.42V24.18z"/>
		<path class="st80" d="M19.58,24.17c0,0.78-0.64,1.42-1.42,1.42H9.07c-0.78,0-1.42-0.64-1.42-1.42V7.26c0-0.78,0.64-1.42,1.42-1.42
			h9.09c0.78,0,1.42,0.64,1.42,1.42V24.17z"/>
		<path class="st81" d="M19.56,24.16c0,0.78-0.64,1.42-1.42,1.42H9.05c-0.78,0-1.42-0.64-1.42-1.42V7.25c0-0.78,0.64-1.42,1.42-1.42
			h9.09c0.78,0,1.42,0.64,1.42,1.42V24.16z"/>
		<path class="st82" d="M19.54,24.14c0,0.78-0.64,1.42-1.42,1.42H9.03c-0.78,0-1.42-0.64-1.42-1.42V7.23c0-0.78,0.64-1.42,1.42-1.42
			h9.09c0.78,0,1.42,0.64,1.42,1.42V24.14z"/>
		<path class="st83" d="M19.51,24.13c0,0.78-0.64,1.42-1.42,1.42H9c-0.78,0-1.42-0.64-1.42-1.42V7.22C7.59,6.44,8.23,5.8,9,5.8h9.09
			c0.78,0,1.42,0.64,1.42,1.42V24.13z"/>
		<path class="st84" d="M19.49,24.11c0,0.78-0.64,1.42-1.42,1.42H8.98c-0.78,0-1.42-0.64-1.42-1.42V7.2c0-0.78,0.64-1.42,1.42-1.42
			h9.09c0.78,0,1.42,0.64,1.42,1.42V24.11z"/>
		<path class="st85" d="M19.47,24.1c0,0.78-0.64,1.42-1.42,1.42H8.96c-0.78,0-1.42-0.64-1.42-1.42V7.19c0-0.78,0.64-1.42,1.42-1.42
			h9.09c0.78,0,1.42,0.64,1.42,1.42V24.1z"/>
		<path class="st86" d="M19.44,24.09c0,0.78-0.64,1.42-1.42,1.42H8.93c-0.78,0-1.42-0.64-1.42-1.42V7.18c0-0.78,0.64-1.42,1.42-1.42
			h9.09c0.78,0,1.42,0.64,1.42,1.42V24.09z"/>
		<path class="st87" d="M19.42,24.07c0,0.78-0.64,1.42-1.42,1.42H8.91c-0.78,0-1.42-0.64-1.42-1.42V7.16c0-0.78,0.64-1.42,1.42-1.42
			H18c0.78,0,1.42,0.64,1.42,1.42V24.07z"/>
		<path class="st88" d="M19.4,24.06c0,0.78-0.64,1.42-1.42,1.42H8.89c-0.78,0-1.42-0.64-1.42-1.42V7.15c0-0.78,0.64-1.42,1.42-1.42
			h9.09c0.78,0,1.42,0.64,1.42,1.42V24.06z"/>
		<path class="st89" d="M19.37,24.04c0,0.78-0.64,1.42-1.42,1.42H8.86c-0.78,0-1.42-0.64-1.42-1.42V7.13c0-0.78,0.64-1.42,1.42-1.42
			h9.09c0.78,0,1.42,0.64,1.42,1.42V24.04z"/>
		<path class="st90" d="M19.35,24.03c0,0.78-0.64,1.42-1.42,1.42H8.84c-0.78,0-1.42-0.64-1.42-1.42V7.12c0-0.78,0.64-1.42,1.42-1.42
			h9.09c0.78,0,1.42,0.64,1.42,1.42V24.03z"/>
		<path class="st91" d="M19.33,24.02c0,0.78-0.64,1.42-1.42,1.42H8.82c-0.78,0-1.42-0.64-1.42-1.42V7.11c0-0.78,0.64-1.42,1.42-1.42
			h9.09c0.78,0,1.42,0.64,1.42,1.42V24.02z"/>
		<path class="st92" d="M19.3,24c0,0.78-0.64,1.42-1.42,1.42H8.79c-0.78,0-1.42-0.64-1.42-1.42V7.09c0-0.78,0.64-1.42,1.42-1.42
			h9.09c0.78,0,1.42,0.64,1.42,1.42V24z"/>
		<path class="st93" d="M19.28,23.99c0,0.78-0.64,1.42-1.42,1.42H8.77c-0.78,0-1.42-0.64-1.42-1.42V7.08c0-0.78,0.64-1.42,1.42-1.42
			h9.09c0.78,0,1.42,0.64,1.42,1.42V23.99z"/>
		<path class="st94" d="M19.25,23.97c0,0.78-0.64,1.42-1.42,1.42H8.75c-0.78,0-1.42-0.64-1.42-1.42V7.06c0-0.78,0.64-1.42,1.42-1.42
			h9.09c0.78,0,1.42,0.64,1.42,1.42V23.97z"/>
		<path class="st95" d="M19.23,23.96c0,0.78-0.64,1.42-1.42,1.42H8.72c-0.78,0-1.42-0.64-1.42-1.42V7.05c0-0.78,0.64-1.42,1.42-1.42
			h9.09c0.78,0,1.42,0.64,1.42,1.42V23.96z"/>
		<path class="st96" d="M19.21,23.94c0,0.78-0.64,1.42-1.42,1.42H8.7c-0.78,0-1.42-0.64-1.42-1.42V7.03c0-0.78,0.64-1.42,1.42-1.42
			h9.09c0.78,0,1.42,0.64,1.42,1.42V23.94z"/>
		<path class="st97" d="M19.18,23.93c0,0.78-0.64,1.42-1.42,1.42H8.67c-0.78,0-1.42-0.64-1.42-1.42V7.02c0-0.78,0.64-1.42,1.42-1.42
			h9.09c0.78,0,1.42,0.64,1.42,1.42V23.93z"/>
		<path class="st98" d="M19.16,23.92c0,0.78-0.64,1.42-1.42,1.42H8.65c-0.78,0-1.42-0.64-1.42-1.42V7.01c0-0.78,0.64-1.42,1.42-1.42
			h9.09c0.78,0,1.42,0.64,1.42,1.42V23.92z"/>
		<path class="st99" d="M19.14,23.9c0,0.78-0.64,1.42-1.42,1.42H8.63c-0.78,0-1.42-0.64-1.42-1.42V6.99c0-0.78,0.64-1.42,1.42-1.42
			h9.09c0.78,0,1.42,0.64,1.42,1.42V23.9z"/>
		<path class="st100" d="M19.11,23.89c0,0.78-0.64,1.42-1.42,1.42H8.6c-0.78,0-1.42-0.64-1.42-1.42V6.98c0-0.78,0.64-1.42,1.42-1.42
			h9.09c0.78,0,1.42,0.64,1.42,1.42V23.89z"/>
		<path class="st101" d="M19.09,23.87c0,0.78-0.64,1.42-1.42,1.42H8.58c-0.78,0-1.42-0.64-1.42-1.42V6.96
			c0-0.78,0.64-1.42,1.42-1.42h9.09c0.78,0,1.42,0.64,1.42,1.42V23.87z"/>
		<path class="st102" d="M19.07,23.86c0,0.78-0.64,1.42-1.42,1.42H8.56c-0.78,0-1.42-0.64-1.42-1.42V6.95
			c0-0.78,0.64-1.42,1.42-1.42h9.09c0.78,0,1.42,0.64,1.42,1.42V23.86z"/>
		<path class="st103" d="M19.04,23.85c0,0.78-0.64,1.42-1.42,1.42H8.53c-0.78,0-1.42-0.64-1.42-1.42V6.94
			c0-0.78,0.64-1.42,1.42-1.42h9.09c0.78,0,1.42,0.64,1.42,1.42V23.85z"/>
		<path class="st104" d="M19.02,23.83c0,0.78-0.64,1.42-1.42,1.42H8.51c-0.78,0-1.42-0.64-1.42-1.42V6.92
			c0-0.78,0.64-1.42,1.42-1.42h9.09c0.78,0,1.42,0.64,1.42,1.42V23.83z"/>
		<path class="st105" d="M19,23.82c0,0.78-0.64,1.42-1.42,1.42H8.49c-0.78,0-1.42-0.64-1.42-1.42V6.91c0-0.78,0.64-1.42,1.42-1.42
			h9.09c0.78,0,1.42,0.64,1.42,1.42V23.82z"/>
		<path class="st106" d="M18.97,23.8c0,0.78-0.64,1.42-1.42,1.42H8.46c-0.78,0-1.42-0.64-1.42-1.42V6.89c0-0.78,0.64-1.42,1.42-1.42
			h9.09c0.78,0,1.42,0.64,1.42,1.42V23.8z"/>
		<path class="st107" d="M18.95,23.79c0,0.78-0.64,1.42-1.42,1.42H8.44c-0.78,0-1.42-0.64-1.42-1.42V6.88
			c0-0.78,0.64-1.42,1.42-1.42h9.09c0.78,0,1.42,0.64,1.42,1.42V23.79z"/>
		<path class="st108" d="M18.93,23.78c0,0.78-0.64,1.42-1.42,1.42H8.42C7.64,25.19,7,24.55,7,23.78V6.87c0-0.78,0.64-1.42,1.42-1.42
			h9.09c0.78,0,1.42,0.64,1.42,1.42V23.78z"/>
		<path class="st109" d="M18.9,23.76c0,0.78-0.64,1.42-1.42,1.42H8.39c-0.78,0-1.42-0.64-1.42-1.42V6.85c0-0.78,0.64-1.42,1.42-1.42
			h9.09c0.78,0,1.42,0.64,1.42,1.42V23.76z"/>
		<path class="st110" d="M18.88,23.75c0,0.78-0.64,1.42-1.42,1.42H8.37c-0.78,0-1.42-0.64-1.42-1.42V6.84
			c0-0.78,0.64-1.42,1.42-1.42h9.09c0.78,0,1.42,0.64,1.42,1.42V23.75z"/>
		<path class="st111" d="M18.85,23.73c0,0.78-0.64,1.42-1.42,1.42H8.35c-0.78,0-1.42-0.64-1.42-1.42V6.82
			c0-0.78,0.64-1.42,1.42-1.42h9.09c0.78,0,1.42,0.64,1.42,1.42V23.73z"/>
		<path class="st112" d="M18.83,23.72c0,0.78-0.64,1.42-1.42,1.42H8.32c-0.78,0-1.42-0.64-1.42-1.42V6.81
			c0-0.78,0.64-1.42,1.42-1.42h9.09c0.78,0,1.42,0.64,1.42,1.42V23.72z"/>
		<path class="st113" d="M18.81,23.7c0,0.78-0.64,1.42-1.42,1.42H8.3c-0.78,0-1.42-0.64-1.42-1.42V6.79c0-0.78,0.64-1.42,1.42-1.42
			h9.09c0.78,0,1.42,0.64,1.42,1.42V23.7z"/>
		<path class="st114" d="M18.78,23.69c0,0.78-0.64,1.42-1.42,1.42H8.27c-0.78,0-1.42-0.64-1.42-1.42V6.78C6.86,6,7.5,5.36,8.27,5.36
			h9.09c0.78,0,1.42,0.64,1.42,1.42V23.69z"/>
		<path class="st115" d="M18.76,23.68c0,0.78-0.64,1.42-1.42,1.42H8.25c-0.78,0-1.42-0.64-1.42-1.42V6.77
			c0-0.78,0.64-1.42,1.42-1.42h9.09c0.78,0,1.42,0.64,1.42,1.42V23.68z"/>
		<path class="st116" d="M18.74,23.66c0,0.78-0.64,1.42-1.42,1.42H8.23c-0.78,0-1.42-0.64-1.42-1.42V6.75
			c0-0.78,0.64-1.42,1.42-1.42h9.09c0.78,0,1.42,0.64,1.42,1.42V23.66z"/>
		<path class="st117" d="M18.71,23.65c0,0.78-0.64,1.42-1.42,1.42H8.2c-0.78,0-1.42-0.64-1.42-1.42V6.74c0-0.78,0.64-1.42,1.42-1.42
			h9.09c0.78,0,1.42,0.64,1.42,1.42V23.65z"/>
		<path class="st118" d="M18.69,23.63c0,0.78-0.64,1.42-1.42,1.42H8.18c-0.78,0-1.42-0.64-1.42-1.42V6.72
			c0-0.78,0.64-1.42,1.42-1.42h9.09c0.78,0,1.42,0.64,1.42,1.42V23.63z"/>
		<path class="st119" d="M18.67,23.62c0,0.78-0.64,1.42-1.42,1.42H8.16c-0.78,0-1.42-0.64-1.42-1.42V6.71
			c0-0.78,0.64-1.42,1.42-1.42h9.09c0.78,0,1.42,0.64,1.42,1.42V23.62z"/>
		<path class="st120" d="M18.64,23.61c0,0.78-0.64,1.42-1.42,1.42H8.13c-0.78,0-1.42-0.64-1.42-1.42V6.7c0-0.78,0.64-1.42,1.42-1.42
			h9.09c0.78,0,1.42,0.64,1.42,1.42V23.61z"/>
		<path class="st121" d="M18.62,23.59c0,0.78-0.64,1.42-1.42,1.42H8.11c-0.78,0-1.42-0.64-1.42-1.42V6.68
			c0-0.78,0.64-1.42,1.42-1.42h9.09c0.78,0,1.42,0.64,1.42,1.42V23.59z"/>
		<path class="st122" d="M18.6,23.58c0,0.78-0.64,1.42-1.42,1.42H8.09c-0.78,0-1.42-0.64-1.42-1.42V6.67c0-0.78,0.64-1.42,1.42-1.42
			h9.09c0.78,0,1.42,0.64,1.42,1.42V23.58z"/>
		<path class="st123" d="M18.57,23.56c0,0.78-0.64,1.42-1.42,1.42H8.06c-0.78,0-1.42-0.64-1.42-1.42V6.65
			c0-0.78,0.64-1.42,1.42-1.42h9.09c0.78,0,1.42,0.64,1.42,1.42V23.56z"/>
		<path class="st124" d="M18.55,23.55c0,0.78-0.64,1.42-1.42,1.42H8.04c-0.78,0-1.42-0.64-1.42-1.42V6.64
			c0-0.78,0.64-1.42,1.42-1.42h9.09c0.78,0,1.42,0.64,1.42,1.42V23.55z"/>
		<path class="st125" d="M18.53,23.54c0,0.78-0.64,1.42-1.42,1.42H8.02c-0.78,0-1.42-0.64-1.42-1.42V6.63
			c0-0.78,0.64-1.42,1.42-1.42h9.09c0.78,0,1.42,0.64,1.42,1.42V23.54z"/>
		<path class="st126" d="M18.5,23.52c0,0.78-0.64,1.42-1.42,1.42H7.99c-0.78,0-1.42-0.64-1.42-1.42V6.61c0-0.78,0.64-1.42,1.42-1.42
			h9.09c0.78,0,1.42,0.64,1.42,1.42V23.52z"/>
		<path class="st127" d="M18.48,23.51c0,0.78-0.64,1.42-1.42,1.42H7.97c-0.78,0-1.42-0.64-1.42-1.42V6.6c0-0.78,0.64-1.42,1.42-1.42
			h9.09c0.78,0,1.42,0.64,1.42,1.42V23.51z"/>
		<path class="st128" d="M18.45,23.49c0,0.78-0.64,1.42-1.42,1.42H7.95c-0.78,0-1.42-0.64-1.42-1.42V6.58
			c0-0.78,0.64-1.42,1.42-1.42h9.09c0.78,0,1.42,0.64,1.42,1.42V23.49z"/>
		<path class="st129" d="M18.43,23.48c0,0.78-0.64,1.42-1.42,1.42H7.92c-0.78,0-1.42-0.64-1.42-1.42V6.57
			c0-0.78,0.64-1.42,1.42-1.42h9.09c0.78,0,1.42,0.64,1.42,1.42V23.48z"/>
		<path class="st130" d="M18.41,23.46c0,0.78-0.64,1.42-1.42,1.42H7.9c-0.78,0-1.42-0.64-1.42-1.42V6.55c0-0.78,0.64-1.42,1.42-1.42
			h9.09c0.78,0,1.42,0.64,1.42,1.42V23.46z"/>
		<path class="st131" d="M18.38,23.45c0,0.78-0.64,1.42-1.42,1.42H7.87c-0.78,0-1.42-0.64-1.42-1.42V6.54
			c0-0.78,0.64-1.42,1.42-1.42h9.09c0.78,0,1.42,0.64,1.42,1.42V23.45z"/>
		<path class="st132" d="M18.36,23.44c0,0.78-0.64,1.42-1.42,1.42H7.85c-0.78,0-1.42-0.64-1.42-1.42V6.53
			c0-0.78,0.64-1.42,1.42-1.42h9.09c0.78,0,1.42,0.64,1.42,1.42V23.44z"/>
		<path class="st133" d="M18.34,23.42c0,0.78-0.64,1.42-1.42,1.42H7.83c-0.78,0-1.42-0.64-1.42-1.42V6.51
			c0-0.78,0.64-1.42,1.42-1.42h9.09c0.78,0,1.42,0.64,1.42,1.42V23.42z"/>
		<path class="st134" d="M18.31,23.41c0,0.78-0.64,1.42-1.42,1.42H7.8c-0.78,0-1.42-0.64-1.42-1.42V6.5c0-0.78,0.64-1.42,1.42-1.42
			h9.09c0.78,0,1.42,0.64,1.42,1.42V23.41z"/>
		<path class="st135" d="M18.29,23.39c0,0.78-0.64,1.42-1.42,1.42H7.78c-0.78,0-1.42-0.64-1.42-1.42V6.48C6.36,5.7,7,5.07,7.78,5.07
			h9.09c0.78,0,1.42,0.64,1.42,1.42V23.39z"/>
		<path class="st136" d="M18.27,23.38c0,0.78-0.64,1.42-1.42,1.42H7.76c-0.78,0-1.42-0.64-1.42-1.42V6.47
			c0-0.78,0.64-1.42,1.42-1.42h9.09c0.78,0,1.42,0.64,1.42,1.42V23.38z"/>
		<path class="st137" d="M18.24,23.37c0,0.78-0.64,1.42-1.42,1.42H7.73c-0.78,0-1.42-0.64-1.42-1.42V6.46
			c0-0.78,0.64-1.42,1.42-1.42h9.09c0.78,0,1.42,0.64,1.42,1.42V23.37z"/>
		<path class="st138" d="M18.22,23.35c0,0.78-0.64,1.42-1.42,1.42H7.71c-0.78,0-1.42-0.64-1.42-1.42V6.44
			c0-0.78,0.64-1.42,1.42-1.42h9.09c0.78,0,1.42,0.64,1.42,1.42V23.35z"/>
		<path class="st139" d="M18.2,23.34c0,0.78-0.64,1.42-1.42,1.42H7.69c-0.78,0-1.42-0.64-1.42-1.42V6.43c0-0.78,0.64-1.42,1.42-1.42
			h9.09c0.78,0,1.42,0.64,1.42,1.42V23.34z"/>
		<path class="st140" d="M18.17,23.32c0,0.78-0.64,1.42-1.42,1.42H7.66c-0.78,0-1.42-0.64-1.42-1.42V6.41C6.25,5.63,6.88,5,7.66,5
			h9.09c0.78,0,1.42,0.64,1.42,1.42V23.32z"/>
		<path class="st141" d="M18.15,23.31c0,0.78-0.64,1.42-1.42,1.42H7.64c-0.78,0-1.42-0.64-1.42-1.42V6.4c0-0.78,0.64-1.42,1.42-1.42
			h9.09c0.78,0,1.42,0.64,1.42,1.42V23.31z"/>
		<path class="st142" d="M18.13,23.3c0,0.78-0.64,1.42-1.42,1.42H7.62c-0.78,0-1.42-0.64-1.42-1.42V6.39c0-0.78,0.64-1.42,1.42-1.42
			h9.09c0.78,0,1.42,0.64,1.42,1.42V23.3z"/>
		<path class="st143" d="M18.1,23.28c0,0.78-0.64,1.42-1.42,1.42H7.59c-0.78,0-1.42-0.64-1.42-1.42V6.37c0-0.78,0.64-1.42,1.42-1.42
			h9.09c0.78,0,1.42,0.64,1.42,1.42V23.28z"/>
		<path class="st144" d="M18.08,23.27c0,0.78-0.64,1.42-1.42,1.42H7.57c-0.78,0-1.42-0.64-1.42-1.42V6.36
			c0-0.78,0.64-1.42,1.42-1.42h9.09c0.78,0,1.42,0.64,1.42,1.42V23.27z"/>
		<path class="st145" d="M18.05,23.25c0,0.78-0.64,1.42-1.42,1.42H7.55c-0.78,0-1.42-0.64-1.42-1.42V6.34
			c0-0.78,0.64-1.42,1.42-1.42h9.09c0.78,0,1.42,0.64,1.42,1.42V23.25z"/>
		<path class="st146" d="M18.03,23.24c0,0.78-0.64,1.42-1.42,1.42H7.52c-0.78,0-1.42-0.64-1.42-1.42V6.33
			c0-0.78,0.64-1.42,1.42-1.42h9.09c0.78,0,1.42,0.64,1.42,1.42V23.24z"/>
		<path class="st147" d="M18.01,23.22c0,0.78-0.64,1.42-1.42,1.42H7.5c-0.78,0-1.42-0.64-1.42-1.42V6.31c0-0.78,0.64-1.42,1.42-1.42
			h9.09c0.78,0,1.42,0.64,1.42,1.42V23.22z"/>
		<path class="st148" d="M17.98,23.21c0,0.78-0.64,1.42-1.42,1.42H7.47c-0.78,0-1.42-0.64-1.42-1.42V6.3c0-0.78,0.64-1.42,1.42-1.42
			h9.09c0.78,0,1.42,0.64,1.42,1.42V23.21z"/>
		<path class="st149" d="M17.96,23.2c0,0.78-0.64,1.42-1.42,1.42H7.45c-0.78,0-1.42-0.64-1.42-1.42V6.29c0-0.78,0.64-1.42,1.42-1.42
			h9.09c0.78,0,1.42,0.64,1.42,1.42V23.2z"/>
		<path class="st150" d="M17.94,23.18c0,0.78-0.64,1.42-1.42,1.42H7.43c-0.78,0-1.42-0.64-1.42-1.42V6.27
			c0-0.78,0.64-1.42,1.42-1.42h9.09c0.78,0,1.42,0.64,1.42,1.42V23.18z"/>
		<path class="st151" d="M17.91,23.17c0,0.78-0.64,1.42-1.42,1.42H7.4c-0.78,0-1.42-0.64-1.42-1.42V6.26c0-0.78,0.64-1.42,1.42-1.42
			h9.09c0.78,0,1.42,0.64,1.42,1.42V23.17z"/>
		<path class="st152" d="M17.89,23.15c0,0.78-0.64,1.42-1.42,1.42H7.38c-0.78,0-1.42-0.64-1.42-1.42V6.24
			c0-0.78,0.64-1.42,1.42-1.42h9.09c0.78,0,1.42,0.64,1.42,1.42V23.15z"/>
		<path class="st153" d="M17.87,23.14c0,0.78-0.64,1.42-1.42,1.42H7.36c-0.78,0-1.42-0.64-1.42-1.42V6.23
			c0-0.78,0.64-1.42,1.42-1.42h9.09c0.78,0,1.42,0.64,1.42,1.42V23.14z"/>
		<path class="st154" d="M17.84,23.13c0,0.78-0.64,1.42-1.42,1.42H7.33c-0.78,0-1.42-0.64-1.42-1.42V6.22
			c0-0.78,0.64-1.42,1.42-1.42h9.09c0.78,0,1.42,0.64,1.42,1.42V23.13z"/>
		<path class="st155" d="M17.82,23.11c0,0.78-0.64,1.42-1.42,1.42H7.31c-0.78,0-1.42-0.64-1.42-1.42V6.2c0-0.78,0.64-1.42,1.42-1.42
			h9.09c0.78,0,1.42,0.64,1.42,1.42V23.11z"/>
		<path class="st156" d="M17.8,23.1c0,0.78-0.64,1.42-1.42,1.42H7.29c-0.78,0-1.42-0.64-1.42-1.42V6.19c0-0.78,0.64-1.42,1.42-1.42
			h9.09c0.78,0,1.42,0.64,1.42,1.42V23.1z"/>
		<path class="st157" d="M17.77,23.08c0,0.78-0.64,1.42-1.42,1.42H7.26c-0.78,0-1.42-0.64-1.42-1.42V6.17
			c0-0.78,0.64-1.42,1.42-1.42h9.09c0.78,0,1.42,0.64,1.42,1.42V23.08z"/>
		<path class="st158" d="M17.75,23.07c0,0.78-0.64,1.42-1.42,1.42H7.24c-0.78,0-1.42-0.64-1.42-1.42V6.16
			c0-0.78,0.64-1.42,1.42-1.42h9.09c0.78,0,1.42,0.64,1.42,1.42V23.07z"/>
		<path class="st159" d="M17.73,23.06c0,0.78-0.64,1.42-1.42,1.42H7.22c-0.78,0-1.42-0.64-1.42-1.42V6.15
			c0-0.78,0.64-1.42,1.42-1.42h9.09c0.78,0,1.42,0.64,1.42,1.42V23.06z"/>
		<path class="st160" d="M17.7,23.04c0,0.78-0.64,1.42-1.42,1.42H7.19c-0.78,0-1.42-0.64-1.42-1.42V6.13c0-0.78,0.64-1.42,1.42-1.42
			h9.09c0.78,0,1.42,0.64,1.42,1.42V23.04z"/>
		<path class="st161" d="M17.68,23.03c0,0.78-0.64,1.42-1.42,1.42H7.17c-0.78,0-1.42-0.64-1.42-1.42V6.12
			c0-0.78,0.64-1.42,1.42-1.42h9.09c0.78,0,1.42,0.64,1.42,1.42V23.03z"/>
		<path class="st162" d="M17.65,23.01c0,0.78-0.64,1.42-1.42,1.42H7.15c-0.78,0-1.42-0.64-1.42-1.42V6.1c0-0.78,0.64-1.42,1.42-1.42
			h9.09c0.78,0,1.42,0.64,1.42,1.42V23.01z"/>
		<path class="st163" d="M17.63,23c0,0.78-0.64,1.42-1.42,1.42H7.12c-0.78,0-1.42-0.64-1.42-1.42V6.09c0-0.78,0.64-1.42,1.42-1.42
			h9.09c0.78,0,1.42,0.64,1.42,1.42V23z"/>
		<path class="st164" d="M17.61,22.98c0,0.78-0.64,1.42-1.42,1.42H7.1c-0.78,0-1.42-0.64-1.42-1.42V6.07c0-0.78,0.64-1.42,1.42-1.42
			h9.09c0.78,0,1.42,0.64,1.42,1.42V22.98z"/>
		<path class="st165" d="M17.58,22.97c0,0.78-0.64,1.42-1.42,1.42H7.07c-0.78,0-1.42-0.64-1.42-1.42V6.06
			c0-0.78,0.64-1.42,1.42-1.42h9.09c0.78,0,1.42,0.64,1.42,1.42V22.97z"/>
		<path class="st166" d="M17.56,22.96c0,0.78-0.64,1.42-1.42,1.42H7.05c-0.78,0-1.42-0.64-1.42-1.42V6.05
			c0-0.78,0.64-1.42,1.42-1.42h9.09c0.78,0,1.42,0.64,1.42,1.42V22.96z"/>
		<path class="st167" d="M17.54,22.94c0,0.78-0.64,1.42-1.42,1.42H7.03c-0.78,0-1.42-0.64-1.42-1.42V6.03
			c0-0.78,0.64-1.42,1.42-1.42h9.09c0.78,0,1.42,0.64,1.42,1.42V22.94z"/>
		<path class="st168" d="M17.51,22.93c0,0.78-0.64,1.42-1.42,1.42H7c-0.78,0-1.42-0.64-1.42-1.42V6.02C5.59,5.24,6.23,4.6,7,4.6
			h9.09c0.78,0,1.42,0.64,1.42,1.42V22.93z"/>
		<path class="st169" d="M17.49,22.91c0,0.78-0.64,1.42-1.42,1.42H6.98c-0.78,0-1.42-0.64-1.42-1.42V6c0-0.78,0.64-1.42,1.42-1.42
			h9.09c0.78,0,1.42,0.64,1.42,1.42V22.91z"/>
		<path class="st170" d="M17.47,22.9c0,0.78-0.64,1.42-1.42,1.42H6.96c-0.78,0-1.42-0.64-1.42-1.42V5.99c0-0.78,0.64-1.42,1.42-1.42
			h9.09c0.78,0,1.42,0.64,1.42,1.42V22.9z"/>
		<path class="st171" d="M17.44,22.89c0,0.78-0.64,1.42-1.42,1.42H6.93c-0.78,0-1.42-0.64-1.42-1.42V5.98
			c0-0.78,0.64-1.42,1.42-1.42h9.09c0.78,0,1.42,0.64,1.42,1.42V22.89z"/>
		<path class="st172" d="M17.42,22.87c0,0.78-0.64,1.42-1.42,1.42H6.91c-0.78,0-1.42-0.64-1.42-1.42V5.96
			c0-0.78,0.64-1.42,1.42-1.42H16c0.78,0,1.42,0.64,1.42,1.42V22.87z"/>
		<path class="st173" d="M17.4,22.86c0,0.78-0.64,1.42-1.42,1.42H6.89c-0.78,0-1.42-0.64-1.42-1.42V5.95c0-0.78,0.64-1.42,1.42-1.42
			h9.09c0.78,0,1.42,0.64,1.42,1.42V22.86z"/>
		<path class="st174" d="M17.37,22.84c0,0.78-0.64,1.42-1.42,1.42H6.86c-0.78,0-1.42-0.64-1.42-1.42V5.93
			c0-0.78,0.64-1.42,1.42-1.42h9.09c0.78,0,1.42,0.64,1.42,1.42V22.84z"/>
		<path class="st175" d="M17.35,22.83c0,0.78-0.64,1.42-1.42,1.42H6.84c-0.78,0-1.42-0.64-1.42-1.42V5.92
			c0-0.78,0.64-1.42,1.42-1.42h9.09c0.78,0,1.42,0.64,1.42,1.42V22.83z"/>
		<path class="st176" d="M17.33,22.82c0,0.78-0.64,1.42-1.42,1.42H6.82c-0.78,0-1.42-0.64-1.42-1.42V5.91
			c0-0.78,0.64-1.42,1.42-1.42h9.09c0.78,0,1.42,0.64,1.42,1.42V22.82z"/>
		<path class="st177" d="M17.3,22.8c0,0.78-0.64,1.42-1.42,1.42H6.79c-0.78,0-1.42-0.64-1.42-1.42V5.89c0-0.78,0.64-1.42,1.42-1.42
			h9.09c0.78,0,1.42,0.64,1.42,1.42V22.8z"/>
		<path class="st178" d="M17.28,22.79c0,0.78-0.64,1.42-1.42,1.42H6.77c-0.78,0-1.42-0.64-1.42-1.42V5.88
			c0-0.78,0.64-1.42,1.42-1.42h9.09c0.78,0,1.42,0.64,1.42,1.42V22.79z"/>
		<path class="st178" d="M17.25,22.77c0,0.78-0.64,1.42-1.42,1.42H6.75c-0.78,0-1.42-0.64-1.42-1.42V5.86
			c0-0.78,0.64-1.42,1.42-1.42h9.09c0.78,0,1.42,0.64,1.42,1.42V22.77z"/>
		<path class="st179" d="M17.23,22.76c0,0.78-0.64,1.42-1.42,1.42H6.72c-0.78,0-1.42-0.64-1.42-1.42V5.85
			c0-0.78,0.64-1.42,1.42-1.42h9.09c0.78,0,1.42,0.64,1.42,1.42V22.76z"/>
		<path class="st180" d="M17.21,22.74c0,0.78-0.64,1.42-1.42,1.42H6.7c-0.78,0-1.42-0.64-1.42-1.42V5.83c0-0.78,0.64-1.42,1.42-1.42
			h9.09c0.78,0,1.42,0.64,1.42,1.42V22.74z"/>
		<path class="st181" d="M17.18,22.73c0,0.78-0.64,1.42-1.42,1.42H6.67c-0.78,0-1.42-0.64-1.42-1.42V5.82
			c0-0.78,0.64-1.42,1.42-1.42h9.09c0.78,0,1.42,0.64,1.42,1.42V22.73z"/>
		<path class="st182" d="M17.16,22.72c0,0.78-0.64,1.42-1.42,1.42H6.65c-0.78,0-1.42-0.64-1.42-1.42V5.81
			c0-0.78,0.64-1.42,1.42-1.42h9.09c0.78,0,1.42,0.64,1.42,1.42V22.72z"/>
		<path class="st183" d="M17.14,22.7c0,0.78-0.64,1.42-1.42,1.42H6.63c-0.78,0-1.42-0.64-1.42-1.42V5.79c0-0.78,0.64-1.42,1.42-1.42
			h9.09c0.78,0,1.42,0.64,1.42,1.42V22.7z"/>
		<path class="st184" d="M17.11,22.69c0,0.78-0.64,1.42-1.42,1.42H6.6c-0.78,0-1.42-0.64-1.42-1.42V5.78C5.19,5,5.82,4.36,6.6,4.36
			h9.09c0.78,0,1.42,0.64,1.42,1.42V22.69z"/>
		<path class="st185" d="M17.09,22.67c0,0.78-0.64,1.42-1.42,1.42H6.58c-0.78,0-1.42-0.64-1.42-1.42V5.76
			c0-0.78,0.64-1.42,1.42-1.42h9.09c0.78,0,1.42,0.64,1.42,1.42V22.67z"/>
		<path class="st186" d="M17.07,22.66c0,0.78-0.64,1.42-1.42,1.42H6.56c-0.78,0-1.42-0.64-1.42-1.42V5.75
			c0-0.78,0.64-1.42,1.42-1.42h9.09c0.78,0,1.42,0.64,1.42,1.42V22.66z"/>
		<path class="st187" d="M17.04,22.65c0,0.78-0.64,1.42-1.42,1.42H6.53c-0.78,0-1.42-0.64-1.42-1.42V5.74
			c0-0.78,0.64-1.42,1.42-1.42h9.09c0.78,0,1.42,0.64,1.42,1.42V22.65z"/>
		<path class="st188" d="M17.02,22.63c0,0.78-0.64,1.42-1.42,1.42H6.51c-0.78,0-1.42-0.64-1.42-1.42V5.72
			c0-0.78,0.64-1.42,1.42-1.42h9.09c0.78,0,1.42,0.64,1.42,1.42V22.63z"/>
		<path class="st189" d="M17,22.62c0,0.78-0.64,1.42-1.42,1.42H6.49c-0.78,0-1.42-0.64-1.42-1.42V5.71c0-0.78,0.64-1.42,1.42-1.42
			h9.09c0.78,0,1.42,0.64,1.42,1.42V22.62z"/>
		<path class="st190" d="M16.97,22.6c0,0.78-0.64,1.42-1.42,1.42H6.46c-0.78,0-1.42-0.64-1.42-1.42V5.69c0-0.78,0.64-1.42,1.42-1.42
			h9.09c0.78,0,1.42,0.64,1.42,1.42V22.6z"/>
		<path class="st191" d="M16.95,22.59c0,0.78-0.64,1.42-1.42,1.42H6.44c-0.78,0-1.42-0.64-1.42-1.42V5.68
			c0-0.78,0.64-1.42,1.42-1.42h9.09c0.78,0,1.42,0.64,1.42,1.42V22.59z"/>
		<path class="st192" d="M16.93,22.58c0,0.78-0.64,1.42-1.42,1.42H6.42C5.64,23.99,5,23.35,5,22.58V5.67c0-0.78,0.64-1.42,1.42-1.42
			h9.09c0.78,0,1.42,0.64,1.42,1.42V22.58z"/>
		<path class="st193" d="M16.9,22.56c0,0.78-0.64,1.42-1.42,1.42H6.39c-0.78,0-1.42-0.64-1.42-1.42V5.65c0-0.78,0.64-1.42,1.42-1.42
			h9.09c0.78,0,1.42,0.64,1.42,1.42V22.56z"/>
		<path class="st194" d="M16.88,22.55c0,0.78-0.64,1.42-1.42,1.42H6.37c-0.78,0-1.42-0.64-1.42-1.42V5.64
			c0-0.78,0.64-1.42,1.42-1.42h9.09c0.78,0,1.42,0.64,1.42,1.42V22.55z"/>
		<path class="st195" d="M16.85,22.53c0,0.78-0.64,1.42-1.42,1.42H6.35c-0.78,0-1.42-0.64-1.42-1.42V5.62
			c0-0.78,0.64-1.42,1.42-1.42h9.09c0.78,0,1.42,0.64,1.42,1.42V22.53z"/>
		<path class="st196" d="M16.83,22.52c0,0.78-0.64,1.42-1.42,1.42H6.32c-0.78,0-1.42-0.64-1.42-1.42V5.61
			c0-0.78,0.64-1.42,1.42-1.42h9.09c0.78,0,1.42,0.64,1.42,1.42V22.52z"/>
		<path class="st197" d="M16.81,22.5c0,0.78-0.64,1.42-1.42,1.42H6.3c-0.78,0-1.42-0.64-1.42-1.42V5.59c0-0.78,0.64-1.42,1.42-1.42
			h9.09c0.78,0,1.42,0.64,1.42,1.42V22.5z"/>
		<path class="st198" d="M16.78,22.49c0,0.78-0.64,1.42-1.42,1.42H6.27c-0.78,0-1.42-0.64-1.42-1.42V5.58
			c0-0.78,0.64-1.42,1.42-1.42h9.09c0.78,0,1.42,0.64,1.42,1.42V22.49z"/>
		<path class="st199" d="M16.76,22.48c0,0.78-0.64,1.42-1.42,1.42H6.25c-0.78,0-1.42-0.64-1.42-1.42V5.57
			c0-0.78,0.64-1.42,1.42-1.42h9.09c0.78,0,1.42,0.64,1.42,1.42V22.48z"/>
		<path class="st200" d="M16.74,22.46c0,0.78-0.64,1.42-1.42,1.42H6.23c-0.78,0-1.42-0.64-1.42-1.42V5.55
			c0-0.78,0.64-1.42,1.42-1.42h9.09c0.78,0,1.42,0.64,1.42,1.42V22.46z"/>
		<path class="st201" d="M16.71,22.45c0,0.78-0.64,1.42-1.42,1.42H6.2c-0.78,0-1.42-0.64-1.42-1.42V5.54c0-0.78,0.64-1.42,1.42-1.42
			h9.09c0.78,0,1.42,0.64,1.42,1.42V22.45z"/>
		<path class="st202" d="M16.69,22.43c0,0.78-0.64,1.42-1.42,1.42H6.18c-0.78,0-1.42-0.64-1.42-1.42V5.52
			c0-0.78,0.64-1.42,1.42-1.42h9.09c0.78,0,1.42,0.64,1.42,1.42V22.43z"/>
		<path class="st203" d="M16.67,22.42c0,0.78-0.64,1.42-1.42,1.42H6.16c-0.78,0-1.42-0.64-1.42-1.42V5.51
			c0-0.78,0.64-1.42,1.42-1.42h9.09c0.78,0,1.42,0.64,1.42,1.42V22.42z"/>
		<path class="st204" d="M16.64,22.41c0,0.78-0.64,1.42-1.42,1.42H6.13c-0.78,0-1.42-0.64-1.42-1.42V5.5c0-0.78,0.64-1.42,1.42-1.42
			h9.09c0.78,0,1.42,0.64,1.42,1.42V22.41z"/>
		<path class="st205" d="M16.62,22.39c0,0.78-0.64,1.42-1.42,1.42H6.11c-0.78,0-1.42-0.64-1.42-1.42V5.48
			c0-0.78,0.64-1.42,1.42-1.42h9.09c0.78,0,1.42,0.64,1.42,1.42V22.39z"/>
		<path class="st206" d="M16.6,22.38c0,0.78-0.64,1.42-1.42,1.42H6.09c-0.78,0-1.42-0.64-1.42-1.42V5.47c0-0.78,0.64-1.42,1.42-1.42
			h9.09c0.78,0,1.42,0.64,1.42,1.42V22.38z"/>
		<path class="st207" d="M16.57,22.36c0,0.78-0.64,1.42-1.42,1.42H6.06c-0.78,0-1.42-0.64-1.42-1.42V5.45
			c0-0.78,0.64-1.42,1.42-1.42h9.09c0.78,0,1.42,0.64,1.42,1.42V22.36z"/>
		<path class="st208" d="M16.55,22.35c0,0.78-0.64,1.42-1.42,1.42H6.04c-0.78,0-1.42-0.64-1.42-1.42V5.44
			c0-0.78,0.64-1.42,1.42-1.42h9.09c0.78,0,1.42,0.64,1.42,1.42V22.35z"/>
		<path class="st209" d="M16.53,22.34c0,0.78-0.64,1.42-1.42,1.42H6.02c-0.78,0-1.42-0.64-1.42-1.42V5.43
			c0-0.78,0.64-1.42,1.42-1.42h9.09c0.78,0,1.42,0.64,1.42,1.42V22.34z"/>
		<path class="st210" d="M16.5,22.32c0,0.78-0.64,1.42-1.42,1.42H5.99c-0.78,0-1.42-0.64-1.42-1.42V5.41c0-0.78,0.64-1.42,1.42-1.42
			h9.09c0.78,0,1.42,0.64,1.42,1.42V22.32z"/>
		<path class="st211" d="M16.48,22.31c0,0.78-0.64,1.42-1.42,1.42H5.97c-0.78,0-1.42-0.64-1.42-1.42V5.4c0-0.78,0.64-1.42,1.42-1.42
			h9.09c0.78,0,1.42,0.64,1.42,1.42V22.31z"/>
		<path class="st211" d="M16.45,22.29c0,0.78-0.64,1.42-1.42,1.42H5.95c-0.78,0-1.42-0.64-1.42-1.42V5.38
			c0-0.78,0.64-1.42,1.42-1.42h9.09c0.78,0,1.42,0.64,1.42,1.42V22.29z"/>
		<path class="st212" d="M16.43,22.28c0,0.78-0.64,1.42-1.42,1.42H5.92c-0.78,0-1.42-0.64-1.42-1.42V5.37
			c0-0.78,0.64-1.42,1.42-1.42h9.09c0.78,0,1.42,0.64,1.42,1.42V22.28z"/>
		<path class="st213" d="M16.41,22.26c0,0.78-0.64,1.42-1.42,1.42H5.9c-0.78,0-1.42-0.64-1.42-1.42V5.35c0-0.78,0.64-1.42,1.42-1.42
			h9.09c0.78,0,1.42,0.64,1.42,1.42V22.26z"/>
		<path class="st214" d="M16.38,22.25c0,0.78-0.64,1.42-1.42,1.42H5.87c-0.78,0-1.42-0.64-1.42-1.42V5.34
			c0-0.78,0.64-1.42,1.42-1.42h9.09c0.78,0,1.42,0.64,1.42,1.42V22.25z"/>
		<path class="st215" d="M16.36,22.24c0,0.78-0.64,1.42-1.42,1.42H5.85c-0.78,0-1.42-0.64-1.42-1.42V5.33
			c0-0.78,0.64-1.42,1.42-1.42h9.09c0.78,0,1.42,0.64,1.42,1.42V22.24z"/>
		<path class="st216" d="M16.34,22.22c0,0.78-0.64,1.42-1.42,1.42H5.83c-0.78,0-1.42-0.64-1.42-1.42V5.31
			c0-0.78,0.64-1.42,1.42-1.42h9.09c0.78,0,1.42,0.64,1.42,1.42V22.22z"/>
		<path class="st217" d="M16.31,22.21c0,0.78-0.64,1.42-1.42,1.42H5.8c-0.78,0-1.42-0.64-1.42-1.42V5.3c0-0.78,0.64-1.42,1.42-1.42
			h9.09c0.78,0,1.42,0.64,1.42,1.42V22.21z"/>
		<path class="st218" d="M16.29,22.19c0,0.78-0.64,1.42-1.42,1.42H5.78c-0.78,0-1.42-0.64-1.42-1.42V5.28C4.36,4.5,5,3.87,5.78,3.87
			h9.09c0.78,0,1.42,0.64,1.42,1.42V22.19z"/>
		<path class="st219" d="M16.27,22.18c0,0.78-0.64,1.42-1.42,1.42H5.76c-0.78,0-1.42-0.64-1.42-1.42V5.27
			c0-0.78,0.64-1.42,1.42-1.42h9.09c0.78,0,1.42,0.64,1.42,1.42V22.18z"/>
		<path class="st219" d="M16.24,22.17c0,0.78-0.64,1.42-1.42,1.42H5.73c-0.78,0-1.42-0.64-1.42-1.42V5.26
			c0-0.78,0.64-1.42,1.42-1.42h9.09c0.78,0,1.42,0.64,1.42,1.42V22.17z"/>
		<path class="st220" d="M16.22,22.15c0,0.78-0.64,1.42-1.42,1.42H5.71c-0.78,0-1.42-0.64-1.42-1.42V5.24
			c0-0.78,0.64-1.42,1.42-1.42h9.09c0.78,0,1.42,0.64,1.42,1.42V22.15z"/>
		<path class="st221" d="M16.2,22.14c0,0.78-0.64,1.42-1.42,1.42H5.69c-0.78,0-1.42-0.64-1.42-1.42V5.23c0-0.78,0.64-1.42,1.42-1.42
			h9.09c0.78,0,1.42,0.64,1.42,1.42V22.14z"/>
		<path class="st222" d="M16.17,22.12c0,0.78-0.64,1.42-1.42,1.42H5.66c-0.78,0-1.42-0.64-1.42-1.42V5.21
			c0-0.78,0.64-1.42,1.42-1.42h9.09c0.78,0,1.42,0.64,1.42,1.42V22.12z"/>
		<path class="st223" d="M16.15,22.11c0,0.78-0.64,1.42-1.42,1.42H5.64c-0.78,0-1.42-0.64-1.42-1.42V5.2c0-0.78,0.64-1.42,1.42-1.42
			h9.09c0.78,0,1.42,0.64,1.42,1.42V22.11z"/>
		<path class="st224" d="M16.13,22.1c0,0.78-0.64,1.42-1.42,1.42H5.62c-0.78,0-1.42-0.64-1.42-1.42V5.19c0-0.78,0.64-1.42,1.42-1.42
			h9.09c0.78,0,1.42,0.64,1.42,1.42V22.1z"/>
		<path class="st225" d="M16.1,22.08c0,0.78-0.64,1.42-1.42,1.42H5.59c-0.78,0-1.42-0.64-1.42-1.42V5.17c0-0.78,0.64-1.42,1.42-1.42
			h9.09c0.78,0,1.42,0.64,1.42,1.42V22.08z"/>
		<path class="st226" d="M16.08,22.07c0,0.78-0.64,1.42-1.42,1.42H5.57c-0.78,0-1.42-0.64-1.42-1.42V5.16
			c0-0.78,0.64-1.42,1.42-1.42h9.09c0.78,0,1.42,0.64,1.42,1.42V22.07z"/>
		<path class="st227" d="M16.05,22.05c0,0.78-0.64,1.42-1.42,1.42H5.55c-0.78,0-1.42-0.64-1.42-1.42V5.14
			c0-0.78,0.64-1.42,1.42-1.42h9.09c0.78,0,1.42,0.64,1.42,1.42V22.05z"/>
		<path class="st228" d="M16.03,22.04c0,0.78-0.64,1.42-1.42,1.42H5.52c-0.78,0-1.42-0.64-1.42-1.42V5.13
			c0-0.78,0.64-1.42,1.42-1.42h9.09c0.78,0,1.42,0.64,1.42,1.42V22.04z"/>
		<path class="st229" d="M16.01,22.02c0,0.78-0.64,1.42-1.42,1.42H5.5c-0.78,0-1.42-0.64-1.42-1.42V5.11c0-0.78,0.64-1.42,1.42-1.42
			h9.09c0.78,0,1.42,0.64,1.42,1.42V22.02z"/>
		<path class="st230" d="M15.98,22.01c0,0.78-0.64,1.42-1.42,1.42H5.47c-0.78,0-1.42-0.64-1.42-1.42V5.1c0-0.78,0.64-1.42,1.42-1.42
			h9.09c0.78,0,1.42,0.64,1.42,1.42V22.01z"/>
		<path class="st231" d="M15.96,22c0,0.78-0.64,1.42-1.42,1.42H5.45c-0.78,0-1.42-0.64-1.42-1.42V5.09c0-0.78,0.64-1.42,1.42-1.42
			h9.09c0.78,0,1.42,0.64,1.42,1.42V22z"/>
		<path class="st232" d="M15.94,21.98c0,0.78-0.64,1.42-1.42,1.42H5.43c-0.78,0-1.42-0.64-1.42-1.42V5.07
			c0-0.78,0.64-1.42,1.42-1.42h9.09c0.78,0,1.42,0.64,1.42,1.42V21.98z"/>
		<path class="st233" d="M15.91,21.97c0,0.78-0.64,1.42-1.42,1.42H5.4c-0.78,0-1.42-0.64-1.42-1.42V5.06c0-0.78,0.64-1.42,1.42-1.42
			h9.09c0.78,0,1.42,0.64,1.42,1.42V21.97z"/>
		<path class="st234" d="M15.89,21.95c0,0.78-0.64,1.42-1.42,1.42H5.38c-0.78,0-1.42-0.64-1.42-1.42V5.04
			c0-0.78,0.64-1.42,1.42-1.42h9.09c0.78,0,1.42,0.64,1.42,1.42V21.95z"/>
		<path class="st234" d="M15.87,21.94c0,0.78-0.64,1.42-1.42,1.42H5.36c-0.78,0-1.42-0.64-1.42-1.42V5.03
			c0-0.78,0.64-1.42,1.42-1.42h9.09c0.78,0,1.42,0.64,1.42,1.42V21.94z"/>
		<path class="st235" d="M15.84,21.93c0,0.78-0.64,1.42-1.42,1.42H5.33c-0.78,0-1.42-0.64-1.42-1.42V5.02
			c0-0.78,0.64-1.42,1.42-1.42h9.09c0.78,0,1.42,0.64,1.42,1.42V21.93z"/>
		<path class="st235" d="M15.82,21.91c0,0.78-0.64,1.42-1.42,1.42H5.31c-0.78,0-1.42-0.64-1.42-1.42V5c0-0.78,0.64-1.42,1.42-1.42
			h9.09c0.78,0,1.42,0.64,1.42,1.42V21.91z"/>
		<path class="st236" d="M15.8,21.9c0,0.78-0.64,1.42-1.42,1.42H5.29c-0.78,0-1.42-0.64-1.42-1.42V4.99c0-0.78,0.64-1.42,1.42-1.42
			h9.09c0.78,0,1.42,0.64,1.42,1.42V21.9z"/>
		<path class="st236" d="M15.77,21.88c0,0.78-0.64,1.42-1.42,1.42H5.26c-0.78,0-1.42-0.64-1.42-1.42V4.97
			c0-0.78,0.64-1.42,1.42-1.42h9.09c0.78,0,1.42,0.64,1.42,1.42V21.88z"/>
		<path class="st237" d="M15.75,21.87c0,0.78-0.64,1.42-1.42,1.42H5.24c-0.78,0-1.42-0.64-1.42-1.42V4.96
			c0-0.78,0.64-1.42,1.42-1.42h9.09c0.78,0,1.42,0.64,1.42,1.42V21.87z"/>
		<path class="st238" d="M15.73,21.86c0,0.78-0.64,1.42-1.42,1.42H5.22c-0.78,0-1.42-0.64-1.42-1.42V4.95
			c0-0.78,0.64-1.42,1.42-1.42h9.09c0.78,0,1.42,0.64,1.42,1.42V21.86z"/>
		<path class="st239" d="M15.7,21.84c0,0.78-0.64,1.42-1.42,1.42H5.19c-0.78,0-1.42-0.64-1.42-1.42V4.93c0-0.78,0.64-1.42,1.42-1.42
			h9.09c0.78,0,1.42,0.64,1.42,1.42V21.84z"/>
		<path class="st240" d="M15.68,21.83c0,0.78-0.64,1.42-1.42,1.42H5.17c-0.78,0-1.42-0.64-1.42-1.42V4.92
			c0-0.78,0.64-1.42,1.42-1.42h9.09c0.78,0,1.42,0.64,1.42,1.42V21.83z"/>
		<path class="st241" d="M15.65,21.81c0,0.78-0.64,1.42-1.42,1.42H5.15c-0.78,0-1.42-0.64-1.42-1.42V4.9c0-0.78,0.64-1.42,1.42-1.42
			h9.09c0.78,0,1.42,0.64,1.42,1.42V21.81z"/>
		<path class="st242" d="M15.63,21.8c0,0.78-0.64,1.42-1.42,1.42H5.12c-0.78,0-1.42-0.64-1.42-1.42V4.89c0-0.78,0.64-1.42,1.42-1.42
			h9.09c0.78,0,1.42,0.64,1.42,1.42V21.8z"/>
		<path class="st243" d="M15.61,21.78c0,0.78-0.64,1.42-1.42,1.42H5.1c-0.78,0-1.42-0.64-1.42-1.42V4.87c0-0.78,0.64-1.42,1.42-1.42
			h9.09c0.78,0,1.42,0.64,1.42,1.42V21.78z"/>
		<path class="st244" d="M15.58,21.77c0,0.78-0.64,1.42-1.42,1.42H5.07c-0.78,0-1.42-0.64-1.42-1.42V4.86
			c0-0.78,0.64-1.42,1.42-1.42h9.09c0.78,0,1.42,0.64,1.42,1.42V21.77z"/>
		<path class="st245" d="M15.56,21.76c0,0.78-0.64,1.42-1.42,1.42H5.05c-0.78,0-1.42-0.64-1.42-1.42V4.85
			c0-0.78,0.64-1.42,1.42-1.42h9.09c0.78,0,1.42,0.64,1.42,1.42V21.76z"/>
		<path class="st246" d="M15.54,21.74c0,0.78-0.64,1.42-1.42,1.42H5.03c-0.78,0-1.42-0.64-1.42-1.42V4.83
			c0-0.78,0.64-1.42,1.42-1.42h9.09c0.78,0,1.42,0.64,1.42,1.42V21.74z"/>
		<path class="st247" d="M15.51,21.73c0,0.78-0.64,1.42-1.42,1.42H5c-0.78,0-1.42-0.64-1.42-1.42V4.82C3.59,4.04,4.22,3.4,5,3.4
			h9.09c0.78,0,1.42,0.64,1.42,1.42V21.73z"/>
		<path class="st248" d="M15.49,21.71c0,0.78-0.64,1.42-1.42,1.42H4.98c-0.78,0-1.42-0.64-1.42-1.42V4.8c0-0.78,0.64-1.42,1.42-1.42
			h9.09c0.78,0,1.42,0.64,1.42,1.42V21.71z"/>
		<path class="st249" d="M15.47,21.7c0,0.78-0.64,1.42-1.42,1.42H4.96c-0.78,0-1.42-0.64-1.42-1.42V4.79c0-0.78,0.64-1.42,1.42-1.42
			h9.09c0.78,0,1.42,0.64,1.42,1.42V21.7z"/>
		<path class="st250" d="M15.44,21.69c0,0.78-0.64,1.42-1.42,1.42H4.93c-0.78,0-1.42-0.64-1.42-1.42V4.78
			c0-0.78,0.64-1.42,1.42-1.42h9.09c0.78,0,1.42,0.64,1.42,1.42V21.69z"/>
		<path class="st251" d="M15.42,21.67c0,0.78-0.64,1.42-1.42,1.42H4.91c-0.78,0-1.42-0.64-1.42-1.42V4.76
			c0-0.78,0.64-1.42,1.42-1.42H14c0.78,0,1.42,0.64,1.42,1.42V21.67z"/>
		<path class="st252" d="M15.4,21.66c0,0.78-0.64,1.42-1.42,1.42H4.89c-0.78,0-1.42-0.64-1.42-1.42V4.75c0-0.78,0.64-1.42,1.42-1.42
			h9.09c0.78,0,1.42,0.64,1.42,1.42V21.66z"/>
		<path class="st253" d="M15.37,21.64c0,0.78-0.64,1.42-1.42,1.42H4.86c-0.78,0-1.42-0.64-1.42-1.42V4.73
			c0-0.78,0.64-1.42,1.42-1.42h9.09c0.78,0,1.42,0.64,1.42,1.42V21.64z"/>
		<path class="st254" d="M15.35,21.63c0,0.78-0.64,1.42-1.42,1.42H4.84c-0.78,0-1.42-0.64-1.42-1.42V4.72
			c0-0.78,0.64-1.42,1.42-1.42h9.09c0.78,0,1.42,0.64,1.42,1.42V21.63z"/>
		<path class="st255" d="M15.33,21.61c0,0.78-0.64,1.42-1.42,1.42H4.82c-0.78,0-1.42-0.64-1.42-1.42V4.71
			c0-0.78,0.64-1.42,1.42-1.42h9.09c0.78,0,1.42,0.64,1.42,1.42V21.61z"/>
		<path class="st256" d="M15.3,21.6c0,0.78-0.64,1.42-1.42,1.42H4.79c-0.78,0-1.42-0.64-1.42-1.42V4.69c0-0.78,0.64-1.42,1.42-1.42
			h9.09c0.78,0,1.42,0.64,1.42,1.42V21.6z"/>
		<path class="st256" d="M15.28,21.59c0,0.78-0.64,1.42-1.42,1.42H4.77c-0.78,0-1.42-0.64-1.42-1.42V4.68
			c0-0.78,0.64-1.42,1.42-1.42h9.09c0.78,0,1.42,0.64,1.42,1.42V21.59z"/>
		<path class="st257" d="M15.25,21.57c0,0.78-0.64,1.42-1.42,1.42H4.75c-0.78,0-1.42-0.64-1.42-1.42V4.66
			c0-0.78,0.64-1.42,1.42-1.42h9.09c0.78,0,1.42,0.64,1.42,1.42V21.57z"/>
		<path class="st257" d="M15.23,21.56c0,0.78-0.64,1.42-1.42,1.42H4.72c-0.78,0-1.42-0.64-1.42-1.42V4.65
			c0-0.78,0.64-1.42,1.42-1.42h9.09c0.78,0,1.42,0.64,1.42,1.42V21.56z"/>
		<path class="st258" d="M15.21,21.54c0,0.78-0.64,1.42-1.42,1.42H4.7c-0.78,0-1.42-0.64-1.42-1.42V4.63c0-0.78,0.64-1.42,1.42-1.42
			h9.09c0.78,0,1.42,0.64,1.42,1.42V21.54z"/>
		<path class="st259" d="M15.18,21.53c0,0.78-0.64,1.42-1.42,1.42H4.67c-0.78,0-1.42-0.64-1.42-1.42V4.62
			c0-0.78,0.64-1.42,1.42-1.42h9.09c0.78,0,1.42,0.64,1.42,1.42V21.53z"/>
		<path class="st260" d="M15.16,21.52c0,0.78-0.64,1.42-1.42,1.42H4.65c-0.78,0-1.42-0.64-1.42-1.42V4.61
			c0-0.78,0.64-1.42,1.42-1.42h9.09c0.78,0,1.42,0.64,1.42,1.42V21.52z"/>
		<path class="st261" d="M15.14,21.5c0,0.78-0.64,1.42-1.42,1.42H4.63c-0.78,0-1.42-0.64-1.42-1.42V4.59c0-0.78,0.64-1.42,1.42-1.42
			h9.09c0.78,0,1.42,0.64,1.42,1.42V21.5z"/>
		<path class="st262" d="M15.11,21.49c0,0.78-0.64,1.42-1.42,1.42H4.6c-0.78,0-1.42-0.64-1.42-1.42V4.58c0-0.78,0.64-1.42,1.42-1.42
			h9.09c0.78,0,1.42,0.64,1.42,1.42V21.49z"/>
		<path class="st263" d="M15.09,21.47c0,0.78-0.64,1.42-1.42,1.42H4.58c-0.78,0-1.42-0.64-1.42-1.42V4.56
			c0-0.78,0.64-1.42,1.42-1.42h9.09c0.78,0,1.42,0.64,1.42,1.42V21.47z"/>
		<path class="st264" d="M15.07,21.46c0,0.78-0.64,1.42-1.42,1.42H4.56c-0.78,0-1.42-0.64-1.42-1.42V4.55
			c0-0.78,0.64-1.42,1.42-1.42h9.09c0.78,0,1.42,0.64,1.42,1.42V21.46z"/>
		<path class="st264" d="M15.04,21.45c0,0.78-0.64,1.42-1.42,1.42H4.53c-0.78,0-1.42-0.64-1.42-1.42V4.54
			c0-0.78,0.64-1.42,1.42-1.42h9.09c0.78,0,1.42,0.64,1.42,1.42V21.45z"/>
		<path class="st265" d="M15.02,21.43c0,0.78-0.64,1.42-1.42,1.42H4.51c-0.78,0-1.42-0.64-1.42-1.42V4.52
			c0-0.78,0.64-1.42,1.42-1.42h9.09c0.78,0,1.42,0.64,1.42,1.42V21.43z"/>
		<path class="st265" d="M15,21.42c0,0.78-0.64,1.42-1.42,1.42H4.49c-0.78,0-1.42-0.64-1.42-1.42V4.51c0-0.78,0.64-1.42,1.42-1.42
			h9.09c0.78,0,1.42,0.64,1.42,1.42V21.42z"/>
		<path class="st266" d="M14.97,21.4c0,0.78-0.64,1.42-1.42,1.42H4.46c-0.78,0-1.42-0.64-1.42-1.42V4.49c0-0.78,0.64-1.42,1.42-1.42
			h9.09c0.78,0,1.42,0.64,1.42,1.42V21.4z"/>
		<path class="st267" d="M14.95,21.39c0,0.78-0.64,1.42-1.42,1.42H4.44c-0.78,0-1.42-0.64-1.42-1.42V4.48
			c0-0.78,0.64-1.42,1.42-1.42h9.09c0.78,0,1.42,0.64,1.42,1.42V21.39z"/>
		<path class="st268" d="M14.93,21.37c0,0.78-0.64,1.42-1.42,1.42H4.42C3.64,22.79,3,22.15,3,21.37V4.47c0-0.78,0.64-1.42,1.42-1.42
			h9.09c0.78,0,1.42,0.64,1.42,1.42V21.37z"/>
		<path class="st269" d="M14.9,21.36c0,0.78-0.64,1.42-1.42,1.42H4.39c-0.78,0-1.42-0.64-1.42-1.42V4.45c0-0.78,0.64-1.42,1.42-1.42
			h9.09c0.78,0,1.42,0.64,1.42,1.42V21.36z"/>
		<path class="st270" d="M14.88,21.35c0,0.78-0.64,1.42-1.42,1.42H4.37c-0.78,0-1.42-0.64-1.42-1.42V4.44
			c0-0.78,0.64-1.42,1.42-1.42h9.09c0.78,0,1.42,0.64,1.42,1.42V21.35z"/>
		<path class="st271" d="M14.85,21.33c0,0.78-0.64,1.42-1.42,1.42H4.35c-0.78,0-1.42-0.64-1.42-1.42V4.42
			c0-0.78,0.64-1.42,1.42-1.42h9.09c0.78,0,1.42,0.64,1.42,1.42V21.33z"/>
		<path class="st272" d="M14.83,21.32c0,0.78-0.64,1.42-1.42,1.42H4.32c-0.78,0-1.42-0.64-1.42-1.42V4.41
			c0-0.78,0.64-1.42,1.42-1.42h9.09c0.78,0,1.42,0.64,1.42,1.42V21.32z"/>
		<path class="st273" d="M14.81,21.3c0,0.78-0.64,1.42-1.42,1.42H4.3c-0.78,0-1.42-0.64-1.42-1.42V4.39c0-0.78,0.64-1.42,1.42-1.42
			h9.09c0.78,0,1.42,0.64,1.42,1.42V21.3z"/>
		<path class="st274" d="M14.78,21.29c0,0.78-0.64,1.42-1.42,1.42H4.27c-0.78,0-1.42-0.64-1.42-1.42V4.38
			c0-0.78,0.64-1.42,1.42-1.42h9.09c0.78,0,1.42,0.64,1.42,1.42V21.29z"/>
		<path class="st274" d="M14.76,21.28c0,0.78-0.64,1.42-1.42,1.42H4.25c-0.78,0-1.42-0.64-1.42-1.42V4.37
			c0-0.78,0.64-1.42,1.42-1.42h9.09c0.78,0,1.42,0.64,1.42,1.42V21.28z"/>
		<path class="st275" d="M14.74,21.26c0,0.78-0.64,1.42-1.42,1.42H4.23c-0.78,0-1.42-0.64-1.42-1.42V4.35
			c0-0.78,0.64-1.42,1.42-1.42h9.09c0.78,0,1.42,0.64,1.42,1.42V21.26z"/>
		<path class="st275" d="M14.71,21.25c0,0.78-0.64,1.42-1.42,1.42H4.2c-0.78,0-1.42-0.64-1.42-1.42V4.34c0-0.78,0.64-1.42,1.42-1.42
			h9.09c0.78,0,1.42,0.64,1.42,1.42V21.25z"/>
		<path class="st276" d="M14.69,21.23c0,0.78-0.64,1.42-1.42,1.42H4.18c-0.78,0-1.42-0.64-1.42-1.42V4.32
			c0-0.78,0.64-1.42,1.42-1.42h9.09c0.78,0,1.42,0.64,1.42,1.42V21.23z"/>
		<path class="st276" d="M14.67,21.22c0,0.78-0.64,1.42-1.42,1.42H4.16c-0.78,0-1.42-0.64-1.42-1.42V4.31
			c0-0.78,0.64-1.42,1.42-1.42h9.09c0.78,0,1.42,0.64,1.42,1.42V21.22z"/>
		<path class="st277" d="M14.64,21.21c0,0.78-0.64,1.42-1.42,1.42H4.13c-0.78,0-1.42-0.64-1.42-1.42V4.3c0-0.78,0.64-1.42,1.42-1.42
			h9.09c0.78,0,1.42,0.64,1.42,1.42V21.21z"/>
		<path class="st278" d="M14.62,21.19c0,0.78-0.64,1.42-1.42,1.42H4.11c-0.78,0-1.42-0.64-1.42-1.42V4.28
			c0-0.78,0.64-1.42,1.42-1.42h9.09c0.78,0,1.42,0.64,1.42,1.42V21.19z"/>
		<path class="st279" d="M14.6,21.18c0,0.78-0.64,1.42-1.42,1.42H4.09c-0.78,0-1.42-0.64-1.42-1.42V4.27c0-0.78,0.64-1.42,1.42-1.42
			h9.09c0.78,0,1.42,0.64,1.42,1.42V21.18z"/>
		<path class="st280" d="M14.57,21.16c0,0.78-0.64,1.42-1.42,1.42H4.06c-0.78,0-1.42-0.64-1.42-1.42V4.25
			c0-0.78,0.64-1.42,1.42-1.42h9.09c0.78,0,1.42,0.64,1.42,1.42V21.16z"/>
		<path class="st281" d="M14.55,21.15c0,0.78-0.64,1.42-1.42,1.42H4.04c-0.78,0-1.42-0.64-1.42-1.42V4.24
			c0-0.78,0.64-1.42,1.42-1.42h9.09c0.78,0,1.42,0.64,1.42,1.42V21.15z"/>
		<path class="st282" d="M14.53,21.13c0,0.78-0.64,1.42-1.42,1.42H4.02c-0.78,0-1.42-0.64-1.42-1.42V4.22
			c0-0.78,0.64-1.42,1.42-1.42h9.09c0.78,0,1.42,0.64,1.42,1.42V21.13z"/>
		<path class="st282" d="M14.5,21.12c0,0.78-0.64,1.42-1.42,1.42H3.99c-0.78,0-1.42-0.64-1.42-1.42V4.21c0-0.78,0.64-1.42,1.42-1.42
			h9.09c0.78,0,1.42,0.64,1.42,1.42V21.12z"/>
		<path class="st283" d="M14.48,21.11c0,0.78-0.64,1.42-1.42,1.42H3.97c-0.78,0-1.42-0.64-1.42-1.42V4.2c0-0.78,0.64-1.42,1.42-1.42
			h9.09c0.78,0,1.42,0.64,1.42,1.42V21.11z"/>
		<path class="st284" d="M14.45,21.09c0,0.78-0.64,1.42-1.42,1.42H3.95c-0.78,0-1.42-0.64-1.42-1.42V4.18
			c0-0.78,0.64-1.42,1.42-1.42h9.09c0.78,0,1.42,0.64,1.42,1.42V21.09z"/>
		<path class="st285" d="M14.43,21.08c0,0.78-0.64,1.42-1.42,1.42H3.92c-0.78,0-1.42-0.64-1.42-1.42V4.17
			c0-0.78,0.64-1.42,1.42-1.42h9.09c0.78,0,1.42,0.64,1.42,1.42V21.08z"/>
		<path class="st286" d="M14.41,21.06c0,0.78-0.64,1.42-1.42,1.42H3.9c-0.78,0-1.42-0.64-1.42-1.42V4.15c0-0.78,0.64-1.42,1.42-1.42
			h9.09c0.78,0,1.42,0.64,1.42,1.42V21.06z"/>
		<path class="st287" d="M14.38,21.05c0,0.78-0.64,1.42-1.42,1.42H3.87c-0.78,0-1.42-0.64-1.42-1.42V4.14
			c0-0.78,0.64-1.42,1.42-1.42h9.09c0.78,0,1.42,0.64,1.42,1.42V21.05z"/>
		<path class="st288" d="M14.36,21.04c0,0.78-0.64,1.42-1.42,1.42H3.85c-0.78,0-1.42-0.64-1.42-1.42V4.13
			c0-0.78,0.64-1.42,1.42-1.42h9.09c0.78,0,1.42,0.64,1.42,1.42V21.04z"/>
	</g>
	<g>
		<path class="st289" d="M14.36,21.04c0,0.78-0.64,1.42-1.42,1.42H3.85c-0.78,0-1.42-0.64-1.42-1.42V4.13
			c0-0.78,0.64-1.42,1.42-1.42h9.09c0.78,0,1.42,0.64,1.42,1.42V21.04z"/>
		<g>
			<linearGradient id="SVGID_1_" gradientUnits="userSpaceOnUse" x1="2.117" y1="6.1001" x2="14.7836" y2="18.7668">
				<stop  offset="0" style="stop-color:#FFFFFF"/>
				<stop  offset="0.401" style="stop-color:#FCFCFC"/>
				<stop  offset="0.6566" style="stop-color:#F4F4F4"/>
				<stop  offset="0.871" style="stop-color:#E6E6E5"/>
				<stop  offset="1" style="stop-color:#D9DAD8"/>
			</linearGradient>
			<path class="st290" d="M13.75,19.59c0,0.27-0.23,0.5-0.5,0.5h-9.6c-0.28,0-0.5-0.23-0.5-0.5V5.28c0-0.28,0.22-0.5,0.5-0.5h9.6
				c0.27,0,0.5,0.22,0.5,0.5V19.59z"/>
		</g>
		<path class="st291" d="M10.42,3.99H6.48c-0.18,0-0.33-0.15-0.33-0.33l0,0c0-0.18,0.15-0.33,0.33-0.33h3.94
			c0.18,0,0.33,0.15,0.33,0.33l0,0C10.76,3.84,10.61,3.99,10.42,3.99z"/>
		<path class="st291" d="M9.08,21.19c0,0.38-0.31,0.69-0.69,0.69c-0.38,0-0.69-0.31-0.69-0.69c0-0.38,0.31-0.69,0.69-0.69
			C8.78,20.5,9.08,20.81,9.08,21.19z"/>
	</g>
</g>
</svg>
