<?xml version="1.0" encoding="utf-8"?>
<!-- Generator: Adobe Illustrator 23.0.1, SVG Export Plug-In . SVG Version: 6.00 Build 0)  -->
<svg version="1.1" id="レイヤー_1" xmlns="http://www.w3.org/2000/svg" xmlns:xlink="http://www.w3.org/1999/xlink" x="0px"
	 y="0px" viewBox="0 0 31.35 27.78" style="enable-background:new 0 0 31.35 27.78;" xml:space="preserve">
<style type="text/css">
	.st0{opacity:0.1;}
	.st1{fill:#EEEEEC;}
	.st2{fill:#EDEDEB;}
	.st3{fill:#ECECEA;}
	.st4{fill:#ECEBE9;}
	.st5{fill:#EBEAE8;}
	.st6{fill:#EAE9E7;}
	.st7{fill:#E9E8E6;}
	.st8{fill:#E8E7E5;}
	.st9{fill:#E7E6E4;}
	.st10{fill:#E6E5E3;}
	.st11{fill:#E5E4E2;}
	.st12{fill:#E4E3E1;}
	.st13{fill:#E4E2E0;}
	.st14{fill:#E3E1DF;}
	.st15{fill:#E2E0DE;}
	.st16{fill:#E1DFDD;}
	.st17{fill:#E0DEDC;}
	.st18{fill:#DFDDDB;}
	.st19{fill:#DEDCDA;}
	.st20{fill:#DDDBD9;}
	.st21{fill:#DCDAD8;}
	.st22{fill:#DBD9D7;}
	.st23{fill:#DAD8D6;}
	.st24{fill:#D9D7D5;}
	.st25{fill:#D9D6D3;}
	.st26{fill:#D8D5D2;}
	.st27{fill:#D7D4D1;}
	.st28{fill:#D6D3D0;}
	.st29{fill:#D5D2CF;}
	.st30{fill:#D4D1CE;}
	.st31{fill:#D3D0CD;}
	.st32{fill:#D2CFCC;}
	.st33{fill:#D1CECB;}
	.st34{fill:#D0CDCA;}
	.st35{fill:#CFCCC9;}
	.st36{fill:#CECBC8;}
	.st37{fill:#CECAC7;}
	.st38{fill:#CDC9C6;}
	.st39{fill:#CCC8C5;}
	.st40{fill:#CBC7C4;}
	.st41{fill:#CAC6C3;}
	.st42{fill:#C9C5C2;}
	.st43{fill:#C8C4C1;}
	.st44{fill:#C7C4C0;}
	.st45{fill:#C7C3BF;}
	.st46{fill:#C6C2BE;}
	.st47{fill:#C5C1BD;}
	.st48{fill:#C4C0BC;}
	.st49{fill:#C3BFBC;}
	.st50{fill:#C2BEBB;}
	.st51{fill:#C1BDBA;}
	.st52{fill:#C0BCB9;}
	.st53{fill:#C0BBB8;}
	.st54{fill:#BFBAB7;}
	.st55{fill:#BEB9B6;}
	.st56{fill:#BDB8B5;}
	.st57{fill:#BCB7B4;}
	.st58{fill:#BBB6B3;}
	.st59{fill:#BAB5B2;}
	.st60{fill:#BAB4B1;}
	.st61{fill:#B9B4B0;}
	.st62{fill:#B8B3AF;}
	.st63{fill:#B7B2AE;}
	.st64{fill:#B6B1AD;}
	.st65{fill:#B5B0AC;}
	.st66{fill:#B5AFAB;}
	.st67{fill:#B4AEAA;}
	.st68{fill:#B3ADAA;}
	.st69{fill:#B2ACA9;}
	.st70{fill:#B1ABA8;}
	.st71{fill:#B0AAA7;}
	.st72{fill:#B0AAA6;}
	.st73{fill:#AFA9A5;}
	.st74{fill:#AEA8A4;}
	.st75{fill:#ADA7A3;}
	.st76{fill:#ACA6A2;}
	.st77{fill:#ABA5A1;}
	.st78{fill:#ABA4A0;}
	.st79{fill:#AAA3A0;}
	.st80{fill:#A9A29F;}
	.st81{fill:#A8A29E;}
	.st82{fill:#A7A19D;}
	.st83{fill:#A6A09C;}
	.st84{fill:#A69F9B;}
	.st85{fill:#A59E9A;}
	.st86{fill:#A49D99;}
	.st87{fill:#A39C98;}
	.st88{fill:#A29B98;}
	.st89{fill:#A19B97;}
	.st90{fill:#A19A96;}
	.st91{fill:#A09995;}
	.st92{fill:#9F9894;}
	.st93{fill:#9E9793;}
	.st94{fill:#9D9692;}
	.st95{fill:#9D9591;}
	.st96{fill:#9C9591;}
	.st97{fill:#9B9490;}
	.st98{fill:#9A938F;}
	.st99{fill:#99928E;}
	.st100{fill:#99918D;}
	.st101{fill:#98908C;}
	.st102{fill:#97908B;}
	.st103{fill:#968F8B;}
	.st104{fill:#958E8A;}
	.st105{fill:#958D89;}
	.st106{fill:#948C88;}
	.st107{fill:#938B87;}
	.st108{fill:#928B86;}
	.st109{fill:#928A86;}
	.st110{fill:#918985;}
	.st111{fill:#908884;}
	.st112{fill:#8F8783;}
	.st113{fill:#8E8682;}
	.st114{fill:#8E8681;}
	.st115{fill:#8D8581;}
	.st116{fill:#8C8480;}
	.st117{fill:#8B837F;}
	.st118{fill:#8B827E;}
	.st119{fill:#8A827D;}
	.st120{fill:#89817D;}
	.st121{fill:#88807C;}
	.st122{fill:#887F7B;}
	.st123{fill:#877E7A;}
	.st124{fill:#867E79;}
	.st125{fill:#857D79;}
	.st126{fill:#847C78;}
	.st127{fill:#847B77;}
	.st128{fill:#837A76;}
	.st129{fill:#827A75;}
	.st130{fill:#817975;}
	.st131{fill:#817874;}
	.st132{fill:#807773;}
	.st133{fill:#7F7772;}
	.st134{fill:#7E7672;}
	.st135{fill:#7E7571;}
	.st136{fill:#7D7470;}
	.st137{fill:#7C746F;}
	.st138{fill:#7B736F;}
	.st139{fill:#7A726E;}
	.st140{fill:#7A716D;}
	.st141{fill:#79706C;}
	.st142{fill:#78706C;}
	.st143{fill:#776F6B;}
	.st144{fill:#776E6A;}
	.st145{fill:#766D69;}
	.st146{fill:#756D69;}
	.st147{fill:#756C68;}
	.st148{fill:#746B67;}
	.st149{fill:#736B67;}
	.st150{fill:#726A66;}
	.st151{fill:#726965;}
	.st152{fill:#716865;}
	.st153{fill:#706864;}
	.st154{fill:#6F6763;}
	.st155{fill:#6F6662;}
	.st156{fill:#6E6662;}
	.st157{fill:#6D6561;}
	.st158{fill:#6D6460;}
	.st159{fill:#6C6360;}
	.st160{fill:#6B635F;}
	.st161{fill:#6B625E;}
	.st162{fill:#6A615E;}
	.st163{fill:#69615D;}
	.st164{fill:#68605C;}
	.st165{fill:#685F5C;}
	.st166{fill:#675E5B;}
	.st167{fill:#665E5A;}
	.st168{fill:#665D5A;}
	.st169{fill:#655C59;}
	.st170{fill:#645C58;}
	.st171{fill:#635B58;}
	.st172{fill:#635A57;}
	.st173{fill:#625A56;}
	.st174{fill:#615956;}
	.st175{fill:#615855;}
	.st176{fill:#605855;}
	.st177{fill:#5F5754;}
	.st178{fill:#5E5653;}
	.st179{fill:#5D5552;}
	.st180{fill:#5C5551;}
	.st181{fill:#5C5451;}
	.st182{fill:#5B5350;}
	.st183{fill:#5A5350;}
	.st184{fill:#5A524F;}
	.st185{fill:#59514E;}
	.st186{fill:#58514E;}
	.st187{fill:#58504D;}
	.st188{fill:#574F4C;}
	.st189{fill:#564F4C;}
	.st190{fill:#564E4B;}
	.st191{fill:#554D4B;}
	.st192{fill:#544D4A;}
	.st193{fill:#544C49;}
	.st194{fill:#534C49;}
	.st195{fill:#524B48;}
	.st196{fill:#524A48;}
	.st197{fill:#514A47;}
	.st198{fill:#504947;}
	.st199{fill:#504946;}
	.st200{fill:#4F4845;}
	.st201{fill:#4F4745;}
	.st202{fill:#4E4744;}
	.st203{fill:#4D4644;}
	.st204{fill:#4D4543;}
	.st205{fill:#4C4543;}
	.st206{fill:#4B4442;}
	.st207{fill:#4B4441;}
	.st208{fill:#4A4341;}
	.st209{fill:#4A4240;}
	.st210{fill:#494240;}
	.st211{fill:#48413F;}
	.st212{fill:#47403E;}
	.st213{fill:#46403E;}
	.st214{fill:#463F3D;}
	.st215{fill:#453E3C;}
	.st216{fill:#443E3C;}
	.st217{fill:#443D3B;}
	.st218{fill:#433D3B;}
	.st219{fill:#423C3A;}
	.st220{fill:#413B39;}
	.st221{fill:#413A39;}
	.st222{fill:#403A38;}
	.st223{fill:#3F3938;}
	.st224{fill:#3F3937;}
	.st225{fill:#3E3837;}
	.st226{fill:#3D3836;}
	.st227{fill:#3D3736;}
	.st228{fill:#3C3735;}
	.st229{fill:#3B3635;}
	.st230{fill:#3B3534;}
	.st231{fill:#3A3534;}
	.st232{fill:#3A3433;}
	.st233{fill:#393433;}
	.st234{fill:#383332;}
	.st235{fill:#373231;}
	.st236{fill:#363130;}
	.st237{fill:#35302F;}
	.st238{fill:#342F2F;}
	.st239{fill:#342F2E;}
	.st240{fill:#332E2E;}
	.st241{fill:#332E2D;}
	.st242{fill:#322D2D;}
	.st243{fill:#312D2C;}
	.st244{fill:#312C2C;}
	.st245{fill:#302C2B;}
	.st246{fill:#302B2B;}
	.st247{fill:#2F2B2A;}
	.st248{fill:#2E2A2A;}
	.st249{fill:#2E2A29;}
	.st250{fill:#2D2929;}
	.st251{fill:#2D2928;}
	.st252{fill:#2C2828;}
	.st253{fill:#2B2828;}
	.st254{fill:#2B2727;}
	.st255{fill:#2A2727;}
	.st256{fill:#292626;}
	.st257{fill:#282525;}
	.st258{fill:#272424;}
	.st259{fill:#262424;}
	.st260{fill:#262323;}
	.st261{fill:#252323;}
	.st262{fill:#252222;}
	.st263{fill:#242222;}
	.st264{fill:#232121;}
	.st265{fill:#222020;}
	.st266{fill:#211F20;}
	.st267{fill:#201F1F;}
	.st268{fill:#201E1F;}
	.st269{fill:#1F1E1E;}
	.st270{fill:#1F1D1E;}
	.st271{fill:#1E1D1D;}
	.st272{fill:#1D1C1D;}
	.st273{fill:#1D1C1C;}
	.st274{fill:#1C1B1C;}
	.st275{fill:#1B1A1B;}
	.st276{fill:#1A191A;}
	.st277{fill:#191819;}
	.st278{fill:#181819;}
	.st279{fill:#181718;}
	.st280{fill:#171718;}
	.st281{fill:#171618;}
	.st282{fill:#161617;}
	.st283{fill:#151516;}
	.st284{fill:#141516;}
	.st285{fill:#141416;}
	.st286{fill:#131415;}
	.st287{fill:#131315;}
	.st288{fill:#121314;}
	.st289{fill:#696C6B;}
	.st290{fill:url(#SVGID_1_);}
	.st291{fill:#464748;}
</style>
<g>
	<g class="st0">
		<path class="st1" d="M28.83,25.91c0,0.78-0.64,1.42-1.42,1.42h-9.09c-0.78,0-1.42-0.64-1.42-1.42V9c0-0.78,0.64-1.42,1.42-1.42
			h9.09c0.78,0,1.42,0.64,1.42,1.42V25.91z"/>
		<path class="st2" d="M28.8,25.89c0,0.78-0.64,1.42-1.42,1.42H18.3c-0.78,0-1.42-0.64-1.42-1.42V8.98c0-0.78,0.64-1.42,1.42-1.42
			h9.09c0.78,0,1.42,0.64,1.42,1.42V25.89z"/>
		<path class="st3" d="M28.78,25.88c0,0.78-0.64,1.42-1.42,1.42h-9.09c-0.78,0-1.42-0.64-1.42-1.42V8.97c0-0.78,0.64-1.42,1.42-1.42
			h9.09c0.78,0,1.42,0.64,1.42,1.42V25.88z"/>
		<path class="st4" d="M28.76,25.86c0,0.78-0.64,1.42-1.42,1.42h-9.09c-0.78,0-1.42-0.64-1.42-1.42V8.95c0-0.78,0.64-1.42,1.42-1.42
			h9.09c0.78,0,1.42,0.64,1.42,1.42V25.86z"/>
		<path class="st5" d="M28.73,25.85c0,0.78-0.64,1.42-1.42,1.42h-9.09c-0.78,0-1.42-0.64-1.42-1.42V8.94c0-0.78,0.64-1.42,1.42-1.42
			h9.09c0.78,0,1.42,0.64,1.42,1.42V25.85z"/>
		<path class="st6" d="M28.71,25.83c0,0.78-0.64,1.42-1.42,1.42H18.2c-0.78,0-1.42-0.64-1.42-1.42V8.92c0-0.78,0.64-1.42,1.42-1.42
			h9.09c0.78,0,1.42,0.64,1.42,1.42V25.83z"/>
		<path class="st7" d="M28.69,25.82c0,0.78-0.64,1.42-1.42,1.42h-9.09c-0.78,0-1.42-0.64-1.42-1.42V8.91c0-0.78,0.64-1.42,1.42-1.42
			h9.09c0.78,0,1.42,0.64,1.42,1.42V25.82z"/>
		<path class="st8" d="M28.66,25.81c0,0.78-0.64,1.42-1.42,1.42h-9.09c-0.78,0-1.42-0.64-1.42-1.42V8.9c0-0.78,0.64-1.42,1.42-1.42
			h9.09c0.78,0,1.42,0.64,1.42,1.42V25.81z"/>
		<path class="st9" d="M28.64,25.79c0,0.78-0.64,1.42-1.42,1.42h-9.09c-0.78,0-1.42-0.64-1.42-1.42V8.88c0-0.78,0.64-1.42,1.42-1.42
			h9.09c0.78,0,1.42,0.64,1.42,1.42V25.79z"/>
		<path class="st10" d="M28.62,25.78c0,0.78-0.64,1.42-1.42,1.42h-9.09c-0.78,0-1.42-0.64-1.42-1.42V8.87
			c0-0.78,0.64-1.42,1.42-1.42h9.09c0.78,0,1.42,0.64,1.42,1.42V25.78z"/>
		<path class="st11" d="M28.59,25.76c0,0.78-0.64,1.42-1.42,1.42h-9.09c-0.78,0-1.42-0.64-1.42-1.42V8.85
			c0-0.78,0.64-1.42,1.42-1.42h9.09c0.78,0,1.42,0.64,1.42,1.42V25.76z"/>
		<path class="st12" d="M28.57,25.75c0,0.78-0.64,1.42-1.42,1.42h-9.09c-0.78,0-1.42-0.64-1.42-1.42V8.84
			c0-0.78,0.64-1.42,1.42-1.42h9.09c0.78,0,1.42,0.64,1.42,1.42V25.75z"/>
		<path class="st13" d="M28.55,25.74c0,0.78-0.64,1.42-1.42,1.42h-9.09c-0.78,0-1.42-0.64-1.42-1.42V8.83
			c0-0.78,0.64-1.42,1.42-1.42h9.09c0.78,0,1.42,0.64,1.42,1.42V25.74z"/>
		<path class="st14" d="M28.52,25.72c0,0.78-0.64,1.42-1.42,1.42h-9.09c-0.78,0-1.42-0.64-1.42-1.42V8.81
			c0-0.78,0.64-1.42,1.42-1.42h9.09c0.78,0,1.42,0.64,1.42,1.42V25.72z"/>
		<path class="st15" d="M28.5,25.71c0,0.78-0.64,1.42-1.42,1.42h-9.09c-0.78,0-1.42-0.64-1.42-1.42V8.8c0-0.78,0.64-1.42,1.42-1.42
			h9.09c0.78,0,1.42,0.64,1.42,1.42V25.71z"/>
		<path class="st16" d="M28.48,25.69c0,0.78-0.64,1.42-1.42,1.42h-9.09c-0.78,0-1.42-0.64-1.42-1.42V8.78
			c0-0.78,0.64-1.42,1.42-1.42h9.09c0.78,0,1.42,0.64,1.42,1.42V25.69z"/>
		<path class="st17" d="M28.45,25.68c0,0.78-0.64,1.42-1.42,1.42h-9.09c-0.78,0-1.42-0.64-1.42-1.42V8.77
			c0-0.78,0.64-1.42,1.42-1.42h9.09c0.78,0,1.42,0.64,1.42,1.42V25.68z"/>
		<path class="st18" d="M28.43,25.67c0,0.78-0.64,1.42-1.42,1.42h-9.09c-0.78,0-1.42-0.64-1.42-1.42V8.76
			c0-0.78,0.64-1.42,1.42-1.42h9.09c0.78,0,1.42,0.64,1.42,1.42V25.67z"/>
		<path class="st19" d="M28.4,25.65c0,0.78-0.64,1.42-1.42,1.42H17.9c-0.78,0-1.42-0.64-1.42-1.42V8.74c0-0.78,0.64-1.42,1.42-1.42
			h9.09c0.78,0,1.42,0.64,1.42,1.42V25.65z"/>
		<path class="st20" d="M28.38,25.64c0,0.78-0.64,1.42-1.42,1.42h-9.09c-0.78,0-1.42-0.64-1.42-1.42V8.73
			c0-0.78,0.64-1.42,1.42-1.42h9.09c0.78,0,1.42,0.64,1.42,1.42V25.64z"/>
		<path class="st21" d="M28.36,25.62c0,0.78-0.64,1.42-1.42,1.42h-9.09c-0.78,0-1.42-0.64-1.42-1.42V8.71
			c0-0.78,0.64-1.42,1.42-1.42h9.09c0.78,0,1.42,0.64,1.42,1.42V25.62z"/>
		<path class="st22" d="M28.33,25.61c0,0.78-0.64,1.42-1.42,1.42h-9.09c-0.78,0-1.42-0.64-1.42-1.42V8.7c0-0.78,0.64-1.42,1.42-1.42
			h9.09c0.78,0,1.42,0.64,1.42,1.42V25.61z"/>
		<path class="st23" d="M28.31,25.59c0,0.78-0.64,1.42-1.42,1.42H17.8c-0.78,0-1.42-0.64-1.42-1.42V8.68c0-0.78,0.64-1.42,1.42-1.42
			h9.09c0.78,0,1.42,0.64,1.42,1.42V25.59z"/>
		<path class="st24" d="M28.29,25.58c0,0.78-0.64,1.42-1.42,1.42h-9.09c-0.78,0-1.42-0.64-1.42-1.42V8.67
			c0-0.78,0.64-1.42,1.42-1.42h9.09c0.78,0,1.42,0.64,1.42,1.42V25.58z"/>
		<path class="st25" d="M28.26,25.57c0,0.78-0.64,1.42-1.42,1.42h-9.09c-0.78,0-1.42-0.64-1.42-1.42V8.66
			c0-0.78,0.64-1.42,1.42-1.42h9.09c0.78,0,1.42,0.64,1.42,1.42V25.57z"/>
		<path class="st26" d="M28.24,25.55c0,0.78-0.64,1.42-1.42,1.42h-9.09c-0.78,0-1.42-0.64-1.42-1.42V8.64
			c0-0.78,0.64-1.42,1.42-1.42h9.09c0.78,0,1.42,0.64,1.42,1.42V25.55z"/>
		<path class="st27" d="M28.22,25.54c0,0.78-0.64,1.42-1.42,1.42h-9.09c-0.78,0-1.42-0.64-1.42-1.42V8.63
			c0-0.78,0.64-1.42,1.42-1.42h9.09c0.78,0,1.42,0.64,1.42,1.42V25.54z"/>
		<path class="st28" d="M28.19,25.52c0,0.78-0.64,1.42-1.42,1.42h-9.09c-0.78,0-1.42-0.64-1.42-1.42V8.61
			c0-0.78,0.64-1.42,1.42-1.42h9.09c0.78,0,1.42,0.64,1.42,1.42V25.52z"/>
		<path class="st29" d="M28.17,25.51c0,0.78-0.64,1.42-1.42,1.42h-9.09c-0.78,0-1.42-0.64-1.42-1.42V8.6c0-0.78,0.64-1.42,1.42-1.42
			h9.09c0.78,0,1.42,0.64,1.42,1.42V25.51z"/>
		<path class="st30" d="M28.15,25.5c0,0.78-0.64,1.42-1.42,1.42h-9.09c-0.78,0-1.42-0.64-1.42-1.42V8.59c0-0.78,0.64-1.42,1.42-1.42
			h9.09c0.78,0,1.42,0.64,1.42,1.42V25.5z"/>
		<path class="st31" d="M28.12,25.48c0,0.78-0.64,1.42-1.42,1.42h-9.09c-0.78,0-1.42-0.64-1.42-1.42V8.57
			c0-0.78,0.64-1.42,1.42-1.42h9.09c0.78,0,1.42,0.64,1.42,1.42V25.48z"/>
		<path class="st32" d="M28.1,25.47c0,0.78-0.64,1.42-1.42,1.42h-9.09c-0.78,0-1.42-0.64-1.42-1.42V8.56c0-0.78,0.64-1.42,1.42-1.42
			h9.09c0.78,0,1.42,0.64,1.42,1.42V25.47z"/>
		<path class="st33" d="M28.08,25.45c0,0.78-0.64,1.42-1.42,1.42h-9.09c-0.78,0-1.42-0.64-1.42-1.42V8.54
			c0-0.78,0.64-1.42,1.42-1.42h9.09c0.78,0,1.42,0.64,1.42,1.42V25.45z"/>
		<path class="st34" d="M28.05,25.44c0,0.78-0.64,1.42-1.42,1.42h-9.09c-0.78,0-1.42-0.64-1.42-1.42V8.53
			c0-0.78,0.64-1.42,1.42-1.42h9.09c0.78,0,1.42,0.64,1.42,1.42V25.44z"/>
		<path class="st35" d="M28.03,25.43c0,0.78-0.64,1.42-1.42,1.42h-9.09c-0.78,0-1.42-0.64-1.42-1.42V8.52
			c0-0.78,0.64-1.42,1.42-1.42h9.09c0.78,0,1.42,0.64,1.42,1.42V25.43z"/>
		<path class="st36" d="M28,25.41c0,0.78-0.64,1.42-1.42,1.42H17.5c-0.78,0-1.42-0.64-1.42-1.42V8.5c0-0.78,0.64-1.42,1.42-1.42
			h9.09C27.37,7.08,28,7.72,28,8.5V25.41z"/>
		<path class="st37" d="M27.98,25.4c0,0.78-0.64,1.42-1.42,1.42h-9.09c-0.78,0-1.42-0.64-1.42-1.42V8.49c0-0.78,0.64-1.42,1.42-1.42
			h9.09c0.78,0,1.42,0.64,1.42,1.42V25.4z"/>
		<path class="st38" d="M27.96,25.38c0,0.78-0.64,1.42-1.42,1.42h-9.09c-0.78,0-1.42-0.64-1.42-1.42V8.47
			c0-0.78,0.64-1.42,1.42-1.42h9.09c0.78,0,1.42,0.64,1.42,1.42V25.38z"/>
		<path class="st39" d="M27.93,25.37c0,0.78-0.64,1.42-1.42,1.42h-9.09c-0.78,0-1.42-0.64-1.42-1.42V8.46
			c0-0.78,0.64-1.42,1.42-1.42h9.09c0.78,0,1.42,0.64,1.42,1.42V25.37z"/>
		<path class="st40" d="M27.91,25.35c0,0.78-0.64,1.42-1.42,1.42H17.4c-0.78,0-1.42-0.64-1.42-1.42V8.44c0-0.78,0.64-1.42,1.42-1.42
			h9.09c0.78,0,1.42,0.64,1.42,1.42V25.35z"/>
		<path class="st41" d="M27.89,25.34c0,0.78-0.64,1.42-1.42,1.42h-9.09c-0.78,0-1.42-0.64-1.42-1.42V8.43
			c0-0.78,0.64-1.42,1.42-1.42h9.09c0.78,0,1.42,0.64,1.42,1.42V25.34z"/>
		<path class="st42" d="M27.86,25.33c0,0.78-0.64,1.42-1.42,1.42h-9.09c-0.78,0-1.42-0.64-1.42-1.42V8.42
			c0-0.78,0.64-1.42,1.42-1.42h9.09c0.78,0,1.42,0.64,1.42,1.42V25.33z"/>
		<path class="st43" d="M27.84,25.31c0,0.78-0.64,1.42-1.42,1.42h-9.09c-0.78,0-1.42-0.64-1.42-1.42V8.4c0-0.78,0.64-1.42,1.42-1.42
			h9.09c0.78,0,1.42,0.64,1.42,1.42V25.31z"/>
		<path class="st44" d="M27.82,25.3c0,0.78-0.64,1.42-1.42,1.42h-9.09c-0.78,0-1.42-0.64-1.42-1.42V8.39c0-0.78,0.64-1.42,1.42-1.42
			h9.09c0.78,0,1.42,0.64,1.42,1.42V25.3z"/>
		<path class="st45" d="M27.79,25.28c0,0.78-0.64,1.42-1.42,1.42h-9.09c-0.78,0-1.42-0.64-1.42-1.42V8.37
			c0-0.78,0.64-1.42,1.42-1.42h9.09c0.78,0,1.42,0.64,1.42,1.42V25.28z"/>
		<path class="st46" d="M27.77,25.27c0,0.78-0.64,1.42-1.42,1.42h-9.09c-0.78,0-1.42-0.64-1.42-1.42V8.36
			c0-0.78,0.64-1.42,1.42-1.42h9.09c0.78,0,1.42,0.64,1.42,1.42V25.27z"/>
		<path class="st47" d="M27.75,25.26c0,0.78-0.64,1.42-1.42,1.42h-9.09c-0.78,0-1.42-0.64-1.42-1.42V8.35
			c0-0.78,0.64-1.42,1.42-1.42h9.09c0.78,0,1.42,0.64,1.42,1.42V25.26z"/>
		<path class="st48" d="M27.72,25.24c0,0.78-0.64,1.42-1.42,1.42h-9.09c-0.78,0-1.42-0.64-1.42-1.42V8.33
			c0-0.78,0.64-1.42,1.42-1.42h9.09c0.78,0,1.42,0.64,1.42,1.42V25.24z"/>
		<path class="st49" d="M27.7,25.23c0,0.78-0.64,1.42-1.42,1.42h-9.09c-0.78,0-1.42-0.64-1.42-1.42V8.32c0-0.78,0.64-1.42,1.42-1.42
			h9.09c0.78,0,1.42,0.64,1.42,1.42V25.23z"/>
		<path class="st50" d="M27.68,25.21c0,0.78-0.64,1.42-1.42,1.42h-9.09c-0.78,0-1.42-0.64-1.42-1.42V8.3c0-0.78,0.64-1.42,1.42-1.42
			h9.09c0.78,0,1.42,0.64,1.42,1.42V25.21z"/>
		<path class="st51" d="M27.65,25.2c0,0.78-0.64,1.42-1.42,1.42h-9.09c-0.78,0-1.42-0.64-1.42-1.42V8.29c0-0.78,0.64-1.42,1.42-1.42
			h9.09c0.78,0,1.42,0.64,1.42,1.42V25.2z"/>
		<path class="st52" d="M27.63,25.19c0,0.78-0.64,1.42-1.42,1.42h-9.09c-0.78,0-1.42-0.64-1.42-1.42V8.28
			c0-0.78,0.64-1.42,1.42-1.42h9.09c0.78,0,1.42,0.64,1.42,1.42V25.19z"/>
		<path class="st53" d="M27.6,25.17c0,0.78-0.64,1.42-1.42,1.42H17.1c-0.78,0-1.42-0.64-1.42-1.42V8.26c0-0.78,0.64-1.42,1.42-1.42
			h9.09c0.78,0,1.42,0.64,1.42,1.42V25.17z"/>
		<path class="st54" d="M27.58,25.16c0,0.78-0.64,1.42-1.42,1.42h-9.09c-0.78,0-1.42-0.64-1.42-1.42V8.25
			c0-0.78,0.64-1.42,1.42-1.42h9.09c0.78,0,1.42,0.64,1.42,1.42V25.16z"/>
		<path class="st55" d="M27.56,25.14c0,0.78-0.64,1.42-1.42,1.42h-9.09c-0.78,0-1.42-0.64-1.42-1.42V8.23
			c0-0.78,0.64-1.42,1.42-1.42h9.09c0.78,0,1.42,0.64,1.42,1.42V25.14z"/>
		<path class="st56" d="M27.53,25.13c0,0.78-0.64,1.42-1.42,1.42h-9.09c-0.78,0-1.42-0.64-1.42-1.42V8.22
			c0-0.78,0.64-1.42,1.42-1.42h9.09c0.78,0,1.42,0.64,1.42,1.42V25.13z"/>
		<path class="st57" d="M27.51,25.11c0,0.78-0.64,1.42-1.42,1.42H17c-0.78,0-1.42-0.64-1.42-1.42V8.2c0-0.78,0.64-1.42,1.42-1.42
			h9.09c0.78,0,1.42,0.64,1.42,1.42V25.11z"/>
		<path class="st58" d="M27.49,25.1c0,0.78-0.64,1.42-1.42,1.42h-9.09c-0.78,0-1.42-0.64-1.42-1.42V8.19c0-0.78,0.64-1.42,1.42-1.42
			h9.09c0.78,0,1.42,0.64,1.42,1.42V25.1z"/>
		<path class="st59" d="M27.46,25.09c0,0.78-0.64,1.42-1.42,1.42h-9.09c-0.78,0-1.42-0.64-1.42-1.42V8.18
			c0-0.78,0.64-1.42,1.42-1.42h9.09c0.78,0,1.42,0.64,1.42,1.42V25.09z"/>
		<path class="st60" d="M27.44,25.07c0,0.78-0.64,1.42-1.42,1.42h-9.09c-0.78,0-1.42-0.64-1.42-1.42V8.16
			c0-0.78,0.64-1.42,1.42-1.42h9.09c0.78,0,1.42,0.64,1.42,1.42V25.07z"/>
		<path class="st61" d="M27.42,25.06c0,0.78-0.64,1.42-1.42,1.42h-9.09c-0.78,0-1.42-0.64-1.42-1.42V8.15
			c0-0.78,0.64-1.42,1.42-1.42H26c0.78,0,1.42,0.64,1.42,1.42V25.06z"/>
		<path class="st62" d="M27.39,25.04c0,0.78-0.64,1.42-1.42,1.42h-9.09c-0.78,0-1.42-0.64-1.42-1.42V8.13
			c0-0.78,0.64-1.42,1.42-1.42h9.09c0.78,0,1.42,0.64,1.42,1.42V25.04z"/>
		<path class="st63" d="M27.37,25.03c0,0.78-0.64,1.42-1.42,1.42h-9.09c-0.78,0-1.42-0.64-1.42-1.42V8.12
			c0-0.78,0.64-1.42,1.42-1.42h9.09c0.78,0,1.42,0.64,1.42,1.42V25.03z"/>
		<path class="st64" d="M27.35,25.02c0,0.78-0.64,1.42-1.42,1.42h-9.09c-0.78,0-1.42-0.64-1.42-1.42V8.11
			c0-0.78,0.64-1.42,1.42-1.42h9.09c0.78,0,1.42,0.64,1.42,1.42V25.02z"/>
		<path class="st65" d="M27.32,25c0,0.78-0.64,1.42-1.42,1.42h-9.09c-0.78,0-1.42-0.64-1.42-1.42V8.09c0-0.78,0.64-1.42,1.42-1.42
			h9.09c0.78,0,1.42,0.64,1.42,1.42V25z"/>
		<path class="st66" d="M27.3,24.99c0,0.78-0.64,1.42-1.42,1.42h-9.09c-0.78,0-1.42-0.64-1.42-1.42V8.08c0-0.78,0.64-1.42,1.42-1.42
			h9.09c0.78,0,1.42,0.64,1.42,1.42V24.99z"/>
		<path class="st67" d="M27.28,24.97c0,0.78-0.64,1.42-1.42,1.42h-9.09c-0.78,0-1.42-0.64-1.42-1.42V8.06
			c0-0.78,0.64-1.42,1.42-1.42h9.09c0.78,0,1.42,0.64,1.42,1.42V24.97z"/>
		<path class="st68" d="M27.25,24.96c0,0.78-0.64,1.42-1.42,1.42h-9.09c-0.78,0-1.42-0.64-1.42-1.42V8.05
			c0-0.78,0.64-1.42,1.42-1.42h9.09c0.78,0,1.42,0.64,1.42,1.42V24.96z"/>
		<path class="st69" d="M27.23,24.95c0,0.78-0.64,1.42-1.42,1.42h-9.09c-0.78,0-1.42-0.64-1.42-1.42V8.04
			c0-0.78,0.64-1.42,1.42-1.42h9.09c0.78,0,1.42,0.64,1.42,1.42V24.95z"/>
		<path class="st70" d="M27.2,24.93c0,0.78-0.64,1.42-1.42,1.42H16.7c-0.78,0-1.42-0.64-1.42-1.42V8.02c0-0.78,0.64-1.42,1.42-1.42
			h9.09c0.78,0,1.42,0.64,1.42,1.42V24.93z"/>
		<path class="st71" d="M27.18,24.92c0,0.78-0.64,1.42-1.42,1.42h-9.09c-0.78,0-1.42-0.64-1.42-1.42V8.01
			c0-0.78,0.64-1.42,1.42-1.42h9.09c0.78,0,1.42,0.64,1.42,1.42V24.92z"/>
		<path class="st72" d="M27.16,24.9c0,0.78-0.64,1.42-1.42,1.42h-9.09c-0.78,0-1.42-0.64-1.42-1.42V7.99c0-0.78,0.64-1.42,1.42-1.42
			h9.09c0.78,0,1.42,0.64,1.42,1.42V24.9z"/>
		<path class="st73" d="M27.13,24.89c0,0.78-0.64,1.42-1.42,1.42h-9.09c-0.78,0-1.42-0.64-1.42-1.42V7.98
			c0-0.78,0.64-1.42,1.42-1.42h9.09c0.78,0,1.42,0.64,1.42,1.42V24.89z"/>
		<path class="st74" d="M27.11,24.87c0,0.78-0.64,1.42-1.42,1.42H16.6c-0.78,0-1.42-0.64-1.42-1.42V7.96c0-0.78,0.64-1.42,1.42-1.42
			h9.09c0.78,0,1.42,0.64,1.42,1.42V24.87z"/>
		<path class="st75" d="M27.09,24.86c0,0.78-0.64,1.42-1.42,1.42h-9.09c-0.78,0-1.42-0.64-1.42-1.42V7.95
			c0-0.78,0.64-1.42,1.42-1.42h9.09c0.78,0,1.42,0.64,1.42,1.42V24.86z"/>
		<path class="st76" d="M27.06,24.85c0,0.78-0.64,1.42-1.42,1.42h-9.09c-0.78,0-1.42-0.64-1.42-1.42V7.94
			c0-0.78,0.64-1.42,1.42-1.42h9.09c0.78,0,1.42,0.64,1.42,1.42V24.85z"/>
		<path class="st77" d="M27.04,24.83c0,0.78-0.64,1.42-1.42,1.42h-9.09c-0.78,0-1.42-0.64-1.42-1.42V7.92
			c0-0.78,0.64-1.42,1.42-1.42h9.09c0.78,0,1.42,0.64,1.42,1.42V24.83z"/>
		<path class="st78" d="M27.02,24.82c0,0.78-0.64,1.42-1.42,1.42h-9.09c-0.78,0-1.42-0.64-1.42-1.42V7.91
			c0-0.78,0.64-1.42,1.42-1.42h9.09c0.78,0,1.42,0.64,1.42,1.42V24.82z"/>
		<path class="st79" d="M26.99,24.8c0,0.78-0.64,1.42-1.42,1.42h-9.09c-0.78,0-1.42-0.64-1.42-1.42V7.89c0-0.78,0.64-1.42,1.42-1.42
			h9.09c0.78,0,1.42,0.64,1.42,1.42V24.8z"/>
		<path class="st80" d="M26.97,24.79c0,0.78-0.64,1.42-1.42,1.42h-9.09c-0.78,0-1.42-0.64-1.42-1.42V7.88
			c0-0.78,0.64-1.42,1.42-1.42h9.09c0.78,0,1.42,0.64,1.42,1.42V24.79z"/>
		<path class="st81" d="M26.95,24.78c0,0.78-0.64,1.42-1.42,1.42h-9.09c-0.78,0-1.42-0.64-1.42-1.42V7.87
			c0-0.78,0.64-1.42,1.42-1.42h9.09c0.78,0,1.42,0.64,1.42,1.42V24.78z"/>
		<path class="st82" d="M26.92,24.76c0,0.78-0.64,1.42-1.42,1.42h-9.09c-0.78,0-1.42-0.64-1.42-1.42V7.85
			c0-0.78,0.64-1.42,1.42-1.42h9.09c0.78,0,1.42,0.64,1.42,1.42V24.76z"/>
		<path class="st83" d="M26.9,24.75c0,0.78-0.64,1.42-1.42,1.42h-9.09c-0.78,0-1.42-0.64-1.42-1.42V7.84c0-0.78,0.64-1.42,1.42-1.42
			h9.09c0.78,0,1.42,0.64,1.42,1.42V24.75z"/>
		<path class="st84" d="M26.88,24.73c0,0.78-0.64,1.42-1.42,1.42h-9.09c-0.78,0-1.42-0.64-1.42-1.42V7.82
			c0-0.78,0.64-1.42,1.42-1.42h9.09c0.78,0,1.42,0.64,1.42,1.42V24.73z"/>
		<path class="st85" d="M26.85,24.72c0,0.78-0.64,1.42-1.42,1.42h-9.09c-0.78,0-1.42-0.64-1.42-1.42V7.81
			c0-0.78,0.64-1.42,1.42-1.42h9.09c0.78,0,1.42,0.64,1.42,1.42V24.72z"/>
		<path class="st86" d="M26.83,24.71c0,0.78-0.64,1.42-1.42,1.42h-9.09c-0.78,0-1.42-0.64-1.42-1.42V7.8c0-0.78,0.64-1.42,1.42-1.42
			h9.09c0.78,0,1.42,0.64,1.42,1.42V24.71z"/>
		<path class="st87" d="M26.8,24.69c0,0.78-0.64,1.42-1.42,1.42H16.3c-0.78,0-1.42-0.64-1.42-1.42V7.78c0-0.78,0.64-1.42,1.42-1.42
			h9.09c0.78,0,1.42,0.64,1.42,1.42V24.69z"/>
		<path class="st88" d="M26.78,24.68c0,0.78-0.64,1.42-1.42,1.42h-9.09c-0.78,0-1.42-0.64-1.42-1.42V7.77
			c0-0.78,0.64-1.42,1.42-1.42h9.09c0.78,0,1.42,0.64,1.42,1.42V24.68z"/>
		<path class="st89" d="M26.76,24.66c0,0.78-0.64,1.42-1.42,1.42h-9.09c-0.78,0-1.42-0.64-1.42-1.42V7.75
			c0-0.78,0.64-1.42,1.42-1.42h9.09c0.78,0,1.42,0.64,1.42,1.42V24.66z"/>
		<path class="st90" d="M26.73,24.65c0,0.78-0.64,1.42-1.42,1.42h-9.09c-0.78,0-1.42-0.64-1.42-1.42V7.74
			c0-0.78,0.64-1.42,1.42-1.42h9.09c0.78,0,1.42,0.64,1.42,1.42V24.65z"/>
		<path class="st91" d="M26.71,24.63c0,0.78-0.64,1.42-1.42,1.42H16.2c-0.78,0-1.42-0.64-1.42-1.42V7.72c0-0.78,0.64-1.42,1.42-1.42
			h9.09c0.78,0,1.42,0.64,1.42,1.42V24.63z"/>
		<path class="st92" d="M26.69,24.62c0,0.78-0.64,1.42-1.42,1.42h-9.09c-0.78,0-1.42-0.64-1.42-1.42V7.71
			c0-0.78,0.64-1.42,1.42-1.42h9.09c0.78,0,1.42,0.64,1.42,1.42V24.62z"/>
		<path class="st93" d="M26.66,24.61c0,0.78-0.64,1.42-1.42,1.42h-9.09c-0.78,0-1.42-0.64-1.42-1.42V7.7c0-0.78,0.64-1.42,1.42-1.42
			h9.09c0.78,0,1.42,0.64,1.42,1.42V24.61z"/>
		<path class="st94" d="M26.64,24.59c0,0.78-0.64,1.42-1.42,1.42h-9.09c-0.78,0-1.42-0.64-1.42-1.42V7.68
			c0-0.78,0.64-1.42,1.42-1.42h9.09c0.78,0,1.42,0.64,1.42,1.42V24.59z"/>
		<path class="st95" d="M26.62,24.58c0,0.78-0.64,1.42-1.42,1.42h-9.09c-0.78,0-1.42-0.64-1.42-1.42V7.67
			c0-0.78,0.64-1.42,1.42-1.42h9.09c0.78,0,1.42,0.64,1.42,1.42V24.58z"/>
		<path class="st96" d="M26.59,24.56c0,0.78-0.64,1.42-1.42,1.42h-9.09c-0.78,0-1.42-0.64-1.42-1.42V7.65
			c0-0.78,0.64-1.42,1.42-1.42h9.09c0.78,0,1.42,0.64,1.42,1.42V24.56z"/>
		<path class="st97" d="M26.57,24.55c0,0.78-0.64,1.42-1.42,1.42h-9.09c-0.78,0-1.42-0.64-1.42-1.42V7.64
			c0-0.78,0.64-1.42,1.42-1.42h9.09c0.78,0,1.42,0.64,1.42,1.42V24.55z"/>
		<path class="st98" d="M26.55,24.54c0,0.78-0.64,1.42-1.42,1.42h-9.09c-0.78,0-1.42-0.64-1.42-1.42V7.63
			c0-0.78,0.64-1.42,1.42-1.42h9.09c0.78,0,1.42,0.64,1.42,1.42V24.54z"/>
		<path class="st99" d="M26.52,24.52c0,0.78-0.64,1.42-1.42,1.42h-9.09c-0.78,0-1.42-0.64-1.42-1.42V7.61
			c0-0.78,0.64-1.42,1.42-1.42h9.09c0.78,0,1.42,0.64,1.42,1.42V24.52z"/>
		<path class="st100" d="M26.5,24.51c0,0.78-0.64,1.42-1.42,1.42h-9.09c-0.78,0-1.42-0.64-1.42-1.42V7.6c0-0.78,0.64-1.42,1.42-1.42
			h9.09c0.78,0,1.42,0.64,1.42,1.42V24.51z"/>
		<path class="st101" d="M26.48,24.49c0,0.78-0.64,1.42-1.42,1.42h-9.09c-0.78,0-1.42-0.64-1.42-1.42V7.58
			c0-0.78,0.64-1.42,1.42-1.42h9.09c0.78,0,1.42,0.64,1.42,1.42V24.49z"/>
		<path class="st102" d="M26.45,24.48c0,0.78-0.64,1.42-1.42,1.42h-9.09c-0.78,0-1.42-0.64-1.42-1.42V7.57
			c0-0.78,0.64-1.42,1.42-1.42h9.09c0.78,0,1.42,0.64,1.42,1.42V24.48z"/>
		<path class="st103" d="M26.43,24.47c0,0.78-0.64,1.42-1.42,1.42h-9.09c-0.78,0-1.42-0.64-1.42-1.42V7.56
			c0-0.78,0.64-1.42,1.42-1.42h9.09c0.78,0,1.42,0.64,1.42,1.42V24.47z"/>
		<path class="st104" d="M26.4,24.45c0,0.78-0.64,1.42-1.42,1.42H15.9c-0.78,0-1.42-0.64-1.42-1.42V7.54c0-0.78,0.64-1.42,1.42-1.42
			h9.09c0.78,0,1.42,0.64,1.42,1.42V24.45z"/>
		<path class="st105" d="M26.38,24.44c0,0.78-0.64,1.42-1.42,1.42h-9.09c-0.78,0-1.42-0.64-1.42-1.42V7.53
			c0-0.78,0.64-1.42,1.42-1.42h9.09c0.78,0,1.42,0.64,1.42,1.42V24.44z"/>
		<path class="st106" d="M26.36,24.42c0,0.78-0.64,1.42-1.42,1.42h-9.09c-0.78,0-1.42-0.64-1.42-1.42V7.51
			c0-0.78,0.64-1.42,1.42-1.42h9.09c0.78,0,1.42,0.64,1.42,1.42V24.42z"/>
		<path class="st107" d="M26.33,24.41c0,0.78-0.64,1.42-1.42,1.42h-9.09c-0.78,0-1.42-0.64-1.42-1.42V7.5
			c0-0.78,0.64-1.42,1.42-1.42h9.09c0.78,0,1.42,0.64,1.42,1.42V24.41z"/>
		<path class="st108" d="M26.31,24.39c0,0.78-0.64,1.42-1.42,1.42H15.8c-0.78,0-1.42-0.64-1.42-1.42V7.48
			c0-0.78,0.64-1.42,1.42-1.42h9.09c0.78,0,1.42,0.64,1.42,1.42V24.39z"/>
		<path class="st109" d="M26.29,24.38c0,0.78-0.64,1.42-1.42,1.42h-9.09c-0.78,0-1.42-0.64-1.42-1.42V7.47
			c0-0.78,0.64-1.42,1.42-1.42h9.09c0.78,0,1.42,0.64,1.42,1.42V24.38z"/>
		<path class="st110" d="M26.26,24.37c0,0.78-0.64,1.42-1.42,1.42h-9.09c-0.78,0-1.42-0.64-1.42-1.42V7.46
			c0-0.78,0.64-1.42,1.42-1.42h9.09c0.78,0,1.42,0.64,1.42,1.42V24.37z"/>
		<path class="st111" d="M26.24,24.35c0,0.78-0.64,1.42-1.42,1.42h-9.09c-0.78,0-1.42-0.64-1.42-1.42V7.44
			c0-0.78,0.64-1.42,1.42-1.42h9.09c0.78,0,1.42,0.64,1.42,1.42V24.35z"/>
		<path class="st112" d="M26.22,24.34c0,0.78-0.64,1.42-1.42,1.42h-9.09c-0.78,0-1.42-0.64-1.42-1.42V7.43
			c0-0.78,0.64-1.42,1.42-1.42h9.09c0.78,0,1.42,0.64,1.42,1.42V24.34z"/>
		<path class="st113" d="M26.19,24.32c0,0.78-0.64,1.42-1.42,1.42h-9.09c-0.78,0-1.42-0.64-1.42-1.42V7.41
			C14.27,6.63,14.9,6,15.68,6h9.09c0.78,0,1.42,0.64,1.42,1.42V24.32z"/>
		<path class="st114" d="M26.17,24.31c0,0.78-0.64,1.42-1.42,1.42h-9.09c-0.78,0-1.42-0.64-1.42-1.42V7.4
			c0-0.78,0.64-1.42,1.42-1.42h9.09c0.78,0,1.42,0.64,1.42,1.42V24.31z"/>
		<path class="st115" d="M26.15,24.3c0,0.78-0.64,1.42-1.42,1.42h-9.09c-0.78,0-1.42-0.64-1.42-1.42V7.39
			c0-0.78,0.64-1.42,1.42-1.42h9.09c0.78,0,1.42,0.64,1.42,1.42V24.3z"/>
		<path class="st116" d="M26.12,24.28c0,0.78-0.64,1.42-1.42,1.42h-9.09c-0.78,0-1.42-0.64-1.42-1.42V7.37
			c0-0.78,0.64-1.42,1.42-1.42h9.09c0.78,0,1.42,0.64,1.42,1.42V24.28z"/>
		<path class="st117" d="M26.1,24.27c0,0.78-0.64,1.42-1.42,1.42h-9.09c-0.78,0-1.42-0.64-1.42-1.42V7.36
			c0-0.78,0.64-1.42,1.42-1.42h9.09c0.78,0,1.42,0.64,1.42,1.42V24.27z"/>
		<path class="st118" d="M26.08,24.25c0,0.78-0.64,1.42-1.42,1.42h-9.09c-0.78,0-1.42-0.64-1.42-1.42V7.34
			c0-0.78,0.64-1.42,1.42-1.42h9.09c0.78,0,1.42,0.64,1.42,1.42V24.25z"/>
		<path class="st119" d="M26.05,24.24c0,0.78-0.64,1.42-1.42,1.42h-9.09c-0.78,0-1.42-0.64-1.42-1.42V7.33
			c0-0.78,0.64-1.42,1.42-1.42h9.09c0.78,0,1.42,0.64,1.42,1.42V24.24z"/>
		<path class="st120" d="M26.03,24.23c0,0.78-0.64,1.42-1.42,1.42h-9.09c-0.78,0-1.42-0.64-1.42-1.42V7.32
			c0-0.78,0.64-1.42,1.42-1.42h9.09c0.78,0,1.42,0.64,1.42,1.42V24.23z"/>
		<path class="st121" d="M26,24.21c0,0.78-0.64,1.42-1.42,1.42H15.5c-0.78,0-1.42-0.64-1.42-1.42V7.3c0-0.78,0.64-1.42,1.42-1.42
			h9.09C25.37,5.88,26,6.52,26,7.3V24.21z"/>
		<path class="st122" d="M25.98,24.2c0,0.78-0.64,1.42-1.42,1.42h-9.09c-0.78,0-1.42-0.64-1.42-1.42V7.29
			c0-0.78,0.64-1.42,1.42-1.42h9.09c0.78,0,1.42,0.64,1.42,1.42V24.2z"/>
		<path class="st123" d="M25.96,24.18c0,0.78-0.64,1.42-1.42,1.42h-9.09c-0.78,0-1.42-0.64-1.42-1.42V7.27
			c0-0.78,0.64-1.42,1.42-1.42h9.09c0.78,0,1.42,0.64,1.42,1.42V24.18z"/>
		<path class="st124" d="M25.93,24.17c0,0.78-0.64,1.42-1.42,1.42h-9.09c-0.78,0-1.42-0.64-1.42-1.42V7.26
			c0-0.78,0.64-1.42,1.42-1.42h9.09c0.78,0,1.42,0.64,1.42,1.42V24.17z"/>
		<path class="st125" d="M25.91,24.15c0,0.78-0.64,1.42-1.42,1.42H15.4c-0.78,0-1.42-0.64-1.42-1.42V7.24
			c0-0.78,0.64-1.42,1.42-1.42h9.09c0.78,0,1.42,0.64,1.42,1.42V24.15z"/>
		<path class="st126" d="M25.89,24.14c0,0.78-0.64,1.42-1.42,1.42h-9.09c-0.78,0-1.42-0.64-1.42-1.42V7.23
			c0-0.78,0.64-1.42,1.42-1.42h9.09c0.78,0,1.42,0.64,1.42,1.42V24.14z"/>
		<path class="st127" d="M25.86,24.13c0,0.78-0.64,1.42-1.42,1.42h-9.09c-0.78,0-1.42-0.64-1.42-1.42V7.22
			c0-0.78,0.64-1.42,1.42-1.42h9.09c0.78,0,1.42,0.64,1.42,1.42V24.13z"/>
		<path class="st128" d="M25.84,24.11c0,0.78-0.64,1.42-1.42,1.42h-9.09c-0.78,0-1.42-0.64-1.42-1.42V7.2
			c0-0.78,0.64-1.42,1.42-1.42h9.09c0.78,0,1.42,0.64,1.42,1.42V24.11z"/>
		<path class="st129" d="M25.82,24.1c0,0.78-0.64,1.42-1.42,1.42h-9.09c-0.78,0-1.42-0.64-1.42-1.42V7.19
			c0-0.78,0.64-1.42,1.42-1.42h9.09c0.78,0,1.42,0.64,1.42,1.42V24.1z"/>
		<path class="st130" d="M25.79,24.08c0,0.78-0.64,1.42-1.42,1.42h-9.09c-0.78,0-1.42-0.64-1.42-1.42V7.17
			c0-0.78,0.64-1.42,1.42-1.42h9.09c0.78,0,1.42,0.64,1.42,1.42V24.08z"/>
		<path class="st131" d="M25.77,24.07c0,0.78-0.64,1.42-1.42,1.42h-9.09c-0.78,0-1.42-0.64-1.42-1.42V7.16
			c0-0.78,0.64-1.42,1.42-1.42h9.09c0.78,0,1.42,0.64,1.42,1.42V24.07z"/>
		<path class="st132" d="M25.75,24.06c0,0.78-0.64,1.42-1.42,1.42h-9.09c-0.78,0-1.42-0.64-1.42-1.42V7.15
			c0-0.78,0.64-1.42,1.42-1.42h9.09c0.78,0,1.42,0.64,1.42,1.42V24.06z"/>
		<path class="st133" d="M25.72,24.04c0,0.78-0.64,1.42-1.42,1.42h-9.09c-0.78,0-1.42-0.64-1.42-1.42V7.13
			c0-0.78,0.64-1.42,1.42-1.42h9.09c0.78,0,1.42,0.64,1.42,1.42V24.04z"/>
		<path class="st134" d="M25.7,24.03c0,0.78-0.64,1.42-1.42,1.42h-9.09c-0.78,0-1.42-0.64-1.42-1.42V7.12
			c0-0.78,0.64-1.42,1.42-1.42h9.09c0.78,0,1.42,0.64,1.42,1.42V24.03z"/>
		<path class="st135" d="M25.68,24.01c0,0.78-0.64,1.42-1.42,1.42h-9.09c-0.78,0-1.42-0.64-1.42-1.42V7.1
			c0-0.78,0.64-1.42,1.42-1.42h9.09c0.78,0,1.42,0.64,1.42,1.42V24.01z"/>
		<path class="st136" d="M25.65,24c0,0.78-0.64,1.42-1.42,1.42h-9.09c-0.78,0-1.42-0.64-1.42-1.42V7.09c0-0.78,0.64-1.42,1.42-1.42
			h9.09c0.78,0,1.42,0.64,1.42,1.42V24z"/>
		<path class="st137" d="M25.63,23.99c0,0.78-0.64,1.42-1.42,1.42h-9.09c-0.78,0-1.42-0.64-1.42-1.42V7.08
			c0-0.78,0.64-1.42,1.42-1.42h9.09c0.78,0,1.42,0.64,1.42,1.42V23.99z"/>
		<path class="st138" d="M25.6,23.97c0,0.78-0.64,1.42-1.42,1.42H15.1c-0.78,0-1.42-0.64-1.42-1.42V7.06c0-0.78,0.64-1.42,1.42-1.42
			h9.09c0.78,0,1.42,0.64,1.42,1.42V23.97z"/>
		<path class="st139" d="M25.58,23.96c0,0.78-0.64,1.42-1.42,1.42h-9.09c-0.78,0-1.42-0.64-1.42-1.42V7.05
			c0-0.78,0.64-1.42,1.42-1.42h9.09c0.78,0,1.42,0.64,1.42,1.42V23.96z"/>
		<path class="st140" d="M25.56,23.94c0,0.78-0.64,1.42-1.42,1.42h-9.09c-0.78,0-1.42-0.64-1.42-1.42V7.03
			c0-0.78,0.64-1.42,1.42-1.42h9.09c0.78,0,1.42,0.64,1.42,1.42V23.94z"/>
		<path class="st141" d="M25.53,23.93c0,0.78-0.64,1.42-1.42,1.42h-9.09c-0.78,0-1.42-0.64-1.42-1.42V7.02
			c0-0.78,0.64-1.42,1.42-1.42h9.09c0.78,0,1.42,0.64,1.42,1.42V23.93z"/>
		<path class="st142" d="M25.51,23.91c0,0.78-0.64,1.42-1.42,1.42H15c-0.78,0-1.42-0.64-1.42-1.42V7c0-0.78,0.64-1.42,1.42-1.42
			h9.09c0.78,0,1.42,0.64,1.42,1.42V23.91z"/>
		<path class="st143" d="M25.49,23.9c0,0.78-0.64,1.42-1.42,1.42h-9.09c-0.78,0-1.42-0.64-1.42-1.42V6.99
			c0-0.78,0.64-1.42,1.42-1.42h9.09c0.78,0,1.42,0.64,1.42,1.42V23.9z"/>
		<path class="st144" d="M25.46,23.89c0,0.78-0.64,1.42-1.42,1.42h-9.09c-0.78,0-1.42-0.64-1.42-1.42V6.98
			c0-0.78,0.64-1.42,1.42-1.42h9.09c0.78,0,1.42,0.64,1.42,1.42V23.89z"/>
		<path class="st145" d="M25.44,23.87c0,0.78-0.64,1.42-1.42,1.42h-9.09c-0.78,0-1.42-0.64-1.42-1.42V6.96
			c0-0.78,0.64-1.42,1.42-1.42h9.09c0.78,0,1.42,0.64,1.42,1.42V23.87z"/>
		<path class="st146" d="M25.42,23.86c0,0.78-0.64,1.42-1.42,1.42h-9.09c-0.78,0-1.42-0.64-1.42-1.42V6.95
			c0-0.78,0.64-1.42,1.42-1.42H24c0.78,0,1.42,0.64,1.42,1.42V23.86z"/>
		<path class="st147" d="M25.39,23.84c0,0.78-0.64,1.42-1.42,1.42h-9.09c-0.78,0-1.42-0.64-1.42-1.42V6.93
			c0-0.78,0.64-1.42,1.42-1.42h9.09c0.78,0,1.42,0.64,1.42,1.42V23.84z"/>
		<path class="st148" d="M25.37,23.83c0,0.78-0.64,1.42-1.42,1.42h-9.09c-0.78,0-1.42-0.64-1.42-1.42V6.92
			c0-0.78,0.64-1.42,1.42-1.42h9.09c0.78,0,1.42,0.64,1.42,1.42V23.83z"/>
		<path class="st149" d="M25.35,23.82c0,0.78-0.64,1.42-1.42,1.42h-9.09c-0.78,0-1.42-0.64-1.42-1.42V6.91
			c0-0.78,0.64-1.42,1.42-1.42h9.09c0.78,0,1.42,0.64,1.42,1.42V23.82z"/>
		<path class="st150" d="M25.32,23.8c0,0.78-0.64,1.42-1.42,1.42h-9.09c-0.78,0-1.42-0.64-1.42-1.42V6.89
			c0-0.78,0.64-1.42,1.42-1.42h9.09c0.78,0,1.42,0.64,1.42,1.42V23.8z"/>
		<path class="st151" d="M25.3,23.79c0,0.78-0.64,1.42-1.42,1.42h-9.09c-0.78,0-1.42-0.64-1.42-1.42V6.88
			c0-0.78,0.64-1.42,1.42-1.42h9.09c0.78,0,1.42,0.64,1.42,1.42V23.79z"/>
		<path class="st152" d="M25.28,23.77c0,0.78-0.64,1.42-1.42,1.42h-9.09c-0.78,0-1.42-0.64-1.42-1.42V6.86
			c0-0.78,0.64-1.42,1.42-1.42h9.09c0.78,0,1.42,0.64,1.42,1.42V23.77z"/>
		<path class="st153" d="M25.25,23.76c0,0.78-0.64,1.42-1.42,1.42h-9.09c-0.78,0-1.42-0.64-1.42-1.42V6.85
			c0-0.78,0.64-1.42,1.42-1.42h9.09c0.78,0,1.42,0.64,1.42,1.42V23.76z"/>
		<path class="st154" d="M25.23,23.75c0,0.78-0.64,1.42-1.42,1.42h-9.09c-0.78,0-1.42-0.64-1.42-1.42V6.84
			c0-0.78,0.64-1.42,1.42-1.42h9.09c0.78,0,1.42,0.64,1.42,1.42V23.75z"/>
		<path class="st155" d="M25.2,23.73c0,0.78-0.64,1.42-1.42,1.42H14.7c-0.78,0-1.42-0.64-1.42-1.42V6.82c0-0.78,0.64-1.42,1.42-1.42
			h9.09c0.78,0,1.42,0.64,1.42,1.42V23.73z"/>
		<path class="st156" d="M25.18,23.72c0,0.78-0.64,1.42-1.42,1.42h-9.09c-0.78,0-1.42-0.64-1.42-1.42V6.81
			c0-0.78,0.64-1.42,1.42-1.42h9.09c0.78,0,1.42,0.64,1.42,1.42V23.72z"/>
		<path class="st157" d="M25.16,23.7c0,0.78-0.64,1.42-1.42,1.42h-9.09c-0.78,0-1.42-0.64-1.42-1.42V6.79
			c0-0.78,0.64-1.42,1.42-1.42h9.09c0.78,0,1.42,0.64,1.42,1.42V23.7z"/>
		<path class="st158" d="M25.13,23.69c0,0.78-0.64,1.42-1.42,1.42h-9.09c-0.78,0-1.42-0.64-1.42-1.42V6.78
			c0-0.78,0.64-1.42,1.42-1.42h9.09c0.78,0,1.42,0.64,1.42,1.42V23.69z"/>
		<path class="st159" d="M25.11,23.67c0,0.78-0.64,1.42-1.42,1.42H14.6c-0.78,0-1.42-0.64-1.42-1.42V6.76
			c0-0.78,0.64-1.42,1.42-1.42h9.09c0.78,0,1.42,0.64,1.42,1.42V23.67z"/>
		<path class="st160" d="M25.09,23.66c0,0.78-0.64,1.42-1.42,1.42h-9.09c-0.78,0-1.42-0.64-1.42-1.42V6.75
			c0-0.78,0.64-1.42,1.42-1.42h9.09c0.78,0,1.42,0.64,1.42,1.42V23.66z"/>
		<path class="st161" d="M25.06,23.65c0,0.78-0.64,1.42-1.42,1.42h-9.09c-0.78,0-1.42-0.64-1.42-1.42V6.74
			c0-0.78,0.64-1.42,1.42-1.42h9.09c0.78,0,1.42,0.64,1.42,1.42V23.65z"/>
		<path class="st162" d="M25.04,23.63c0,0.78-0.64,1.42-1.42,1.42h-9.09c-0.78,0-1.42-0.64-1.42-1.42V6.72
			c0-0.78,0.64-1.42,1.42-1.42h9.09c0.78,0,1.42,0.64,1.42,1.42V23.63z"/>
		<path class="st163" d="M25.02,23.62c0,0.78-0.64,1.42-1.42,1.42h-9.09c-0.78,0-1.42-0.64-1.42-1.42V6.71
			c0-0.78,0.64-1.42,1.42-1.42h9.09c0.78,0,1.42,0.64,1.42,1.42V23.62z"/>
		<path class="st164" d="M24.99,23.6c0,0.78-0.64,1.42-1.42,1.42h-9.09c-0.78,0-1.42-0.64-1.42-1.42V6.69
			c0-0.78,0.64-1.42,1.42-1.42h9.09c0.78,0,1.42,0.64,1.42,1.42V23.6z"/>
		<path class="st165" d="M24.97,23.59c0,0.78-0.64,1.42-1.42,1.42h-9.09c-0.78,0-1.42-0.64-1.42-1.42V6.68
			c0-0.78,0.64-1.42,1.42-1.42h9.09c0.78,0,1.42,0.64,1.42,1.42V23.59z"/>
		<path class="st166" d="M24.95,23.58c0,0.78-0.64,1.42-1.42,1.42h-9.09c-0.78,0-1.42-0.64-1.42-1.42V6.67
			c0-0.78,0.64-1.42,1.42-1.42h9.09c0.78,0,1.42,0.64,1.42,1.42V23.58z"/>
		<path class="st167" d="M24.92,23.56c0,0.78-0.64,1.42-1.42,1.42h-9.09c-0.78,0-1.42-0.64-1.42-1.42V6.65
			c0-0.78,0.64-1.42,1.42-1.42h9.09c0.78,0,1.42,0.64,1.42,1.42V23.56z"/>
		<path class="st168" d="M24.9,23.55c0,0.78-0.64,1.42-1.42,1.42h-9.09c-0.78,0-1.42-0.64-1.42-1.42V6.64
			c0-0.78,0.64-1.42,1.42-1.42h9.09c0.78,0,1.42,0.64,1.42,1.42V23.55z"/>
		<path class="st169" d="M24.88,23.53c0,0.78-0.64,1.42-1.42,1.42h-9.09c-0.78,0-1.42-0.64-1.42-1.42V6.62
			c0-0.78,0.64-1.42,1.42-1.42h9.09c0.78,0,1.42,0.64,1.42,1.42V23.53z"/>
		<path class="st170" d="M24.85,23.52c0,0.78-0.64,1.42-1.42,1.42h-9.09c-0.78,0-1.42-0.64-1.42-1.42V6.61
			c0-0.78,0.64-1.42,1.42-1.42h9.09c0.78,0,1.42,0.64,1.42,1.42V23.52z"/>
		<path class="st171" d="M24.83,23.51c0,0.78-0.64,1.42-1.42,1.42h-9.09c-0.78,0-1.42-0.64-1.42-1.42V6.6
			c0-0.78,0.64-1.42,1.42-1.42h9.09c0.78,0,1.42,0.64,1.42,1.42V23.51z"/>
		<path class="st172" d="M24.8,23.49c0,0.78-0.64,1.42-1.42,1.42H14.3c-0.78,0-1.42-0.64-1.42-1.42V6.58c0-0.78,0.64-1.42,1.42-1.42
			h9.09c0.78,0,1.42,0.64,1.42,1.42V23.49z"/>
		<path class="st173" d="M24.78,23.48c0,0.78-0.64,1.42-1.42,1.42h-9.09c-0.78,0-1.42-0.64-1.42-1.42V6.57
			c0-0.78,0.64-1.42,1.42-1.42h9.09c0.78,0,1.42,0.64,1.42,1.42V23.48z"/>
		<path class="st174" d="M24.76,23.46c0,0.78-0.64,1.42-1.42,1.42h-9.09c-0.78,0-1.42-0.64-1.42-1.42V6.55
			c0-0.78,0.64-1.42,1.42-1.42h9.09c0.78,0,1.42,0.64,1.42,1.42V23.46z"/>
		<path class="st175" d="M24.73,23.45c0,0.78-0.64,1.42-1.42,1.42h-9.09c-0.78,0-1.42-0.64-1.42-1.42V6.54
			c0-0.78,0.64-1.42,1.42-1.42h9.09c0.78,0,1.42,0.64,1.42,1.42V23.45z"/>
		<path class="st176" d="M24.71,23.43c0,0.78-0.64,1.42-1.42,1.42H14.2c-0.78,0-1.42-0.64-1.42-1.42V6.52
			c0-0.78,0.64-1.42,1.42-1.42h9.09c0.78,0,1.42,0.64,1.42,1.42V23.43z"/>
		<path class="st177" d="M24.69,23.42c0,0.78-0.64,1.42-1.42,1.42h-9.09c-0.78,0-1.42-0.64-1.42-1.42V6.51
			c0-0.78,0.64-1.42,1.42-1.42h9.09c0.78,0,1.42,0.64,1.42,1.42V23.42z"/>
		<path class="st178" d="M24.66,23.41c0,0.78-0.64,1.42-1.42,1.42h-9.09c-0.78,0-1.42-0.64-1.42-1.42V6.5
			c0-0.78,0.64-1.42,1.42-1.42h9.09c0.78,0,1.42,0.64,1.42,1.42V23.41z"/>
		<path class="st178" d="M24.64,23.39c0,0.78-0.64,1.42-1.42,1.42h-9.09c-0.78,0-1.42-0.64-1.42-1.42V6.48
			c0-0.78,0.64-1.42,1.42-1.42h9.09c0.78,0,1.42,0.64,1.42,1.42V23.39z"/>
		<path class="st179" d="M24.62,23.38c0,0.78-0.64,1.42-1.42,1.42h-9.09c-0.78,0-1.42-0.64-1.42-1.42V6.47
			c0-0.78,0.64-1.42,1.42-1.42h9.09c0.78,0,1.42,0.64,1.42,1.42V23.38z"/>
		<path class="st180" d="M24.59,23.36c0,0.78-0.64,1.42-1.42,1.42h-9.09c-0.78,0-1.42-0.64-1.42-1.42V6.45
			c0-0.78,0.64-1.42,1.42-1.42h9.09c0.78,0,1.42,0.64,1.42,1.42V23.36z"/>
		<path class="st181" d="M24.57,23.35c0,0.78-0.64,1.42-1.42,1.42h-9.09c-0.78,0-1.42-0.64-1.42-1.42V6.44
			c0-0.78,0.64-1.42,1.42-1.42h9.09c0.78,0,1.42,0.64,1.42,1.42V23.35z"/>
		<path class="st182" d="M24.55,23.34c0,0.78-0.64,1.42-1.42,1.42h-9.09c-0.78,0-1.42-0.64-1.42-1.42V6.43
			c0-0.78,0.64-1.42,1.42-1.42h9.09c0.78,0,1.42,0.64,1.42,1.42V23.34z"/>
		<path class="st183" d="M24.52,23.32c0,0.78-0.64,1.42-1.42,1.42h-9.09c-0.78,0-1.42-0.64-1.42-1.42V6.41
			C12.6,5.63,13.23,5,14.01,5h9.09c0.78,0,1.42,0.64,1.42,1.42V23.32z"/>
		<path class="st184" d="M24.5,23.31c0,0.78-0.64,1.42-1.42,1.42h-9.09c-0.78,0-1.42-0.64-1.42-1.42V6.4c0-0.78,0.64-1.42,1.42-1.42
			h9.09c0.78,0,1.42,0.64,1.42,1.42V23.31z"/>
		<path class="st185" d="M24.48,23.29c0,0.78-0.64,1.42-1.42,1.42h-9.09c-0.78,0-1.42-0.64-1.42-1.42V6.38
			c0-0.78,0.64-1.42,1.42-1.42h9.09c0.78,0,1.42,0.64,1.42,1.42V23.29z"/>
		<path class="st186" d="M24.45,23.28c0,0.78-0.64,1.42-1.42,1.42h-9.09c-0.78,0-1.42-0.64-1.42-1.42V6.37
			c0-0.78,0.64-1.42,1.42-1.42h9.09c0.78,0,1.42,0.64,1.42,1.42V23.28z"/>
		<path class="st187" d="M24.43,23.27c0,0.78-0.64,1.42-1.42,1.42h-9.09c-0.78,0-1.42-0.64-1.42-1.42V6.36
			c0-0.78,0.64-1.42,1.42-1.42h9.09c0.78,0,1.42,0.64,1.42,1.42V23.27z"/>
		<path class="st188" d="M24.4,23.25c0,0.78-0.64,1.42-1.42,1.42H13.9c-0.78,0-1.42-0.64-1.42-1.42V6.34c0-0.78,0.64-1.42,1.42-1.42
			h9.09c0.78,0,1.42,0.64,1.42,1.42V23.25z"/>
		<path class="st189" d="M24.38,23.24c0,0.78-0.64,1.42-1.42,1.42h-9.09c-0.78,0-1.42-0.64-1.42-1.42V6.33
			c0-0.78,0.64-1.42,1.42-1.42h9.09c0.78,0,1.42,0.64,1.42,1.42V23.24z"/>
		<path class="st190" d="M24.36,23.22c0,0.78-0.64,1.42-1.42,1.42h-9.09c-0.78,0-1.42-0.64-1.42-1.42V6.31
			c0-0.78,0.64-1.42,1.42-1.42h9.09c0.78,0,1.42,0.64,1.42,1.42V23.22z"/>
		<path class="st191" d="M24.33,23.21c0,0.78-0.64,1.42-1.42,1.42h-9.09c-0.78,0-1.42-0.64-1.42-1.42V6.3
			c0-0.78,0.64-1.42,1.42-1.42h9.09c0.78,0,1.42,0.64,1.42,1.42V23.21z"/>
		<path class="st192" d="M24.31,23.19c0,0.78-0.64,1.42-1.42,1.42H13.8c-0.78,0-1.42-0.64-1.42-1.42V6.28
			c0-0.78,0.64-1.42,1.42-1.42h9.09c0.78,0,1.42,0.64,1.42,1.42V23.19z"/>
		<path class="st193" d="M24.29,23.18c0,0.78-0.64,1.42-1.42,1.42h-9.09c-0.78,0-1.42-0.64-1.42-1.42V6.27
			c0-0.78,0.64-1.42,1.42-1.42h9.09c0.78,0,1.42,0.64,1.42,1.42V23.18z"/>
		<path class="st194" d="M24.26,23.17c0,0.78-0.64,1.42-1.42,1.42h-9.09c-0.78,0-1.42-0.64-1.42-1.42V6.26
			c0-0.78,0.64-1.42,1.42-1.42h9.09c0.78,0,1.42,0.64,1.42,1.42V23.17z"/>
		<path class="st195" d="M24.24,23.15c0,0.78-0.64,1.42-1.42,1.42h-9.09c-0.78,0-1.42-0.64-1.42-1.42V6.24
			c0-0.78,0.64-1.42,1.42-1.42h9.09c0.78,0,1.42,0.64,1.42,1.42V23.15z"/>
		<path class="st196" d="M24.22,23.14c0,0.78-0.64,1.42-1.42,1.42h-9.09c-0.78,0-1.42-0.64-1.42-1.42V6.23
			c0-0.78,0.64-1.42,1.42-1.42h9.09c0.78,0,1.42,0.64,1.42,1.42V23.14z"/>
		<path class="st197" d="M24.19,23.12c0,0.78-0.64,1.42-1.42,1.42h-9.09c-0.78,0-1.42-0.64-1.42-1.42V6.21
			c0-0.78,0.64-1.42,1.42-1.42h9.09c0.78,0,1.42,0.64,1.42,1.42V23.12z"/>
		<path class="st198" d="M24.17,23.11c0,0.78-0.64,1.42-1.42,1.42h-9.09c-0.78,0-1.42-0.64-1.42-1.42V6.2
			c0-0.78,0.64-1.42,1.42-1.42h9.09c0.78,0,1.42,0.64,1.42,1.42V23.11z"/>
		<path class="st199" d="M24.15,23.1c0,0.78-0.64,1.42-1.42,1.42h-9.09c-0.78,0-1.42-0.64-1.42-1.42V6.19
			c0-0.78,0.64-1.42,1.42-1.42h9.09c0.78,0,1.42,0.64,1.42,1.42V23.1z"/>
		<path class="st200" d="M24.12,23.08c0,0.78-0.64,1.42-1.42,1.42h-9.09c-0.78,0-1.42-0.64-1.42-1.42V6.17
			c0-0.78,0.64-1.42,1.42-1.42h9.09c0.78,0,1.42,0.64,1.42,1.42V23.08z"/>
		<path class="st201" d="M24.1,23.07c0,0.78-0.64,1.42-1.42,1.42h-9.09c-0.78,0-1.42-0.64-1.42-1.42V6.16
			c0-0.78,0.64-1.42,1.42-1.42h9.09c0.78,0,1.42,0.64,1.42,1.42V23.07z"/>
		<path class="st202" d="M24.08,23.05c0,0.78-0.64,1.42-1.42,1.42h-9.09c-0.78,0-1.42-0.64-1.42-1.42V6.14
			c0-0.78,0.64-1.42,1.42-1.42h9.09c0.78,0,1.42,0.64,1.42,1.42V23.05z"/>
		<path class="st203" d="M24.05,23.04c0,0.78-0.64,1.42-1.42,1.42h-9.09c-0.78,0-1.42-0.64-1.42-1.42V6.13
			c0-0.78,0.64-1.42,1.42-1.42h9.09c0.78,0,1.42,0.64,1.42,1.42V23.04z"/>
		<path class="st204" d="M24.03,23.03c0,0.78-0.64,1.42-1.42,1.42h-9.09c-0.78,0-1.42-0.64-1.42-1.42V6.12
			c0-0.78,0.64-1.42,1.42-1.42h9.09c0.78,0,1.42,0.64,1.42,1.42V23.03z"/>
		<path class="st205" d="M24,23.01c0,0.78-0.64,1.42-1.42,1.42H13.5c-0.78,0-1.42-0.64-1.42-1.42V6.1c0-0.78,0.64-1.42,1.42-1.42
			h9.09C23.37,4.68,24,5.32,24,6.1V23.01z"/>
		<path class="st206" d="M23.98,23c0,0.78-0.64,1.42-1.42,1.42h-9.09c-0.78,0-1.42-0.64-1.42-1.42V6.09c0-0.78,0.64-1.42,1.42-1.42
			h9.09c0.78,0,1.42,0.64,1.42,1.42V23z"/>
		<path class="st207" d="M23.96,22.98c0,0.78-0.64,1.42-1.42,1.42h-9.09c-0.78,0-1.42-0.64-1.42-1.42V6.07
			c0-0.78,0.64-1.42,1.42-1.42h9.09c0.78,0,1.42,0.64,1.42,1.42V22.98z"/>
		<path class="st208" d="M23.93,22.97c0,0.78-0.64,1.42-1.42,1.42h-9.09c-0.78,0-1.42-0.64-1.42-1.42V6.06
			c0-0.78,0.64-1.42,1.42-1.42h9.09c0.78,0,1.42,0.64,1.42,1.42V22.97z"/>
		<path class="st209" d="M23.91,22.95c0,0.78-0.64,1.42-1.42,1.42H13.4c-0.78,0-1.42-0.64-1.42-1.42V6.04
			c0-0.78,0.64-1.42,1.42-1.42h9.09c0.78,0,1.42,0.64,1.42,1.42V22.95z"/>
		<path class="st210" d="M23.89,22.94c0,0.78-0.64,1.42-1.42,1.42h-9.09c-0.78,0-1.42-0.64-1.42-1.42V6.03
			c0-0.78,0.64-1.42,1.42-1.42h9.09c0.78,0,1.42,0.64,1.42,1.42V22.94z"/>
		<path class="st211" d="M23.86,22.93c0,0.78-0.64,1.42-1.42,1.42h-9.09c-0.78,0-1.42-0.64-1.42-1.42V6.02
			c0-0.78,0.64-1.42,1.42-1.42h9.09c0.78,0,1.42,0.64,1.42,1.42V22.93z"/>
		<path class="st211" d="M23.84,22.91c0,0.78-0.64,1.42-1.42,1.42h-9.09c-0.78,0-1.42-0.64-1.42-1.42V6c0-0.78,0.64-1.42,1.42-1.42
			h9.09c0.78,0,1.42,0.64,1.42,1.42V22.91z"/>
		<path class="st212" d="M23.82,22.9c0,0.78-0.64,1.42-1.42,1.42h-9.09c-0.78,0-1.42-0.64-1.42-1.42V5.99
			c0-0.78,0.64-1.42,1.42-1.42h9.09c0.78,0,1.42,0.64,1.42,1.42V22.9z"/>
		<path class="st213" d="M23.79,22.88c0,0.78-0.64,1.42-1.42,1.42h-9.09c-0.78,0-1.42-0.64-1.42-1.42V5.97
			c0-0.78,0.64-1.42,1.42-1.42h9.09c0.78,0,1.42,0.64,1.42,1.42V22.88z"/>
		<path class="st214" d="M23.77,22.87c0,0.78-0.64,1.42-1.42,1.42h-9.09c-0.78,0-1.42-0.64-1.42-1.42V5.96
			c0-0.78,0.64-1.42,1.42-1.42h9.09c0.78,0,1.42,0.64,1.42,1.42V22.87z"/>
		<path class="st215" d="M23.75,22.86c0,0.78-0.64,1.42-1.42,1.42h-9.09c-0.78,0-1.42-0.64-1.42-1.42V5.95
			c0-0.78,0.64-1.42,1.42-1.42h9.09c0.78,0,1.42,0.64,1.42,1.42V22.86z"/>
		<path class="st216" d="M23.72,22.84c0,0.78-0.64,1.42-1.42,1.42h-9.09c-0.78,0-1.42-0.64-1.42-1.42V5.93
			c0-0.78,0.64-1.42,1.42-1.42h9.09c0.78,0,1.42,0.64,1.42,1.42V22.84z"/>
		<path class="st217" d="M23.7,22.83c0,0.78-0.64,1.42-1.42,1.42h-9.09c-0.78,0-1.42-0.64-1.42-1.42V5.92
			c0-0.78,0.64-1.42,1.42-1.42h9.09c0.78,0,1.42,0.64,1.42,1.42V22.83z"/>
		<path class="st218" d="M23.68,22.81c0,0.78-0.64,1.42-1.42,1.42h-9.09c-0.78,0-1.42-0.64-1.42-1.42V5.9
			c0-0.78,0.64-1.42,1.42-1.42h9.09c0.78,0,1.42,0.64,1.42,1.42V22.81z"/>
		<path class="st219" d="M23.65,22.8c0,0.78-0.64,1.42-1.42,1.42h-9.09c-0.78,0-1.42-0.64-1.42-1.42V5.89
			c0-0.78,0.64-1.42,1.42-1.42h9.09c0.78,0,1.42,0.64,1.42,1.42V22.8z"/>
		<path class="st219" d="M23.63,22.79c0,0.78-0.64,1.42-1.42,1.42h-9.09c-0.78,0-1.42-0.64-1.42-1.42V5.88
			c0-0.78,0.64-1.42,1.42-1.42h9.09c0.78,0,1.42,0.64,1.42,1.42V22.79z"/>
		<path class="st220" d="M23.6,22.77c0,0.78-0.64,1.42-1.42,1.42H13.1c-0.78,0-1.42-0.64-1.42-1.42V5.86c0-0.78,0.64-1.42,1.42-1.42
			h9.09c0.78,0,1.42,0.64,1.42,1.42V22.77z"/>
		<path class="st221" d="M23.58,22.76c0,0.78-0.64,1.42-1.42,1.42h-9.09c-0.78,0-1.42-0.64-1.42-1.42V5.85
			c0-0.78,0.64-1.42,1.42-1.42h9.09c0.78,0,1.42,0.64,1.42,1.42V22.76z"/>
		<path class="st222" d="M23.56,22.74c0,0.78-0.64,1.42-1.42,1.42h-9.09c-0.78,0-1.42-0.64-1.42-1.42V5.83
			c0-0.78,0.64-1.42,1.42-1.42h9.09c0.78,0,1.42,0.64,1.42,1.42V22.74z"/>
		<path class="st223" d="M23.53,22.73c0,0.78-0.64,1.42-1.42,1.42h-9.09c-0.78,0-1.42-0.64-1.42-1.42V5.82
			c0-0.78,0.64-1.42,1.42-1.42h9.09c0.78,0,1.42,0.64,1.42,1.42V22.73z"/>
		<path class="st224" d="M23.51,22.71c0,0.78-0.64,1.42-1.42,1.42H13c-0.78,0-1.42-0.64-1.42-1.42V5.8c0-0.78,0.64-1.42,1.42-1.42
			h9.09c0.78,0,1.42,0.64,1.42,1.42V22.71z"/>
		<path class="st225" d="M23.49,22.7c0,0.78-0.64,1.42-1.42,1.42h-9.09c-0.78,0-1.42-0.64-1.42-1.42V5.79
			c0-0.78,0.64-1.42,1.42-1.42h9.09c0.78,0,1.42,0.64,1.42,1.42V22.7z"/>
		<path class="st226" d="M23.46,22.69c0,0.78-0.64,1.42-1.42,1.42h-9.09c-0.78,0-1.42-0.64-1.42-1.42V5.78
			c0-0.78,0.64-1.42,1.42-1.42h9.09c0.78,0,1.42,0.64,1.42,1.42V22.69z"/>
		<path class="st227" d="M23.44,22.67c0,0.78-0.64,1.42-1.42,1.42h-9.09c-0.78,0-1.42-0.64-1.42-1.42V5.76
			c0-0.78,0.64-1.42,1.42-1.42h9.09c0.78,0,1.42,0.64,1.42,1.42V22.67z"/>
		<path class="st228" d="M23.42,22.66c0,0.78-0.64,1.42-1.42,1.42h-9.09c-0.78,0-1.42-0.64-1.42-1.42V5.75
			c0-0.78,0.64-1.42,1.42-1.42H22c0.78,0,1.42,0.64,1.42,1.42V22.66z"/>
		<path class="st229" d="M23.39,22.64c0,0.78-0.64,1.42-1.42,1.42h-9.09c-0.78,0-1.42-0.64-1.42-1.42V5.73
			c0-0.78,0.64-1.42,1.42-1.42h9.09c0.78,0,1.42,0.64,1.42,1.42V22.64z"/>
		<path class="st230" d="M23.37,22.63c0,0.78-0.64,1.42-1.42,1.42h-9.09c-0.78,0-1.42-0.64-1.42-1.42V5.72
			c0-0.78,0.64-1.42,1.42-1.42h9.09c0.78,0,1.42,0.64,1.42,1.42V22.63z"/>
		<path class="st231" d="M23.35,22.62c0,0.78-0.64,1.42-1.42,1.42h-9.09c-0.78,0-1.42-0.64-1.42-1.42V5.71
			c0-0.78,0.64-1.42,1.42-1.42h9.09c0.78,0,1.42,0.64,1.42,1.42V22.62z"/>
		<path class="st232" d="M23.32,22.6c0,0.78-0.64,1.42-1.42,1.42h-9.09c-0.78,0-1.42-0.64-1.42-1.42V5.69
			c0-0.78,0.64-1.42,1.42-1.42h9.09c0.78,0,1.42,0.64,1.42,1.42V22.6z"/>
		<path class="st233" d="M23.3,22.59c0,0.78-0.64,1.42-1.42,1.42h-9.09c-0.78,0-1.42-0.64-1.42-1.42V5.68
			c0-0.78,0.64-1.42,1.42-1.42h9.09c0.78,0,1.42,0.64,1.42,1.42V22.59z"/>
		<path class="st234" d="M23.28,22.57c0,0.78-0.64,1.42-1.42,1.42h-9.09c-0.78,0-1.42-0.64-1.42-1.42V5.66
			c0-0.78,0.64-1.42,1.42-1.42h9.09c0.78,0,1.42,0.64,1.42,1.42V22.57z"/>
		<path class="st234" d="M23.25,22.56c0,0.78-0.64,1.42-1.42,1.42h-9.09c-0.78,0-1.42-0.64-1.42-1.42V5.65
			c0-0.78,0.64-1.42,1.42-1.42h9.09c0.78,0,1.42,0.64,1.42,1.42V22.56z"/>
		<path class="st235" d="M23.23,22.55c0,0.78-0.64,1.42-1.42,1.42h-9.09c-0.78,0-1.42-0.64-1.42-1.42V5.64
			c0-0.78,0.64-1.42,1.42-1.42h9.09c0.78,0,1.42,0.64,1.42,1.42V22.55z"/>
		<path class="st235" d="M23.2,22.53c0,0.78-0.64,1.42-1.42,1.42H12.7c-0.78,0-1.42-0.64-1.42-1.42V5.62c0-0.78,0.64-1.42,1.42-1.42
			h9.09c0.78,0,1.42,0.64,1.42,1.42V22.53z"/>
		<path class="st236" d="M23.18,22.52c0,0.78-0.64,1.42-1.42,1.42h-9.09c-0.78,0-1.42-0.64-1.42-1.42V5.61
			c0-0.78,0.64-1.42,1.42-1.42h9.09c0.78,0,1.42,0.64,1.42,1.42V22.52z"/>
		<path class="st236" d="M23.16,22.5c0,0.78-0.64,1.42-1.42,1.42h-9.09c-0.78,0-1.42-0.64-1.42-1.42V5.59
			c0-0.78,0.64-1.42,1.42-1.42h9.09c0.78,0,1.42,0.64,1.42,1.42V22.5z"/>
		<path class="st237" d="M23.13,22.49c0,0.78-0.64,1.42-1.42,1.42h-9.09c-0.78,0-1.42-0.64-1.42-1.42V5.58
			c0-0.78,0.64-1.42,1.42-1.42h9.09c0.78,0,1.42,0.64,1.42,1.42V22.49z"/>
		<path class="st238" d="M23.11,22.47c0,0.78-0.64,1.42-1.42,1.42H12.6c-0.78,0-1.42-0.64-1.42-1.42V5.56
			c0-0.78,0.64-1.42,1.42-1.42h9.09c0.78,0,1.42,0.64,1.42,1.42V22.47z"/>
		<path class="st239" d="M23.09,22.46c0,0.78-0.64,1.42-1.42,1.42h-9.09c-0.78,0-1.42-0.64-1.42-1.42V5.55
			c0-0.78,0.64-1.42,1.42-1.42h9.09c0.78,0,1.42,0.64,1.42,1.42V22.46z"/>
		<path class="st240" d="M23.06,22.45c0,0.78-0.64,1.42-1.42,1.42h-9.09c-0.78,0-1.42-0.64-1.42-1.42V5.54
			c0-0.78,0.64-1.42,1.42-1.42h9.09c0.78,0,1.42,0.64,1.42,1.42V22.45z"/>
		<path class="st241" d="M23.04,22.43c0,0.78-0.64,1.42-1.42,1.42h-9.09c-0.78,0-1.42-0.64-1.42-1.42V5.52
			c0-0.78,0.64-1.42,1.42-1.42h9.09c0.78,0,1.42,0.64,1.42,1.42V22.43z"/>
		<path class="st242" d="M23.02,22.42c0,0.78-0.64,1.42-1.42,1.42h-9.09c-0.78,0-1.42-0.64-1.42-1.42V5.51
			c0-0.78,0.64-1.42,1.42-1.42h9.09c0.78,0,1.42,0.64,1.42,1.42V22.42z"/>
		<path class="st243" d="M22.99,22.4c0,0.78-0.64,1.42-1.42,1.42h-9.09c-0.78,0-1.42-0.64-1.42-1.42V5.49
			c0-0.78,0.64-1.42,1.42-1.42h9.09c0.78,0,1.42,0.64,1.42,1.42V22.4z"/>
		<path class="st244" d="M22.97,22.39c0,0.78-0.64,1.42-1.42,1.42h-9.09c-0.78,0-1.42-0.64-1.42-1.42V5.48
			c0-0.78,0.64-1.42,1.42-1.42h9.09c0.78,0,1.42,0.64,1.42,1.42V22.39z"/>
		<path class="st245" d="M22.95,22.38c0,0.78-0.64,1.42-1.42,1.42h-9.09c-0.78,0-1.42-0.64-1.42-1.42V5.47
			c0-0.78,0.64-1.42,1.42-1.42h9.09c0.78,0,1.42,0.64,1.42,1.42V22.38z"/>
		<path class="st246" d="M22.92,22.36c0,0.78-0.64,1.42-1.42,1.42h-9.09c-0.78,0-1.42-0.64-1.42-1.42V5.45
			c0-0.78,0.64-1.42,1.42-1.42h9.09c0.78,0,1.42,0.64,1.42,1.42V22.36z"/>
		<path class="st247" d="M22.9,22.35c0,0.78-0.64,1.42-1.42,1.42h-9.09c-0.78,0-1.42-0.64-1.42-1.42V5.44
			c0-0.78,0.64-1.42,1.42-1.42h9.09c0.78,0,1.42,0.64,1.42,1.42V22.35z"/>
		<path class="st248" d="M22.88,22.33c0,0.78-0.64,1.42-1.42,1.42h-9.09c-0.78,0-1.42-0.64-1.42-1.42V5.42
			c0-0.78,0.64-1.42,1.42-1.42h9.09c0.78,0,1.42,0.64,1.42,1.42V22.33z"/>
		<path class="st249" d="M22.85,22.32c0,0.78-0.64,1.42-1.42,1.42h-9.09c-0.78,0-1.42-0.64-1.42-1.42V5.41
			c0-0.78,0.64-1.42,1.42-1.42h9.09c0.78,0,1.42,0.64,1.42,1.42V22.32z"/>
		<path class="st250" d="M22.83,22.31c0,0.78-0.64,1.42-1.42,1.42h-9.09c-0.78,0-1.42-0.64-1.42-1.42V5.4
			c0-0.78,0.64-1.42,1.42-1.42h9.09c0.78,0,1.42,0.64,1.42,1.42V22.31z"/>
		<path class="st251" d="M22.8,22.29c0,0.78-0.64,1.42-1.42,1.42H12.3c-0.78,0-1.42-0.64-1.42-1.42V5.38c0-0.78,0.64-1.42,1.42-1.42
			h9.09c0.78,0,1.42,0.64,1.42,1.42V22.29z"/>
		<path class="st252" d="M22.78,22.28c0,0.78-0.64,1.42-1.42,1.42h-9.09c-0.78,0-1.42-0.64-1.42-1.42V5.37
			c0-0.78,0.64-1.42,1.42-1.42h9.09c0.78,0,1.42,0.64,1.42,1.42V22.28z"/>
		<path class="st253" d="M22.76,22.26c0,0.78-0.64,1.42-1.42,1.42h-9.09c-0.78,0-1.42-0.64-1.42-1.42V5.35
			c0-0.78,0.64-1.42,1.42-1.42h9.09c0.78,0,1.42,0.64,1.42,1.42V22.26z"/>
		<path class="st254" d="M22.73,22.25c0,0.78-0.64,1.42-1.42,1.42h-9.09c-0.78,0-1.42-0.64-1.42-1.42V5.34
			c0-0.78,0.64-1.42,1.42-1.42h9.09c0.78,0,1.42,0.64,1.42,1.42V22.25z"/>
		<path class="st255" d="M22.71,22.23c0,0.78-0.64,1.42-1.42,1.42H12.2c-0.78,0-1.42-0.64-1.42-1.42V5.32
			c0-0.78,0.64-1.42,1.42-1.42h9.09c0.78,0,1.42,0.64,1.42,1.42V22.23z"/>
		<path class="st256" d="M22.69,22.22c0,0.78-0.64,1.42-1.42,1.42h-9.09c-0.78,0-1.42-0.64-1.42-1.42V5.31
			c0-0.78,0.64-1.42,1.42-1.42h9.09c0.78,0,1.42,0.64,1.42,1.42V22.22z"/>
		<path class="st256" d="M22.66,22.21c0,0.78-0.64,1.42-1.42,1.42h-9.09c-0.78,0-1.42-0.64-1.42-1.42V5.3
			c0-0.78,0.64-1.42,1.42-1.42h9.09c0.78,0,1.42,0.64,1.42,1.42V22.21z"/>
		<path class="st257" d="M22.64,22.19c0,0.78-0.64,1.42-1.42,1.42h-9.09c-0.78,0-1.42-0.64-1.42-1.42V5.28
			c0-0.78,0.64-1.42,1.42-1.42h9.09c0.78,0,1.42,0.64,1.42,1.42V22.19z"/>
		<path class="st257" d="M22.62,22.18c0,0.78-0.64,1.42-1.42,1.42h-9.09c-0.78,0-1.42-0.64-1.42-1.42V5.27
			c0-0.78,0.64-1.42,1.42-1.42h9.09c0.78,0,1.42,0.64,1.42,1.42V22.18z"/>
		<path class="st258" d="M22.59,22.16c0,0.78-0.64,1.42-1.42,1.42h-9.09c-0.78,0-1.42-0.64-1.42-1.42V5.25
			c0-0.78,0.64-1.42,1.42-1.42h9.09c0.78,0,1.42,0.64,1.42,1.42V22.16z"/>
		<path class="st259" d="M22.57,22.15c0,0.78-0.64,1.42-1.42,1.42h-9.09c-0.78,0-1.42-0.64-1.42-1.42V5.24
			c0-0.78,0.64-1.42,1.42-1.42h9.09c0.78,0,1.42,0.64,1.42,1.42V22.15z"/>
		<path class="st260" d="M22.55,22.14c0,0.78-0.64,1.42-1.42,1.42h-9.09c-0.78,0-1.42-0.64-1.42-1.42V5.23
			c0-0.78,0.64-1.42,1.42-1.42h9.09c0.78,0,1.42,0.64,1.42,1.42V22.14z"/>
		<path class="st261" d="M22.52,22.12c0,0.78-0.64,1.42-1.42,1.42h-9.09c-0.78,0-1.42-0.64-1.42-1.42V5.21
			c0-0.78,0.64-1.42,1.42-1.42h9.09c0.78,0,1.42,0.64,1.42,1.42V22.12z"/>
		<path class="st262" d="M22.5,22.11c0,0.78-0.64,1.42-1.42,1.42h-9.09c-0.78,0-1.42-0.64-1.42-1.42V5.2c0-0.78,0.64-1.42,1.42-1.42
			h9.09c0.78,0,1.42,0.64,1.42,1.42V22.11z"/>
		<path class="st263" d="M22.48,22.09c0,0.78-0.64,1.42-1.42,1.42h-9.09c-0.78,0-1.42-0.64-1.42-1.42V5.18
			c0-0.78,0.64-1.42,1.42-1.42h9.09c0.78,0,1.42,0.64,1.42,1.42V22.09z"/>
		<path class="st264" d="M22.45,22.08c0,0.78-0.64,1.42-1.42,1.42h-9.09c-0.78,0-1.42-0.64-1.42-1.42V5.17
			c0-0.78,0.64-1.42,1.42-1.42h9.09c0.78,0,1.42,0.64,1.42,1.42V22.08z"/>
		<path class="st264" d="M22.43,22.07c0,0.78-0.64,1.42-1.42,1.42h-9.09c-0.78,0-1.42-0.64-1.42-1.42V5.16
			c0-0.78,0.64-1.42,1.42-1.42h9.09c0.78,0,1.42,0.64,1.42,1.42V22.07z"/>
		<path class="st265" d="M22.4,22.05c0,0.78-0.64,1.42-1.42,1.42H11.9c-0.78,0-1.42-0.64-1.42-1.42V5.14c0-0.78,0.64-1.42,1.42-1.42
			h9.09c0.78,0,1.42,0.64,1.42,1.42V22.05z"/>
		<path class="st265" d="M22.38,22.04c0,0.78-0.64,1.42-1.42,1.42h-9.09c-0.78,0-1.42-0.64-1.42-1.42V5.13
			c0-0.78,0.64-1.42,1.42-1.42h9.09c0.78,0,1.42,0.64,1.42,1.42V22.04z"/>
		<path class="st266" d="M22.36,22.02c0,0.78-0.64,1.42-1.42,1.42h-9.09c-0.78,0-1.42-0.64-1.42-1.42V5.11
			c0-0.78,0.64-1.42,1.42-1.42h9.09c0.78,0,1.42,0.64,1.42,1.42V22.02z"/>
		<path class="st267" d="M22.33,22.01c0,0.78-0.64,1.42-1.42,1.42h-9.09c-0.78,0-1.42-0.64-1.42-1.42V5.1
			c0-0.78,0.64-1.42,1.42-1.42h9.09c0.78,0,1.42,0.64,1.42,1.42V22.01z"/>
		<path class="st268" d="M22.31,21.99c0,0.78-0.64,1.42-1.42,1.42H11.8c-0.78,0-1.42-0.64-1.42-1.42V5.08
			c0-0.78,0.64-1.42,1.42-1.42h9.09c0.78,0,1.42,0.64,1.42,1.42V21.99z"/>
		<path class="st269" d="M22.29,21.98c0,0.78-0.64,1.42-1.42,1.42h-9.09c-0.78,0-1.42-0.64-1.42-1.42V5.07
			c0-0.78,0.64-1.42,1.42-1.42h9.09c0.78,0,1.42,0.64,1.42,1.42V21.98z"/>
		<path class="st270" d="M22.26,21.97c0,0.78-0.64,1.42-1.42,1.42h-9.09c-0.78,0-1.42-0.64-1.42-1.42V5.06
			c0-0.78,0.64-1.42,1.42-1.42h9.09c0.78,0,1.42,0.64,1.42,1.42V21.97z"/>
		<path class="st271" d="M22.24,21.95c0,0.78-0.64,1.42-1.42,1.42h-9.09c-0.78,0-1.42-0.64-1.42-1.42V5.04
			c0-0.78,0.64-1.42,1.42-1.42h9.09c0.78,0,1.42,0.64,1.42,1.42V21.95z"/>
		<path class="st272" d="M22.22,21.94c0,0.78-0.64,1.42-1.42,1.42h-9.09c-0.78,0-1.42-0.64-1.42-1.42V5.03
			c0-0.78,0.64-1.42,1.42-1.42h9.09c0.78,0,1.42,0.64,1.42,1.42V21.94z"/>
		<path class="st273" d="M22.19,21.92c0,0.78-0.64,1.42-1.42,1.42h-9.09c-0.78,0-1.42-0.64-1.42-1.42V5.01
			c0-0.78,0.64-1.42,1.42-1.42h9.09c0.78,0,1.42,0.64,1.42,1.42V21.92z"/>
		<path class="st274" d="M22.17,21.91c0,0.78-0.64,1.42-1.42,1.42h-9.09c-0.78,0-1.42-0.64-1.42-1.42V5c0-0.78,0.64-1.42,1.42-1.42
			h9.09c0.78,0,1.42,0.64,1.42,1.42V21.91z"/>
		<path class="st274" d="M22.15,21.9c0,0.78-0.64,1.42-1.42,1.42h-9.09c-0.78,0-1.42-0.64-1.42-1.42V4.99
			c0-0.78,0.64-1.42,1.42-1.42h9.09c0.78,0,1.42,0.64,1.42,1.42V21.9z"/>
		<path class="st275" d="M22.12,21.88c0,0.78-0.64,1.42-1.42,1.42h-9.09c-0.78,0-1.42-0.64-1.42-1.42V4.97
			c0-0.78,0.64-1.42,1.42-1.42h9.09c0.78,0,1.42,0.64,1.42,1.42V21.88z"/>
		<path class="st275" d="M22.1,21.87c0,0.78-0.64,1.42-1.42,1.42h-9.09c-0.78,0-1.42-0.64-1.42-1.42V4.96
			c0-0.78,0.64-1.42,1.42-1.42h9.09c0.78,0,1.42,0.64,1.42,1.42V21.87z"/>
		<path class="st276" d="M22.08,21.85c0,0.78-0.64,1.42-1.42,1.42h-9.09c-0.78,0-1.42-0.64-1.42-1.42V4.94
			c0-0.78,0.64-1.42,1.42-1.42h9.09c0.78,0,1.42,0.64,1.42,1.42V21.85z"/>
		<path class="st276" d="M22.05,21.84c0,0.78-0.64,1.42-1.42,1.42h-9.09c-0.78,0-1.42-0.64-1.42-1.42V4.93
			c0-0.78,0.64-1.42,1.42-1.42h9.09c0.78,0,1.42,0.64,1.42,1.42V21.84z"/>
		<path class="st277" d="M22.03,21.83c0,0.78-0.64,1.42-1.42,1.42h-9.09c-0.78,0-1.42-0.64-1.42-1.42V4.92
			c0-0.78,0.64-1.42,1.42-1.42h9.09c0.78,0,1.42,0.64,1.42,1.42V21.83z"/>
		<path class="st278" d="M22,21.81c0,0.78-0.64,1.42-1.42,1.42H11.5c-0.78,0-1.42-0.64-1.42-1.42V4.9c0-0.78,0.64-1.42,1.42-1.42
			h9.09C21.37,3.48,22,4.12,22,4.9V21.81z"/>
		<path class="st279" d="M21.98,21.8c0,0.78-0.64,1.42-1.42,1.42h-9.09c-0.78,0-1.42-0.64-1.42-1.42V4.89
			c0-0.78,0.64-1.42,1.42-1.42h9.09c0.78,0,1.42,0.64,1.42,1.42V21.8z"/>
		<path class="st280" d="M21.96,21.78c0,0.78-0.64,1.42-1.42,1.42h-9.09c-0.78,0-1.42-0.64-1.42-1.42V4.87
			c0-0.78,0.64-1.42,1.42-1.42h9.09c0.78,0,1.42,0.64,1.42,1.42V21.78z"/>
		<path class="st281" d="M21.93,21.77c0,0.78-0.64,1.42-1.42,1.42h-9.09c-0.78,0-1.42-0.64-1.42-1.42V4.86
			c0-0.78,0.64-1.42,1.42-1.42h9.09c0.78,0,1.42,0.64,1.42,1.42V21.77z"/>
		<path class="st282" d="M21.91,21.75c0,0.78-0.64,1.42-1.42,1.42H11.4c-0.78,0-1.42-0.64-1.42-1.42V4.84
			c0-0.78,0.64-1.42,1.42-1.42h9.09c0.78,0,1.42,0.64,1.42,1.42V21.75z"/>
		<path class="st282" d="M21.89,21.74c0,0.78-0.64,1.42-1.42,1.42h-9.09c-0.78,0-1.42-0.64-1.42-1.42V4.83
			c0-0.78,0.64-1.42,1.42-1.42h9.09c0.78,0,1.42,0.64,1.42,1.42V21.74z"/>
		<path class="st283" d="M21.86,21.73c0,0.78-0.64,1.42-1.42,1.42h-9.09c-0.78,0-1.42-0.64-1.42-1.42V4.82
			c0-0.78,0.64-1.42,1.42-1.42h9.09c0.78,0,1.42,0.64,1.42,1.42V21.73z"/>
		<path class="st284" d="M21.84,21.71c0,0.78-0.64,1.42-1.42,1.42h-9.09c-0.78,0-1.42-0.64-1.42-1.42V4.8
			c0-0.78,0.64-1.42,1.42-1.42h9.09c0.78,0,1.42,0.64,1.42,1.42V21.71z"/>
		<path class="st285" d="M21.82,21.7c0,0.78-0.64,1.42-1.42,1.42h-9.09c-0.78,0-1.42-0.64-1.42-1.42V4.79
			c0-0.78,0.64-1.42,1.42-1.42h9.09c0.78,0,1.42,0.64,1.42,1.42V21.7z"/>
		<path class="st286" d="M21.79,21.68c0,0.78-0.64,1.42-1.42,1.42h-9.09c-0.78,0-1.42-0.64-1.42-1.42V4.77
			c0-0.78,0.64-1.42,1.42-1.42h9.09c0.78,0,1.42,0.64,1.42,1.42V21.68z"/>
		<path class="st287" d="M21.77,21.67c0,0.78-0.64,1.42-1.42,1.42h-9.09c-0.78,0-1.42-0.64-1.42-1.42V4.76
			c0-0.78,0.64-1.42,1.42-1.42h9.09c0.78,0,1.42,0.64,1.42,1.42V21.67z"/>
		<path class="st288" d="M21.75,21.66c0,0.78-0.64,1.42-1.42,1.42h-9.09c-0.78,0-1.42-0.64-1.42-1.42V4.75
			c0-0.78,0.64-1.42,1.42-1.42h9.09c0.78,0,1.42,0.64,1.42,1.42V21.66z"/>
	</g>
	<g>
		<path class="st289" d="M21.75,21.66c0,0.78-0.64,1.42-1.42,1.42h-9.09c-0.78,0-1.42-0.64-1.42-1.42V4.75
			c0-0.78,0.64-1.42,1.42-1.42h9.09c0.78,0,1.42,0.64,1.42,1.42V21.66z"/>
		<g>
			<linearGradient id="SVGID_1_" gradientUnits="userSpaceOnUse" x1="9.5022" y1="6.7197" x2="22.1688" y2="19.3863">
				<stop  offset="0" style="stop-color:#FFFFFF"/>
				<stop  offset="0.401" style="stop-color:#FCFCFC"/>
				<stop  offset="0.6566" style="stop-color:#F4F4F4"/>
				<stop  offset="0.871" style="stop-color:#E6E6E5"/>
				<stop  offset="1" style="stop-color:#D9DAD8"/>
			</linearGradient>
			<path class="st290" d="M21.14,20.21c0,0.27-0.23,0.5-0.5,0.5h-9.6c-0.28,0-0.5-0.23-0.5-0.5V5.89c0-0.27,0.22-0.5,0.5-0.5h9.6
				c0.27,0,0.5,0.23,0.5,0.5V20.21z"/>
		</g>
		<path class="st291" d="M17.81,4.61h-3.94c-0.18,0-0.33-0.15-0.33-0.33l0,0c0-0.18,0.15-0.33,0.33-0.33h3.94
			c0.18,0,0.33,0.15,0.33,0.33l0,0C18.14,4.46,17.99,4.61,17.81,4.61z"/>
		<path class="st291" d="M16.47,21.81c0,0.38-0.31,0.69-0.69,0.69c-0.38,0-0.69-0.31-0.69-0.69c0-0.38,0.31-0.69,0.69-0.69
			C16.16,21.12,16.47,21.43,16.47,21.81z"/>
	</g>
</g>
</svg>
