<?xml version="1.0" encoding="utf-8"?>
<!-- Generator: Adobe Illustrator 23.0.1, SVG Export Plug-In . SVG Version: 6.00 Build 0)  -->
<svg version="1.1" id="レイヤー_1" xmlns="http://www.w3.org/2000/svg" xmlns:xlink="http://www.w3.org/1999/xlink" x="0px"
	 y="0px" viewBox="0 0 478 78" style="enable-background:new 0 0 478 78;" xml:space="preserve">
<style type="text/css">
	.st0{fill:none;stroke:#000000;stroke-miterlimit:10;}
</style>
<g>
	<g>
		<g>
			<path d="M124.36,34.39c1.06,1.4,1.6,3.25,1.6,5.55v2.25h-1.9v-2.38c0-1.73-0.37-3.11-1.1-4.15c-0.73-1.04-1.89-1.55-3.48-1.55
				c-1.58,0-2.74,0.52-3.48,1.55c-0.73,1.04-1.1,2.42-1.1,4.15v15.72c0,1.73,0.37,3.1,1.1,4.13s1.89,1.53,3.48,1.53
				c1.58,0,2.74-0.51,3.48-1.53s1.1-2.4,1.1-4.13v-6.52h-4.02V47.2h5.92v8.21c0,2.3-0.53,4.15-1.6,5.55
				c-1.07,1.4-2.71,2.09-4.92,2.09c-2.22,0-3.86-0.7-4.92-2.09c-1.07-1.4-1.6-3.25-1.6-5.55V39.94c0-2.3,0.53-4.15,1.6-5.55
				c1.06-1.4,2.71-2.09,4.92-2.09C121.66,32.3,123.3,32.99,124.36,34.39z"/>
			<path d="M142.08,39.38v2.63c0,1.79-0.35,3.19-1.06,4.21c-0.71,1.02-1.81,1.71-3.3,2.05c2.91,0.63,4.36,2.69,4.36,6.18v4.71
				c0,1.67,0.24,2.88,0.73,3.63h-2.07c-0.26-0.43-0.43-0.93-0.52-1.49c-0.09-0.56-0.13-1.27-0.13-2.14v-4.75c0-1.9-0.48-3.23-1.43-4
				c-0.95-0.76-2.36-1.14-4.23-1.14h-3.15V62.8h-1.99V32.56h6.31C139.92,32.56,142.08,34.83,142.08,39.38z M138.71,46.38
				c0.92-0.72,1.38-2.04,1.38-3.97v-2.85c0-1.7-0.36-2.99-1.08-3.87c-0.72-0.88-1.87-1.32-3.46-1.32h-4.28v13.09h3.2
				C136.37,47.46,137.78,47.1,138.71,46.38z"/>
			<path d="M147.35,62.8h-1.81l6.61-30.28h2.89l6.74,30.28h-1.99l-1.51-6.7h-9.42L147.35,62.8z M157.97,54.37l-4.45-19.57
				l-4.36,19.57H157.97z"/>
			<path d="M175.99,34.5c1.04,1.3,1.55,3.1,1.55,5.4v3.28c0,2.42-0.57,4.22-1.71,5.4c-1.14,1.18-2.9,1.77-5.29,1.77h-3.76V62.8
				h-1.99V32.56h6.26C173.31,32.56,174.95,33.2,175.99,34.5z M174.37,47.31c0.79-0.82,1.19-2.15,1.19-4v-3.54
				c0-1.76-0.34-3.1-1.04-4.02s-1.84-1.38-3.46-1.38h-4.28v14.17h3.76C172.3,48.54,173.57,48.13,174.37,47.31z"/>
			<path d="M182.51,62.8h-1.99V32.56h1.99v14.21h9.42V32.56h2.03V62.8h-2.03V48.58h-9.42V62.8z"/>
			<path d="M199.4,62.8h-1.99V32.56h1.99V62.8z"/>
			<path d="M214.17,34.39c1.06,1.4,1.6,3.25,1.6,5.55v2.5h-1.9v-2.63c0-1.73-0.37-3.11-1.1-4.15c-0.73-1.04-1.89-1.55-3.48-1.55
				c-1.58,0-2.74,0.52-3.48,1.55c-0.73,1.04-1.1,2.42-1.1,4.15v15.72c0,1.73,0.37,3.1,1.1,4.13s1.89,1.53,3.48,1.53
				c1.58,0,2.74-0.51,3.48-1.53s1.1-2.4,1.1-4.13v-3.58h1.9v3.46c0,2.3-0.53,4.15-1.6,5.55c-1.07,1.4-2.71,2.09-4.92,2.09
				c-2.22,0-3.86-0.7-4.92-2.09c-1.07-1.4-1.6-3.25-1.6-5.55V39.94c0-2.3,0.53-4.15,1.6-5.55c1.06-1.4,2.71-2.09,4.92-2.09
				C211.47,32.3,213.11,32.99,214.17,34.39z"/>
			<path d="M237.39,34.56c1.11,1.34,1.66,3.18,1.66,5.51v15.21c0,2.33-0.56,4.17-1.66,5.51c-1.11,1.34-2.79,2.01-5.03,2.01h-6.65
				V32.56h6.65C234.61,32.56,236.28,33.23,237.39,34.56z M235.9,59.49c0.78-0.99,1.17-2.37,1.17-4.13V39.99
				c0-1.73-0.39-3.1-1.17-4.1c-0.78-1.01-1.97-1.51-3.58-1.51h-4.62v26.61h4.62C233.93,60.98,235.13,60.48,235.9,59.49z"/>
			<path d="M252.58,48.37h-8.25v12.61h9.94v1.81h-11.92V32.56h11.92v1.81h-9.94v12.18h8.25V48.37z"/>
			<path d="M268.67,34.35c1.05,1.37,1.58,3.2,1.58,5.51v0.65h-1.9v-0.78c0-1.73-0.36-3.1-1.08-4.1c-0.72-1.01-1.86-1.51-3.41-1.51
				c-1.55,0-2.69,0.5-3.41,1.51c-0.72,1.01-1.08,2.36-1.08,4.06c0,1.09,0.23,2.07,0.69,2.92c0.46,0.85,1.03,1.58,1.71,2.2
				c0.68,0.62,1.6,1.36,2.79,2.23c1.24,0.89,2.25,1.68,3.02,2.38c0.78,0.69,1.42,1.54,1.94,2.55s0.78,2.19,0.78,3.54
				c0,2.3-0.53,4.14-1.6,5.51c-1.07,1.37-2.71,2.05-4.92,2.05c-2.22,0-3.86-0.68-4.92-2.05c-1.07-1.37-1.6-3.2-1.6-5.51v-1.56h1.9
				v1.69c0,1.73,0.37,3.09,1.1,4.08c0.73,0.99,1.89,1.49,3.48,1.49c1.58,0,2.74-0.5,3.48-1.49c0.73-0.99,1.1-2.35,1.1-4.08
				c0-1.09-0.23-2.06-0.69-2.89c-0.46-0.83-1.03-1.56-1.71-2.18c-0.68-0.62-1.59-1.35-2.74-2.18c-1.24-0.89-2.25-1.69-3.02-2.4
				s-1.43-1.57-1.97-2.59c-0.53-1.02-0.8-2.21-0.8-3.56c0-2.33,0.53-4.16,1.6-5.49c1.06-1.32,2.68-2,4.84-2.03
				C266,32.3,267.62,32.98,268.67,34.35z"/>
			<path d="M275.47,62.8h-1.99V32.56h1.99V62.8z"/>
			<path d="M290.25,34.39c1.06,1.4,1.6,3.25,1.6,5.55v2.25h-1.9v-2.38c0-1.73-0.37-3.11-1.1-4.15c-0.73-1.04-1.89-1.55-3.48-1.55
				c-1.58,0-2.74,0.52-3.48,1.55c-0.73,1.04-1.1,2.42-1.1,4.15v15.72c0,1.73,0.37,3.1,1.1,4.13s1.89,1.53,3.48,1.53
				c1.58,0,2.74-0.51,3.48-1.53s1.1-2.4,1.1-4.13v-6.52h-4.02V47.2h5.92v8.21c0,2.3-0.53,4.15-1.6,5.55
				c-1.07,1.4-2.71,2.09-4.92,2.09c-2.22,0-3.86-0.7-4.92-2.09c-1.07-1.4-1.6-3.25-1.6-5.55V39.94c0-2.3,0.53-4.15,1.6-5.55
				c1.06-1.4,2.71-2.09,4.92-2.09C287.54,32.3,289.18,32.99,290.25,34.39z"/>
			<path d="M295.17,62.8V32.56h2.59l9.07,25.53V32.56h1.81V62.8h-2.2l-9.46-26.96V62.8H295.17z"/>
		</g>
	</g>
	<g>
		<g>
			<path d="M334.19,63.21l-1.63,0.04c-0.09,0.01-0.18,0.02-0.29,0.02s-0.22,0.01-0.34,0.01c-0.11,0-0.21,0-0.31-0.01
				c-0.1-0.01-0.18-0.03-0.24-0.06c-0.06-0.01-0.1-0.06-0.14-0.14c-0.03-0.08-0.04-0.18-0.01-0.3l0.1-0.49
				c0.18,0.05,0.42,0.08,0.71,0.11c0.29,0.02,0.58,0.05,0.86,0.07s0.55,0.03,0.79,0.04s0.4,0.01,0.49,0.01
				c0.6,0.01,1.18,0.01,1.73,0.01c0.55,0,1.07-0.02,1.57-0.04c0.49-0.01,0.95-0.02,1.39-0.04c0.44-0.01,0.85-0.03,1.23-0.04
				c0.14,0,0.32-0.01,0.54-0.02c0.22-0.01,0.43-0.03,0.66-0.04c0.21-0.02,0.4-0.03,0.58-0.04s0.29-0.02,0.35-0.03
				c0.3-0.03,0.54-0.04,0.73-0.04c0.19,0,0.32,0.03,0.41,0.1l0.48,0.43c0.07,0.07,0.11,0.13,0.12,0.18s0,0.1-0.01,0.14
				c-0.03,0.06-0.07,0.11-0.12,0.17s-0.1,0.07-0.16,0.05l-0.91-0.14c-0.18-0.02-0.4-0.03-0.66-0.04c-0.25-0.01-0.52-0.01-0.8-0.01
				c-0.27,0-0.54,0-0.8,0c-0.26,0-0.49,0-0.67,0L334.19,63.21z M341.43,54.79c-0.04,0.34-0.1,0.77-0.17,1.3
				c-0.08,0.53-0.17,1.08-0.29,1.66s-0.25,1.13-0.39,1.67c-0.14,0.54-0.3,0.98-0.48,1.34c-0.05,0.1-0.11,0.16-0.19,0.19
				c-0.08,0.03-0.15,0.03-0.22,0.01c-0.07-0.02-0.12-0.06-0.17-0.12c-0.04-0.06-0.05-0.13-0.02-0.22c0.12-0.44,0.24-0.91,0.35-1.42
				s0.21-1.01,0.29-1.52c0.08-0.51,0.15-1.01,0.21-1.5c0.06-0.49,0.11-0.95,0.14-1.37l-1.44,0.01c-0.02,0-0.12,0-0.31,0.01
				c-0.19,0-0.42,0.01-0.7,0.02s-0.59,0.02-0.93,0.03s-0.67,0.01-0.99,0.01c-0.17,0.01-0.34,0.01-0.49,0.01c-0.15,0-0.31,0-0.46,0
				c-0.15,0-0.31,0-0.47-0.01c-0.16,0-0.32-0.01-0.5-0.01c-0.09,0-0.21,0-0.36-0.01s-0.29-0.03-0.4-0.06
				c-0.07-0.01-0.11-0.05-0.12-0.11s-0.02-0.14-0.01-0.24l0.12-0.55c0.16,0.06,0.36,0.1,0.59,0.13c0.23,0.03,0.47,0.05,0.72,0.07
				c0.24,0.01,0.47,0.02,0.7,0.02c0.22,0,0.41,0,0.55-0.01c0.19,0,0.45,0,0.78-0.01c0.33-0.01,0.65-0.01,0.98-0.01
				c0.33-0.01,0.61-0.02,0.86-0.03c0.24-0.01,0.38-0.01,0.41-0.01l1.76-0.09c0.08-0.02,0.18-0.02,0.32,0.01
				c0.13,0.02,0.24,0.09,0.3,0.19c0.02,0.03,0.03,0.06,0.04,0.09c0.01,0.03,0.01,0.06,0.01,0.09L341.43,54.79z"/>
			<path d="M346.29,61.07c0,0.05,0.02,0.08,0.05,0.11c0.03,0.02,0.06,0.04,0.09,0.04c0.75,0,1.47-0.08,2.15-0.25
				s1.27-0.38,1.75-0.64c0.04-0.02,0.09-0.03,0.17-0.02s0.16,0.04,0.25,0.09c0.13,0.1,0.19,0.19,0.17,0.27
				c-0.02,0.08-0.12,0.18-0.3,0.28c-0.65,0.37-1.32,0.65-2,0.81s-1.38,0.28-2.09,0.34c-0.07,0.01-0.14,0.02-0.23,0.02
				c-0.09,0-0.16,0.01-0.23,0.01c-0.13,0-0.28-0.08-0.44-0.23s-0.24-0.3-0.24-0.45v-2.32c0-0.1,0-0.18-0.01-0.25
				s-0.01-0.14-0.02-0.19c-0.02-0.06-0.05-0.11-0.09-0.16c-0.04-0.05-0.09-0.09-0.16-0.13c-0.1-0.04-0.17-0.1-0.23-0.18
				c-0.06-0.08-0.09-0.18-0.09-0.28v-0.29l0.81,0.07l3.02-0.06c0.11,0,0.18-0.03,0.23-0.08c0.05-0.05,0.07-0.15,0.07-0.28l0.03-1.71
				c0-0.12-0.01-0.2-0.04-0.23c-0.03-0.03-0.11-0.04-0.25-0.04l-2.16,0.07c-0.12,0-0.23,0-0.35,0.01s-0.23,0.01-0.34,0.01
				c-0.09,0.01-0.23,0.01-0.42,0.01c-0.19,0-0.34-0.03-0.45-0.1c-0.06-0.03-0.09-0.07-0.11-0.12s-0.02-0.12-0.01-0.19l0.07-0.56
				c0.37,0.08,0.84,0.12,1.42,0.14c0.58,0.01,1.15,0.01,1.71-0.01l1.37-0.07c0.08,0,0.15,0,0.23,0.01c0.08,0.01,0.14,0.03,0.19,0.07
				c0.04,0.05,0.06,0.1,0.08,0.15c0.01,0.05,0.02,0.13,0.02,0.24l-0.14,2.97c-0.02,0.17-0.07,0.3-0.17,0.38
				c-0.09,0.08-0.25,0.12-0.47,0.12l-2.88,0.04c0,0.08,0,0.16,0.01,0.25c0,0.09,0.01,0.17,0.01,0.26V61.07z M352.52,57.55h1.96
				v-4.71c0-0.18-0.04-0.33-0.13-0.45c-0.09-0.12-0.2-0.23-0.33-0.35c-0.11-0.08-0.12-0.19-0.04-0.33c0.08-0.14,0.18-0.19,0.31-0.13
				l0.62,0.29c0.22,0.11,0.35,0.2,0.4,0.28c0.04,0.08,0.07,0.21,0.07,0.38V63.7c0,0.14-0.03,0.29-0.08,0.44
				c-0.05,0.15-0.11,0.29-0.18,0.42c-0.07,0.13-0.13,0.25-0.19,0.35s-0.11,0.17-0.14,0.21c-0.05,0.06-0.11,0.08-0.19,0.06
				c-0.08-0.01-0.12-0.05-0.12-0.11v-6.8h-1.96v4.85c0,0.14-0.03,0.29-0.08,0.44c-0.05,0.15-0.11,0.29-0.17,0.42
				c-0.07,0.13-0.13,0.25-0.2,0.35s-0.11,0.17-0.14,0.21c-0.05,0.06-0.11,0.08-0.19,0.06c-0.08-0.01-0.12-0.05-0.12-0.11V53.8
				c0-0.1-0.01-0.18-0.04-0.26c-0.03-0.08-0.06-0.14-0.1-0.2c-0.05-0.06-0.1-0.12-0.16-0.17s-0.12-0.12-0.17-0.17
				c-0.1-0.08-0.11-0.19-0.03-0.33c0.08-0.14,0.18-0.19,0.3-0.13l0.63,0.29c0.21,0.11,0.34,0.2,0.38,0.28
				c0.04,0.08,0.06,0.21,0.06,0.4V57.55z"/>
			<path d="M362.28,55.19c-0.06-0.06-0.08-0.14-0.06-0.26l0.03-0.27l0.91,0.09c0.23,0.03,0.37,0.11,0.42,0.23s0.08,0.23,0.08,0.32
				v2.87c0.32-0.06,0.63-0.12,0.95-0.2c0.32-0.08,0.61-0.17,0.88-0.27c0.03-0.01,0.08,0,0.16,0.03c0.08,0.03,0.14,0.06,0.2,0.09
				c0.09,0.06,0.15,0.14,0.19,0.25c0.04,0.11,0,0.17-0.1,0.2c-0.81,0.32-1.65,0.55-2.53,0.69c-0.88,0.14-1.68,0.26-2.4,0.35
				c-0.14,0.02-0.33,0.04-0.55,0.06s-0.45,0.04-0.69,0.06c-0.23,0.01-0.46,0.02-0.69,0.03c-0.23,0.01-0.43,0.01-0.59,0
				c-0.09,0-0.19,0-0.32-0.01c-0.13-0.01-0.26-0.04-0.38-0.1c-0.06-0.02-0.09-0.06-0.11-0.12s-0.01-0.15,0.02-0.25l0.07-0.43
				c0.21,0.05,0.47,0.08,0.78,0.09c0.31,0.01,0.64,0.02,0.99,0.02v-2.35c0-0.18-0.01-0.32-0.04-0.4c-0.03-0.09-0.12-0.15-0.26-0.2
				c-0.08-0.02-0.14-0.06-0.2-0.12s-0.08-0.14-0.06-0.26l0.03-0.27l0.91,0.09c0.23,0.03,0.37,0.11,0.42,0.23s0.08,0.23,0.08,0.32
				v2.92l0.52-0.04c0.12-0.01,0.26-0.02,0.4-0.04c0.14-0.01,0.29-0.03,0.45-0.05c0.16-0.02,0.33-0.04,0.49-0.06s0.33-0.04,0.5-0.07
				v-2.4c0-0.18-0.01-0.32-0.04-0.4c-0.03-0.09-0.12-0.15-0.26-0.2C362.4,55.29,362.34,55.25,362.28,55.19z M360.72,54.17
				c-0.18,0.01-0.35,0.02-0.51,0.03s-0.33,0.02-0.51,0.04c-0.18,0.01-0.38,0.03-0.6,0.04c-0.23,0.02-0.42,0.02-0.57,0
				c-0.15-0.02-0.27-0.06-0.35-0.12c-0.06-0.03-0.09-0.07-0.11-0.12s-0.01-0.11,0.01-0.19l0.1-0.55c0.34,0.06,0.67,0.1,1,0.13
				c0.33,0.03,0.65,0.04,0.97,0.04c0.12,0,0.23,0,0.32,0c0.09,0,0.18,0,0.28,0c0.1-0.01,0.2-0.02,0.31-0.02
				c0.11,0,0.25-0.02,0.41-0.04c0.18-0.01,0.38-0.02,0.59-0.03s0.41-0.02,0.59-0.03c0.19-0.01,0.36-0.02,0.5-0.03
				c0.14-0.01,0.24-0.02,0.3-0.03c0.32-0.04,0.53-0.06,0.63-0.05s0.2,0.04,0.31,0.09l0.36,0.23c0.12,0.09,0.18,0.16,0.19,0.22
				s-0.01,0.14-0.07,0.26c-0.06,0.11-0.11,0.18-0.15,0.21c-0.04,0.03-0.11,0.04-0.19,0.01c-0.09-0.02-0.2-0.04-0.35-0.07
				c-0.14-0.02-0.29-0.04-0.43-0.06c-0.22-0.01-0.43-0.02-0.62-0.02s-0.38-0.01-0.58-0.01c-0.19,0-0.39,0-0.58,0.01
				c-0.2,0.01-0.41,0.01-0.64,0.01C361.1,54.15,360.89,54.16,360.72,54.17z M367.61,63.96c0,0.18-0.05,0.38-0.15,0.58
				c-0.1,0.2-0.18,0.35-0.24,0.43l-0.2,0.33c-0.04,0.06-0.1,0.08-0.18,0.07c-0.08-0.01-0.12-0.05-0.12-0.12V61.7
				c-0.92,0.03-1.68,0.05-2.28,0.07c-0.6,0.02-0.96,0.03-1.11,0.03l-1.53,0.07c-0.12,0.01-0.23,0.02-0.35,0.02
				c-0.12,0-0.24,0.01-0.35,0.01c-0.05,0-0.1,0-0.16,0.01s-0.12,0.01-0.19,0.01c-0.06-0.01-0.12-0.02-0.19-0.04
				c-0.07-0.01-0.13-0.04-0.19-0.08c-0.06-0.03-0.09-0.08-0.1-0.15c-0.01-0.07-0.01-0.15,0-0.24l0.04-0.47
				c0.18,0.04,0.38,0.07,0.6,0.09c0.22,0.02,0.46,0.03,0.71,0.04c0.25,0,0.51,0,0.78,0s0.55,0,0.83,0c0.22,0,0.44,0,0.66,0
				s0.47,0,0.77-0.01s0.65-0.02,1.06-0.04s0.91-0.04,1.52-0.06c0.06,0,0.11,0.01,0.15,0.02c0.04,0.01,0.08,0.04,0.11,0.06
				c0.04,0.04,0.06,0.08,0.08,0.12s0.02,0.07,0.02,0.1V63.96z M367.75,58.71c0,0.14-0.03,0.29-0.08,0.44
				c-0.05,0.15-0.11,0.29-0.18,0.42s-0.13,0.25-0.19,0.35s-0.11,0.17-0.14,0.21c-0.05,0.06-0.11,0.08-0.19,0.06
				c-0.08-0.01-0.12-0.05-0.12-0.11v-7.24c0-0.18-0.04-0.33-0.13-0.45c-0.09-0.12-0.2-0.23-0.33-0.35
				c-0.11-0.08-0.12-0.19-0.04-0.33c0.08-0.14,0.18-0.19,0.31-0.13l0.62,0.29c0.22,0.11,0.35,0.2,0.4,0.28
				c0.04,0.08,0.07,0.21,0.07,0.38V58.71z"/>
			<path d="M375.45,55.98c0-0.27-0.01-0.44-0.04-0.53c-0.03-0.08-0.11-0.15-0.23-0.21c-0.06-0.03-0.1-0.05-0.13-0.07
				c-0.03-0.02-0.05-0.04-0.06-0.07c-0.01-0.03-0.01-0.06-0.01-0.09c0-0.03,0.01-0.08,0.01-0.14v-0.25l0.59,0.07h2.45
				c0.1,0,0.24,0,0.43-0.01c0.19,0,0.4-0.02,0.62-0.04c0.22-0.01,0.43-0.03,0.64-0.05c0.21-0.02,0.37-0.05,0.48-0.08
				c0.12-0.02,0.2-0.02,0.27-0.01c0.06,0.01,0.13,0.03,0.19,0.06l0.26,0.16c0.14,0.09,0.22,0.16,0.24,0.22
				c0.01,0.06,0.01,0.12-0.02,0.18c-0.07,0.14-0.14,0.23-0.23,0.25c-0.09,0.02-0.16,0.04-0.22,0.04h-4.38
				c0.01,0.06,0.02,0.12,0.02,0.18s0.01,0.12,0.01,0.18v4.77c0,0.06,0.02,0.1,0.06,0.13c0.04,0.03,0.07,0.04,0.1,0.04
				c0.47-0.01,0.97-0.05,1.51-0.11c0.54-0.06,1.06-0.14,1.55-0.24c0.51-0.11,0.98-0.22,1.4-0.35c0.43-0.13,0.77-0.27,1.03-0.42
				c0.04-0.02,0.09-0.03,0.17-0.02c0.07,0,0.16,0.04,0.25,0.09c0.13,0.1,0.19,0.18,0.17,0.26c-0.02,0.08-0.12,0.17-0.3,0.29
				c-0.36,0.21-0.78,0.39-1.23,0.54c-0.46,0.15-0.93,0.28-1.43,0.38c-0.51,0.12-1.02,0.21-1.54,0.27c-0.52,0.07-1.02,0.12-1.5,0.17
				c-0.06,0.01-0.13,0.02-0.22,0.02c-0.09,0.01-0.17,0.01-0.22,0.01c-0.13,0-0.28-0.07-0.45-0.22c-0.16-0.15-0.25-0.29-0.25-0.44
				V55.98z M384.64,63.7c0,0.14-0.03,0.29-0.08,0.44c-0.05,0.15-0.11,0.29-0.17,0.42c-0.07,0.13-0.13,0.25-0.19,0.35
				s-0.11,0.17-0.14,0.21c-0.05,0.06-0.11,0.08-0.19,0.06s-0.12-0.05-0.12-0.11V52.85c0-0.18-0.04-0.33-0.14-0.45
				c-0.09-0.12-0.2-0.23-0.34-0.35c-0.1-0.08-0.11-0.19-0.03-0.33c0.08-0.14,0.18-0.19,0.3-0.13l0.63,0.29
				c0.21,0.11,0.34,0.2,0.38,0.28c0.04,0.08,0.07,0.21,0.07,0.38V63.7z"/>
			<path d="M390.78,56.86c-0.07,0.18-0.15,0.37-0.24,0.58l1.99,1.93c0.07,0.07,0.13,0.12,0.19,0.17c0.06,0.05,0.12,0.09,0.17,0.13
				c0.06,0.05,0.12,0.09,0.18,0.13c0.06,0.04,0.13,0.08,0.21,0.12c0.13,0.09,0.24,0.17,0.31,0.25c0.07,0.08,0.14,0.22,0.2,0.42
				l0.12,0.43c0.03,0.12,0.03,0.22,0.01,0.29c-0.02,0.07-0.06,0.12-0.12,0.14c-0.09,0.05-0.16,0.07-0.23,0.06
				c-0.07-0.01-0.14-0.06-0.22-0.14l-3.07-3.37c-0.35,0.63-0.78,1.27-1.3,1.92c-0.52,0.65-1.1,1.2-1.76,1.66
				c-0.08,0.06-0.14,0.1-0.19,0.12c-0.05,0.02-0.1,0.04-0.14,0.04c-0.12,0-0.2-0.02-0.27-0.05c-0.06-0.03-0.11-0.1-0.15-0.21
				c-0.02-0.05-0.01-0.11,0.02-0.17c0.03-0.07,0.06-0.11,0.09-0.13c0.54-0.38,1.02-0.8,1.44-1.29c0.42-0.48,0.78-0.98,1.08-1.48
				c0.31-0.49,0.55-0.96,0.72-1.41c0.17-0.45,0.28-0.83,0.33-1.14c0-0.06-0.01-0.12-0.03-0.17s-0.04-0.11-0.07-0.16
				c-0.05-0.03-0.11-0.07-0.17-0.12c-0.07-0.05-0.14-0.11-0.22-0.17c-0.29,0.02-0.58,0.04-0.86,0.06c-0.29,0.02-0.57,0.04-0.85,0.07
				c-0.22,0.02-0.41,0.02-0.56-0.01c-0.15-0.02-0.25-0.06-0.29-0.09c-0.06-0.03-0.1-0.07-0.12-0.12c-0.02-0.05-0.03-0.12-0.01-0.2
				l0.07-0.58c0.34,0.06,0.67,0.1,1,0.13c0.33,0.03,0.66,0.04,0.97,0.04c0.16,0.01,0.3,0.01,0.42,0.01s0.24,0,0.35-0.01
				c0.11,0,0.22,0,0.35-0.01s0.27-0.02,0.45-0.03c0.14,0,0.32-0.01,0.53-0.03c0.21-0.02,0.42-0.03,0.63-0.04
				c0.2-0.02,0.38-0.04,0.55-0.05c0.16-0.01,0.27-0.03,0.33-0.04c0.15-0.01,0.28-0.02,0.39-0.02s0.2-0.01,0.27-0.01
				c0.07,0,0.12,0.01,0.17,0.02s0.1,0.03,0.14,0.05l0.33,0.22c0.14,0.11,0.23,0.19,0.27,0.25c0.03,0.06,0.02,0.15-0.04,0.27
				c-0.06,0.11-0.11,0.18-0.17,0.22s-0.14,0.04-0.25,0.01c-0.04,0-0.08-0.01-0.14-0.02c-0.05-0.01-0.11-0.03-0.18-0.05
				c-0.08-0.01-0.15-0.02-0.23-0.04c-0.08-0.01-0.15-0.03-0.22-0.04c-0.43-0.03-0.82-0.04-1.15-0.04s-0.73,0-1.18,0.01
				c0.09,0.07,0.17,0.13,0.24,0.2s0.13,0.12,0.17,0.14c0.03,0.08,0.03,0.17,0.01,0.29c-0.02,0.12-0.06,0.29-0.12,0.52
				C390.91,56.5,390.85,56.68,390.78,56.86z M396.55,58.58l0.58-0.03c0.14,0,0.27-0.01,0.37-0.03c0.11-0.02,0.27-0.06,0.49-0.13
				c0.09-0.03,0.16-0.05,0.23-0.07c0.07-0.02,0.13-0.03,0.19-0.04s0.11-0.01,0.17,0.01c0.05,0.01,0.12,0.04,0.2,0.08l0.52,0.3
				c0.07,0.05,0.11,0.11,0.12,0.17s-0.01,0.13-0.06,0.2l-0.07,0.1c-0.06,0.08-0.13,0.13-0.21,0.15c-0.08,0.02-0.17,0.02-0.25-0.01
				c-0.07-0.01-0.15-0.02-0.26-0.02s-0.18-0.01-0.22-0.01h-1.79v4.45c0,0.14-0.03,0.29-0.08,0.44c-0.05,0.15-0.11,0.29-0.18,0.42
				c-0.07,0.13-0.13,0.25-0.19,0.35s-0.11,0.17-0.14,0.21c-0.05,0.06-0.11,0.08-0.19,0.06c-0.08-0.01-0.12-0.05-0.12-0.11V52.85
				c0-0.18-0.04-0.33-0.13-0.45c-0.09-0.12-0.2-0.23-0.33-0.35c-0.11-0.08-0.12-0.19-0.04-0.33c0.08-0.14,0.18-0.19,0.31-0.13
				l0.62,0.29c0.22,0.11,0.35,0.2,0.4,0.28c0.04,0.08,0.07,0.21,0.07,0.38V58.58z"/>
			<path d="M400.76,54.95c0.15-0.34,0.35-0.64,0.61-0.89c0.26-0.24,0.57-0.43,0.92-0.56c0.35-0.13,0.74-0.2,1.17-0.2
				c0.41,0,0.8,0.07,1.15,0.21c0.35,0.14,0.66,0.33,0.92,0.58c0.25,0.25,0.45,0.54,0.6,0.89c0.15,0.34,0.22,0.71,0.22,1.12
				c0,0.42-0.07,0.81-0.22,1.15c-0.15,0.35-0.35,0.64-0.6,0.88c-0.26,0.25-0.57,0.44-0.92,0.57c-0.36,0.13-0.74,0.19-1.15,0.19
				c-0.42,0-0.81-0.06-1.17-0.19c-0.36-0.13-0.66-0.32-0.92-0.57c-0.26-0.24-0.46-0.53-0.61-0.88c-0.15-0.35-0.22-0.73-0.22-1.15
				C400.54,55.68,400.61,55.3,400.76,54.95z M402.57,54.25c-0.25,0.12-0.46,0.28-0.62,0.47c-0.16,0.19-0.29,0.41-0.37,0.65
				c-0.08,0.24-0.12,0.49-0.12,0.73c0,0.26,0.04,0.51,0.12,0.75c0.08,0.24,0.2,0.46,0.37,0.65c0.16,0.19,0.37,0.35,0.62,0.46
				c0.25,0.12,0.55,0.17,0.89,0.17c0.67,0,1.17-0.2,1.49-0.61c0.32-0.41,0.48-0.88,0.48-1.42c0-0.25-0.04-0.49-0.11-0.73
				c-0.07-0.24-0.19-0.46-0.35-0.65c-0.15-0.19-0.35-0.35-0.6-0.47c-0.25-0.12-0.55-0.18-0.91-0.18
				C403.12,54.07,402.82,54.13,402.57,54.25z M404.51,64.97c-0.12,0-0.24,0-0.36-0.01s-0.24-0.04-0.35-0.1s-0.19-0.14-0.26-0.25
				c-0.07-0.11-0.1-0.27-0.1-0.47v-2.16c0-0.2-0.01-0.36-0.04-0.47c-0.03-0.11-0.12-0.2-0.26-0.27c-0.12-0.04-0.2-0.08-0.25-0.12
				s-0.08-0.12-0.08-0.24v-0.38l0.89,0.1c0.15,0.03,0.27,0.07,0.36,0.13c0.09,0.06,0.15,0.13,0.19,0.22
				c0.04,0.09,0.06,0.19,0.07,0.3s0.01,0.24,0.01,0.36v2.15c0,0.15,0.01,0.27,0.04,0.34c0.03,0.07,0.13,0.11,0.3,0.11h2.28
				c0.59,0,1.07-0.02,1.46-0.06c0.39-0.04,0.67-0.09,0.84-0.14c0.11-0.03,0.19-0.05,0.27-0.05c0.07,0,0.16,0.01,0.25,0.05l0.56,0.23
				c0.14,0.06,0.23,0.11,0.27,0.16c0.04,0.05,0.04,0.14,0.01,0.27c-0.04,0.14-0.08,0.23-0.14,0.26c-0.05,0.03-0.15,0.04-0.28,0.04
				H404.51z M410.2,60.4c0,0.14-0.03,0.29-0.08,0.44s-0.11,0.29-0.18,0.42c-0.07,0.13-0.13,0.25-0.19,0.35
				c-0.06,0.1-0.11,0.17-0.14,0.21c-0.05,0.06-0.11,0.08-0.19,0.07c-0.08-0.01-0.12-0.05-0.12-0.13v-8.93
				c0-0.18-0.04-0.33-0.13-0.45c-0.09-0.12-0.2-0.23-0.33-0.35c-0.11-0.08-0.12-0.19-0.04-0.33c0.08-0.14,0.18-0.19,0.31-0.13
				l0.62,0.29c0.22,0.11,0.35,0.2,0.4,0.28c0.04,0.08,0.06,0.21,0.06,0.38V60.4z"/>
		</g>
	</g>
	<line class="st0" x1="313.7" y1="62.8" x2="325.7" y2="62.8"/>
	<line class="st0" x1="111.79" y1="21.93" x2="96.3" y2="37.43"/>
	<g>
		<path d="M20.32,16.66l-1.2,1.45c-0.56-0.23-1.1-0.35-1.61-0.35c-0.92,0-1.65,0.39-2.18,1.17s-0.8,1.85-0.8,3.21
			c0,0.96,0.19,1.73,0.58,2.31c0.38,0.58,0.88,0.88,1.5,0.88c1.05,0,1.87-0.69,2.47-2.06c0.15,0.17,0.23,0.33,0.23,0.47
			c0,0.58-0.46,1.23-1.37,1.95c-0.91,0.71-1.75,1.07-2.5,1.07c-0.73,0-1.33-0.29-1.8-0.88s-0.7-1.35-0.7-2.28
			c0-1.82,0.62-3.48,1.86-4.97c1.24-1.49,2.61-2.24,4.12-2.24C19.46,16.39,19.93,16.48,20.32,16.66z"/>
		<path d="M23.99,20.66c0.82-1.24,1.73-2.26,2.72-3.06c0.99-0.8,1.83-1.21,2.54-1.21c0.68,0,1.02,0.47,1.02,1.42
			c0,0.28-0.04,0.71-0.12,1.3l-0.56,3.93c-0.12,0.79-0.18,1.41-0.18,1.87c0,0.37,0.1,0.55,0.3,0.55c0.49,0,1.08-0.64,1.79-1.93
			c0.18,0.11,0.26,0.21,0.26,0.33c0,0.46-0.39,1.06-1.18,1.8c-0.78,0.74-1.42,1.11-1.92,1.11c-0.55,0-0.82-0.39-0.82-1.18
			c0-0.58,0.07-1.37,0.22-2.39l0.37-2.55c0.12-0.84,0.18-1.5,0.18-1.99c0-0.54-0.19-0.81-0.58-0.81c-0.9,0-1.81,0.61-2.73,1.83
			s-1.46,2.53-1.62,3.93l-0.28,2.53l-1.58,0.64l0.03-0.3l0.08-0.78l0.08-0.74l1.02-9.25c0.25-2.18,1.05-4.04,2.42-5.59
			c1.37-1.54,2.9-2.32,4.6-2.32c0.35,0,0.69,0.04,1.02,0.12l-1.55,1.52c-0.4-0.12-0.78-0.18-1.14-0.18c-2.09,0-3.31,1.63-3.68,4.9
			L23.99,20.66z"/>
		<path d="M39.28,22.29c-0.79,1.31-1.67,2.38-2.62,3.21s-1.78,1.25-2.48,1.25c-0.96,0-1.44-0.78-1.44-2.33c0-2.14,0.7-3.99,2.1-5.55
			c1.4-1.56,3.06-2.35,4.98-2.35c0.73,0,1.35,0.09,1.87,0.27c-0.04,0.13-0.06,0.2-0.06,0.23l-0.13,0.56
			c-0.08,0.39-0.13,0.61-0.14,0.67l-0.67,4.66l-0.1,0.67c-0.09,0.67-0.14,1.11-0.14,1.34c0,0.3,0.09,0.45,0.26,0.45
			c0.59,0,1.19-0.66,1.81-1.97c0.19,0.11,0.28,0.23,0.28,0.34c0,0.25-0.3,0.74-0.91,1.49c-0.82,1.01-1.59,1.52-2.29,1.52
			c-0.51,0-0.77-0.34-0.77-1.03c0-0.21,0.02-0.5,0.07-0.88L39.03,24l0.14-0.93L39.28,22.29z M39.88,18.12
			c-0.64-0.36-1.29-0.54-1.94-0.54c-0.98,0-1.81,0.6-2.48,1.8c-0.67,1.2-1,2.69-1,4.47c0,0.91,0.27,1.37,0.81,1.37
			c0.63,0,1.38-0.48,2.27-1.43c1.2-1.29,1.92-2.79,2.17-4.53L39.88,18.12z"/>
		<path d="M46.16,26.62l-0.09,0.83c-0.22,2.17-1,4.03-2.36,5.58s-2.88,2.31-4.58,2.31c-0.35,0-0.69-0.04-1.01-0.13l1.53-1.52
			c0.4,0.12,0.78,0.18,1.14,0.18c2.09,0,3.3-1.63,3.63-4.88l1.1-10.94c-0.33,0.25-0.68,0.53-1.06,0.85
			c-0.46,0.39-0.87,0.7-1.22,0.93l0.08-0.84c1.19-0.7,2.49-1.71,3.9-3.02l-0.49,4.89c0.75-1.31,1.58-2.38,2.51-3.22
			s1.75-1.26,2.45-1.26c1.01,0,1.52,0.87,1.52,2.6c0,2.06-0.66,3.85-1.99,5.37c-1.33,1.52-2.89,2.28-4.7,2.28L46.16,26.62z
			 M46.31,25.04c0.57,0.36,1.21,0.54,1.93,0.54c0.96,0,1.75-0.56,2.35-1.68c0.6-1.12,0.9-2.58,0.9-4.37c0-1.05-0.29-1.57-0.86-1.57
			c-0.63,0-1.37,0.48-2.23,1.43c-1.15,1.27-1.81,2.78-1.99,4.52L46.31,25.04z"/>
		<path d="M57.87,17.89l-0.51,4.66c-0.09,0.84-0.14,1.46-0.14,1.86c0,0.79,0.27,1.19,0.81,1.19c0.58,0,1.18-0.48,1.81-1.43
			c0.1,0.13,0.16,0.25,0.16,0.36c0,0.39-0.35,0.87-1.04,1.41c-0.69,0.55-1.29,0.82-1.79,0.82c-1,0-1.5-0.64-1.5-1.92
			c0-0.47,0.06-1.23,0.18-2.29l0.51-4.66h-2.21l1.23-1.22h1.12l0.22-1.92l1.55-0.52l-0.26,2.44h4.47l-1.24,1.22H57.87z"/>
		<path d="M68.62,23.13c0.18,0.12,0.26,0.26,0.26,0.42c0,0.22-0.23,0.59-0.67,1.12c-1.2,1.39-2.39,2.09-3.56,2.09
			c-0.72,0-1.31-0.29-1.77-0.85c-0.46-0.57-0.7-1.3-0.7-2.18c0-1.6,0.61-3.23,1.82-4.87s2.41-2.46,3.6-2.46
			c0.86,0,1.29,0.46,1.29,1.38c0,1.03-0.5,2.04-1.5,3.03s-2.22,1.67-3.67,2.06c0.14,1.69,0.81,2.53,2,2.53
			C66.9,25.38,67.87,24.63,68.62,23.13z M63.76,21.57c0.2,0.07,0.39,0.11,0.56,0.11c0.87,0,1.63-0.27,2.29-0.8
			c0.65-0.53,0.98-1.16,0.98-1.88c0-0.82-0.42-1.23-1.26-1.23c-0.6,0-1.15,0.36-1.64,1.08C64.2,19.56,63.89,20.47,63.76,21.57z"/>
		<path d="M73.69,20.83c1.56-2.96,3.1-4.44,4.61-4.44c0.39,0,0.79,0.09,1.18,0.27l-1.49,1.62c-0.23-0.13-0.51-0.19-0.86-0.19
			c-0.73,0-1.5,0.59-2.31,1.78s-1.29,2.42-1.43,3.7l-0.29,2.57l-1.57,0.53l0.03-0.32l0.07-0.69l0.08-0.69l0.55-5.02l0.06-0.55
			c0.05-0.42,0.07-0.75,0.07-1.01c0-0.43-0.12-0.64-0.36-0.64c-0.56,0-1.12,0.6-1.68,1.8c-0.18-0.13-0.26-0.27-0.25-0.41
			c0.02-0.43,0.41-1,1.18-1.7c0.76-0.71,1.37-1.06,1.81-1.06c0.6,0,0.9,0.39,0.9,1.18c0,0.19-0.02,0.45-0.05,0.77l-0.07,0.74
			l-0.1,0.89L73.69,20.83z"/>
		<path d="M80.3,26.92c-0.31-0.67-0.72-1.17-1.23-1.5l1.55-1.49c0.46,0.34,0.86,0.84,1.22,1.49L80.3,26.92z"/>
		<path d="M93.72,21.67c2.33,0.38,3.5,1.45,3.5,3.22c0,1.25-0.62,2.38-1.86,3.37c-1.24,1-2.63,1.49-4.18,1.49
			c-0.86,0-1.69-0.13-2.5-0.39l1.24-1.34c1.01,0.43,1.93,0.64,2.78,0.64c0.92,0,1.68-0.26,2.29-0.79c0.6-0.52,0.91-1.19,0.91-1.99
			c0-0.96-0.43-1.72-1.29-2.29c-0.86-0.57-2.02-0.85-3.48-0.85c-0.23,0-0.47,0.03-0.74,0.08l1.26-1.23h0.35c0.11,0,0.28,0,0.52,0.01
			c2.24-0.55,3.35-1.61,3.35-3.16c0-0.59-0.2-1.07-0.61-1.44s-0.93-0.56-1.57-0.56c-1.01,0-1.85,0.34-2.52,1.01
			c-0.07-0.13-0.11-0.23-0.11-0.29c0-0.33,0.4-0.68,1.2-1.04c0.8-0.36,1.56-0.54,2.29-0.54c0.89,0,1.61,0.22,2.18,0.65
			c0.57,0.44,0.85,1,0.85,1.68C97.6,19.3,96.31,20.55,93.72,21.67z"/>
	</g>
</g>
</svg>
