<?xml version="1.0" encoding="utf-8"?>
<!-- Generator: Adobe Illustrator 23.0.1, SVG Export Plug-In . SVG Version: 6.00 Build 0)  -->
<svg version="1.1" id="レイヤー_1" xmlns="http://www.w3.org/2000/svg" xmlns:xlink="http://www.w3.org/1999/xlink" x="0px"
	 y="0px" viewBox="0 0 478 78" style="enable-background:new 0 0 478 78;" xml:space="preserve">
<style type="text/css">
	.st0{fill:#4D4D4D;}
	.st1{fill:none;stroke:#000000;stroke-miterlimit:10;}
</style>
<g>
	<g>
		<path class="st0" d="M305.54,43.6c-1.4-0.8-2.51-1.93-3.31-3.37c-0.8-1.44-1.21-3.07-1.21-4.9c0-1.82,0.4-3.46,1.21-4.9
			c0.8-1.44,1.91-2.56,3.31-3.37c1.4-0.8,2.99-1.21,4.77-1.21c1.42,0,2.73,0.27,3.94,0.81s2.2,1.34,2.97,2.39l-0.9,0.76
			c-0.67-0.94-1.53-1.64-2.57-2.12c-1.04-0.48-2.19-0.72-3.44-0.72c-1.54,0-2.92,0.35-4.16,1.06c-1.24,0.71-2.2,1.69-2.9,2.95
			s-1.04,2.71-1.04,4.34c0,1.63,0.35,3.08,1.04,4.36c0.7,1.27,1.66,2.26,2.9,2.97c1.24,0.71,2.62,1.06,4.16,1.06
			c1.25,0,2.39-0.24,3.44-0.72c1.04-0.48,1.9-1.19,2.57-2.12l0.9,0.72c-0.77,1.06-1.76,1.85-2.97,2.39s-2.53,0.81-3.94,0.81
			C308.53,44.8,306.94,44.4,305.54,43.6z"/>
		<path class="st0" d="M325.27,43.6c-1.4-0.8-2.5-1.93-3.29-3.37c-0.79-1.44-1.19-3.07-1.19-4.9c0-1.82,0.4-3.46,1.19-4.9
			c0.79-1.44,1.89-2.56,3.29-3.37c1.4-0.8,2.97-1.21,4.7-1.21c1.75,0,3.32,0.4,4.72,1.21c1.39,0.8,2.48,1.93,3.28,3.37
			c0.79,1.44,1.19,3.07,1.19,4.9c0,1.82-0.4,3.46-1.19,4.9c-0.79,1.44-1.88,2.56-3.28,3.37s-2.96,1.21-4.72,1.21
			C328.24,44.8,326.67,44.4,325.27,43.6z M334.05,42.66c1.21-0.71,2.17-1.7,2.86-2.97c0.7-1.27,1.04-2.72,1.04-4.36
			c0-1.63-0.35-3.08-1.04-4.34s-1.65-2.24-2.86-2.95c-1.21-0.71-2.57-1.06-4.09-1.06c-1.51,0-2.87,0.35-4.09,1.06
			c-1.21,0.71-2.17,1.69-2.86,2.95s-1.04,2.71-1.04,4.34c0,1.63,0.35,3.08,1.04,4.36c0.7,1.27,1.65,2.26,2.86,2.97
			c1.21,0.71,2.57,1.06,4.09,1.06C331.48,43.72,332.84,43.37,334.05,42.66z"/>
		<path class="st0" d="M359.34,27.9c1.34,1.36,2.02,3.29,2.02,5.81V44.7h-1.19V33.79c0-2.21-0.56-3.89-1.67-5.06
			c-1.12-1.16-2.71-1.75-4.77-1.75c-2.33,0-4.16,0.69-5.51,2.07c-1.34,1.38-2.02,3.23-2.02,5.56V44.7h-1.19V26.01h1.15v4.57
			c0.6-1.46,1.57-2.62,2.9-3.46c1.33-0.84,2.92-1.26,4.77-1.26C356.16,25.87,358,26.55,359.34,27.9z"/>
		<path class="st0" d="M377.95,43.51c-0.43,0.41-0.98,0.73-1.66,0.95c-0.67,0.23-1.37,0.34-2.09,0.34c-1.51,0-2.68-0.43-3.51-1.28
			c-0.83-0.85-1.24-2.02-1.24-3.51V27.06h-3.53v-1.04h3.53v-4.1h1.19v4.1h6.16v1.04h-6.16v12.78c0,1.27,0.31,2.25,0.94,2.92
			c0.62,0.67,1.54,1.01,2.74,1.01s2.21-0.37,3.02-1.12L377.95,43.51z"/>
		<path class="st0" d="M398.65,35.52h-16.38c0.02,1.58,0.4,3,1.12,4.25c0.72,1.25,1.71,2.22,2.97,2.92c1.26,0.7,2.67,1.04,4.23,1.04
			c1.27,0,2.45-0.23,3.53-0.7s1.97-1.16,2.66-2.07l0.76,0.79c-0.84,0.98-1.86,1.74-3.06,2.27c-1.2,0.53-2.5,0.79-3.89,0.79
			c-1.82,0-3.45-0.4-4.88-1.21s-2.55-1.93-3.37-3.37c-0.82-1.44-1.22-3.07-1.22-4.9c0-1.82,0.38-3.46,1.13-4.9
			c0.76-1.44,1.81-2.56,3.15-3.37c1.34-0.8,2.84-1.21,4.5-1.21c1.63,0,3.11,0.4,4.45,1.19s2.38,1.9,3.15,3.31
			c0.77,1.42,1.15,3.02,1.15,4.82V35.52z M386.12,27.92c-1.13,0.65-2.03,1.55-2.7,2.72s-1.04,2.47-1.12,3.91h15.23
			c-0.1-1.44-0.49-2.74-1.17-3.91c-0.68-1.16-1.58-2.07-2.7-2.72c-1.12-0.65-2.37-0.97-3.76-0.97
			C388.51,26.95,387.25,27.27,386.12,27.92z"/>
		<path class="st0" d="M418.85,27.9c1.34,1.36,2.02,3.29,2.02,5.81V44.7h-1.19V33.79c0-2.21-0.56-3.89-1.67-5.06
			c-1.12-1.16-2.71-1.75-4.77-1.75c-2.33,0-4.16,0.69-5.51,2.07c-1.34,1.38-2.02,3.23-2.02,5.56V44.7h-1.19V26.01h1.15v4.57
			c0.6-1.46,1.57-2.62,2.9-3.46c1.33-0.84,2.92-1.26,4.77-1.26C415.67,25.87,417.5,26.55,418.85,27.9z"/>
		<path class="st0" d="M437.46,43.51c-0.43,0.41-0.98,0.73-1.66,0.95c-0.67,0.23-1.37,0.34-2.09,0.34c-1.51,0-2.68-0.43-3.51-1.28
			c-0.83-0.85-1.24-2.02-1.24-3.51V27.06h-3.53v-1.04h3.53v-4.1h1.19v4.1h6.16v1.04h-6.16v12.78c0,1.27,0.31,2.25,0.94,2.92
			c0.62,0.67,1.54,1.01,2.74,1.01s2.21-0.37,3.02-1.12L437.46,43.51z"/>
	</g>
</g>
<line class="st1" x1="49.27" y1="55.51" x2="446.6" y2="55.51"/>
</svg>
