<?xml version="1.0" encoding="utf-8"?>
<!-- Generator: Adobe Illustrator 23.0.1, SVG Export Plug-In . SVG Version: 6.00 Build 0)  -->
<svg version="1.1" id="レイヤー_1" xmlns="http://www.w3.org/2000/svg" xmlns:xlink="http://www.w3.org/1999/xlink" x="0px"
	 y="0px" viewBox="0 0 478 78" style="enable-background:new 0 0 478 78;" xml:space="preserve">
<style type="text/css">
	.st0{fill:none;stroke:#000000;stroke-miterlimit:10;}
</style>
<g>
	<g>
		<g>
			<path d="M124.36,31.92c1.06,1.4,1.6,3.25,1.6,5.55v2.5h-1.9v-2.63c0-1.73-0.37-3.11-1.1-4.15c-0.73-1.04-1.89-1.55-3.48-1.55
				c-1.58,0-2.74,0.52-3.48,1.55c-0.73,1.04-1.1,2.42-1.1,4.15v15.72c0,1.73,0.37,3.1,1.1,4.13s1.89,1.53,3.48,1.53
				c1.58,0,2.74-0.51,3.48-1.53s1.1-2.4,1.1-4.13v-3.58h1.9v3.46c0,2.3-0.53,4.15-1.6,5.55c-1.07,1.4-2.71,2.09-4.92,2.09
				c-2.22,0-3.86-0.7-4.92-2.09c-1.07-1.4-1.6-3.25-1.6-5.55V37.47c0-2.3,0.53-4.15,1.6-5.55c1.06-1.4,2.71-2.09,4.92-2.09
				C121.66,29.82,123.3,30.52,124.36,31.92z"/>
			<path d="M141.99,36.91v2.63c0,1.79-0.35,3.19-1.06,4.21c-0.71,1.02-1.81,1.71-3.3,2.05c2.91,0.63,4.36,2.69,4.36,6.18v4.71
				c0,1.67,0.24,2.88,0.73,3.63h-2.07c-0.26-0.43-0.43-0.93-0.52-1.49c-0.09-0.56-0.13-1.27-0.13-2.14v-4.75c0-1.9-0.48-3.23-1.43-4
				c-0.95-0.76-2.36-1.14-4.23-1.14h-3.15v13.52h-1.99V30.08h6.31C139.83,30.08,141.99,32.36,141.99,36.91z M138.62,43.9
				c0.92-0.72,1.38-2.04,1.38-3.97v-2.85c0-1.7-0.36-2.99-1.08-3.87c-0.72-0.88-1.87-1.32-3.46-1.32h-4.28v13.09h3.2
				C136.29,44.98,137.7,44.63,138.62,43.9z"/>
			<path d="M156.12,45.89h-8.25v12.61h9.94v1.81h-11.92V30.08h11.92v1.81h-9.94v12.18h8.25V45.89z"/>
			<path d="M162.42,60.32h-1.81l6.61-30.28h2.89l6.74,30.28h-1.99l-1.51-6.7h-9.42L162.42,60.32z M173.05,51.9l-4.45-19.57
				l-4.36,19.57H173.05z"/>
			<path d="M184.97,31.9h-6.13v-1.81h14.3v1.81h-6.18v28.43h-1.99V31.9z"/>
			<path d="M197.59,60.32h-1.99V30.08h1.99V60.32z"/>
			<path d="M208.77,58.03l6.13-27.95h1.86l-6.57,30.24h-2.94l-6.65-30.24h2.03L208.77,58.03z"/>
			<path d="M230.03,45.89h-8.25v12.61h9.94v1.81h-11.92V30.08h11.92v1.81h-9.94v12.18h8.25V45.89z"/>
		</g>
	</g>
	<g>
		<g>
			<path d="M261.07,52.06c-0.17,0-0.35,0-0.52,0.01c-0.17,0-0.35,0-0.52,0.01c-0.17,0.01-0.36,0.02-0.55,0.03
				c0.08,0.06,0.15,0.12,0.21,0.18c0.06,0.06,0.11,0.11,0.14,0.14c0.04,0.07,0.06,0.16,0.06,0.27s-0.04,0.28-0.12,0.5
				c-0.06,0.14-0.12,0.28-0.17,0.41s-0.12,0.26-0.2,0.4l1.63,1.18c0.07,0.06,0.13,0.11,0.2,0.14c0.07,0.04,0.13,0.07,0.2,0.1
				c0.07,0.04,0.14,0.07,0.22,0.1c0.08,0.03,0.16,0.06,0.25,0.1c0.13,0.07,0.24,0.13,0.33,0.2c0.09,0.07,0.17,0.19,0.26,0.36
				l0.19,0.42c0.06,0.12,0.08,0.2,0.06,0.26s-0.06,0.12-0.13,0.17c-0.08,0.06-0.15,0.09-0.21,0.09s-0.14-0.04-0.22-0.13l-3.1-2.49
				c-0.37,0.53-0.8,1.03-1.3,1.51c-0.5,0.48-1.03,0.89-1.58,1.24c-0.1,0.06-0.23,0.12-0.39,0.17s-0.27-0.01-0.33-0.2
				c-0.02-0.05-0.02-0.11-0.01-0.19s0.05-0.13,0.11-0.17c0.43-0.26,0.84-0.56,1.22-0.91c0.38-0.35,0.71-0.7,1-1.07
				c0.3-0.37,0.54-0.73,0.74-1.1c0.2-0.37,0.33-0.71,0.41-1.03c0.01-0.06,0-0.12-0.02-0.18c-0.02-0.06-0.05-0.12-0.08-0.17
				c-0.05-0.04-0.11-0.08-0.17-0.13c-0.07-0.05-0.13-0.1-0.2-0.14c-0.14,0.01-0.28,0.02-0.42,0.03c-0.13,0.01-0.27,0.02-0.4,0.03
				c-0.14,0.01-0.29,0.02-0.42,0.03c-0.14,0.01-0.29,0.02-0.44,0.03c-0.22,0.02-0.41,0.02-0.56,0c-0.15-0.02-0.27-0.06-0.36-0.12
				c-0.06-0.03-0.09-0.07-0.09-0.12c0-0.05,0-0.12,0.01-0.2l0.06-0.53c0.34,0.06,0.67,0.1,1.01,0.12c0.34,0.02,0.67,0.04,0.99,0.04
				c0.11,0.01,0.2,0.01,0.28,0.01c0.08,0,0.16,0,0.22,0c0.07,0,0.13,0,0.2-0.01s0.14-0.01,0.22-0.02v-1.07
				c0-0.19-0.02-0.33-0.06-0.41c-0.04-0.08-0.12-0.18-0.24-0.29c-0.06-0.05-0.06-0.13-0.01-0.25c0.05-0.12,0.12-0.16,0.2-0.14
				l0.55,0.17c0.22,0.07,0.35,0.15,0.39,0.25c0.04,0.1,0.06,0.24,0.06,0.41v1.3c0.2-0.01,0.39-0.02,0.58-0.04
				c0.18-0.01,0.35-0.03,0.49-0.05c0.15-0.02,0.28-0.04,0.39-0.05s0.19-0.03,0.25-0.04c0.32-0.03,0.52-0.04,0.62-0.04
				c0.1,0,0.2,0.03,0.3,0.09l0.38,0.23c0.12,0.09,0.19,0.16,0.2,0.22s-0.01,0.15-0.07,0.27s-0.11,0.19-0.15,0.22
				c-0.04,0.03-0.11,0.03-0.19,0.01c-0.05-0.01-0.1-0.02-0.17-0.04s-0.12-0.03-0.18-0.04c-0.07-0.02-0.14-0.04-0.22-0.05
				c-0.08-0.01-0.15-0.03-0.22-0.04C261.43,52.07,261.24,52.07,261.07,52.06z M260.06,58.66c0.55-0.42,1.24-0.63,2.07-0.63
				c0.39,0,0.76,0.06,1.11,0.17s0.65,0.28,0.91,0.49c0.26,0.21,0.46,0.47,0.61,0.78c0.15,0.31,0.22,0.66,0.22,1.04
				c0,0.75-0.27,1.34-0.8,1.79c-0.53,0.44-1.22,0.66-2.05,0.66c-0.83,0-1.53-0.21-2.07-0.64c-0.55-0.43-0.82-1.03-0.82-1.81
				C259.24,59.71,259.51,59.09,260.06,58.66z M260.65,59.26c-0.35,0.31-0.52,0.73-0.52,1.27c0,0.51,0.17,0.92,0.52,1.22
				c0.34,0.31,0.84,0.46,1.48,0.46c0.66,0,1.15-0.17,1.48-0.5c0.32-0.33,0.48-0.73,0.48-1.19c0-0.52-0.16-0.94-0.48-1.25
				c-0.32-0.32-0.81-0.48-1.48-0.48C261.49,58.79,261,58.95,260.65,59.26z M265.27,54.04l0.58-0.03c0.14,0,0.27-0.01,0.37-0.03
				s0.27-0.06,0.49-0.13c0.09-0.03,0.16-0.05,0.23-0.07c0.07-0.02,0.13-0.03,0.19-0.04c0.06-0.01,0.11-0.01,0.17,0.01
				c0.05,0.01,0.12,0.04,0.19,0.08l0.52,0.3c0.07,0.05,0.11,0.11,0.12,0.17c0.01,0.07-0.01,0.13-0.06,0.2L268,54.6
				c-0.06,0.08-0.13,0.13-0.21,0.15c-0.08,0.02-0.17,0.02-0.25-0.01c-0.07-0.01-0.15-0.02-0.26-0.02c-0.11,0-0.18-0.01-0.22-0.01
				h-1.79v1.77c0,0.14-0.03,0.29-0.08,0.44c-0.05,0.15-0.11,0.29-0.18,0.42c-0.07,0.13-0.13,0.25-0.2,0.35
				c-0.06,0.1-0.11,0.17-0.14,0.21c-0.05,0.06-0.11,0.08-0.19,0.07c-0.08-0.01-0.12-0.05-0.12-0.11v-7.5c0-0.18-0.05-0.33-0.14-0.45
				c-0.09-0.12-0.2-0.23-0.34-0.35c-0.1-0.08-0.11-0.19-0.03-0.33c0.08-0.14,0.18-0.19,0.3-0.13l0.63,0.29
				c0.21,0.11,0.34,0.2,0.39,0.28c0.05,0.08,0.07,0.21,0.07,0.38V54.04z"/>
			<path d="M272.85,52.95c-0.05,0.13-0.1,0.26-0.16,0.39l1.57,1.47c0.07,0.07,0.13,0.12,0.19,0.17s0.13,0.08,0.19,0.12
				c0.06,0.05,0.12,0.09,0.19,0.13s0.15,0.08,0.24,0.12c0.12,0.08,0.23,0.16,0.3,0.24c0.08,0.08,0.15,0.21,0.22,0.38l0.14,0.43
				c0.04,0.12,0.05,0.21,0.02,0.27c-0.02,0.07-0.07,0.12-0.12,0.14c-0.1,0.06-0.17,0.08-0.24,0.08s-0.13-0.05-0.21-0.14l-2.81-2.85
				c-0.33,0.56-0.74,1.08-1.25,1.58c-0.5,0.5-1.07,0.95-1.69,1.35c-0.04,0.03-0.08,0.05-0.13,0.08c-0.05,0.02-0.1,0.04-0.16,0.06
				c-0.05,0.02-0.1,0.03-0.16,0.04s-0.11-0.01-0.14-0.04c-0.1-0.06-0.15-0.14-0.15-0.26s0.04-0.21,0.14-0.27
				c0.56-0.37,1.03-0.76,1.43-1.15c0.4-0.39,0.73-0.78,0.99-1.17c0.26-0.37,0.46-0.73,0.6-1.08c0.14-0.34,0.22-0.66,0.25-0.94
				c0-0.06-0.01-0.12-0.02-0.18c-0.01-0.06-0.04-0.11-0.06-0.15c-0.02-0.01-0.04-0.02-0.06-0.04c-0.02-0.02-0.04-0.04-0.07-0.06
				c-0.02-0.02-0.04-0.04-0.06-0.06c-0.02-0.02-0.05-0.04-0.06-0.06c-0.13,0.02-0.26,0.03-0.39,0.04c-0.12,0.01-0.25,0.02-0.38,0.03
				c-0.12,0.01-0.25,0.02-0.39,0.03s-0.28,0.01-0.43,0.01c-0.23,0.02-0.42,0.02-0.57,0.01c-0.15-0.01-0.27-0.05-0.35-0.11
				c-0.06-0.04-0.09-0.08-0.1-0.13c-0.01-0.05,0-0.12,0.01-0.2l0.06-0.53c0.34,0.06,0.65,0.1,0.94,0.12
				c0.29,0.02,0.6,0.04,0.92,0.04c0.16,0.01,0.31,0.01,0.43,0.01s0.25,0,0.36-0.01c0.12,0,0.23,0,0.35-0.01s0.25-0.02,0.42-0.03
				c0.14,0,0.3-0.01,0.48-0.02c0.18-0.01,0.34-0.03,0.5-0.05c0.16-0.01,0.3-0.02,0.42-0.04s0.21-0.03,0.27-0.04
				c0.32-0.05,0.53-0.06,0.63-0.05c0.1,0.01,0.2,0.05,0.31,0.11l0.38,0.22c0.13,0.09,0.2,0.16,0.21,0.22s-0.03,0.16-0.09,0.28
				c-0.06,0.11-0.11,0.18-0.15,0.21c-0.04,0.03-0.11,0.04-0.19,0.01c-0.05-0.01-0.1-0.02-0.16-0.04s-0.12-0.03-0.19-0.04
				c-0.07-0.02-0.14-0.04-0.22-0.05c-0.08-0.01-0.15-0.03-0.22-0.04c-0.2-0.01-0.38-0.02-0.53-0.02s-0.29-0.01-0.44-0.01
				c-0.13,0-0.27,0-0.42,0.01c-0.14,0-0.31,0.01-0.49,0.01c0.06,0.06,0.11,0.11,0.16,0.15c0.05,0.04,0.09,0.08,0.12,0.11
				c0.04,0.08,0.06,0.17,0.06,0.27s-0.03,0.27-0.09,0.5C272.94,52.67,272.9,52.81,272.85,52.95z M278.29,61.49
				c0,0.18-0.05,0.38-0.15,0.58c-0.1,0.2-0.18,0.35-0.24,0.43l-0.2,0.33c-0.04,0.06-0.1,0.08-0.18,0.07
				c-0.08-0.01-0.12-0.05-0.12-0.12v-3.73l-1.7,0.04c-0.04,0-0.13,0-0.28,0.01c-0.15,0-0.31,0.01-0.5,0.02
				c-0.19,0.01-0.37,0.02-0.55,0.02s-0.29,0.01-0.36,0.01l-1.53,0.07c-0.12,0.01-0.23,0.02-0.35,0.02
				c-0.12,0.01-0.24,0.01-0.35,0.01c-0.05,0-0.1,0-0.16,0.01s-0.12,0.01-0.19,0.01c-0.06-0.01-0.12-0.02-0.19-0.04
				c-0.07-0.01-0.13-0.04-0.19-0.08c-0.06-0.03-0.09-0.08-0.1-0.15s-0.01-0.15,0-0.24l0.04-0.47c0.18,0.04,0.38,0.07,0.61,0.09
				c0.22,0.02,0.46,0.03,0.71,0.04c0.25,0,0.51,0,0.79,0s0.55,0,0.83,0c0.44,0,0.83,0,1.15-0.01s0.54-0.01,0.63-0.02l2.22-0.09
				c0.06,0,0.11,0.01,0.15,0.02c0.04,0.01,0.08,0.04,0.11,0.06c0.03,0.03,0.05,0.06,0.07,0.11c0.02,0.04,0.03,0.08,0.03,0.11V61.49z
				 M278.38,53.9l0.58-0.03c0.14,0,0.27-0.01,0.37-0.03c0.11-0.02,0.27-0.06,0.49-0.13c0.09-0.03,0.16-0.05,0.23-0.07
				c0.07-0.02,0.13-0.03,0.19-0.04s0.11-0.01,0.17,0.01s0.12,0.04,0.19,0.08l0.52,0.3c0.07,0.05,0.11,0.11,0.12,0.17
				c0.01,0.07-0.01,0.13-0.06,0.2l-0.07,0.1c-0.06,0.08-0.13,0.13-0.21,0.15c-0.08,0.02-0.17,0.02-0.25-0.01
				c-0.07-0.01-0.15-0.02-0.26-0.02c-0.11,0-0.18-0.01-0.22-0.01h-1.79v1.58c0,0.14-0.03,0.29-0.08,0.44
				c-0.05,0.15-0.11,0.29-0.18,0.42c-0.07,0.13-0.13,0.25-0.2,0.35c-0.06,0.1-0.11,0.17-0.14,0.21c-0.05,0.06-0.11,0.08-0.19,0.07
				c-0.08-0.01-0.12-0.05-0.12-0.11v-7.17c0-0.18-0.05-0.33-0.14-0.45c-0.09-0.12-0.2-0.23-0.34-0.35c-0.1-0.08-0.11-0.19-0.03-0.33
				c0.08-0.14,0.18-0.19,0.3-0.13l0.63,0.29c0.21,0.11,0.34,0.2,0.39,0.28c0.05,0.08,0.07,0.21,0.07,0.38V53.9z"/>
		</g>
	</g>
	<line class="st0" x1="237.91" y1="60.32" x2="249.91" y2="60.32"/>
	<line class="st0" x1="111.79" y1="21.93" x2="96.3" y2="37.42"/>
	<g>
		<path d="M20.32,16.66l-1.2,1.45c-0.56-0.23-1.1-0.35-1.61-0.35c-0.92,0-1.65,0.39-2.18,1.17s-0.8,1.85-0.8,3.21
			c0,0.96,0.19,1.73,0.58,2.31c0.38,0.58,0.88,0.88,1.5,0.88c1.05,0,1.87-0.69,2.47-2.06c0.15,0.17,0.23,0.33,0.23,0.47
			c0,0.58-0.46,1.23-1.37,1.95c-0.91,0.71-1.75,1.07-2.5,1.07c-0.73,0-1.33-0.29-1.8-0.88s-0.7-1.35-0.7-2.28
			c0-1.82,0.62-3.48,1.86-4.97c1.24-1.49,2.61-2.24,4.12-2.24C19.46,16.39,19.93,16.48,20.32,16.66z"/>
		<path d="M23.99,20.66c0.82-1.24,1.73-2.26,2.72-3.06c0.99-0.8,1.83-1.21,2.54-1.21c0.68,0,1.02,0.47,1.02,1.42
			c0,0.28-0.04,0.71-0.12,1.3l-0.56,3.93c-0.12,0.79-0.18,1.41-0.18,1.87c0,0.37,0.1,0.55,0.3,0.55c0.49,0,1.08-0.64,1.79-1.93
			c0.18,0.11,0.26,0.21,0.26,0.33c0,0.46-0.39,1.06-1.18,1.8c-0.78,0.74-1.42,1.11-1.92,1.11c-0.55,0-0.82-0.39-0.82-1.18
			c0-0.58,0.07-1.37,0.22-2.39l0.37-2.55c0.12-0.84,0.18-1.5,0.18-1.99c0-0.54-0.19-0.81-0.58-0.81c-0.9,0-1.81,0.61-2.73,1.83
			s-1.46,2.53-1.62,3.93l-0.28,2.53l-1.58,0.64l0.03-0.3l0.08-0.78l0.08-0.74l1.02-9.25c0.25-2.18,1.05-4.04,2.42-5.59
			c1.37-1.54,2.9-2.32,4.6-2.32c0.35,0,0.69,0.04,1.02,0.12l-1.55,1.52c-0.4-0.12-0.78-0.18-1.14-0.18c-2.09,0-3.31,1.63-3.68,4.9
			L23.99,20.66z"/>
		<path d="M39.28,22.29c-0.79,1.31-1.67,2.38-2.62,3.21s-1.78,1.25-2.48,1.25c-0.96,0-1.44-0.78-1.44-2.33c0-2.14,0.7-3.99,2.1-5.55
			c1.4-1.56,3.06-2.35,4.98-2.35c0.73,0,1.35,0.09,1.87,0.27c-0.04,0.13-0.06,0.2-0.06,0.23l-0.13,0.56
			c-0.08,0.39-0.13,0.61-0.14,0.67l-0.67,4.66l-0.09,0.67c-0.09,0.67-0.14,1.11-0.14,1.34c0,0.3,0.09,0.45,0.26,0.45
			c0.59,0,1.19-0.66,1.81-1.97c0.19,0.11,0.28,0.23,0.28,0.34c0,0.25-0.3,0.74-0.91,1.49c-0.82,1.01-1.59,1.52-2.29,1.52
			c-0.51,0-0.77-0.34-0.77-1.03c0-0.21,0.02-0.5,0.07-0.88L39.03,24l0.14-0.93L39.28,22.29z M39.88,18.12
			c-0.64-0.36-1.29-0.54-1.94-0.54c-0.98,0-1.81,0.6-2.48,1.8c-0.67,1.2-1,2.69-1,4.47c0,0.91,0.27,1.37,0.81,1.37
			c0.63,0,1.38-0.48,2.27-1.43c1.2-1.29,1.92-2.79,2.17-4.53L39.88,18.12z"/>
		<path d="M46.16,26.62l-0.09,0.83c-0.22,2.17-1.01,4.03-2.36,5.58s-2.88,2.31-4.58,2.31c-0.35,0-0.69-0.04-1.01-0.13l1.53-1.52
			c0.4,0.12,0.78,0.18,1.14,0.18c2.09,0,3.3-1.63,3.63-4.88l1.09-10.94c-0.33,0.25-0.68,0.53-1.06,0.85
			c-0.46,0.39-0.87,0.7-1.22,0.93l0.08-0.84c1.19-0.7,2.49-1.71,3.9-3.02l-0.49,4.89c0.75-1.31,1.58-2.38,2.51-3.22
			s1.75-1.26,2.45-1.26c1.01,0,1.52,0.87,1.52,2.6c0,2.06-0.66,3.85-1.99,5.37c-1.33,1.52-2.89,2.28-4.7,2.28L46.16,26.62z
			 M46.31,25.04c0.57,0.36,1.21,0.54,1.93,0.54c0.96,0,1.75-0.56,2.35-1.68c0.6-1.12,0.9-2.58,0.9-4.37c0-1.05-0.29-1.57-0.86-1.57
			c-0.63,0-1.37,0.48-2.23,1.43c-1.15,1.27-1.81,2.78-1.99,4.52L46.31,25.04z"/>
		<path d="M57.87,17.89l-0.51,4.66c-0.09,0.84-0.14,1.46-0.14,1.86c0,0.79,0.27,1.19,0.81,1.19c0.58,0,1.18-0.48,1.81-1.43
			c0.11,0.13,0.16,0.25,0.16,0.36c0,0.39-0.35,0.87-1.04,1.41c-0.69,0.55-1.29,0.82-1.79,0.82c-1,0-1.5-0.64-1.5-1.92
			c0-0.47,0.06-1.23,0.18-2.29l0.51-4.66h-2.21l1.23-1.22h1.12l0.22-1.92l1.55-0.52l-0.26,2.44h4.47l-1.24,1.22H57.87z"/>
		<path d="M68.62,23.13c0.18,0.12,0.26,0.26,0.26,0.42c0,0.22-0.22,0.59-0.67,1.12c-1.2,1.39-2.39,2.09-3.56,2.09
			c-0.72,0-1.31-0.29-1.77-0.85s-0.7-1.3-0.7-2.18c0-1.6,0.61-3.23,1.82-4.87s2.41-2.46,3.6-2.46c0.86,0,1.29,0.46,1.29,1.38
			c0,1.03-0.5,2.04-1.5,3.03s-2.22,1.67-3.67,2.06c0.14,1.69,0.81,2.53,2,2.53C66.9,25.38,67.87,24.63,68.62,23.13z M63.76,21.57
			c0.2,0.07,0.39,0.11,0.56,0.11c0.87,0,1.63-0.27,2.29-0.8c0.65-0.53,0.98-1.16,0.98-1.88c0-0.82-0.42-1.23-1.25-1.23
			c-0.61,0-1.15,0.36-1.64,1.08C64.2,19.56,63.89,20.47,63.76,21.57z"/>
		<path d="M73.69,20.83c1.56-2.96,3.1-4.44,4.61-4.44c0.39,0,0.79,0.09,1.18,0.27l-1.49,1.62c-0.22-0.13-0.51-0.19-0.86-0.19
			c-0.73,0-1.5,0.59-2.31,1.78s-1.29,2.42-1.43,3.7l-0.29,2.57l-1.57,0.53l0.03-0.32l0.07-0.69l0.08-0.69l0.55-5.02l0.06-0.55
			c0.05-0.42,0.07-0.75,0.07-1.01c0-0.43-0.12-0.64-0.36-0.64c-0.56,0-1.12,0.6-1.68,1.8c-0.18-0.13-0.26-0.27-0.25-0.41
			c0.02-0.43,0.41-1,1.18-1.7c0.76-0.71,1.37-1.06,1.81-1.06c0.6,0,0.9,0.39,0.9,1.18c0,0.19-0.02,0.45-0.05,0.77l-0.07,0.74
			l-0.1,0.89L73.69,20.83z"/>
		<path d="M80.3,26.92c-0.31-0.67-0.72-1.17-1.23-1.5l1.55-1.49c0.46,0.34,0.86,0.84,1.22,1.49L80.3,26.92z"/>
		<path d="M89.5,26.48l1.31-1.29c1.91-0.46,3.45-1.23,4.63-2.32c1.18-1.09,1.77-2.28,1.77-3.58c0-0.75-0.28-1.37-0.83-1.86
			c-0.56-0.49-1.26-0.74-2.11-0.74c-1.03,0-2.02,0.38-2.97,1.13c-0.06-0.15-0.09-0.24-0.09-0.28c0-0.37,0.55-0.79,1.66-1.26
			c1.1-0.47,2.09-0.7,2.96-0.7c0.86,0,1.62,0.27,2.28,0.82c0.65,0.55,0.98,1.19,0.98,1.91c0,0.98-0.59,2.14-1.78,3.48
			s-2.63,2.47-4.34,3.41l6.18,0.32l-1.23,1.25L89.5,26.48z"/>
	</g>
</g>
</svg>
