<?xml version="1.0" encoding="utf-8"?>
<!-- Generator: Adobe Illustrator 23.0.1, SVG Export Plug-In . SVG Version: 6.00 Build 0)  -->
<svg version="1.1" id="レイヤー_1" xmlns="http://www.w3.org/2000/svg" xmlns:xlink="http://www.w3.org/1999/xlink" x="0px"
	 y="0px" viewBox="0 0 300 50" style="enable-background:new 0 0 300 50;" xml:space="preserve">
<g>
	<g>
		<path d="M4.01,16.19h6.72c1.21,0,2.31,0.13,3.29,0.39c0.99,0.26,1.83,0.65,2.54,1.18s1.25,1.19,1.63,1.98
			c0.38,0.8,0.57,1.73,0.57,2.81c0,1.08-0.2,2.01-0.59,2.81c-0.39,0.8-0.94,1.46-1.65,1.98c-0.71,0.53-1.56,0.92-2.55,1.19
			c-1,0.27-2.1,0.4-3.31,0.4H6.43v11.05H4.01V16.19z M6.43,26.88h4.1c1.9,0,3.35-0.37,4.33-1.11c0.99-0.74,1.48-1.81,1.48-3.23
			c0-1.48-0.51-2.56-1.53-3.24c-1.02-0.68-2.45-1.02-4.28-1.02h-4.1V26.88z"/>
		<path d="M23.33,39.98h-2.66l10.28-23.79h2.35l10.21,23.79h-2.69l-2.62-6.25h-12.3L23.33,39.98z M26.83,31.52h10.48l-5.24-12.63
			L26.83,31.52z"/>
		<path d="M55.19,39.98h-2.42V29.74l-8.9-13.54h3.02l7.16,11.53l7.22-11.53h2.82l-8.9,13.54V39.98z"/>
		<path d="M69.67,37.83h11.09v2.15H67.25V16.19h2.42V37.83z"/>
		<path d="M86.8,37.83h12.73v2.15H84.38V16.19h14.75v2.15H86.8v8.16h11.52v2.15H86.8V37.83z"/>
		<path d="M111.9,39.98h-2.42V18.34h-7.96v-2.15h18.35v2.15h-7.96V39.98z"/>
		<path d="M131.05,39.98h-2.42V18.34h-7.96v-2.15h18.35v2.15h-7.96V39.98z"/>
		<path d="M145,37.83h12.73v2.15h-15.15V16.19h14.75v2.15H145v8.16h11.52v2.15H145V37.83z"/>
		<path d="M164.89,39.98h-2.42V16.19h6.99c1.16,0,2.25,0.11,3.24,0.34c1,0.22,1.86,0.59,2.59,1.09c0.73,0.5,1.29,1.16,1.7,1.97
			c0.4,0.81,0.6,1.79,0.6,2.96c0,0.87-0.16,1.67-0.47,2.39c-0.31,0.72-0.74,1.34-1.28,1.86c-0.54,0.53-1.18,0.95-1.92,1.26
			c-0.74,0.31-1.55,0.52-2.42,0.6l6.96,11.32h-2.96l-6.59-11.12h-4.03V39.98z M164.89,26.78h4.2c1.95,0,3.45-0.35,4.5-1.06
			c1.05-0.71,1.58-1.76,1.58-3.18c0-0.78-0.15-1.44-0.44-1.98c-0.29-0.54-0.69-0.97-1.21-1.31c-0.52-0.34-1.14-0.58-1.88-0.74
			c-0.74-0.16-1.56-0.24-2.45-0.24h-4.3V26.78z"/>
	</g>
	<g>
		<path d="M185.59,42.05v-0.74h8.67v0.74H185.59z"/>
		<path d="M198.36,32.74c-0.07-0.07-0.09-0.17-0.07-0.3l0.03-0.32l1.02,0.1c0.27,0.03,0.43,0.12,0.5,0.27s0.09,0.27,0.09,0.37v4.25
			c0.27-0.07,0.54-0.14,0.81-0.23c0.27-0.08,0.55-0.18,0.81-0.28c0.03-0.01,0.1,0,0.19,0.03c0.09,0.03,0.17,0.07,0.24,0.1
			c0.1,0.08,0.17,0.17,0.21,0.29c0.04,0.11,0,0.19-0.11,0.24c-0.77,0.34-1.58,0.59-2.42,0.76c-0.84,0.17-1.65,0.3-2.42,0.39
			c-0.34,0.05-0.74,0.08-1.23,0.12c-0.48,0.03-0.88,0.05-1.19,0.05c-0.1,0-0.23-0.01-0.38-0.02c-0.15-0.01-0.3-0.05-0.45-0.12
			c-0.06-0.02-0.09-0.07-0.11-0.14c-0.02-0.07-0.01-0.17,0.01-0.29l0.08-0.5c0.27,0.07,0.56,0.11,0.86,0.12c0.31,0.01,0.64,0.01,1,0
			v-3.48c0-0.21-0.02-0.37-0.05-0.47c-0.03-0.1-0.13-0.18-0.3-0.24c-0.09-0.02-0.17-0.07-0.24-0.13c-0.07-0.07-0.09-0.17-0.07-0.3
			l0.03-0.32l1.02,0.1c0.27,0.03,0.43,0.12,0.5,0.27c0.06,0.15,0.09,0.27,0.09,0.37v4.15l0.32-0.03c0.27-0.01,0.55-0.03,0.85-0.07
			c0.3-0.03,0.61-0.08,0.93-0.15v-3.73c0-0.21-0.02-0.37-0.05-0.47c-0.03-0.1-0.13-0.18-0.3-0.24
			C198.5,32.85,198.42,32.81,198.36,32.74z M195.42,31.73c-0.27,0.02-0.49,0.02-0.66,0c-0.17-0.02-0.31-0.07-0.41-0.13
			c-0.07-0.03-0.11-0.08-0.13-0.13c-0.02-0.06-0.01-0.13,0.01-0.22l0.08-0.62c0.39,0.07,0.8,0.11,1.23,0.14
			c0.43,0.03,0.83,0.04,1.2,0.04c0.31,0,0.59,0,0.81-0.01c0.23-0.01,0.45-0.01,0.66-0.03c0.2-0.02,0.41-0.04,0.62-0.07
			s0.46-0.06,0.74-0.1c0.37-0.05,0.62-0.06,0.74-0.05c0.12,0.01,0.25,0.05,0.37,0.12l0.4,0.25c0.13,0.1,0.21,0.18,0.23,0.25
			c0.02,0.07-0.01,0.17-0.08,0.3c-0.07,0.12-0.13,0.2-0.18,0.24c-0.05,0.04-0.13,0.04-0.23,0.01c-0.1-0.02-0.24-0.05-0.4-0.08
			c-0.17-0.03-0.34-0.05-0.5-0.08c-0.34-0.02-0.68-0.03-1.03-0.03c-0.35,0.01-0.74,0.02-1.19,0.04L195.42,31.73z M204.1,40.39
			c0,0.17-0.03,0.34-0.09,0.51s-0.13,0.34-0.19,0.5c-0.08,0.16-0.15,0.29-0.23,0.41c-0.07,0.12-0.13,0.2-0.16,0.24
			c-0.06,0.07-0.13,0.09-0.22,0.08c-0.09-0.02-0.13-0.06-0.13-0.13v-7.46l-1.5,0.07c-0.13,0.01-0.24,0-0.32-0.03
			c-0.08-0.03-0.14-0.1-0.18-0.19l-0.35-0.52c-0.06-0.07-0.05-0.14,0.01-0.22s0.16-0.1,0.29-0.07l0.39,0.08
			c0.08,0.02,0.18,0.03,0.31,0.03c0.13,0,0.22,0,0.28,0l1.08-0.03v-4.18c0-0.11-0.02-0.21-0.05-0.3c-0.03-0.09-0.07-0.17-0.12-0.24
			c-0.06-0.07-0.12-0.13-0.18-0.2c-0.07-0.07-0.13-0.13-0.2-0.2c-0.11-0.09-0.12-0.22-0.03-0.39c0.09-0.17,0.21-0.22,0.35-0.15
			l0.74,0.34c0.25,0.12,0.39,0.23,0.45,0.33c0.05,0.1,0.08,0.25,0.08,0.46V40.39z M207.08,41.04c0,0.17-0.03,0.34-0.09,0.51
			s-0.13,0.34-0.21,0.5c-0.08,0.16-0.15,0.29-0.23,0.41c-0.07,0.12-0.13,0.2-0.16,0.24c-0.06,0.07-0.13,0.09-0.22,0.08
			c-0.09-0.02-0.13-0.06-0.13-0.13V28.37c0-0.21-0.05-0.39-0.15-0.52c-0.1-0.13-0.23-0.27-0.39-0.4c-0.12-0.09-0.14-0.22-0.04-0.39
			c0.1-0.17,0.22-0.22,0.36-0.15l0.72,0.34c0.26,0.12,0.41,0.23,0.46,0.33c0.05,0.1,0.08,0.24,0.08,0.45V41.04z"/>
		<path d="M210.94,31.69c0.65-0.66,1.53-0.98,2.64-0.98c0.54,0,1.02,0.09,1.46,0.26c0.44,0.17,0.82,0.42,1.14,0.73
			c0.31,0.3,0.56,0.67,0.73,1.09c0.17,0.43,0.26,0.89,0.26,1.39c0,0.5-0.09,0.97-0.27,1.39c-0.18,0.43-0.43,0.79-0.74,1.09
			c-0.33,0.31-0.71,0.55-1.14,0.72c-0.44,0.17-0.92,0.25-1.45,0.25s-1.01-0.08-1.45-0.24c-0.44-0.16-0.83-0.4-1.15-0.7
			c-0.31-0.3-0.56-0.67-0.74-1.09c-0.18-0.43-0.27-0.9-0.27-1.43C209.96,33.18,210.29,32.35,210.94,31.69z M211.71,32.35
			c-0.45,0.5-0.67,1.11-0.67,1.84c0,0.74,0.22,1.35,0.67,1.84c0.45,0.49,1.07,0.73,1.86,0.73c0.78,0,1.4-0.24,1.85-0.71
			c0.45-0.48,0.67-1.09,0.67-1.86c0-0.73-0.21-1.34-0.64-1.84c-0.43-0.5-1.05-0.75-1.88-0.75C212.78,31.6,212.16,31.85,211.71,32.35
			z M221.61,41.04c0,0.17-0.03,0.34-0.09,0.51s-0.13,0.34-0.19,0.5c-0.08,0.16-0.15,0.29-0.23,0.41c-0.07,0.12-0.13,0.2-0.16,0.24
			c-0.06,0.07-0.13,0.09-0.22,0.08c-0.09-0.02-0.13-0.06-0.13-0.13V28.37c0-0.21-0.05-0.39-0.16-0.52c-0.11-0.13-0.24-0.27-0.4-0.4
			c-0.11-0.09-0.12-0.22-0.03-0.39s0.21-0.22,0.35-0.15l0.74,0.34c0.25,0.12,0.39,0.23,0.45,0.33s0.08,0.24,0.08,0.45V41.04z"/>
		<path d="M226.36,37.97c0,0.06,0.02,0.1,0.06,0.13c0.04,0.03,0.08,0.04,0.11,0.04c0.44,0,0.88-0.03,1.34-0.08
			c0.45-0.06,0.9-0.13,1.34-0.24c0.43-0.09,0.83-0.2,1.2-0.34c0.38-0.13,0.7-0.28,0.98-0.44c0.04-0.02,0.11-0.03,0.19-0.03
			c0.08,0.01,0.18,0.04,0.29,0.11c0.16,0.11,0.22,0.22,0.2,0.31c-0.02,0.1-0.14,0.2-0.35,0.33c-0.76,0.44-1.59,0.76-2.48,0.97
			c-0.89,0.21-1.76,0.35-2.6,0.42c-0.08,0.01-0.17,0.02-0.27,0.03c-0.1,0.01-0.19,0.01-0.27,0.01c-0.16,0-0.33-0.09-0.51-0.27
			c-0.18-0.18-0.28-0.35-0.28-0.52v-2.72c0-0.11,0-0.21-0.01-0.29c-0.01-0.08-0.01-0.16-0.03-0.23c-0.02-0.07-0.06-0.13-0.1-0.19
			c-0.05-0.06-0.11-0.11-0.18-0.15c-0.11-0.04-0.2-0.11-0.27-0.21c-0.07-0.1-0.1-0.2-0.1-0.33v-0.34l0.94,0.08l3.34-0.07
			c0.12,0,0.21-0.03,0.27-0.09c0.06-0.06,0.08-0.17,0.08-0.33l0.03-1.98c0-0.14-0.02-0.24-0.05-0.27c-0.03-0.03-0.13-0.05-0.29-0.05
			l-2.34,0.08c-0.13,0-0.27,0.01-0.41,0.02c-0.14,0.01-0.27,0.02-0.39,0.02c-0.1,0.01-0.26,0.02-0.49,0.02s-0.4-0.04-0.52-0.12
			c-0.07-0.03-0.11-0.08-0.13-0.14s-0.02-0.14-0.01-0.23l0.08-0.65c0.43,0.09,0.97,0.14,1.65,0.16c0.67,0.02,1.33,0.01,1.98-0.01
			l1.43-0.08c0.09,0,0.18,0.01,0.27,0.02c0.09,0.01,0.16,0.04,0.22,0.08c0.04,0.06,0.08,0.11,0.09,0.18
			c0.02,0.06,0.03,0.15,0.03,0.28l-0.17,3.44c-0.01,0.2-0.07,0.35-0.18,0.45c-0.11,0.1-0.3,0.14-0.55,0.14l-3.18,0.05
			c0,0.09,0,0.19,0.01,0.29c0.01,0.1,0.01,0.2,0.01,0.3V37.97z M234.16,40.39c0,0.17-0.03,0.34-0.09,0.51s-0.13,0.34-0.19,0.5
			c-0.08,0.16-0.15,0.29-0.23,0.41c-0.07,0.12-0.13,0.2-0.16,0.24c-0.06,0.07-0.13,0.09-0.22,0.08c-0.09-0.02-0.13-0.06-0.13-0.13
			v-7.44l-1.53,0.07c-0.13,0.01-0.24,0-0.32-0.03c-0.08-0.03-0.14-0.1-0.18-0.18l-0.35-0.52c-0.06-0.07-0.05-0.14,0.01-0.22
			c0.06-0.08,0.16-0.1,0.29-0.07l0.39,0.08c0.08,0.02,0.18,0.03,0.31,0.03c0.13,0,0.22,0,0.28,0l1.11-0.03v-4.2
			c0-0.11-0.02-0.21-0.05-0.3c-0.03-0.09-0.07-0.17-0.12-0.24c-0.06-0.07-0.12-0.13-0.19-0.2c-0.07-0.07-0.13-0.13-0.2-0.2
			c-0.11-0.09-0.12-0.22-0.03-0.39c0.09-0.17,0.21-0.22,0.35-0.15l0.74,0.34c0.25,0.12,0.39,0.23,0.45,0.33
			c0.05,0.1,0.08,0.25,0.08,0.46V40.39z M237.05,41.04c0,0.17-0.03,0.34-0.09,0.51s-0.13,0.34-0.21,0.5
			c-0.08,0.16-0.15,0.29-0.23,0.41c-0.07,0.12-0.13,0.2-0.16,0.24c-0.06,0.07-0.13,0.09-0.22,0.08c-0.09-0.02-0.13-0.06-0.13-0.13
			V28.37c0-0.21-0.05-0.39-0.15-0.52c-0.1-0.13-0.23-0.27-0.39-0.4c-0.12-0.09-0.14-0.22-0.04-0.39c0.1-0.17,0.22-0.22,0.36-0.15
			l0.72,0.34c0.26,0.12,0.41,0.23,0.46,0.33s0.08,0.24,0.08,0.45V41.04z"/>
		<path d="M241.04,31.68c0-0.31-0.02-0.52-0.05-0.61c-0.03-0.1-0.12-0.18-0.27-0.24c-0.07-0.02-0.12-0.05-0.15-0.08
			c-0.03-0.03-0.06-0.06-0.07-0.09c-0.01-0.02-0.01-0.06-0.01-0.1c0.01-0.04,0.01-0.1,0.01-0.17V30.1l0.69,0.08h2.82
			c0.11,0,0.28,0,0.5-0.01c0.22-0.01,0.46-0.02,0.72-0.04c0.26-0.01,0.51-0.03,0.75-0.06c0.24-0.03,0.43-0.06,0.56-0.09
			c0.13-0.02,0.24-0.03,0.31-0.02c0.07,0.01,0.15,0.03,0.23,0.07l0.3,0.18c0.17,0.11,0.26,0.2,0.28,0.27
			c0.02,0.07,0.01,0.13-0.03,0.2c-0.09,0.17-0.18,0.27-0.28,0.29c-0.1,0.03-0.23,0.04-0.39,0.04h-4.92c0,0.07,0.01,0.14,0.02,0.21
			c0.01,0.07,0.02,0.14,0.02,0.21v2.5c0.24,0,0.52-0.01,0.87-0.02c0.34-0.01,0.68-0.02,1.02-0.03c0.34,0,0.63-0.01,0.89-0.02
			c0.26-0.01,0.41-0.02,0.47-0.03c0.17-0.01,0.32-0.03,0.45-0.04c0.13-0.02,0.24-0.03,0.33-0.04c0.09,0,0.17,0,0.24,0.01
			c0.07,0.01,0.14,0.02,0.19,0.04l0.29,0.15c0.18,0.1,0.28,0.18,0.31,0.25c0.03,0.07,0.02,0.15-0.03,0.25
			c-0.08,0.16-0.16,0.25-0.25,0.27c-0.09,0.02-0.22,0.03-0.39,0.03h-4.38v2.99c0,0.07,0.02,0.12,0.07,0.15
			c0.05,0.03,0.08,0.05,0.12,0.05c0.55-0.01,1.12-0.04,1.71-0.09c0.59-0.05,1.16-0.13,1.7-0.23c0.55-0.09,1.06-0.19,1.55-0.31
			c0.48-0.12,0.9-0.25,1.26-0.41c0.05-0.02,0.11-0.03,0.19-0.03c0.08,0.01,0.18,0.04,0.29,0.11c0.16,0.11,0.22,0.22,0.2,0.33
			c-0.02,0.11-0.14,0.21-0.35,0.31c-0.91,0.44-1.94,0.75-3.09,0.94c-1.15,0.19-2.27,0.33-3.36,0.4c-0.07,0.01-0.15,0.02-0.26,0.02
			c-0.11,0-0.19,0-0.26,0c-0.16,0-0.33-0.09-0.52-0.26s-0.29-0.34-0.29-0.51V31.68z M251.88,41.04c0,0.17-0.03,0.34-0.09,0.51
			c-0.06,0.17-0.13,0.34-0.21,0.5c-0.07,0.16-0.14,0.29-0.22,0.41c-0.08,0.12-0.13,0.2-0.17,0.24c-0.06,0.07-0.13,0.09-0.22,0.08
			c-0.09-0.02-0.13-0.06-0.13-0.13v-8.33l-2.34,0.12c-0.13,0.01-0.24,0-0.31-0.03c-0.07-0.03-0.13-0.1-0.18-0.19l-0.35-0.54
			c-0.04-0.07-0.04-0.14,0.02-0.22c0.06-0.08,0.15-0.1,0.29-0.07l0.39,0.1c0.07,0.02,0.16,0.03,0.29,0.03c0.13,0,0.23,0,0.29,0
			l1.9-0.08v-5.07c0-0.21-0.05-0.39-0.15-0.52c-0.1-0.13-0.23-0.27-0.39-0.4c-0.11-0.09-0.12-0.22-0.03-0.39
			c0.09-0.17,0.21-0.22,0.35-0.15l0.74,0.34c0.25,0.12,0.4,0.23,0.45,0.33c0.05,0.1,0.08,0.24,0.08,0.45V41.04z"/>
	</g>
</g>
</svg>
