<?xml version="1.0" encoding="utf-8"?>
<!-- Generator: Adobe Illustrator 23.0.1, SVG Export Plug-In . SVG Version: 6.00 Build 0)  -->
<svg version="1.1" id="レイヤー_1" xmlns="http://www.w3.org/2000/svg" xmlns:xlink="http://www.w3.org/1999/xlink" x="0px"
	 y="0px" viewBox="0 0 300 50" style="enable-background:new 0 0 300 50;" xml:space="preserve">
<g>
	<g>
		<path d="M6.43,26.35h0.03l11.32-10.69h3.46l-12,10.79l12.67,13h-3.56L6.47,26.79H6.43v12.67H4.01V15.67h2.42V26.35z"/>
		<path d="M27.53,39.45h-2.42V15.67h2.42V39.45z"/>
		<path d="M50.72,35.93h0.07V15.67h2.42v23.79h-3.02L36.34,18.99h-0.07v20.46h-2.42V15.67h3.02L50.72,35.93z"/>
		<path d="M61.94,39.45h-2.42V15.67h14.35v2.15H61.94v8.23h11.09v2.15H61.94V39.45z"/>
		<path d="M78.24,39.45h-2.66l10.28-23.79h2.35l10.21,23.79h-2.69l-2.62-6.25h-12.3L78.24,39.45z M81.73,30.99h10.48l-5.24-12.63
			L81.73,30.99z"/>
	</g>
	<g>
		<path d="M104.26,41.52v-0.74h8.67v0.74H104.26z"/>
		<path d="M119.82,31.68c-0.17,0.49-0.36,0.95-0.57,1.39l2.45,2.39c0.08,0.08,0.15,0.15,0.22,0.2c0.07,0.06,0.13,0.11,0.2,0.15
			c0.07,0.05,0.14,0.09,0.21,0.13c0.07,0.04,0.15,0.1,0.24,0.15c0.16,0.1,0.27,0.2,0.35,0.29s0.15,0.25,0.22,0.46l0.15,0.54
			c0.03,0.15,0.04,0.25,0.01,0.33c-0.03,0.07-0.08,0.13-0.16,0.16c-0.1,0.07-0.19,0.09-0.27,0.08c-0.08-0.02-0.16-0.08-0.24-0.19
			l-3.73-4.05c-0.3,0.54-0.62,1.03-0.96,1.49c-0.34,0.45-0.67,0.85-0.99,1.2c-0.31,0.36-0.61,0.66-0.9,0.92
			c-0.29,0.25-0.52,0.45-0.7,0.58c-0.07,0.06-0.14,0.1-0.21,0.12c-0.07,0.02-0.13,0.03-0.16,0.03c-0.08,0-0.16-0.02-0.24-0.07
			c-0.08-0.04-0.13-0.13-0.17-0.25c-0.02-0.07-0.02-0.13,0.02-0.2c0.03-0.07,0.07-0.11,0.1-0.13c0.32-0.24,0.72-0.6,1.19-1.1
			c0.47-0.5,0.93-1.08,1.38-1.74c0.45-0.66,0.84-1.37,1.19-2.14c0.35-0.77,0.57-1.54,0.67-2.33c0-0.07-0.01-0.13-0.03-0.19
			c-0.02-0.06-0.1-0.14-0.24-0.24l-0.32-0.24c-0.11-0.07-0.13-0.19-0.05-0.36c0.08-0.17,0.17-0.25,0.27-0.23
			c0.1,0.05,0.21,0.08,0.32,0.12c0.11,0.03,0.22,0.07,0.34,0.12c0.11,0.03,0.22,0.07,0.31,0.11c0.09,0.04,0.19,0.08,0.28,0.13
			c0.12,0.07,0.2,0.16,0.23,0.28c0.03,0.12,0.02,0.31-0.03,0.58C120.12,30.68,119.99,31.2,119.82,31.68z M127.11,40.51
			c0,0.17-0.03,0.34-0.09,0.51c-0.06,0.17-0.13,0.34-0.21,0.5c-0.07,0.16-0.14,0.29-0.22,0.41c-0.08,0.12-0.13,0.2-0.17,0.24
			c-0.06,0.07-0.13,0.09-0.22,0.08c-0.09-0.02-0.13-0.06-0.13-0.13v-8.89l-3.34,0.15c-0.13,0.01-0.24,0-0.32-0.03
			s-0.14-0.1-0.19-0.18l-0.35-0.54c-0.06-0.07-0.05-0.14,0.01-0.22c0.06-0.08,0.16-0.1,0.29-0.07l0.39,0.08
			c0.08,0.02,0.18,0.03,0.31,0.03c0.13,0,0.22,0,0.28,0l2.92-0.12v-4.5c0-0.21-0.05-0.39-0.15-0.52c-0.1-0.13-0.23-0.27-0.39-0.4
			c-0.11-0.09-0.12-0.22-0.03-0.39c0.09-0.17,0.21-0.22,0.35-0.15l0.74,0.34c0.25,0.12,0.4,0.23,0.45,0.33
			c0.05,0.1,0.08,0.24,0.08,0.45V40.51z"/>
		<path d="M137.41,33.93c0,0.2-0.04,0.37-0.11,0.5c-0.07,0.13-0.24,0.19-0.5,0.19l-4.38,0.07c0,0.13-0.01,0.24-0.03,0.32
			c-0.02,0.08-0.06,0.16-0.12,0.24c-0.07,0.06-0.16,0.1-0.29,0.12c-0.12,0.02-0.24,0.01-0.34-0.03c-0.05,0-0.09-0.02-0.14-0.07
			c-0.05-0.04-0.08-0.11-0.08-0.2l-0.03-0.52l-0.3-5.21l-0.3-0.59c-0.06-0.1-0.05-0.19,0.01-0.25s0.14-0.13,0.24-0.2
			c0.12-0.07,0.22-0.1,0.3-0.11c0.08-0.01,0.14,0.01,0.2,0.06l0.42,0.49l4.86-0.08c0.08,0,0.16,0.01,0.26,0.03
			c0.1,0.02,0.17,0.04,0.21,0.08c0.03,0.03,0.06,0.08,0.08,0.15c0.02,0.07,0.03,0.16,0.03,0.27V33.93z M136.37,29.81
			c0-0.13-0.02-0.22-0.05-0.26c-0.03-0.04-0.13-0.06-0.29-0.06l-3.49,0.07c-0.18,0-0.28,0.03-0.31,0.1
			c-0.03,0.07-0.04,0.16-0.03,0.29l0.17,3.88l3.65-0.08c0.12,0,0.21-0.03,0.27-0.09c0.06-0.06,0.08-0.17,0.08-0.33V29.81z
			 M135.21,41.99c-0.13,0-0.27-0.01-0.42-0.03c-0.15-0.02-0.28-0.06-0.4-0.13c-0.12-0.07-0.22-0.17-0.3-0.3
			c-0.08-0.13-0.12-0.31-0.12-0.54v-2.45c0-0.24-0.02-0.42-0.05-0.56c-0.03-0.14-0.13-0.24-0.3-0.31c-0.13-0.03-0.23-0.08-0.29-0.14
			c-0.06-0.06-0.09-0.15-0.09-0.26v-0.3l1.04,0.13c0.18,0.03,0.32,0.08,0.42,0.15c0.1,0.07,0.17,0.15,0.22,0.25
			c0.04,0.1,0.07,0.22,0.08,0.34c0.01,0.13,0.02,0.27,0.02,0.41v2.27c0,0.18,0.02,0.31,0.05,0.4c0.03,0.09,0.15,0.13,0.35,0.13h2.67
			c0.69,0,1.27-0.03,1.72-0.09c0.45-0.06,0.78-0.11,0.98-0.16c0.12-0.03,0.23-0.05,0.31-0.05c0.08,0,0.18,0.02,0.29,0.05l0.65,0.27
			c0.17,0.07,0.27,0.13,0.32,0.2c0.04,0.07,0.05,0.17,0.02,0.32c-0.05,0.17-0.1,0.27-0.16,0.32c-0.06,0.04-0.17,0.07-0.33,0.07
			H135.21z M141.89,36.98c0,0.16-0.03,0.32-0.09,0.5c-0.06,0.17-0.13,0.34-0.21,0.5c-0.08,0.16-0.15,0.3-0.23,0.42
			c-0.07,0.12-0.13,0.21-0.16,0.25c-0.06,0.07-0.13,0.09-0.22,0.08c-0.09-0.02-0.13-0.06-0.13-0.14V27.85
			c0-0.21-0.05-0.39-0.15-0.52c-0.1-0.13-0.23-0.27-0.39-0.4c-0.12-0.09-0.14-0.22-0.04-0.39c0.09-0.17,0.21-0.22,0.36-0.15
			l0.72,0.34c0.26,0.12,0.41,0.23,0.46,0.33c0.05,0.1,0.08,0.24,0.08,0.45V36.98z"/>
		<path d="M147.76,34.55l-1.9,0.05c-0.1,0.01-0.22,0.02-0.34,0.02c-0.13,0.01-0.26,0.01-0.39,0.01c-0.12,0-0.24-0.01-0.36-0.02
			c-0.12-0.01-0.21-0.03-0.28-0.07c-0.07-0.01-0.12-0.06-0.16-0.16c-0.04-0.1-0.04-0.21-0.01-0.34l0.12-0.57
			c0.21,0.06,0.49,0.1,0.82,0.13c0.34,0.03,0.67,0.05,1.01,0.08c0.34,0.02,0.64,0.04,0.92,0.04c0.28,0.01,0.47,0.01,0.57,0.01
			c0.71,0.01,1.38,0.01,2.02,0.01c0.64-0.01,1.25-0.02,1.83-0.04c0.57-0.01,1.11-0.02,1.62-0.04c0.51-0.02,0.99-0.03,1.44-0.04
			c0.17,0,0.38-0.01,0.63-0.03c0.25-0.02,0.51-0.03,0.76-0.04c0.25-0.02,0.47-0.04,0.67-0.05c0.2-0.01,0.34-0.02,0.4-0.03
			c0.35-0.03,0.63-0.05,0.85-0.05c0.22,0,0.38,0.04,0.48,0.12l0.55,0.5c0.08,0.08,0.12,0.15,0.13,0.21
			c0.01,0.06,0.01,0.11-0.02,0.16c-0.03,0.07-0.08,0.13-0.13,0.19c-0.06,0.06-0.12,0.08-0.19,0.06l-1.06-0.17
			c-0.21-0.02-0.47-0.04-0.76-0.05c-0.3-0.01-0.61-0.02-0.93-0.02c-0.31,0-0.62,0-0.93,0c-0.31,0-0.57,0-0.78,0L147.76,34.55z
			 M156,28.25c-0.03,0.18-0.09,0.45-0.17,0.8c-0.08,0.35-0.17,0.72-0.27,1.1c-0.11,0.38-0.22,0.75-0.34,1.1
			c-0.11,0.35-0.21,0.61-0.3,0.78c-0.06,0.11-0.13,0.19-0.23,0.23c-0.1,0.04-0.18,0.05-0.26,0.03c-0.08-0.02-0.14-0.07-0.19-0.14
			c-0.05-0.07-0.06-0.16-0.02-0.26c0.17-0.6,0.31-1.22,0.42-1.85c0.11-0.63,0.2-1.21,0.27-1.75l-1.66,0.02
			c-0.03,0-0.3,0.01-0.81,0.02c-0.5,0.02-1.13,0.04-1.86,0.06c-0.2,0.01-0.39,0.02-0.57,0.02c-0.18,0-0.36,0-0.54,0
			c-0.18,0-0.36,0-0.55-0.01s-0.38-0.01-0.58-0.01c-0.1,0-0.24-0.01-0.42-0.02c-0.18-0.01-0.34-0.03-0.47-0.07
			c-0.08-0.01-0.13-0.05-0.16-0.13c-0.03-0.07-0.03-0.16,0.01-0.28l0.13-0.64c0.19,0.07,0.42,0.12,0.69,0.15
			c0.27,0.03,0.55,0.06,0.84,0.08c0.28,0.01,0.55,0.02,0.81,0.03c0.26,0.01,0.48,0,0.65-0.01c0.22,0,0.49-0.01,0.8-0.02
			s0.6-0.02,0.88-0.02c0.29-0.01,0.54-0.02,0.75-0.03c0.21-0.01,0.33-0.02,0.36-0.02l2.05-0.1c0.09-0.02,0.21-0.02,0.37,0.01
			c0.16,0.03,0.27,0.1,0.35,0.23c0.02,0.03,0.04,0.07,0.05,0.11c0.01,0.04,0.02,0.08,0.02,0.11L156,28.25z M155.85,41.35
			c0,0.2-0.04,0.37-0.11,0.5c-0.07,0.13-0.24,0.19-0.5,0.19l-6.15,0.07c0,0.13-0.01,0.24-0.03,0.33c-0.02,0.08-0.06,0.16-0.13,0.23
			c-0.06,0.07-0.15,0.11-0.28,0.12c-0.13,0.01-0.24,0-0.34-0.03c-0.05,0-0.09-0.02-0.14-0.07c-0.05-0.05-0.08-0.11-0.08-0.2
			l-0.03-0.52l-0.3-4.4l-0.3-0.59c-0.06-0.1-0.05-0.19,0.01-0.25c0.06-0.07,0.14-0.13,0.24-0.2c0.12-0.07,0.22-0.1,0.3-0.11
			c0.08-0.01,0.15,0.01,0.2,0.06l0.42,0.49l6.62-0.12c0.08,0,0.16,0.01,0.26,0.03c0.1,0.02,0.17,0.04,0.21,0.08
			c0.03,0.03,0.06,0.08,0.08,0.15c0.02,0.07,0.03,0.16,0.03,0.27V41.35z M154.81,38.06c0-0.13-0.02-0.22-0.05-0.26
			c-0.03-0.04-0.13-0.06-0.29-0.06l-5.26,0.1c-0.18,0-0.28,0.03-0.31,0.08c-0.03,0.05-0.04,0.15-0.03,0.31l0.17,2.97l5.41-0.08
			c0.17,0,0.27-0.03,0.3-0.09c0.03-0.06,0.05-0.17,0.05-0.33V38.06z"/>
		<path d="M163.82,38.74c0.11-0.32,0.27-0.6,0.49-0.83c-0.03-0.01-0.06-0.03-0.08-0.05c-0.02-0.02-0.03-0.05-0.03-0.08v-2.15
			c0-0.27-0.04-0.47-0.11-0.61c-0.07-0.14-0.17-0.27-0.29-0.38l-0.76,0.02l-1.9,0.07c-0.1,0.01-0.22,0.02-0.34,0.02
			c-0.13,0.01-0.26,0.01-0.4,0.01c-0.12,0-0.24-0.01-0.36-0.02c-0.12-0.01-0.21-0.03-0.28-0.07c-0.07-0.01-0.12-0.06-0.16-0.16
			c-0.04-0.1-0.04-0.21-0.01-0.34l0.12-0.57c0.21,0.06,0.49,0.1,0.82,0.13c0.33,0.03,0.67,0.05,1.01,0.08
			c0.34,0.01,0.64,0.02,0.92,0.03c0.28,0.01,0.47,0.01,0.57,0.01c0.71,0.01,1.38,0.01,2.02,0.01c0.64-0.01,1.25-0.02,1.83-0.04
			c0.57-0.01,1.11-0.03,1.62-0.04c0.51-0.02,0.99-0.04,1.44-0.06c0.17,0,0.38-0.01,0.63-0.02c0.25-0.01,0.51-0.03,0.76-0.05
			c0.25-0.01,0.47-0.02,0.67-0.03c0.2-0.01,0.34-0.02,0.4-0.03c0.35-0.03,0.63-0.05,0.85-0.06c0.22-0.01,0.38,0.03,0.48,0.11
			l0.55,0.5c0.08,0.08,0.12,0.15,0.14,0.21c0.01,0.06,0.01,0.11-0.02,0.16c-0.03,0.07-0.08,0.13-0.13,0.19s-0.12,0.08-0.18,0.06
			l-1.06-0.17c-0.2-0.01-0.44-0.02-0.71-0.03c-0.27-0.01-0.55-0.02-0.84-0.03c-0.29,0-0.58,0-0.87,0c-0.29,0-0.55,0-0.77,0
			c0.24,0.12,0.37,0.26,0.42,0.42c0.05,0.16,0.07,0.33,0.07,0.52v0.96c0,0.19-0.08,0.43-0.23,0.71c-0.15,0.29-0.27,0.5-0.36,0.65
			c0.26,0.25,0.46,0.54,0.61,0.88c0.15,0.34,0.23,0.73,0.23,1.15c0,0.47-0.09,0.88-0.27,1.24s-0.42,0.67-0.72,0.92
			c-0.31,0.25-0.68,0.43-1.1,0.56s-0.87,0.19-1.35,0.19c-1.01,0-1.84-0.26-2.5-0.78c-0.66-0.52-0.99-1.23-0.99-2.14
			C163.65,39.41,163.7,39.06,163.82,38.74z M164.53,27.8c0.58-0.55,1.42-0.82,2.53-0.82c1.08,0,1.91,0.27,2.5,0.82
			c0.59,0.55,0.88,1.21,0.88,1.98c0,0.81-0.3,1.47-0.92,2c-0.61,0.53-1.43,0.79-2.46,0.79c-1.05,0-1.88-0.26-2.49-0.79
			c-0.61-0.53-0.91-1.19-0.91-2C163.66,29.01,163.95,28.34,164.53,27.8z M165.33,38.33c-0.4,0.36-0.61,0.85-0.61,1.46
			c0,0.57,0.21,1.04,0.61,1.42c0.41,0.38,1.01,0.56,1.81,0.56c0.82,0,1.42-0.19,1.8-0.56c0.38-0.38,0.57-0.85,0.57-1.42
			c0-0.62-0.2-1.1-0.6-1.46c-0.4-0.36-0.99-0.54-1.77-0.54C166.34,37.79,165.73,37.97,165.33,38.33z M165.3,28.44
			c-0.37,0.39-0.56,0.83-0.56,1.34c0,0.49,0.19,0.93,0.56,1.32c0.38,0.39,0.96,0.58,1.76,0.58c0.78,0,1.36-0.19,1.74-0.58
			c0.37-0.39,0.56-0.83,0.56-1.32c0-0.5-0.18-0.95-0.55-1.34c-0.36-0.39-0.95-0.58-1.76-0.58C166.26,27.86,165.68,28.06,165.3,28.44
			z M165.24,36.4c0,0.15-0.05,0.32-0.13,0.51c-0.09,0.2-0.18,0.38-0.27,0.55c0.3-0.2,0.65-0.35,1.03-0.45
			c0.39-0.1,0.81-0.15,1.27-0.15c0.4,0,0.79,0.05,1.15,0.14c0.37,0.1,0.7,0.23,1,0.41v-1.78c0-0.31-0.05-0.54-0.14-0.68
			c-0.1-0.14-0.22-0.28-0.38-0.41h-0.02v-0.02l-3.81,0.1c0.13,0.11,0.22,0.24,0.25,0.38c0.03,0.14,0.05,0.29,0.05,0.45V36.4z"/>
		<path d="M180.02,29.4c-0.02,0.01-0.04,0.01-0.06,0.01c-0.02,0-0.04,0-0.06,0c-0.02,0-0.03,0-0.04,0c0.12,0.08,0.24,0.16,0.34,0.25
			c0.11,0.09,0.18,0.16,0.23,0.22c0.05,0.09,0.06,0.2,0.03,0.34c-0.02,0.13-0.07,0.34-0.15,0.6c-0.04,0.13-0.1,0.27-0.15,0.42
			c-0.06,0.15-0.12,0.29-0.18,0.42l2.22,1.88c0.08,0.08,0.15,0.14,0.23,0.19c0.07,0.05,0.15,0.1,0.23,0.14
			c0.08,0.04,0.16,0.09,0.24,0.13c0.08,0.04,0.18,0.08,0.28,0.13c0.16,0.08,0.28,0.17,0.37,0.26c0.09,0.1,0.18,0.24,0.27,0.45
			l0.19,0.5c0.04,0.13,0.06,0.24,0.03,0.32c-0.02,0.08-0.07,0.14-0.13,0.18c-0.1,0.07-0.19,0.1-0.26,0.08
			c-0.07-0.01-0.16-0.07-0.26-0.17l-3.73-3.46c-0.4,0.67-0.92,1.33-1.54,1.97c-0.62,0.64-1.3,1.2-2.04,1.67
			c-0.05,0.03-0.1,0.06-0.15,0.09c-0.06,0.03-0.12,0.05-0.18,0.08c-0.06,0.02-0.12,0.04-0.18,0.04c-0.07,0.01-0.12-0.01-0.17-0.04
			c-0.11-0.07-0.17-0.17-0.18-0.32c-0.01-0.14,0.04-0.26,0.15-0.34c1.3-0.87,2.26-1.78,2.9-2.72c0.63-0.94,1-1.76,1.1-2.47
			c0-0.07-0.01-0.13-0.03-0.2c-0.02-0.07-0.04-0.13-0.08-0.18c-0.03-0.02-0.07-0.05-0.12-0.08c-0.04-0.03-0.09-0.07-0.13-0.1
			c-0.05-0.03-0.09-0.07-0.14-0.11c-0.05-0.04-0.1-0.08-0.16-0.11l-1.38,0.1c-0.27,0.02-0.49,0.03-0.66,0.01
			c-0.17-0.02-0.31-0.06-0.41-0.13c-0.07-0.04-0.11-0.1-0.12-0.15c-0.01-0.06-0.01-0.13,0.02-0.24l0.07-0.62
			c0.39,0.07,0.76,0.11,1.1,0.14s0.7,0.04,1.07,0.04c0.19,0.01,0.36,0.02,0.5,0.02c0.15,0,0.29-0.01,0.42-0.02
			c0.13,0,0.27-0.01,0.4-0.02c0.13-0.01,0.3-0.02,0.49-0.03c0.17,0,0.36-0.01,0.56-0.03c0.21-0.02,0.4-0.04,0.58-0.06
			c0.19-0.01,0.36-0.02,0.5-0.04s0.24-0.03,0.31-0.04c0.37-0.06,0.61-0.08,0.73-0.06c0.12,0.02,0.24,0.06,0.36,0.13l0.44,0.25
			c0.16,0.1,0.24,0.19,0.24,0.26c0.01,0.07-0.03,0.18-0.11,0.33c-0.07,0.12-0.13,0.2-0.18,0.24c-0.05,0.04-0.13,0.04-0.23,0.01
			c-0.06-0.01-0.12-0.03-0.19-0.04c-0.07-0.02-0.14-0.03-0.22-0.04c-0.08-0.02-0.16-0.04-0.25-0.06c-0.09-0.02-0.17-0.03-0.25-0.04
			c-0.26-0.01-0.48-0.02-0.66-0.03c-0.18-0.01-0.36-0.01-0.53-0.01c-0.17,0-0.35,0-0.54,0.01c-0.19,0.01-0.41,0.01-0.67,0.03
			C180.06,29.39,180.04,29.39,180.02,29.4z M180.45,41.99c-0.13,0-0.27-0.01-0.42-0.02c-0.15-0.01-0.28-0.05-0.4-0.12
			c-0.12-0.07-0.22-0.17-0.3-0.29c-0.08-0.13-0.12-0.31-0.12-0.55v-2.54c0-0.24-0.02-0.42-0.05-0.55c-0.03-0.13-0.13-0.23-0.3-0.31
			c-0.13-0.04-0.23-0.09-0.29-0.14c-0.06-0.05-0.09-0.14-0.09-0.28v-0.44l1.04,0.12c0.18,0.03,0.32,0.08,0.42,0.15
			c0.1,0.07,0.17,0.15,0.22,0.25c0.04,0.1,0.07,0.22,0.08,0.35c0.01,0.13,0.02,0.27,0.02,0.42v2.52c0,0.18,0.02,0.31,0.05,0.39
			c0.03,0.08,0.15,0.13,0.35,0.13h2.65c0.68,0,1.25-0.02,1.7-0.08c0.45-0.05,0.78-0.1,0.98-0.16c0.12-0.03,0.23-0.05,0.31-0.06
			c0.08-0.01,0.18,0.01,0.29,0.06l0.65,0.27c0.17,0.07,0.27,0.13,0.32,0.18c0.04,0.06,0.05,0.16,0.02,0.32
			c-0.05,0.17-0.1,0.27-0.16,0.3c-0.06,0.03-0.17,0.05-0.33,0.05H180.45z M187.22,36.82c0,0.17-0.03,0.34-0.09,0.51
			s-0.13,0.34-0.21,0.5c-0.08,0.16-0.15,0.29-0.23,0.41c-0.07,0.12-0.13,0.2-0.16,0.24c-0.06,0.07-0.13,0.1-0.22,0.08
			c-0.09-0.01-0.13-0.06-0.13-0.15V27.85c0-0.21-0.05-0.39-0.15-0.52c-0.1-0.13-0.23-0.27-0.39-0.4c-0.12-0.09-0.14-0.22-0.04-0.39
			c0.1-0.17,0.22-0.22,0.36-0.15l0.72,0.34c0.26,0.12,0.41,0.23,0.46,0.33c0.05,0.1,0.08,0.24,0.08,0.45V36.82z"/>
		<path d="M192.95,36.62l-1.9,0.05c-0.1,0.01-0.22,0.02-0.34,0.03c-0.13,0.01-0.26,0.01-0.4,0.01c-0.12,0-0.24-0.01-0.36-0.02
			c-0.12-0.01-0.21-0.03-0.28-0.07c-0.07-0.01-0.12-0.06-0.16-0.16c-0.04-0.1-0.04-0.21-0.01-0.34l0.12-0.57
			c0.21,0.06,0.49,0.1,0.82,0.13c0.34,0.03,0.67,0.05,1.01,0.08c0.34,0.02,0.64,0.04,0.92,0.04c0.28,0.01,0.47,0.01,0.57,0.01
			c0.71,0.01,1.38,0.01,2.02,0.01c0.64-0.01,1.25-0.02,1.83-0.04c0.57-0.01,1.11-0.03,1.62-0.04c0.51-0.02,0.99-0.04,1.44-0.06
			c0.17,0,0.38-0.01,0.63-0.03c0.25-0.02,0.51-0.03,0.76-0.04c0.25-0.02,0.47-0.04,0.67-0.05s0.34-0.02,0.4-0.03
			c0.35-0.03,0.63-0.05,0.85-0.05c0.22,0,0.38,0.04,0.48,0.12l0.55,0.5c0.08,0.08,0.12,0.15,0.13,0.21
			c0.01,0.06,0.01,0.12-0.02,0.16c-0.03,0.07-0.08,0.13-0.13,0.19s-0.12,0.08-0.19,0.06l-1.06-0.17c-0.21-0.02-0.47-0.04-0.76-0.05
			c-0.3-0.01-0.61-0.02-0.93-0.02c-0.31,0-0.62,0-0.93,0c-0.31,0-0.57,0-0.78,0L192.95,36.62z M195.89,29.29
			c-0.32,0.01-0.65,0.02-0.99,0.02c-0.35,0.01-0.68,0.02-1.01,0.03c-0.33,0.01-0.62,0.02-0.87,0.03c-0.26,0.02-0.48,0.03-0.66,0.01
			c-0.18-0.02-0.33-0.06-0.43-0.13c-0.07-0.04-0.11-0.1-0.13-0.15c-0.02-0.06-0.01-0.13,0.01-0.24l0.12-0.62
			c0.38,0.07,0.78,0.11,1.19,0.14s0.81,0.04,1.18,0.04c0.15,0.02,0.3,0.03,0.45,0.03c0.16,0,0.32,0,0.49,0s0.34,0,0.5-0.01
			c0.17-0.01,0.34-0.01,0.52-0.03v-0.71c0-0.24-0.02-0.4-0.07-0.5c-0.05-0.1-0.14-0.21-0.29-0.34c-0.07-0.06-0.07-0.15-0.02-0.28
			c0.06-0.13,0.13-0.18,0.24-0.16l0.64,0.2c0.26,0.09,0.41,0.19,0.45,0.31c0.04,0.12,0.07,0.28,0.07,0.48v0.97
			c0.26-0.01,0.53-0.02,0.83-0.03c0.3-0.01,0.57-0.02,0.83-0.03c0.26-0.02,0.48-0.04,0.67-0.05c0.19-0.01,0.31-0.02,0.37-0.03
			c0.35-0.04,0.59-0.06,0.71-0.05c0.13,0.01,0.25,0.05,0.38,0.12l0.44,0.25c0.15,0.09,0.22,0.17,0.24,0.25
			c0.01,0.08-0.02,0.18-0.1,0.32c-0.07,0.12-0.13,0.2-0.18,0.24c-0.05,0.04-0.13,0.04-0.23,0.01c-0.06,0-0.12-0.01-0.18-0.03
			c-0.07-0.02-0.14-0.04-0.22-0.06c-0.08-0.01-0.16-0.03-0.25-0.04c-0.09-0.02-0.17-0.03-0.25-0.04c-0.5-0.03-1.09-0.05-1.76-0.04
			c-0.67,0.01-1.27,0.02-1.81,0.04C196.51,29.26,196.21,29.28,195.89,29.29z M194.36,38.25c0.66-0.44,1.5-0.66,2.5-0.66
			c0.46,0,0.9,0.06,1.32,0.17c0.42,0.11,0.79,0.27,1.1,0.49c0.31,0.21,0.56,0.48,0.75,0.81c0.19,0.33,0.28,0.69,0.28,1.11
			c0,0.82-0.33,1.45-0.99,1.89c-0.66,0.44-1.48,0.66-2.45,0.66c-1.01,0-1.84-0.22-2.5-0.66c-0.66-0.44-0.99-1.07-0.99-1.89
			C193.37,39.32,193.7,38.68,194.36,38.25z M193.77,31.31c0.17-0.3,0.4-0.56,0.71-0.77c0.29-0.2,0.63-0.36,1.02-0.46
			c0.39-0.11,0.81-0.16,1.26-0.16c0.41,0,0.81,0.05,1.2,0.16c0.39,0.11,0.73,0.26,1.02,0.46c0.3,0.21,0.54,0.47,0.71,0.77
			c0.17,0.3,0.26,0.65,0.26,1.04c0,0.37-0.08,0.7-0.25,0.99c-0.17,0.29-0.4,0.54-0.69,0.74c-0.28,0.21-0.62,0.37-1.01,0.48
			c-0.39,0.11-0.81,0.16-1.24,0.16c-0.45,0-0.87-0.05-1.26-0.16c-0.39-0.11-0.73-0.27-1.02-0.48c-0.3-0.2-0.54-0.45-0.71-0.74
			c-0.17-0.29-0.25-0.62-0.25-0.99C193.52,31.96,193.6,31.61,193.77,31.31z M195.05,38.97c-0.4,0.29-0.6,0.69-0.6,1.19
			c0,0.5,0.2,0.9,0.61,1.18c0.41,0.29,1.01,0.43,1.81,0.43c0.78,0,1.37-0.14,1.77-0.43c0.4-0.29,0.6-0.68,0.6-1.18
			c0-0.5-0.2-0.9-0.6-1.19c-0.4-0.29-0.99-0.44-1.77-0.44C196.05,38.53,195.45,38.68,195.05,38.97z M195.11,31.21
			c-0.36,0.27-0.55,0.65-0.55,1.12c0,0.45,0.2,0.81,0.59,1.08c0.39,0.27,0.93,0.41,1.61,0.41c0.72,0,1.25-0.14,1.61-0.41
			c0.36-0.27,0.54-0.64,0.54-1.08c0-0.47-0.18-0.84-0.55-1.12c-0.36-0.27-0.9-0.41-1.6-0.41C196.02,30.8,195.47,30.94,195.11,31.21z
			"/>
		<path d="M210.15,36.21c0,0.11-0.03,0.24-0.08,0.39c-0.06,0.15-0.12,0.29-0.2,0.42c-0.07,0.15-0.14,0.28-0.21,0.4
			c-0.07,0.12-0.13,0.2-0.16,0.24c-0.05,0.07-0.12,0.09-0.23,0.08c-0.11-0.02-0.16-0.06-0.16-0.14v-1.97c0-0.18-0.02-0.33-0.05-0.45
			c-0.03-0.12-0.08-0.22-0.13-0.31l-0.4,0.03c-0.17,0.02-0.39,0.05-0.65,0.07c-0.27,0.02-0.55,0.05-0.84,0.07
			c-0.29,0.01-0.58,0.02-0.86,0.03c-0.28,0.01-0.52,0.01-0.71,0c-0.1,0-0.23-0.01-0.38-0.02c-0.15-0.01-0.3-0.05-0.45-0.12
			c-0.06-0.02-0.09-0.07-0.11-0.14c-0.02-0.07-0.01-0.18,0.01-0.31l0.08-0.49c0.45,0.09,1.03,0.13,1.76,0.13
			c0.72-0.01,1.41-0.04,2.06-0.09c0.4-0.03,0.86-0.08,1.37-0.13c0.51-0.05,1.03-0.11,1.57-0.19c0.54-0.08,1.06-0.17,1.58-0.29
			c0.52-0.11,0.98-0.24,1.39-0.39c0.03-0.01,0.1,0,0.18,0.04c0.09,0.04,0.17,0.08,0.24,0.11c0.1,0.05,0.17,0.13,0.22,0.25
			c0.04,0.12,0.01,0.21-0.12,0.25c-0.69,0.27-1.49,0.49-2.39,0.66c-0.9,0.17-1.73,0.3-2.5,0.39c0.07,0.1,0.11,0.21,0.13,0.33
			c0.02,0.12,0.03,0.24,0.03,0.38V36.21z M206.76,29.08c0.13-0.34,0.34-0.64,0.6-0.9c0.27-0.26,0.6-0.46,1.01-0.61
			c0.4-0.15,0.87-0.23,1.41-0.23c1.04,0,1.84,0.28,2.39,0.83c0.55,0.55,0.82,1.21,0.82,1.97c0,0.78-0.28,1.44-0.85,1.98
			c-0.57,0.54-1.35,0.81-2.36,0.81c-1.06,0-1.87-0.27-2.41-0.81c-0.54-0.54-0.81-1.2-0.81-1.98
			C206.55,29.78,206.62,29.42,206.76,29.08z M208.18,28.75c-0.37,0.35-0.55,0.81-0.55,1.39c0,0.54,0.18,0.99,0.55,1.35
			c0.37,0.36,0.9,0.55,1.6,0.55c0.72,0,1.25-0.18,1.6-0.55c0.35-0.36,0.53-0.81,0.53-1.35c0-0.55-0.19-1-0.55-1.37
			c-0.37-0.36-0.9-0.55-1.58-0.55C209.09,28.23,208.55,28.41,208.18,28.75z M210.3,41.99c-0.13,0-0.27-0.01-0.42-0.02
			c-0.15-0.01-0.28-0.05-0.4-0.12c-0.12-0.07-0.22-0.17-0.3-0.29c-0.08-0.13-0.12-0.31-0.12-0.55v-1.19c0-0.24-0.02-0.42-0.05-0.55
			c-0.03-0.13-0.13-0.23-0.3-0.31c-0.13-0.04-0.23-0.09-0.29-0.14c-0.06-0.05-0.09-0.14-0.09-0.28v-0.44l1.04,0.12
			c0.18,0.03,0.32,0.08,0.42,0.15c0.1,0.07,0.17,0.15,0.22,0.25c0.04,0.1,0.07,0.22,0.08,0.35c0.01,0.13,0.02,0.27,0.02,0.42v1.18
			c0,0.18,0.02,0.31,0.05,0.39c0.03,0.08,0.15,0.13,0.35,0.13h2.65c0.68,0,1.25-0.02,1.71-0.08c0.45-0.05,0.78-0.1,0.98-0.16
			c0.12-0.03,0.23-0.05,0.31-0.06c0.08-0.01,0.18,0.01,0.29,0.06l0.66,0.27c0.17,0.07,0.27,0.13,0.32,0.18
			c0.05,0.06,0.05,0.16,0.02,0.32c-0.05,0.17-0.1,0.27-0.16,0.3c-0.06,0.03-0.17,0.05-0.33,0.05H210.3z M217.05,37.45
			c0,0.17-0.03,0.34-0.09,0.51c-0.06,0.17-0.13,0.34-0.21,0.5c-0.08,0.16-0.15,0.29-0.23,0.41c-0.07,0.12-0.13,0.2-0.16,0.24
			c-0.06,0.07-0.13,0.09-0.22,0.08c-0.09-0.02-0.13-0.06-0.13-0.13v-2.45l-3.33,0.13c-0.13,0.01-0.24,0-0.32-0.03
			s-0.14-0.1-0.18-0.18l-0.35-0.5c-0.06-0.07-0.05-0.14,0.01-0.22c0.06-0.08,0.16-0.1,0.29-0.07l0.39,0.08
			c0.08,0.02,0.18,0.03,0.31,0.03c0.13,0,0.22,0,0.28,0l2.91-0.08v-7.93c0-0.21-0.05-0.39-0.15-0.52c-0.1-0.13-0.23-0.27-0.39-0.4
			c-0.12-0.09-0.14-0.22-0.05-0.39c0.09-0.17,0.21-0.22,0.37-0.15l0.72,0.34c0.26,0.12,0.41,0.23,0.46,0.33
			c0.05,0.1,0.08,0.24,0.08,0.45V37.45z"/>
	</g>
</g>
</svg>
