<?xml version="1.0" encoding="utf-8"?>
<!-- Generator: Adobe Illustrator 23.0.1, SVG Export Plug-In . SVG Version: 6.00 Build 0)  -->
<svg version="1.1" id="レイヤー_1" xmlns="http://www.w3.org/2000/svg" xmlns:xlink="http://www.w3.org/1999/xlink" x="0px"
	 y="0px" viewBox="0 0 300 50" style="enable-background:new 0 0 300 50;" xml:space="preserve">
<g>
	<path d="M6.43,39.98H4.01V16.19h2.42V39.98z"/>
	<path d="M15.17,26.88h0.03l11.32-10.69h3.46l-12,10.79l12.67,13H27.1L15.2,27.32h-0.03v12.67h-2.42V16.19h2.42V26.88z"/>
	<path d="M36.27,37.83H49v2.15H33.85V16.19H48.6v2.15H36.27v8.16H47.8v2.15H36.27V37.83z"/>
	<path d="M53.57,39.98h-2.65L61.2,16.19h2.35l10.21,23.79h-2.69l-2.62-6.25h-12.3L53.57,39.98z M57.07,31.52h10.48l-5.24-12.63
		L57.07,31.52z"/>
</g>
<g>
	<path d="M77.05,42.05v-0.74h8.67v0.74H77.05z"/>
	<path d="M87.12,31.69c0.65-0.66,1.53-0.98,2.64-0.98c0.54,0,1.02,0.09,1.46,0.26c0.44,0.17,0.82,0.42,1.14,0.73
		c0.31,0.3,0.56,0.67,0.73,1.09c0.17,0.43,0.26,0.89,0.26,1.39c0,0.5-0.09,0.97-0.27,1.39c-0.18,0.43-0.43,0.79-0.74,1.09
		c-0.32,0.31-0.71,0.55-1.14,0.72c-0.44,0.17-0.92,0.25-1.45,0.25s-1.01-0.08-1.45-0.24c-0.44-0.16-0.83-0.4-1.15-0.7
		c-0.31-0.3-0.56-0.67-0.74-1.09c-0.18-0.43-0.27-0.9-0.27-1.43C86.14,33.18,86.47,32.35,87.12,31.69z M87.89,32.35
		c-0.45,0.5-0.67,1.11-0.67,1.84c0,0.74,0.22,1.35,0.67,1.84c0.45,0.49,1.07,0.73,1.86,0.73c0.78,0,1.4-0.24,1.85-0.71
		c0.45-0.48,0.67-1.09,0.67-1.86c0-0.73-0.21-1.34-0.64-1.84c-0.43-0.5-1.05-0.75-1.88-0.75C88.96,31.6,88.34,31.85,87.89,32.35z
		 M97.78,41.04c0,0.17-0.03,0.34-0.09,0.51s-0.13,0.34-0.19,0.5c-0.08,0.16-0.15,0.29-0.23,0.41c-0.07,0.12-0.13,0.2-0.16,0.24
		c-0.06,0.07-0.13,0.09-0.22,0.08c-0.09-0.02-0.13-0.06-0.13-0.13V28.37c0-0.21-0.05-0.39-0.16-0.52c-0.11-0.13-0.24-0.27-0.39-0.4
		c-0.11-0.09-0.12-0.22-0.03-0.39c0.09-0.17,0.21-0.22,0.35-0.15l0.74,0.34c0.25,0.12,0.39,0.23,0.44,0.33
		c0.05,0.1,0.08,0.24,0.08,0.45V41.04z"/>
	<path d="M106.55,31.35c-0.03,0.36-0.1,0.86-0.21,1.51s-0.24,1.35-0.39,2.1c-0.16,0.76-0.34,1.52-0.54,2.28
		c-0.2,0.76-0.4,1.42-0.6,1.99c-0.06,0.13-0.14,0.23-0.25,0.29c-0.11,0.06-0.22,0.07-0.34,0.05c-0.11-0.01-0.2-0.06-0.27-0.13
		c-0.07-0.08-0.08-0.18-0.03-0.32c0.2-0.64,0.4-1.32,0.59-2.05c0.19-0.73,0.36-1.46,0.5-2.18c-0.6,0.1-1.21,0.19-1.81,0.26
		c-0.6,0.07-1.31,0.12-2.12,0.14c-0.26,0.01-0.46,0.01-0.6,0.01c-0.15-0.01-0.25-0.03-0.3-0.06c-0.07-0.02-0.12-0.08-0.15-0.16
		c-0.03-0.08-0.04-0.2-0.02-0.34l0.07-0.45c0.39,0.07,0.75,0.1,1.07,0.11s0.71,0,1.18-0.01c0.41,0,0.88-0.04,1.41-0.11
		c0.53-0.07,1.01-0.16,1.44-0.26c0.08-0.5,0.15-0.98,0.2-1.43c0.06-0.45,0.09-0.85,0.12-1.21l-1.48,0.05
		c-0.22,0.01-0.43,0.02-0.61,0.03c-0.18,0.01-0.37,0.02-0.55,0.03c-0.18,0.01-0.37,0.02-0.57,0.03c-0.2,0.01-0.43,0.02-0.69,0.03
		c-0.26,0.02-0.46,0.03-0.6,0.02c-0.15-0.01-0.25-0.03-0.3-0.07c-0.07-0.02-0.12-0.08-0.16-0.16s-0.04-0.2-0.01-0.34l0.08-0.57
		c0.19,0.03,0.37,0.06,0.54,0.08c0.17,0.02,0.34,0.03,0.52,0.04c0.17,0.01,0.35,0.02,0.54,0.03c0.19,0.01,0.4,0.02,0.64,0.02
		c0.22,0.01,0.42,0.01,0.59,0.01c0.17-0.01,0.38-0.02,0.62-0.04l1.7-0.13c0.01,0,0.02,0,0.03,0c0.02-0.01,0.04-0.02,0.05-0.02
		c0.13,0,0.26,0.02,0.37,0.06c0.11,0.04,0.2,0.08,0.27,0.11c0.03,0.03,0.06,0.07,0.08,0.12c0.02,0.05,0.03,0.08,0.03,0.12
		L106.55,31.35z M110.03,40.39c0,0.17-0.03,0.34-0.09,0.51s-0.13,0.34-0.19,0.5c-0.08,0.16-0.15,0.29-0.23,0.41
		c-0.07,0.12-0.13,0.2-0.16,0.24c-0.06,0.07-0.13,0.09-0.22,0.08c-0.09-0.02-0.13-0.06-0.13-0.13v-7.16l-1.53,0.08
		c-0.13,0.01-0.24,0-0.32-0.03c-0.08-0.03-0.14-0.1-0.18-0.18l-0.35-0.52c-0.06-0.07-0.05-0.14,0.01-0.22s0.16-0.1,0.29-0.07
		l0.39,0.08c0.08,0.02,0.18,0.03,0.31,0.03s0.22,0,0.28,0l1.11-0.03v-4.5c0-0.11-0.02-0.21-0.05-0.3c-0.03-0.09-0.07-0.17-0.12-0.24
		c-0.06-0.07-0.12-0.13-0.18-0.2c-0.07-0.07-0.13-0.13-0.2-0.2c-0.11-0.09-0.12-0.22-0.03-0.39c0.09-0.17,0.21-0.22,0.35-0.15
		l0.74,0.34c0.25,0.12,0.39,0.23,0.45,0.33c0.05,0.1,0.08,0.25,0.08,0.46V40.39z M113.07,41.04c0,0.17-0.03,0.34-0.09,0.51
		s-0.13,0.34-0.21,0.5c-0.08,0.16-0.15,0.29-0.23,0.41c-0.07,0.12-0.13,0.2-0.16,0.24c-0.06,0.07-0.13,0.09-0.22,0.08
		c-0.09-0.02-0.13-0.06-0.13-0.13V28.37c0-0.21-0.05-0.39-0.15-0.52c-0.1-0.13-0.23-0.27-0.39-0.4c-0.12-0.09-0.14-0.22-0.04-0.39
		c0.09-0.17,0.22-0.22,0.36-0.15l0.72,0.34c0.26,0.12,0.41,0.23,0.46,0.33c0.05,0.1,0.08,0.24,0.08,0.45V41.04z"/>
	<path d="M116.85,31.69c0.65-0.66,1.53-0.98,2.64-0.98c0.54,0,1.02,0.09,1.46,0.26c0.44,0.17,0.82,0.42,1.14,0.73
		c0.31,0.3,0.56,0.67,0.73,1.09c0.17,0.43,0.26,0.89,0.26,1.39c0,0.5-0.09,0.97-0.27,1.39c-0.18,0.43-0.43,0.79-0.74,1.09
		c-0.33,0.31-0.71,0.55-1.14,0.72c-0.44,0.17-0.92,0.25-1.44,0.25s-1.01-0.08-1.45-0.24c-0.44-0.16-0.83-0.4-1.15-0.7
		c-0.31-0.3-0.56-0.67-0.74-1.09c-0.18-0.43-0.27-0.9-0.27-1.43C115.88,33.18,116.2,32.35,116.85,31.69z M117.62,32.35
		c-0.45,0.5-0.67,1.11-0.67,1.84c0,0.74,0.22,1.35,0.67,1.84c0.45,0.49,1.07,0.73,1.86,0.73c0.78,0,1.4-0.24,1.85-0.71
		c0.45-0.48,0.67-1.09,0.67-1.86c0-0.73-0.21-1.34-0.64-1.84c-0.43-0.5-1.05-0.75-1.88-0.75C118.69,31.6,118.07,31.85,117.62,32.35z
		 M126.9,34.64l0.76-0.03c0.17,0,0.31-0.01,0.44-0.03c0.12-0.02,0.31-0.07,0.57-0.15c0.1-0.03,0.19-0.06,0.27-0.08
		c0.08-0.02,0.15-0.04,0.22-0.05c0.07-0.01,0.13-0.01,0.19,0.01c0.06,0.02,0.14,0.05,0.23,0.09l0.61,0.35
		c0.08,0.06,0.12,0.12,0.13,0.2c0.01,0.08-0.01,0.16-0.07,0.24l-0.08,0.12c-0.07,0.09-0.15,0.15-0.24,0.18
		c-0.1,0.03-0.19,0.03-0.29-0.01c-0.08-0.01-0.18-0.02-0.3-0.03c-0.12-0.01-0.21-0.01-0.25-0.01h-2.17v5.61
		c0,0.17-0.03,0.34-0.09,0.51s-0.13,0.34-0.19,0.5c-0.08,0.16-0.15,0.29-0.23,0.41c-0.07,0.12-0.13,0.2-0.16,0.24
		c-0.06,0.07-0.13,0.09-0.22,0.08c-0.09-0.02-0.13-0.06-0.13-0.13V28.37c0-0.21-0.05-0.39-0.16-0.52c-0.11-0.13-0.24-0.27-0.39-0.4
		c-0.11-0.09-0.12-0.22-0.03-0.39c0.09-0.17,0.21-0.22,0.35-0.15l0.74,0.34c0.25,0.12,0.4,0.23,0.45,0.33
		c0.05,0.1,0.08,0.24,0.08,0.45V34.64z"/>
</g>
</svg>
