<?xml version="1.0" encoding="utf-8"?>
<!-- Generator: Adobe Illustrator 23.0.1, SVG Export Plug-In . SVG Version: 6.00 Build 0)  -->
<svg version="1.1" id="レイヤー_1" xmlns="http://www.w3.org/2000/svg" xmlns:xlink="http://www.w3.org/1999/xlink" x="0px"
	 y="0px" viewBox="0 0 300 50" style="enable-background:new 0 0 300 50;" xml:space="preserve">
<g>
	<g>
		<g>
			<path d="M5.9,39.1H3.5V15.3h14.3v2.2H5.9v8.2H17v2.2H5.9V39.1z"/>
			<path d="M24.6,39.1h-2.3V13.7h2.3V39.1z"/>
			<path d="M36.1,36.6L36.1,36.6l4.9-13.3h2.5l-7.8,19.8c-0.5,1.2-1.1,2.2-1.8,2.9c-0.7,0.7-1.8,1.1-3.1,1.1c-0.7,0-1.4-0.1-2-0.2
				l0.2-2.1c0.5,0.2,1.1,0.3,1.7,0.3c0.8,0,1.4-0.2,1.8-0.7c0.4-0.5,0.8-1.2,1.2-2.1L35,39l-6.7-15.7h2.6L36.1,36.6z"/>
			<path d="M49.9,17.3c0,0.5-0.2,0.9-0.5,1.2c-0.3,0.3-0.7,0.5-1.1,0.5s-0.8-0.2-1.1-0.5c-0.3-0.3-0.5-0.7-0.5-1.2
				c0-0.5,0.2-0.9,0.5-1.2c0.3-0.3,0.7-0.5,1.1-0.5s0.8,0.2,1.1,0.5C49.8,16.4,49.9,16.8,49.9,17.3z M49.4,39.1h-2.3V23.3h2.3V39.1z
				"/>
			<path d="M57.6,23.3c0,0.4,0.1,0.9,0.1,1.4c0,0.5,0,0.9,0,1.3h0.1c0.4-0.9,1.2-1.7,2.2-2.2c1-0.6,2.1-0.9,3.2-0.9
				c2,0,3.5,0.6,4.5,1.8c1,1.2,1.5,2.8,1.5,4.7v9.6h-2.3v-8.7c0-0.8-0.1-1.6-0.2-2.3c-0.1-0.7-0.4-1.2-0.7-1.7
				c-0.3-0.5-0.8-0.9-1.3-1.1c-0.5-0.3-1.2-0.4-2.1-0.4c-0.6,0-1.2,0.1-1.8,0.4c-0.6,0.2-1.1,0.6-1.5,1.1c-0.4,0.5-0.8,1.1-1.1,1.9
				C58,29,57.8,29.9,57.8,31v8.1h-2.3V26.8c0-0.4,0-1,0-1.6c0-0.7-0.1-1.3-0.1-1.8H57.6z"/>
			<path d="M75.9,42.2c0.6,0.8,1.5,1.5,2.6,2.1c1.1,0.6,2.2,0.8,3.4,0.8c1.1,0,2.1-0.2,2.9-0.5c0.8-0.3,1.4-0.8,1.9-1.3
				c0.5-0.6,0.8-1.2,1.1-2c0.2-0.8,0.3-1.6,0.3-2.4v-3H88c-0.6,1-1.5,1.7-2.6,2.3c-1.1,0.5-2.2,0.8-3.4,0.8c-1.2,0-2.3-0.2-3.3-0.6
				c-1-0.4-1.8-1-2.6-1.7c-0.7-0.7-1.3-1.6-1.6-2.5c-0.4-1-0.6-2-0.6-3.2c0-1.1,0.2-2.2,0.6-3.2c0.4-1,0.9-1.8,1.6-2.6
				c0.7-0.7,1.6-1.3,2.6-1.7c1-0.4,2.1-0.6,3.3-0.6c1.1,0,2.3,0.3,3.4,0.8c1.1,0.5,2,1.3,2.6,2.3h0.1v-2.7h2.3v15.6
				c0,0.9-0.1,1.8-0.4,2.7c-0.2,1-0.7,1.8-1.3,2.7c-0.6,0.8-1.5,1.5-2.6,2c-1.1,0.5-2.5,0.8-4.3,0.8c-1.5,0-2.8-0.3-4.2-0.8
				c-1.3-0.6-2.5-1.3-3.4-2.3L75.9,42.2z M76.3,31c0,0.8,0.1,1.6,0.4,2.4c0.3,0.7,0.7,1.4,1.2,1.9s1.1,1,1.9,1.3
				c0.7,0.3,1.6,0.5,2.5,0.5c0.9,0,1.7-0.1,2.4-0.4c0.7-0.3,1.4-0.7,1.9-1.2c0.5-0.5,1-1.2,1.3-1.9c0.3-0.7,0.5-1.6,0.5-2.5
				c0-0.8-0.2-1.6-0.5-2.4c-0.3-0.7-0.7-1.4-1.3-1.9c-0.5-0.6-1.2-1-1.9-1.3c-0.7-0.3-1.5-0.5-2.4-0.5c-0.9,0-1.8,0.2-2.5,0.5
				c-0.7,0.3-1.4,0.8-1.9,1.3c-0.5,0.6-0.9,1.2-1.2,1.9C76.5,29.4,76.3,30.2,76.3,31z"/>
			<path d="M104,39.1h-2.4V17.4h-8v-2.2H112v2.2h-8V39.1z"/>
			<path d="M118.2,17.3c0,0.5-0.2,0.9-0.5,1.2c-0.3,0.3-0.7,0.5-1.1,0.5s-0.8-0.2-1.1-0.5c-0.3-0.3-0.5-0.7-0.5-1.2
				c0-0.5,0.2-0.9,0.5-1.2c0.3-0.3,0.7-0.5,1.1-0.5s0.8,0.2,1.1,0.5C118.1,16.4,118.2,16.8,118.2,17.3z M117.8,39.1h-2.3V23.3h2.3
				V39.1z"/>
			<path d="M124.7,42.2c0.6,0.8,1.5,1.5,2.6,2.1c1.1,0.6,2.2,0.8,3.4,0.8c1.1,0,2.1-0.2,2.9-0.5c0.8-0.3,1.4-0.8,1.9-1.3
				c0.5-0.6,0.8-1.2,1.1-2c0.2-0.8,0.3-1.6,0.3-2.4v-3h-0.1c-0.6,1-1.5,1.7-2.6,2.3c-1.1,0.5-2.2,0.8-3.4,0.8
				c-1.2,0-2.3-0.2-3.3-0.6c-1-0.4-1.8-1-2.6-1.7c-0.7-0.7-1.3-1.6-1.6-2.5c-0.4-1-0.6-2-0.6-3.2c0-1.1,0.2-2.2,0.6-3.2
				c0.4-1,0.9-1.8,1.6-2.6c0.7-0.7,1.6-1.3,2.6-1.7c1-0.4,2.1-0.6,3.3-0.6c1.1,0,2.3,0.3,3.4,0.8c1.1,0.5,2,1.3,2.6,2.3h0.1v-2.7
				h2.3v15.6c0,0.9-0.1,1.8-0.4,2.7c-0.2,1-0.7,1.8-1.3,2.7c-0.6,0.8-1.5,1.5-2.6,2c-1.1,0.5-2.5,0.8-4.3,0.8
				c-1.5,0-2.8-0.3-4.2-0.8c-1.3-0.6-2.5-1.3-3.4-2.3L124.7,42.2z M125.1,31c0,0.8,0.1,1.6,0.4,2.4c0.3,0.7,0.7,1.4,1.2,1.9
				s1.1,1,1.9,1.3c0.7,0.3,1.6,0.5,2.5,0.5c0.9,0,1.7-0.1,2.4-0.4c0.7-0.3,1.4-0.7,1.9-1.2c0.5-0.5,1-1.2,1.3-1.9
				c0.3-0.7,0.5-1.6,0.5-2.5c0-0.8-0.2-1.6-0.5-2.4c-0.3-0.7-0.7-1.4-1.3-1.9c-0.5-0.6-1.2-1-1.9-1.3c-0.7-0.3-1.5-0.5-2.4-0.5
				c-0.9,0-1.8,0.2-2.5,0.5c-0.7,0.3-1.4,0.8-1.9,1.3c-0.5,0.6-0.9,1.2-1.2,1.9C125.3,29.4,125.1,30.2,125.1,31z"/>
			<path d="M159.4,30.7c0,0.2,0,0.3,0,0.5c0,0.2,0,0.4,0,0.6h-13c0,0.8,0.2,1.5,0.5,2.2c0.3,0.7,0.7,1.3,1.2,1.8
				c0.5,0.5,1.1,0.9,1.8,1.2c0.7,0.3,1.4,0.5,2.3,0.5c1.2,0,2.2-0.3,3.1-0.8c0.9-0.5,1.5-1.2,2-1.9l1.7,1.3c-0.9,1.2-2,2-3.1,2.6
				c-1.1,0.5-2.3,0.8-3.6,0.8c-1.2,0-2.2-0.2-3.2-0.6c-1-0.4-1.9-1-2.6-1.7c-0.7-0.7-1.3-1.6-1.7-2.6c-0.4-1-0.6-2.1-0.6-3.3
				c0-1.2,0.2-2.3,0.6-3.3c0.4-1,1-1.9,1.7-2.6c0.7-0.7,1.6-1.3,2.5-1.7c1-0.4,2-0.6,3.1-0.6c1.2,0,2.3,0.2,3.3,0.6
				c0.9,0.4,1.7,1,2.4,1.7c0.6,0.7,1.1,1.5,1.4,2.5C159.2,28.6,159.4,29.7,159.4,30.7z M157.1,30c-0.1-1.5-0.5-2.7-1.4-3.7
				c-0.9-1-2.1-1.5-3.8-1.5c-0.8,0-1.5,0.1-2.1,0.4c-0.7,0.3-1.2,0.7-1.7,1.1c-0.5,0.5-0.9,1-1.2,1.6c-0.3,0.6-0.5,1.3-0.5,1.9
				H157.1z"/>
			<path d="M164.3,25.2c0-0.7-0.1-1.3-0.1-1.8h2.2c0,0.4,0.1,0.9,0.1,1.4c0,0.5,0,0.9,0,1.3h0.1c0.4-0.9,1.1-1.7,2-2.2
				c0.9-0.6,1.9-0.9,3-0.9c0.3,0,0.6,0,0.8,0c0.2,0,0.5,0.1,0.7,0.1l-0.3,2.2c-0.1,0-0.4-0.1-0.7-0.1c-0.3,0-0.6-0.1-0.9-0.1
				c-0.6,0-1.2,0.1-1.7,0.3c-0.6,0.2-1,0.6-1.5,1.1c-0.4,0.5-0.8,1.1-1,1.8c-0.3,0.7-0.4,1.6-0.4,2.7v8h-2.3V26.8
				C164.3,26.4,164.3,25.8,164.3,25.2z"/>
		</g>
	</g>
	<g>
		<path d="M175.9,41.1v-0.7h8.7v0.7H175.9z"/>
		<path d="M188,34.2l-1.9,0.1c-0.1,0-0.2,0-0.3,0c-0.1,0-0.3,0-0.4,0c-0.1,0-0.2,0-0.4,0c-0.1,0-0.2,0-0.3-0.1
			c-0.1,0-0.1-0.1-0.2-0.2s0-0.2,0-0.3l0.1-0.6c0.2,0.1,0.5,0.1,0.8,0.1s0.7,0.1,1,0.1c0.3,0,0.6,0,0.9,0c0.3,0,0.5,0,0.6,0
			c0.7,0,1.4,0,2,0c0.6,0,1.2,0,1.8,0c0.6,0,1.1,0,1.6,0c0.5,0,1,0,1.4-0.1c0.2,0,0.4,0,0.6,0c0.3,0,0.5,0,0.8,0
			c0.2,0,0.5,0,0.7-0.1c0.2,0,0.3,0,0.4,0c0.3,0,0.6-0.1,0.8-0.1c0.2,0,0.4,0,0.5,0.1l0.6,0.5c0.1,0.1,0.1,0.1,0.1,0.2
			c0,0.1,0,0.1,0,0.2c0,0.1-0.1,0.1-0.1,0.2c-0.1,0.1-0.1,0.1-0.2,0.1l-1.1-0.2c-0.2,0-0.5,0-0.8,0c-0.3,0-0.6,0-0.9,0
			c-0.3,0-0.6,0-0.9,0c-0.3,0-0.6,0-0.8,0L188,34.2z M193,28.6c-0.1-0.1-0.1-0.2-0.1-0.3l0-0.3l1.1,0.1c0.3,0,0.4,0.1,0.5,0.3
			c0.1,0.1,0.1,0.3,0.1,0.4v2l0.4-0.1c0.4-0.1,0.6-0.1,0.7-0.1c0.1,0,0.2,0.1,0.4,0.1l0.4,0.3c0.2,0.1,0.2,0.2,0.2,0.2
			c0,0.1,0,0.2-0.1,0.3c-0.1,0.1-0.1,0.2-0.2,0.2c-0.1,0-0.1,0-0.2,0c-0.1,0-0.2-0.1-0.4-0.1c-0.2,0-0.3-0.1-0.5-0.1
			c-0.5,0-1,0-1.6,0c-0.6,0-1.2,0-1.7,0c-0.3,0-0.6,0-0.9,0.1c-0.3,0-0.6,0-1,0c-0.3,0-0.6,0-1,0c-0.3,0-0.6,0-0.9,0
			c-0.3,0-0.5,0-0.7,0c-0.2,0-0.3-0.1-0.4-0.1c-0.1,0-0.1-0.1-0.1-0.1c0-0.1,0-0.1,0-0.2l0.1-0.6c0.3,0.1,0.7,0.1,1.1,0.1
			c0.4,0,0.8,0,1.1,0.1v-1.1c0-0.2,0-0.4-0.1-0.5c0-0.1-0.1-0.2-0.3-0.2c-0.1,0-0.2-0.1-0.2-0.1c-0.1-0.1-0.1-0.2-0.1-0.3l0-0.3
			l1.1,0.1c0.3,0,0.4,0.1,0.5,0.3c0.1,0.1,0.1,0.3,0.1,0.4v1.9c0.2,0,0.5,0,0.7,0c0.2,0,0.5,0,0.8,0l1.5-0.1v-1.3
			c0-0.2,0-0.4-0.1-0.5c0-0.1-0.1-0.2-0.3-0.2C193.1,28.7,193,28.7,193,28.6z M189.6,36.8c-0.1,0-0.3,0-0.4,0c-0.1,0-0.3,0-0.4,0
			c-0.1,0-0.2,0-0.4,0c-0.2,0-0.3,0-0.4-0.1c-0.1,0-0.1-0.1-0.2-0.1c0-0.1-0.1-0.1,0-0.2l0.1-0.6c0.3,0.1,0.6,0.1,1,0.1
			c0.3,0,0.6,0,0.9,0c0.3,0,0.6,0,0.9,0c0.3,0,0.6,0,0.9,0l4-0.1c0.1,0,0.2,0,0.3,0c0.1,0,0.2,0,0.2,0.1c0,0,0.1,0.1,0.1,0.1
			c0,0.1,0,0.2,0,0.3v2.3c0,0.2-0.1,0.4-0.2,0.4c-0.1,0.1-0.3,0.1-0.6,0.1l-6,0.1v1.3c0,0.2,0,0.3,0.1,0.4c0,0.1,0.2,0.1,0.4,0.1
			h3.4c0.5,0,0.9,0,1.3-0.1c0.4-0.1,0.7-0.1,0.9-0.2c0.1,0,0.2,0,0.3,0c0.1,0,0.2,0,0.3,0.1l0.6,0.2c0.2,0.1,0.3,0.1,0.3,0.2
			c0,0.1,0,0.2,0,0.3c0,0.2-0.1,0.3-0.1,0.3c-0.1,0-0.2,0.1-0.3,0.1h-6.6c-0.1,0-0.3,0-0.4,0c-0.2,0-0.3-0.1-0.5-0.1
			c-0.1-0.1-0.3-0.2-0.4-0.3c-0.1-0.1-0.1-0.3-0.1-0.5v-1c0-0.1,0-0.2,0-0.3c0-0.1,0-0.2,0-0.3c0-0.1-0.1-0.1-0.1-0.2
			c0,0-0.1-0.1-0.2-0.1c-0.1,0-0.2-0.1-0.3-0.2c-0.1-0.1-0.1-0.2-0.1-0.3v-0.3l1,0.1c0,0,0,0,0.1,0c0,0,0,0,0.1,0c0,0,0,0,0.1,0
			c0,0,0,0,0.1,0l5.9-0.1c0.1,0,0.2,0,0.3-0.1c0.1-0.1,0.1-0.2,0.1-0.3V37c0-0.2,0-0.2-0.1-0.3c0,0-0.1,0-0.3,0l-3.1,0L189.6,36.8z
			 M190.3,27.5c-0.4,0-0.9,0-1.4,0.1c-0.3,0-0.5,0-0.7,0c-0.2,0-0.3-0.1-0.4-0.1c-0.1,0-0.1-0.1-0.1-0.1c0-0.1,0-0.1,0-0.2l0.1-0.6
			c0.4,0.1,0.8,0.1,1.2,0.1c0.4,0,0.8,0,1.1,0c0.3,0,0.6,0,0.9,0c0.3,0,0.7,0,1.1-0.1c0.2,0,0.5,0,0.7,0c0.2,0,0.5,0,0.7,0
			c0.2,0,0.4,0,0.5-0.1c0.1,0,0.3,0,0.3,0c0.3,0,0.6,0,0.7,0c0.1,0,0.3,0,0.4,0.1l0.4,0.3c0.2,0.1,0.2,0.2,0.2,0.2
			c0,0.1,0,0.2-0.1,0.3c-0.1,0.1-0.1,0.2-0.2,0.2c-0.1,0-0.1,0-0.2,0c-0.1,0-0.2,0-0.4-0.1c-0.2,0-0.3-0.1-0.5-0.1
			c-0.4,0-0.9-0.1-1.4-0.1c-0.5,0-1.1,0-1.6,0C191.2,27.4,190.7,27.5,190.3,27.5z"/>
		<path d="M202.3,37c0,0.1,0,0.1,0,0.1c0,0,0.1,0,0.1,0c0.6,0,1.2-0.1,1.8-0.1c0.6-0.1,1.2-0.2,1.8-0.3c0.6-0.1,1.1-0.3,1.6-0.4
			c0.5-0.2,0.9-0.3,1.2-0.5c0,0,0.1,0,0.2,0c0.1,0,0.2,0.1,0.3,0.1c0.2,0.1,0.2,0.2,0.2,0.3c0,0.1-0.1,0.2-0.3,0.3
			c-1,0.6-2.1,1-3.2,1.2c-1.1,0.2-2.3,0.4-3.4,0.5c-0.1,0-0.2,0-0.3,0c-0.1,0-0.2,0-0.3,0c-0.2,0-0.3-0.1-0.5-0.3
			c-0.2-0.2-0.3-0.4-0.3-0.5v-3.1c0-0.1,0-0.2,0-0.3c0-0.1,0-0.2,0-0.2c0-0.1-0.1-0.1-0.1-0.2c0-0.1-0.1-0.1-0.2-0.2
			c-0.1,0-0.2-0.1-0.3-0.2c-0.1-0.1-0.1-0.2-0.1-0.3v-0.3l1,0.1l4.4-0.1c0.1,0,0.2,0,0.3-0.1c0.1-0.1,0.1-0.2,0.1-0.3l0-2.2
			c0-0.1,0-0.2,0-0.3c0,0-0.1-0.1-0.3-0.1l-3.3,0.1c-0.1,0-0.3,0-0.4,0c-0.1,0-0.3,0-0.4,0c-0.1,0-0.3,0-0.5,0c-0.2,0-0.4,0-0.5-0.1
			c-0.1,0-0.1-0.1-0.1-0.1c0-0.1,0-0.1,0-0.2l0.1-0.7c0.4,0.1,1,0.1,1.7,0.2c0.7,0,1.4,0,2,0l2.3-0.1c0.1,0,0.2,0,0.3,0
			c0.1,0,0.2,0,0.2,0.1c0,0,0.1,0.1,0.1,0.2c0,0.1,0,0.2,0,0.3l-0.2,3.6c0,0.2-0.1,0.4-0.2,0.4c-0.1,0.1-0.3,0.1-0.5,0.1l-4.1,0.1
			c0,0.1,0,0.2,0,0.3c0,0.1,0,0.2,0,0.3V37z M211.4,34.1l0.7,0c0.2,0,0.3,0,0.4,0c0.1,0,0.3-0.1,0.6-0.2c0.1,0,0.2-0.1,0.3-0.1
			c0.1,0,0.2,0,0.2-0.1c0.1,0,0.1,0,0.2,0c0.1,0,0.1,0,0.2,0.1l0.6,0.4c0.1,0.1,0.1,0.1,0.1,0.2c0,0.1,0,0.2-0.1,0.2l-0.1,0.1
			c-0.1,0.1-0.1,0.1-0.2,0.2c-0.1,0-0.2,0-0.3,0c-0.1,0-0.2,0-0.3,0c-0.1,0-0.2,0-0.3,0h-2.1v5.3c0,0.2,0,0.3-0.1,0.5
			s-0.1,0.3-0.2,0.5c-0.1,0.2-0.2,0.3-0.2,0.4c-0.1,0.1-0.1,0.2-0.2,0.2c-0.1,0.1-0.1,0.1-0.2,0.1c-0.1,0-0.1-0.1-0.1-0.1V27.5
			c0-0.2-0.1-0.4-0.2-0.5c-0.1-0.1-0.2-0.3-0.4-0.4c-0.1-0.1-0.1-0.2,0-0.4c0.1-0.2,0.2-0.2,0.4-0.2l0.7,0.3
			c0.2,0.1,0.4,0.2,0.4,0.3c0.1,0.1,0.1,0.2,0.1,0.4V34.1z"/>
		<path d="M216.2,29.4c0.2-0.4,0.4-0.7,0.7-1c0.3-0.3,0.7-0.5,1.1-0.7c0.4-0.2,0.9-0.2,1.4-0.2c1,0,1.8,0.3,2.5,0.9
			c0.6,0.6,0.9,1.4,0.9,2.3c0,0.5-0.1,0.9-0.3,1.3c-0.2,0.4-0.4,0.7-0.7,1c-0.3,0.3-0.7,0.5-1.1,0.6c-0.4,0.2-0.9,0.2-1.3,0.2
			c-0.5,0-1-0.1-1.4-0.2c-0.4-0.2-0.8-0.4-1.1-0.6c-0.3-0.3-0.5-0.6-0.7-1c-0.2-0.4-0.2-0.8-0.2-1.3C215.9,30.2,216,29.8,216.2,29.4
			z M217.6,29.1c-0.4,0.4-0.6,0.9-0.6,1.6c0,0.6,0.2,1.2,0.6,1.6c0.4,0.4,1,0.6,1.7,0.6c0.7,0,1.3-0.2,1.7-0.6
			c0.4-0.4,0.6-1,0.6-1.6c0-0.7-0.2-1.2-0.6-1.6c-0.4-0.4-1-0.6-1.7-0.6C218.6,28.4,218.1,28.7,217.6,29.1z M221.1,36.7
			c0.6-0.6,1.4-0.9,2.4-0.9c0.5,0,0.9,0.1,1.3,0.2s0.8,0.4,1.1,0.6c0.3,0.3,0.5,0.6,0.7,1c0.2,0.4,0.3,0.8,0.3,1.3
			c0,0.9-0.3,1.7-0.9,2.3c-0.6,0.6-1.4,0.9-2.4,0.9c-0.5,0-0.9-0.1-1.4-0.2c-0.4-0.2-0.8-0.4-1.1-0.6c-0.3-0.3-0.5-0.6-0.7-1
			c-0.2-0.4-0.3-0.8-0.3-1.3C220.2,38.1,220.5,37.3,221.1,36.7z M221.8,37.4c-0.4,0.4-0.6,1-0.6,1.6c0,0.6,0.2,1.2,0.6,1.6
			c0.4,0.4,1,0.6,1.7,0.6c0.8,0,1.3-0.2,1.7-0.6c0.4-0.4,0.6-0.9,0.6-1.6c0-0.6-0.2-1.2-0.6-1.6c-0.4-0.4-1-0.6-1.7-0.6
			C222.8,36.8,222.2,37,221.8,37.4z M227.2,34c0,0.2,0,0.3-0.1,0.5c-0.1,0.2-0.1,0.3-0.2,0.5c-0.1,0.2-0.2,0.3-0.2,0.4
			c-0.1,0.1-0.1,0.2-0.2,0.2c-0.1,0.1-0.1,0.1-0.2,0.1s-0.1-0.1-0.1-0.2v-8.1c0-0.2,0-0.4-0.2-0.5c-0.1-0.1-0.2-0.3-0.4-0.4
			c-0.1-0.1-0.1-0.2,0-0.4c0.1-0.2,0.2-0.2,0.4-0.2l0.7,0.3c0.3,0.1,0.4,0.2,0.5,0.3c0.1,0.1,0.1,0.2,0.1,0.4V34z"/>
		<path d="M231.1,30.8c0-0.3,0-0.5-0.1-0.6c0-0.1-0.1-0.2-0.3-0.2c-0.1,0-0.1-0.1-0.2-0.1c0,0-0.1-0.1-0.1-0.1c0,0,0-0.1,0-0.1
			c0,0,0-0.1,0-0.2v-0.3l0.7,0.1h2.9c0.1,0,0.3,0,0.5,0c0.2,0,0.5,0,0.7,0c0.3,0,0.5,0,0.7-0.1c0.2,0,0.4-0.1,0.6-0.1
			c0.1,0,0.2,0,0.3,0c0.1,0,0.1,0,0.2,0.1l0.3,0.2c0.2,0.1,0.3,0.2,0.3,0.3c0,0.1,0,0.1,0,0.2c-0.1,0.2-0.2,0.3-0.3,0.3
			c-0.1,0-0.2,0-0.4,0h-5c0,0.1,0,0.1,0,0.2c0,0.1,0,0.1,0,0.2V33c0.2,0,0.6,0,0.9,0c0.4,0,0.7,0,1.1,0c0.4,0,0.7,0,1,0
			c0.3,0,0.5,0,0.5,0c0.2,0,0.3,0,0.4,0c0.1,0,0.2,0,0.3,0c0.1,0,0.2,0,0.2,0c0.1,0,0.1,0,0.2,0l0.3,0.2c0.2,0.1,0.3,0.2,0.3,0.3
			c0,0.1,0,0.2,0,0.3c-0.1,0.2-0.2,0.2-0.3,0.3c-0.1,0-0.2,0-0.4,0h-4.7v3c0,0.1,0,0.1,0.1,0.2c0,0,0.1,0.1,0.1,0.1
			c0.5,0,1.1,0,1.7-0.1c0.6-0.1,1.1-0.1,1.7-0.2c0.5-0.1,1.1-0.2,1.5-0.3c0.5-0.1,0.9-0.3,1.2-0.4c0,0,0.1,0,0.2,0
			c0.1,0,0.2,0,0.3,0.1c0.2,0.1,0.2,0.2,0.2,0.3c0,0.1-0.1,0.2-0.4,0.3c-0.9,0.4-1.9,0.8-3.1,0.9c-1.1,0.2-2.2,0.3-3.3,0.4
			c-0.1,0-0.2,0-0.3,0c-0.1,0-0.2,0-0.3,0c-0.2,0-0.3-0.1-0.5-0.3c-0.2-0.2-0.3-0.3-0.3-0.5V30.8z M241.3,34.1l0.8,0
			c0.2,0,0.3,0,0.4,0c0.1,0,0.3-0.1,0.6-0.2c0.1,0,0.2-0.1,0.3-0.1c0.1,0,0.2,0,0.2-0.1c0.1,0,0.1,0,0.2,0c0.1,0,0.1,0,0.2,0.1
			l0.6,0.4c0.1,0.1,0.1,0.1,0.1,0.2c0,0.1,0,0.2-0.1,0.2l-0.1,0.1c-0.1,0.1-0.1,0.1-0.2,0.2c-0.1,0-0.2,0-0.3,0c-0.1,0-0.2,0-0.3,0
			c-0.1,0-0.2,0-0.3,0h-2.2v5.3c0,0.2,0,0.3-0.1,0.5s-0.1,0.3-0.2,0.5c-0.1,0.2-0.2,0.3-0.2,0.4c-0.1,0.1-0.1,0.2-0.2,0.2
			c-0.1,0.1-0.1,0.1-0.2,0.1c-0.1,0-0.1-0.1-0.1-0.1V27.5c0-0.2-0.1-0.4-0.2-0.5c-0.1-0.1-0.2-0.3-0.4-0.4c-0.1-0.1-0.1-0.2,0-0.4
			c0.1-0.2,0.2-0.2,0.4-0.2l0.7,0.3c0.2,0.1,0.4,0.2,0.4,0.3c0.1,0.1,0.1,0.2,0.1,0.4V34.1z"/>
		<path d="M246.4,30.8c0.6-0.7,1.5-1,2.6-1c0.5,0,1,0.1,1.5,0.3c0.4,0.2,0.8,0.4,1.1,0.7c0.3,0.3,0.6,0.7,0.7,1.1
			c0.2,0.4,0.3,0.9,0.3,1.4c0,0.5-0.1,1-0.3,1.4c-0.2,0.4-0.4,0.8-0.7,1.1c-0.3,0.3-0.7,0.6-1.1,0.7c-0.4,0.2-0.9,0.3-1.4,0.3
			s-1-0.1-1.5-0.2c-0.4-0.2-0.8-0.4-1.2-0.7c-0.3-0.3-0.6-0.7-0.7-1.1c-0.2-0.4-0.3-0.9-0.3-1.4C245.5,32.3,245.8,31.4,246.4,30.8z
			 M247.2,31.4c-0.4,0.5-0.7,1.1-0.7,1.8c0,0.7,0.2,1.4,0.7,1.8c0.4,0.5,1.1,0.7,1.9,0.7c0.8,0,1.4-0.2,1.8-0.7
			c0.4-0.5,0.7-1.1,0.7-1.9c0-0.7-0.2-1.3-0.6-1.8c-0.4-0.5-1.1-0.7-1.9-0.7C248.3,30.7,247.6,30.9,247.2,31.4z M257.1,40.1
			c0,0.2,0,0.3-0.1,0.5s-0.1,0.3-0.2,0.5c-0.1,0.2-0.2,0.3-0.2,0.4c-0.1,0.1-0.1,0.2-0.2,0.2c-0.1,0.1-0.1,0.1-0.2,0.1
			c-0.1,0-0.1-0.1-0.1-0.1V27.5c0-0.2-0.1-0.4-0.2-0.5c-0.1-0.1-0.2-0.3-0.4-0.4c-0.1-0.1-0.1-0.2,0-0.4c0.1-0.2,0.2-0.2,0.4-0.2
			l0.7,0.3c0.2,0.1,0.4,0.2,0.4,0.3c0,0.1,0.1,0.2,0.1,0.4V40.1z"/>
		<path d="M266.7,30.3c0,0.4-0.1,0.9-0.2,1.5c-0.1,0.7-0.2,1.4-0.4,2.1c-0.2,0.8-0.4,1.5-0.5,2.3c-0.2,0.8-0.4,1.4-0.6,2
			c-0.1,0.1-0.1,0.2-0.3,0.3c-0.1,0.1-0.2,0.1-0.3,0.1c-0.1,0-0.2-0.1-0.3-0.1c-0.1-0.1-0.1-0.2,0-0.3c0.2-0.6,0.4-1.2,0.6-2
			c0.2-0.7,0.3-1.4,0.5-2.1c0.1-0.7,0.2-1.4,0.3-2.1c0.1-0.7,0.2-1.2,0.2-1.7c-0.4,0-0.7,0-1.1,0c-0.4,0-0.7,0-0.8,0
			c-0.5,0-1,0-1.5,0.1c-0.5,0-1,0-1.5,0.1c-0.3,0-0.5,0-0.6,0c-0.1,0-0.2,0-0.3-0.1c-0.1,0-0.1-0.1-0.2-0.2c0-0.1,0-0.2,0-0.3
			l0.1-0.6c0.4,0.1,0.7,0.1,1.1,0.1c0.3,0,0.7,0,1.2,0c0.2,0,0.4,0,0.5,0c0.1,0,0.3,0,0.4,0c0.1,0,0.3,0,0.4,0c0.1,0,0.3,0,0.5,0
			c0.2,0,0.6,0,1.1,0c0.5,0,0.8-0.1,1.2-0.1c0,0,0,0,0,0c0,0,0,0,0.1,0c0.1,0,0.3,0,0.4,0.1c0.1,0,0.2,0.1,0.3,0.1
			c0,0,0.1,0.1,0.1,0.1c0,0,0,0.1,0,0.1L266.7,30.3z M272,40.1c0,0.2,0,0.3-0.1,0.5c-0.1,0.2-0.1,0.3-0.2,0.5
			c-0.1,0.2-0.1,0.3-0.2,0.4c-0.1,0.1-0.1,0.2-0.2,0.2c-0.1,0.1-0.1,0.1-0.2,0.1c-0.1,0-0.1-0.1-0.1-0.1v-8.1l-3.1,0.2
			c-0.1,0-0.2,0-0.3,0c-0.1,0-0.1-0.1-0.2-0.2l-0.4-0.5c-0.1-0.1-0.1-0.1,0-0.2c0.1-0.1,0.2-0.1,0.3-0.1l0.4,0.1c0.1,0,0.2,0,0.3,0
			c0.1,0,0.2,0,0.3,0l2.7-0.1v-5.3c0-0.2-0.1-0.4-0.2-0.5c-0.1-0.1-0.2-0.3-0.4-0.4c-0.1-0.1-0.1-0.2,0-0.4c0.1-0.2,0.2-0.2,0.4-0.2
			l0.7,0.3c0.2,0.1,0.4,0.2,0.4,0.3c0.1,0.1,0.1,0.2,0.1,0.4V40.1z"/>
	</g>
</g>
</svg>
