<?xml version="1.0" encoding="utf-8"?>
<!-- Generator: Adobe Illustrator 23.0.1, SVG Export Plug-In . SVG Version: 6.00 Build 0)  -->
<svg version="1.1" id="レイヤー_1" xmlns="http://www.w3.org/2000/svg" xmlns:xlink="http://www.w3.org/1999/xlink" x="0px"
	 y="0px" viewBox="0 0 300 50" style="enable-background:new 0 0 300 50;" xml:space="preserve">
<g>
	<g>
		<g>
			<path d="M4,15.6h7.9c1.5,0,3,0.2,4.5,0.7c1.5,0.5,2.8,1.2,4,2.2c1.2,1,2.2,2.2,2.9,3.7c0.7,1.5,1.1,3.2,1.1,5.2
				c0,2-0.4,3.7-1.1,5.2c-0.7,1.5-1.7,2.7-2.9,3.7c-1.2,1-2.5,1.7-4,2.2c-1.5,0.5-3,0.7-4.5,0.7H4V15.6z M6.4,37.2h4.8
				c1.8,0,3.4-0.3,4.7-0.8c1.3-0.6,2.4-1.3,3.3-2.2s1.5-1.9,2-3.1c0.4-1.2,0.7-2.4,0.7-3.6c0-1.2-0.2-2.4-0.7-3.6
				c-0.4-1.2-1.1-2.2-2-3.1s-2-1.6-3.3-2.2c-1.3-0.6-2.9-0.8-4.7-0.8H6.4V37.2z"/>
			<path d="M44.9,31.5c0,1.2-0.2,2.3-0.6,3.3c-0.4,1-1,1.9-1.7,2.6c-0.7,0.7-1.6,1.3-2.7,1.7c-1,0.4-2.2,0.6-3.4,0.6
				c-1.2,0-2.3-0.2-3.4-0.6c-1-0.4-1.9-1-2.7-1.7c-0.7-0.7-1.3-1.6-1.7-2.6c-0.4-1-0.6-2.1-0.6-3.3c0-1.2,0.2-2.3,0.6-3.3
				c0.4-1,1-1.9,1.7-2.6c0.7-0.7,1.6-1.3,2.7-1.7c1-0.4,2.2-0.6,3.4-0.6c1.2,0,2.4,0.2,3.4,0.6c1,0.4,1.9,1,2.7,1.7
				c0.7,0.7,1.3,1.6,1.7,2.6C44.7,29.3,44.9,30.4,44.9,31.5z M42.5,31.5c0-0.9-0.1-1.7-0.4-2.5c-0.3-0.8-0.7-1.4-1.2-2
				c-0.5-0.6-1.1-1-1.9-1.4c-0.7-0.3-1.6-0.5-2.5-0.5c-0.9,0-1.7,0.2-2.5,0.5s-1.3,0.8-1.9,1.4c-0.5,0.6-0.9,1.2-1.2,2
				c-0.3,0.8-0.4,1.6-0.4,2.5s0.1,1.7,0.4,2.5c0.3,0.8,0.7,1.4,1.2,2c0.5,0.6,1.1,1,1.9,1.3c0.7,0.3,1.6,0.5,2.5,0.5
				c0.9,0,1.7-0.2,2.5-0.5c0.7-0.3,1.4-0.8,1.9-1.3c0.5-0.6,0.9-1.2,1.2-2C42.4,33.2,42.5,32.4,42.5,31.5z"/>
			<path d="M52.1,47.5h-2.3V23.7h2.3v2.7h0.1c0.6-1,1.5-1.8,2.6-2.3c1.1-0.5,2.2-0.8,3.3-0.8c1.2,0,2.3,0.2,3.3,0.6
				c1,0.4,1.8,1,2.6,1.7c0.7,0.7,1.3,1.6,1.6,2.6c0.4,1,0.6,2.1,0.6,3.3c0,1.2-0.2,2.3-0.6,3.3c-0.4,1-0.9,1.9-1.6,2.6
				s-1.6,1.3-2.6,1.7c-1,0.4-2.1,0.6-3.3,0.6c-1.1,0-2.2-0.3-3.3-0.8c-1.1-0.5-2-1.3-2.6-2.3h-0.1V47.5z M63.9,31.5
				c0-0.9-0.1-1.7-0.4-2.5c-0.3-0.8-0.7-1.4-1.2-2c-0.5-0.6-1.1-1-1.9-1.4c-0.7-0.3-1.6-0.5-2.5-0.5c-0.9,0-1.7,0.2-2.4,0.5
				c-0.7,0.3-1.4,0.8-1.9,1.3c-0.5,0.6-1,1.2-1.3,2c-0.3,0.8-0.5,1.6-0.5,2.5c0,0.9,0.2,1.7,0.5,2.5c0.3,0.8,0.7,1.4,1.3,2
				c0.5,0.6,1.2,1,1.9,1.3c0.7,0.3,1.5,0.5,2.4,0.5c0.9,0,1.8-0.2,2.5-0.5c0.7-0.3,1.4-0.8,1.9-1.3c0.5-0.6,0.9-1.2,1.2-2
				C63.7,33.2,63.9,32.4,63.9,31.5z"/>
			<path d="M84.1,36.7c-0.7,1-1.5,1.8-2.6,2.3c-1.1,0.5-2.2,0.8-3.3,0.8c-1.2,0-2.3-0.2-3.3-0.6c-1-0.4-1.8-1-2.6-1.7
				c-0.7-0.7-1.3-1.6-1.6-2.6c-0.4-1-0.6-2.1-0.6-3.3c0-1.2,0.2-2.3,0.6-3.3c0.4-1,0.9-1.9,1.6-2.6c0.7-0.7,1.6-1.3,2.6-1.7
				c1-0.4,2.1-0.6,3.3-0.6c1.1,0,2.3,0.3,3.3,0.8c1.1,0.5,1.9,1.3,2.6,2.3h0.1V14h2.3v25.4h-2.3L84.1,36.7L84.1,36.7z M72.5,31.5
				c0,0.9,0.1,1.7,0.4,2.5c0.3,0.8,0.7,1.4,1.2,2c0.5,0.6,1.1,1,1.9,1.3c0.7,0.3,1.6,0.5,2.5,0.5c0.9,0,1.7-0.2,2.4-0.5
				c0.7-0.3,1.4-0.8,1.9-1.3s1-1.2,1.3-2c0.3-0.8,0.5-1.6,0.5-2.5c0-0.9-0.2-1.7-0.5-2.5c-0.3-0.8-0.7-1.4-1.3-2
				c-0.5-0.6-1.2-1-1.9-1.3c-0.7-0.3-1.5-0.5-2.4-0.5c-0.9,0-1.8,0.2-2.5,0.5c-0.7,0.3-1.4,0.8-1.9,1.4c-0.5,0.6-0.9,1.2-1.2,2
				C72.6,29.8,72.5,30.7,72.5,31.5z"/>
			<path d="M102.5,29.2c0-1.4-0.4-2.4-1.1-3c-0.7-0.7-1.8-1-3.1-1c-0.9,0-1.8,0.2-2.6,0.5c-0.8,0.3-1.5,0.8-2.1,1.3l-1.3-1.5
				c0.6-0.6,1.5-1.2,2.6-1.6c1.1-0.4,2.3-0.6,3.6-0.6c0.9,0,1.6,0.1,2.4,0.4c0.7,0.2,1.4,0.6,1.9,1.1c0.6,0.5,1,1.1,1.3,1.8
				c0.3,0.7,0.5,1.6,0.5,2.5v6.9c0,0.6,0,1.2,0.1,1.9c0,0.6,0.1,1.2,0.2,1.6h-2c-0.1-0.4-0.1-0.8-0.2-1.2c0-0.4-0.1-0.9-0.1-1.3
				h-0.1c-0.7,1.1-1.5,1.8-2.4,2.3s-2,0.7-3.3,0.7c-0.6,0-1.2-0.1-1.9-0.3s-1.2-0.4-1.7-0.8s-1-0.9-1.3-1.5
				c-0.3-0.6-0.5-1.3-0.5-2.2c0-1.2,0.3-2.2,0.9-2.9c0.6-0.7,1.4-1.2,2.5-1.6c1-0.3,2.2-0.6,3.5-0.7c1.3-0.1,2.7-0.2,4.2-0.2V29.2z
				 M101.8,31.5c-0.9,0-1.9,0-2.8,0.1c-1,0.1-1.8,0.2-2.6,0.5c-0.8,0.2-1.4,0.6-1.9,1c-0.5,0.4-0.7,1-0.7,1.8c0,0.6,0.1,1,0.3,1.4
				c0.2,0.4,0.5,0.7,0.9,0.9c0.4,0.2,0.8,0.4,1.2,0.5c0.4,0.1,0.9,0.2,1.3,0.2c0.8,0,1.5-0.1,2.1-0.4c0.6-0.3,1.2-0.7,1.6-1.1
				c0.4-0.5,0.7-1,1-1.7c0.2-0.6,0.3-1.3,0.3-2v-1.2H101.8z"/>
		</g>
	</g>
	<g>
		<path d="M110.3,41.5v-0.7h8.7v0.7H110.3z"/>
		<path d="M122.5,34.9l-1.9,0.1c-0.1,0-0.2,0-0.3,0c-0.1,0-0.3,0-0.4,0c-0.1,0-0.2,0-0.4,0c-0.1,0-0.2,0-0.3-0.1
			c-0.1,0-0.1-0.1-0.2-0.2c0-0.1,0-0.2,0-0.3l0.1-0.6c0.2,0.1,0.5,0.1,0.8,0.1c0.3,0,0.7,0.1,1,0.1c0.3,0,0.6,0,0.9,0
			c0.3,0,0.5,0,0.6,0c0.7,0,1.3,0,1.9,0c0.6,0,1.2,0,1.7,0v-0.4c0-0.2,0-0.4-0.1-0.5c0-0.1-0.1-0.2-0.3-0.2c-0.1,0-0.2-0.1-0.2-0.1
			c-0.1-0.1-0.1-0.2-0.1-0.3l0-0.3l1.1,0.1c0.3,0,0.4,0.1,0.5,0.3c0.1,0.1,0.1,0.3,0.1,0.4V34l2.2-0.1c0.2,0,0.4,0,0.6,0
			c0.3,0,0.5,0,0.8,0c0.2,0,0.5,0,0.7,0c0.2,0,0.3,0,0.4,0c0.3,0,0.6-0.1,0.8-0.1c0.2,0,0.4,0,0.5,0.1l0.6,0.5
			c0.1,0.1,0.1,0.1,0.1,0.2s0,0.1,0,0.2c0,0.1-0.1,0.1-0.1,0.2c-0.1,0.1-0.1,0.1-0.2,0.1l-1.1-0.2c-0.2,0-0.5,0-0.8,0
			c-0.3,0-0.6,0-0.9,0c-0.3,0-0.6,0-0.9,0c-0.3,0-0.6,0-0.8,0L122.5,34.9z M122.7,28.9c0-0.2,0-0.4-0.1-0.5c0-0.1-0.2-0.2-0.3-0.2
			c-0.1,0-0.2-0.1-0.3-0.2c-0.1-0.1-0.1-0.2-0.1-0.4v-0.4l1.3,0.1h0.4c0.2,0,0.5,0,1.1,0c0.5,0,1.1,0,1.7-0.1c0.6,0,1.1,0,1.6-0.1
			c0.5,0,0.7,0,0.8,0c0.2,0,0.4,0,0.5-0.1c0.1,0,0.2,0,0.3,0s0.1,0,0.2,0c0,0,0.1,0,0.2,0.1l0.3,0.2c0.2,0.1,0.3,0.2,0.3,0.2
			c0,0.1,0,0.1,0,0.2c-0.1,0.2-0.1,0.3-0.2,0.3c-0.1,0-0.2,0-0.4,0h-6.1c0,0.1,0,0.2,0,0.2c0,0.1,0,0.2,0,0.2v1.7
			c0,0.2,0,0.3,0.1,0.4c0,0.1,0.2,0.1,0.4,0.1h2.7c0.5,0,1,0,1.4-0.1c0.4-0.1,0.8-0.1,0.9-0.1c0.1,0,0.2,0,0.3,0
			c0.1,0,0.2,0,0.3,0.1l0.5,0.2c0.2,0.1,0.3,0.1,0.3,0.2c0,0.1,0,0.2,0,0.3c0,0.1-0.1,0.2-0.2,0.3c-0.1,0-0.2,0-0.3,0h-6.2
			c-0.1,0-0.3,0-0.4,0c-0.1,0-0.3-0.1-0.4-0.1c-0.1-0.1-0.2-0.2-0.3-0.3c-0.1-0.1-0.1-0.3-0.1-0.5V28.9z M122.7,38
			c0-0.3,0-0.5-0.1-0.6c-0.1-0.1-0.1-0.2-0.3-0.3c-0.1,0-0.2-0.1-0.2-0.1c0,0,0-0.1,0-0.3v-0.3l0.9,0.1c0.4,0,0.6,0.2,0.6,0.4
			c0.1,0.2,0.1,0.5,0.1,0.8l0.1,3.4l5.5-0.1c0.1,0,0.2,0,0.3-0.1c0.1-0.1,0.1-0.2,0.1-0.3v-1.4l-4.6,0.1c-0.1,0-0.2,0-0.3,0
			c-0.1,0-0.1-0.1-0.2-0.2l-0.4-0.5c-0.1-0.1-0.1-0.1,0-0.2c0.1-0.1,0.2-0.1,0.3-0.1l0.4,0.1c0.1,0,0.2,0,0.3,0c0.1,0,0.2,0,0.3,0
			l4.2-0.1v-0.7c0-0.3,0-0.5-0.1-0.6c0-0.1-0.1-0.2-0.3-0.3c-0.1,0-0.2-0.1-0.2-0.1c0-0.1,0-0.2,0-0.3v-0.2l0.9,0.1
			c0.4,0,0.6,0.2,0.6,0.4c0.1,0.2,0.1,0.5,0.1,0.8v4c0,0.2-0.1,0.4-0.2,0.5c-0.1,0.1-0.3,0.2-0.6,0.2l-6.2,0.1v0.1
			c0,0.1,0,0.2-0.1,0.3c-0.1,0.1-0.1,0.2-0.1,0.2c-0.1,0.1-0.2,0.1-0.3,0.1c-0.1,0-0.2,0-0.2,0c0,0-0.1,0-0.1-0.1
			c0,0-0.1-0.1-0.1-0.2c0-0.1-0.1-0.2-0.1-0.3c0-0.1,0-0.2,0-0.3L122.7,38z"/>
		<path d="M135.6,31.5c0-0.3,0-0.5,0-0.6c0-0.1-0.1-0.2-0.3-0.2c-0.1,0-0.1-0.1-0.2-0.1c0,0-0.1,0-0.1-0.1c0,0,0-0.1,0-0.1
			c0,0,0-0.1,0-0.2v-0.3l0.7,0.1h2.8c0.1,0,0.3,0,0.5,0c0.2,0,0.5,0,0.7,0c0.3,0,0.5,0,0.7-0.1c0.2,0,0.4-0.1,0.6-0.1
			c0.1,0,0.2,0,0.3,0c0.1,0,0.1,0,0.2,0.1l0.3,0.2c0.2,0.1,0.3,0.2,0.3,0.3c0,0.1,0,0.1,0,0.2c-0.1,0.2-0.2,0.3-0.3,0.3
			c-0.1,0-0.2,0-0.3,0h-5c0,0.1,0,0.1,0,0.2c0,0.1,0,0.1,0,0.2v5.6c0,0.1,0,0.1,0.1,0.2s0.1,0.1,0.1,0.1c0.5,0,1.1-0.1,1.7-0.1
			c0.6-0.1,1.2-0.2,1.7-0.3c0.6-0.1,1.1-0.3,1.6-0.4c0.5-0.2,0.9-0.3,1.2-0.5c0,0,0.1,0,0.2,0c0.1,0,0.2,0,0.3,0.1
			c0.2,0.1,0.2,0.2,0.2,0.3c0,0.1-0.1,0.2-0.3,0.3c-0.4,0.2-0.9,0.5-1.4,0.6c-0.5,0.2-1,0.3-1.6,0.4c-0.6,0.1-1.1,0.2-1.7,0.3
			c-0.6,0.1-1.2,0.1-1.7,0.2c-0.1,0-0.2,0-0.3,0c-0.1,0-0.2,0-0.3,0c-0.2,0-0.3-0.1-0.5-0.3c-0.2-0.2-0.3-0.3-0.3-0.5V31.5z
			 M145.8,34.3l0.7,0c0.2,0,0.3,0,0.4,0c0.1,0,0.3-0.1,0.6-0.2c0.1,0,0.2-0.1,0.3-0.1c0.1,0,0.2,0,0.2,0c0.1,0,0.1,0,0.2,0
			c0.1,0,0.1,0,0.2,0.1l0.6,0.4c0.1,0.1,0.1,0.1,0.1,0.2c0,0.1,0,0.2-0.1,0.2L149,35c-0.1,0.1-0.1,0.1-0.2,0.2c-0.1,0-0.2,0-0.3,0
			c-0.1,0-0.2,0-0.3,0c-0.1,0-0.2,0-0.3,0h-2.1v5.3c0,0.2,0,0.3-0.1,0.5c-0.1,0.2-0.1,0.3-0.2,0.5c-0.1,0.2-0.2,0.3-0.2,0.4
			c-0.1,0.1-0.1,0.2-0.2,0.2c-0.1,0.1-0.1,0.1-0.2,0.1c-0.1,0-0.1-0.1-0.1-0.1V27.8c0-0.2-0.1-0.4-0.2-0.5c-0.1-0.1-0.2-0.3-0.4-0.4
			c-0.1-0.1-0.1-0.2,0-0.4c0.1-0.2,0.2-0.2,0.4-0.2l0.7,0.3c0.2,0.1,0.4,0.2,0.4,0.3c0.1,0.1,0.1,0.2,0.1,0.4V34.3z"/>
	</g>
</g>
</svg>
