<?xml version="1.0" encoding="utf-8"?>
<!-- Generator: Adobe Illustrator 23.0.1, SVG Export Plug-In . SVG Version: 6.00 Build 0)  -->
<svg version="1.1" id="レイヤー_1" xmlns="http://www.w3.org/2000/svg" xmlns:xlink="http://www.w3.org/1999/xlink" x="0px"
	 y="0px" viewBox="0 0 300 50" style="enable-background:new 0 0 300 50;" xml:space="preserve">
<g>
	<g>
		<path d="M6.43,39.98H4.01V16.19H11c1.16,0,2.24,0.11,3.24,0.34c1,0.22,1.86,0.59,2.59,1.09c0.73,0.5,1.29,1.16,1.7,1.97
			c0.4,0.81,0.6,1.79,0.6,2.96c0,0.87-0.16,1.67-0.47,2.39c-0.31,0.72-0.74,1.34-1.28,1.86c-0.54,0.53-1.18,0.95-1.92,1.26
			c-0.74,0.31-1.55,0.52-2.42,0.6l6.95,11.32h-2.96l-6.59-11.12H6.43V39.98z M6.43,26.78h4.2c1.95,0,3.45-0.35,4.5-1.06
			c1.05-0.71,1.58-1.76,1.58-3.18c0-0.78-0.15-1.44-0.44-1.98c-0.29-0.54-0.7-0.97-1.21-1.31c-0.52-0.34-1.14-0.58-1.88-0.74
			c-0.74-0.16-1.56-0.24-2.45-0.24h-4.3V26.78z"/>
		<path d="M23.97,39.98h-2.65L31.6,16.19h2.35l10.21,23.79h-2.69l-2.62-6.25h-12.3L23.97,39.98z M27.47,31.52h10.48l-5.24-12.63
			L27.47,31.52z"/>
		<path d="M50.08,37.83h12.73v2.15H47.66V16.19h14.75v2.15H50.08v8.16H61.6v2.15H50.08V37.83z"/>
		<path d="M79.31,35.88h0.03l7.96-19.69H91v23.79h-2.42V19.32h-0.07l-8.6,20.66h-1.28l-8.6-20.66h-0.07v20.66h-2.42V16.19h3.7
			L79.31,35.88z"/>
		<path d="M99.74,39.98h-2.42V16.19h2.42V39.98z"/>
		<path d="M105.89,39.98h-2.65l10.28-23.79h2.35l10.21,23.79h-2.69l-2.62-6.25h-12.3L105.89,39.98z M109.38,31.52h10.48l-5.24-12.63
			L109.38,31.52z"/>
		<path d="M146.44,36.45h0.07V16.19h2.42v23.79h-3.02l-13.84-20.46H132v20.46h-2.42V16.19h3.02L146.44,36.45z"/>
	</g>
	<g>
		<path d="M153.09,42.05v-0.74h8.67v0.74H153.09z"/>
		<path d="M164.12,37.97c0,0.06,0.02,0.1,0.06,0.13c0.04,0.03,0.08,0.04,0.11,0.04c0.87,0,1.71-0.1,2.51-0.29
			c0.8-0.2,1.48-0.45,2.04-0.75c0.04-0.02,0.11-0.03,0.19-0.03c0.08,0.01,0.18,0.04,0.29,0.11c0.16,0.11,0.22,0.22,0.2,0.31
			c-0.02,0.1-0.14,0.21-0.35,0.33c-0.76,0.44-1.54,0.75-2.33,0.95c-0.79,0.2-1.6,0.33-2.44,0.4c-0.08,0.01-0.17,0.02-0.27,0.03
			c-0.1,0.01-0.19,0.01-0.27,0.01c-0.16,0-0.33-0.09-0.51-0.27c-0.18-0.18-0.28-0.35-0.28-0.52v-2.7c0-0.11,0-0.21-0.01-0.29
			c-0.01-0.08-0.01-0.16-0.03-0.23c-0.02-0.07-0.06-0.13-0.1-0.18c-0.05-0.06-0.11-0.11-0.19-0.15c-0.11-0.05-0.2-0.11-0.27-0.21
			c-0.07-0.1-0.1-0.2-0.1-0.33v-0.34l0.94,0.08l3.53-0.07c0.12,0,0.21-0.03,0.27-0.09c0.06-0.06,0.08-0.17,0.08-0.33l0.03-2
			c0-0.14-0.02-0.24-0.05-0.27c-0.03-0.03-0.13-0.05-0.29-0.05l-2.52,0.08c-0.13,0-0.27,0.01-0.41,0.02
			c-0.14,0.01-0.27,0.02-0.39,0.02c-0.1,0.01-0.26,0.02-0.49,0.02c-0.22,0-0.4-0.04-0.52-0.12c-0.07-0.03-0.11-0.08-0.13-0.14
			c-0.02-0.06-0.02-0.14-0.01-0.23l0.08-0.65c0.43,0.09,0.98,0.14,1.65,0.16c0.68,0.02,1.34,0.01,1.99-0.01l1.6-0.08
			c0.09,0,0.18,0.01,0.27,0.02c0.09,0.01,0.16,0.04,0.22,0.08c0.04,0.06,0.08,0.11,0.09,0.18s0.03,0.15,0.03,0.28l-0.17,3.46
			c-0.02,0.2-0.09,0.35-0.19,0.45c-0.11,0.1-0.29,0.14-0.55,0.14l-3.36,0.05c0,0.09,0,0.18,0.01,0.29c0.01,0.1,0.01,0.2,0.01,0.3
			V37.97z M171.38,33.87h2.28v-5.49c0-0.21-0.05-0.39-0.15-0.52c-0.1-0.13-0.23-0.27-0.39-0.4c-0.12-0.09-0.14-0.22-0.04-0.39
			s0.22-0.22,0.36-0.15l0.72,0.34c0.26,0.12,0.41,0.23,0.46,0.33c0.05,0.1,0.08,0.24,0.08,0.45v13.02c0,0.17-0.03,0.34-0.09,0.51
			s-0.13,0.34-0.21,0.5c-0.08,0.16-0.15,0.29-0.23,0.41c-0.07,0.12-0.13,0.2-0.16,0.24c-0.06,0.07-0.13,0.09-0.22,0.08
			c-0.09-0.02-0.13-0.06-0.13-0.13v-7.93h-2.28v5.66c0,0.17-0.03,0.34-0.09,0.51c-0.06,0.17-0.13,0.34-0.19,0.5
			c-0.08,0.16-0.15,0.29-0.23,0.41c-0.07,0.12-0.13,0.2-0.16,0.24c-0.06,0.07-0.13,0.09-0.22,0.08c-0.09-0.02-0.13-0.06-0.13-0.13
			V29.48c0-0.11-0.02-0.21-0.05-0.3c-0.03-0.09-0.07-0.17-0.12-0.24c-0.06-0.07-0.12-0.13-0.18-0.2c-0.07-0.07-0.13-0.13-0.2-0.2
			c-0.11-0.09-0.12-0.22-0.03-0.39c0.09-0.17,0.21-0.22,0.35-0.15l0.74,0.34c0.25,0.12,0.4,0.23,0.45,0.33
			c0.05,0.1,0.08,0.25,0.08,0.46V33.87z"/>
		<path d="M184.7,37.04c0,0.2-0.04,0.37-0.11,0.5c-0.07,0.13-0.24,0.19-0.5,0.19l-4.69,0.08c0,0.13-0.01,0.24-0.03,0.33
			c-0.02,0.08-0.06,0.16-0.13,0.23c-0.06,0.07-0.15,0.11-0.28,0.13c-0.13,0.02-0.24,0-0.34-0.04c-0.05-0.01-0.09-0.04-0.14-0.08
			c-0.05-0.04-0.08-0.1-0.08-0.19c-0.01-0.09-0.02-0.18-0.03-0.27c-0.01-0.09-0.01-0.17-0.01-0.25l-0.3-6.22l-0.3-0.59
			c-0.06-0.1-0.05-0.18,0.01-0.25c0.06-0.07,0.14-0.13,0.24-0.2c0.12-0.07,0.22-0.1,0.3-0.11c0.08-0.01,0.15,0.01,0.2,0.06
			l0.42,0.49l5.16-0.08c0.08,0,0.17,0.01,0.26,0.03c0.1,0.02,0.17,0.04,0.21,0.08c0.03,0.03,0.06,0.08,0.08,0.15
			c0.02,0.07,0.03,0.16,0.03,0.27V37.04z M183.66,31.99c0-0.13-0.02-0.22-0.05-0.26c-0.03-0.04-0.13-0.06-0.29-0.06l-3.8,0.07
			c-0.18,0-0.28,0.03-0.31,0.1c-0.03,0.07-0.04,0.16-0.02,0.29l0.17,4.79l3.95-0.1c0.12,0,0.21-0.03,0.27-0.09
			c0.06-0.06,0.08-0.17,0.08-0.33V31.99z M189.16,41.04c0,0.17-0.03,0.34-0.09,0.51s-0.13,0.34-0.19,0.5
			c-0.08,0.16-0.15,0.29-0.23,0.41c-0.07,0.12-0.13,0.2-0.16,0.24c-0.06,0.07-0.13,0.09-0.22,0.08c-0.09-0.02-0.13-0.06-0.13-0.13
			V28.37c0-0.21-0.05-0.39-0.16-0.52c-0.11-0.13-0.24-0.27-0.4-0.4c-0.11-0.09-0.12-0.22-0.03-0.39s0.21-0.22,0.35-0.15l0.74,0.34
			c0.25,0.12,0.4,0.23,0.45,0.33c0.05,0.1,0.08,0.24,0.08,0.45V41.04z"/>
		<path d="M192.92,29.85c0.63-0.59,1.45-0.89,2.45-0.89c0.49,0,0.95,0.08,1.36,0.24c0.41,0.16,0.77,0.39,1.06,0.68
			c0.29,0.29,0.52,0.64,0.69,1.03c0.17,0.4,0.25,0.83,0.25,1.3c0,1.01-0.31,1.8-0.93,2.39c-0.62,0.58-1.43,0.87-2.43,0.87
			c-1.01,0-1.83-0.28-2.45-0.85c-0.63-0.57-0.94-1.37-0.94-2.41C191.98,31.24,192.29,30.45,192.92,29.85z M193.62,30.56
			c-0.38,0.47-0.56,1.02-0.56,1.66c0,0.65,0.19,1.21,0.56,1.67c0.38,0.46,0.96,0.7,1.76,0.7c0.78,0,1.36-0.23,1.73-0.7
			c0.37-0.46,0.55-1.02,0.55-1.67c0-0.64-0.17-1.19-0.52-1.66c-0.35-0.47-0.94-0.71-1.76-0.71
			C194.58,29.85,193.99,30.09,193.62,30.56z M196.23,42.52c-0.13,0-0.27-0.01-0.42-0.02c-0.15-0.01-0.28-0.05-0.4-0.12
			c-0.12-0.07-0.22-0.17-0.3-0.29c-0.08-0.13-0.12-0.31-0.12-0.55v-2.47c0-0.24-0.02-0.42-0.05-0.55c-0.03-0.13-0.13-0.23-0.3-0.31
			c-0.13-0.05-0.23-0.09-0.29-0.14c-0.06-0.05-0.09-0.14-0.09-0.28v-0.44l1.04,0.12c0.18,0.03,0.32,0.08,0.42,0.15
			c0.1,0.07,0.17,0.15,0.22,0.25c0.04,0.1,0.07,0.22,0.08,0.35s0.02,0.27,0.02,0.42v2.45c0,0.18,0.02,0.31,0.05,0.39
			c0.03,0.08,0.15,0.13,0.35,0.13h2.65c0.68,0,1.25-0.02,1.71-0.08c0.45-0.05,0.78-0.1,0.98-0.16c0.12-0.03,0.23-0.05,0.31-0.06
			c0.08-0.01,0.18,0.01,0.29,0.06l0.66,0.27c0.17,0.07,0.27,0.13,0.32,0.18c0.04,0.06,0.05,0.16,0.02,0.32
			c-0.03,0.17-0.08,0.27-0.15,0.3c-0.07,0.03-0.18,0.05-0.34,0.05H196.23z M202.83,32.76l0.6-0.02c0.17,0,0.31-0.01,0.44-0.03
			c0.12-0.02,0.31-0.07,0.57-0.15c0.1-0.03,0.19-0.06,0.27-0.08c0.08-0.02,0.15-0.04,0.2-0.05c0.07,0,0.13,0.01,0.2,0.02
			c0.07,0.01,0.15,0.04,0.24,0.08l0.6,0.35c0.08,0.06,0.12,0.12,0.13,0.2c0.01,0.08-0.01,0.16-0.07,0.24l-0.08,0.12
			c-0.07,0.09-0.15,0.15-0.24,0.18c-0.1,0.03-0.19,0.03-0.29-0.01c-0.08-0.01-0.18-0.02-0.3-0.03c-0.12-0.01-0.21-0.01-0.25-0.01
			h-2.02v3.8c0,0.16-0.03,0.32-0.09,0.5c-0.06,0.17-0.13,0.34-0.21,0.5c-0.08,0.16-0.15,0.3-0.23,0.42
			c-0.07,0.12-0.13,0.21-0.16,0.25c-0.06,0.07-0.13,0.09-0.22,0.08c-0.09-0.02-0.13-0.06-0.13-0.14V28.37
			c0-0.21-0.05-0.39-0.16-0.52c-0.11-0.13-0.24-0.27-0.4-0.4c-0.11-0.09-0.12-0.22-0.03-0.39s0.21-0.22,0.35-0.15l0.74,0.34
			c0.26,0.12,0.41,0.23,0.46,0.33c0.05,0.1,0.08,0.24,0.08,0.45V32.76z"/>
	</g>
</g>
</svg>
