<?xml version="1.0" encoding="utf-8"?>
<!-- Generator: Adobe Illustrator 23.0.1, SVG Export Plug-In . SVG Version: 6.00 Build 0)  -->
<svg version="1.1" id="レイヤー_1" xmlns="http://www.w3.org/2000/svg" xmlns:xlink="http://www.w3.org/1999/xlink" x="0px"
	 y="0px" viewBox="0 0 300 50" style="enable-background:new 0 0 300 50;" xml:space="preserve">
<g>
	<g>
		<g>
			<path d="M17,19.4c-0.5-0.7-1.2-1.3-2-1.7c-0.8-0.4-1.8-0.7-2.9-0.7c-0.6,0-1.2,0.1-1.8,0.3c-0.6,0.2-1.2,0.5-1.6,0.8
				c-0.5,0.4-0.9,0.8-1.2,1.4c-0.3,0.6-0.5,1.2-0.5,2c0,0.8,0.1,1.4,0.4,1.9c0.3,0.5,0.7,0.9,1.2,1.3c0.5,0.3,1,0.6,1.6,0.9
				c0.6,0.2,1.3,0.4,1.9,0.7c0.8,0.3,1.7,0.6,2.5,0.9c0.8,0.3,1.6,0.7,2.3,1.2c0.7,0.5,1.2,1.1,1.6,1.9c0.4,0.8,0.6,1.8,0.6,2.9
				c0,1.2-0.2,2.2-0.7,3.1c-0.5,0.9-1,1.6-1.8,2.1c-0.7,0.6-1.5,1-2.5,1.2c-0.9,0.3-1.9,0.4-2.8,0.4c-0.7,0-1.4-0.1-2.2-0.2
				c-0.7-0.1-1.4-0.4-2-0.7C6.7,38.8,6,38.5,5.5,38c-0.6-0.4-1.1-1-1.5-1.5l2.1-1.5c0.5,0.9,1.2,1.6,2.2,2.1c0.9,0.6,2,0.9,3.3,0.9
				c0.6,0,1.2-0.1,1.8-0.3c0.6-0.2,1.2-0.5,1.7-0.9c0.5-0.4,0.9-0.9,1.2-1.4c0.3-0.6,0.5-1.2,0.5-2c0-0.8-0.2-1.5-0.5-2.1
				c-0.3-0.5-0.8-1-1.3-1.4c-0.5-0.4-1.2-0.7-1.8-0.9c-0.7-0.2-1.4-0.5-2.2-0.7c-0.8-0.2-1.6-0.5-2.3-0.8c-0.8-0.3-1.4-0.7-2-1.2
				C6,25.6,5.5,25,5.2,24.3c-0.4-0.7-0.6-1.6-0.6-2.7c0-1.1,0.2-2.1,0.7-3c0.5-0.8,1.1-1.5,1.8-2c0.7-0.5,1.6-0.9,2.5-1.2
				c0.9-0.2,1.8-0.4,2.7-0.4c1.6,0,3,0.3,4.1,0.9c1.1,0.6,2,1.2,2.6,2L17,19.4z"/>
			<path d="M34.2,29.2c0-1.4-0.4-2.4-1.1-3c-0.7-0.7-1.8-1-3.1-1c-0.9,0-1.8,0.2-2.6,0.5c-0.8,0.3-1.5,0.8-2,1.3l-1.3-1.5
				c0.6-0.6,1.5-1.2,2.6-1.6c1.1-0.4,2.3-0.6,3.6-0.6c0.9,0,1.6,0.1,2.4,0.4c0.7,0.2,1.4,0.6,1.9,1.1c0.6,0.5,1,1.1,1.3,1.8
				c0.3,0.7,0.5,1.6,0.5,2.5v6.9c0,0.6,0,1.2,0.1,1.9s0.1,1.2,0.2,1.6h-2c-0.1-0.4-0.1-0.8-0.2-1.2c0-0.4-0.1-0.9-0.1-1.3h-0.1
				c-0.7,1.1-1.5,1.8-2.4,2.3c-0.9,0.5-2,0.7-3.3,0.7c-0.6,0-1.2-0.1-1.9-0.3c-0.6-0.2-1.2-0.4-1.7-0.8c-0.5-0.4-1-0.9-1.3-1.5
				c-0.3-0.6-0.5-1.3-0.5-2.2c0-1.2,0.3-2.2,0.9-2.9c0.6-0.7,1.4-1.2,2.5-1.6c1-0.3,2.2-0.6,3.5-0.7c1.3-0.1,2.7-0.2,4.1-0.2V29.2z
				 M33.5,31.5c-0.9,0-1.9,0-2.8,0.1c-1,0.1-1.8,0.2-2.6,0.5c-0.8,0.2-1.4,0.6-1.9,1c-0.5,0.4-0.7,1-0.7,1.8c0,0.6,0.1,1,0.3,1.4
				c0.2,0.4,0.5,0.7,0.9,0.9c0.4,0.2,0.8,0.4,1.2,0.5c0.4,0.1,0.9,0.2,1.3,0.2c0.8,0,1.5-0.1,2.2-0.4c0.6-0.3,1.2-0.7,1.6-1.1
				c0.4-0.5,0.8-1,1-1.7c0.2-0.6,0.3-1.3,0.3-2v-1.2H33.5z"/>
			<path d="M43.1,42.6c0.6,0.8,1.5,1.5,2.6,2.1c1.1,0.6,2.2,0.8,3.4,0.8c1.1,0,2.1-0.2,2.9-0.5c0.8-0.3,1.4-0.8,1.9-1.3
				c0.5-0.6,0.8-1.2,1.1-2c0.2-0.8,0.3-1.6,0.3-2.4v-3h-0.1c-0.6,1-1.5,1.7-2.6,2.3c-1.1,0.5-2.2,0.8-3.4,0.8
				c-1.2,0-2.3-0.2-3.3-0.6s-1.8-1-2.6-1.7c-0.7-0.7-1.3-1.6-1.6-2.5c-0.4-1-0.6-2-0.6-3.2c0-1.1,0.2-2.2,0.6-3.2
				c0.4-1,0.9-1.8,1.6-2.6c0.7-0.7,1.6-1.3,2.6-1.7c1-0.4,2.1-0.6,3.3-0.6c1.1,0,2.3,0.3,3.4,0.8c1.1,0.5,2,1.3,2.6,2.3h0.1v-2.7
				h2.3v15.6c0,0.9-0.1,1.8-0.4,2.7c-0.2,1-0.7,1.8-1.3,2.7c-0.6,0.8-1.5,1.5-2.6,2c-1.1,0.5-2.5,0.8-4.3,0.8
				c-1.5,0-2.8-0.3-4.2-0.8c-1.3-0.6-2.5-1.3-3.4-2.3L43.1,42.6z M43.5,31.3c0,0.8,0.1,1.6,0.4,2.4c0.3,0.7,0.7,1.4,1.2,1.9
				c0.5,0.6,1.1,1,1.9,1.3c0.7,0.3,1.6,0.5,2.5,0.5c0.9,0,1.7-0.1,2.4-0.4c0.7-0.3,1.4-0.7,1.9-1.2c0.5-0.5,1-1.2,1.3-1.9
				c0.3-0.7,0.5-1.6,0.5-2.5c0-0.8-0.2-1.6-0.5-2.4c-0.3-0.7-0.7-1.4-1.3-1.9c-0.5-0.6-1.2-1-1.9-1.3s-1.5-0.5-2.4-0.5
				c-0.9,0-1.8,0.2-2.5,0.5c-0.7,0.3-1.4,0.8-1.9,1.3c-0.5,0.6-0.9,1.2-1.2,1.9C43.7,29.7,43.5,30.5,43.5,31.3z"/>
			<path d="M77.8,31.1c0,0.2,0,0.3,0,0.5s0,0.4,0,0.6h-13c0,0.8,0.2,1.5,0.5,2.2c0.3,0.7,0.7,1.3,1.2,1.8c0.5,0.5,1.1,0.9,1.8,1.2
				c0.7,0.3,1.4,0.5,2.3,0.5c1.2,0,2.2-0.3,3.1-0.8c0.9-0.5,1.5-1.2,2-1.9l1.7,1.3c-0.9,1.2-2,2-3.1,2.6c-1.1,0.5-2.3,0.8-3.6,0.8
				c-1.2,0-2.2-0.2-3.2-0.6c-1-0.4-1.9-1-2.6-1.7c-0.7-0.7-1.3-1.6-1.7-2.6c-0.4-1-0.6-2.1-0.6-3.3c0-1.2,0.2-2.3,0.6-3.3
				c0.4-1,1-1.9,1.7-2.6c0.7-0.7,1.6-1.3,2.5-1.7c1-0.4,2-0.6,3.1-0.6c1.2,0,2.3,0.2,3.3,0.6c0.9,0.4,1.7,1,2.4,1.7
				c0.6,0.7,1.1,1.5,1.4,2.5C77.6,29,77.8,30,77.8,31.1z M75.5,30.3c-0.1-1.5-0.5-2.7-1.4-3.7c-0.9-1-2.1-1.5-3.8-1.5
				c-0.8,0-1.5,0.1-2.1,0.4c-0.7,0.3-1.2,0.7-1.7,1.1c-0.5,0.5-0.9,1-1.2,1.6c-0.3,0.6-0.5,1.3-0.5,1.9H75.5z"/>
			<path d="M83,23.7l3.8,12.8h0.1l4.2-12.8h2.2l4.3,12.8h0.1l3.8-12.8h2.4l-5,15.7h-2.5l-4.2-12.7h-0.1L88,39.4h-2.5l-5-15.7H83z"/>
			<path d="M123.4,31.5c0,1.2-0.2,2.3-0.6,3.3c-0.4,1-1,1.9-1.7,2.6c-0.7,0.7-1.6,1.3-2.7,1.7c-1,0.4-2.2,0.6-3.4,0.6
				c-1.2,0-2.3-0.2-3.4-0.6c-1-0.4-1.9-1-2.7-1.7c-0.7-0.7-1.3-1.6-1.7-2.6c-0.4-1-0.6-2.1-0.6-3.3c0-1.2,0.2-2.3,0.6-3.3
				c0.4-1,1-1.9,1.7-2.6c0.7-0.7,1.6-1.3,2.7-1.7c1-0.4,2.2-0.6,3.4-0.6c1.2,0,2.4,0.2,3.4,0.6c1,0.4,1.9,1,2.7,1.7
				c0.7,0.7,1.3,1.6,1.7,2.6C123.2,29.3,123.4,30.4,123.4,31.5z M121,31.5c0-0.9-0.1-1.7-0.4-2.5c-0.3-0.8-0.7-1.4-1.2-2
				c-0.5-0.6-1.1-1-1.9-1.4c-0.7-0.3-1.6-0.5-2.5-0.5c-0.9,0-1.7,0.2-2.5,0.5c-0.7,0.3-1.4,0.8-1.9,1.4c-0.5,0.6-0.9,1.2-1.2,2
				c-0.3,0.8-0.4,1.6-0.4,2.5s0.1,1.7,0.4,2.5c0.3,0.8,0.7,1.4,1.2,2c0.5,0.6,1.1,1,1.9,1.3c0.7,0.3,1.6,0.5,2.5,0.5
				c0.9,0,1.7-0.2,2.5-0.5c0.7-0.3,1.4-0.8,1.9-1.3c0.5-0.6,0.9-1.2,1.2-2C120.8,33.2,121,32.4,121,31.5z"/>
			<path d="M143.9,31.5c0,1.2-0.2,2.3-0.6,3.3c-0.4,1-1,1.9-1.7,2.6c-0.7,0.7-1.6,1.3-2.7,1.7c-1,0.4-2.2,0.6-3.4,0.6
				c-1.2,0-2.3-0.2-3.4-0.6c-1-0.4-1.9-1-2.7-1.7c-0.7-0.7-1.3-1.6-1.7-2.6c-0.4-1-0.6-2.1-0.6-3.3c0-1.2,0.2-2.3,0.6-3.3
				c0.4-1,1-1.9,1.7-2.6c0.7-0.7,1.6-1.3,2.7-1.7c1-0.4,2.2-0.6,3.4-0.6c1.2,0,2.4,0.2,3.4,0.6c1,0.4,1.9,1,2.7,1.7
				c0.7,0.7,1.3,1.6,1.7,2.6C143.7,29.3,143.9,30.4,143.9,31.5z M141.5,31.5c0-0.9-0.1-1.7-0.4-2.5c-0.3-0.8-0.7-1.4-1.2-2
				c-0.5-0.6-1.1-1-1.9-1.4c-0.7-0.3-1.6-0.5-2.5-0.5s-1.7,0.2-2.5,0.5c-0.7,0.3-1.4,0.8-1.9,1.4c-0.5,0.6-0.9,1.2-1.2,2
				c-0.3,0.8-0.4,1.6-0.4,2.5s0.1,1.7,0.4,2.5c0.3,0.8,0.7,1.4,1.2,2c0.5,0.6,1.1,1,1.9,1.3c0.7,0.3,1.6,0.5,2.5,0.5
				s1.7-0.2,2.5-0.5c0.7-0.3,1.4-0.8,1.9-1.3c0.5-0.6,0.9-1.2,1.2-2C141.4,33.2,141.5,32.4,141.5,31.5z"/>
			<path d="M161.8,36.7c-0.7,1-1.5,1.8-2.6,2.3c-1.1,0.5-2.2,0.8-3.3,0.8c-1.2,0-2.3-0.2-3.3-0.6c-1-0.4-1.8-1-2.6-1.7
				c-0.7-0.7-1.3-1.6-1.6-2.6c-0.4-1-0.6-2.1-0.6-3.3c0-1.2,0.2-2.3,0.6-3.3c0.4-1,0.9-1.9,1.6-2.6c0.7-0.7,1.6-1.3,2.6-1.7
				c1-0.4,2.1-0.6,3.3-0.6c1.1,0,2.3,0.3,3.3,0.8c1.1,0.5,1.9,1.3,2.6,2.3h0.1V14h2.3v25.4h-2.3L161.8,36.7L161.8,36.7z M150.1,31.5
				c0,0.9,0.1,1.7,0.4,2.5c0.3,0.8,0.7,1.4,1.2,2c0.5,0.6,1.1,1,1.9,1.3c0.7,0.3,1.6,0.5,2.5,0.5c0.9,0,1.7-0.2,2.4-0.5
				c0.7-0.3,1.4-0.8,1.9-1.3c0.5-0.6,1-1.2,1.3-2c0.3-0.8,0.5-1.6,0.5-2.5c0-0.9-0.2-1.7-0.5-2.5c-0.3-0.8-0.7-1.4-1.3-2
				c-0.5-0.6-1.2-1-1.9-1.3c-0.7-0.3-1.5-0.5-2.4-0.5c-0.9,0-1.8,0.2-2.5,0.5s-1.4,0.8-1.9,1.4c-0.5,0.6-0.9,1.2-1.2,2
				C150.2,29.8,150.1,30.7,150.1,31.5z"/>
		</g>
	</g>
	<g>
		<path d="M171.7,41.5v-0.7h8.7v0.7H171.7z"/>
		<path d="M184.4,31.8c-0.1,0.5-0.3,0.9-0.4,1.3l1.7,2.2c0.1,0.2,0.3,0.3,0.4,0.4c0.1,0.1,0.3,0.2,0.5,0.4c0.1,0.1,0.2,0.2,0.3,0.3
			c0.1,0.1,0.1,0.3,0.2,0.5l0.1,0.6c0,0.1,0,0.2,0,0.3c0,0.1-0.1,0.1-0.2,0.1c-0.1,0-0.2,0-0.3,0c-0.1,0-0.2-0.1-0.2-0.2l-2.7-3.9
			c-0.2,0.5-0.5,1-0.8,1.4c-0.3,0.4-0.5,0.8-0.8,1.1c-0.3,0.3-0.5,0.6-0.8,0.9c-0.2,0.2-0.4,0.4-0.6,0.5c-0.1,0-0.1,0.1-0.2,0.1
			c-0.1,0-0.1,0.1-0.2,0.1c-0.1,0-0.2,0-0.2-0.1c-0.1,0-0.1-0.1-0.2-0.2c0-0.1,0-0.1,0-0.2c0-0.1,0.1-0.1,0.1-0.2
			c0.3-0.2,0.6-0.6,1-1c0.4-0.5,0.7-1,1.1-1.6c0.3-0.6,0.7-1.3,0.9-2c0.3-0.7,0.4-1.5,0.5-2.3c0-0.1,0-0.1-0.1-0.2
			c0-0.1-0.1-0.1-0.3-0.2l-0.3-0.2c-0.1-0.1-0.1-0.2,0-0.4c0.1-0.2,0.2-0.2,0.3-0.2c0.2,0.1,0.4,0.1,0.7,0.2
			c0.2,0.1,0.4,0.2,0.6,0.2c0.1,0.1,0.2,0.2,0.3,0.3c0,0.1,0,0.3,0,0.6C184.6,30.9,184.5,31.4,184.4,31.8z M190,39.8
			c0,0.2,0,0.3-0.1,0.5c-0.1,0.2-0.1,0.3-0.2,0.5c-0.1,0.2-0.2,0.3-0.2,0.4c-0.1,0.1-0.1,0.2-0.2,0.2c-0.1,0.1-0.1,0.1-0.2,0.1
			c-0.1,0-0.1-0.1-0.1-0.1v-7.9l-2.3,0.1c-0.1,0-0.2,0-0.3,0c-0.1,0-0.1-0.1-0.2-0.2l-0.4-0.5c-0.1-0.1-0.1-0.1,0-0.2
			c0.1-0.1,0.2-0.1,0.3-0.1l0.4,0.1c0.1,0,0.2,0,0.3,0c0.1,0,0.2,0,0.3,0l1.9-0.1v-3.7c0-0.1,0-0.2-0.1-0.3c0-0.1-0.1-0.2-0.1-0.2
			c-0.1-0.1-0.1-0.1-0.2-0.2c-0.1-0.1-0.1-0.1-0.2-0.2c-0.1-0.1-0.1-0.2,0-0.4c0.1-0.2,0.2-0.2,0.4-0.2l0.7,0.3
			c0.2,0.1,0.4,0.2,0.4,0.3c0,0.1,0.1,0.2,0.1,0.5V39.8z M193,40.5c0,0.2,0,0.3-0.1,0.5c-0.1,0.2-0.1,0.3-0.2,0.5
			c-0.1,0.2-0.2,0.3-0.2,0.4c-0.1,0.1-0.1,0.2-0.2,0.2c-0.1,0.1-0.1,0.1-0.2,0.1c-0.1,0-0.1-0.1-0.1-0.1V27.8c0-0.2-0.1-0.4-0.2-0.5
			c-0.1-0.1-0.2-0.3-0.4-0.4c-0.1-0.1-0.1-0.2,0-0.4s0.2-0.2,0.4-0.2l0.7,0.3c0.3,0.1,0.4,0.2,0.5,0.3s0.1,0.2,0.1,0.4V40.5z"/>
		<path d="M197.1,31.1c0.6-0.7,1.5-1,2.6-1c0.5,0,1,0.1,1.5,0.3c0.4,0.2,0.8,0.4,1.1,0.7c0.3,0.3,0.6,0.7,0.7,1.1
			c0.2,0.4,0.3,0.9,0.3,1.4c0,0.5-0.1,1-0.3,1.4c-0.2,0.4-0.4,0.8-0.7,1.1c-0.3,0.3-0.7,0.6-1.1,0.7c-0.4,0.2-0.9,0.3-1.4,0.3
			s-1-0.1-1.5-0.2c-0.4-0.2-0.8-0.4-1.2-0.7c-0.3-0.3-0.6-0.7-0.7-1.1c-0.2-0.4-0.3-0.9-0.3-1.4C196.1,32.6,196.4,31.8,197.1,31.1z
			 M197.9,31.8c-0.4,0.5-0.7,1.1-0.7,1.8c0,0.7,0.2,1.4,0.7,1.8c0.4,0.5,1.1,0.7,1.9,0.7c0.8,0,1.4-0.2,1.8-0.7
			c0.4-0.5,0.7-1.1,0.7-1.9c0-0.7-0.2-1.3-0.6-1.8c-0.4-0.5-1.1-0.7-1.9-0.7C198.9,31,198.3,31.3,197.9,31.8z M207.7,40.5
			c0,0.2,0,0.3-0.1,0.5c-0.1,0.2-0.1,0.3-0.2,0.5c-0.1,0.2-0.2,0.3-0.2,0.4c-0.1,0.1-0.1,0.2-0.2,0.2c-0.1,0.1-0.1,0.1-0.2,0.1
			c-0.1,0-0.1-0.1-0.1-0.1V27.8c0-0.2-0.1-0.4-0.2-0.5c-0.1-0.1-0.2-0.3-0.4-0.4c-0.1-0.1-0.1-0.2,0-0.4s0.2-0.2,0.4-0.2l0.7,0.3
			c0.2,0.1,0.4,0.2,0.4,0.3s0.1,0.2,0.1,0.4V40.5z"/>
		<path d="M215.4,32.5c-0.1,0.2-0.2,0.5-0.3,0.7l2.3,2.3c0.1,0.1,0.2,0.1,0.2,0.2c0.1,0.1,0.1,0.1,0.2,0.2c0.1,0.1,0.1,0.1,0.2,0.2
			c0.1,0,0.2,0.1,0.2,0.1c0.2,0.1,0.3,0.2,0.4,0.3c0.1,0.1,0.2,0.3,0.2,0.5l0.1,0.5c0,0.1,0,0.3,0,0.3c0,0.1-0.1,0.1-0.1,0.2
			c-0.1,0.1-0.2,0.1-0.3,0.1c-0.1,0-0.2-0.1-0.3-0.2l-3.6-4c-0.4,0.7-0.9,1.4-1.5,2.2c-0.6,0.7-1.3,1.4-2,1.9
			c-0.1,0.1-0.2,0.1-0.2,0.1c-0.1,0-0.1,0-0.2,0c-0.1,0-0.2,0-0.3,0c-0.1,0-0.2-0.1-0.2-0.3c0-0.1,0-0.1,0-0.2
			c0-0.1,0.1-0.1,0.1-0.2c0.6-0.4,1.2-0.9,1.7-1.5c0.5-0.6,0.9-1.1,1.3-1.7c0.4-0.6,0.6-1.1,0.8-1.6s0.3-1,0.4-1.3
			c0-0.1,0-0.1,0-0.2c0-0.1,0-0.1-0.1-0.2c-0.1-0.1-0.2-0.1-0.3-0.2c-0.1-0.1-0.2-0.2-0.4-0.2l-1.8,0.2c-0.3,0-0.5,0-0.7,0
			c-0.2,0-0.3-0.1-0.3-0.1c-0.1,0-0.1-0.1-0.1-0.1c0-0.1,0-0.1,0-0.2l0.1-0.7c0.4,0.1,0.8,0.1,1.2,0.2c0.4,0,0.8,0,1.1,0
			c0.1,0,0.3,0,0.4,0c0.1,0,0.3,0,0.4,0c0.1,0,0.3,0,0.4,0c0.2,0,0.3,0,0.5,0c0.2,0,0.4,0,0.6,0c0.2,0,0.5,0,0.7-0.1
			c0.2,0,0.4,0,0.6-0.1c0.2,0,0.3,0,0.4,0c0.2,0,0.3,0,0.5,0c0.1,0,0.2,0,0.3,0c0.1,0,0.1,0,0.2,0c0.1,0,0.1,0,0.2,0.1l0.4,0.3
			c0.2,0.1,0.3,0.2,0.3,0.3c0,0.1,0,0.2,0,0.3c-0.1,0.1-0.1,0.2-0.2,0.3c-0.1,0-0.2,0.1-0.3,0c0,0-0.1,0-0.2,0c-0.1,0-0.1,0-0.2-0.1
			c-0.1,0-0.2,0-0.3,0c-0.1,0-0.2,0-0.3,0c-0.5,0-0.9-0.1-1.3-0.1c-0.4,0-0.8,0-1.4,0h-0.1c0.1,0.1,0.2,0.1,0.3,0.2
			c0.1,0.1,0.2,0.2,0.2,0.2c0,0.1,0,0.2,0,0.4c0,0.2-0.1,0.4-0.1,0.7C215.5,32.1,215.5,32.3,215.4,32.5z M222.7,40.5
			c0,0.2,0,0.3-0.1,0.5c-0.1,0.2-0.1,0.3-0.2,0.5c-0.1,0.2-0.1,0.3-0.2,0.4c-0.1,0.1-0.1,0.2-0.2,0.2c-0.1,0.1-0.1,0.1-0.2,0.1
			c-0.1,0-0.1-0.1-0.1-0.1V27.8c0-0.2-0.1-0.4-0.2-0.5c-0.1-0.1-0.2-0.3-0.4-0.4c-0.1-0.1-0.1-0.2,0-0.4s0.2-0.2,0.4-0.2l0.7,0.3
			c0.2,0.1,0.4,0.2,0.4,0.3c0.1,0.1,0.1,0.2,0.1,0.4V40.5z"/>
		<path d="M232.7,35.9c0.2,0.1,0.3,0.2,0.4,0.4c0,0.2,0.1,0.3,0.1,0.5v3.9c0,0.1,0,0.2-0.1,0.4c-0.1,0.1-0.1,0.3-0.2,0.4
			c-0.1,0.1-0.1,0.3-0.2,0.4c-0.1,0.1-0.1,0.2-0.2,0.2c0,0.1-0.1,0.1-0.2,0.1s-0.2-0.1-0.2-0.1V37c0-0.3,0-0.5-0.1-0.7
			s-0.2-0.3-0.4-0.4l-3.2,0.1l-1.9,0.1c-0.1,0-0.2,0-0.3,0c-0.1,0-0.3,0-0.4,0c-0.1,0-0.2,0-0.4,0c-0.1,0-0.2,0-0.3-0.1
			c-0.1,0-0.1-0.1-0.2-0.2c0-0.1,0-0.2,0-0.3l0.1-0.6c0.2,0.1,0.5,0.1,0.8,0.1c0.3,0,0.7,0.1,1,0.1c0.3,0,0.6,0,0.9,0
			c0.3,0,0.5,0,0.6,0c0.7,0,1.4,0,2,0c0.6,0,1.2,0,1.8-0.1c0.6,0,1.1,0,1.6,0c0.5,0,1,0,1.4-0.1c0.2,0,0.4,0,0.6,0
			c0.3,0,0.5,0,0.8,0c0.2,0,0.5,0,0.7-0.1c0.2,0,0.3,0,0.4,0c0.3,0,0.6-0.1,0.8-0.1c0.2,0,0.4,0,0.5,0.1l0.6,0.5
			c0.1,0.1,0.1,0.1,0.1,0.2c0,0.1,0,0.1,0,0.2c0,0.1-0.1,0.1-0.1,0.2s-0.1,0.1-0.2,0.1l-1.1-0.2c-0.2,0-0.5,0-0.8-0.1
			c-0.3,0-0.6,0-0.9,0c-0.3,0-0.6,0-0.9,0c-0.3,0-0.6,0-0.8,0L232.7,35.9z M229.8,28.1c0.7-0.6,1.5-0.9,2.6-0.9c0.5,0,1,0.1,1.5,0.2
			c0.4,0.2,0.8,0.4,1.1,0.7c0.3,0.3,0.6,0.6,0.7,1c0.2,0.4,0.3,0.8,0.3,1.3c0,0.5-0.1,1-0.3,1.4c-0.2,0.4-0.4,0.7-0.8,1
			c-0.3,0.3-0.7,0.5-1.1,0.6s-0.9,0.2-1.4,0.2c-1.1,0-1.9-0.3-2.6-0.8c-0.7-0.6-1-1.4-1-2.4C228.8,29.5,229.1,28.7,229.8,28.1z
			 M230.5,28.7c-0.4,0.4-0.7,1-0.7,1.7c0,0.7,0.2,1.3,0.7,1.7c0.4,0.4,1.1,0.6,1.9,0.6c0.8,0,1.4-0.2,1.8-0.6c0.4-0.4,0.7-1,0.7-1.7
			c0-0.7-0.2-1.2-0.6-1.7c-0.4-0.4-1.1-0.7-1.9-0.7C231.6,28.1,231,28.3,230.5,28.7z"/>
		<path d="M243.7,39.8l-1.9,0.1c-0.1,0-0.2,0-0.3,0c-0.1,0-0.3,0-0.4,0c-0.1,0-0.2,0-0.4,0c-0.1,0-0.2,0-0.3-0.1
			c-0.1,0-0.1-0.1-0.2-0.2c0-0.1,0-0.2,0-0.3l0.1-0.6c0.2,0.1,0.5,0.1,0.8,0.1c0.3,0,0.7,0.1,1,0.1c0.3,0,0.6,0,0.9,0
			c0.3,0,0.5,0,0.6,0c0.7,0,1.4,0,2,0c0.6,0,1.2,0,1.8,0c0.6,0,1.1,0,1.6-0.1c0.5,0,1,0,1.4-0.1c0.2,0,0.4,0,0.6,0
			c0.3,0,0.5,0,0.8,0c0.2,0,0.5,0,0.7,0c0.2,0,0.3,0,0.4,0c0.3,0,0.6-0.1,0.8-0.1c0.2,0,0.4,0,0.5,0.1l0.6,0.5
			c0.1,0.1,0.1,0.1,0.1,0.2c0,0.1,0,0.1,0,0.2c0,0.1-0.1,0.1-0.1,0.2c-0.1,0.1-0.1,0.1-0.2,0.1l-1.1-0.2c-0.2,0-0.5,0-0.8,0
			c-0.3,0-0.6,0-0.9,0c-0.3,0-0.6,0-0.9,0c-0.3,0-0.6,0-0.8,0L243.7,39.8z M243.5,30.8c0-0.2,0-0.4-0.1-0.5c0-0.1-0.1-0.2-0.3-0.2
			c-0.1-0.1-0.2-0.1-0.3-0.2c-0.1-0.1-0.1-0.2-0.1-0.4v-0.4l1.3,0.1l0.2,0.1h0.2c0.1,0,0.2,0,0.4,0c0.2,0,0.4,0,0.7,0
			c0.3,0,0.6,0,0.9,0c0.3,0,0.6,0,1,0c0.3,0,0.7,0,1,0c0.3,0,0.6,0,0.8,0c0.2,0,0.5,0,0.6,0c0.2,0,0.3,0,0.3,0c0.2,0,0.4,0,0.5-0.1
			c0.1,0,0.2,0,0.3,0c0.1,0,0.1,0,0.2,0c0,0,0.1,0,0.2,0.1l0.3,0.2c0.2,0.1,0.3,0.2,0.3,0.3c0,0.1,0,0.2,0,0.3
			c-0.1,0.2-0.1,0.3-0.2,0.3c-0.1,0-0.2,0.1-0.4,0.1h-6.6v4.2c0,0.2,0,0.3,0.1,0.4c0,0.1,0.2,0.1,0.4,0.1l3.3,0c0.5,0,1,0,1.4-0.1
			c0.4,0,0.8-0.1,0.9-0.1c0.1,0,0.2,0,0.3,0c0.1,0,0.2,0,0.3,0.1l0.5,0.2c0.2,0.1,0.3,0.2,0.3,0.2c0,0.1,0,0.2,0,0.3
			c0,0.1-0.1,0.2-0.2,0.3c-0.1,0-0.2,0.1-0.3,0.1c-0.3,0-0.6,0-1,0c-0.4,0-0.8,0-1.3,0l-4.6,0.1c-0.1,0-0.3,0-0.4,0
			c-0.1,0-0.3-0.1-0.4-0.1c-0.1-0.1-0.2-0.2-0.3-0.3c-0.1-0.1-0.1-0.3-0.1-0.5V30.8z"/>
	</g>
</g>
</svg>
