<?xml version="1.0" encoding="utf-8"?>
<!-- Generator: Adobe Illustrator 23.0.1, SVG Export Plug-In . SVG Version: 6.00 Build 0)  -->
<svg version="1.1" id="レイヤー_1" xmlns="http://www.w3.org/2000/svg" xmlns:xlink="http://www.w3.org/1999/xlink" x="0px"
	 y="0px" viewBox="0 0 300 50" style="enable-background:new 0 0 300 50;" xml:space="preserve">
<g>
	<path d="M14.77,29.58c1.3,0.38,2.37,1.13,3.23,2.25c0.85,1.12,1.28,2.49,1.28,4.1c0,1.05-0.21,2-0.62,2.84
		c-0.41,0.84-0.97,1.56-1.66,2.15c-0.69,0.59-1.51,1.05-2.44,1.38c-0.93,0.32-1.9,0.49-2.91,0.49s-1.98-0.16-2.91-0.49
		s-1.74-0.78-2.44-1.38c-0.69-0.59-1.25-1.31-1.66-2.15c-0.41-0.84-0.62-1.79-0.62-2.84c0-0.81,0.11-1.55,0.34-2.23
		c0.22-0.68,0.54-1.3,0.94-1.85c0.4-0.55,0.88-1.01,1.43-1.39c0.55-0.38,1.15-0.67,1.8-0.87v-0.07c-0.54-0.18-1.02-0.44-1.46-0.79
		c-0.44-0.35-0.81-0.76-1.13-1.24C5.62,27,5.37,26.47,5.19,25.9c-0.18-0.57-0.27-1.16-0.27-1.76c0-0.96,0.18-1.84,0.54-2.62
		c0.36-0.78,0.84-1.45,1.46-2c0.62-0.55,1.33-0.97,2.13-1.28c0.81-0.3,1.67-0.45,2.59-0.45c0.9,0,1.75,0.15,2.57,0.45
		c0.82,0.3,1.53,0.73,2.15,1.28c0.62,0.55,1.1,1.22,1.46,2c0.36,0.78,0.54,1.66,0.54,2.62c0,0.6-0.09,1.19-0.27,1.76
		c-0.18,0.57-0.43,1.1-0.74,1.58c-0.31,0.48-0.69,0.9-1.13,1.24c-0.44,0.35-0.92,0.61-1.46,0.79V29.58z M6.43,35.66
		c0,0.72,0.12,1.39,0.37,2.02c0.25,0.63,0.6,1.16,1.06,1.61c0.46,0.45,1.01,0.8,1.65,1.06c0.64,0.26,1.35,0.39,2.13,0.39
		c0.78,0,1.5-0.13,2.13-0.39c0.64-0.26,1.19-0.61,1.65-1.06c0.46-0.45,0.81-0.99,1.06-1.61c0.25-0.63,0.37-1.3,0.37-2.02
		c0-0.72-0.12-1.38-0.37-1.98c-0.25-0.6-0.6-1.13-1.06-1.58c-0.46-0.45-1.01-0.79-1.65-1.04c-0.64-0.25-1.35-0.37-2.13-0.37
		c-0.78,0-1.5,0.12-2.13,0.37c-0.64,0.25-1.19,0.59-1.65,1.04c-0.46,0.45-0.81,0.97-1.06,1.58C6.56,34.28,6.43,34.94,6.43,35.66z
		 M7.27,24.27c0,0.63,0.11,1.2,0.34,1.71c0.22,0.52,0.54,0.96,0.94,1.34c0.4,0.38,0.87,0.68,1.39,0.89c0.53,0.21,1.09,0.32,1.7,0.32
		c0.6,0,1.17-0.11,1.7-0.32c0.53-0.21,0.99-0.51,1.39-0.89c0.4-0.38,0.72-0.83,0.94-1.34c0.22-0.52,0.34-1.09,0.34-1.71
		c0-0.63-0.11-1.21-0.34-1.76c-0.22-0.55-0.53-1.02-0.92-1.41c-0.39-0.39-0.85-0.7-1.38-0.92c-0.53-0.22-1.1-0.34-1.73-0.34
		c-0.63,0-1.2,0.11-1.73,0.34C9.39,20.4,8.93,20.7,8.53,21.1c-0.39,0.39-0.7,0.86-0.92,1.41C7.39,23.06,7.27,23.64,7.27,24.27z"/>
	<path d="M32.17,42.18h-2.42V20.54h-7.96v-2.15h18.34v2.15h-7.96V42.18z"/>
	<path d="M43.7,18.39h2.42v10.32h12.97V18.39h2.42v23.79h-2.42V30.92H46.11v11.26H43.7V18.39z"/>
	<path d="M70.24,40.03h12.74v2.15H67.82V18.39h14.75v2.15H70.24v8.16h11.53v2.15H70.24V40.03z"/>
	<path d="M103.74,42.18h-2.42V20.54h-7.96v-2.15h18.34v2.15h-7.96V42.18z"/>
	<path d="M115.26,18.39h2.42v10.32h12.97V18.39h2.42v23.79h-2.42V30.92h-12.97v11.26h-2.42V18.39z"/>
	<path d="M139.22,42.18h-2.65l10.28-23.79h2.35l10.21,23.79h-2.69l-2.62-6.25h-12.3L139.22,42.18z M142.71,33.71h10.48l-5.24-12.63
		L142.71,33.71z"/>
	<path d="M165.33,40.03h11.09v2.15h-13.51V18.39h2.42V40.03z"/>
	<path d="M179.87,42.18h-2.66l10.28-23.79h2.35l10.21,23.79h-2.69l-2.62-6.25h-12.3L179.87,42.18z M183.37,33.71h10.48l-5.24-12.63
		L183.37,33.71z"/>
	<path d="M215.09,22.22c-0.52-0.72-1.18-1.29-1.98-1.73c-0.81-0.44-1.78-0.65-2.92-0.65c-0.58,0-1.18,0.09-1.78,0.27
		c-0.6,0.18-1.15,0.45-1.65,0.82c-0.49,0.37-0.89,0.83-1.19,1.39c-0.3,0.56-0.45,1.22-0.45,1.98c0,0.76,0.14,1.39,0.43,1.88
		c0.29,0.49,0.68,0.91,1.16,1.26c0.48,0.35,1.03,0.63,1.64,0.86c0.61,0.22,1.26,0.45,1.93,0.67c0.83,0.27,1.66,0.56,2.5,0.87
		c0.84,0.31,1.59,0.72,2.26,1.23c0.67,0.5,1.22,1.14,1.64,1.92c0.42,0.77,0.64,1.75,0.64,2.94c0,1.19-0.23,2.21-0.68,3.07
		c-0.45,0.86-1.04,1.57-1.76,2.13c-0.72,0.56-1.55,0.97-2.48,1.24c-0.93,0.27-1.86,0.4-2.81,0.4c-0.72,0-1.43-0.07-2.15-0.22
		c-0.72-0.15-1.4-0.36-2.05-0.65c-0.65-0.29-1.25-0.66-1.81-1.11c-0.56-0.45-1.05-0.96-1.48-1.55l2.08-1.55
		c0.51,0.85,1.24,1.56,2.17,2.13c0.93,0.57,2.02,0.86,3.28,0.86c0.6,0,1.22-0.1,1.85-0.29c0.63-0.19,1.19-0.48,1.7-0.87
		c0.5-0.39,0.92-0.87,1.24-1.45c0.32-0.57,0.49-1.24,0.49-2c0-0.83-0.16-1.52-0.49-2.07c-0.33-0.55-0.76-1.01-1.29-1.38
		c-0.54-0.37-1.15-0.68-1.85-0.92c-0.69-0.25-1.42-0.49-2.18-0.74c-0.78-0.25-1.56-0.53-2.32-0.84s-1.45-0.72-2.05-1.23
		c-0.6-0.5-1.09-1.13-1.46-1.86c-0.37-0.74-0.56-1.65-0.56-2.72c0-1.14,0.23-2.13,0.69-2.96c0.46-0.83,1.06-1.51,1.8-2.05
		c0.74-0.54,1.56-0.93,2.45-1.18c0.9-0.25,1.78-0.37,2.66-0.37c1.61,0,2.99,0.29,4.13,0.86c1.14,0.57,2.01,1.25,2.59,2.03
		L215.09,22.22z"/>
	<path d="M234.04,22.22c-0.52-0.72-1.18-1.29-1.98-1.73c-0.81-0.44-1.78-0.65-2.92-0.65c-0.58,0-1.18,0.09-1.78,0.27
		c-0.61,0.18-1.15,0.45-1.65,0.82c-0.49,0.37-0.89,0.83-1.19,1.39c-0.3,0.56-0.45,1.22-0.45,1.98c0,0.76,0.14,1.39,0.44,1.88
		c0.29,0.49,0.68,0.91,1.16,1.26c0.48,0.35,1.03,0.63,1.64,0.86c0.62,0.22,1.26,0.45,1.93,0.67c0.83,0.27,1.66,0.56,2.5,0.87
		c0.84,0.31,1.59,0.72,2.26,1.23c0.67,0.5,1.22,1.14,1.64,1.92c0.42,0.77,0.64,1.75,0.64,2.94c0,1.19-0.23,2.21-0.68,3.07
		c-0.45,0.86-1.04,1.57-1.77,2.13c-0.72,0.56-1.55,0.97-2.48,1.24c-0.93,0.27-1.86,0.4-2.81,0.4c-0.72,0-1.43-0.07-2.15-0.22
		c-0.72-0.15-1.4-0.36-2.05-0.65c-0.65-0.29-1.26-0.66-1.81-1.11c-0.56-0.45-1.05-0.96-1.48-1.55l2.08-1.55
		c0.52,0.85,1.24,1.56,2.17,2.13c0.93,0.57,2.02,0.86,3.28,0.86c0.6,0,1.22-0.1,1.85-0.29c0.63-0.19,1.19-0.48,1.7-0.87
		c0.5-0.39,0.92-0.87,1.24-1.45c0.32-0.57,0.49-1.24,0.49-2c0-0.83-0.16-1.52-0.49-2.07c-0.33-0.55-0.76-1.01-1.29-1.38
		c-0.54-0.37-1.15-0.68-1.85-0.92c-0.69-0.25-1.42-0.49-2.18-0.74c-0.78-0.25-1.56-0.53-2.32-0.84c-0.76-0.31-1.45-0.72-2.05-1.23
		c-0.6-0.5-1.09-1.13-1.46-1.86c-0.37-0.74-0.55-1.65-0.55-2.72c0-1.14,0.23-2.13,0.69-2.96c0.46-0.83,1.06-1.51,1.8-2.05
		c0.74-0.54,1.56-0.93,2.45-1.18c0.9-0.25,1.78-0.37,2.65-0.37c1.61,0,2.99,0.29,4.13,0.86c1.14,0.57,2,1.25,2.59,2.03L234.04,22.22
		z"/>
	<path d="M264.98,30.29c0,1.81-0.31,3.48-0.94,5.01c-0.63,1.52-1.5,2.84-2.6,3.95c-1.11,1.11-2.42,1.98-3.93,2.6
		c-1.51,0.63-3.15,0.94-4.92,0.94c-1.77,0-3.41-0.31-4.92-0.94c-1.51-0.63-2.82-1.5-3.93-2.6c-1.11-1.11-1.98-2.42-2.6-3.95
		c-0.63-1.52-0.94-3.19-0.94-5.01s0.31-3.48,0.94-5.01c0.63-1.52,1.5-2.84,2.6-3.95c1.11-1.11,2.42-1.98,3.93-2.6
		c1.51-0.63,3.15-0.94,4.92-0.94c1.77,0,3.41,0.31,4.92,0.94c1.51,0.63,2.82,1.5,3.93,2.6s1.98,2.43,2.6,3.95
		C264.67,26.8,264.98,28.47,264.98,30.29z M262.43,30.3c0-1.39-0.22-2.71-0.67-3.96c-0.45-1.25-1.1-2.35-1.95-3.3
		c-0.85-0.95-1.89-1.7-3.11-2.26c-1.22-0.56-2.59-0.84-4.12-0.84c-1.52,0-2.9,0.28-4.12,0.84c-1.22,0.56-2.26,1.31-3.11,2.26
		c-0.85,0.95-1.5,2.05-1.95,3.3s-0.67,2.57-0.67,3.96c0,1.39,0.22,2.71,0.67,3.96c0.45,1.25,1.1,2.35,1.95,3.29
		c0.85,0.94,1.89,1.69,3.11,2.25c1.22,0.56,2.59,0.84,4.12,0.84c1.52,0,2.89-0.28,4.12-0.84c1.22-0.56,2.26-1.31,3.11-2.25
		c0.85-0.94,1.5-2.04,1.95-3.29C262.2,33.01,262.43,31.69,262.43,30.3z"/>
</g>
</svg>
