<?xml version="1.0" encoding="utf-8"?>
<!-- Generator: Adobe Illustrator 23.0.1, SVG Export Plug-In . SVG Version: 6.00 Build 0)  -->
<svg version="1.1" id="レイヤー_1" xmlns="http://www.w3.org/2000/svg" xmlns:xlink="http://www.w3.org/1999/xlink" x="0px"
	 y="0px" viewBox="0 0 300 50" style="enable-background:new 0 0 300 50;" xml:space="preserve">
<g>
	<g>
		<path d="M4.01,16.19h7.09c0.9,0,1.8,0.1,2.72,0.29c0.92,0.19,1.74,0.52,2.47,0.97c0.73,0.46,1.32,1.08,1.78,1.86
			c0.46,0.78,0.69,1.77,0.69,2.96c0,1.25-0.38,2.35-1.15,3.28c-0.77,0.93-1.79,1.54-3.07,1.83v0.07c1.54,0.18,2.82,0.78,3.84,1.8
			c1.02,1.02,1.53,2.4,1.53,4.15c0,0.99-0.21,1.89-0.62,2.7c-0.41,0.82-1,1.51-1.76,2.08c-0.76,0.57-1.69,1.01-2.78,1.33
			c-1.1,0.31-2.32,0.47-3.69,0.47H4.01V16.19z M6.43,26.61h4.87c0.58,0,1.17-0.07,1.76-0.2c0.59-0.13,1.14-0.36,1.63-0.69
			c0.49-0.32,0.89-0.76,1.19-1.29c0.3-0.54,0.45-1.2,0.45-1.98c0-0.76-0.15-1.41-0.45-1.93c-0.3-0.53-0.71-0.96-1.23-1.29
			c-0.52-0.34-1.12-0.58-1.81-0.72c-0.69-0.14-1.43-0.22-2.22-0.22h-4.2V26.61z M6.43,37.9h4.5c0.87,0,1.71-0.08,2.5-0.25
			c0.79-0.17,1.49-0.44,2.08-0.81c0.59-0.37,1.07-0.85,1.43-1.44c0.36-0.59,0.54-1.3,0.54-2.13c0-1.57-0.53-2.74-1.6-3.51
			c-1.06-0.77-2.57-1.16-4.52-1.16H6.43V37.9z"/>
		<path d="M48.9,28.09c0,1.81-0.31,3.48-0.94,5.01c-0.63,1.52-1.5,2.84-2.6,3.95c-1.11,1.11-2.42,1.98-3.93,2.6
			c-1.51,0.63-3.15,0.94-4.92,0.94c-1.77,0-3.41-0.31-4.92-0.94c-1.51-0.63-2.82-1.5-3.93-2.6c-1.11-1.11-1.98-2.42-2.6-3.95
			c-0.63-1.52-0.94-3.19-0.94-5.01c0-1.81,0.31-3.48,0.94-5.01c0.63-1.52,1.49-2.84,2.6-3.95c1.11-1.11,2.42-1.98,3.93-2.6
			c1.51-0.63,3.15-0.94,4.92-0.94c1.77,0,3.41,0.31,4.92,0.94c1.51,0.63,2.82,1.5,3.93,2.6c1.11,1.11,1.98,2.43,2.6,3.95
			C48.59,24.61,48.9,26.27,48.9,28.09z M46.35,28.11c0-1.39-0.22-2.71-0.67-3.96s-1.1-2.35-1.95-3.3c-0.85-0.95-1.89-1.7-3.11-2.26
			c-1.22-0.56-2.59-0.84-4.12-0.84c-1.52,0-2.9,0.28-4.12,0.84c-1.22,0.56-2.26,1.31-3.11,2.26c-0.85,0.95-1.5,2.05-1.95,3.3
			c-0.45,1.25-0.67,2.57-0.67,3.96c0,1.39,0.22,2.71,0.67,3.96c0.45,1.25,1.1,2.35,1.95,3.29c0.85,0.94,1.89,1.69,3.11,2.25
			c1.22,0.56,2.59,0.84,4.12,0.84c1.52,0,2.9-0.28,4.12-0.84c1.22-0.56,2.26-1.31,3.11-2.25c0.85-0.94,1.5-2.04,1.95-3.29
			C46.13,30.81,46.35,29.49,46.35,28.11z"/>
		<path d="M70.81,36.45h0.07V16.19h2.42v23.79h-3.02L56.43,19.52h-0.07v20.46h-2.42V16.19h3.02L70.81,36.45z"/>
	</g>
	<g>
		<path d="M79.99,42.05v-0.74h8.67v0.74H79.99z"/>
		<path d="M92.16,36.96l-1.9,0.07c-0.1,0.01-0.22,0.02-0.34,0.02c-0.13,0.01-0.26,0.01-0.39,0.01c-0.12,0-0.24-0.01-0.36-0.02
			c-0.12-0.01-0.21-0.03-0.28-0.07c-0.07-0.01-0.12-0.06-0.16-0.16c-0.04-0.1-0.04-0.21-0.01-0.34l0.12-0.57
			c0.21,0.06,0.49,0.1,0.82,0.13c0.34,0.03,0.67,0.05,1.01,0.08c0.34,0.01,0.64,0.02,0.92,0.03c0.28,0.01,0.47,0.01,0.57,0.01
			c0.65,0.01,1.28,0.01,1.89,0.01c0.61-0.01,1.19-0.02,1.74-0.04v-0.5c0-0.21-0.02-0.37-0.05-0.47c-0.03-0.1-0.13-0.18-0.3-0.24
			c-0.09-0.02-0.17-0.07-0.24-0.13c-0.07-0.07-0.09-0.17-0.07-0.3l0.03-0.32l1.06,0.1c0.27,0.03,0.43,0.12,0.5,0.27
			c0.06,0.15,0.09,0.27,0.09,0.37v1.19l2.25-0.08c0.17,0,0.38-0.01,0.63-0.03c0.25-0.02,0.51-0.03,0.76-0.04
			c0.25-0.02,0.47-0.04,0.67-0.05s0.34-0.02,0.4-0.03c0.35-0.03,0.63-0.05,0.85-0.06s0.38,0.03,0.48,0.11l0.56,0.5
			c0.08,0.08,0.12,0.15,0.13,0.21c0.01,0.06,0.01,0.11-0.02,0.16c-0.03,0.07-0.08,0.13-0.13,0.19c-0.06,0.06-0.12,0.08-0.19,0.06
			l-1.06-0.17c-0.21-0.01-0.47-0.02-0.76-0.03c-0.3-0.01-0.61-0.02-0.93-0.02c-0.31,0-0.62,0-0.93,0c-0.31,0-0.57,0-0.78,0
			L92.16,36.96z M93.42,42.72c-0.12,0-0.26-0.01-0.4-0.02c-0.15-0.01-0.28-0.05-0.4-0.12c-0.12-0.07-0.22-0.17-0.3-0.29
			c-0.08-0.13-0.12-0.31-0.12-0.55V40.2c0-0.24-0.02-0.42-0.06-0.55c-0.04-0.13-0.14-0.24-0.31-0.3c-0.13-0.03-0.23-0.08-0.29-0.14
			c-0.06-0.06-0.08-0.15-0.08-0.26v-0.47l1.04,0.15c0.18,0.03,0.32,0.08,0.42,0.15c0.1,0.07,0.17,0.15,0.22,0.25
			c0.04,0.09,0.07,0.2,0.08,0.33c0.01,0.13,0.02,0.27,0.02,0.41v1.55c0,0.18,0.02,0.31,0.05,0.39s0.15,0.13,0.35,0.13h2.96
			c0.69,0,1.27-0.03,1.72-0.08c0.45-0.05,0.78-0.1,0.98-0.16c0.12-0.03,0.23-0.05,0.31-0.06c0.08-0.01,0.18,0.01,0.29,0.06
			l0.66,0.27c0.17,0.07,0.27,0.13,0.32,0.18c0.05,0.06,0.05,0.16,0.02,0.32c-0.04,0.17-0.1,0.27-0.16,0.3
			c-0.06,0.03-0.17,0.05-0.33,0.05H93.42z M92.38,29.67c0-0.27-0.03-0.46-0.08-0.58c-0.06-0.12-0.16-0.22-0.3-0.29
			c-0.11-0.04-0.18-0.09-0.2-0.13c-0.02-0.05-0.03-0.13-0.03-0.27v-0.25l0.92,0.1c0.37,0.05,0.58,0.17,0.65,0.38
			c0.06,0.21,0.09,0.46,0.09,0.76v3.49l5.06-0.07c0.13,0,0.23-0.03,0.28-0.09c0.05-0.06,0.08-0.17,0.08-0.33V31.1l-4.08,0.05
			c-0.13,0-0.23-0.01-0.29-0.04c-0.06-0.03-0.13-0.09-0.19-0.18l-0.35-0.47c-0.07-0.07-0.07-0.14,0-0.22
			c0.07-0.08,0.17-0.1,0.3-0.07l0.39,0.08c0.07,0.02,0.16,0.03,0.29,0.03c0.13,0,0.23,0,0.29,0l3.65-0.05v-1.19
			c0-0.27-0.03-0.46-0.08-0.57c-0.05-0.11-0.16-0.2-0.33-0.27c-0.1-0.03-0.16-0.08-0.18-0.14c-0.02-0.06-0.03-0.16-0.03-0.29v-0.24
			l0.94,0.08c0.36,0.03,0.57,0.16,0.63,0.37c0.06,0.21,0.09,0.47,0.09,0.77v4.32c0,0.2-0.06,0.35-0.17,0.45
			c-0.11,0.1-0.3,0.15-0.55,0.15l-5.73,0.03v0.07c0,0.1-0.02,0.2-0.08,0.29c-0.05,0.1-0.1,0.16-0.14,0.19
			c-0.09,0.08-0.19,0.13-0.29,0.14c-0.11,0.02-0.19,0-0.24-0.04c-0.03-0.01-0.07-0.04-0.11-0.08c-0.04-0.04-0.07-0.09-0.09-0.16
			c-0.03-0.1-0.06-0.2-0.07-0.31c-0.01-0.11-0.02-0.2-0.02-0.28V29.67z"/>
		<path d="M105.18,31.69c0.65-0.66,1.53-0.98,2.64-0.98c0.54,0,1.02,0.09,1.46,0.26c0.44,0.17,0.82,0.42,1.14,0.73
			c0.31,0.3,0.56,0.67,0.73,1.09c0.17,0.43,0.26,0.89,0.26,1.39c0,0.5-0.09,0.97-0.27,1.39c-0.18,0.43-0.43,0.79-0.74,1.09
			c-0.32,0.31-0.71,0.55-1.14,0.72c-0.44,0.17-0.92,0.25-1.45,0.25s-1.01-0.08-1.45-0.24c-0.44-0.16-0.83-0.4-1.15-0.7
			c-0.31-0.3-0.56-0.67-0.74-1.09c-0.18-0.43-0.27-0.9-0.27-1.43C104.2,33.18,104.53,32.35,105.18,31.69z M105.95,32.35
			c-0.45,0.5-0.67,1.11-0.67,1.84c0,0.74,0.22,1.35,0.67,1.84c0.45,0.49,1.07,0.73,1.86,0.73c0.78,0,1.4-0.24,1.85-0.71
			c0.45-0.48,0.67-1.09,0.67-1.86c0-0.73-0.21-1.34-0.64-1.84c-0.43-0.5-1.05-0.75-1.88-0.75C107.02,31.6,106.4,31.85,105.95,32.35z
			 M115.22,34.64l0.76-0.03c0.17,0,0.31-0.01,0.44-0.03c0.12-0.02,0.31-0.07,0.57-0.15c0.1-0.03,0.19-0.06,0.27-0.08
			c0.08-0.02,0.15-0.04,0.22-0.05c0.07-0.01,0.13-0.01,0.19,0.01s0.14,0.05,0.23,0.09l0.6,0.35c0.08,0.06,0.12,0.12,0.13,0.2
			c0.01,0.08-0.01,0.16-0.07,0.24l-0.08,0.12c-0.07,0.09-0.15,0.15-0.24,0.18c-0.1,0.03-0.19,0.03-0.29-0.01
			c-0.08-0.01-0.18-0.02-0.3-0.03c-0.12-0.01-0.21-0.01-0.25-0.01h-2.17v5.61c0,0.17-0.03,0.34-0.09,0.51
			c-0.06,0.17-0.13,0.34-0.19,0.5c-0.08,0.16-0.15,0.29-0.23,0.41c-0.07,0.12-0.13,0.2-0.16,0.24c-0.06,0.07-0.13,0.09-0.22,0.08
			c-0.09-0.02-0.13-0.06-0.13-0.13V28.37c0-0.21-0.05-0.39-0.16-0.52c-0.11-0.13-0.24-0.27-0.4-0.4c-0.11-0.09-0.12-0.22-0.03-0.39
			c0.09-0.17,0.21-0.22,0.35-0.15l0.74,0.34c0.25,0.12,0.4,0.23,0.45,0.33c0.05,0.1,0.08,0.24,0.08,0.45V34.64z"/>
		<path d="M120.63,31.69c0.65-0.66,1.53-0.98,2.64-0.98c0.54,0,1.02,0.09,1.46,0.26c0.44,0.17,0.82,0.42,1.14,0.73
			c0.31,0.3,0.56,0.67,0.73,1.09c0.17,0.43,0.26,0.89,0.26,1.39c0,0.5-0.09,0.97-0.27,1.39c-0.18,0.43-0.43,0.79-0.74,1.09
			c-0.32,0.31-0.71,0.55-1.14,0.72c-0.44,0.17-0.92,0.25-1.45,0.25s-1.01-0.08-1.45-0.24c-0.44-0.16-0.83-0.4-1.15-0.7
			c-0.31-0.3-0.56-0.67-0.74-1.09c-0.18-0.43-0.27-0.9-0.27-1.43C119.66,33.18,119.98,32.35,120.63,31.69z M121.41,32.35
			c-0.45,0.5-0.67,1.11-0.67,1.84c0,0.74,0.22,1.35,0.67,1.84c0.45,0.49,1.07,0.73,1.86,0.73c0.78,0,1.4-0.24,1.85-0.71
			c0.45-0.48,0.67-1.09,0.67-1.86c0-0.73-0.21-1.34-0.64-1.84c-0.43-0.5-1.05-0.75-1.88-0.75C122.48,31.6,121.85,31.85,121.41,32.35
			z M131.3,41.04c0,0.17-0.03,0.34-0.09,0.51s-0.13,0.34-0.19,0.5c-0.08,0.16-0.15,0.29-0.23,0.41c-0.07,0.12-0.13,0.2-0.16,0.24
			c-0.06,0.07-0.13,0.09-0.22,0.08c-0.09-0.02-0.13-0.06-0.13-0.13V28.37c0-0.21-0.05-0.39-0.16-0.52c-0.11-0.13-0.24-0.27-0.39-0.4
			c-0.11-0.09-0.12-0.22-0.03-0.39c0.09-0.17,0.21-0.22,0.35-0.15l0.74,0.34c0.25,0.12,0.39,0.23,0.44,0.33
			c0.05,0.1,0.08,0.24,0.08,0.45V41.04z"/>
		<path d="M134.97,32.02c0.6-0.6,1.4-0.91,2.41-0.91c0.96,0,1.75,0.3,2.37,0.89c0.62,0.59,0.92,1.37,0.92,2.34
			c0,1-0.31,1.78-0.94,2.36c-0.63,0.58-1.41,0.87-2.35,0.87c-1.01,0-1.81-0.29-2.41-0.88c-0.6-0.59-0.9-1.37-0.9-2.34
			C134.07,33.4,134.37,32.62,134.97,32.02z M135.72,32.62c-0.38,0.41-0.57,0.98-0.57,1.72c0,0.74,0.2,1.31,0.6,1.72
			c0.4,0.41,0.95,0.61,1.63,0.61c0.71,0,1.25-0.2,1.64-0.61c0.39-0.41,0.58-0.98,0.58-1.72c0-0.74-0.19-1.31-0.58-1.72
			c-0.39-0.41-0.93-0.61-1.64-0.61C136.65,32,136.1,32.21,135.72,32.62z M143.88,40.39c0,0.17-0.03,0.34-0.09,0.51
			s-0.13,0.34-0.19,0.5c-0.08,0.16-0.15,0.29-0.23,0.41c-0.07,0.12-0.13,0.2-0.16,0.24c-0.06,0.07-0.13,0.09-0.22,0.08
			c-0.09-0.02-0.13-0.06-0.13-0.13v-7.22l-1.08,0.07c-0.13,0.01-0.24,0-0.32-0.03c-0.08-0.03-0.14-0.1-0.18-0.19l-0.35-0.59
			c-0.05-0.07-0.04-0.14,0.02-0.22c0.06-0.08,0.15-0.1,0.29-0.07l0.39,0.1c0.08,0.02,0.18,0.03,0.31,0.03s0.22,0,0.28,0h0.65v-4.4
			c0-0.11-0.02-0.21-0.05-0.3c-0.03-0.09-0.07-0.17-0.12-0.24c-0.06-0.07-0.12-0.13-0.18-0.2c-0.07-0.07-0.13-0.13-0.2-0.2
			c-0.11-0.09-0.12-0.22-0.03-0.39c0.09-0.17,0.21-0.22,0.35-0.15l0.74,0.34c0.25,0.12,0.39,0.23,0.44,0.33
			c0.05,0.1,0.08,0.25,0.08,0.46V40.39z M146.76,41.04c0,0.17-0.03,0.34-0.09,0.51s-0.13,0.34-0.21,0.5
			c-0.08,0.16-0.15,0.29-0.23,0.41c-0.07,0.12-0.13,0.2-0.16,0.24c-0.06,0.07-0.13,0.09-0.22,0.08c-0.09-0.02-0.13-0.06-0.13-0.13
			V28.37c0-0.21-0.05-0.39-0.15-0.52c-0.1-0.13-0.23-0.27-0.39-0.4c-0.12-0.09-0.14-0.22-0.04-0.39c0.09-0.17,0.22-0.22,0.36-0.15
			l0.72,0.34c0.26,0.12,0.41,0.23,0.46,0.33c0.05,0.1,0.08,0.24,0.08,0.45V41.04z"/>
		<path d="M152.64,40.37l-1.9,0.05c-0.1,0.01-0.22,0.02-0.34,0.03c-0.13,0.01-0.26,0.01-0.4,0.01c-0.12,0-0.24-0.01-0.36-0.02
			c-0.12-0.01-0.21-0.03-0.28-0.07c-0.07-0.01-0.12-0.06-0.16-0.16c-0.04-0.1-0.04-0.21-0.01-0.34l0.12-0.57
			c0.21,0.06,0.49,0.1,0.82,0.13c0.33,0.03,0.67,0.05,1.01,0.08c0.34,0.02,0.64,0.04,0.92,0.04c0.28,0.01,0.47,0.01,0.57,0.01
			c0.71,0.01,1.38,0.01,2.02,0.01c0.64-0.01,1.25-0.02,1.83-0.04c0.57-0.01,1.11-0.02,1.62-0.03s0.99-0.03,1.44-0.05
			c0.17,0,0.38-0.01,0.63-0.03c0.25-0.02,0.51-0.03,0.76-0.04c0.25-0.02,0.47-0.04,0.67-0.05c0.2-0.01,0.34-0.02,0.4-0.03
			c0.35-0.03,0.63-0.05,0.85-0.05c0.22,0,0.38,0.04,0.48,0.12l0.55,0.5c0.08,0.08,0.12,0.15,0.14,0.21
			c0.01,0.06,0.01,0.11-0.02,0.16c-0.03,0.07-0.08,0.13-0.13,0.19c-0.06,0.06-0.12,0.08-0.18,0.06l-1.06-0.17
			c-0.21-0.02-0.47-0.04-0.76-0.05c-0.3-0.01-0.61-0.02-0.93-0.02c-0.31,0-0.62,0-0.93,0c-0.31,0-0.57,0-0.78,0L152.64,40.37z
			 M157.85,31.82c-0.07-0.07-0.09-0.17-0.07-0.3l0.03-0.32l1.06,0.1c0.27,0.03,0.43,0.12,0.5,0.27c0.06,0.15,0.09,0.27,0.09,0.37
			v3.75c0.08,0,0.15,0,0.22-0.01c0.07-0.01,0.13-0.01,0.18-0.03c0.06,0,0.1,0,0.14-0.01c0.04-0.01,0.07-0.01,0.09-0.03
			c0.37-0.06,0.61-0.08,0.73-0.06c0.12,0.02,0.24,0.06,0.36,0.13l0.44,0.25c0.16,0.1,0.24,0.18,0.24,0.24
			c0.01,0.06-0.03,0.16-0.11,0.31c-0.07,0.12-0.13,0.2-0.18,0.24c-0.05,0.04-0.13,0.04-0.23,0.01c-0.1-0.02-0.24-0.05-0.4-0.08
			c-0.17-0.03-0.34-0.06-0.5-0.07c-0.25-0.01-0.53-0.02-0.86-0.03c-0.33-0.01-0.68-0.02-1.03-0.02c-0.36,0-0.71,0-1.06,0.01
			c-0.35,0.01-0.65,0.01-0.91,0.03c-0.27,0.02-0.58,0.04-0.93,0.05c-0.35,0.01-0.71,0.02-1.08,0.03c-0.37,0.01-0.73,0.03-1.08,0.04
			c-0.35,0.02-0.66,0.03-0.92,0.04c-0.27,0.02-0.49,0.03-0.66,0.02c-0.17-0.01-0.31-0.06-0.41-0.13c-0.07-0.03-0.11-0.08-0.12-0.14
			s-0.01-0.14,0.02-0.24l0.07-0.59c0.38,0.07,0.79,0.12,1.22,0.14c0.43,0.03,0.83,0.04,1.2,0.04v-2.87c0-0.21-0.02-0.37-0.05-0.47
			c-0.03-0.1-0.13-0.18-0.3-0.24c-0.09-0.02-0.17-0.07-0.24-0.13c-0.07-0.07-0.09-0.17-0.07-0.3l0.03-0.32l1.06,0.1
			c0.27,0.03,0.43,0.12,0.5,0.27c0.06,0.15,0.09,0.27,0.09,0.37v3.61c0.27,0,0.55,0,0.83,0c0.28,0,0.57-0.01,0.86-0.03l1.83-0.08
			v-3.07c0-0.21-0.02-0.37-0.05-0.47c-0.03-0.1-0.13-0.18-0.3-0.24C157.99,31.93,157.91,31.88,157.85,31.82z M155.48,30.68
			c-0.28,0.01-0.56,0.02-0.84,0.03c-0.29,0.01-0.58,0.02-0.86,0.03c-0.28,0.01-0.55,0.02-0.81,0.03c-0.27,0.02-0.49,0.03-0.66,0.02
			c-0.17-0.01-0.31-0.06-0.41-0.13c-0.07-0.03-0.11-0.08-0.12-0.14c-0.01-0.06-0.01-0.14,0-0.24l0.08-0.59
			c0.39,0.07,0.78,0.11,1.15,0.14c0.37,0.03,0.75,0.04,1.12,0.04c0.28,0.01,0.67,0.01,1.17,0.01c0.5-0.01,0.98-0.03,1.44-0.06
			c0.25-0.01,0.52-0.03,0.81-0.04c0.3-0.02,0.58-0.03,0.85-0.04c0.28-0.02,0.52-0.04,0.72-0.05c0.2-0.01,0.33-0.02,0.4-0.03
			c0.33-0.03,0.57-0.05,0.71-0.03c0.13,0.01,0.26,0.05,0.39,0.12l0.44,0.25c0.16,0.1,0.24,0.18,0.24,0.24
			c0.01,0.06-0.03,0.17-0.11,0.31c-0.07,0.12-0.13,0.2-0.18,0.24c-0.05,0.04-0.13,0.04-0.23,0.01c-0.1-0.02-0.24-0.05-0.4-0.08
			c-0.17-0.03-0.34-0.05-0.5-0.08c-0.21-0.01-0.47-0.02-0.77-0.03c-0.3-0.01-0.62-0.02-0.94-0.02c-0.32,0-0.65,0-0.98,0.01
			c-0.33,0.01-0.62,0.01-0.88,0.03C156.03,30.65,155.76,30.66,155.48,30.68z"/>
	</g>
</g>
</svg>
