<?xml version="1.0" encoding="utf-8"?>
<!-- Generator: Adobe Illustrator 23.0.1, SVG Export Plug-In . SVG Version: 6.00 Build 0)  -->
<svg version="1.1" id="レイヤー_1" xmlns="http://www.w3.org/2000/svg" xmlns:xlink="http://www.w3.org/1999/xlink" x="0px"
	 y="0px" viewBox="0 0 300 50" style="enable-background:new 0 0 300 50;" xml:space="preserve">
<g>
	<g>
		<path d="M6.43,37.83h11.09v2.15H4.01V16.19h2.42V37.83z"/>
		<path d="M29.92,40.59c-1.79,0-3.26-0.31-4.4-0.92c-1.14-0.62-2.05-1.39-2.72-2.34c-0.67-0.94-1.14-1.97-1.39-3.07
			c-0.26-1.11-0.39-2.16-0.39-3.14V16.19h2.42v14.65c0,0.96,0.11,1.9,0.34,2.81c0.22,0.91,0.59,1.71,1.09,2.42
			c0.5,0.71,1.17,1.28,2,1.71c0.83,0.44,1.85,0.65,3.06,0.65c1.21,0,2.23-0.22,3.06-0.65c0.83-0.44,1.5-1.01,2-1.71
			c0.5-0.71,0.87-1.51,1.09-2.42c0.22-0.91,0.34-1.84,0.34-2.81V16.19h2.42v14.92c0,0.99-0.13,2.03-0.39,3.14
			c-0.26,1.11-0.72,2.13-1.39,3.07c-0.67,0.94-1.58,1.72-2.74,2.34C33.15,40.28,31.69,40.59,29.92,40.59z"/>
		<path d="M56.53,20.02c-0.52-0.72-1.18-1.29-1.98-1.73c-0.81-0.44-1.78-0.65-2.92-0.65c-0.58,0-1.18,0.09-1.78,0.27
			c-0.6,0.18-1.15,0.45-1.65,0.82c-0.49,0.37-0.89,0.83-1.19,1.39c-0.3,0.56-0.45,1.22-0.45,1.98c0,0.76,0.14,1.39,0.44,1.88
			c0.29,0.49,0.68,0.91,1.16,1.26c0.48,0.35,1.03,0.63,1.64,0.86c0.61,0.22,1.26,0.45,1.93,0.67c0.83,0.27,1.66,0.56,2.5,0.87
			c0.84,0.31,1.59,0.72,2.26,1.23c0.67,0.5,1.22,1.14,1.64,1.92c0.42,0.77,0.64,1.75,0.64,2.94c0,1.19-0.23,2.21-0.68,3.07
			c-0.45,0.86-1.04,1.57-1.77,2.13c-0.72,0.56-1.55,0.97-2.48,1.24c-0.93,0.27-1.86,0.4-2.81,0.4c-0.72,0-1.43-0.07-2.15-0.22
			c-0.72-0.15-1.4-0.36-2.05-0.65c-0.65-0.29-1.25-0.66-1.81-1.11c-0.56-0.45-1.05-0.96-1.48-1.55l2.08-1.55
			c0.51,0.85,1.24,1.56,2.17,2.13c0.93,0.57,2.02,0.86,3.28,0.86c0.6,0,1.22-0.1,1.85-0.29c0.63-0.19,1.19-0.48,1.7-0.87
			c0.5-0.39,0.92-0.87,1.24-1.45c0.32-0.57,0.49-1.24,0.49-2c0-0.83-0.16-1.52-0.49-2.07c-0.33-0.55-0.76-1.01-1.29-1.38
			c-0.54-0.37-1.15-0.68-1.85-0.92c-0.69-0.25-1.42-0.49-2.18-0.74c-0.78-0.25-1.56-0.53-2.32-0.84c-0.76-0.31-1.44-0.72-2.05-1.23
			c-0.6-0.5-1.09-1.13-1.46-1.86c-0.37-0.74-0.55-1.65-0.55-2.72c0-1.14,0.23-2.13,0.69-2.96c0.46-0.83,1.06-1.51,1.8-2.05
			c0.74-0.54,1.56-0.93,2.45-1.18c0.9-0.25,1.78-0.37,2.65-0.37c1.61,0,2.99,0.29,4.13,0.86c1.14,0.57,2,1.25,2.59,2.03L56.53,20.02
			z"/>
		<path d="M63.96,16.19h2.42v10.32h12.97V16.19h2.42v23.79h-2.42V28.73H66.38v11.26h-2.42V16.19z"/>
	</g>
	<g>
		<path d="M85.9,42.05v-0.74h8.67v0.74H85.9z"/>
		<path d="M97.09,38.07c0,0.06,0.02,0.1,0.06,0.13c0.04,0.03,0.08,0.04,0.11,0.04c0.6-0.01,1.21-0.06,1.82-0.14
			c0.61-0.08,1.19-0.19,1.76-0.31c0.56-0.12,1.08-0.27,1.55-0.44c0.48-0.17,0.88-0.35,1.22-0.55c0.04-0.03,0.11-0.05,0.19-0.03
			c0.08,0.01,0.18,0.05,0.29,0.12c0.16,0.11,0.22,0.22,0.19,0.31s-0.14,0.2-0.34,0.33c-1.03,0.58-2.1,0.99-3.22,1.23
			c-1.11,0.24-2.23,0.41-3.35,0.52c-0.08,0.01-0.17,0.02-0.27,0.03c-0.1,0.01-0.19,0.01-0.27,0.01c-0.16,0-0.33-0.09-0.51-0.27
			c-0.19-0.18-0.28-0.35-0.28-0.52v-3.14c0-0.11,0-0.21-0.01-0.29c-0.01-0.08-0.01-0.16-0.03-0.23c-0.02-0.07-0.06-0.13-0.1-0.19
			c-0.04-0.06-0.11-0.11-0.18-0.15c-0.11-0.04-0.2-0.11-0.27-0.21c-0.07-0.1-0.1-0.2-0.1-0.33v-0.34l0.94,0.08l4.13-0.07
			c0.12,0,0.21-0.03,0.27-0.09c0.06-0.06,0.08-0.17,0.08-0.33l0.03-2.32c0-0.15-0.02-0.24-0.05-0.27c-0.03-0.03-0.13-0.05-0.29-0.05
			l-3.06,0.08c-0.13,0-0.27,0.01-0.41,0.02c-0.14,0.01-0.27,0.02-0.39,0.02c-0.1,0.01-0.26,0.02-0.49,0.02s-0.4-0.04-0.52-0.12
			c-0.07-0.03-0.11-0.08-0.13-0.14c-0.02-0.06-0.02-0.14-0.01-0.23l0.08-0.66c0.43,0.09,0.99,0.14,1.68,0.16s1.37,0.01,2.02-0.01
			l2.1-0.08c0.09,0,0.18,0.01,0.27,0.02c0.09,0.01,0.16,0.04,0.22,0.08c0.05,0.06,0.08,0.11,0.09,0.18
			c0.02,0.06,0.02,0.15,0.02,0.28l-0.24,3.78c-0.02,0.2-0.09,0.35-0.19,0.45s-0.29,0.14-0.55,0.14l-3.91,0.05
			c0,0.09,0,0.19,0.01,0.29c0.01,0.1,0.01,0.2,0.01,0.3V38.07z M107.09,41.04c0,0.17-0.03,0.34-0.09,0.51s-0.13,0.34-0.21,0.5
			c-0.07,0.16-0.14,0.29-0.22,0.41c-0.08,0.12-0.13,0.2-0.17,0.24c-0.06,0.07-0.13,0.09-0.22,0.08c-0.09-0.02-0.13-0.06-0.13-0.13
			v-8.52l-2.55,0.1c-0.13,0.01-0.24,0-0.31-0.03c-0.07-0.03-0.13-0.1-0.18-0.18l-0.35-0.54c-0.05-0.07-0.04-0.14,0.02-0.22
			c0.06-0.08,0.15-0.1,0.29-0.07l0.39,0.1c0.07,0.02,0.17,0.03,0.29,0.03s0.23,0,0.29,0l2.12-0.07v-4.89c0-0.21-0.05-0.39-0.15-0.52
			c-0.1-0.13-0.23-0.27-0.39-0.4c-0.11-0.09-0.12-0.22-0.03-0.39c0.09-0.17,0.21-0.22,0.35-0.15l0.74,0.34
			c0.25,0.12,0.4,0.23,0.45,0.33c0.05,0.1,0.08,0.24,0.08,0.45V41.04z"/>
		<path d="M118.49,36.34c-0.38,0.09-0.76,0.17-1.17,0.25c-0.4,0.08-0.82,0.15-1.24,0.22c-0.43,0.07-0.83,0.12-1.21,0.17
			c0.1,0.11,0.16,0.23,0.18,0.36c0.02,0.13,0.03,0.26,0.03,0.4v3.21c0,0.11-0.03,0.24-0.08,0.39c-0.06,0.15-0.12,0.29-0.2,0.42
			c-0.07,0.15-0.14,0.28-0.21,0.4c-0.07,0.12-0.13,0.2-0.16,0.24c-0.05,0.07-0.12,0.09-0.23,0.08s-0.16-0.06-0.16-0.14v-4.4
			c0-0.2-0.02-0.36-0.07-0.49c-0.05-0.12-0.1-0.24-0.17-0.34l-0.67,0.07c-0.17,0.02-0.39,0.04-0.66,0.06
			c-0.27,0.02-0.55,0.04-0.84,0.06c-0.29,0.01-0.58,0.02-0.86,0.03c-0.28,0.01-0.52,0.01-0.71,0c-0.1,0-0.23-0.01-0.38-0.02
			c-0.15-0.01-0.3-0.05-0.45-0.12c-0.07-0.02-0.11-0.07-0.13-0.14c-0.02-0.07-0.01-0.18,0.03-0.31l0.08-0.42
			c0.45,0.09,1.03,0.13,1.76,0.13c0.72,0,1.41-0.03,2.06-0.08c0.4-0.03,0.87-0.08,1.39-0.13c0.52-0.06,1.05-0.12,1.59-0.2
			c0.54-0.08,1.06-0.17,1.58-0.27c0.52-0.1,0.97-0.21,1.36-0.34c0.03-0.01,0.1,0,0.19,0.03c0.1,0.03,0.18,0.06,0.24,0.11
			c0.09,0.07,0.16,0.16,0.2,0.27c0.04,0.11,0.01,0.18-0.12,0.22C119.19,36.15,118.86,36.25,118.49,36.34z M114.92,30.41
			c-0.11,0.27-0.24,0.52-0.37,0.76l1.58,1.13c0.16,0.12,0.31,0.23,0.46,0.31c0.15,0.08,0.33,0.17,0.53,0.26
			c0.17,0.08,0.3,0.15,0.39,0.23c0.09,0.07,0.19,0.2,0.3,0.39l0.24,0.45c0.07,0.13,0.08,0.24,0.05,0.31
			c-0.03,0.07-0.08,0.14-0.15,0.21c-0.08,0.07-0.16,0.1-0.24,0.11c-0.08,0.01-0.17-0.04-0.29-0.14l-3.24-2.67
			c-0.48,0.73-1.01,1.35-1.57,1.86c-0.57,0.51-1.04,0.9-1.42,1.14c-0.07,0.05-0.14,0.08-0.21,0.11c-0.07,0.03-0.13,0.04-0.16,0.04
			c-0.09,0-0.17-0.02-0.25-0.05c-0.08-0.03-0.14-0.11-0.17-0.24c-0.02-0.07-0.02-0.13,0.01-0.19c0.03-0.06,0.06-0.11,0.11-0.14
			c0.31-0.19,0.66-0.46,1.03-0.8c0.38-0.34,0.74-0.72,1.1-1.15c0.35-0.43,0.66-0.88,0.93-1.37c0.27-0.49,0.47-0.98,0.6-1.47
			c0.01-0.07,0-0.13-0.03-0.19c-0.03-0.06-0.11-0.14-0.24-0.24l-0.35-0.24c-0.11-0.07-0.13-0.19-0.05-0.37s0.17-0.25,0.27-0.22
			c0.18,0.07,0.39,0.15,0.65,0.24c0.25,0.09,0.45,0.17,0.6,0.24c0.12,0.07,0.2,0.16,0.24,0.28c0.04,0.12,0.03,0.31-0.04,0.58
			C115.13,29.86,115.03,30.14,114.92,30.41z M121.67,41.04c0,0.17-0.03,0.34-0.09,0.51c-0.06,0.17-0.13,0.34-0.21,0.5
			c-0.08,0.16-0.15,0.29-0.23,0.41c-0.07,0.12-0.13,0.2-0.16,0.24c-0.06,0.07-0.13,0.09-0.22,0.08c-0.09-0.02-0.13-0.06-0.13-0.13
			V28.37c0-0.21-0.05-0.39-0.15-0.52c-0.1-0.13-0.23-0.27-0.39-0.4c-0.12-0.09-0.14-0.22-0.05-0.39s0.21-0.22,0.37-0.15l0.72,0.34
			c0.26,0.12,0.41,0.23,0.46,0.33c0.05,0.1,0.08,0.24,0.08,0.45V41.04z"/>
	</g>
</g>
</svg>
