<?xml version="1.0" encoding="utf-8"?>
<!-- Generator: Adobe Illustrator 23.0.1, SVG Export Plug-In . SVG Version: 6.00 Build 0)  -->
<svg version="1.1" id="レイヤー_1" xmlns="http://www.w3.org/2000/svg" xmlns:xlink="http://www.w3.org/1999/xlink" x="0px"
	 y="0px" viewBox="0 0 333.3 50" style="enable-background:new 0 0 333.3 50;" xml:space="preserve">
<g>
	<g>
		<g>
			<path d="M3.5,15.3h7.1c0.9,0,1.8,0.1,2.7,0.3c0.9,0.2,1.7,0.5,2.5,1c0.7,0.5,1.3,1.1,1.8,1.9c0.5,0.8,0.7,1.8,0.7,3
				c0,1.3-0.4,2.3-1.1,3.3c-0.8,0.9-1.8,1.5-3.1,1.8v0.1c1.5,0.2,2.8,0.8,3.8,1.8c1,1,1.5,2.4,1.5,4.1c0,1-0.2,1.9-0.6,2.7
				c-0.4,0.8-1,1.5-1.8,2.1c-0.8,0.6-1.7,1-2.8,1.3s-2.3,0.5-3.7,0.5h-7V15.3z M5.9,25.7h4.9c0.6,0,1.2-0.1,1.8-0.2
				c0.6-0.1,1.1-0.4,1.6-0.7c0.5-0.3,0.9-0.8,1.2-1.3c0.3-0.5,0.5-1.2,0.5-2c0-0.8-0.2-1.4-0.5-1.9c-0.3-0.5-0.7-1-1.2-1.3
				c-0.5-0.3-1.1-0.6-1.8-0.7c-0.7-0.1-1.4-0.2-2.2-0.2H5.9V25.7z M5.9,37h4.5c0.9,0,1.7-0.1,2.5-0.3c0.8-0.2,1.5-0.4,2.1-0.8
				c0.6-0.4,1.1-0.9,1.4-1.4c0.4-0.6,0.5-1.3,0.5-2.1c0-1.6-0.5-2.7-1.6-3.5c-1.1-0.8-2.6-1.2-4.5-1.2H5.9V37z"/>
			<path d="M34.7,28.9c0-1.4-0.4-2.4-1.1-3c-0.7-0.7-1.8-1-3.1-1c-0.9,0-1.8,0.2-2.6,0.5s-1.5,0.8-2,1.3l-1.3-1.5
				c0.6-0.6,1.5-1.2,2.6-1.6c1.1-0.4,2.3-0.6,3.6-0.6c0.9,0,1.6,0.1,2.4,0.4c0.7,0.2,1.4,0.6,1.9,1.1c0.6,0.5,1,1.1,1.3,1.8
				c0.3,0.7,0.5,1.6,0.5,2.5v6.9c0,0.6,0,1.2,0.1,1.9c0,0.6,0.1,1.2,0.2,1.6H35c-0.1-0.4-0.1-0.8-0.2-1.2c0-0.4-0.1-0.9-0.1-1.3
				h-0.1c-0.7,1.1-1.5,1.8-2.4,2.3c-0.9,0.5-2,0.7-3.3,0.7c-0.6,0-1.2-0.1-1.9-0.3c-0.6-0.2-1.2-0.4-1.7-0.8s-1-0.9-1.3-1.5
				c-0.3-0.6-0.5-1.3-0.5-2.2c0-1.2,0.3-2.2,0.9-2.9c0.6-0.7,1.4-1.2,2.5-1.6c1-0.3,2.2-0.6,3.5-0.7c1.3-0.1,2.7-0.2,4.2-0.2V28.9z
				 M34,31.2c-0.9,0-1.9,0-2.8,0.1c-1,0.1-1.8,0.2-2.6,0.5c-0.8,0.2-1.4,0.6-1.9,1c-0.5,0.4-0.7,1-0.7,1.8c0,0.6,0.1,1,0.3,1.4
				c0.2,0.4,0.5,0.7,0.9,0.9c0.4,0.2,0.8,0.4,1.2,0.5c0.4,0.1,0.9,0.2,1.3,0.2c0.8,0,1.5-0.1,2.2-0.4c0.6-0.3,1.2-0.7,1.6-1.1
				c0.4-0.5,0.7-1,1-1.7c0.2-0.6,0.3-1.3,0.3-2v-1.2H34z"/>
			<path d="M51.1,27.1c-0.3-0.6-0.8-1.2-1.5-1.6c-0.7-0.4-1.5-0.6-2.3-0.6c-0.4,0-0.8,0-1.2,0.1c-0.4,0.1-0.8,0.2-1.1,0.4
				c-0.3,0.2-0.6,0.5-0.8,0.8c-0.2,0.3-0.3,0.7-0.3,1.1c0,0.7,0.3,1.3,0.9,1.7c0.6,0.4,1.6,0.7,2.9,1c1.9,0.4,3.2,0.9,4.1,1.7
				c0.9,0.7,1.3,1.7,1.3,2.9c0,0.9-0.2,1.7-0.5,2.3c-0.3,0.6-0.8,1.1-1.4,1.5c-0.6,0.4-1.2,0.7-1.9,0.8c-0.7,0.2-1.4,0.3-2.1,0.3
				c-1.2,0-2.3-0.2-3.5-0.7c-1.1-0.5-2-1.3-2.8-2.3l1.8-1.3c0.4,0.7,1,1.3,1.8,1.7c0.8,0.5,1.6,0.7,2.6,0.7c0.5,0,1,0,1.4-0.1
				c0.4-0.1,0.8-0.2,1.2-0.5c0.3-0.2,0.6-0.5,0.8-0.9s0.3-0.8,0.3-1.3c0-0.8-0.4-1.5-1.2-1.9c-0.8-0.4-1.9-0.8-3.4-1.2
				c-0.5-0.1-1-0.3-1.5-0.4c-0.5-0.2-1-0.4-1.5-0.7c-0.4-0.3-0.8-0.7-1.1-1.2c-0.3-0.5-0.4-1.1-0.4-1.8c0-0.8,0.2-1.5,0.5-2.1
				c0.3-0.6,0.7-1,1.3-1.4c0.5-0.4,1.1-0.6,1.8-0.8c0.7-0.2,1.4-0.3,2.1-0.3c1.1,0,2.2,0.2,3.2,0.7c1,0.5,1.8,1.2,2.3,2.1L51.1,27.1
				z"/>
			<path d="M60,30.4h0.1l7.3-7.1h3.3l-7.9,7.2l8.7,8.5h-3.4l-8-8.3H60v8.3h-2.3V13.7H60V30.4z"/>
			<path d="M77.5,17.3c0,0.5-0.2,0.9-0.5,1.2c-0.3,0.3-0.7,0.5-1.1,0.5s-0.8-0.2-1.1-0.5c-0.3-0.3-0.5-0.7-0.5-1.2
				c0-0.5,0.2-0.9,0.5-1.2c0.3-0.3,0.7-0.5,1.1-0.5s0.8,0.2,1.1,0.5C77.4,16.4,77.5,16.8,77.5,17.3z M77.1,39.1h-2.3V23.3h2.3V39.1z
				"/>
			<path d="M85.2,23.3c0,0.4,0.1,0.9,0.1,1.4c0,0.5,0,0.9,0,1.3h0.1c0.4-0.9,1.2-1.7,2.2-2.2c1-0.6,2.1-0.9,3.2-0.9
				c2,0,3.5,0.6,4.5,1.8c1,1.2,1.5,2.8,1.5,4.7v9.6h-2.3v-8.7c0-0.8-0.1-1.6-0.2-2.3s-0.4-1.2-0.7-1.7c-0.3-0.5-0.8-0.9-1.3-1.1
				c-0.5-0.3-1.2-0.4-2.1-0.4c-0.6,0-1.2,0.1-1.8,0.4c-0.6,0.2-1.1,0.6-1.5,1.1c-0.4,0.5-0.8,1.1-1.1,1.9c-0.3,0.8-0.4,1.7-0.4,2.7
				v8.1h-2.3V26.8c0-0.4,0-1,0-1.6c0-0.7-0.1-1.3-0.1-1.8H85.2z"/>
			<path d="M105.2,39.1h-2.4V15.3h7c1.2,0,2.2,0.1,3.2,0.3c1,0.2,1.9,0.6,2.6,1.1c0.7,0.5,1.3,1.2,1.7,2c0.4,0.8,0.6,1.8,0.6,3
				c0,0.9-0.2,1.7-0.5,2.4c-0.3,0.7-0.7,1.3-1.3,1.9c-0.5,0.5-1.2,0.9-1.9,1.3c-0.7,0.3-1.5,0.5-2.4,0.6l7,11.3h-3l-6.6-11.1h-4
				V39.1z M105.2,25.9h4.2c1.9,0,3.4-0.4,4.5-1.1c1.1-0.7,1.6-1.8,1.6-3.2c0-0.8-0.1-1.4-0.4-2c-0.3-0.5-0.7-1-1.2-1.3
				c-0.5-0.3-1.1-0.6-1.9-0.7c-0.7-0.2-1.6-0.2-2.5-0.2h-4.3V25.9z"/>
			<path d="M138.4,31.2c0,1.2-0.2,2.3-0.6,3.3c-0.4,1-1,1.9-1.7,2.6c-0.7,0.7-1.6,1.3-2.7,1.7c-1,0.4-2.2,0.6-3.4,0.6
				c-1.2,0-2.3-0.2-3.4-0.6c-1-0.4-1.9-1-2.7-1.7c-0.7-0.7-1.3-1.6-1.7-2.6c-0.4-1-0.6-2.1-0.6-3.3c0-1.2,0.2-2.3,0.6-3.3
				c0.4-1,1-1.9,1.7-2.6c0.7-0.7,1.6-1.3,2.7-1.7c1-0.4,2.2-0.6,3.4-0.6c1.2,0,2.4,0.2,3.4,0.6c1,0.4,1.9,1,2.7,1.7
				c0.7,0.7,1.3,1.6,1.7,2.6C138.2,28.9,138.4,30,138.4,31.2z M136,31.2c0-0.9-0.1-1.7-0.4-2.5c-0.3-0.8-0.7-1.4-1.2-2
				c-0.5-0.6-1.1-1-1.9-1.4c-0.7-0.3-1.6-0.5-2.5-0.5s-1.7,0.2-2.5,0.5c-0.7,0.3-1.4,0.8-1.9,1.4c-0.5,0.6-0.9,1.2-1.2,2
				c-0.3,0.8-0.4,1.6-0.4,2.5s0.1,1.7,0.4,2.5c0.3,0.8,0.7,1.4,1.2,2c0.5,0.6,1.1,1,1.9,1.3c0.7,0.3,1.6,0.5,2.5,0.5
				s1.7-0.2,2.5-0.5c0.7-0.3,1.4-0.8,1.9-1.3c0.5-0.6,0.9-1.2,1.2-2C135.9,32.9,136,32.1,136,31.2z"/>
			<path d="M145.7,36.4v2.7h-2.3V13.7h2.3v12.4h0.1c0.7-1,1.5-1.8,2.6-2.3c1.1-0.5,2.2-0.8,3.3-0.8c1.2,0,2.3,0.2,3.3,0.6
				c1,0.4,1.8,1,2.6,1.7c0.7,0.7,1.3,1.6,1.6,2.6c0.4,1,0.6,2.1,0.6,3.3c0,1.2-0.2,2.3-0.6,3.3c-0.4,1-0.9,1.9-1.6,2.6
				s-1.6,1.3-2.6,1.7c-1,0.4-2.1,0.6-3.3,0.6c-1.1,0-2.3-0.3-3.3-0.8C147.3,38.2,146.4,37.4,145.7,36.4L145.7,36.4z M157.4,31.2
				c0-0.9-0.1-1.7-0.4-2.5c-0.3-0.8-0.7-1.4-1.2-2c-0.5-0.6-1.1-1-1.9-1.4s-1.6-0.5-2.5-0.5c-0.9,0-1.7,0.2-2.4,0.5
				c-0.7,0.3-1.4,0.8-1.9,1.3c-0.5,0.6-1,1.2-1.3,2c-0.3,0.8-0.5,1.6-0.5,2.5c0,0.9,0.2,1.7,0.5,2.5c0.3,0.8,0.7,1.4,1.3,2
				c0.5,0.6,1.2,1,1.9,1.3c0.7,0.3,1.5,0.5,2.4,0.5c0.9,0,1.8-0.2,2.5-0.5c0.7-0.3,1.4-0.8,1.9-1.3c0.5-0.6,0.9-1.2,1.2-2
				C157.3,32.9,157.4,32.1,157.4,31.2z"/>
			<path d="M167.1,36.4v2.7h-2.3V13.7h2.3v12.4h0.1c0.7-1,1.5-1.8,2.6-2.3c1.1-0.5,2.2-0.8,3.3-0.8c1.2,0,2.3,0.2,3.3,0.6
				c1,0.4,1.8,1,2.6,1.7c0.7,0.7,1.3,1.6,1.6,2.6c0.4,1,0.6,2.1,0.6,3.3c0,1.2-0.2,2.3-0.6,3.3c-0.4,1-0.9,1.9-1.6,2.6
				s-1.6,1.3-2.6,1.7c-1,0.4-2.1,0.6-3.3,0.6c-1.1,0-2.3-0.3-3.3-0.8C168.7,38.2,167.8,37.4,167.1,36.4L167.1,36.4z M178.8,31.2
				c0-0.9-0.1-1.7-0.4-2.5c-0.3-0.8-0.7-1.4-1.2-2c-0.5-0.6-1.1-1-1.9-1.4s-1.6-0.5-2.5-0.5c-0.9,0-1.7,0.2-2.4,0.5
				c-0.7,0.3-1.4,0.8-1.9,1.3c-0.5,0.6-1,1.2-1.3,2c-0.3,0.8-0.5,1.6-0.5,2.5c0,0.9,0.2,1.7,0.5,2.5c0.3,0.8,0.7,1.4,1.3,2
				c0.5,0.6,1.2,1,1.9,1.3c0.7,0.3,1.5,0.5,2.4,0.5c0.9,0,1.8-0.2,2.5-0.5c0.7-0.3,1.4-0.8,1.9-1.3c0.5-0.6,0.9-1.2,1.2-2
				C178.7,32.9,178.8,32.1,178.8,31.2z"/>
			<path d="M188.9,17.3c0,0.5-0.2,0.9-0.5,1.2c-0.3,0.3-0.7,0.5-1.1,0.5s-0.8-0.2-1.1-0.5c-0.3-0.3-0.5-0.7-0.5-1.2
				c0-0.5,0.2-0.9,0.5-1.2c0.3-0.3,0.7-0.5,1.1-0.5s0.8,0.2,1.1,0.5C188.8,16.4,188.9,16.8,188.9,17.3z M188.5,39.1h-2.3V23.3h2.3
				V39.1z"/>
			<path d="M196.6,23.3c0,0.4,0.1,0.9,0.1,1.4c0,0.5,0,0.9,0,1.3h0.1c0.4-0.9,1.2-1.7,2.2-2.2c1-0.6,2.1-0.9,3.2-0.9
				c2,0,3.5,0.6,4.5,1.8c1,1.2,1.5,2.8,1.5,4.7v9.6h-2.3v-8.7c0-0.8-0.1-1.6-0.2-2.3c-0.1-0.7-0.4-1.2-0.7-1.7
				c-0.3-0.5-0.8-0.9-1.3-1.1c-0.5-0.3-1.2-0.4-2.1-0.4c-0.6,0-1.2,0.1-1.8,0.4c-0.6,0.2-1.1,0.6-1.5,1.1c-0.4,0.5-0.8,1.1-1.1,1.9
				c-0.3,0.8-0.4,1.7-0.4,2.7v8.1h-2.3V26.8c0-0.4,0-1,0-1.6c0-0.7-0.1-1.3-0.1-1.8H196.6z"/>
			<path d="M222.4,27.1c-0.3-0.6-0.8-1.2-1.5-1.6c-0.7-0.4-1.5-0.6-2.3-0.6c-0.4,0-0.8,0-1.2,0.1c-0.4,0.1-0.8,0.2-1.1,0.4
				c-0.3,0.2-0.6,0.5-0.8,0.8c-0.2,0.3-0.3,0.7-0.3,1.1c0,0.7,0.3,1.3,0.9,1.7c0.6,0.4,1.6,0.7,2.9,1c1.9,0.4,3.2,0.9,4.1,1.7
				c0.9,0.7,1.3,1.7,1.3,2.9c0,0.9-0.2,1.7-0.5,2.3c-0.3,0.6-0.8,1.1-1.4,1.5c-0.6,0.4-1.2,0.7-1.9,0.8c-0.7,0.2-1.4,0.3-2.1,0.3
				c-1.2,0-2.3-0.2-3.5-0.7c-1.1-0.5-2-1.3-2.8-2.3l1.8-1.3c0.4,0.7,1,1.3,1.8,1.7c0.8,0.5,1.6,0.7,2.6,0.7c0.5,0,1,0,1.4-0.1
				c0.4-0.1,0.8-0.2,1.2-0.5c0.3-0.2,0.6-0.5,0.8-0.9s0.3-0.8,0.3-1.3c0-0.8-0.4-1.5-1.2-1.9c-0.8-0.4-1.9-0.8-3.4-1.2
				c-0.5-0.1-1-0.3-1.5-0.4c-0.5-0.2-1-0.4-1.5-0.7c-0.4-0.3-0.8-0.7-1.1-1.2c-0.3-0.5-0.4-1.1-0.4-1.8c0-0.8,0.2-1.5,0.5-2.1
				c0.3-0.6,0.7-1,1.3-1.4c0.5-0.4,1.1-0.6,1.8-0.8c0.7-0.2,1.4-0.3,2.1-0.3c1.1,0,2.2,0.2,3.2,0.7c1,0.5,1.8,1.2,2.3,2.1
				L222.4,27.1z"/>
		</g>
	</g>
	<g>
		<path d="M228.6,41.1v-0.7h8.7v0.7H228.6z"/>
		<path d="M238.1,31.3c0-0.3,0-0.5-0.1-0.6c-0.1-0.1-0.2-0.2-0.3-0.3c-0.1,0-0.2-0.1-0.2-0.1c0,0,0-0.1,0-0.3v-0.3l0.9,0.1
			c0.4,0,0.6,0.2,0.6,0.4s0.1,0.5,0.1,0.8v5.2l3.2-0.1c0.1,0,0.2,0,0.3-0.1c0.1-0.1,0.1-0.2,0.1-0.3v-2.3l-2.3,0.1
			c-0.1,0-0.2,0-0.3,0c-0.1,0-0.1-0.1-0.2-0.2l-0.4-0.5c-0.1-0.1-0.1-0.1,0-0.2c0.1-0.1,0.2-0.1,0.3-0.1l0.4,0.1c0.1,0,0.2,0,0.3,0
			c0.1,0,0.2,0,0.3,0l1.8-0.1v-1.9c0-0.3,0-0.5-0.1-0.6c0-0.1-0.2-0.2-0.3-0.3c-0.1,0-0.2-0.1-0.2-0.1c0-0.1,0-0.2,0-0.3v-0.2
			l0.9,0.1c0.4,0,0.6,0.2,0.6,0.4c0.1,0.2,0.1,0.5,0.1,0.8v6c0,0.2-0.1,0.4-0.2,0.5c-0.1,0.1-0.3,0.2-0.6,0.2l-3.9,0v0.1
			c0,0.1,0,0.2-0.1,0.3c-0.1,0.1-0.1,0.2-0.1,0.2c-0.1,0.1-0.2,0.1-0.3,0.1c-0.1,0-0.2,0-0.2,0c0,0-0.1,0-0.1-0.1
			c0,0-0.1-0.1-0.1-0.2c0-0.1-0.1-0.2-0.1-0.3c0-0.1,0-0.2,0-0.3V31.3z M247.3,39.5c0,0.2,0,0.3-0.1,0.5c-0.1,0.2-0.1,0.3-0.2,0.5
			c-0.1,0.2-0.2,0.3-0.2,0.4c-0.1,0.1-0.1,0.2-0.2,0.2c-0.1,0.1-0.1,0.1-0.2,0.1c-0.1,0-0.1-0.1-0.1-0.1v-7.4l-1.3,0.1
			c-0.1,0-0.2,0-0.3,0c-0.1,0-0.1-0.1-0.2-0.2l-0.4-0.5c-0.1-0.1-0.1-0.1,0-0.2c0.1-0.1,0.2-0.1,0.3-0.1l0.4,0.1c0.1,0,0.2,0,0.3,0
			c0.1,0,0.2,0,0.3,0l0.9,0v-4.2c0-0.1,0-0.2-0.1-0.3c0-0.1-0.1-0.2-0.1-0.2c-0.1-0.1-0.1-0.1-0.2-0.2c-0.1-0.1-0.1-0.1-0.2-0.2
			c-0.1-0.1-0.1-0.2,0-0.4c0.1-0.2,0.2-0.2,0.4-0.2l0.7,0.3c0.2,0.1,0.4,0.2,0.4,0.3c0.1,0.1,0.1,0.2,0.1,0.5V39.5z M250.4,40.1
			c0,0.2,0,0.3-0.1,0.5c-0.1,0.2-0.1,0.3-0.2,0.5c-0.1,0.2-0.2,0.3-0.2,0.4c-0.1,0.1-0.1,0.2-0.2,0.2c-0.1,0.1-0.1,0.1-0.2,0.1
			c-0.1,0-0.1-0.1-0.1-0.1V27.4c0-0.2,0-0.4-0.2-0.5c-0.1-0.1-0.2-0.3-0.4-0.4c-0.1-0.1-0.1-0.2,0-0.4s0.2-0.2,0.4-0.2l0.7,0.3
			c0.3,0.1,0.4,0.2,0.5,0.3c0.1,0.1,0.1,0.2,0.1,0.4V40.1z"/>
		<path d="M256,39.5l-1.9,0.1c-0.1,0-0.2,0-0.3,0c-0.1,0-0.3,0-0.4,0c-0.1,0-0.2,0-0.4,0c-0.1,0-0.2,0-0.3-0.1
			c-0.1,0-0.1-0.1-0.2-0.2c0-0.1,0-0.2,0-0.3l0.1-0.6c0.2,0.1,0.5,0.1,0.8,0.1c0.3,0,0.7,0.1,1,0.1c0.3,0,0.6,0,0.9,0
			c0.3,0,0.5,0,0.6,0c0.7,0,1.4,0,2,0c0.6,0,1.2,0,1.8,0c0.6,0,1.1,0,1.6,0c0.5,0,1,0,1.4,0c0.2,0,0.4,0,0.6,0c0.3,0,0.5,0,0.8-0.1
			c0.2,0,0.5,0,0.7,0c0.2,0,0.3,0,0.4,0c0.3,0,0.6-0.1,0.8-0.1c0.2,0,0.4,0,0.5,0.1l0.6,0.5c0.1,0.1,0.1,0.1,0.1,0.2
			c0,0.1,0,0.1,0,0.2c0,0.1-0.1,0.1-0.1,0.2c-0.1,0.1-0.1,0.1-0.2,0.1l-1.1-0.2c-0.2,0-0.5,0-0.8-0.1c-0.3,0-0.6,0-0.9,0
			c-0.3,0-0.6,0-0.9,0c-0.3,0-0.6,0-0.8,0L256,39.5z M260.6,30.6c-0.2,0.4-0.3,0.7-0.5,1.1l3.2,2.2c0.1,0.1,0.2,0.1,0.2,0.2
			c0.1,0,0.1,0.1,0.2,0.1c0.1,0,0.2,0.1,0.2,0.1c0.1,0,0.2,0.1,0.3,0.1c0.2,0.1,0.3,0.1,0.4,0.2c0.1,0.1,0.2,0.2,0.3,0.4l0.3,0.5
			c0.1,0.1,0.1,0.2,0.1,0.3c0,0.1,0,0.1-0.1,0.2c-0.1,0.1-0.2,0.1-0.3,0.1c-0.1,0-0.2,0-0.3-0.1l-5-3.7c-0.4,0.5-0.8,1-1.2,1.5
			c-0.4,0.4-0.9,0.8-1.3,1.1c-0.4,0.3-0.8,0.6-1.2,0.8c-0.4,0.2-0.7,0.4-0.9,0.5c-0.1,0-0.2,0.1-0.2,0.1c-0.1,0-0.1,0-0.2,0
			c-0.1,0-0.2,0-0.2-0.1c-0.1,0-0.1-0.1-0.1-0.3c0-0.1,0-0.1,0.1-0.2c0-0.1,0.1-0.1,0.1-0.1c0.3-0.1,0.7-0.4,1.3-0.8
			c0.5-0.4,1.1-0.8,1.6-1.4c0.5-0.5,1.1-1.2,1.5-1.8c0.5-0.7,0.8-1.4,1-2.2c0-0.1,0-0.1,0-0.2c0-0.1-0.1-0.1-0.2-0.2l-0.3-0.2
			c-0.1-0.1-0.1-0.2-0.1-0.4c0.1-0.2,0.2-0.3,0.3-0.2c0.2,0.1,0.4,0.1,0.7,0.2c0.2,0.1,0.4,0.2,0.6,0.2c0.1,0.1,0.2,0.2,0.2,0.3
			c0,0.1,0,0.3,0,0.6C260.9,29.8,260.8,30.2,260.6,30.6z"/>
		<path d="M274.8,28.1c0.1,0,0.2,0,0.3,0c0.1,0,0.1,0.1,0.2,0.1c0,0,0.1,0.1,0.1,0.1c0,0,0,0.1,0,0.1l-0.1,0.5
			c-0.1,0.4-0.1,0.8-0.2,1.4c-0.1,0.5-0.2,1.1-0.3,1.7c-0.1,0.6-0.3,1.2-0.5,1.8c-0.2,0.6-0.4,1.1-0.6,1.6c-0.1,0.1-0.2,0.2-0.3,0.3
			c-0.1,0-0.2,0.1-0.3,0c-0.1,0-0.2-0.1-0.2-0.2c-0.1-0.1,0-0.2,0-0.3c0.1-0.3,0.3-0.8,0.4-1.3c0.2-0.6,0.3-1.2,0.4-1.8
			c-0.7,0.1-1.4,0.2-2.2,0.3c-0.8,0.1-1.6,0.1-2.4,0.1c-0.3,0-0.5,0-0.6,0c-0.1,0-0.2,0-0.3-0.1c-0.1,0-0.1-0.1-0.2-0.2
			c0-0.1,0-0.2,0-0.3l0.1-0.5c0.4,0.1,0.7,0.1,1.1,0.1c0.3,0,0.7,0,1.2,0c0.2,0,0.5,0,0.8,0c0.3,0,0.6-0.1,1-0.1
			c0.3,0,0.6-0.1,1-0.1c0.3,0,0.6-0.1,0.9-0.1c0.1-0.4,0.1-0.8,0.2-1.2c0.1-0.4,0.1-0.8,0.1-1.1c-0.1,0-0.2,0-0.4,0
			c-0.1,0-0.2,0-0.4,0c-0.1,0-0.3,0-0.4,0c-0.1,0-0.3,0-0.4,0c-0.4,0-0.8,0-1.3,0.1c-0.5,0-1.1,0.1-1.6,0.1c-0.3,0-0.5,0-0.6,0
			c-0.1,0-0.2-0.1-0.3-0.1c-0.1,0-0.1-0.1-0.2-0.2c0-0.1,0-0.2,0-0.3l0.1-0.6c0.4,0.1,0.7,0.1,1,0.1c0.3,0,0.7,0,1.2,0
			c0.3,0,0.6,0,0.9,0c0.2,0,0.5,0,0.8,0l1.7-0.1L274.8,28.1z M273.4,41.6c-0.1,0-0.3,0-0.4,0c-0.1,0-0.3,0-0.4-0.1
			c-0.1-0.1-0.2-0.2-0.3-0.3c-0.1-0.1-0.1-0.3-0.1-0.5v-2.2c0-0.2,0-0.4-0.1-0.5c0-0.1-0.1-0.2-0.3-0.3c-0.1,0-0.2-0.1-0.3-0.1
			c-0.1-0.1-0.1-0.1-0.1-0.3v-0.4l1,0.1c0.2,0,0.3,0.1,0.4,0.2c0.1,0.1,0.2,0.2,0.2,0.3c0,0.1,0.1,0.2,0.1,0.4c0,0.1,0,0.3,0,0.4
			v2.1c0,0.2,0,0.3,0,0.4c0,0.1,0.2,0.1,0.4,0.1h2.7c0.7,0,1.3,0,1.7-0.1c0.5-0.1,0.8-0.1,1-0.2c0.1,0,0.2-0.1,0.3-0.1
			c0.1,0,0.2,0,0.3,0.1l0.7,0.3c0.2,0.1,0.3,0.1,0.3,0.2c0,0.1,0,0.2,0,0.3c0,0.2-0.1,0.3-0.2,0.3c-0.1,0-0.2,0.1-0.3,0.1H273.4z
			 M279.9,36.4c0,0.2,0,0.3-0.1,0.5s-0.1,0.3-0.2,0.5c-0.1,0.2-0.2,0.3-0.2,0.4c-0.1,0.1-0.1,0.2-0.2,0.2c-0.1,0.1-0.1,0.1-0.2,0.1
			c-0.1,0-0.1-0.1-0.1-0.1V27.4c0-0.2-0.1-0.4-0.2-0.5c-0.1-0.1-0.2-0.3-0.4-0.4c-0.1-0.1-0.1-0.2,0-0.4c0.1-0.2,0.2-0.2,0.4-0.2
			l0.7,0.3c0.2,0.1,0.4,0.2,0.5,0.3s0.1,0.2,0.1,0.4V36.4z"/>
		<path d="M284.9,37c0,0.1,0,0.1,0,0.1s0.1,0,0.1,0c0.6,0,1.2-0.1,1.8-0.1c0.6-0.1,1.2-0.2,1.8-0.3c0.6-0.1,1.1-0.3,1.6-0.4
			c0.5-0.2,0.9-0.3,1.2-0.5c0,0,0.1,0,0.2,0c0.1,0,0.2,0.1,0.3,0.1c0.2,0.1,0.2,0.2,0.2,0.3c0,0.1-0.1,0.2-0.3,0.3
			c-1,0.6-2.1,1-3.2,1.2c-1.1,0.2-2.3,0.4-3.4,0.5c-0.1,0-0.2,0-0.3,0c-0.1,0-0.2,0-0.3,0c-0.2,0-0.3-0.1-0.5-0.3
			c-0.2-0.2-0.3-0.4-0.3-0.5v-3.1c0-0.1,0-0.2,0-0.3c0-0.1,0-0.2,0-0.2c0-0.1-0.1-0.1-0.1-0.2c0-0.1-0.1-0.1-0.2-0.2
			c-0.1,0-0.2-0.1-0.3-0.2c-0.1-0.1-0.1-0.2-0.1-0.3v-0.3l1,0.1l4.4-0.1c0.1,0,0.2,0,0.3-0.1c0.1-0.1,0.1-0.2,0.1-0.3l0-2.2
			c0-0.1,0-0.2-0.1-0.3c0,0-0.1-0.1-0.3-0.1l-3.3,0.1c-0.1,0-0.3,0-0.4,0c-0.1,0-0.3,0-0.4,0c-0.1,0-0.3,0-0.5,0s-0.4,0-0.5-0.1
			c-0.1,0-0.1-0.1-0.1-0.1c0-0.1,0-0.1,0-0.2l0.1-0.7c0.4,0.1,1,0.1,1.7,0.2c0.7,0,1.4,0,2,0l2.3-0.1c0.1,0,0.2,0,0.3,0
			c0.1,0,0.2,0,0.2,0.1c0,0,0.1,0.1,0.1,0.2c0,0.1,0,0.2,0,0.3l-0.2,3.6c0,0.2-0.1,0.4-0.2,0.4c-0.1,0.1-0.3,0.1-0.5,0.1l-4.1,0.1
			c0,0.1,0,0.2,0,0.3c0,0.1,0,0.2,0,0.3V37z M294,34.1l0.7,0c0.2,0,0.3,0,0.4,0c0.1,0,0.3-0.1,0.6-0.2c0.1,0,0.2-0.1,0.3-0.1
			c0.1,0,0.2,0,0.2-0.1c0.1,0,0.1,0,0.2,0c0.1,0,0.1,0,0.2,0.1l0.6,0.4c0.1,0.1,0.1,0.1,0.1,0.2c0,0.1,0,0.2-0.1,0.2l-0.1,0.1
			c-0.1,0.1-0.1,0.1-0.2,0.2c-0.1,0-0.2,0-0.3,0c-0.1,0-0.2,0-0.3,0c-0.1,0-0.2,0-0.3,0H294v5.3c0,0.2,0,0.3-0.1,0.5
			c-0.1,0.2-0.1,0.3-0.2,0.5c-0.1,0.2-0.2,0.3-0.2,0.4c-0.1,0.1-0.1,0.2-0.2,0.2c-0.1,0.1-0.1,0.1-0.2,0.1c-0.1,0-0.1-0.1-0.1-0.1
			V27.4c0-0.2-0.1-0.4-0.2-0.5c-0.1-0.1-0.2-0.3-0.4-0.4c-0.1-0.1-0.1-0.2,0-0.4c0.1-0.2,0.2-0.2,0.4-0.2l0.7,0.3
			c0.2,0.1,0.4,0.2,0.4,0.3c0,0.1,0.1,0.2,0.1,0.4V34.1z"/>
		<path d="M299.1,29.7c0-0.3,0-0.5-0.1-0.6s-0.2-0.2-0.3-0.3c-0.1,0-0.2-0.1-0.2-0.1c0,0,0-0.1,0-0.3v-0.3l0.9,0.1
			c0.4,0,0.6,0.2,0.6,0.4c0.1,0.2,0.1,0.5,0.1,0.8v4.7l3.9-0.1c0.1,0,0.2,0,0.3-0.1c0-0.1,0.1-0.2,0.1-0.3v-2.2l-3,0.1
			c-0.1,0-0.2,0-0.3,0c-0.1,0-0.1-0.1-0.2-0.2l-0.4-0.5c-0.1-0.1-0.1-0.1,0-0.2c0.1-0.1,0.2-0.1,0.3-0.1l0.4,0.1c0.1,0,0.2,0,0.3,0
			s0.2,0,0.3,0l2.5-0.1V29c0-0.3,0-0.5-0.1-0.6c-0.1-0.1-0.2-0.2-0.3-0.3c-0.1,0-0.2-0.1-0.2-0.1s0-0.2,0-0.3v-0.2l0.9,0.1
			c0.4,0,0.6,0.2,0.6,0.4c0.1,0.2,0.1,0.5,0.1,0.8v5.5c0,0.2-0.1,0.4-0.2,0.5c-0.1,0.1-0.3,0.2-0.6,0.2l-4.6,0V35
			c0,0.1,0,0.2-0.1,0.3c-0.1,0.1-0.1,0.2-0.1,0.2c-0.1,0.1-0.2,0.1-0.3,0.1c-0.1,0-0.2,0-0.2,0c0,0-0.1,0-0.1-0.1
			c0,0-0.1-0.1-0.1-0.2c0-0.1-0.1-0.2-0.1-0.3c0-0.1,0-0.2,0-0.3V29.7z M303.1,41.6c-0.1,0-0.3,0-0.4,0c-0.1,0-0.3,0-0.4-0.1
			c-0.1-0.1-0.2-0.2-0.3-0.3c-0.1-0.1-0.1-0.3-0.1-0.5v-2.1c0-0.2,0-0.4,0-0.5c0-0.1-0.1-0.2-0.3-0.3c-0.1,0-0.2-0.1-0.3-0.1
			c-0.1,0-0.1-0.1-0.1-0.3v-0.4l1,0.1c0.2,0,0.3,0.1,0.4,0.2c0.1,0.1,0.2,0.2,0.2,0.3c0,0.1,0.1,0.2,0.1,0.4c0,0.1,0,0.3,0,0.4v2.1
			c0,0.2,0,0.3,0.1,0.4c0,0.1,0.2,0.1,0.4,0.1h2.7c0.7,0,1.3,0,1.7-0.1c0.5-0.1,0.8-0.1,1-0.2c0.1,0,0.2-0.1,0.3-0.1
			c0.1,0,0.2,0,0.3,0.1l0.7,0.3c0.2,0.1,0.3,0.1,0.3,0.2c0,0.1,0.1,0.2,0,0.3c0,0.2-0.1,0.3-0.2,0.3c-0.1,0-0.2,0.1-0.3,0.1H303.1z
			 M309.7,36.4c0,0.2,0,0.3-0.1,0.5s-0.1,0.3-0.2,0.5c-0.1,0.2-0.2,0.3-0.2,0.4c-0.1,0.1-0.1,0.2-0.2,0.3c-0.1,0.1-0.1,0.1-0.2,0.1
			c-0.1,0-0.1-0.1-0.1-0.1V27.4c0-0.2-0.1-0.4-0.2-0.5c-0.1-0.1-0.2-0.3-0.4-0.4c-0.1-0.1-0.1-0.2,0-0.4c0.1-0.2,0.2-0.2,0.4-0.2
			l0.7,0.3c0.3,0.1,0.4,0.2,0.5,0.3s0.1,0.2,0.1,0.4V36.4z"/>
		<path d="M315.8,39.5l-1.9,0.1c-0.1,0-0.2,0-0.3,0c-0.1,0-0.3,0-0.4,0c-0.1,0-0.2,0-0.4,0c-0.1,0-0.2,0-0.3-0.1
			c-0.1,0-0.1-0.1-0.2-0.2c0-0.1,0-0.2,0-0.3l0.1-0.6c0.2,0.1,0.5,0.1,0.8,0.1c0.3,0,0.7,0.1,1,0.1c0.3,0,0.6,0,0.9,0
			c0.3,0,0.5,0,0.6,0c0.7,0,1.4,0,2,0c0.6,0,1.2,0,1.8,0c0.6,0,1.1,0,1.6,0c0.5,0,1,0,1.4,0c0.2,0,0.4,0,0.6,0c0.3,0,0.5,0,0.8-0.1
			c0.2,0,0.5,0,0.7,0c0.2,0,0.3,0,0.4,0c0.3,0,0.6-0.1,0.8-0.1c0.2,0,0.4,0,0.5,0.1l0.6,0.5c0.1,0.1,0.1,0.1,0.1,0.2
			c0,0.1,0,0.1,0,0.2c0,0.1-0.1,0.1-0.1,0.2s-0.1,0.1-0.2,0.1l-1.1-0.2c-0.2,0-0.5,0-0.8-0.1c-0.3,0-0.6,0-0.9,0c-0.3,0-0.6,0-0.9,0
			c-0.3,0-0.6,0-0.8,0L315.8,39.5z M320.4,30.6c-0.2,0.4-0.3,0.7-0.5,1.1l3.2,2.2c0.1,0.1,0.2,0.1,0.2,0.2c0.1,0,0.1,0.1,0.2,0.1
			s0.2,0.1,0.2,0.1s0.2,0.1,0.3,0.1c0.2,0.1,0.3,0.1,0.4,0.2c0.1,0.1,0.2,0.2,0.3,0.4l0.3,0.5c0.1,0.1,0.1,0.2,0.1,0.3
			c0,0.1-0.1,0.1-0.1,0.2c-0.1,0.1-0.2,0.1-0.3,0.1c-0.1,0-0.2,0-0.3-0.1l-5-3.7c-0.4,0.5-0.8,1-1.2,1.5c-0.4,0.4-0.9,0.8-1.3,1.1
			c-0.4,0.3-0.8,0.6-1.2,0.8c-0.4,0.2-0.6,0.4-0.9,0.5c-0.1,0-0.2,0.1-0.2,0.1c-0.1,0-0.1,0-0.2,0c-0.1,0-0.2,0-0.2-0.1
			c-0.1,0-0.1-0.1-0.1-0.3c0-0.1,0-0.1,0.1-0.2c0-0.1,0.1-0.1,0.1-0.1c0.3-0.1,0.7-0.4,1.3-0.8c0.5-0.4,1.1-0.8,1.6-1.4
			c0.5-0.5,1-1.2,1.5-1.8c0.5-0.7,0.8-1.4,1-2.2c0-0.1,0-0.1,0-0.2c0-0.1-0.1-0.1-0.2-0.2l-0.3-0.2c-0.1-0.1-0.1-0.2-0.1-0.4
			c0.1-0.2,0.2-0.3,0.3-0.2c0.2,0.1,0.4,0.1,0.7,0.2c0.2,0.1,0.4,0.2,0.6,0.2c0.1,0.1,0.2,0.2,0.2,0.3c0,0.1,0,0.3,0,0.6
			C320.7,29.8,320.6,30.2,320.4,30.6z"/>
	</g>
</g>
</svg>
