<?xml version="1.0" encoding="utf-8"?>
<!-- Generator: Adobe Illustrator 23.0.1, SVG Export Plug-In . SVG Version: 6.00 Build 0)  -->
<svg version="1.1" id="レイヤー_1" xmlns="http://www.w3.org/2000/svg" xmlns:xlink="http://www.w3.org/1999/xlink" x="0px"
	 y="0px" viewBox="0 0 300 50" style="enable-background:new 0 0 300 50;" xml:space="preserve">
<g>
	<g>
		<path d="M4,15.7h7.1c0.9,0,1.8,0.1,2.7,0.3c0.9,0.2,1.7,0.5,2.5,1c0.7,0.5,1.3,1.1,1.8,1.9c0.5,0.8,0.7,1.8,0.7,3
			c0,1.3-0.4,2.3-1.1,3.3c-0.8,0.9-1.8,1.5-3.1,1.8v0.1c1.5,0.2,2.8,0.8,3.8,1.8c1,1,1.5,2.4,1.5,4.1c0,1-0.2,1.9-0.6,2.7
			c-0.4,0.8-1,1.5-1.8,2.1c-0.8,0.6-1.7,1-2.8,1.3c-1.1,0.3-2.3,0.5-3.7,0.5H4V15.7z M6.4,26.1h4.9c0.6,0,1.2-0.1,1.8-0.2
			c0.6-0.1,1.1-0.4,1.6-0.7c0.5-0.3,0.9-0.8,1.2-1.3c0.3-0.5,0.5-1.2,0.5-2c0-0.8-0.2-1.4-0.5-1.9s-0.7-1-1.2-1.3
			c-0.5-0.3-1.1-0.6-1.8-0.7c-0.7-0.1-1.4-0.2-2.2-0.2H6.4V26.1z M6.4,37.4h4.5c0.9,0,1.7-0.1,2.5-0.3c0.8-0.2,1.5-0.4,2.1-0.8
			c0.6-0.4,1.1-0.9,1.4-1.4c0.4-0.6,0.5-1.3,0.5-2.1c0-1.6-0.5-2.7-1.6-3.5c-1.1-0.8-2.6-1.2-4.5-1.2H6.4V37.4z"/>
		<path d="M42.2,35.9L42.2,35.9l0.1-20.3h2.4v23.8h-3L27.9,19h-0.1v20.5h-2.4V15.7h3L42.2,35.9z"/>
		<path d="M58.8,25.3l6.5-9.6h2.9L60.3,27l8.7,12.5h-3l-7.3-10.7l-7.2,10.7h-3L57.3,27l-8-11.3h3L58.8,25.3z"/>
	</g>
	<g>
		<path d="M77.1,41.5v-0.7h8.7v0.7H77.1z"/>
		<path d="M86.9,31.2c0-0.3,0-0.5-0.1-0.6c-0.1-0.1-0.2-0.2-0.3-0.3c-0.1,0-0.2-0.1-0.2-0.1c0,0,0-0.1,0-0.3v-0.3l0.9,0.1
			c0.4,0,0.6,0.2,0.6,0.4c0.1,0.2,0.1,0.5,0.1,0.8v5.7l4.1-0.1c0.1,0,0.2,0,0.3-0.1c0.1-0.1,0.1-0.2,0.1-0.3v-2.7l-3.2,0.1
			c-0.1,0-0.2,0-0.3,0c-0.1,0-0.1-0.1-0.2-0.2l-0.4-0.5c-0.1-0.1-0.1-0.1,0-0.2c0.1-0.1,0.2-0.1,0.3-0.1l0.4,0.1c0.1,0,0.2,0,0.3,0
			c0.1,0,0.2,0,0.3,0l2.7-0.1v-2c0-0.3,0-0.5-0.1-0.6c-0.1-0.1-0.2-0.2-0.3-0.3c-0.1,0-0.2-0.1-0.2-0.1c0-0.1,0-0.2,0-0.3v-0.2
			l0.9,0.1c0.4,0,0.6,0.2,0.6,0.4c0.1,0.2,0.1,0.5,0.1,0.8v6.6c0,0.2-0.1,0.4-0.2,0.5c-0.1,0.1-0.3,0.2-0.6,0.2l-4.8,0v0.1
			c0,0.1,0,0.2-0.1,0.3c-0.1,0.1-0.1,0.2-0.1,0.2c-0.1,0.1-0.2,0.1-0.3,0.1c-0.1,0-0.2,0-0.2,0c0,0-0.1,0-0.1-0.1
			c0,0-0.1-0.1-0.1-0.2c0-0.1-0.1-0.2-0.1-0.3c0-0.1,0-0.2,0-0.3V31.2z M98,40.5c0,0.2,0,0.3-0.1,0.5s-0.1,0.3-0.2,0.5
			c-0.1,0.2-0.2,0.3-0.2,0.4c-0.1,0.1-0.1,0.2-0.2,0.2c-0.1,0.1-0.1,0.1-0.2,0.1c-0.1,0-0.1-0.1-0.1-0.1V27.9c0-0.2-0.1-0.4-0.2-0.5
			c-0.1-0.1-0.2-0.3-0.4-0.4c-0.1-0.1-0.1-0.2,0-0.4c0.1-0.2,0.2-0.2,0.4-0.2l0.7,0.3c0.2,0.1,0.4,0.2,0.4,0.3
			c0.1,0.1,0.1,0.2,0.1,0.4V40.5z"/>
		<path d="M100.8,31.1c0.1-0.4,0.3-0.7,0.6-1c0.3-0.3,0.6-0.5,1-0.7c0.4-0.2,0.9-0.3,1.4-0.3c0.5,0,1,0.1,1.4,0.3s0.7,0.4,1,0.7
			c0.3,0.3,0.5,0.6,0.6,1c0.1,0.4,0.2,0.7,0.2,1.1c0,0.9-0.3,1.6-0.8,2.2s-1.3,0.9-2.3,0.9c-0.5,0-1-0.1-1.4-0.2
			c-0.4-0.2-0.7-0.4-1-0.7c-0.3-0.3-0.5-0.6-0.6-1c-0.1-0.4-0.2-0.8-0.2-1.2C100.6,31.9,100.7,31.5,100.8,31.1z M102.2,30.7
			c-0.3,0.4-0.5,0.9-0.5,1.6c0,0.6,0.2,1.1,0.5,1.6c0.3,0.4,0.9,0.6,1.5,0.6c0.7,0,1.2-0.2,1.6-0.6c0.3-0.4,0.5-0.9,0.5-1.6
			c0-0.6-0.2-1.2-0.5-1.6c-0.3-0.4-0.9-0.6-1.5-0.6C103.1,30.1,102.5,30.3,102.2,30.7z M105.9,42c-0.1,0-0.3,0-0.4,0
			c-0.1,0-0.3-0.1-0.4-0.1c-0.1-0.1-0.2-0.2-0.3-0.3c-0.1-0.1-0.1-0.3-0.1-0.5v-2.1c0-0.2,0-0.4-0.1-0.5c0-0.1-0.1-0.2-0.3-0.3
			c-0.1,0-0.2-0.1-0.3-0.1c-0.1-0.1-0.1-0.1-0.1-0.3v-0.4l1,0.1c0.2,0,0.3,0.1,0.4,0.2c0.1,0.1,0.2,0.2,0.2,0.3
			c0,0.1,0.1,0.2,0.1,0.4c0,0.1,0,0.3,0,0.4v2.1c0,0.2,0,0.3,0.1,0.4c0,0.1,0.2,0.1,0.4,0.1h2.7c0.7,0,1.3,0,1.7-0.1
			c0.5-0.1,0.8-0.1,1-0.2c0.1,0,0.2-0.1,0.3-0.1s0.2,0,0.3,0.1l0.7,0.3c0.2,0.1,0.3,0.1,0.3,0.2s0.1,0.2,0,0.3
			c0,0.2-0.1,0.3-0.2,0.3c-0.1,0-0.2,0.1-0.3,0.1H105.9z M110.1,36.3c0,0.2,0,0.3-0.1,0.5c-0.1,0.2-0.1,0.3-0.2,0.5
			c-0.1,0.2-0.2,0.3-0.2,0.4c-0.1,0.1-0.1,0.2-0.2,0.2c-0.1,0.1-0.1,0.1-0.2,0.1c-0.1,0-0.1-0.1-0.1-0.1v-5.1l-1.1,0
			c-0.1,0-0.2,0-0.3,0c-0.1,0-0.1-0.1-0.2-0.2l-0.3-0.5c-0.1-0.1-0.1-0.1,0-0.2c0.1-0.1,0.2-0.1,0.3-0.1l0.4,0.1c0.1,0,0.2,0,0.3,0
			c0.1,0,0.2,0,0.3,0l0.7,0V29c0-0.1,0-0.2-0.1-0.3c0-0.1-0.1-0.2-0.1-0.2c-0.1-0.1-0.1-0.1-0.2-0.2c-0.1-0.1-0.1-0.1-0.2-0.2
			c-0.1-0.1-0.1-0.2,0-0.4c0.1-0.2,0.2-0.2,0.4-0.2l0.7,0.3c0.2,0.1,0.4,0.2,0.4,0.3c0.1,0.1,0.1,0.2,0.1,0.5V36.3z M112.7,36.9
			c0,0.2,0,0.3-0.1,0.5c-0.1,0.2-0.1,0.3-0.2,0.5c-0.1,0.2-0.2,0.3-0.2,0.4c-0.1,0.1-0.1,0.2-0.2,0.2c-0.1,0.1-0.1,0.1-0.2,0.1
			c-0.1,0-0.1-0.1-0.1-0.1V27.9c0-0.2-0.1-0.4-0.2-0.5c-0.1-0.1-0.2-0.3-0.4-0.4c-0.1-0.1-0.1-0.2,0-0.4c0.1-0.2,0.2-0.2,0.4-0.2
			l0.7,0.3c0.3,0.1,0.4,0.2,0.5,0.3c0.1,0.1,0.1,0.2,0.1,0.4V36.9z"/>
		<path d="M116,30.8c0.1-0.4,0.3-0.7,0.6-1c0.3-0.3,0.6-0.5,1-0.7c0.4-0.2,0.8-0.3,1.3-0.3c0.5,0,0.9,0.1,1.3,0.3
			c0.4,0.2,0.7,0.4,1,0.7c0.3,0.3,0.5,0.6,0.6,1c0.1,0.4,0.2,0.7,0.2,1.1c0,0.9-0.3,1.6-0.8,2.1c-0.6,0.6-1.3,0.8-2.3,0.8
			c-0.5,0-1-0.1-1.3-0.2c-0.4-0.2-0.7-0.4-1-0.6c-0.3-0.3-0.5-0.6-0.6-0.9c-0.1-0.4-0.2-0.7-0.2-1.2C115.8,31.5,115.8,31.1,116,30.8
			z M117.4,30.4c-0.3,0.4-0.5,0.9-0.5,1.5c0,0.6,0.2,1.1,0.5,1.5c0.3,0.4,0.9,0.6,1.5,0.6c0.7,0,1.2-0.2,1.6-0.6
			c0.3-0.4,0.5-0.9,0.5-1.5c0-0.6-0.2-1.1-0.5-1.5c-0.3-0.4-0.9-0.6-1.5-0.6C118.2,29.8,117.7,30,117.4,30.4z M127.8,40.8
			c0,0.2-0.1,0.4-0.2,0.7c-0.1,0.2-0.2,0.4-0.3,0.5l-0.2,0.4c0,0.1-0.1,0.1-0.2,0.1c-0.1,0-0.1-0.1-0.1-0.1v-4.2l-2.2,0.1
			c0,0-0.2,0-0.3,0c-0.2,0-0.4,0-0.6,0c-0.2,0-0.4,0-0.6,0c-0.2,0-0.3,0-0.4,0l-1.8,0.1c-0.1,0-0.3,0-0.4,0c-0.1,0-0.3,0-0.4,0
			c-0.1,0-0.1,0-0.2,0c-0.1,0-0.1,0-0.2,0c-0.1,0-0.1,0-0.2,0c-0.1,0-0.2,0-0.2-0.1c-0.1,0-0.1-0.1-0.1-0.2c0-0.1,0-0.2,0-0.3
			l0.1-0.6c0.2,0,0.4,0.1,0.7,0.1c0.3,0,0.5,0,0.8,0.1c0.3,0,0.6,0,0.9,0c0.3,0,0.6,0,1,0c0.5,0,1,0,1.3,0c0.4,0,0.6,0,0.7,0
			l2.8-0.1c0.1,0,0.1,0,0.2,0s0.1,0,0.1,0.1c0,0,0.1,0.1,0.1,0.1c0,0,0,0.1,0,0.1V40.8z M125.4,34.6c0,0.2,0,0.3-0.1,0.5
			c-0.1,0.2-0.1,0.3-0.2,0.5c-0.1,0.2-0.2,0.3-0.2,0.4c-0.1,0.1-0.1,0.2-0.2,0.2c-0.1,0.1-0.1,0.1-0.2,0.1c-0.1,0-0.1-0.1-0.1-0.1
			v-3.9l-1.1,0c-0.1,0-0.2,0-0.3,0c-0.1,0-0.1-0.1-0.2-0.2l-0.3-0.5c-0.1-0.1-0.1-0.1,0-0.2c0.1-0.1,0.2-0.1,0.3-0.1l0.4,0.1
			c0.1,0,0.2,0,0.3,0c0.1,0,0.2,0,0.3,0l0.7,0V29c0-0.1,0-0.2-0.1-0.3c0-0.1-0.1-0.2-0.1-0.2c-0.1-0.1-0.1-0.1-0.2-0.2
			c-0.1-0.1-0.1-0.1-0.2-0.2c-0.1-0.1-0.1-0.2,0-0.4c0.1-0.2,0.2-0.2,0.4-0.2l0.7,0.3c0.2,0.1,0.4,0.2,0.4,0.3
			c0.1,0.1,0.1,0.2,0.1,0.5V34.6z M128,34.7c0,0.2,0,0.3-0.1,0.5c-0.1,0.2-0.1,0.3-0.2,0.5c-0.1,0.2-0.2,0.3-0.2,0.4
			c-0.1,0.1-0.1,0.2-0.2,0.2c-0.1,0.1-0.1,0.1-0.2,0.1c-0.1,0-0.1-0.1-0.1-0.1v-8.5c0-0.2-0.1-0.4-0.2-0.5c-0.1-0.1-0.2-0.3-0.4-0.4
			c-0.1-0.1-0.1-0.2,0-0.4c0.1-0.2,0.2-0.2,0.4-0.2l0.7,0.3c0.3,0.1,0.4,0.2,0.5,0.3c0,0.1,0.1,0.2,0.1,0.4V34.7z"/>
		<path d="M134.4,39.9l-1.9,0.1c-0.1,0-0.2,0-0.3,0c-0.1,0-0.3,0-0.4,0c-0.1,0-0.2,0-0.4,0c-0.1,0-0.2,0-0.3-0.1
			c-0.1,0-0.1-0.1-0.2-0.2c0-0.1,0-0.2,0-0.3l0.1-0.6c0.2,0.1,0.5,0.1,0.8,0.1c0.3,0,0.7,0.1,1,0.1c0.3,0,0.6,0,0.9,0
			c0.3,0,0.5,0,0.6,0c0.7,0,1.4,0,2,0c0.6,0,1.2,0,1.8,0c0.6,0,1.1,0,1.6,0c0.5,0,1,0,1.4,0c0.2,0,0.4,0,0.6,0c0.3,0,0.5,0,0.8-0.1
			c0.2,0,0.5,0,0.7,0c0.2,0,0.3,0,0.4,0c0.3,0,0.6-0.1,0.8-0.1c0.2,0,0.4,0,0.5,0.1l0.6,0.5c0.1,0.1,0.1,0.1,0.1,0.2
			c0,0.1,0,0.1,0,0.2c0,0.1-0.1,0.1-0.1,0.2c-0.1,0.1-0.1,0.1-0.2,0.1l-1.1-0.2c-0.2,0-0.5,0-0.8-0.1c-0.3,0-0.6,0-0.9,0
			c-0.3,0-0.6,0-0.9,0c-0.3,0-0.6,0-0.8,0L134.4,39.9z M139,31c-0.2,0.4-0.3,0.7-0.5,1.1l3.2,2.2c0.1,0.1,0.2,0.1,0.2,0.2
			c0.1,0,0.1,0.1,0.2,0.1c0.1,0,0.2,0.1,0.2,0.1c0.1,0,0.2,0.1,0.3,0.1c0.2,0.1,0.3,0.1,0.4,0.2c0.1,0.1,0.2,0.2,0.3,0.4l0.3,0.5
			c0.1,0.1,0.1,0.2,0.1,0.3c0,0.1-0.1,0.1-0.1,0.2c-0.1,0.1-0.2,0.1-0.3,0.1c-0.1,0-0.2,0-0.3-0.1l-5-3.7c-0.4,0.5-0.8,1-1.2,1.5
			c-0.4,0.4-0.9,0.8-1.3,1.1c-0.4,0.3-0.8,0.6-1.2,0.8c-0.4,0.2-0.6,0.4-0.9,0.5c-0.1,0-0.2,0.1-0.2,0.1c-0.1,0-0.1,0-0.2,0
			c-0.1,0-0.2,0-0.2-0.1c-0.1-0.1-0.1-0.1-0.1-0.3c0-0.1,0-0.1,0.1-0.2c0-0.1,0.1-0.1,0.1-0.1c0.3-0.1,0.7-0.4,1.3-0.8
			c0.5-0.4,1.1-0.8,1.6-1.4c0.5-0.5,1-1.2,1.5-1.8c0.5-0.7,0.8-1.4,1-2.2c0-0.1,0-0.1,0-0.2c0-0.1-0.1-0.1-0.2-0.2l-0.3-0.2
			c-0.1-0.1-0.1-0.2-0.1-0.4c0.1-0.2,0.2-0.3,0.3-0.2c0.2,0.1,0.4,0.1,0.7,0.2c0.2,0.1,0.4,0.2,0.6,0.2c0.1,0.1,0.2,0.2,0.2,0.3
			c0,0.1,0,0.3,0,0.6C139.3,30.2,139.2,30.6,139,31z"/>
	</g>
</g>
</svg>
