<?xml version="1.0" encoding="utf-8"?>
<!-- Generator: Adobe Illustrator 23.0.1, SVG Export Plug-In . SVG Version: 6.00 Build 0)  -->
<svg version="1.1" id="レイヤー_1" xmlns="http://www.w3.org/2000/svg" xmlns:xlink="http://www.w3.org/1999/xlink" x="0px"
	 y="0px" viewBox="0 0 35 779" style="enable-background:new 0 0 35 779;" xml:space="preserve">
<style type="text/css">
	.st0{fill:none;stroke:#000000;stroke-miterlimit:10;}
	.st1{fill:#999999;}
	.st2{fill:#FFFFFF;}
	.st3{fill:#808080;}
</style>
<line class="st0" x1="17.49" y1="585.79" x2="17.49" y2="648.86"/>
<g>
	<path class="st1" d="M14.03,710.49v-13.21H9.5v-5.45h4.54v-1.39c0-4.48,1.29-9.91,7.01-9.91c1,0,3.91,0.06,4.45,0.23v4.72
		c-0.33-0.06-2.82-0.05-3.3-0.05c-1.77,0-2.15,3.15-2.15,5.47v0.96h4.87v5.43h-4.87v13.21H14.03z"/>
</g>
<g>
	<path class="st1" d="M34.82,755.19c0-7.2-7.76-13.03-17.32-13.03S0.17,748,0.17,755.19c0,7.19,7.74,13.02,17.29,13.03
		c-0.09,1.26-0.49,3.75-2.24,4.21c2,0.15,7.17-2.91,10.69-5.85C31.22,764.35,34.82,760.09,34.82,755.19z"/>
	<g>
		<polygon class="st2" points="8.93,751.52 7.49,751.52 7.49,759.44 12.21,759.44 12.21,758.18 8.93,758.18 		"/>
		<rect x="12.75" y="751.52" class="st2" width="1.44" height="7.92"/>
		<path class="st2" d="M20.15,755.01c0,0.65,0.01,1.22,0.03,1.8c-0.26-0.45-0.53-0.88-0.8-1.3l-2.64-3.99h-1.35v7.92h1.39v-3.53
			c0-0.74,0-1.34-0.02-1.88c0.26,0.44,0.55,0.9,0.87,1.41l2.61,4h1.31v-7.92h-1.4V755.01z"/>
		<polygon class="st2" points="24.18,758.19 24.18,755.92 27.13,755.92 27.13,754.68 24.18,754.68 24.18,752.77 27.32,752.77 
			27.32,751.52 22.74,751.52 22.74,759.44 27.5,759.44 27.5,758.19 		"/>
	</g>
</g>
<g>
	<g>
		<g>
			<path class="st3" d="M11.89,428.86h15.03v10.14h-1.77v-8.15H20.5v7.05h-1.77v-7.05h-6.83V428.86z"/>
			<path class="st3" d="M19.21,440.98c2.49,0,4.45,0.67,5.86,2.01s2.12,3.07,2.12,5.19c0,1.39-0.33,2.64-0.99,3.75
				s-1.59,1.96-2.77,2.55c-1.19,0.58-2.53,0.88-4.04,0.88c-1.52,0-2.89-0.31-4.09-0.92s-2.11-1.49-2.73-2.61s-0.93-2.34-0.93-3.65
				c0-1.42,0.34-2.68,1.03-3.79s1.62-1.96,2.8-2.53C16.64,441.27,17.89,440.98,19.21,440.98z M19.18,443.04
				c-1.81,0-3.24,0.49-4.28,1.46c-1.04,0.97-1.56,2.2-1.56,3.67c0,1.5,0.53,2.73,1.58,3.7c1.05,0.97,2.55,1.45,4.48,1.45
				c1.22,0,2.29-0.21,3.21-0.62c0.91-0.41,1.62-1.02,2.12-1.81c0.5-0.8,0.75-1.69,0.75-2.68c0-1.41-0.48-2.62-1.45-3.63
				C23.06,443.54,21.45,443.04,19.18,443.04z"/>
			<path class="st3" d="M11.89,457.84h15.03v1.99H13.67v7.4h-1.77V457.84z"/>
			<path class="st3" d="M11.89,469.52h15.03v1.99H13.67v7.4h-1.77V469.52z"/>
			<path class="st3" d="M19.21,480.68c2.49,0,4.45,0.67,5.86,2.01s2.12,3.07,2.12,5.19c0,1.39-0.33,2.64-0.99,3.75
				s-1.59,1.96-2.77,2.55c-1.19,0.58-2.53,0.88-4.04,0.88c-1.52,0-2.89-0.31-4.09-0.92s-2.11-1.49-2.73-2.62s-0.93-2.34-0.93-3.65
				c0-1.42,0.34-2.68,1.03-3.79s1.62-1.96,2.8-2.53C16.64,480.96,17.89,480.68,19.21,480.68z M19.18,482.73
				c-1.81,0-3.24,0.49-4.28,1.46c-1.04,0.97-1.56,2.2-1.56,3.67c0,1.5,0.53,2.73,1.58,3.7c1.05,0.97,2.55,1.45,4.48,1.45
				c1.22,0,2.29-0.21,3.21-0.62c0.91-0.41,1.62-1.02,2.12-1.81c0.5-0.8,0.75-1.69,0.75-2.68c0-1.41-0.48-2.62-1.45-3.63
				C23.06,483.24,21.45,482.73,19.18,482.73z"/>
			<path class="st3" d="M11.89,500.24l15.03-3.99v2.04l-9.85,2.29c-1.03,0.25-2.06,0.46-3.08,0.64c1.61,0.38,2.53,0.61,2.78,0.68
				l10.15,2.86v2.4l-7.61,2.15c-1.89,0.54-3.66,0.93-5.32,1.17c0.95,0.19,2.04,0.44,3.27,0.75l9.66,2.36v2l-15.03-4.12v-1.92
				l11.45-3.17c0.96-0.27,1.54-0.42,1.76-0.47c-0.69-0.16-1.28-0.3-1.76-0.44l-11.45-3.19V500.24z"/>
			<path class="st3" d="M26.93,538.97v1.99h-8.69c-1.51,0-2.71-0.17-3.6-0.51s-1.61-0.96-2.17-1.85c-0.56-0.89-0.84-2.06-0.84-3.51
				c0-1.41,0.24-2.56,0.73-3.46c0.48-0.9,1.19-1.53,2.11-1.92c0.92-0.38,2.17-0.57,3.77-0.57h8.69v1.99h-8.68
				c-1.3,0-2.27,0.12-2.89,0.36c-0.62,0.24-1.09,0.66-1.43,1.25c-0.33,0.59-0.5,1.31-0.5,2.17c0,1.46,0.33,2.51,0.99,3.13
				s1.94,0.93,3.82,0.93H26.93z"/>
			<path class="st3" d="M16.72,543.6l0.16,1.88c-0.75,0.09-1.37,0.3-1.85,0.62c-0.48,0.32-0.87,0.83-1.17,1.51s-0.45,1.45-0.45,2.31
				c0,0.76,0.11,1.43,0.34,2.01c0.22,0.58,0.53,1.01,0.93,1.3c0.39,0.28,0.82,0.43,1.29,0.43c0.47,0,0.88-0.14,1.23-0.41
				c0.35-0.27,0.65-0.72,0.89-1.35c0.16-0.4,0.4-1.3,0.73-2.68c0.33-1.38,0.64-2.35,0.94-2.9c0.38-0.72,0.84-1.25,1.4-1.6
				c0.56-0.35,1.18-0.53,1.87-0.53c0.76,0,1.47,0.21,2.13,0.65c0.66,0.43,1.16,1.06,1.5,1.89s0.51,1.75,0.51,2.76
				c0,1.11-0.18,2.1-0.54,2.95c-0.36,0.85-0.89,1.5-1.58,1.96s-1.49,0.7-2.37,0.74l-0.14-1.91c0.95-0.1,1.67-0.45,2.15-1.04
				c0.49-0.59,0.73-1.46,0.73-2.62c0-1.2-0.22-2.08-0.66-2.63c-0.44-0.55-0.97-0.83-1.6-0.83c-0.54,0-0.98,0.2-1.33,0.58
				c-0.35,0.38-0.71,1.38-1.07,3c-0.37,1.62-0.69,2.73-0.96,3.33c-0.4,0.88-0.91,1.52-1.53,1.94c-0.62,0.42-1.33,0.62-2.14,0.62
				c-0.8,0-1.55-0.23-2.26-0.69s-1.26-1.12-1.65-1.97c-0.39-0.86-0.59-1.82-0.59-2.9c0-1.36,0.2-2.5,0.59-3.42
				c0.4-0.92,0.99-1.64,1.79-2.16C14.82,543.9,15.72,543.62,16.72,543.6z"/>
		</g>
		<g>
			<path class="st3" d="M16.41,20.71l-0.43,1.71c-1.4-0.36-2.47-1-3.2-1.93s-1.1-2.06-1.1-3.41c0-1.39,0.28-2.52,0.85-3.39
				c0.56-0.87,1.38-1.53,2.46-1.99s2.22-0.68,3.45-0.68c1.34,0,2.51,0.26,3.51,0.77c1,0.51,1.76,1.24,2.28,2.19
				c0.52,0.95,0.78,1.99,0.78,3.12c0,1.29-0.33,2.37-0.98,3.25s-1.58,1.49-2.77,1.84l-0.4-1.68c0.94-0.3,1.62-0.73,2.05-1.3
				s0.64-1.28,0.64-2.14c0-0.99-0.24-1.82-0.71-2.48s-1.11-1.13-1.91-1.4c-0.8-0.27-1.62-0.4-2.47-0.4c-1.1,0-2.05,0.16-2.87,0.48
				c-0.82,0.32-1.43,0.82-1.83,1.49s-0.61,1.4-0.61,2.19c0,0.96,0.28,1.76,0.83,2.43S15.33,20.48,16.41,20.71z"/>
			<path class="st3" d="M16.56,23.73c1.73,0,3.01,0.48,3.84,1.44c0.69,0.8,1.04,1.78,1.04,2.94c0,1.28-0.42,2.33-1.26,3.15
				s-2,1.22-3.48,1.22c-1.2,0-2.15-0.18-2.83-0.54c-0.69-0.36-1.22-0.88-1.6-1.57s-0.57-1.44-0.57-2.25c0-1.31,0.42-2.36,1.26-3.17
				S14.98,23.73,16.56,23.73z M16.56,25.35c-1.2,0-2.09,0.26-2.68,0.78c-0.6,0.52-0.89,1.18-0.89,1.97c0,0.79,0.3,1.44,0.9,1.96
				s1.51,0.78,2.73,0.78c1.15,0,2.03-0.26,2.62-0.79c0.59-0.52,0.89-1.18,0.89-1.96c0-0.79-0.3-1.45-0.89-1.97
				S17.75,25.35,16.56,25.35z"/>
			<path class="st3" d="M8.32,34.33h12.91v1.44h-1.21c0.47,0.34,0.83,0.72,1.07,1.15c0.24,0.43,0.36,0.95,0.36,1.56
				c0,0.8-0.21,1.5-0.62,2.11s-0.99,1.07-1.74,1.38c-0.75,0.31-1.57,0.47-2.46,0.47c-0.96,0-1.82-0.17-2.58-0.51
				c-0.77-0.34-1.35-0.84-1.76-1.49c-0.41-0.65-0.61-1.34-0.61-2.06c0-0.53,0.11-1,0.33-1.42s0.5-0.76,0.84-1.03H8.32V34.33z
				 M16.51,35.76c-1.2,0-2.09,0.24-2.66,0.73s-0.86,1.08-0.86,1.77c0,0.7,0.3,1.31,0.89,1.81c0.59,0.5,1.52,0.75,2.76,0.75
				c1.19,0,2.08-0.24,2.67-0.73s0.89-1.07,0.89-1.75c0-0.67-0.32-1.27-0.94-1.79C18.62,36.02,17.71,35.76,16.51,35.76z"/>
			<path class="st3" d="M8.3,44.27l1.49-0.18C9.69,44.44,9.64,44.74,9.64,45c0,0.35,0.06,0.63,0.18,0.84s0.28,0.38,0.49,0.52
				c0.16,0.1,0.55,0.26,1.18,0.48c0.09,0.03,0.22,0.08,0.39,0.14l9.35-3.54v1.71l-5.41,1.94c-0.69,0.25-1.41,0.48-2.16,0.68
				c0.73,0.18,1.44,0.4,2.13,0.65l5.44,2v1.58l-9.49-3.55c-1.03-0.38-1.73-0.68-2.12-0.89c-0.52-0.28-0.9-0.6-1.15-0.97
				c-0.24-0.36-0.36-0.8-0.36-1.3C8.1,44.98,8.17,44.64,8.3,44.27z"/>
			<path class="st3" d="M11.89,53.32h9.33v1.42h-1.42c0.66,0.36,1.1,0.7,1.31,1.01s0.32,0.65,0.32,1.01c0,0.53-0.17,1.08-0.51,1.63
				l-1.47-0.54c0.23-0.39,0.34-0.77,0.34-1.16c0-0.35-0.1-0.66-0.31-0.93s-0.5-0.47-0.87-0.59c-0.56-0.18-1.18-0.26-1.85-0.26h-4.89
				V53.32z"/>
			<path class="st3" d="M11.89,59.34h9.33v1.58h-9.33V59.34z M22.96,59.34h1.82v1.58h-1.82V59.34z"/>
			<path class="st3" d="M11.12,63.04l-0.23,1.54c-0.47,0.06-0.82,0.24-1.04,0.54c-0.29,0.39-0.44,0.93-0.44,1.61
				c0,0.73,0.15,1.3,0.44,1.7s0.7,0.67,1.23,0.81c0.32,0.08,1,0.12,2.03,0.11c-0.81-0.69-1.22-1.55-1.22-2.58
				c0-1.28,0.46-2.28,1.39-2.98s2.04-1.05,3.33-1.05c0.89,0,1.71,0.16,2.47,0.48c0.75,0.32,1.33,0.79,1.74,1.4s0.62,1.33,0.62,2.16
				c0,1.1-0.45,2.01-1.34,2.72h1.12v1.46h-8.07c-1.45,0-2.48-0.15-3.09-0.44c-0.61-0.3-1.08-0.76-1.44-1.41S8.1,67.67,8.1,66.73
				c0-1.11,0.25-2.01,0.75-2.7C9.36,63.35,10.11,63.02,11.12,63.04z M16.73,64.35c-1.22,0-2.12,0.24-2.68,0.73s-0.84,1.1-0.84,1.83
				c0,0.73,0.28,1.34,0.84,1.83s1.44,0.74,2.63,0.74c1.14,0,2-0.25,2.58-0.76s0.87-1.12,0.87-1.83c0-0.7-0.29-1.3-0.86-1.79
				C18.7,64.6,17.85,64.35,16.73,64.35z"/>
			<path class="st3" d="M11.89,73.34h12.88v1.58h-4.62c0.86,0.74,1.28,1.67,1.28,2.79c0,0.69-0.14,1.29-0.41,1.8
				c-0.27,0.51-0.65,0.88-1.13,1.09s-1.18,0.33-2.09,0.33h-5.92v-1.58h5.92c0.79,0,1.37-0.17,1.73-0.51
				c0.36-0.34,0.54-0.83,0.54-1.46c0-0.47-0.12-0.91-0.36-1.32c-0.24-0.41-0.57-0.71-0.99-0.88s-0.99-0.26-1.72-0.26h-5.11V73.34z"
				/>
			<path class="st3" d="M13.31,86.81l-1.4,0.23c-0.09-0.45-0.14-0.84-0.14-1.2c0-0.57,0.09-1.02,0.27-1.34s0.42-0.54,0.72-0.67
				s0.92-0.19,1.87-0.19H20v-1.16h1.23v1.16h2.31l0.95,1.57h-3.26v1.59H20v-1.59h-5.46c-0.45,0-0.74,0.03-0.87,0.08
				s-0.23,0.15-0.31,0.27s-0.11,0.31-0.11,0.54C13.25,86.29,13.27,86.52,13.31,86.81z"/>
			<path class="st3" d="M13.41,116.23h-1.52v-8.52c0.38-0.01,0.75,0.05,1.1,0.18c0.58,0.22,1.15,0.56,1.71,1.04s1.21,1.17,1.95,2.07
				c1.15,1.4,2.06,2.35,2.73,2.84s1.31,0.74,1.9,0.74c0.63,0,1.16-0.22,1.59-0.67c0.43-0.45,0.65-1.03,0.65-1.75
				c0-0.76-0.23-1.37-0.69-1.83s-1.09-0.69-1.9-0.69l0.17-1.63c1.21,0.11,2.14,0.53,2.77,1.26c0.63,0.73,0.95,1.7,0.95,2.93
				c0,1.24-0.34,2.21-1.03,2.94s-1.54,1.08-2.55,1.08c-0.52,0-1.02-0.11-1.52-0.32s-1.02-0.56-1.57-1.05s-1.31-1.3-2.27-2.44
				c-0.8-0.95-1.34-1.56-1.62-1.83s-0.57-0.49-0.86-0.67V116.23z"/>
			<path class="st3" d="M18.25,117.93c1.52,0,2.75,0.16,3.68,0.47c0.93,0.31,1.64,0.78,2.15,1.4s0.76,1.4,0.76,2.33
				c0,0.69-0.14,1.3-0.42,1.82s-0.68,0.95-1.2,1.29c-0.53,0.34-1.16,0.61-1.92,0.8c-0.75,0.19-1.77,0.29-3.05,0.29
				c-1.51,0-2.73-0.16-3.66-0.47s-1.65-0.77-2.15-1.39c-0.51-0.62-0.76-1.4-0.76-2.34c0-1.24,0.45-2.22,1.34-2.93
				C14.08,118.35,15.83,117.93,18.25,117.93z M18.25,119.56c-2.12,0-3.52,0.25-4.22,0.74s-1.05,1.11-1.05,1.83s0.35,1.34,1.05,1.83
				s2.11,0.74,4.22,0.74c2.12,0,3.53-0.25,4.23-0.74s1.05-1.11,1.05-1.85c0-0.73-0.31-1.31-0.92-1.74
				C21.81,119.83,20.36,119.56,18.25,119.56z"/>
			<path class="st3" d="M13.41,136.25h-1.52v-8.52c0.38-0.01,0.75,0.05,1.1,0.18c0.58,0.22,1.15,0.56,1.71,1.04s1.21,1.17,1.95,2.07
				c1.15,1.4,2.06,2.35,2.73,2.84s1.31,0.74,1.9,0.74c0.63,0,1.16-0.22,1.59-0.67c0.43-0.45,0.65-1.03,0.65-1.75
				c0-0.76-0.23-1.37-0.69-1.83s-1.09-0.69-1.9-0.69l0.17-1.63c1.21,0.11,2.14,0.53,2.77,1.26c0.63,0.73,0.95,1.7,0.95,2.93
				c0,1.24-0.34,2.21-1.03,2.94s-1.54,1.08-2.55,1.08c-0.52,0-1.02-0.11-1.52-0.32s-1.02-0.56-1.57-1.05s-1.31-1.3-2.27-2.44
				c-0.8-0.95-1.34-1.56-1.62-1.83s-0.57-0.49-0.86-0.67V136.25z"/>
			<path class="st3" d="M18.25,137.95c1.52,0,2.75,0.16,3.68,0.47c0.93,0.31,1.64,0.78,2.15,1.4s0.76,1.4,0.76,2.33
				c0,0.69-0.14,1.3-0.42,1.82s-0.68,0.95-1.2,1.29c-0.53,0.34-1.16,0.61-1.92,0.8c-0.75,0.19-1.77,0.29-3.05,0.29
				c-1.51,0-2.73-0.16-3.66-0.47s-1.65-0.77-2.15-1.39c-0.51-0.62-0.76-1.4-0.76-2.34c0-1.24,0.45-2.22,1.34-2.93
				C14.08,138.38,15.83,137.95,18.25,137.95z M18.25,139.58c-2.12,0-3.52,0.25-4.22,0.74s-1.05,1.11-1.05,1.83s0.35,1.34,1.05,1.83
				s2.11,0.74,4.22,0.74c2.12,0,3.53-0.25,4.23-0.74s1.05-1.11,1.05-1.85c0-0.73-0.31-1.31-0.92-1.74
				C21.81,139.85,20.36,139.58,18.25,139.58z"/>
			<path class="st3" d="M11.89,154.86v-1.47h12.88v1.58h-4.6c0.84,0.67,1.26,1.52,1.26,2.56c0,0.57-0.12,1.12-0.35,1.63
				s-0.56,0.93-0.97,1.27c-0.42,0.33-0.92,0.59-1.52,0.78s-1.22,0.28-1.9,0.28c-1.6,0-2.84-0.4-3.71-1.19s-1.31-1.74-1.31-2.85
				c0-1.1,0.46-1.97,1.38-2.59H11.89z M16.63,154.84c-1.12,0-1.93,0.15-2.43,0.46c-0.81,0.5-1.22,1.17-1.22,2.02
				c0,0.69,0.3,1.29,0.9,1.79s1.5,0.76,2.69,0.76c1.22,0,2.12-0.24,2.7-0.72s0.87-1.07,0.87-1.75c0-0.69-0.3-1.29-0.9-1.79
				C18.63,155.1,17.77,154.84,16.63,154.84z"/>
			<path class="st3" d="M8.3,163.34l1.49-0.18c-0.09,0.35-0.14,0.65-0.14,0.91c0,0.35,0.06,0.63,0.18,0.84s0.28,0.38,0.49,0.52
				c0.16,0.1,0.55,0.26,1.18,0.48c0.09,0.03,0.22,0.08,0.39,0.14l9.35-3.54v1.71l-5.41,1.94c-0.69,0.25-1.41,0.48-2.16,0.68
				c0.73,0.18,1.44,0.4,2.13,0.65l5.44,2v1.58l-9.49-3.55c-1.03-0.38-1.73-0.68-2.12-0.89c-0.52-0.28-0.9-0.6-1.15-0.97
				c-0.24-0.36-0.36-0.8-0.36-1.3C8.1,164.06,8.17,163.72,8.3,163.34z"/>
			<path class="st3" d="M13.04,183.5c-0.5-0.59-0.85-1.15-1.05-1.69s-0.31-1.12-0.31-1.75c0-1.03,0.25-1.81,0.75-2.36
				c0.5-0.55,1.14-0.83,1.92-0.83c0.46,0,0.88,0.1,1.25,0.31c0.38,0.21,0.68,0.48,0.91,0.82s0.4,0.72,0.52,1.14
				c0.08,0.31,0.16,0.78,0.24,1.41c0.15,1.28,0.33,2.22,0.54,2.82c0.22,0.01,0.35,0.01,0.41,0.01c0.64,0,1.1-0.15,1.36-0.45
				c0.36-0.4,0.54-1,0.54-1.8c0-0.74-0.13-1.29-0.39-1.65s-0.72-0.62-1.38-0.79l0.21-1.55c0.66,0.14,1.2,0.37,1.6,0.69
				c0.41,0.32,0.72,0.79,0.94,1.4c0.22,0.61,0.33,1.32,0.33,2.12c0,0.8-0.09,1.44-0.28,1.94s-0.42,0.86-0.71,1.1
				c-0.29,0.23-0.64,0.4-1.08,0.49c-0.27,0.05-0.76,0.08-1.46,0.08H15.8c-1.47,0-2.4,0.03-2.79,0.1c-0.39,0.07-0.76,0.2-1.12,0.4
				v-1.65C12.22,183.66,12.6,183.55,13.04,183.5z M16.58,183.37c-0.23-0.57-0.43-1.44-0.6-2.58c-0.09-0.65-0.2-1.11-0.32-1.38
				s-0.29-0.48-0.51-0.62s-0.48-0.22-0.75-0.22c-0.42,0-0.77,0.16-1.05,0.48s-0.42,0.79-0.42,1.4c0,0.61,0.13,1.15,0.4,1.63
				s0.63,0.82,1.09,1.05c0.36,0.17,0.88,0.25,1.58,0.25H16.58z"/>
			<path class="st3" d="M11.89,187.41h9.33v1.42h-1.42c0.66,0.36,1.1,0.7,1.31,1.01s0.32,0.65,0.32,1.01c0,0.53-0.17,1.08-0.51,1.63
				l-1.47-0.54c0.23-0.39,0.34-0.77,0.34-1.16c0-0.35-0.1-0.66-0.31-0.93s-0.5-0.47-0.87-0.59c-0.56-0.18-1.18-0.26-1.85-0.26h-4.89
				V187.41z"/>
			<path class="st3" d="M11.89,193.43h9.33v1.58h-9.33V193.43z M22.96,193.43h1.82v1.58h-1.82V193.43z"/>
			<path class="st3" d="M11.89,197.42h9.33v1.42H19.9c1.03,0.69,1.54,1.68,1.54,2.97c0,0.56-0.1,1.08-0.3,1.55
				c-0.2,0.47-0.47,0.82-0.8,1.06s-0.72,0.4-1.17,0.49c-0.29,0.06-0.81,0.09-1.54,0.09h-5.74v-1.58h5.68c0.64,0,1.13-0.06,1.45-0.18
				s0.57-0.34,0.77-0.65c0.19-0.31,0.29-0.68,0.29-1.1c0-0.67-0.21-1.25-0.64-1.74S18.19,199,16.99,199h-5.1V197.42z"/>
			<path class="st3" d="M11.89,207.88h1.8v1.8h-1.8V207.88z"/>
			<path class="st3" d="M11.89,212.44h12.88v1.58h-7.35l3.8,3.74v2.05l-3.46-3.57l-5.87,3.93v-1.95l4.77-3.08l-1.07-1.12h-3.7
				V212.44z"/>
			<path class="st3" d="M11.89,221.44h9.33v1.58h-9.33V221.44z M22.96,221.44h1.82v1.58h-1.82V221.44z"/>
			<path class="st3" d="M11.89,225.43h9.33v1.42h-1.31c0.46,0.29,0.82,0.68,1.1,1.17s0.42,1.04,0.42,1.66c0,0.69-0.14,1.26-0.43,1.7
				s-0.69,0.75-1.2,0.94c1.09,0.74,1.63,1.7,1.63,2.88c0,0.93-0.26,1.64-0.77,2.14s-1.3,0.75-2.37,0.75h-6.41v-1.57h5.88
				c0.63,0,1.09-0.05,1.37-0.15s0.5-0.29,0.67-0.56s0.25-0.59,0.25-0.95c0-0.66-0.22-1.2-0.65-1.63c-0.44-0.43-1.14-0.65-2.1-0.65
				h-5.42v-1.58h6.06c0.7,0,1.23-0.13,1.58-0.39s0.53-0.68,0.53-1.27c0-0.45-0.12-0.86-0.35-1.23s-0.58-0.65-1.03-0.82
				s-1.1-0.25-1.95-0.25h-4.84V225.43z"/>
			<path class="st3" d="M11.89,244.21l12.88,4.95V251l-12.88,5.27v-1.94l3.9-1.5v-5.39l-3.9-1.42V244.21z M17.18,247.93v4.37
				l3.57-1.34c1.08-0.41,1.97-0.71,2.67-0.91c-0.83-0.16-1.65-0.4-2.46-0.69L17.18,247.93z"/>
			<path class="st3" d="M11.89,257.39h12.88v1.58H11.89V257.39z"/>
			<path class="st3" d="M11.89,261.39h12.88v1.58H11.89V261.39z"/>
			<path class="st3" d="M11.89,270.66h12.88v5.71c0,1.15-0.12,2.02-0.35,2.62s-0.64,1.08-1.23,1.43s-1.23,0.54-1.94,0.54
				c-0.91,0-1.68-0.3-2.31-0.89s-1.03-1.51-1.2-2.74c-0.22,0.45-0.43,0.79-0.64,1.03c-0.46,0.5-1.03,0.97-1.71,1.42l-3.51,2.24
				v-2.14l2.68-1.71c0.77-0.5,1.37-0.91,1.78-1.23s0.7-0.61,0.86-0.87s0.28-0.51,0.34-0.78c0.04-0.19,0.06-0.51,0.06-0.95v-1.98
				h-5.72V270.66z M19.09,272.36v3.67c0,0.78,0.08,1.39,0.24,1.83s0.42,0.77,0.77,1s0.74,0.34,1.16,0.34c0.61,0,1.11-0.22,1.5-0.66
				s0.59-1.14,0.59-2.1v-4.08H19.09z"/>
			<path class="st3" d="M11.89,283.44h9.33v1.58h-9.33V283.44z M22.96,283.44h1.82v1.58h-1.82V283.44z"/>
			<path class="st3" d="M11.12,287.14l-0.23,1.54c-0.47,0.06-0.82,0.24-1.04,0.54c-0.29,0.39-0.44,0.93-0.44,1.61
				c0,0.73,0.15,1.3,0.44,1.7s0.7,0.67,1.23,0.81c0.32,0.08,1,0.12,2.03,0.11c-0.81-0.69-1.22-1.55-1.22-2.58
				c0-1.28,0.46-2.28,1.39-2.98s2.04-1.05,3.33-1.05c0.89,0,1.71,0.16,2.47,0.48c0.75,0.32,1.33,0.79,1.74,1.4s0.62,1.33,0.62,2.16
				c0,1.1-0.45,2.01-1.34,2.72h1.12v1.46h-8.07c-1.45,0-2.48-0.15-3.09-0.44c-0.61-0.3-1.08-0.76-1.44-1.41s-0.53-1.43-0.53-2.37
				c0-1.11,0.25-2.01,0.75-2.7C9.36,287.44,10.11,287.11,11.12,287.14z M16.73,288.45c-1.22,0-2.12,0.24-2.68,0.73
				s-0.84,1.1-0.84,1.83c0,0.73,0.28,1.34,0.84,1.83s1.44,0.74,2.63,0.74c1.14,0,2-0.25,2.58-0.76s0.87-1.12,0.87-1.83
				c0-0.7-0.29-1.3-0.86-1.79C18.7,288.69,17.85,288.45,16.73,288.45z"/>
			<path class="st3" d="M11.89,297.44h12.88v1.58h-4.62c0.86,0.74,1.28,1.67,1.28,2.79c0,0.69-0.14,1.29-0.41,1.8
				c-0.27,0.51-0.65,0.88-1.13,1.09s-1.18,0.33-2.09,0.33h-5.92v-1.58h5.92c0.79,0,1.37-0.17,1.73-0.51
				c0.36-0.34,0.54-0.83,0.54-1.46c0-0.47-0.12-0.91-0.36-1.32c-0.24-0.41-0.57-0.71-0.99-0.88s-0.99-0.26-1.72-0.26h-5.11V297.44z"
				/>
			<path class="st3" d="M13.31,310.9l-1.4,0.23c-0.09-0.45-0.14-0.84-0.14-1.2c0-0.57,0.09-1.02,0.27-1.34s0.42-0.54,0.72-0.67
				s0.92-0.19,1.87-0.19H20v-1.16h1.23v1.16h2.31l0.95,1.57h-3.26v1.59H20v-1.59h-5.46c-0.45,0-0.74,0.03-0.87,0.08
				s-0.23,0.15-0.31,0.27s-0.11,0.31-0.11,0.54C13.25,310.38,13.27,310.62,13.31,310.9z"/>
			<path class="st3" d="M14.68,311.82l0.25,1.56c-0.63,0.09-1.11,0.33-1.44,0.73s-0.5,0.96-0.5,1.68c0,0.73,0.15,1.27,0.44,1.62
				s0.64,0.53,1.04,0.53c0.36,0,0.64-0.16,0.84-0.47c0.14-0.22,0.32-0.76,0.54-1.62c0.29-1.16,0.55-1.96,0.76-2.41
				s0.51-0.79,0.89-1.02c0.38-0.23,0.79-0.35,1.25-0.35c0.42,0,0.8,0.1,1.16,0.29c0.35,0.19,0.65,0.45,0.88,0.78
				c0.18,0.25,0.33,0.58,0.46,1.01s0.19,0.88,0.19,1.37c0,0.73-0.11,1.38-0.32,1.93s-0.5,0.96-0.86,1.23
				c-0.36,0.26-0.84,0.45-1.45,0.54l-0.21-1.55c0.48-0.07,0.86-0.27,1.12-0.61s0.4-0.81,0.4-1.43c0-0.73-0.12-1.25-0.36-1.56
				s-0.52-0.47-0.84-0.47c-0.21,0-0.39,0.06-0.55,0.19c-0.17,0.13-0.31,0.33-0.42,0.61c-0.06,0.16-0.19,0.62-0.4,1.4
				c-0.3,1.12-0.54,1.9-0.73,2.34s-0.47,0.79-0.83,1.04s-0.81,0.38-1.35,0.38c-0.53,0-1.02-0.15-1.49-0.46
				c-0.46-0.31-0.83-0.75-1.08-1.33c-0.26-0.58-0.38-1.24-0.38-1.97c0-1.21,0.25-2.14,0.76-2.77S13.69,311.99,14.68,311.82z"/>
			<path class="st3" d="M11.89,326.68h12.88v5.71c0,1.15-0.12,2.02-0.35,2.62s-0.64,1.08-1.23,1.43s-1.23,0.54-1.94,0.54
				c-0.91,0-1.68-0.3-2.31-0.89s-1.03-1.51-1.2-2.74c-0.22,0.45-0.43,0.79-0.64,1.03c-0.46,0.5-1.03,0.97-1.71,1.42l-3.51,2.24
				v-2.14l2.68-1.71c0.77-0.5,1.37-0.91,1.78-1.23s0.7-0.61,0.86-0.87s0.28-0.51,0.34-0.78c0.04-0.19,0.06-0.51,0.06-0.95v-1.98
				h-5.72V326.68z M19.09,328.38v3.67c0,0.78,0.08,1.39,0.24,1.83s0.42,0.77,0.77,1s0.74,0.34,1.16,0.34c0.61,0,1.11-0.22,1.5-0.66
				s0.59-1.14,0.59-2.1v-4.08H19.09z"/>
			<path class="st3" d="M14.9,345.84l-0.2,1.63c-0.96-0.26-1.7-0.74-2.22-1.43s-0.79-1.59-0.79-2.67c0-1.37,0.42-2.45,1.26-3.25
				c0.84-0.8,2.02-1.2,3.54-1.2c1.57,0,2.79,0.4,3.66,1.21s1.3,1.86,1.3,3.15c0,1.25-0.42,2.27-1.27,3.06s-2.04,1.19-3.59,1.19
				c-0.09,0-0.23,0-0.42-0.01v-6.96c-1.03,0.06-1.81,0.35-2.36,0.87s-0.82,1.17-0.82,1.95c0,0.58,0.15,1.08,0.46,1.49
				S14.23,345.6,14.9,345.84z M17.46,340.64v5.21c0.79-0.07,1.37-0.27,1.77-0.6c0.61-0.5,0.91-1.16,0.91-1.96
				c0-0.73-0.24-1.34-0.73-1.83S18.27,340.7,17.46,340.64z"/>
			<path class="st3" d="M14.68,348.83l0.25,1.56c-0.63,0.09-1.11,0.33-1.44,0.73s-0.5,0.96-0.5,1.68c0,0.73,0.15,1.27,0.44,1.62
				s0.64,0.53,1.04,0.53c0.36,0,0.64-0.16,0.84-0.47c0.14-0.22,0.32-0.76,0.54-1.62c0.29-1.16,0.55-1.96,0.76-2.41
				s0.51-0.79,0.89-1.02c0.38-0.23,0.79-0.35,1.25-0.35c0.42,0,0.8,0.1,1.16,0.29c0.35,0.19,0.65,0.45,0.88,0.78
				c0.18,0.25,0.33,0.58,0.46,1.01s0.19,0.88,0.19,1.37c0,0.73-0.11,1.38-0.32,1.93s-0.5,0.96-0.86,1.23
				c-0.36,0.26-0.84,0.45-1.45,0.54l-0.21-1.55c0.48-0.07,0.86-0.27,1.12-0.61s0.4-0.81,0.4-1.43c0-0.73-0.12-1.25-0.36-1.56
				s-0.52-0.47-0.84-0.47c-0.21,0-0.39,0.06-0.55,0.19c-0.17,0.13-0.31,0.33-0.42,0.61c-0.06,0.16-0.19,0.62-0.4,1.4
				c-0.3,1.12-0.54,1.9-0.73,2.34s-0.47,0.79-0.83,1.04s-0.81,0.38-1.35,0.38c-0.53,0-1.02-0.15-1.49-0.46
				c-0.46-0.31-0.83-0.75-1.08-1.33c-0.26-0.58-0.38-1.24-0.38-1.97c0-1.21,0.25-2.14,0.76-2.77S13.69,349,14.68,348.83z"/>
			<path class="st3" d="M14.9,364.85l-0.2,1.63c-0.96-0.26-1.7-0.74-2.22-1.43s-0.79-1.59-0.79-2.67c0-1.37,0.42-2.45,1.26-3.25
				c0.84-0.8,2.02-1.2,3.54-1.2c1.57,0,2.79,0.4,3.66,1.21s1.3,1.86,1.3,3.15c0,1.25-0.42,2.27-1.27,3.06s-2.04,1.19-3.59,1.19
				c-0.09,0-0.23,0-0.42-0.01v-6.96c-1.03,0.06-1.81,0.35-2.36,0.87s-0.82,1.17-0.82,1.95c0,0.58,0.15,1.08,0.46,1.49
				S14.23,364.61,14.9,364.85z M17.46,359.66v5.21c0.79-0.07,1.37-0.27,1.77-0.6c0.61-0.5,0.91-1.16,0.91-1.96
				c0-0.73-0.24-1.34-0.73-1.83S18.27,359.71,17.46,359.66z"/>
			<path class="st3" d="M11.89,368.45h9.33v1.42h-1.42c0.66,0.36,1.1,0.7,1.31,1.01s0.32,0.65,0.32,1.01c0,0.53-0.17,1.08-0.51,1.63
				l-1.47-0.54c0.23-0.39,0.34-0.77,0.34-1.16c0-0.35-0.1-0.66-0.31-0.93s-0.5-0.47-0.87-0.59c-0.56-0.18-1.18-0.26-1.85-0.26h-4.89
				V368.45z"/>
			<path class="st3" d="M11.89,377.06l9.33-3.55v1.67l-5.59,2c-0.6,0.22-1.23,0.42-1.88,0.6c0.49,0.14,1.08,0.34,1.78,0.59l5.7,2.07
				v1.63l-9.33-3.53V377.06z"/>
			<path class="st3" d="M14.9,389.85l-0.2,1.63c-0.96-0.26-1.7-0.74-2.22-1.43s-0.79-1.59-0.79-2.67c0-1.37,0.42-2.45,1.26-3.25
				c0.84-0.8,2.02-1.2,3.54-1.2c1.57,0,2.79,0.4,3.66,1.21s1.3,1.86,1.3,3.15c0,1.25-0.42,2.27-1.27,3.06s-2.04,1.19-3.59,1.19
				c-0.09,0-0.23,0-0.42-0.01v-6.96c-1.03,0.06-1.81,0.35-2.36,0.87s-0.82,1.17-0.82,1.95c0,0.58,0.15,1.08,0.46,1.49
				S14.23,389.61,14.9,389.85z M17.46,384.66v5.21c0.79-0.07,1.37-0.27,1.77-0.6c0.61-0.5,0.91-1.16,0.91-1.96
				c0-0.73-0.24-1.34-0.73-1.83S18.27,384.71,17.46,384.66z"/>
			<path class="st3" d="M11.89,399.53h1.18c-0.93-0.59-1.39-1.46-1.39-2.61c0-0.74,0.21-1.43,0.62-2.05s0.98-1.11,1.72-1.45
				c0.73-0.34,1.58-0.51,2.54-0.51c0.93,0,1.78,0.16,2.54,0.47s1.34,0.78,1.75,1.4s0.61,1.32,0.61,2.08c0,0.56-0.12,1.06-0.36,1.5
				c-0.24,0.44-0.55,0.8-0.93,1.07h4.62V401H11.89V399.53z M16.55,394.53c-1.2,0-2.09,0.25-2.68,0.76s-0.89,1.1-0.89,1.78
				c0,0.69,0.28,1.28,0.85,1.76s1.43,0.72,2.59,0.72c1.28,0,2.21-0.25,2.81-0.74s0.9-1.1,0.9-1.82c0-0.7-0.29-1.29-0.86-1.76
				S17.79,394.53,16.55,394.53z"/>
			<path class="st3" d="M11.89,403.93h1.8v1.8h-1.8V403.93z"/>
		</g>
	</g>
	<g>
		<g>
			<path class="st3" d="M16.65,99.9l-0.24,1c-0.79-0.21-1.39-0.59-1.8-1.14c-0.41-0.55-0.62-1.21-0.62-2c0-0.82,0.16-1.48,0.48-1.99
				c0.32-0.51,0.78-0.9,1.38-1.17c0.6-0.27,1.25-0.4,1.94-0.4c0.75,0,1.41,0.15,1.98,0.45c0.56,0.3,0.99,0.73,1.28,1.29
				c0.29,0.56,0.44,1.17,0.44,1.84c0,0.76-0.18,1.4-0.55,1.91c-0.37,0.52-0.89,0.88-1.56,1.08l-0.22-0.99
				c0.53-0.18,0.91-0.43,1.15-0.77c0.24-0.33,0.36-0.76,0.36-1.26c0-0.58-0.13-1.07-0.4-1.46c-0.27-0.39-0.63-0.67-1.08-0.83
				c-0.45-0.16-0.91-0.24-1.39-0.24c-0.62,0-1.16,0.09-1.61,0.28c-0.46,0.19-0.8,0.48-1.03,0.88c-0.23,0.4-0.34,0.83-0.34,1.29
				c0,0.56,0.15,1.04,0.46,1.43C15.58,99.5,16.04,99.77,16.65,99.9z"/>
		</g>
		<path class="st3" d="M11.25,97.56c0-3.57,2.91-6.48,6.48-6.48s6.48,2.91,6.48,6.48c0,3.57-2.91,6.48-6.48,6.48
			S11.25,101.13,11.25,97.56z M23.56,97.56c0-3.21-2.61-5.82-5.82-5.82s-5.82,2.61-5.82,5.82s2.61,5.82,5.82,5.82
			S23.56,100.77,23.56,97.56z"/>
	</g>
</g>
</svg>
