<?xml version="1.0" encoding="utf-8"?>
<!-- Generator: Adobe Illustrator 23.0.0, SVG Export Plug-In . SVG Version: 6.00 Build 0)  -->
<svg version="1.1" id="Layer_1" xmlns="http://www.w3.org/2000/svg" xmlns:xlink="http://www.w3.org/1999/xlink" x="0px" y="0px"
	 viewBox="0 0 781 132" style="enable-background:new 0 0 781 132;" xml:space="preserve">
<style type="text/css">
	.st0{fill:none;stroke:#000000;stroke-miterlimit:10;}
</style>
<g>
	<g>
		<g>
			<g>
				<path d="M195.04,65.65c1.77,2.33,2.66,5.41,2.66,9.25v3.74h-3.17v-3.96c0-2.88-0.61-5.18-1.84-6.91
					c-1.22-1.73-3.16-2.59-5.8-2.59s-4.57,0.86-5.8,2.59c-1.22,1.73-1.84,4.03-1.84,6.91v26.21c0,2.88,0.61,5.17,1.84,6.88
					c1.22,1.71,3.16,2.56,5.8,2.56s4.57-0.85,5.8-2.56c1.22-1.7,1.84-4,1.84-6.88V90.02h-6.7v-3.02h9.86v13.68
					c0,3.84-0.89,6.92-2.66,9.25c-1.78,2.33-4.51,3.49-8.21,3.49c-3.7,0-6.43-1.16-8.21-3.49c-1.78-2.33-2.66-5.41-2.66-9.25V74.9
					c0-3.84,0.89-6.92,2.66-9.25c1.77-2.33,4.51-3.49,8.21-3.49C190.53,62.15,193.27,63.32,195.04,65.65z"/>
				<path d="M224.56,73.96v4.39c0,2.98-0.59,5.32-1.76,7.02c-1.18,1.71-3.01,2.85-5.51,3.42c4.85,1.06,7.27,4.49,7.27,10.3v7.85
					c0,2.79,0.41,4.8,1.22,6.05h-3.46c-0.43-0.72-0.72-1.55-0.86-2.48c-0.14-0.94-0.22-2.13-0.22-3.56v-7.92
					c0-3.17-0.79-5.39-2.38-6.66c-1.58-1.27-3.94-1.91-7.06-1.91h-5.26v22.54h-3.31v-50.4h10.51
					C220.96,62.59,224.56,66.38,224.56,73.96z M218.95,85.62c1.54-1.2,2.3-3.41,2.3-6.62v-4.75c0-2.83-0.6-4.98-1.8-6.44
					c-1.2-1.46-3.12-2.2-5.76-2.2h-7.13v21.82h5.33C215.06,87.43,217.41,86.83,218.95,85.62z"/>
				<path d="M233.35,112.99h-3.02l11.02-50.47h4.82l11.23,50.47h-3.31l-2.52-11.16h-15.7L233.35,112.99z M251.06,98.94l-7.42-32.62
					l-7.27,32.62H251.06z"/>
				<path d="M281.08,65.83c1.73,2.16,2.59,5.16,2.59,9v5.47c0,4.03-0.95,7.03-2.84,9c-1.9,1.97-4.84,2.95-8.82,2.95h-6.26v20.74
					h-3.31v-50.4h10.44C276.62,62.59,279.35,63.67,281.08,65.83z M278.38,87.17c1.32-1.37,1.98-3.59,1.98-6.66v-5.9
					c0-2.93-0.58-5.16-1.73-6.7c-1.15-1.54-3.07-2.3-5.76-2.3h-7.13v23.62h6.26C274.94,89.23,277.06,88.54,278.38,87.17z"/>
				<path d="M291.95,112.99h-3.31v-50.4h3.31v23.69h15.7V62.59h3.38v50.4h-3.38V89.3h-15.7V112.99z"/>
				<path d="M320.1,112.99h-3.31v-50.4h3.31V112.99z"/>
				<path d="M344.73,65.65c1.78,2.33,2.66,5.41,2.66,9.25v4.18h-3.17v-4.39c0-2.88-0.61-5.18-1.84-6.91
					c-1.22-1.73-3.16-2.59-5.8-2.59c-2.64,0-4.57,0.86-5.8,2.59c-1.22,1.73-1.84,4.03-1.84,6.91v26.21c0,2.88,0.61,5.17,1.84,6.88
					c1.22,1.71,3.16,2.56,5.8,2.56c2.64,0,4.57-0.85,5.8-2.56c1.22-1.7,1.84-4,1.84-6.88v-5.98h3.17v5.76
					c0,3.84-0.89,6.92-2.66,9.25c-1.78,2.33-4.51,3.49-8.21,3.49c-3.7,0-6.43-1.16-8.21-3.49c-1.78-2.33-2.66-5.41-2.66-9.25V74.9
					c0-3.84,0.89-6.92,2.66-9.25c1.78-2.33,4.51-3.49,8.21-3.49C340.21,62.15,342.95,63.32,344.73,65.65z"/>
				<path d="M383.43,65.93c1.85,2.23,2.77,5.29,2.77,9.18v25.34c0,3.89-0.92,6.95-2.77,9.18c-1.85,2.23-4.64,3.35-8.39,3.35h-11.09
					v-50.4h11.09C378.78,62.59,381.58,63.7,383.43,65.93z M380.94,107.48c1.3-1.66,1.94-3.95,1.94-6.88V74.97
					c0-2.88-0.65-5.16-1.94-6.84c-1.3-1.68-3.29-2.52-5.98-2.52h-7.7v44.35h7.7C377.66,109.96,379.65,109.13,380.94,107.48z"/>
				<path d="M408.74,88.94h-13.75v21.02h16.56v3.03h-19.87v-50.4h19.87v3.02h-16.56v20.3h13.75V88.94z"/>
				<path d="M435.55,65.57c1.75,2.28,2.63,5.34,2.63,9.18v1.08h-3.17v-1.3c0-2.88-0.6-5.16-1.8-6.84c-1.2-1.68-3.1-2.52-5.69-2.52
					s-4.49,0.84-5.69,2.52c-1.2,1.68-1.8,3.94-1.8,6.77c0,1.82,0.38,3.44,1.15,4.86c0.77,1.42,1.72,2.64,2.84,3.67
					c1.13,1.03,2.68,2.27,4.64,3.71c2.06,1.49,3.74,2.81,5.04,3.96s2.38,2.57,3.24,4.25c0.86,1.68,1.3,3.65,1.3,5.9
					c0,3.84-0.89,6.9-2.66,9.18c-1.78,2.28-4.51,3.42-8.21,3.42c-3.7,0-6.43-1.14-8.21-3.42c-1.78-2.28-2.66-5.34-2.66-9.18v-2.59
					h3.17v2.81c0,2.88,0.61,5.15,1.84,6.8c1.22,1.66,3.16,2.48,5.8,2.48c2.64,0,4.57-0.83,5.8-2.48s1.84-3.92,1.84-6.8
					c0-1.82-0.38-3.43-1.15-4.82c-0.77-1.39-1.72-2.6-2.84-3.63c-1.13-1.03-2.65-2.24-4.57-3.64c-2.06-1.49-3.74-2.82-5.04-4
					c-1.3-1.18-2.39-2.62-3.28-4.32c-0.89-1.7-1.33-3.68-1.33-5.94c0-3.89,0.89-6.94,2.66-9.14c1.78-2.21,4.46-3.33,8.06-3.38
					C431.1,62.15,433.8,63.29,435.55,65.57z"/>
				<path d="M446.89,112.99h-3.31v-50.4h3.31V112.99z"/>
				<path d="M471.52,65.65c1.78,2.33,2.66,5.41,2.66,9.25v3.74h-3.17v-3.96c0-2.88-0.61-5.18-1.84-6.91
					c-1.22-1.73-3.16-2.59-5.8-2.59c-2.64,0-4.57,0.86-5.8,2.59c-1.22,1.73-1.84,4.03-1.84,6.91v26.21c0,2.88,0.61,5.17,1.84,6.88
					c1.22,1.71,3.16,2.56,5.8,2.56c2.64,0,4.57-0.85,5.8-2.56c1.22-1.7,1.84-4,1.84-6.88V90.02h-6.7v-3.02h9.86v13.68
					c0,3.84-0.89,6.92-2.66,9.25c-1.78,2.33-4.51,3.49-8.21,3.49c-3.7,0-6.43-1.16-8.21-3.49c-1.78-2.33-2.66-5.41-2.66-9.25V74.9
					c0-3.84,0.89-6.92,2.66-9.25c1.78-2.33,4.51-3.49,8.21-3.49C467,62.15,469.74,63.32,471.52,65.65z"/>
				<path d="M479.72,112.99v-50.4h4.32l15.12,42.55V62.59h3.02v50.4h-3.67l-15.77-44.93v44.93H479.72z"/>
			</g>
		</g>
		<g>
			<g>
				<path d="M544.74,113.68l-2.71,0.07c-0.14,0.02-0.31,0.03-0.49,0.04s-0.37,0.01-0.56,0.01c-0.18,0-0.35-0.01-0.52-0.02
					c-0.17-0.02-0.3-0.05-0.4-0.1c-0.1-0.02-0.17-0.09-0.23-0.23c-0.06-0.14-0.06-0.3-0.01-0.49l0.17-0.82
					c0.3,0.08,0.7,0.14,1.18,0.18c0.48,0.04,0.96,0.08,1.44,0.11s0.92,0.05,1.32,0.06c0.4,0.01,0.67,0.01,0.82,0.01
					c1.01,0.02,1.97,0.02,2.88,0.01c0.91-0.01,1.78-0.03,2.62-0.06c0.82-0.02,1.59-0.04,2.32-0.06c0.73-0.02,1.41-0.04,2.05-0.06
					c0.24,0,0.54-0.01,0.9-0.04c0.36-0.02,0.72-0.04,1.09-0.06c0.35-0.03,0.67-0.06,0.96-0.07c0.29-0.02,0.48-0.03,0.58-0.05
					c0.5-0.05,0.9-0.07,1.21-0.07s0.54,0.06,0.68,0.17l0.79,0.72c0.11,0.11,0.18,0.21,0.19,0.3c0.02,0.09,0.01,0.16-0.02,0.23
					c-0.05,0.1-0.11,0.19-0.19,0.28c-0.08,0.09-0.17,0.12-0.26,0.08l-1.51-0.24c-0.3-0.03-0.67-0.06-1.09-0.07
					c-0.42-0.02-0.87-0.02-1.33-0.02c-0.45,0-0.89,0-1.33,0s-0.81,0-1.12,0L544.74,113.68z M556.81,99.64
					c-0.06,0.56-0.16,1.28-0.29,2.16c-0.13,0.88-0.29,1.8-0.48,2.76s-0.41,1.89-0.65,2.78c-0.24,0.9-0.5,1.64-0.79,2.23
					c-0.08,0.16-0.18,0.26-0.31,0.31c-0.13,0.05-0.25,0.06-0.36,0.02c-0.11-0.03-0.2-0.1-0.28-0.19c-0.07-0.1-0.08-0.22-0.04-0.36
					c0.21-0.74,0.4-1.52,0.59-2.36c0.18-0.84,0.35-1.68,0.49-2.53c0.13-0.85,0.24-1.68,0.35-2.5c0.1-0.82,0.18-1.58,0.23-2.28
					l-2.4,0.02c-0.03,0-0.2,0-0.52,0.01s-0.7,0.02-1.16,0.04c-0.46,0.02-0.98,0.03-1.55,0.05c-0.57,0.02-1.12,0.02-1.64,0.02
					c-0.29,0.02-0.56,0.02-0.82,0.02c-0.26,0-0.51,0-0.77,0c-0.26,0-0.52,0-0.78-0.01c-0.26-0.01-0.54-0.01-0.83-0.01
					c-0.14,0-0.34-0.01-0.6-0.02c-0.26-0.02-0.48-0.05-0.67-0.1c-0.11-0.02-0.18-0.08-0.2-0.18c-0.02-0.1-0.03-0.24-0.01-0.4
					l0.19-0.91c0.27,0.1,0.6,0.17,0.98,0.22c0.38,0.05,0.78,0.09,1.2,0.12c0.4,0.02,0.79,0.03,1.16,0.04s0.68,0,0.92-0.01
					c0.32,0,0.75-0.01,1.3-0.02c0.54-0.02,1.09-0.02,1.63-0.02c0.54-0.02,1.02-0.03,1.43-0.05c0.41-0.02,0.64-0.02,0.68-0.02
					l2.93-0.14c0.13-0.03,0.3-0.03,0.53,0.01c0.22,0.04,0.39,0.15,0.5,0.32c0.03,0.05,0.06,0.1,0.07,0.16
					c0.02,0.06,0.02,0.11,0.02,0.16L556.81,99.64z"/>
				<path d="M564.93,110.11c0,0.08,0.03,0.14,0.08,0.18c0.06,0.04,0.11,0.06,0.16,0.06c1.25,0,2.44-0.14,3.59-0.42
					c1.14-0.28,2.12-0.64,2.92-1.07c0.06-0.03,0.16-0.04,0.28-0.04c0.12,0.01,0.26,0.06,0.42,0.16c0.22,0.16,0.32,0.31,0.29,0.44
					c-0.03,0.14-0.2,0.29-0.5,0.47c-1.09,0.62-2.2,1.08-3.32,1.36c-1.13,0.28-2.29,0.47-3.49,0.56c-0.11,0.02-0.24,0.03-0.38,0.04
					s-0.27,0.01-0.38,0.01c-0.22,0-0.47-0.13-0.73-0.38c-0.26-0.26-0.4-0.5-0.4-0.74v-3.86c0-0.16,0-0.3-0.01-0.42
					c-0.01-0.12-0.02-0.23-0.04-0.32c-0.03-0.1-0.08-0.18-0.14-0.26s-0.15-0.15-0.26-0.22c-0.16-0.06-0.29-0.16-0.38-0.3
					s-0.14-0.29-0.14-0.47v-0.48l1.34,0.12l5.04-0.1c0.18,0,0.3-0.04,0.38-0.13c0.08-0.09,0.12-0.24,0.12-0.47l0.05-2.86
					c0-0.21-0.02-0.34-0.07-0.38c-0.05-0.05-0.18-0.07-0.41-0.07l-3.6,0.12c-0.19,0-0.39,0.01-0.59,0.02
					c-0.2,0.02-0.39,0.02-0.56,0.02c-0.14,0.02-0.38,0.02-0.7,0.02s-0.57-0.06-0.74-0.17c-0.1-0.05-0.16-0.12-0.18-0.2
					s-0.03-0.2-0.01-0.32l0.12-0.94c0.61,0.13,1.4,0.2,2.36,0.23c0.97,0.02,1.92,0.02,2.84-0.01l2.28-0.12
					c0.13,0,0.26,0.01,0.38,0.02c0.13,0.02,0.23,0.06,0.31,0.12c0.06,0.08,0.11,0.16,0.13,0.25c0.02,0.09,0.04,0.22,0.04,0.4
					l-0.24,4.94c-0.03,0.29-0.12,0.5-0.28,0.64c-0.15,0.14-0.41,0.2-0.78,0.2l-4.8,0.07c0,0.13,0,0.26,0.01,0.41
					c0.01,0.14,0.01,0.29,0.01,0.43V110.11z M575.29,104.25h3.26V96.4c0-0.3-0.07-0.55-0.22-0.74c-0.14-0.19-0.33-0.38-0.55-0.58
					c-0.18-0.13-0.2-0.31-0.06-0.55c0.14-0.24,0.31-0.31,0.52-0.22l1.03,0.48c0.37,0.18,0.59,0.33,0.66,0.47
					c0.07,0.14,0.11,0.35,0.11,0.64v18.6c0,0.24-0.04,0.48-0.13,0.73s-0.19,0.48-0.3,0.71c-0.11,0.22-0.22,0.42-0.32,0.59
					s-0.18,0.28-0.23,0.35c-0.08,0.1-0.18,0.13-0.31,0.11c-0.13-0.02-0.19-0.08-0.19-0.18v-11.33h-3.26v8.09
					c0,0.24-0.04,0.48-0.13,0.73c-0.09,0.25-0.18,0.48-0.28,0.71c-0.11,0.22-0.22,0.42-0.32,0.59c-0.1,0.17-0.18,0.28-0.23,0.35
					c-0.08,0.1-0.18,0.13-0.31,0.11c-0.13-0.02-0.19-0.08-0.19-0.18V97.99c0-0.16-0.02-0.3-0.07-0.43c-0.05-0.13-0.1-0.24-0.17-0.34
					c-0.08-0.1-0.17-0.19-0.26-0.29c-0.1-0.1-0.19-0.19-0.29-0.29c-0.16-0.13-0.18-0.31-0.05-0.55c0.13-0.24,0.3-0.31,0.5-0.22
					l1.06,0.48c0.35,0.18,0.56,0.33,0.64,0.47c0.07,0.14,0.11,0.36,0.11,0.66V104.25z"/>
				<path d="M591.57,100.31c-0.1-0.1-0.13-0.24-0.1-0.43l0.05-0.46l1.51,0.14c0.38,0.05,0.62,0.18,0.71,0.38s0.13,0.38,0.13,0.53
					v4.78c0.53-0.1,1.06-0.21,1.58-0.34c0.53-0.13,1.02-0.28,1.46-0.46c0.05-0.02,0.14,0,0.26,0.05c0.13,0.05,0.24,0.1,0.34,0.14
					c0.14,0.1,0.25,0.23,0.31,0.41c0.06,0.18,0.01,0.29-0.17,0.34c-1.34,0.53-2.75,0.91-4.21,1.15c-1.46,0.24-2.8,0.43-4,0.58
					c-0.24,0.03-0.54,0.06-0.91,0.1c-0.37,0.03-0.75,0.06-1.15,0.1c-0.38,0.02-0.77,0.03-1.15,0.05c-0.38,0.02-0.71,0.02-0.98,0
					c-0.14,0-0.32-0.01-0.54-0.02c-0.22-0.02-0.43-0.07-0.64-0.17c-0.1-0.03-0.16-0.1-0.18-0.2c-0.02-0.1-0.01-0.24,0.04-0.42
					l0.12-0.72c0.35,0.08,0.79,0.13,1.31,0.16c0.52,0.02,1.07,0.04,1.64,0.04v-3.91c0-0.3-0.02-0.53-0.07-0.67
					c-0.05-0.14-0.19-0.26-0.43-0.34c-0.13-0.03-0.24-0.1-0.34-0.19c-0.1-0.1-0.13-0.24-0.1-0.43l0.05-0.46l1.51,0.14
					c0.38,0.05,0.62,0.18,0.71,0.38s0.13,0.38,0.13,0.53v4.87l0.86-0.07c0.21-0.02,0.43-0.04,0.67-0.06
					c0.24-0.02,0.49-0.05,0.74-0.08c0.27-0.03,0.54-0.06,0.82-0.1c0.27-0.03,0.55-0.07,0.84-0.12v-4.01c0-0.3-0.02-0.53-0.07-0.67
					c-0.05-0.14-0.19-0.26-0.43-0.34C591.77,100.47,591.66,100.41,591.57,100.31z M588.96,98.61c-0.3,0.02-0.58,0.03-0.85,0.05
					c-0.27,0.02-0.56,0.04-0.85,0.06c-0.3,0.02-0.63,0.04-1,0.06c-0.38,0.03-0.7,0.03-0.95,0s-0.44-0.1-0.59-0.19
					c-0.1-0.05-0.16-0.11-0.18-0.19s-0.02-0.18,0.01-0.31l0.17-0.91c0.56,0.1,1.12,0.17,1.67,0.22c0.55,0.05,1.09,0.07,1.62,0.07
					c0.21,0,0.39,0,0.54,0c0.15,0,0.31,0,0.47,0c0.16-0.02,0.33-0.03,0.52-0.04c0.18-0.01,0.41-0.03,0.68-0.06
					c0.3-0.02,0.63-0.03,0.98-0.05c0.35-0.02,0.68-0.03,0.98-0.05c0.32-0.02,0.6-0.03,0.83-0.05c0.23-0.02,0.4-0.03,0.49-0.05
					c0.53-0.06,0.88-0.09,1.04-0.08c0.17,0.01,0.34,0.06,0.52,0.16l0.6,0.38c0.19,0.14,0.3,0.26,0.32,0.36
					c0.02,0.1-0.01,0.24-0.11,0.43c-0.1,0.18-0.18,0.29-0.25,0.35c-0.07,0.06-0.18,0.06-0.32,0.01c-0.14-0.03-0.34-0.07-0.58-0.11
					c-0.24-0.04-0.48-0.08-0.72-0.11c-0.37-0.02-0.71-0.03-1.03-0.04c-0.32-0.01-0.64-0.01-0.96-0.01c-0.32,0-0.64,0.01-0.97,0.02
					c-0.33,0.02-0.68,0.02-1.07,0.02C589.6,98.58,589.26,98.59,588.96,98.61z M600.45,114.93c0,0.3-0.08,0.62-0.25,0.96
					s-0.3,0.58-0.4,0.72l-0.34,0.55c-0.06,0.1-0.16,0.14-0.3,0.12c-0.14-0.02-0.2-0.08-0.2-0.19v-5.93
					c-1.54,0.05-2.8,0.09-3.79,0.12c-0.99,0.03-1.61,0.05-1.85,0.05l-2.54,0.12c-0.19,0.02-0.39,0.03-0.59,0.04
					c-0.2,0.01-0.4,0.01-0.59,0.01c-0.08,0-0.17,0-0.26,0.01s-0.2,0.01-0.31,0.01c-0.1-0.02-0.2-0.04-0.31-0.06
					c-0.11-0.02-0.22-0.07-0.31-0.13c-0.1-0.05-0.15-0.13-0.17-0.25c-0.02-0.12-0.02-0.25,0-0.4l0.07-0.79
					c0.3,0.06,0.64,0.11,1.01,0.14c0.37,0.03,0.76,0.06,1.18,0.07c0.42,0,0.85,0,1.31,0s0.92,0,1.38,0c0.37,0,0.73,0,1.09,0
					c0.36,0,0.79-0.01,1.28-0.02c0.5-0.02,1.08-0.04,1.76-0.06c0.68-0.02,1.52-0.06,2.53-0.11c0.1,0,0.18,0.01,0.25,0.04
					c0.07,0.02,0.13,0.06,0.18,0.11c0.06,0.06,0.11,0.13,0.13,0.19c0.02,0.06,0.04,0.12,0.04,0.17V114.93z M600.69,106.17
					c0,0.24-0.04,0.48-0.13,0.73s-0.19,0.48-0.3,0.71c-0.11,0.22-0.22,0.42-0.32,0.59c-0.1,0.17-0.18,0.28-0.23,0.35
					c-0.08,0.1-0.18,0.13-0.31,0.11c-0.13-0.02-0.19-0.08-0.19-0.18V96.4c0-0.3-0.07-0.55-0.22-0.74c-0.14-0.19-0.33-0.38-0.55-0.58
					c-0.18-0.13-0.2-0.31-0.06-0.55c0.14-0.24,0.31-0.31,0.52-0.22l1.03,0.48c0.37,0.18,0.59,0.33,0.66,0.47
					c0.07,0.14,0.11,0.35,0.11,0.64V106.17z"/>
				<path d="M613.53,101.63c0-0.45-0.02-0.74-0.07-0.88s-0.18-0.25-0.38-0.35c-0.1-0.05-0.17-0.09-0.22-0.12
					c-0.05-0.03-0.08-0.07-0.1-0.12c-0.02-0.05-0.02-0.1-0.01-0.16c0.01-0.06,0.01-0.13,0.01-0.23v-0.41l0.98,0.12h4.08
					c0.16,0,0.4,0,0.72-0.01c0.32-0.01,0.66-0.03,1.03-0.06c0.37-0.02,0.72-0.04,1.07-0.08c0.34-0.04,0.61-0.08,0.8-0.13
					c0.19-0.03,0.34-0.04,0.44-0.02c0.1,0.02,0.21,0.05,0.32,0.1l0.43,0.26c0.24,0.14,0.37,0.27,0.4,0.37
					c0.02,0.1,0.01,0.2-0.04,0.3c-0.11,0.24-0.24,0.38-0.38,0.42s-0.26,0.06-0.36,0.06h-7.3c0.02,0.1,0.03,0.2,0.04,0.3
					c0.01,0.1,0.01,0.2,0.01,0.3v7.94c0,0.1,0.03,0.17,0.1,0.22s0.12,0.07,0.17,0.07c0.78-0.02,1.62-0.08,2.52-0.18
					c0.9-0.1,1.76-0.24,2.59-0.4c0.85-0.18,1.63-0.37,2.34-0.59s1.28-0.45,1.72-0.71c0.06-0.03,0.16-0.04,0.28-0.04
					c0.12,0.01,0.26,0.06,0.42,0.16c0.22,0.16,0.32,0.3,0.28,0.43c-0.04,0.13-0.2,0.29-0.49,0.48c-0.61,0.35-1.29,0.65-2.05,0.9
					c-0.76,0.25-1.56,0.46-2.39,0.64c-0.85,0.19-1.7,0.34-2.57,0.46c-0.86,0.11-1.7,0.21-2.5,0.29c-0.1,0.02-0.22,0.03-0.37,0.04
					c-0.15,0.01-0.28,0.01-0.37,0.01c-0.22,0-0.47-0.12-0.74-0.37c-0.27-0.25-0.41-0.49-0.41-0.73V101.63z M628.84,114.5
					c0,0.24-0.04,0.48-0.13,0.73c-0.09,0.25-0.18,0.48-0.28,0.71c-0.11,0.22-0.22,0.42-0.32,0.59s-0.18,0.28-0.23,0.35
					c-0.08,0.1-0.18,0.13-0.31,0.11c-0.13-0.02-0.19-0.08-0.19-0.18V96.4c0-0.3-0.08-0.55-0.23-0.74c-0.15-0.19-0.34-0.38-0.56-0.58
					c-0.16-0.13-0.18-0.31-0.05-0.55c0.13-0.24,0.3-0.31,0.5-0.22l1.06,0.48c0.35,0.18,0.56,0.33,0.64,0.47
					c0.07,0.14,0.11,0.35,0.11,0.64V114.5z"/>
				<path d="M639.07,103.1c-0.12,0.3-0.25,0.62-0.4,0.96l3.31,3.22c0.11,0.11,0.22,0.21,0.31,0.29c0.1,0.08,0.19,0.15,0.29,0.22
					c0.1,0.08,0.2,0.15,0.3,0.22c0.1,0.06,0.22,0.13,0.35,0.19c0.22,0.14,0.4,0.28,0.52,0.41s0.23,0.36,0.32,0.7l0.19,0.72
					c0.05,0.21,0.05,0.37,0.01,0.48c-0.04,0.11-0.11,0.19-0.2,0.24c-0.14,0.08-0.27,0.11-0.38,0.1c-0.11-0.02-0.23-0.1-0.36-0.24
					l-5.11-5.62c-0.58,1.06-1.3,2.12-2.16,3.2c-0.86,1.08-1.84,2-2.93,2.77c-0.13,0.1-0.24,0.16-0.32,0.2
					c-0.09,0.04-0.16,0.06-0.23,0.06c-0.19,0-0.34-0.03-0.44-0.08c-0.1-0.06-0.19-0.17-0.25-0.35c-0.03-0.08-0.02-0.18,0.04-0.29
					c0.06-0.11,0.11-0.18,0.16-0.22c0.9-0.62,1.7-1.34,2.4-2.15c0.7-0.81,1.3-1.63,1.8-2.46c0.51-0.82,0.91-1.6,1.2-2.35
					s0.47-1.38,0.55-1.9c0-0.1-0.02-0.19-0.05-0.29c-0.03-0.1-0.07-0.18-0.12-0.26c-0.08-0.05-0.18-0.12-0.29-0.2
					s-0.23-0.18-0.36-0.28c-0.48,0.03-0.96,0.06-1.44,0.1s-0.95,0.07-1.42,0.12c-0.37,0.03-0.68,0.03-0.94-0.01
					c-0.26-0.04-0.42-0.09-0.48-0.16c-0.1-0.05-0.16-0.11-0.2-0.19s-0.04-0.19-0.01-0.34l0.12-0.96c0.56,0.1,1.12,0.17,1.67,0.22
					c0.55,0.05,1.09,0.07,1.62,0.07c0.27,0.02,0.51,0.02,0.71,0.02s0.4-0.01,0.59-0.02c0.18,0,0.37-0.01,0.58-0.02
					c0.21-0.02,0.46-0.03,0.74-0.05c0.24,0,0.54-0.02,0.89-0.05s0.7-0.06,1.06-0.07c0.34-0.03,0.64-0.06,0.91-0.08
					c0.27-0.02,0.46-0.04,0.55-0.06c0.26-0.02,0.47-0.03,0.65-0.04c0.18-0.01,0.33-0.01,0.46-0.01c0.11,0,0.21,0.01,0.29,0.04
					c0.08,0.02,0.16,0.05,0.24,0.08l0.55,0.36c0.24,0.18,0.39,0.32,0.44,0.42c0.06,0.1,0.04,0.25-0.06,0.44
					c-0.1,0.18-0.19,0.3-0.28,0.36c-0.09,0.06-0.23,0.07-0.42,0.02c-0.06,0-0.14-0.01-0.23-0.04c-0.09-0.02-0.19-0.05-0.3-0.08
					c-0.13-0.02-0.26-0.04-0.38-0.06c-0.13-0.02-0.25-0.04-0.36-0.06c-0.72-0.05-1.36-0.07-1.92-0.07s-1.22,0.01-1.97,0.02
					c0.14,0.11,0.28,0.22,0.4,0.34c0.12,0.11,0.21,0.19,0.28,0.24c0.05,0.13,0.06,0.29,0.02,0.48c-0.03,0.19-0.1,0.48-0.19,0.86
					C639.29,102.5,639.19,102.79,639.07,103.1z M648.69,105.95l0.96-0.05c0.24,0,0.45-0.02,0.62-0.05c0.18-0.03,0.45-0.1,0.82-0.22
					c0.14-0.05,0.27-0.09,0.38-0.12s0.22-0.06,0.31-0.07c0.1-0.02,0.19-0.01,0.28,0.01c0.09,0.02,0.2,0.07,0.32,0.13l0.86,0.5
					c0.11,0.08,0.18,0.18,0.19,0.29c0.02,0.11-0.02,0.22-0.1,0.34l-0.12,0.17c-0.1,0.13-0.21,0.21-0.35,0.25
					c-0.14,0.04-0.28,0.04-0.42-0.01c-0.11-0.02-0.26-0.03-0.43-0.04c-0.18-0.01-0.3-0.01-0.36-0.01h-2.98v7.42
					c0,0.24-0.04,0.48-0.13,0.73s-0.19,0.48-0.3,0.71c-0.11,0.22-0.22,0.42-0.32,0.59s-0.18,0.28-0.23,0.35
					c-0.08,0.1-0.18,0.13-0.31,0.11c-0.13-0.02-0.19-0.08-0.19-0.18V96.4c0-0.3-0.07-0.55-0.22-0.74c-0.14-0.19-0.33-0.38-0.55-0.58
					c-0.18-0.13-0.2-0.31-0.06-0.55c0.14-0.24,0.31-0.31,0.52-0.22l1.03,0.48c0.37,0.18,0.59,0.33,0.66,0.47
					c0.07,0.14,0.11,0.35,0.11,0.64V105.95z"/>
				<path d="M655.71,99.92c0.25-0.57,0.59-1.06,1.02-1.48c0.43-0.4,0.94-0.71,1.54-0.94c0.59-0.22,1.24-0.34,1.94-0.34
					c0.69,0,1.33,0.12,1.92,0.35c0.59,0.23,1.1,0.56,1.54,0.97c0.42,0.42,0.75,0.91,1,1.48c0.25,0.57,0.37,1.19,0.37,1.86
					c0,0.7-0.12,1.34-0.37,1.92s-0.58,1.06-1,1.46c-0.43,0.42-0.94,0.73-1.54,0.95c-0.59,0.22-1.23,0.32-1.92,0.32
					c-0.7,0-1.35-0.11-1.94-0.32c-0.59-0.22-1.1-0.53-1.54-0.95c-0.43-0.4-0.77-0.89-1.02-1.46s-0.37-1.22-0.37-1.92
					S655.46,100.49,655.71,99.92z M658.72,98.74c-0.42,0.2-0.76,0.46-1.03,0.78s-0.48,0.68-0.61,1.08c-0.14,0.4-0.2,0.81-0.2,1.22
					c0,0.43,0.07,0.85,0.2,1.25c0.14,0.4,0.34,0.76,0.61,1.08s0.62,0.58,1.03,0.77c0.42,0.19,0.91,0.29,1.49,0.29
					c1.12,0,1.95-0.34,2.48-1.02c0.54-0.68,0.8-1.47,0.8-2.36c0-0.42-0.06-0.82-0.18-1.22c-0.12-0.4-0.32-0.76-0.59-1.08
					c-0.26-0.32-0.59-0.58-1.01-0.78c-0.42-0.2-0.92-0.3-1.51-0.3C659.63,98.44,659.13,98.54,658.72,98.74z M661.96,116.61
					c-0.19,0-0.39-0.01-0.6-0.02c-0.21-0.02-0.4-0.07-0.58-0.17c-0.18-0.1-0.32-0.24-0.43-0.42s-0.17-0.44-0.17-0.78v-3.6
					c0-0.34-0.02-0.6-0.07-0.78c-0.05-0.18-0.19-0.33-0.43-0.44c-0.19-0.06-0.33-0.13-0.42-0.2c-0.09-0.07-0.13-0.2-0.13-0.4v-0.62
					l1.49,0.17c0.26,0.05,0.46,0.12,0.6,0.22c0.14,0.1,0.25,0.22,0.31,0.36c0.06,0.14,0.1,0.31,0.12,0.5
					c0.02,0.19,0.02,0.39,0.02,0.6v3.58c0,0.25,0.02,0.44,0.07,0.56s0.22,0.18,0.5,0.18h3.79c0.98,0,1.79-0.04,2.44-0.11
					s1.12-0.15,1.4-0.23c0.18-0.05,0.32-0.08,0.44-0.08s0.26,0.02,0.42,0.08l0.94,0.38c0.24,0.1,0.39,0.18,0.46,0.26
					c0.06,0.08,0.07,0.23,0.02,0.46c-0.06,0.24-0.14,0.38-0.23,0.43s-0.24,0.07-0.47,0.07H661.96z M671.44,109
					c0,0.24-0.04,0.48-0.13,0.73s-0.19,0.48-0.3,0.71c-0.11,0.22-0.22,0.42-0.32,0.59s-0.18,0.28-0.23,0.35
					c-0.08,0.1-0.18,0.14-0.31,0.12c-0.13-0.02-0.19-0.09-0.19-0.22V96.4c0-0.3-0.07-0.55-0.22-0.74c-0.14-0.19-0.33-0.38-0.55-0.58
					c-0.18-0.13-0.2-0.31-0.06-0.55s0.31-0.31,0.52-0.22l1.03,0.48c0.37,0.18,0.59,0.33,0.66,0.47c0.07,0.14,0.11,0.35,0.11,0.64
					V109z"/>
			</g>
		</g>
		<line class="st0" x1="510.61" y1="112.98" x2="530.61" y2="112.98"/>
	</g>
	<line class="st0" x1="174.09" y1="35" x2="148.26" y2="60.82"/>
	<g>
		<path d="M21.63,26.61l-2,2.41c-0.94-0.39-1.83-0.58-2.69-0.58c-1.54,0-2.75,0.65-3.63,1.95s-1.33,3.08-1.33,5.34
			c0,1.59,0.32,2.88,0.96,3.85s1.47,1.46,2.5,1.46c1.75,0,3.12-1.14,4.11-3.43c0.26,0.28,0.39,0.54,0.39,0.79
			c0,0.97-0.76,2.05-2.28,3.24s-2.91,1.78-4.17,1.78c-1.22,0-2.22-0.49-3-1.47s-1.17-2.25-1.17-3.81c0-3.04,1.03-5.79,3.09-8.28
			s4.35-3.73,6.87-3.73C20.21,26.15,20.99,26.3,21.63,26.61z"/>
		<path d="M27.75,33.27c1.37-2.06,2.88-3.76,4.53-5.11s3.06-2.01,4.23-2.01c1.14,0,1.71,0.79,1.71,2.37c0,0.47-0.07,1.19-0.2,2.16
			l-0.94,6.55c-0.19,1.31-0.29,2.35-0.29,3.11c0,0.61,0.16,0.91,0.49,0.91c0.81,0,1.8-1.07,2.98-3.22c0.29,0.18,0.44,0.36,0.44,0.54
			c0,0.76-0.65,1.76-1.96,3s-2.37,1.85-3.19,1.85c-0.92,0-1.37-0.66-1.37-1.97c0-0.96,0.12-2.29,0.37-3.99l0.61-4.25
			c0.2-1.39,0.3-2.5,0.3-3.32c0-0.9-0.32-1.35-0.97-1.35c-1.5,0-3.01,1.02-4.54,3.05c-1.53,2.03-2.43,4.22-2.7,6.55l-0.47,4.22
			l-2.63,1.07l0.05-0.49l0.14-1.3l0.14-1.23L26.17,25c0.41-3.63,1.76-6.74,4.04-9.31c2.28-2.57,4.84-3.86,7.66-3.86
			c0.59,0,1.15,0.06,1.7,0.19L37,14.55c-0.67-0.2-1.3-0.3-1.9-0.3c-3.48,0-5.52,2.72-6.13,8.16L27.75,33.27z"/>
		<path d="M53.24,35.99c-1.32,2.18-2.78,3.96-4.36,5.35s-2.96,2.08-4.13,2.08c-1.6,0-2.41-1.29-2.41-3.88
			c0-3.56,1.17-6.65,3.51-9.25s5.11-3.91,8.31-3.91c1.22,0,2.26,0.15,3.11,0.46c-0.06,0.21-0.09,0.34-0.11,0.39l-0.21,0.93
			c-0.14,0.64-0.22,1.02-0.23,1.12l-1.13,7.76l-0.16,1.12c-0.15,1.11-0.23,1.86-0.23,2.23c0,0.5,0.15,0.75,0.44,0.75
			c0.98,0,1.98-1.1,3.01-3.29c0.31,0.19,0.47,0.38,0.47,0.56c0,0.41-0.5,1.24-1.51,2.48c-1.37,1.69-2.64,2.53-3.81,2.53
			c-0.86,0-1.28-0.57-1.28-1.72c0-0.35,0.04-0.84,0.12-1.46l0.18-1.41l0.23-1.55L53.24,35.99z M54.24,29.03
			c-1.07-0.6-2.15-0.9-3.24-0.9c-1.64,0-3.02,1-4.13,3c-1.11,2-1.67,4.48-1.67,7.44c0,1.52,0.45,2.28,1.35,2.28
			c1.04,0,2.3-0.8,3.78-2.39c1.99-2.14,3.2-4.66,3.62-7.55L54.24,29.03z"/>
		<path d="M64.71,43.2l-0.16,1.39c-0.36,3.62-1.68,6.72-3.94,9.29c-2.26,2.57-4.8,3.86-7.63,3.86c-0.59,0-1.15-0.07-1.69-0.21
			L53.85,55c0.67,0.2,1.3,0.3,1.9,0.3c3.49,0,5.5-2.71,6.04-8.14l1.83-18.23c-0.55,0.41-1.14,0.88-1.77,1.42
			c-0.77,0.66-1.45,1.17-2.03,1.55l0.14-1.41c1.98-1.17,4.15-2.85,6.51-5.03l-0.81,8.15c1.24-2.18,2.64-3.97,4.19-5.37
			c1.55-1.4,2.91-2.09,4.08-2.09c1.69,0,2.54,1.44,2.54,4.33c0,3.44-1.11,6.42-3.32,8.95c-2.21,2.53-4.82,3.79-7.83,3.79L64.71,43.2
			z M64.95,40.56c0.95,0.6,2.02,0.9,3.22,0.9c1.61,0,2.91-0.94,3.92-2.81c1-1.87,1.5-4.3,1.5-7.29c0-1.74-0.48-2.62-1.43-2.62
			c-1.04,0-2.28,0.8-3.71,2.39c-1.91,2.12-3.02,4.63-3.31,7.53L64.95,40.56z"/>
		<path d="M84.21,28.65l-0.85,7.77c-0.15,1.39-0.23,2.43-0.23,3.09c0,1.32,0.45,1.99,1.35,1.99c0.97,0,1.97-0.8,3.01-2.39
			c0.18,0.22,0.26,0.42,0.26,0.6c0,0.66-0.58,1.44-1.73,2.36s-2.15,1.37-2.98,1.37c-1.66,0-2.5-1.07-2.5-3.2
			c0-0.79,0.1-2.06,0.3-3.81l0.84-7.77H78l2.05-2.04h1.87l0.37-3.2l2.59-0.86l-0.43,4.06h7.45l-2.06,2.04H84.21z"/>
		<path d="M102.14,37.38c0.29,0.2,0.44,0.43,0.44,0.7c0,0.36-0.38,0.98-1.13,1.86c-2,2.32-3.98,3.48-5.94,3.48
			c-1.2,0-2.18-0.47-2.95-1.42s-1.16-2.16-1.16-3.64c0-2.67,1.01-5.38,3.03-8.11s4.02-4.1,6-4.1c1.43,0,2.14,0.77,2.14,2.3
			c0,1.72-0.83,3.4-2.5,5.04s-3.71,2.78-6.11,3.43c0.23,2.81,1.35,4.22,3.34,4.22C99.27,41.14,100.89,39.89,102.14,37.38z
			 M94.04,34.78c0.34,0.12,0.65,0.18,0.93,0.18c1.45,0,2.72-0.45,3.81-1.34s1.63-1.93,1.63-3.13c0-1.37-0.7-2.06-2.09-2.06
			c-1.01,0-1.92,0.6-2.73,1.8S94.26,32.95,94.04,34.78z"/>
		<path d="M110.58,33.55c2.6-4.93,5.16-7.4,7.68-7.4c0.66,0,1.31,0.15,1.97,0.46l-2.48,2.71c-0.38-0.21-0.85-0.32-1.44-0.32
			c-1.22,0-2.5,0.99-3.86,2.96s-2.15,4.03-2.38,6.16l-0.48,4.29l-2.61,0.88l0.05-0.53l0.12-1.14l0.14-1.14l0.92-8.37l0.11-0.91
			c0.08-0.69,0.12-1.25,0.12-1.69c0-0.71-0.2-1.07-0.6-1.07c-0.94,0-1.87,1-2.8,3.01c-0.29-0.22-0.43-0.45-0.42-0.69
			c0.04-0.71,0.69-1.66,1.96-2.84s2.28-1.77,3.02-1.77c1,0,1.5,0.66,1.5,1.97c0,0.32-0.03,0.74-0.09,1.28l-0.12,1.23l-0.16,1.48
			L110.58,33.55z"/>
		<path d="M121.61,43.71c-0.51-1.11-1.2-1.95-2.05-2.5l2.59-2.48c0.76,0.57,1.44,1.4,2.03,2.48L121.61,43.71z"/>
		<path d="M143.98,34.96c3.89,0.63,5.84,2.42,5.84,5.36c0,2.09-1.03,3.96-3.09,5.62s-4.38,2.49-6.96,2.49
			c-1.43,0-2.82-0.22-4.17-0.65l2.07-2.23c1.68,0.71,3.22,1.07,4.64,1.07c1.54,0,2.81-0.44,3.81-1.31s1.51-1.98,1.51-3.31
			c0-1.59-0.72-2.87-2.15-3.81s-3.37-1.42-5.79-1.42c-0.38,0-0.79,0.05-1.23,0.14l2.09-2.06h0.58c0.19,0,0.47,0.01,0.86,0.02
			c3.73-0.93,5.59-2.68,5.59-5.27c0-0.98-0.34-1.79-1.01-2.41s-1.54-0.93-2.61-0.93c-1.69,0-3.09,0.56-4.2,1.69
			c-0.12-0.22-0.18-0.39-0.18-0.49c0-0.55,0.67-1.13,2-1.73s2.61-0.91,3.81-0.91c1.48,0,2.69,0.36,3.63,1.09s1.42,1.66,1.42,2.79
			C150.44,31,148.29,33.09,143.98,34.96z"/>
	</g>
</g>
</svg>
