<?xml version="1.0" encoding="utf-8"?>
<!-- Generator: Adobe Illustrator 23.0.0, SVG Export Plug-In . SVG Version: 6.00 Build 0)  -->
<svg version="1.1" id="Layer_1" xmlns="http://www.w3.org/2000/svg" xmlns:xlink="http://www.w3.org/1999/xlink" x="0px" y="0px"
	 viewBox="0 0 781 132" style="enable-background:new 0 0 781 132;" xml:space="preserve">
<style type="text/css">
	.st0{fill:none;stroke:#000000;stroke-miterlimit:10;}
</style>
<g>
	<g>
		<path d="M193.83,65.94c1.73,2.16,2.59,5.16,2.59,9v5.47c0,4.03-0.95,7.03-2.84,9c-1.9,1.97-4.84,2.95-8.82,2.95h-6.26v20.74h-3.31
			V62.7h10.44C189.36,62.7,192.1,63.78,193.83,65.94z M191.13,87.29c1.32-1.37,1.98-3.59,1.98-6.66v-5.9c0-2.93-0.58-5.16-1.73-6.7
			c-1.15-1.54-3.07-2.3-5.76-2.3h-7.13v23.62h6.26C187.68,89.34,189.81,88.66,191.13,87.29z"/>
		<path d="M222.7,74.08v4.39c0,2.98-0.59,5.32-1.76,7.02c-1.18,1.71-3.01,2.84-5.51,3.42c4.85,1.06,7.27,4.49,7.27,10.3v7.85
			c0,2.78,0.41,4.8,1.22,6.05h-3.46c-0.43-0.72-0.72-1.55-0.86-2.48c-0.14-0.94-0.22-2.12-0.22-3.56v-7.92
			c0-3.17-0.79-5.39-2.38-6.66c-1.58-1.27-3.94-1.91-7.06-1.91h-5.26v22.54h-3.31V62.7h10.51C219.1,62.7,222.7,66.49,222.7,74.08z
			 M217.08,85.74c1.54-1.2,2.3-3.41,2.3-6.62v-4.75c0-2.83-0.6-4.98-1.8-6.44c-1.2-1.46-3.12-2.2-5.76-2.2h-7.13v21.82h5.33
			C213.19,87.54,215.54,86.94,217.08,85.74z"/>
		<path d="M231.73,65.76c1.85-2.33,4.6-3.49,8.24-3.49c3.74,0,6.54,1.15,8.39,3.46c1.85,2.3,2.77,5.4,2.77,9.29v25.78
			c0,3.89-0.92,6.98-2.77,9.29c-1.85,2.3-4.64,3.46-8.39,3.46c-3.65,0-6.4-1.16-8.24-3.49c-1.85-2.33-2.77-5.41-2.77-9.25V75.01
			C228.96,71.17,229.88,68.09,231.73,65.76z M234.15,107.95c1.25,1.71,3.19,2.56,5.83,2.56c2.69,0,4.67-0.85,5.94-2.56
			c1.27-1.7,1.91-4.02,1.91-6.95V74.8c0-2.93-0.64-5.24-1.91-6.95c-1.27-1.7-3.25-2.56-5.94-2.56c-2.64,0-4.58,0.85-5.83,2.56
			c-1.25,1.7-1.87,4.02-1.87,6.95v26.21C232.27,103.93,232.9,106.25,234.15,107.95z"/>
		<path d="M276.08,66.05c1.85,2.23,2.77,5.29,2.77,9.18v25.34c0,3.89-0.92,6.95-2.77,9.18c-1.85,2.23-4.64,3.35-8.39,3.35h-11.09
			V62.7h11.09C271.44,62.7,274.24,63.82,276.08,66.05z M273.6,107.59c1.3-1.66,1.94-3.95,1.94-6.88V75.09
			c0-2.88-0.65-5.16-1.94-6.84c-1.3-1.68-3.29-2.52-5.98-2.52h-7.7v44.35h7.7C270.31,110.08,272.3,109.25,273.6,107.59z"/>
		<path d="M289.3,107.92c1.2,1.73,3.12,2.59,5.76,2.59c2.64,0,4.56-0.86,5.76-2.59c1.2-1.73,1.8-4.06,1.8-6.98V62.7h3.1v38.09
			c0,3.84-0.88,6.92-2.63,9.25c-1.75,2.33-4.45,3.49-8.1,3.49c-3.65,0-6.36-1.16-8.14-3.49c-1.78-2.33-2.66-5.41-2.66-9.25V62.7
			h3.31v38.23C287.5,103.86,288.1,106.19,289.3,107.92z"/>
		<path d="M330.26,65.76c1.77,2.33,2.66,5.41,2.66,9.25v4.18h-3.17V74.8c0-2.88-0.61-5.18-1.84-6.91c-1.22-1.73-3.16-2.59-5.8-2.59
			c-2.64,0-4.57,0.86-5.8,2.59c-1.22,1.73-1.84,4.03-1.84,6.91v26.21c0,2.88,0.61,5.17,1.84,6.88c1.22,1.7,3.16,2.56,5.8,2.56
			c2.64,0,4.57-0.85,5.8-2.56c1.22-1.7,1.84-4,1.84-6.88v-5.98h3.17v5.76c0,3.84-0.89,6.92-2.66,9.25
			c-1.78,2.33-4.51,3.49-8.21,3.49c-3.7,0-6.43-1.16-8.21-3.49c-1.78-2.33-2.66-5.41-2.66-9.25V75.01c0-3.84,0.89-6.92,2.66-9.25
			c1.77-2.33,4.51-3.49,8.21-3.49C325.75,62.27,328.49,63.43,330.26,65.76z"/>
		<path d="M355.39,89.05h-13.75v21.02h16.56v3.02h-19.87V62.7h19.87v3.02h-16.56v20.3h13.75V89.05z"/>
		<path d="M378.07,113.1h-3.31V62.7h3.31V113.1z"/>
		<path d="M397.44,113.03l-10.66-44.57v44.64h-2.95V62.7h4.75l10.58,44.57l10.51-44.57h4.75v50.4h-3.17V68.32l-10.51,44.71H397.44z"
			/>
		<path d="M423.5,113.1h-3.31V62.7h3.31V113.1z"/>
		<path d="M437.76,65.73h-10.22V62.7h23.83v3.02h-10.3v47.38h-3.31V65.73z"/>
		<path d="M457.77,113.1h-3.02l11.02-50.47h4.82l11.23,50.47h-3.31l-2.52-11.16h-15.7L457.77,113.1z M475.48,99.06l-7.42-32.62
			l-7.27,32.62H475.48z"/>
		<path d="M495.36,65.73h-10.22V62.7h23.83v3.02h-10.3v47.38h-3.31V65.73z"/>
		<path d="M516.38,113.1h-3.31V62.7h3.31V113.1z"/>
		<path d="M524.7,65.76c1.85-2.33,4.6-3.49,8.24-3.49c3.74,0,6.54,1.15,8.39,3.46c1.85,2.3,2.77,5.4,2.77,9.29v25.78
			c0,3.89-0.92,6.98-2.77,9.29c-1.85,2.3-4.64,3.46-8.39,3.46c-3.65,0-6.4-1.16-8.24-3.49c-1.85-2.33-2.77-5.41-2.77-9.25V75.01
			C521.92,71.17,522.85,68.09,524.7,65.76z M527.11,107.95c1.25,1.71,3.19,2.56,5.83,2.56c2.69,0,4.67-0.85,5.94-2.56
			c1.27-1.7,1.91-4.02,1.91-6.95V74.8c0-2.93-0.64-5.24-1.91-6.95c-1.27-1.7-3.25-2.56-5.94-2.56c-2.64,0-4.58,0.85-5.83,2.56
			c-1.25,1.7-1.87,4.02-1.87,6.95v26.21C525.24,103.93,525.86,106.25,527.11,107.95z"/>
		<path d="M549.57,113.1V62.7h4.32l15.12,42.55V62.7h3.02v50.4h-3.67l-15.77-44.93v44.93H549.57z"/>
	</g>
</g>
<g>
	<g>
		<path d="M618.36,113.94l-2.71,0.1c-0.14,0.02-0.31,0.03-0.49,0.04c-0.18,0.01-0.37,0.01-0.56,0.01c-0.18,0-0.35-0.01-0.52-0.02
			s-0.3-0.05-0.4-0.1c-0.1-0.02-0.17-0.09-0.23-0.23s-0.06-0.3-0.01-0.49l0.17-0.82c0.3,0.08,0.7,0.14,1.18,0.18
			s0.96,0.08,1.44,0.11c0.48,0.02,0.92,0.03,1.32,0.04c0.4,0.01,0.67,0.01,0.82,0.01c0.9,0.02,1.76,0.02,2.59,0.01
			c0.83-0.01,1.63-0.03,2.4-0.06v-2.35c0-0.3-0.02-0.53-0.07-0.67c-0.05-0.14-0.19-0.26-0.43-0.34c-0.13-0.03-0.24-0.1-0.34-0.19
			c-0.1-0.1-0.13-0.24-0.1-0.43l0.05-0.46l1.51,0.14c0.38,0.05,0.62,0.18,0.71,0.38s0.13,0.38,0.13,0.53v3.34c0.3,0,0.6,0,0.9-0.01
			c0.3-0.01,0.59-0.02,0.88-0.04c0.29-0.02,0.57-0.03,0.84-0.04s0.54-0.02,0.79-0.04c0.24,0,0.54-0.01,0.9-0.04
			c0.36-0.02,0.72-0.04,1.09-0.06c0.35-0.03,0.67-0.06,0.96-0.07s0.48-0.03,0.58-0.05c0.5-0.05,0.9-0.08,1.21-0.08
			c0.31-0.01,0.54,0.04,0.68,0.16l0.79,0.72c0.11,0.11,0.18,0.21,0.19,0.3c0.02,0.09,0.01,0.16-0.02,0.23
			c-0.05,0.1-0.11,0.19-0.19,0.28c-0.08,0.09-0.17,0.12-0.26,0.08l-1.51-0.24c-0.3-0.02-0.67-0.03-1.09-0.05
			c-0.42-0.02-0.87-0.02-1.33-0.02c-0.45,0-0.89,0-1.33,0c-0.44,0-0.81,0-1.12,0L618.36,113.94z M629.8,106.38
			c0,0.29-0.05,0.52-0.16,0.71c-0.1,0.18-0.34,0.28-0.71,0.28l-9.38,0.05c0,0.19-0.01,0.35-0.04,0.47s-0.08,0.23-0.18,0.32
			c-0.08,0.1-0.21,0.15-0.4,0.17c-0.18,0.02-0.35,0-0.49-0.05c-0.06,0-0.13-0.03-0.2-0.1c-0.07-0.06-0.11-0.16-0.11-0.29l-0.05-0.74
			l-0.43-7.97l-0.43-0.84c-0.08-0.14-0.08-0.26,0.01-0.36c0.09-0.1,0.2-0.19,0.35-0.29c0.18-0.1,0.32-0.15,0.43-0.16
			c0.11-0.01,0.21,0.02,0.29,0.08l0.6,0.7l10.06-0.07c0.11,0,0.24,0.01,0.37,0.04c0.14,0.02,0.24,0.06,0.3,0.11
			c0.05,0.05,0.09,0.12,0.12,0.22c0.03,0.1,0.05,0.22,0.05,0.38V106.38z M628.32,100.05c0-0.19-0.02-0.32-0.07-0.37
			c-0.05-0.06-0.18-0.08-0.41-0.08l-8.11,0.05c-0.26,0-0.4,0.04-0.44,0.11c-0.04,0.07-0.05,0.22-0.04,0.44l0.24,5.93l8.33-0.07
			c0.24,0,0.38-0.04,0.43-0.13c0.05-0.09,0.07-0.24,0.07-0.47V100.05z"/>
		<path d="M642.5,100.81c-0.08,0.22-0.17,0.44-0.26,0.65l2.62,2.45c0.11,0.11,0.22,0.2,0.32,0.28c0.1,0.07,0.21,0.14,0.32,0.2
			c0.1,0.08,0.2,0.15,0.32,0.22c0.12,0.06,0.25,0.13,0.4,0.19c0.21,0.13,0.38,0.26,0.5,0.4c0.13,0.14,0.25,0.35,0.36,0.64l0.24,0.72
			c0.06,0.19,0.08,0.34,0.04,0.46c-0.04,0.11-0.11,0.19-0.2,0.24c-0.16,0.1-0.29,0.14-0.4,0.13c-0.1-0.01-0.22-0.08-0.35-0.23
			l-4.68-4.75c-0.54,0.93-1.24,1.81-2.08,2.64c-0.84,0.83-1.78,1.58-2.82,2.26c-0.06,0.05-0.14,0.09-0.22,0.13s-0.17,0.08-0.26,0.11
			c-0.08,0.03-0.17,0.05-0.26,0.06c-0.1,0.01-0.18-0.01-0.24-0.06c-0.16-0.1-0.24-0.24-0.25-0.43c-0.01-0.19,0.07-0.34,0.23-0.46
			c0.93-0.62,1.72-1.26,2.39-1.92c0.66-0.66,1.21-1.3,1.64-1.94c0.43-0.62,0.76-1.22,1-1.8c0.23-0.58,0.37-1.1,0.42-1.56
			c0-0.1-0.01-0.2-0.04-0.3c-0.02-0.1-0.06-0.19-0.11-0.25c-0.03-0.02-0.06-0.04-0.1-0.07c-0.03-0.03-0.07-0.06-0.12-0.1
			c-0.03-0.03-0.07-0.06-0.11-0.1s-0.08-0.06-0.11-0.1c-0.22,0.03-0.44,0.06-0.65,0.07c-0.21,0.02-0.42,0.03-0.62,0.05
			c-0.21,0.02-0.42,0.03-0.65,0.05c-0.22,0.02-0.46,0.02-0.72,0.02c-0.38,0.03-0.7,0.04-0.95,0.01c-0.25-0.02-0.44-0.08-0.59-0.18
			c-0.1-0.06-0.15-0.14-0.17-0.22c-0.02-0.08-0.01-0.19,0.02-0.34l0.1-0.89c0.56,0.1,1.08,0.16,1.57,0.2c0.49,0.04,1,0.06,1.52,0.06
			c0.27,0.02,0.51,0.02,0.72,0.02s0.41-0.01,0.6-0.02c0.19,0,0.38-0.01,0.58-0.02c0.19-0.02,0.42-0.03,0.7-0.05
			c0.24,0,0.51-0.01,0.8-0.04c0.3-0.02,0.57-0.05,0.83-0.08c0.27-0.02,0.51-0.04,0.71-0.06c0.2-0.02,0.35-0.04,0.44-0.06
			c0.53-0.08,0.88-0.11,1.04-0.08c0.17,0.02,0.34,0.08,0.52,0.18l0.62,0.36c0.22,0.14,0.34,0.27,0.35,0.37
			c0.01,0.1-0.04,0.26-0.16,0.47c-0.1,0.18-0.18,0.29-0.25,0.35c-0.07,0.06-0.18,0.06-0.32,0.01c-0.08-0.02-0.17-0.04-0.26-0.06
			c-0.1-0.02-0.2-0.04-0.31-0.06c-0.11-0.03-0.23-0.06-0.36-0.08c-0.13-0.02-0.25-0.04-0.36-0.06c-0.34-0.02-0.63-0.03-0.88-0.04
			c-0.25-0.01-0.49-0.01-0.73-0.01c-0.22,0-0.46,0-0.7,0.01c-0.24,0.01-0.51,0.01-0.82,0.01c0.1,0.1,0.18,0.18,0.26,0.25
			c0.08,0.07,0.14,0.13,0.19,0.18c0.06,0.13,0.1,0.28,0.1,0.44c0,0.17-0.05,0.44-0.14,0.83
			C642.66,100.36,642.58,100.59,642.5,100.81z M651.57,115.05c0,0.3-0.08,0.62-0.25,0.96s-0.3,0.58-0.4,0.72l-0.34,0.55
			c-0.06,0.1-0.16,0.14-0.3,0.12c-0.14-0.02-0.2-0.08-0.2-0.19v-6.22l-2.83,0.07c-0.06,0-0.22,0-0.47,0.01
			c-0.25,0.01-0.52,0.02-0.83,0.04c-0.32,0.02-0.62,0.03-0.91,0.04c-0.29,0.01-0.49,0.01-0.6,0.01l-2.54,0.12
			c-0.19,0.02-0.39,0.03-0.59,0.04c-0.2,0.01-0.4,0.01-0.59,0.01c-0.08,0-0.17,0-0.26,0.01c-0.1,0.01-0.2,0.01-0.31,0.01
			c-0.1-0.02-0.2-0.04-0.31-0.06c-0.11-0.02-0.22-0.07-0.31-0.13c-0.1-0.05-0.15-0.13-0.17-0.25c-0.02-0.12-0.02-0.25,0-0.4
			l0.07-0.79c0.3,0.06,0.64,0.11,1.01,0.14c0.37,0.03,0.76,0.06,1.18,0.07c0.42,0,0.85,0,1.31,0c0.46,0,0.92,0,1.38,0
			c0.74,0,1.38,0,1.92-0.01s0.9-0.02,1.06-0.04l3.7-0.14c0.1,0,0.18,0.01,0.25,0.04c0.07,0.02,0.13,0.06,0.18,0.11
			s0.09,0.11,0.12,0.18c0.03,0.07,0.05,0.13,0.05,0.18V115.05z M651.72,102.4l0.96-0.05c0.24,0,0.45-0.02,0.62-0.05
			c0.18-0.03,0.45-0.1,0.82-0.22c0.14-0.05,0.27-0.09,0.38-0.12s0.22-0.06,0.31-0.07c0.1-0.02,0.19-0.01,0.28,0.01
			c0.09,0.02,0.2,0.07,0.32,0.13l0.86,0.5c0.11,0.08,0.18,0.18,0.19,0.29c0.02,0.11-0.02,0.22-0.1,0.34l-0.12,0.17
			c-0.1,0.13-0.21,0.21-0.35,0.25c-0.14,0.04-0.28,0.04-0.42-0.01c-0.11-0.02-0.26-0.03-0.43-0.04c-0.18-0.01-0.3-0.01-0.36-0.01
			h-2.98v2.64c0,0.24-0.04,0.48-0.13,0.73s-0.19,0.48-0.3,0.71c-0.11,0.22-0.22,0.42-0.32,0.59c-0.1,0.17-0.18,0.28-0.23,0.35
			c-0.08,0.1-0.18,0.13-0.31,0.11c-0.13-0.02-0.19-0.08-0.19-0.18V96.52c0-0.3-0.08-0.55-0.23-0.74c-0.15-0.19-0.34-0.38-0.56-0.58
			c-0.16-0.13-0.18-0.31-0.05-0.55c0.13-0.24,0.3-0.31,0.5-0.22l1.06,0.48c0.35,0.18,0.57,0.33,0.65,0.47s0.12,0.35,0.12,0.64V102.4
			z"/>
	</g>
</g>
<line class="st0" x1="584.27" y1="113.1" x2="604.27" y2="113.1"/>
<line class="st0" x1="173.09" y1="35.39" x2="147.26" y2="61.21"/>
<g>
	<path d="M20.63,26.61l-2,2.41c-0.94-0.39-1.83-0.58-2.69-0.58c-1.54,0-2.75,0.65-3.63,1.95s-1.33,3.08-1.33,5.34
		c0,1.59,0.32,2.88,0.96,3.85s1.47,1.46,2.5,1.46c1.75,0,3.12-1.14,4.11-3.43c0.26,0.28,0.39,0.54,0.39,0.79
		c0,0.97-0.76,2.05-2.28,3.24s-2.91,1.78-4.17,1.78c-1.22,0-2.22-0.49-3-1.47s-1.17-2.25-1.17-3.81c0-3.04,1.03-5.79,3.09-8.28
		s4.35-3.73,6.87-3.73C19.21,26.15,19.99,26.3,20.63,26.61z"/>
	<path d="M26.75,33.27c1.37-2.06,2.88-3.76,4.53-5.11s3.06-2.01,4.23-2.01c1.14,0,1.71,0.79,1.71,2.37c0,0.47-0.07,1.19-0.2,2.16
		l-0.94,6.55c-0.19,1.31-0.29,2.35-0.29,3.11c0,0.61,0.16,0.91,0.49,0.91c0.81,0,1.8-1.07,2.98-3.22c0.29,0.18,0.44,0.36,0.44,0.54
		c0,0.76-0.65,1.76-1.96,3s-2.37,1.85-3.19,1.85c-0.92,0-1.37-0.66-1.37-1.97c0-0.96,0.12-2.29,0.37-3.99l0.61-4.25
		c0.2-1.39,0.3-2.5,0.3-3.32c0-0.9-0.32-1.35-0.97-1.35c-1.5,0-3.01,1.02-4.54,3.05c-1.53,2.03-2.43,4.22-2.7,6.55l-0.47,4.22
		l-2.63,1.07l0.05-0.49l0.14-1.3l0.14-1.23L25.17,25c0.41-3.63,1.76-6.74,4.04-9.31c2.28-2.57,4.84-3.86,7.66-3.86
		c0.59,0,1.15,0.06,1.7,0.19L36,14.55c-0.67-0.2-1.3-0.3-1.9-0.3c-3.48,0-5.52,2.72-6.13,8.16L26.75,33.27z"/>
	<path d="M52.24,35.99c-1.32,2.18-2.78,3.96-4.36,5.35s-2.96,2.08-4.13,2.08c-1.6,0-2.41-1.29-2.41-3.88c0-3.56,1.17-6.65,3.51-9.25
		s5.11-3.91,8.31-3.91c1.22,0,2.26,0.15,3.11,0.46c-0.06,0.21-0.09,0.34-0.11,0.39l-0.21,0.93c-0.14,0.64-0.22,1.02-0.23,1.12
		l-1.13,7.76l-0.16,1.12c-0.15,1.11-0.23,1.86-0.23,2.23c0,0.5,0.15,0.75,0.44,0.75c0.98,0,1.98-1.1,3.01-3.29
		c0.31,0.19,0.47,0.38,0.47,0.56c0,0.41-0.5,1.24-1.51,2.48c-1.37,1.69-2.64,2.53-3.81,2.53c-0.86,0-1.28-0.57-1.28-1.72
		c0-0.35,0.04-0.84,0.12-1.46l0.18-1.41l0.23-1.55L52.24,35.99z M53.24,29.03c-1.07-0.6-2.15-0.9-3.24-0.9c-1.64,0-3.02,1-4.13,3
		c-1.11,2-1.67,4.48-1.67,7.44c0,1.52,0.45,2.28,1.35,2.28c1.04,0,2.3-0.8,3.78-2.39c1.99-2.14,3.2-4.66,3.62-7.55L53.24,29.03z"/>
	<path d="M63.71,43.2l-0.16,1.39c-0.36,3.62-1.68,6.72-3.94,9.29c-2.26,2.57-4.8,3.86-7.63,3.86c-0.59,0-1.15-0.07-1.69-0.21
		L52.85,55c0.67,0.2,1.3,0.3,1.9,0.3c3.49,0,5.5-2.71,6.04-8.14l1.83-18.23c-0.55,0.41-1.14,0.88-1.77,1.42
		c-0.77,0.66-1.45,1.17-2.03,1.55l0.14-1.41c1.98-1.17,4.15-2.85,6.51-5.03l-0.81,8.15c1.24-2.18,2.64-3.97,4.19-5.37
		c1.55-1.4,2.91-2.09,4.08-2.09c1.69,0,2.54,1.44,2.54,4.33c0,3.44-1.11,6.42-3.32,8.95c-2.21,2.53-4.82,3.79-7.83,3.79L63.71,43.2z
		 M63.95,40.56c0.95,0.6,2.02,0.9,3.22,0.9c1.61,0,2.91-0.94,3.92-2.81c1-1.87,1.5-4.3,1.5-7.29c0-1.74-0.48-2.62-1.43-2.62
		c-1.04,0-2.28,0.8-3.71,2.39c-1.91,2.12-3.02,4.63-3.31,7.53L63.95,40.56z"/>
	<path d="M83.21,28.65l-0.85,7.77c-0.15,1.39-0.23,2.43-0.23,3.09c0,1.32,0.45,1.99,1.35,1.99c0.97,0,1.97-0.8,3.01-2.39
		c0.18,0.22,0.26,0.42,0.26,0.6c0,0.66-0.58,1.44-1.73,2.36s-2.15,1.37-2.98,1.37c-1.66,0-2.5-1.07-2.5-3.2
		c0-0.79,0.1-2.06,0.3-3.81l0.84-7.77H77l2.05-2.04h1.87l0.37-3.2l2.59-0.86l-0.43,4.06h7.45l-2.06,2.04H83.21z"/>
	<path d="M101.14,37.38c0.29,0.2,0.44,0.43,0.44,0.7c0,0.36-0.38,0.98-1.13,1.86c-2,2.32-3.98,3.48-5.94,3.48
		c-1.2,0-2.18-0.47-2.95-1.42s-1.16-2.16-1.16-3.64c0-2.67,1.01-5.38,3.03-8.11s4.02-4.1,6-4.1c1.43,0,2.14,0.77,2.14,2.3
		c0,1.72-0.83,3.4-2.5,5.04s-3.71,2.78-6.11,3.43c0.23,2.81,1.35,4.22,3.34,4.22C98.27,41.14,99.89,39.89,101.14,37.38z
		 M93.04,34.78c0.34,0.12,0.65,0.18,0.93,0.18c1.45,0,2.72-0.45,3.81-1.34s1.63-1.93,1.63-3.13c0-1.37-0.7-2.06-2.09-2.06
		c-1.01,0-1.92,0.6-2.73,1.8S93.26,32.95,93.04,34.78z"/>
	<path d="M109.58,33.55c2.6-4.93,5.16-7.4,7.68-7.4c0.66,0,1.31,0.15,1.97,0.46l-2.48,2.71c-0.38-0.21-0.85-0.32-1.44-0.32
		c-1.22,0-2.5,0.99-3.86,2.96s-2.15,4.03-2.38,6.16l-0.48,4.29l-2.61,0.88l0.05-0.53l0.12-1.14l0.14-1.14l0.92-8.37l0.11-0.91
		c0.08-0.69,0.12-1.25,0.12-1.69c0-0.71-0.2-1.07-0.6-1.07c-0.94,0-1.87,1-2.8,3.01c-0.29-0.22-0.43-0.45-0.42-0.69
		c0.04-0.71,0.69-1.66,1.96-2.84s2.28-1.77,3.02-1.77c1,0,1.5,0.66,1.5,1.97c0,0.32-0.03,0.74-0.09,1.28l-0.12,1.23l-0.16,1.48
		L109.58,33.55z"/>
	<path d="M120.61,43.71c-0.51-1.11-1.2-1.95-2.05-2.5l2.59-2.48c0.76,0.57,1.44,1.4,2.03,2.48L120.61,43.71z"/>
	<path d="M141.38,41.6l1.62-14.61c-1.14,0.81-2.09,1.42-2.84,1.85l-1.86,1.09c-0.04,0.02-0.18,0.11-0.42,0.25l0.19-1.69
		c2.32-0.83,4.9-2.24,7.74-4.24l-1.92,17.35h4.4l-1.71,1.37h-10.14l1.74-1.37H141.38z"/>
</g>
</svg>
