<?xml version="1.0" encoding="utf-8"?>
<!-- Generator: Adobe Illustrator 23.0.0, SVG Export Plug-In . SVG Version: 6.00 Build 0)  -->
<svg version="1.1" id="Layer_1" xmlns="http://www.w3.org/2000/svg" xmlns:xlink="http://www.w3.org/1999/xlink" x="0px" y="0px"
	 viewBox="0 0 781 132" style="enable-background:new 0 0 781 132;" xml:space="preserve">
<style type="text/css">
	.st0{fill:none;stroke:#000000;stroke-miterlimit:10;}
</style>
<g>
	<g>
		<g>
			<path d="M194.04,65.65c1.77,2.33,2.66,5.41,2.66,9.25v4.18h-3.17v-4.39c0-2.88-0.61-5.18-1.84-6.91
				c-1.22-1.73-3.16-2.59-5.8-2.59s-4.57,0.86-5.8,2.59c-1.22,1.73-1.84,4.03-1.84,6.91v26.21c0,2.88,0.61,5.17,1.84,6.88
				c1.22,1.7,3.16,2.56,5.8,2.56s4.57-0.85,5.8-2.56c1.22-1.7,1.84-4,1.84-6.88v-5.98h3.17v5.76c0,3.84-0.89,6.92-2.66,9.25
				c-1.78,2.33-4.51,3.49-8.21,3.49c-3.7,0-6.43-1.16-8.21-3.49c-1.78-2.33-2.66-5.41-2.66-9.25V74.9c0-3.84,0.89-6.92,2.66-9.25
				c1.77-2.33,4.51-3.49,8.21-3.49C189.53,62.15,192.27,63.32,194.04,65.65z"/>
			<path d="M223.42,73.96v4.39c0,2.98-0.59,5.32-1.76,7.02c-1.18,1.71-3.01,2.84-5.51,3.42c4.85,1.06,7.27,4.49,7.27,10.3v7.85
				c0,2.78,0.41,4.8,1.22,6.05h-3.46c-0.43-0.72-0.72-1.55-0.86-2.48c-0.14-0.94-0.22-2.12-0.22-3.56v-7.92
				c0-3.17-0.79-5.39-2.38-6.66c-1.58-1.27-3.94-1.91-7.06-1.91h-5.26v22.54h-3.31v-50.4h10.51
				C219.82,62.59,223.42,66.38,223.42,73.96z M217.8,85.63c1.54-1.2,2.3-3.41,2.3-6.62v-4.75c0-2.83-0.6-4.98-1.8-6.44
				c-1.2-1.46-3.12-2.2-5.76-2.2h-7.13v21.82h5.33C213.92,87.43,216.27,86.83,217.8,85.63z"/>
			<path d="M246.96,88.94h-13.75v21.02h16.56v3.02H229.9v-50.4h19.87v3.02h-16.56v20.3h13.75V88.94z"/>
			<path d="M257.47,112.99h-3.02l11.02-50.47h4.82l11.23,50.47h-3.31l-2.52-11.16h-15.7L257.47,112.99z M275.19,98.95l-7.42-32.62
				l-7.27,32.62H275.19z"/>
			<path d="M295.06,65.61h-10.22v-3.02h23.83v3.02h-10.3v47.38h-3.31V65.61z"/>
			<path d="M316.08,112.99h-3.31v-50.4h3.31V112.99z"/>
			<path d="M334.73,109.17l10.22-46.58h3.1l-10.94,50.4h-4.9l-11.09-50.4h3.38L334.73,109.17z"/>
			<path d="M370.15,88.94H356.4v21.02h16.56v3.02h-19.87v-50.4h19.87v3.02H356.4v20.3h13.75V88.94z"/>
		</g>
	</g>
	<g>
		<g>
			<path d="M421.88,99.22c-0.29-0.01-0.58,0-0.86,0.01c-0.29,0-0.58,0.01-0.86,0.02c-0.29,0.02-0.59,0.03-0.91,0.05
				c0.13,0.1,0.24,0.2,0.35,0.3c0.1,0.1,0.18,0.18,0.23,0.23c0.06,0.11,0.1,0.26,0.1,0.46c0,0.19-0.06,0.47-0.19,0.84
				c-0.1,0.24-0.19,0.47-0.29,0.68s-0.21,0.44-0.34,0.66l2.71,1.97c0.11,0.1,0.22,0.18,0.34,0.24c0.11,0.06,0.22,0.12,0.34,0.17
				c0.11,0.06,0.23,0.12,0.36,0.17s0.26,0.1,0.41,0.17c0.22,0.11,0.41,0.22,0.55,0.34c0.14,0.11,0.29,0.31,0.43,0.6l0.31,0.7
				c0.1,0.19,0.13,0.34,0.1,0.43c-0.03,0.1-0.1,0.19-0.22,0.29c-0.13,0.1-0.24,0.14-0.35,0.14c-0.1,0-0.23-0.07-0.37-0.22
				l-5.16-4.15c-0.61,0.88-1.33,1.72-2.17,2.52c-0.84,0.8-1.72,1.49-2.63,2.06c-0.16,0.1-0.38,0.19-0.65,0.29
				c-0.27,0.1-0.46-0.02-0.55-0.34c-0.03-0.08-0.04-0.18-0.01-0.31c0.02-0.13,0.08-0.22,0.18-0.29c0.72-0.43,1.4-0.94,2.03-1.51
				c0.63-0.58,1.19-1.17,1.67-1.78c0.5-0.61,0.91-1.22,1.24-1.84c0.33-0.62,0.56-1.19,0.68-1.72c0.02-0.1,0-0.2-0.04-0.3
				c-0.04-0.1-0.08-0.2-0.13-0.28c-0.08-0.06-0.18-0.14-0.29-0.22c-0.11-0.08-0.22-0.16-0.34-0.24c-0.24,0.02-0.47,0.03-0.7,0.05
				c-0.22,0.02-0.45,0.03-0.67,0.05c-0.24,0.02-0.48,0.03-0.71,0.05s-0.48,0.03-0.73,0.05c-0.37,0.03-0.68,0.03-0.94,0
				s-0.46-0.1-0.6-0.19c-0.1-0.05-0.15-0.11-0.16-0.19c-0.01-0.08,0-0.19,0.01-0.34l0.1-0.89c0.56,0.1,1.12,0.17,1.69,0.2
				c0.57,0.04,1.12,0.06,1.64,0.06c0.18,0.02,0.33,0.02,0.47,0.02c0.14,0,0.26,0,0.37,0c0.11,0,0.22,0,0.34-0.01
				c0.11-0.01,0.23-0.02,0.36-0.04v-1.78c0-0.32-0.04-0.55-0.11-0.68c-0.07-0.14-0.2-0.3-0.4-0.49c-0.1-0.08-0.1-0.22-0.02-0.41
				c0.08-0.19,0.19-0.27,0.34-0.24l0.91,0.29c0.37,0.11,0.58,0.25,0.65,0.42c0.06,0.17,0.1,0.4,0.1,0.68v2.16
				c0.34-0.02,0.66-0.04,0.96-0.06c0.3-0.02,0.58-0.05,0.82-0.08c0.26-0.03,0.47-0.06,0.65-0.08c0.18-0.02,0.31-0.04,0.41-0.06
				c0.53-0.05,0.87-0.07,1.03-0.07c0.16,0,0.33,0.05,0.5,0.14l0.62,0.38c0.21,0.14,0.32,0.27,0.34,0.37
				c0.02,0.1-0.02,0.25-0.12,0.44c-0.1,0.19-0.18,0.31-0.25,0.36c-0.07,0.05-0.18,0.06-0.32,0.02c-0.08-0.02-0.17-0.04-0.28-0.06
				c-0.1-0.02-0.2-0.04-0.3-0.06c-0.11-0.03-0.23-0.06-0.36-0.08c-0.13-0.02-0.25-0.04-0.36-0.06
				C422.48,99.24,422.17,99.23,421.88,99.22z M420.2,110.22c0.91-0.7,2.06-1.06,3.46-1.06c0.66,0,1.27,0.1,1.85,0.29
				c0.58,0.19,1.08,0.46,1.51,0.82s0.77,0.79,1.02,1.31c0.25,0.52,0.37,1.1,0.37,1.74c0,1.25-0.44,2.24-1.33,2.98
				c-0.89,0.74-2.03,1.1-3.42,1.1c-1.39,0-2.54-0.36-3.46-1.07s-1.37-1.72-1.37-3.01C418.84,111.96,419.29,110.93,420.2,110.22z
				 M421.19,111.21c-0.58,0.51-0.86,1.22-0.86,2.11c0,0.85,0.29,1.53,0.86,2.04c0.58,0.51,1.4,0.77,2.47,0.77
				c1.1,0,1.92-0.28,2.46-0.83c0.54-0.55,0.8-1.21,0.8-1.98c0-0.86-0.27-1.56-0.8-2.09c-0.54-0.53-1.36-0.79-2.46-0.79
				C422.59,110.44,421.76,110.7,421.19,111.21z M428.89,102.52l0.96-0.05c0.24,0,0.45-0.02,0.62-0.05c0.18-0.03,0.45-0.1,0.82-0.22
				c0.14-0.05,0.27-0.09,0.38-0.12c0.11-0.03,0.22-0.06,0.31-0.07c0.1-0.02,0.19-0.01,0.28,0.01c0.09,0.02,0.2,0.07,0.32,0.13
				l0.86,0.5c0.11,0.08,0.18,0.18,0.19,0.29c0.02,0.11-0.02,0.22-0.1,0.34l-0.12,0.17c-0.1,0.13-0.21,0.21-0.35,0.25
				c-0.14,0.04-0.28,0.04-0.42-0.01c-0.11-0.02-0.26-0.03-0.43-0.04c-0.18-0.01-0.3-0.01-0.36-0.01h-2.98v2.95
				c0,0.24-0.04,0.48-0.13,0.73c-0.09,0.25-0.19,0.48-0.3,0.71c-0.11,0.22-0.22,0.42-0.32,0.59c-0.1,0.17-0.18,0.29-0.23,0.35
				c-0.08,0.1-0.18,0.13-0.31,0.11c-0.13-0.02-0.19-0.08-0.19-0.18V96.4c0-0.3-0.08-0.55-0.23-0.74c-0.15-0.19-0.34-0.38-0.56-0.58
				c-0.16-0.13-0.18-0.31-0.05-0.55c0.13-0.24,0.3-0.31,0.5-0.22l1.06,0.48c0.35,0.18,0.57,0.33,0.65,0.47s0.12,0.35,0.12,0.64
				V102.52z"/>
			<path d="M441.52,100.7c-0.08,0.22-0.17,0.44-0.26,0.65l2.62,2.45c0.11,0.11,0.22,0.2,0.32,0.28c0.1,0.07,0.21,0.14,0.32,0.2
				c0.1,0.08,0.2,0.15,0.32,0.22c0.12,0.06,0.25,0.13,0.4,0.19c0.21,0.13,0.38,0.26,0.5,0.4c0.13,0.14,0.25,0.35,0.36,0.64
				l0.24,0.72c0.06,0.19,0.08,0.34,0.04,0.46c-0.04,0.11-0.11,0.19-0.2,0.24c-0.16,0.1-0.29,0.14-0.4,0.13
				c-0.1-0.01-0.22-0.08-0.35-0.23l-4.68-4.75c-0.54,0.93-1.24,1.81-2.08,2.64c-0.84,0.83-1.78,1.58-2.82,2.26
				c-0.06,0.05-0.14,0.09-0.22,0.13s-0.17,0.08-0.26,0.11c-0.08,0.03-0.17,0.05-0.26,0.06c-0.1,0.01-0.18-0.01-0.24-0.06
				c-0.16-0.1-0.24-0.24-0.25-0.43c-0.01-0.19,0.07-0.34,0.23-0.46c0.93-0.62,1.72-1.26,2.39-1.92c0.66-0.66,1.21-1.3,1.64-1.94
				c0.43-0.62,0.76-1.22,1-1.8c0.23-0.58,0.37-1.1,0.42-1.56c0-0.1-0.01-0.2-0.04-0.3c-0.02-0.1-0.06-0.19-0.11-0.25
				c-0.03-0.02-0.06-0.04-0.1-0.07c-0.03-0.03-0.07-0.06-0.12-0.1c-0.03-0.03-0.07-0.06-0.11-0.1s-0.08-0.06-0.11-0.1
				c-0.22,0.03-0.44,0.06-0.65,0.07c-0.21,0.02-0.42,0.03-0.62,0.05c-0.21,0.02-0.42,0.03-0.65,0.05c-0.22,0.02-0.46,0.02-0.72,0.02
				c-0.38,0.03-0.7,0.04-0.95,0.01c-0.25-0.02-0.44-0.08-0.59-0.18c-0.1-0.06-0.15-0.14-0.17-0.22c-0.02-0.08-0.01-0.19,0.02-0.34
				l0.1-0.89c0.56,0.1,1.08,0.16,1.57,0.2c0.49,0.04,1,0.06,1.52,0.06c0.27,0.02,0.51,0.02,0.72,0.02s0.41-0.01,0.6-0.02
				c0.19,0,0.38-0.01,0.58-0.02c0.19-0.02,0.42-0.03,0.7-0.05c0.24,0,0.51-0.01,0.8-0.04c0.3-0.02,0.57-0.05,0.83-0.08
				c0.27-0.02,0.51-0.04,0.71-0.06c0.2-0.02,0.35-0.04,0.44-0.06c0.53-0.08,0.88-0.11,1.04-0.08c0.17,0.02,0.34,0.08,0.52,0.18
				l0.62,0.36c0.22,0.14,0.34,0.27,0.35,0.37c0.01,0.1-0.04,0.26-0.16,0.47c-0.1,0.18-0.18,0.29-0.25,0.35
				c-0.07,0.06-0.18,0.06-0.32,0.01c-0.08-0.02-0.17-0.04-0.26-0.06c-0.1-0.02-0.2-0.04-0.31-0.06c-0.11-0.03-0.23-0.06-0.36-0.08
				c-0.13-0.02-0.25-0.04-0.36-0.06c-0.34-0.02-0.63-0.03-0.88-0.04c-0.25-0.01-0.49-0.01-0.73-0.01c-0.22,0-0.46,0-0.7,0.01
				c-0.24,0.01-0.51,0.01-0.82,0.01c0.1,0.1,0.18,0.18,0.26,0.25c0.08,0.07,0.14,0.13,0.19,0.18c0.06,0.13,0.1,0.28,0.1,0.44
				c0,0.17-0.05,0.44-0.14,0.83C441.68,100.24,441.6,100.47,441.52,100.7z M450.59,114.93c0,0.3-0.08,0.62-0.25,0.96
				s-0.3,0.58-0.4,0.72l-0.34,0.55c-0.06,0.1-0.16,0.14-0.3,0.12c-0.14-0.02-0.2-0.08-0.2-0.19v-6.22l-2.83,0.07
				c-0.06,0-0.22,0-0.47,0.01c-0.25,0.01-0.52,0.02-0.83,0.04c-0.32,0.02-0.62,0.03-0.91,0.04c-0.29,0.01-0.49,0.01-0.6,0.01
				l-2.54,0.12c-0.19,0.02-0.39,0.03-0.59,0.04c-0.2,0.01-0.4,0.01-0.59,0.01c-0.08,0-0.17,0-0.26,0.01
				c-0.1,0.01-0.2,0.01-0.31,0.01c-0.1-0.02-0.2-0.04-0.31-0.06c-0.11-0.02-0.22-0.07-0.31-0.13c-0.1-0.05-0.15-0.13-0.17-0.25
				c-0.02-0.12-0.02-0.25,0-0.4l0.07-0.79c0.3,0.06,0.64,0.11,1.01,0.14c0.37,0.03,0.76,0.06,1.18,0.07c0.42,0,0.85,0,1.31,0
				c0.46,0,0.92,0,1.38,0c0.74,0,1.38,0,1.92-0.01s0.9-0.02,1.06-0.04l3.7-0.14c0.1,0,0.18,0.01,0.25,0.04
				c0.07,0.02,0.13,0.06,0.18,0.11s0.09,0.11,0.12,0.18c0.03,0.07,0.05,0.13,0.05,0.18V114.93z M450.73,102.28l0.96-0.05
				c0.24,0,0.45-0.02,0.62-0.05c0.18-0.03,0.45-0.1,0.82-0.22c0.14-0.05,0.27-0.09,0.38-0.12s0.22-0.06,0.31-0.07
				c0.1-0.02,0.19-0.01,0.28,0.01c0.09,0.02,0.2,0.07,0.32,0.13l0.86,0.5c0.11,0.08,0.18,0.18,0.19,0.29
				c0.02,0.11-0.02,0.22-0.1,0.34l-0.12,0.17c-0.1,0.13-0.21,0.21-0.35,0.25c-0.14,0.04-0.28,0.04-0.42-0.01
				c-0.11-0.02-0.26-0.03-0.43-0.04c-0.18-0.01-0.3-0.01-0.36-0.01h-2.98v2.64c0,0.24-0.04,0.48-0.13,0.73s-0.19,0.48-0.3,0.71
				c-0.11,0.22-0.22,0.42-0.32,0.59c-0.1,0.17-0.18,0.28-0.23,0.35c-0.08,0.1-0.18,0.13-0.31,0.11c-0.13-0.02-0.19-0.08-0.19-0.18
				V96.4c0-0.3-0.08-0.55-0.23-0.74c-0.15-0.19-0.34-0.38-0.56-0.58c-0.16-0.13-0.18-0.31-0.05-0.55c0.13-0.24,0.3-0.31,0.5-0.22
				l1.06,0.48c0.35,0.18,0.57,0.33,0.65,0.47s0.12,0.35,0.12,0.64V102.28z"/>
		</g>
	</g>
	<line class="st0" x1="383.29" y1="112.98" x2="403.29" y2="112.98"/>
	<line class="st0" x1="173.09" y1="35" x2="147.26" y2="60.82"/>
	<g>
		<path d="M20.63,26.61l-2,2.41c-0.94-0.39-1.83-0.58-2.69-0.58c-1.54,0-2.75,0.65-3.63,1.95s-1.33,3.08-1.33,5.34
			c0,1.59,0.32,2.88,0.96,3.85s1.47,1.46,2.5,1.46c1.75,0,3.12-1.14,4.11-3.43c0.26,0.28,0.39,0.54,0.39,0.79
			c0,0.97-0.76,2.05-2.28,3.24s-2.91,1.78-4.17,1.78c-1.22,0-2.22-0.49-3-1.47s-1.17-2.25-1.17-3.81c0-3.04,1.03-5.79,3.09-8.28
			s4.35-3.73,6.87-3.73C19.21,26.15,19.99,26.3,20.63,26.61z"/>
		<path d="M26.75,33.27c1.37-2.06,2.88-3.76,4.53-5.11s3.06-2.01,4.23-2.01c1.14,0,1.71,0.79,1.71,2.37c0,0.47-0.07,1.19-0.2,2.16
			l-0.94,6.55c-0.19,1.31-0.29,2.35-0.29,3.11c0,0.61,0.16,0.91,0.49,0.91c0.81,0,1.8-1.07,2.98-3.22c0.29,0.18,0.44,0.36,0.44,0.54
			c0,0.76-0.65,1.76-1.96,3s-2.37,1.85-3.19,1.85c-0.92,0-1.37-0.66-1.37-1.97c0-0.96,0.12-2.29,0.37-3.99l0.61-4.25
			c0.2-1.39,0.3-2.5,0.3-3.32c0-0.9-0.32-1.35-0.97-1.35c-1.5,0-3.01,1.02-4.54,3.05c-1.53,2.03-2.43,4.22-2.7,6.55l-0.47,4.22
			l-2.63,1.07l0.05-0.49l0.14-1.3l0.14-1.23L25.17,25c0.41-3.63,1.76-6.74,4.04-9.31c2.28-2.57,4.84-3.86,7.66-3.86
			c0.59,0,1.15,0.06,1.7,0.19L36,14.55c-0.67-0.2-1.3-0.3-1.9-0.3c-3.48,0-5.52,2.72-6.13,8.16L26.75,33.27z"/>
		<path d="M52.24,35.99c-1.32,2.18-2.78,3.96-4.36,5.35s-2.96,2.08-4.13,2.08c-1.6,0-2.41-1.29-2.41-3.88
			c0-3.56,1.17-6.65,3.51-9.25s5.11-3.91,8.31-3.91c1.22,0,2.26,0.15,3.11,0.46c-0.06,0.21-0.09,0.34-0.11,0.39l-0.21,0.93
			c-0.14,0.64-0.22,1.02-0.23,1.12l-1.13,7.76l-0.16,1.12c-0.15,1.11-0.23,1.86-0.23,2.23c0,0.5,0.15,0.75,0.44,0.75
			c0.98,0,1.98-1.1,3.01-3.29c0.31,0.19,0.47,0.38,0.47,0.56c0,0.41-0.5,1.24-1.51,2.48c-1.37,1.69-2.64,2.53-3.81,2.53
			c-0.86,0-1.28-0.57-1.28-1.72c0-0.35,0.04-0.84,0.12-1.46l0.18-1.41l0.23-1.55L52.24,35.99z M53.24,29.03
			c-1.07-0.6-2.15-0.9-3.24-0.9c-1.64,0-3.02,1-4.13,3c-1.11,2-1.67,4.48-1.67,7.44c0,1.52,0.45,2.28,1.35,2.28
			c1.04,0,2.3-0.8,3.78-2.39c1.99-2.14,3.2-4.66,3.62-7.55L53.24,29.03z"/>
		<path d="M63.71,43.2l-0.16,1.39c-0.36,3.62-1.68,6.72-3.94,9.29c-2.26,2.57-4.8,3.86-7.63,3.86c-0.59,0-1.15-0.07-1.69-0.21
			L52.85,55c0.67,0.2,1.3,0.3,1.9,0.3c3.49,0,5.5-2.71,6.04-8.14l1.83-18.23c-0.55,0.41-1.14,0.88-1.77,1.42
			c-0.77,0.66-1.45,1.17-2.03,1.55l0.14-1.41c1.98-1.17,4.15-2.85,6.51-5.03l-0.81,8.15c1.24-2.18,2.64-3.97,4.19-5.37
			c1.55-1.4,2.91-2.09,4.08-2.09c1.69,0,2.54,1.44,2.54,4.33c0,3.44-1.11,6.42-3.32,8.95c-2.21,2.53-4.82,3.79-7.83,3.79L63.71,43.2
			z M63.95,40.56c0.95,0.6,2.02,0.9,3.22,0.9c1.61,0,2.91-0.94,3.92-2.81c1-1.87,1.5-4.3,1.5-7.29c0-1.74-0.48-2.62-1.43-2.62
			c-1.04,0-2.28,0.8-3.71,2.39c-1.91,2.12-3.02,4.63-3.31,7.53L63.95,40.56z"/>
		<path d="M83.21,28.65l-0.85,7.77c-0.15,1.39-0.23,2.43-0.23,3.09c0,1.32,0.45,1.99,1.35,1.99c0.97,0,1.97-0.8,3.01-2.39
			c0.18,0.22,0.26,0.42,0.26,0.6c0,0.66-0.58,1.44-1.73,2.36s-2.15,1.37-2.98,1.37c-1.66,0-2.5-1.07-2.5-3.2
			c0-0.79,0.1-2.06,0.3-3.81l0.84-7.77H77l2.05-2.04h1.87l0.37-3.2l2.59-0.86l-0.43,4.06h7.45l-2.06,2.04H83.21z"/>
		<path d="M101.14,37.38c0.29,0.2,0.44,0.43,0.44,0.7c0,0.36-0.38,0.98-1.13,1.86c-2,2.32-3.98,3.48-5.94,3.48
			c-1.2,0-2.18-0.47-2.95-1.42s-1.16-2.16-1.16-3.64c0-2.67,1.01-5.38,3.03-8.11s4.02-4.1,6-4.1c1.43,0,2.14,0.77,2.14,2.3
			c0,1.72-0.83,3.4-2.5,5.04s-3.71,2.78-6.11,3.43c0.23,2.81,1.35,4.22,3.34,4.22C98.27,41.14,99.89,39.89,101.14,37.38z
			 M93.04,34.78c0.34,0.12,0.65,0.18,0.93,0.18c1.45,0,2.72-0.45,3.81-1.34s1.63-1.93,1.63-3.13c0-1.37-0.7-2.06-2.09-2.06
			c-1.01,0-1.92,0.6-2.73,1.8S93.26,32.95,93.04,34.78z"/>
		<path d="M109.58,33.55c2.6-4.93,5.16-7.4,7.68-7.4c0.66,0,1.31,0.15,1.97,0.46l-2.48,2.71c-0.38-0.21-0.85-0.32-1.44-0.32
			c-1.22,0-2.5,0.99-3.86,2.96s-2.15,4.03-2.38,6.16l-0.48,4.29l-2.61,0.88l0.05-0.53l0.12-1.14l0.14-1.14l0.92-8.37l0.11-0.91
			c0.08-0.69,0.12-1.25,0.12-1.69c0-0.71-0.2-1.07-0.6-1.07c-0.94,0-1.87,1-2.8,3.01c-0.29-0.22-0.43-0.45-0.42-0.69
			c0.04-0.71,0.69-1.66,1.96-2.84s2.28-1.77,3.02-1.77c1,0,1.5,0.66,1.5,1.97c0,0.32-0.03,0.74-0.09,1.28l-0.12,1.23l-0.16,1.48
			L109.58,33.55z"/>
		<path d="M120.61,43.71c-0.51-1.11-1.2-1.95-2.05-2.5l2.59-2.48c0.76,0.57,1.44,1.4,2.03,2.48L120.61,43.71z"/>
		<path d="M135.94,42.97l2.18-2.14c3.18-0.76,5.75-2.05,7.72-3.86s2.95-3.8,2.95-5.97c0-1.25-0.46-2.29-1.39-3.11
			s-2.1-1.23-3.52-1.23c-1.71,0-3.36,0.63-4.96,1.88c-0.11-0.25-0.16-0.4-0.16-0.47c0-0.62,0.92-1.32,2.76-2.1s3.49-1.17,4.94-1.17
			c1.44,0,2.71,0.46,3.8,1.37s1.63,1.97,1.63,3.18c0,1.64-0.99,3.57-2.96,5.8s-4.39,4.12-7.23,5.68l10.3,0.53l-2.06,2.07
			L135.94,42.97z"/>
	</g>
</g>
</svg>
