<?xml version="1.0" encoding="utf-8"?>
<!-- Generator: Adobe Illustrator 23.0.0, SVG Export Plug-In . SVG Version: 6.00 Build 0)  -->
<svg version="1.1" id="Layer_1" xmlns="http://www.w3.org/2000/svg" xmlns:xlink="http://www.w3.org/1999/xlink" x="0px" y="0px"
	 viewBox="0 0 781 132" style="enable-background:new 0 0 781 132;" xml:space="preserve">
<style type="text/css">
	.st0{fill:#4D4D4D;}
	.st1{fill:none;stroke:#000000;stroke-miterlimit:10;}
</style>
<g>
	<g>
		<g>
			<path class="st0" d="M448.94,70.26c-2.34-1.34-4.18-3.21-5.52-5.61c-1.34-2.4-2.01-5.12-2.01-8.16s0.67-5.76,2.01-8.16
				c1.34-2.4,3.18-4.27,5.52-5.61c2.34-1.34,4.99-2.01,7.95-2.01c2.36,0,4.55,0.45,6.57,1.35c2.02,0.9,3.67,2.23,4.95,3.99
				l-1.5,1.26c-1.12-1.56-2.55-2.74-4.29-3.54c-1.74-0.8-3.65-1.2-5.73-1.2c-2.56,0-4.87,0.59-6.93,1.77
				c-2.06,1.18-3.67,2.82-4.83,4.92c-1.16,2.1-1.74,4.51-1.74,7.23c0,2.72,0.58,5.14,1.74,7.26c1.16,2.12,2.77,3.77,4.83,4.95
				c2.06,1.18,4.37,1.77,6.93,1.77c2.08,0,3.99-0.4,5.73-1.2c1.74-0.8,3.17-1.98,4.29-3.54l1.5,1.2c-1.28,1.76-2.93,3.09-4.95,3.99
				c-2.02,0.9-4.21,1.35-6.57,1.35C453.93,72.27,451.28,71.6,448.94,70.26z"/>
			<path class="st0" d="M481.82,70.26c-2.34-1.34-4.17-3.21-5.49-5.61c-1.32-2.4-1.98-5.12-1.98-8.16s0.66-5.76,1.98-8.16
				c1.32-2.4,3.15-4.27,5.49-5.61c2.34-1.34,4.95-2.01,7.83-2.01c2.92,0,5.54,0.67,7.86,2.01c2.32,1.34,4.14,3.21,5.46,5.61
				c1.32,2.4,1.98,5.12,1.98,8.16s-0.66,5.76-1.98,8.16c-1.32,2.4-3.14,4.27-5.46,5.61c-2.32,1.34-4.94,2.01-7.86,2.01
				C486.77,72.27,484.16,71.6,481.82,70.26z M496.46,68.7c2.02-1.18,3.61-2.83,4.77-4.95s1.74-4.54,1.74-7.26
				c0-2.72-0.58-5.13-1.74-7.23s-2.75-3.74-4.77-4.92c-2.02-1.18-4.29-1.77-6.81-1.77c-2.52,0-4.79,0.59-6.81,1.77
				c-2.02,1.18-3.61,2.82-4.77,4.92s-1.74,4.51-1.74,7.23c0,2.72,0.58,5.14,1.74,7.26s2.75,3.77,4.77,4.95
				c2.02,1.18,4.29,1.77,6.81,1.77C492.17,70.47,494.44,69.88,496.46,68.7z"/>
			<path class="st0" d="M538.61,44.1c2.24,2.26,3.36,5.49,3.36,9.69v18.3h-1.98V53.91c0-3.68-0.93-6.49-2.79-8.43
				c-1.86-1.94-4.51-2.91-7.95-2.91c-3.88,0-6.94,1.15-9.18,3.45c-2.24,2.3-3.36,5.39-3.36,9.27v16.8h-1.98V40.95h1.92v7.62
				c1-2.44,2.61-4.36,4.83-5.76c2.22-1.4,4.87-2.1,7.95-2.1C533.31,40.71,536.37,41.84,538.61,44.1z"/>
			<path class="st0" d="M569.63,70.11c-0.72,0.68-1.64,1.21-2.76,1.59c-1.12,0.38-2.28,0.57-3.48,0.57c-2.52,0-4.47-0.71-5.85-2.13
				c-1.38-1.42-2.07-3.37-2.07-5.85v-21.6h-5.88v-1.74h5.88v-6.84h1.98v6.84h10.26v1.74h-10.26v21.3c0,2.12,0.52,3.74,1.56,4.86
				c1.04,1.12,2.56,1.68,4.56,1.68c2,0,3.68-0.62,5.04-1.86L569.63,70.11z"/>
			<path class="st0" d="M604.13,56.79h-27.3c0.04,2.64,0.66,5,1.86,7.08s2.85,3.7,4.95,4.86c2.1,1.16,4.45,1.74,7.05,1.74
				c2.12,0,4.08-0.39,5.88-1.17s3.28-1.93,4.44-3.45l1.26,1.32c-1.4,1.64-3.1,2.9-5.1,3.78s-4.16,1.32-6.48,1.32
				c-3.04,0-5.75-0.67-8.13-2.01c-2.38-1.34-4.25-3.21-5.61-5.61c-1.36-2.4-2.04-5.12-2.04-8.16s0.63-5.76,1.89-8.16
				c1.26-2.4,3.01-4.27,5.25-5.61c2.24-1.34,4.74-2.01,7.5-2.01c2.72,0,5.19,0.66,7.41,1.98c2.22,1.32,3.97,3.16,5.25,5.52
				c1.28,2.36,1.92,5.04,1.92,8.04V56.79z M583.25,44.13c-1.88,1.08-3.38,2.59-4.5,4.53s-1.74,4.11-1.86,6.51h25.38
				c-0.16-2.4-0.81-4.57-1.95-6.51s-2.64-3.45-4.5-4.53s-3.95-1.62-6.27-1.62S585.13,43.05,583.25,44.13z"/>
			<path class="st0" d="M637.79,44.1c2.24,2.26,3.36,5.49,3.36,9.69v18.3h-1.98V53.91c0-3.68-0.93-6.49-2.79-8.43
				c-1.86-1.94-4.51-2.91-7.95-2.91c-3.88,0-6.94,1.15-9.18,3.45c-2.24,2.3-3.36,5.39-3.36,9.27v16.8h-1.98V40.95h1.92v7.62
				c1-2.44,2.61-4.36,4.83-5.76c2.22-1.4,4.87-2.1,7.95-2.1C632.49,40.71,635.55,41.84,637.79,44.1z"/>
			<path class="st0" d="M668.81,70.11c-0.72,0.68-1.64,1.21-2.76,1.59c-1.12,0.38-2.28,0.57-3.48,0.57c-2.52,0-4.47-0.71-5.85-2.13
				c-1.38-1.42-2.07-3.37-2.07-5.85v-21.6h-5.88v-1.74h5.88v-6.84h1.98v6.84h10.26v1.74h-10.26v21.3c0,2.12,0.52,3.74,1.56,4.86
				c1.04,1.12,2.56,1.68,4.56,1.68s3.68-0.62,5.04-1.86L668.81,70.11z"/>
		</g>
	</g>
	<line class="st1" x1="21.83" y1="90.11" x2="684.04" y2="90.11"/>
</g>
</svg>
