<?xml version="1.0" encoding="utf-8"?>
<!-- Generator: Adobe Illustrator 23.0.0, SVG Export Plug-In . SVG Version: 6.00 Build 0)  -->
<svg version="1.1" id="Layer_1" xmlns="http://www.w3.org/2000/svg" xmlns:xlink="http://www.w3.org/1999/xlink" x="0px" y="0px"
	 viewBox="0 0 361 282.45" style="enable-background:new 0 0 361 282.45;" xml:space="preserve">
<style type="text/css">
	.st0{fill:#231815;}
</style>
<g>
	<g>
		<path class="st0" d="M49.83,49.23H46.5l-4.13-8.96H31.32l-4.1,8.96h-3.47L36.41,21.4h0.95L49.83,49.23z M40.94,37.09l-4.06-9.03
			l-4.1,9.03H40.94z"/>
		<path class="st0" d="M55.5,49.23h-3V21.8h3V49.23z"/>
		<path class="st0" d="M62.82,49.23h-3V21.8h3V49.23z"/>
		<path class="st0" d="M96.5,49.23h-2.96v-2.93c-2.17,2.39-4.67,3.58-7.5,3.58s-5.25-1.04-7.26-3.13s-3.02-4.57-3.02-7.46
			c0-2.89,1.01-5.36,3.04-7.42c2.02-2.06,4.49-3.09,7.41-3.09c2.91,0,5.36,1.18,7.33,3.55V29.3h2.96V49.23z M86.26,47.08
			c2.02,0,3.77-0.73,5.23-2.19c1.46-1.46,2.19-3.29,2.19-5.47c0-2.18-0.72-4.01-2.16-5.49c-1.44-1.47-3.2-2.21-5.29-2.21
			c-2.08,0-3.85,0.76-5.29,2.29c-1.44,1.52-2.16,3.32-2.16,5.39c0,2.07,0.73,3.87,2.19,5.39C82.46,46.31,84.21,47.08,86.26,47.08z"
			/>
		<path class="st0" d="M110.03,29.59l-1.57,2.56c-0.41-0.22-0.82-0.33-1.21-0.33c-0.76,0-1.44,0.37-2.05,1.12
			c-0.61,0.74-1.07,1.72-1.37,2.93s-0.46,3.38-0.46,6.53v6.84h-3.07V29.3h3.07v2.16c0.61-0.9,1.23-1.57,1.85-2.01
			c0.62-0.44,1.33-0.66,2.12-0.66S109.03,29.06,110.03,29.59z"/>
		<path class="st0" d="M132.27,39.8h-17.48c0.12,2.19,0.86,3.96,2.21,5.29c1.35,1.33,2.97,1.99,4.85,1.99
			c3.19,0,5.63-1.57,7.31-4.72l2.56,1.32c-1.15,2.12-2.5,3.69-4.06,4.7s-3.43,1.52-5.6,1.52c-3,0-5.47-1.03-7.42-3.09
			c-1.95-2.06-2.93-4.54-2.93-7.44s0.98-5.39,2.94-7.46c1.96-2.07,4.39-3.11,7.3-3.11s5.33,0.98,7.28,2.94
			C131.18,33.7,132.2,36.38,132.27,39.8z M128.9,37.13c-0.37-1.71-1.2-3.04-2.49-3.99c-1.29-0.95-2.78-1.43-4.46-1.43
			c-3.41,0-5.68,1.8-6.8,5.41H128.9z"/>
		<path class="st0" d="M173.31,29.3l-8.52,20.59h-0.77l-5.85-14.19l-5.89,14.19h-0.77l-8.38-20.59h3.11l5.63,14.34l5.93-14.34h0.73
			l5.89,14.37l5.74-14.37H173.31z"/>
		<path class="st0" d="M195.58,39.8H178.1c0.12,2.19,0.86,3.96,2.21,5.29c1.35,1.33,2.97,1.99,4.85,1.99c3.19,0,5.63-1.57,7.31-4.72
			l2.56,1.32c-1.15,2.12-2.5,3.69-4.06,4.7s-3.43,1.52-5.6,1.52c-3,0-5.47-1.03-7.42-3.09c-1.95-2.06-2.93-4.54-2.93-7.44
			s0.98-5.39,2.94-7.46c1.96-2.07,4.39-3.11,7.3-3.11s5.33,0.98,7.28,2.94C194.49,33.7,195.51,36.38,195.58,39.8z M192.22,37.13
			c-0.37-1.71-1.2-3.04-2.49-3.99c-1.29-0.95-2.78-1.43-4.46-1.43c-3.41,0-5.68,1.8-6.8,5.41H192.22z"/>
		<path class="st0" d="M202.35,49.23h-3V21.8h3V49.23z"/>
		<path class="st0" d="M226.52,45.17c-1.05,1.54-2.42,2.71-4.12,3.51s-3.53,1.21-5.5,1.21c-3.07,0-5.64-1.01-7.7-3.04
			c-2.06-2.02-3.09-4.5-3.09-7.42c0-2.93,1.04-5.43,3.11-7.52s4.76-3.13,8.05-3.13c1.95,0,3.75,0.43,5.39,1.28
			c1.65,0.85,2.93,2.05,3.86,3.58l-2.38,1.5c-1.78-2.32-4.11-3.47-6.99-3.47c-2.27,0-4.17,0.73-5.71,2.18
			c-1.54,1.45-2.3,3.25-2.3,5.39c0,2.15,0.76,3.99,2.27,5.52s3.43,2.3,5.74,2.3c2.78,0,5.12-1.17,7.02-3.51L226.52,45.17z"/>
		<path class="st0" d="M240.16,28.79c2.88,0,5.32,1.04,7.33,3.11c2.01,2.07,3.02,4.56,3.02,7.46s-0.99,5.38-2.98,7.44
			c-1.99,2.06-4.44,3.09-7.37,3.09c-2.93,0-5.39-1.03-7.39-3.09c-2-2.06-3-4.54-3-7.44s1.01-5.39,3.02-7.46
			C234.81,29.83,237.26,28.79,240.16,28.79z M240.16,47c2.03,0,3.75-0.74,5.18-2.21c1.43-1.47,2.14-3.25,2.14-5.34
			c0-2.08-0.73-3.89-2.18-5.41c-1.45-1.52-3.17-2.29-5.16-2.29c-1.99,0-3.7,0.76-5.14,2.29c-1.44,1.52-2.16,3.33-2.16,5.43
			c0,2.1,0.7,3.88,2.09,5.34C236.32,46.27,238.07,47,240.16,47z"/>
		<path class="st0" d="M284.2,49.23h-3.07V38.37c0-1.73-0.11-3-0.31-3.8c-0.21-0.8-0.66-1.48-1.35-2.03
			c-0.7-0.55-1.61-0.82-2.74-0.82c-1.13,0-2.2,0.37-3.2,1.1c-1,0.73-1.7,1.72-2.09,2.98s-0.58,3.12-0.58,5.58v7.86h-2.96v-10.2
			c0-2-0.11-3.44-0.31-4.32c-0.21-0.88-0.67-1.6-1.37-2.16s-1.6-0.84-2.67-0.84c-1.07,0-2.09,0.34-3.05,1.01
			c-0.96,0.67-1.68,1.55-2.14,2.63s-0.7,2.88-0.7,5.39v8.49h-3V29.3h3v2.82c1.71-2.22,3.84-3.33,6.4-3.33
			c1.39,0,2.65,0.37,3.79,1.12c1.13,0.74,1.94,1.8,2.43,3.16c0.83-1.39,1.87-2.45,3.11-3.18c1.24-0.73,2.56-1.1,3.95-1.1
			c1.9,0,3.52,0.67,4.87,2.01c1.34,1.34,2.01,3.87,2.01,7.57V49.23z"/>
		<path class="st0" d="M308.59,39.8h-17.48c0.12,2.19,0.86,3.96,2.21,5.29c1.35,1.33,2.97,1.99,4.85,1.99
			c3.19,0,5.63-1.57,7.31-4.72l2.56,1.32c-1.15,2.12-2.5,3.69-4.06,4.7s-3.43,1.52-5.6,1.52c-3,0-5.47-1.03-7.42-3.09
			c-1.95-2.06-2.93-4.54-2.93-7.44s0.98-5.39,2.94-7.46c1.96-2.07,4.39-3.11,7.3-3.11s5.33,0.98,7.28,2.94
			C307.51,33.7,308.52,36.38,308.59,39.8z M305.23,37.13c-0.37-1.71-1.2-3.04-2.49-3.99c-1.29-0.95-2.78-1.43-4.46-1.43
			c-3.41,0-5.68,1.8-6.8,5.41H305.23z"/>
		<path class="st0" d="M318.25,43.35l-3.84,7.21l-2.23-0.95l3.18-7.64L318.25,43.35z"/>
		<path class="st0" d="M45.66,93.12H42.7V90.2c-2.17,2.39-4.67,3.58-7.5,3.58c-2.83,0-5.25-1.04-7.26-3.13s-3.02-4.57-3.02-7.46
			c0-2.89,1.01-5.36,3.04-7.42s4.49-3.09,7.41-3.09s5.36,1.18,7.33,3.55v-3.04h2.96V93.12z M35.42,90.97c2.02,0,3.77-0.73,5.23-2.19
			s2.2-3.29,2.2-5.47c0-2.18-0.72-4.01-2.16-5.49c-1.44-1.47-3.2-2.21-5.29-2.21c-2.08,0-3.85,0.76-5.29,2.29
			c-1.44,1.52-2.16,3.32-2.16,5.39c0,2.07,0.73,3.87,2.2,5.39C31.62,90.2,33.37,90.97,35.42,90.97z"/>
		<path class="st0" d="M53.42,93.12h-3V65.69h3V93.12z"/>
		<path class="st0" d="M85.86,73.19l-8.52,20.59h-0.77l-5.85-14.19l-5.89,14.19h-0.77l-8.38-20.59h3.11l5.63,14.34l5.93-14.34h0.73
			l5.89,14.37l5.74-14.37H85.86z"/>
		<path class="st0" d="M108.35,93.12h-2.96V90.2c-2.17,2.39-4.67,3.58-7.5,3.58c-2.83,0-5.25-1.04-7.26-3.13
			c-2.01-2.08-3.02-4.57-3.02-7.46c0-2.89,1.01-5.36,3.04-7.42c2.02-2.06,4.49-3.09,7.41-3.09c2.91,0,5.36,1.18,7.33,3.55v-3.04
			h2.96V93.12z M98.11,90.97c2.02,0,3.77-0.73,5.23-2.19s2.19-3.29,2.19-5.47c0-2.18-0.72-4.01-2.16-5.49
			c-1.44-1.47-3.2-2.21-5.28-2.21s-3.85,0.76-5.29,2.29c-1.44,1.52-2.16,3.32-2.16,5.39c0,2.07,0.73,3.87,2.19,5.39
			C94.31,90.2,96.06,90.97,98.11,90.97z"/>
		<path class="st0" d="M130.48,73.19l-11.81,26.99h-3.14l3.84-8.78l-8.08-18.21h3.15l6.55,14.59l6.33-14.59H130.48z"/>
		<path class="st0" d="M143.46,75.53l-1.94,2.01c-1.44-1.34-2.76-2.01-3.95-2.01c-0.76,0-1.39,0.24-1.9,0.71
			c-0.51,0.48-0.77,1.06-0.77,1.75c0,0.7,0.29,1.3,0.86,1.83s1.59,1.17,3.05,1.94c1.46,0.77,2.59,1.62,3.38,2.54s1.19,2.06,1.19,3.4
			c0,1.71-0.59,3.15-1.78,4.32c-1.18,1.17-2.64,1.76-4.37,1.76c-2.41,0-4.43-1.02-6.04-3.07l1.9-2.12c1.32,1.54,2.66,2.3,4.02,2.3
			c0.93,0,1.72-0.3,2.38-0.91s0.99-1.32,0.99-2.14c0-0.82-0.3-1.5-0.9-2.05c-0.6-0.55-1.62-1.19-3.07-1.92
			c-1.45-0.73-2.55-1.54-3.29-2.43c-0.74-0.89-1.12-2.06-1.12-3.51c0-1.45,0.53-2.69,1.59-3.71s2.46-1.54,4.21-1.54
			C139.66,72.68,141.51,73.63,143.46,75.53z"/>
	</g>
	<path class="st0" d="M15.85,11.91c-1.39,0.78-2.38,1.74-2.98,2.89c-0.6,1.15-0.9,2.82-0.9,5.01h2.2v3.73H9.56
		c0-4.27,0.44-7.17,1.32-8.7s2.39-2.84,4.54-3.91L15.85,11.91z M23.28,11.91c-1.39,0.78-2.39,1.75-3,2.91s-0.91,2.82-0.91,4.99h2.19
		v3.73h-4.61c0-4.29,0.44-7.2,1.32-8.72c0.88-1.52,2.4-2.82,4.57-3.9L23.28,11.91z"/>
	<path class="st0" d="M159.81,72.92c0,4.29-0.44,7.2-1.32,8.72c-0.88,1.52-2.4,2.82-4.57,3.9l-0.44-0.91c1.39-0.78,2.39-1.76,3-2.93
		c0.61-1.17,0.92-2.83,0.92-4.97h-2.19v-3.8H159.81z M167.2,72.92c0,4.27-0.44,7.17-1.32,8.71s-2.39,2.84-4.54,3.91l-0.44-0.91
		c1.37-0.78,2.35-1.75,2.96-2.91c0.61-1.16,0.91-2.82,0.91-4.99h-2.19v-3.8H167.2z"/>
	<g>
		<g>
			<path class="st0" d="M20.86,117.85v-1.3h7.32v1.3H25.2v12.04h-1.36v-12.04H20.86z"/>
			<path class="st0" d="M29.89,116.22h1.28v5.57c1.02-1.35,2.25-2.03,3.7-2.03c0.74,0,1.41,0.2,2.01,0.6s1.02,0.93,1.26,1.58
				c0.25,0.65,0.37,1.61,0.37,2.87v5.07h-1.28v-4.7c0-1.02-0.03-1.72-0.09-2.1c-0.06-0.38-0.2-0.75-0.41-1.1
				c-0.21-0.35-0.49-0.61-0.84-0.79c-0.35-0.18-0.78-0.27-1.28-0.27s-0.98,0.12-1.44,0.35c-0.46,0.24-0.85,0.56-1.17,0.99
				c-0.32,0.42-0.54,0.85-0.65,1.3c-0.11,0.45-0.17,1.34-0.17,2.69v3.62h-1.28V116.22z"/>
			<path class="st0" d="M49.52,126.7l1.08,0.56c-1.07,1.98-2.64,2.97-4.72,2.97c-1.49,0-2.71-0.51-3.68-1.53
				c-0.97-1.02-1.45-2.25-1.45-3.69c0-1.44,0.49-2.67,1.46-3.7c0.97-1.03,2.17-1.54,3.6-1.54s2.63,0.48,3.6,1.43
				c0.97,0.95,1.48,2.25,1.51,3.9h-8.88c0.04,1.19,0.41,2.15,1.12,2.87c0.71,0.72,1.58,1.09,2.59,1.09
				C47.44,129.06,48.69,128.27,49.52,126.7z M49.52,124c-0.17-0.94-0.61-1.68-1.3-2.21c-0.69-0.53-1.49-0.8-2.4-0.8
				c-1.86,0-3.07,1-3.64,3.01H49.52z"/>
			<path class="st0" d="M52.24,120.03h1.34l3.4,7.6l3.29-7.6h1.36l-5.89,13.47h-1.34l1.9-4.35L52.24,120.03z"/>
			<path class="st0" d="M77.75,116.22v13.67H76.5v-1.69c-1.13,1.35-2.42,2.03-3.87,2.03c-1.46,0-2.68-0.51-3.67-1.54
				c-0.99-1.03-1.49-2.26-1.49-3.7c0-1.44,0.5-2.67,1.5-3.69c1-1.02,2.21-1.53,3.6-1.53c1.61,0,2.92,0.69,3.92,2.06v-5.61H77.75z
				 M76.58,125.03c0-1.13-0.37-2.08-1.12-2.86c-0.74-0.78-1.67-1.17-2.79-1.17c-1.12,0-2.05,0.4-2.8,1.2s-1.12,1.74-1.12,2.82
				s0.38,2.03,1.15,2.83c0.77,0.8,1.67,1.21,2.72,1.21s1.97-0.38,2.76-1.14C76.18,127.15,76.58,126.19,76.58,125.03z"/>
			<path class="st0" d="M80.16,125.03c0-1.45,0.5-2.69,1.5-3.72c1-1.03,2.21-1.54,3.64-1.54s2.64,0.51,3.64,1.54
				c1,1.03,1.5,2.26,1.5,3.7c0,1.44-0.49,2.67-1.48,3.69c-0.98,1.02-2.2,1.53-3.65,1.53s-2.67-0.51-3.66-1.53
				C80.66,127.67,80.16,126.45,80.16,125.03z M89.15,125.04c0-1.09-0.38-2.04-1.14-2.83s-1.67-1.2-2.71-1.2s-1.95,0.4-2.7,1.2
				c-0.76,0.8-1.13,1.75-1.13,2.85s0.37,2.04,1.1,2.81c0.73,0.77,1.64,1.15,2.72,1.15s2-0.39,2.75-1.16
				C88.78,127.09,89.15,126.15,89.15,125.04z"/>
			<path class="st0" d="M96.96,120.03h1.3v1.43c0.35-0.58,0.68-1.01,1.01-1.28s0.69-0.41,1.1-0.41c0.4,0,0.81,0.11,1.22,0.33
				l-0.67,1.08c-0.19-0.11-0.38-0.17-0.58-0.17c-0.38,0-0.75,0.2-1.09,0.59s-0.59,0.91-0.75,1.53c-0.16,0.63-0.24,1.76-0.24,3.41
				v3.34h-1.3V120.03z"/>
			<path class="st0" d="M111.34,126.7l1.08,0.56c-1.07,1.98-2.64,2.97-4.72,2.97c-1.49,0-2.71-0.51-3.68-1.53
				c-0.97-1.02-1.45-2.25-1.45-3.69c0-1.44,0.49-2.67,1.46-3.7c0.97-1.03,2.17-1.54,3.6-1.54s2.63,0.48,3.6,1.43
				c0.97,0.95,1.48,2.25,1.51,3.9h-8.88c0.04,1.19,0.41,2.15,1.12,2.87c0.71,0.72,1.58,1.09,2.59,1.09
				C109.26,129.06,110.51,128.27,111.34,126.7z M111.34,124c-0.17-0.94-0.61-1.68-1.3-2.21c-0.69-0.53-1.49-0.8-2.4-0.8
				c-1.86,0-3.07,1-3.64,3.01H111.34z"/>
			<path class="st0" d="M120.07,121.11l-0.82,0.84c-0.68-0.66-1.34-0.98-1.99-0.98c-0.42,0-0.77,0.13-1.06,0.4
				c-0.28,0.27-0.43,0.59-0.43,0.98c0,0.39,0.15,0.72,0.46,1c0.3,0.28,0.83,0.61,1.57,1c0.74,0.39,1.31,0.81,1.7,1.26
				c0.39,0.45,0.58,1.01,0.58,1.66c0,0.83-0.29,1.53-0.86,2.1c-0.58,0.57-1.29,0.85-2.13,0.85c-0.56,0-1.09-0.12-1.61-0.37
				c-0.51-0.25-0.95-0.59-1.31-1.04l0.8-0.89c0.66,0.73,1.34,1.1,2.06,1.1c0.51,0,0.94-0.17,1.3-0.5c0.36-0.33,0.54-0.73,0.54-1.18
				c0-0.45-0.16-0.82-0.47-1.11s-0.84-0.62-1.58-0.99c-0.74-0.37-1.29-0.78-1.65-1.22c-0.37-0.44-0.55-1.01-0.55-1.71
				c0-0.7,0.26-1.3,0.77-1.79c0.51-0.5,1.2-0.74,2.04-0.74C118.29,119.77,119.17,120.21,120.07,121.11z"/>
			<path class="st0" d="M122.34,120.03h1.26v1.8c1-1.38,2.31-2.06,3.92-2.06c1.39,0,2.58,0.51,3.59,1.53c1,1.02,1.5,2.25,1.5,3.69
				c0,1.44-0.5,2.67-1.49,3.7c-0.99,1.03-2.18,1.54-3.57,1.54c-1.51,0-2.83-0.67-3.96-2.03v5.29h-1.26V120.03z M131.35,125.01
				c0-1.1-0.38-2.05-1.14-2.83c-0.76-0.79-1.69-1.18-2.8-1.18s-2.03,0.39-2.78,1.16c-0.75,0.77-1.12,1.73-1.12,2.87
				s0.38,2.1,1.15,2.87c0.77,0.77,1.69,1.16,2.76,1.16c1.07,0,1.99-0.39,2.77-1.18C130.96,127.09,131.35,126.13,131.35,125.01z"/>
			<path class="st0" d="M143.3,126.7l1.08,0.56c-1.07,1.98-2.64,2.97-4.72,2.97c-1.49,0-2.71-0.51-3.68-1.53
				c-0.97-1.02-1.45-2.25-1.45-3.69c0-1.44,0.49-2.67,1.46-3.7c0.97-1.03,2.17-1.54,3.6-1.54s2.63,0.48,3.6,1.43
				c0.97,0.95,1.48,2.25,1.51,3.9h-8.88c0.04,1.19,0.41,2.15,1.12,2.87c0.71,0.72,1.58,1.09,2.59,1.09
				C141.22,129.06,142.47,128.27,143.3,126.7z M143.3,124c-0.17-0.94-0.61-1.68-1.3-2.21c-0.69-0.53-1.49-0.8-2.4-0.8
				c-1.86,0-3.07,1-3.64,3.01H143.3z"/>
			<path class="st0" d="M156.71,122.07l-1,0.63c-0.87-1.15-2.06-1.73-3.57-1.73c-1.19,0-2.19,0.38-2.99,1.14
				c-0.81,0.76-1.21,1.71-1.21,2.83s0.4,2.09,1.19,2.9c0.79,0.8,1.8,1.21,3.01,1.21c1.45,0,2.64-0.58,3.57-1.73l1,0.67
				c-0.5,0.72-1.16,1.27-2,1.65s-1.74,0.58-2.7,0.58c-1.52,0-2.8-0.5-3.82-1.5c-1.02-1-1.53-2.23-1.53-3.68s0.52-2.69,1.55-3.73
				s2.36-1.55,3.99-1.55c0.95,0,1.84,0.21,2.65,0.61C155.65,120.79,156.28,121.35,156.71,122.07z"/>
			<path class="st0" d="M161.49,128.33c0,0.33,0.04,0.53,0.13,0.59c0.09,0.06,0.31,0.09,0.67,0.09h0.76v1.08
				c-0.52,0.09-0.93,0.13-1.23,0.13c-0.56,0-0.97-0.14-1.23-0.41s-0.39-0.7-0.39-1.28v-7.43h-1.75v-1.08h1.75v-3.81h1.28v3.81h2.01
				v1.08h-2.01V128.33z"/>
			<path class="st0" d="M172.43,128.33c0,0.33,0.04,0.53,0.13,0.59c0.09,0.06,0.31,0.09,0.67,0.09h0.76v1.08
				c-0.52,0.09-0.93,0.13-1.23,0.13c-0.56,0-0.97-0.14-1.23-0.41s-0.39-0.7-0.39-1.28v-7.43h-1.75v-1.08h1.75v-3.81h1.28v3.81h2.01
				v1.08h-2.01V128.33z"/>
			<path class="st0" d="M176.33,116.22h1.28v5.57c1.02-1.35,2.25-2.03,3.7-2.03c0.74,0,1.41,0.2,2.01,0.6s1.02,0.93,1.26,1.58
				c0.25,0.65,0.37,1.61,0.37,2.87v5.07h-1.28v-4.7c0-1.02-0.03-1.72-0.09-2.1c-0.06-0.38-0.2-0.75-0.41-1.1
				c-0.21-0.35-0.49-0.61-0.84-0.79c-0.35-0.18-0.78-0.27-1.28-0.27s-0.98,0.12-1.44,0.35c-0.46,0.24-0.85,0.56-1.17,0.99
				s-0.54,0.85-0.65,1.3c-0.11,0.45-0.17,1.34-0.17,2.69v3.62h-1.28V116.22z"/>
			<path class="st0" d="M195.97,126.7l1.08,0.56c-1.07,1.98-2.64,2.97-4.72,2.97c-1.49,0-2.71-0.51-3.68-1.53
				c-0.97-1.02-1.45-2.25-1.45-3.69c0-1.44,0.49-2.67,1.46-3.7c0.97-1.03,2.17-1.54,3.6-1.54s2.63,0.48,3.6,1.43
				c0.97,0.95,1.48,2.25,1.51,3.9h-8.88c0.04,1.19,0.41,2.15,1.12,2.87c0.71,0.72,1.58,1.09,2.59,1.09
				C193.89,129.06,195.14,128.27,195.97,126.7z M195.97,124c-0.17-0.94-0.61-1.68-1.3-2.21c-0.69-0.53-1.49-0.8-2.4-0.8
				c-1.86,0-3.07,1-3.64,3.01H195.97z"/>
			<path class="st0" d="M214.23,116.22v13.67h-1.25v-1.69c-1.13,1.35-2.42,2.03-3.87,2.03c-1.46,0-2.68-0.51-3.67-1.54
				c-0.99-1.03-1.49-2.26-1.49-3.7c0-1.44,0.5-2.67,1.5-3.69c1-1.02,2.21-1.53,3.6-1.53c1.61,0,2.92,0.69,3.92,2.06v-5.61H214.23z
				 M213.06,125.03c0-1.13-0.37-2.08-1.12-2.86c-0.74-0.78-1.67-1.17-2.79-1.17c-1.12,0-2.05,0.4-2.8,1.2s-1.12,1.74-1.12,2.82
				s0.38,2.03,1.15,2.83c0.77,0.8,1.67,1.21,2.72,1.21s1.97-0.38,2.76-1.14C212.67,127.15,213.06,126.19,213.06,125.03z"/>
			<path class="st0" d="M216.52,117.28c0-0.29,0.1-0.53,0.31-0.74s0.45-0.32,0.74-0.32s0.54,0.1,0.74,0.31
				c0.2,0.21,0.31,0.45,0.31,0.74c0,0.29-0.1,0.54-0.31,0.74c-0.2,0.21-0.45,0.31-0.74,0.31s-0.54-0.1-0.74-0.32
				S216.52,117.55,216.52,117.28z M216.93,120.03h1.28v9.87h-1.28V120.03z"/>
			<path class="st0" d="M219.9,120.03h1.36l3.29,7.51l3.29-7.51h1.36l-4.52,10.2h-0.22L219.9,120.03z"/>
			<path class="st0" d="M239.43,126.7l1.08,0.56c-1.07,1.98-2.64,2.97-4.72,2.97c-1.49,0-2.71-0.51-3.68-1.53
				c-0.97-1.02-1.45-2.25-1.45-3.69c0-1.44,0.49-2.67,1.46-3.7c0.97-1.03,2.17-1.54,3.6-1.54s2.63,0.48,3.6,1.43
				c0.97,0.95,1.48,2.25,1.51,3.9h-8.88c0.04,1.19,0.41,2.15,1.12,2.87c0.71,0.72,1.58,1.09,2.59,1.09
				C237.35,129.06,238.6,128.27,239.43,126.7z M239.43,124c-0.17-0.94-0.61-1.68-1.3-2.21c-0.69-0.53-1.49-0.8-2.4-0.8
				c-1.86,0-3.07,1-3.64,3.01H239.43z"/>
			<path class="st0" d="M242.72,120.03h1.3v1.43c0.35-0.58,0.68-1.01,1.01-1.28s0.69-0.41,1.1-0.41c0.4,0,0.81,0.11,1.22,0.33
				l-0.67,1.08c-0.19-0.11-0.38-0.17-0.58-0.17c-0.38,0-0.75,0.2-1.09,0.59s-0.59,0.91-0.75,1.53c-0.16,0.63-0.24,1.76-0.24,3.41
				v3.34h-1.3V120.03z"/>
			<path class="st0" d="M253.75,121.11l-0.82,0.84c-0.68-0.66-1.34-0.98-1.99-0.98c-0.42,0-0.77,0.13-1.06,0.4
				c-0.28,0.27-0.43,0.59-0.43,0.98c0,0.39,0.15,0.72,0.46,1c0.3,0.28,0.83,0.61,1.57,1c0.74,0.39,1.31,0.81,1.7,1.26
				c0.39,0.45,0.58,1.01,0.58,1.66c0,0.83-0.29,1.53-0.86,2.1c-0.58,0.57-1.29,0.85-2.13,0.85c-0.56,0-1.09-0.12-1.61-0.37
				c-0.51-0.25-0.95-0.59-1.31-1.04l0.8-0.89c0.66,0.73,1.34,1.1,2.06,1.1c0.51,0,0.94-0.17,1.3-0.5c0.36-0.33,0.54-0.73,0.54-1.18
				c0-0.45-0.16-0.82-0.47-1.11s-0.84-0.62-1.58-0.99c-0.74-0.37-1.29-0.78-1.65-1.22c-0.37-0.44-0.55-1.01-0.55-1.71
				c0-0.7,0.26-1.3,0.77-1.79c0.51-0.5,1.2-0.74,2.04-0.74C251.97,119.77,252.85,120.21,253.75,121.11z"/>
			<path class="st0" d="M255.41,117.28c0-0.29,0.1-0.53,0.31-0.74s0.45-0.32,0.74-0.32s0.54,0.1,0.74,0.31
				c0.2,0.21,0.31,0.45,0.31,0.74c0,0.29-0.1,0.54-0.31,0.74c-0.2,0.21-0.45,0.31-0.74,0.31s-0.54-0.1-0.74-0.32
				S255.41,117.55,255.41,117.28z M255.82,120.03h1.28v9.87h-1.28V120.03z"/>
			<path class="st0" d="M262.11,128.33c0,0.33,0.04,0.53,0.13,0.59c0.09,0.06,0.31,0.09,0.67,0.09h0.76v1.08
				c-0.52,0.09-0.93,0.13-1.23,0.13c-0.56,0-0.97-0.14-1.23-0.41s-0.39-0.7-0.39-1.28v-7.43h-1.75v-1.08h1.75v-3.81h1.28v3.81h2.01
				v1.08h-2.01V128.33z"/>
			<path class="st0" d="M264.96,120.03h1.34l3.4,7.6l3.29-7.6h1.36l-5.89,13.47h-1.34l1.9-4.35L264.96,120.03z"/>
			<path class="st0" d="M280.15,125.03c0-1.45,0.5-2.69,1.5-3.72c1-1.03,2.21-1.54,3.64-1.54s2.64,0.51,3.64,1.54
				c1,1.03,1.5,2.26,1.5,3.7c0,1.44-0.49,2.67-1.48,3.69c-0.98,1.02-2.2,1.53-3.65,1.53s-2.67-0.51-3.66-1.53
				C280.65,127.67,280.15,126.45,280.15,125.03z M289.15,125.04c0-1.09-0.38-2.04-1.14-2.83s-1.67-1.2-2.71-1.2s-1.95,0.4-2.7,1.2
				c-0.76,0.8-1.13,1.75-1.13,2.85s0.37,2.04,1.1,2.81c0.73,0.77,1.64,1.15,2.72,1.15s2-0.39,2.75-1.16
				C288.77,127.09,289.15,126.15,289.15,125.04z"/>
			<path class="st0" d="M296.86,116.48v1.25c-0.48-0.21-0.91-0.32-1.29-0.32s-0.62,0.12-0.73,0.36s-0.17,0.63-0.17,1.18v1.08h2.06
				v1.08h-2.06v8.79h-1.28v-8.79h-1.28v-1.08h1.28v-1.28c0-0.87,0.16-1.5,0.48-1.91c0.32-0.41,0.82-0.61,1.51-0.61
				C295.77,116.22,296.26,116.31,296.86,116.48z"/>
			<path class="st0" d="M305.66,128.33c0,0.33,0.04,0.53,0.13,0.59c0.09,0.06,0.31,0.09,0.67,0.09h0.76v1.08
				c-0.52,0.09-0.93,0.13-1.23,0.13c-0.56,0-0.97-0.14-1.23-0.41s-0.39-0.7-0.39-1.28v-7.43h-1.75v-1.08h1.75v-3.81h1.28v3.81h2.01
				v1.08h-2.01V128.33z"/>
			<path class="st0" d="M309.57,116.22h1.28v5.57c1.02-1.35,2.25-2.03,3.7-2.03c0.74,0,1.41,0.2,2.01,0.6s1.02,0.93,1.26,1.58
				c0.25,0.65,0.37,1.61,0.37,2.87v5.07h-1.28v-4.7c0-1.02-0.03-1.72-0.09-2.1c-0.06-0.38-0.2-0.75-0.41-1.1
				c-0.21-0.35-0.49-0.61-0.84-0.79c-0.35-0.18-0.78-0.27-1.28-0.27s-0.98,0.12-1.44,0.35c-0.46,0.24-0.85,0.56-1.17,0.99
				s-0.54,0.85-0.65,1.3c-0.11,0.45-0.17,1.34-0.17,2.69v3.62h-1.28V116.22z"/>
			<path class="st0" d="M329.2,126.7l1.08,0.56c-1.07,1.98-2.64,2.97-4.72,2.97c-1.49,0-2.71-0.51-3.68-1.53
				c-0.97-1.02-1.45-2.25-1.45-3.69c0-1.44,0.49-2.67,1.46-3.7c0.97-1.03,2.17-1.54,3.6-1.54s2.63,0.48,3.6,1.43
				c0.97,0.95,1.48,2.25,1.51,3.9h-8.88c0.04,1.19,0.41,2.15,1.12,2.87c0.71,0.72,1.58,1.09,2.59,1.09
				C327.12,129.06,328.37,128.27,329.2,126.7z M329.2,124c-0.17-0.94-0.61-1.68-1.3-2.21c-0.69-0.53-1.49-0.8-2.4-0.8
				c-1.86,0-3.07,1-3.64,3.01H329.2z"/>
			<path class="st0" d="M332.38,117.28c0-0.29,0.1-0.53,0.31-0.74s0.45-0.32,0.74-0.32s0.54,0.1,0.74,0.31
				c0.2,0.21,0.31,0.45,0.31,0.74c0,0.29-0.1,0.54-0.31,0.74c-0.2,0.21-0.45,0.31-0.74,0.31s-0.54-0.1-0.74-0.32
				S332.38,117.55,332.38,117.28z M332.79,120.03h1.28v9.87h-1.28V120.03z"/>
			<path class="st0" d="M336.21,120.03h1.3v1.43c0.35-0.58,0.68-1.01,1.01-1.28s0.69-0.41,1.1-0.41c0.4,0,0.81,0.11,1.22,0.33
				l-0.67,1.08c-0.19-0.11-0.38-0.17-0.58-0.17c-0.38,0-0.75,0.2-1.09,0.59s-0.59,0.91-0.75,1.53c-0.16,0.63-0.24,1.76-0.24,3.41
				v3.34h-1.3V120.03z"/>
			<path class="st0" d="M26.93,145.11l-0.82,0.84c-0.68-0.66-1.34-0.98-1.99-0.98c-0.42,0-0.77,0.13-1.06,0.4
				c-0.28,0.27-0.43,0.59-0.43,0.98c0,0.39,0.15,0.72,0.46,1c0.3,0.28,0.83,0.61,1.57,1c0.74,0.39,1.31,0.81,1.7,1.26
				c0.39,0.45,0.58,1.01,0.58,1.66c0,0.83-0.29,1.53-0.86,2.1c-0.58,0.57-1.29,0.85-2.13,0.85c-0.56,0-1.09-0.12-1.61-0.37
				c-0.51-0.25-0.95-0.59-1.31-1.04l0.8-0.89c0.66,0.73,1.34,1.1,2.06,1.1c0.51,0,0.94-0.17,1.3-0.5c0.36-0.33,0.54-0.73,0.54-1.18
				c0-0.45-0.16-0.82-0.47-1.11s-0.84-0.62-1.58-0.99c-0.74-0.37-1.29-0.78-1.65-1.22c-0.37-0.44-0.55-1.01-0.55-1.71
				c0-0.7,0.26-1.3,0.77-1.79c0.51-0.5,1.2-0.74,2.04-0.74C25.15,143.77,26.03,144.21,26.93,145.11z"/>
			<path class="st0" d="M31.58,152.33c0,0.33,0.04,0.53,0.13,0.59c0.09,0.06,0.31,0.09,0.67,0.09h0.76v1.08
				c-0.52,0.09-0.93,0.13-1.23,0.13c-0.56,0-0.97-0.14-1.23-0.41s-0.39-0.7-0.39-1.28v-7.43h-1.75v-1.08h1.75v-3.81h1.28v3.81h2.01
				v1.08h-2.01V152.33z"/>
			<path class="st0" d="M45.31,144.03v9.87h-1.25v-1.69c-1.13,1.35-2.42,2.03-3.86,2.03s-2.67-0.52-3.67-1.55s-1.5-2.27-1.5-3.7
				s0.5-2.66,1.5-3.68c1-1.02,2.21-1.53,3.6-1.53c1.61,0,2.92,0.69,3.92,2.06v-1.8H45.31z M44.14,149.01c0-1.13-0.38-2.08-1.13-2.85
				c-0.75-0.77-1.68-1.16-2.78-1.16c-1.1,0-2.02,0.4-2.78,1.2c-0.76,0.8-1.13,1.74-1.13,2.83s0.38,2.03,1.15,2.83
				c0.77,0.8,1.69,1.2,2.76,1.2s1.99-0.38,2.76-1.15C43.75,151.14,44.14,150.17,44.14,149.01z"/>
			<path class="st0" d="M52.24,140.48v1.25c-0.48-0.21-0.91-0.32-1.29-0.32s-0.62,0.12-0.73,0.36s-0.17,0.63-0.17,1.18v1.08h2.06
				v1.08h-2.06v8.79h-1.28v-8.79h-1.28v-1.08h1.28v-1.28c0-0.87,0.16-1.5,0.48-1.91c0.32-0.41,0.82-0.61,1.51-0.61
				C51.15,140.22,51.64,140.31,52.24,140.48z"/>
			<path class="st0" d="M58.07,140.48v1.25c-0.48-0.21-0.91-0.32-1.29-0.32s-0.62,0.12-0.73,0.36s-0.17,0.63-0.17,1.18v1.08h2.06
				v1.08h-2.06v8.79H54.6v-8.79h-1.28v-1.08h1.28v-1.28c0-0.87,0.16-1.5,0.48-1.91c0.32-0.41,0.82-0.61,1.51-0.61
				C56.98,140.22,57.48,140.31,58.07,140.48z"/>
			<path class="st0" d="M74.31,144.03v9.87h-1.25v-1.69c-1.13,1.35-2.42,2.03-3.86,2.03s-2.67-0.52-3.67-1.55s-1.5-2.27-1.5-3.7
				s0.5-2.66,1.5-3.68c1-1.02,2.21-1.53,3.6-1.53c1.61,0,2.92,0.69,3.92,2.06v-1.8H74.31z M73.14,149.01c0-1.13-0.38-2.08-1.13-2.85
				c-0.75-0.77-1.68-1.16-2.78-1.16c-1.1,0-2.02,0.4-2.78,1.2c-0.76,0.8-1.13,1.74-1.13,2.83s0.38,2.03,1.15,2.83
				c0.77,0.8,1.69,1.2,2.76,1.2s1.99-0.38,2.76-1.15C72.76,151.14,73.14,150.17,73.14,149.01z"/>
			<path class="st0" d="M77.17,144.03h1.28v1.76c1.02-1.35,2.25-2.03,3.7-2.03c0.74,0,1.41,0.2,2.01,0.6s1.02,0.93,1.26,1.58
				c0.25,0.65,0.37,1.61,0.37,2.87v5.07h-1.26v-4.7c0-1.15-0.05-1.93-0.16-2.34c-0.1-0.41-0.27-0.76-0.48-1.04
				c-0.22-0.28-0.49-0.5-0.83-0.65c-0.33-0.15-0.74-0.22-1.22-0.22s-0.94,0.12-1.4,0.35c-0.46,0.24-0.85,0.56-1.17,0.99
				s-0.54,0.85-0.65,1.3c-0.11,0.45-0.17,1.34-0.17,2.69v3.62h-1.28V144.03z"/>
			<path class="st0" d="M98.35,140.22v13.67h-1.25v-1.69c-1.13,1.35-2.42,2.03-3.87,2.03c-1.46,0-2.68-0.51-3.67-1.54
				c-0.99-1.03-1.49-2.26-1.49-3.7c0-1.44,0.5-2.67,1.5-3.69c1-1.02,2.21-1.53,3.6-1.53c1.61,0,2.92,0.69,3.92,2.06v-5.61H98.35z
				 M97.18,149.03c0-1.13-0.37-2.08-1.12-2.86c-0.74-0.78-1.67-1.17-2.79-1.17c-1.12,0-2.05,0.4-2.8,1.2s-1.12,1.74-1.12,2.82
				s0.38,2.03,1.15,2.83c0.77,0.8,1.67,1.21,2.72,1.21s1.97-0.38,2.76-1.14C96.78,151.15,97.18,150.19,97.18,149.03z"/>
			<path class="st0" d="M115.52,146.07l-1,0.63c-0.87-1.15-2.06-1.73-3.57-1.73c-1.19,0-2.19,0.38-2.99,1.14
				c-0.81,0.76-1.21,1.71-1.21,2.83s0.4,2.09,1.19,2.9c0.79,0.8,1.8,1.21,3.01,1.21c1.45,0,2.64-0.58,3.57-1.73l1,0.67
				c-0.5,0.72-1.16,1.27-2,1.65s-1.74,0.58-2.7,0.58c-1.52,0-2.8-0.5-3.82-1.5c-1.02-1-1.53-2.23-1.53-3.68s0.52-2.69,1.55-3.73
				s2.36-1.55,3.99-1.55c0.95,0,1.84,0.21,2.65,0.61C114.46,144.79,115.09,145.35,115.52,146.07z"/>
			<path class="st0" d="M126.37,153.89h-1.28v-1.76c-1.02,1.35-2.25,2.03-3.7,2.03c-0.74,0-1.41-0.2-2.01-0.6
				c-0.59-0.4-1.02-0.93-1.26-1.58s-0.37-1.61-0.37-2.87v-5.07h1.26v4.7c0,1.15,0.05,1.93,0.16,2.34c0.11,0.41,0.27,0.75,0.48,1.04
				s0.49,0.5,0.83,0.65c0.33,0.15,0.74,0.22,1.22,0.22c0.48,0,0.94-0.12,1.4-0.35s0.85-0.56,1.17-0.99c0.32-0.42,0.54-0.85,0.65-1.3
				c0.11-0.45,0.17-1.34,0.17-2.69v-3.62h1.28V153.89z"/>
			<path class="st0" d="M134.15,145.11l-0.82,0.84c-0.68-0.66-1.34-0.98-1.99-0.98c-0.42,0-0.77,0.13-1.06,0.4
				c-0.28,0.27-0.43,0.59-0.43,0.98c0,0.39,0.15,0.72,0.46,1c0.3,0.28,0.83,0.61,1.57,1c0.74,0.39,1.31,0.81,1.7,1.26
				c0.39,0.45,0.58,1.01,0.58,1.66c0,0.83-0.29,1.53-0.86,2.1c-0.58,0.57-1.29,0.85-2.13,0.85c-0.56,0-1.09-0.12-1.61-0.37
				c-0.51-0.25-0.95-0.59-1.31-1.04l0.8-0.89c0.66,0.73,1.34,1.1,2.06,1.1c0.51,0,0.94-0.17,1.3-0.5c0.36-0.33,0.54-0.73,0.54-1.18
				c0-0.45-0.16-0.82-0.47-1.11s-0.84-0.62-1.58-0.99c-0.74-0.37-1.29-0.78-1.65-1.22c-0.37-0.44-0.55-1.01-0.55-1.71
				c0-0.7,0.26-1.3,0.77-1.79c0.51-0.5,1.2-0.74,2.04-0.74C132.37,143.77,133.25,144.21,134.15,145.11z"/>
			<path class="st0" d="M138.8,152.33c0,0.33,0.04,0.53,0.13,0.59c0.09,0.06,0.31,0.09,0.67,0.09h0.76v1.08
				c-0.52,0.09-0.93,0.13-1.23,0.13c-0.56,0-0.97-0.14-1.23-0.41s-0.39-0.7-0.39-1.28v-7.43h-1.75v-1.08h1.75v-3.81h1.28v3.81h2.01
				v1.08h-2.01V152.33z"/>
			<path class="st0" d="M142.24,149.03c0-1.45,0.5-2.69,1.5-3.72c1-1.03,2.21-1.54,3.64-1.54s2.64,0.51,3.64,1.54
				c1,1.03,1.5,2.26,1.5,3.7c0,1.44-0.49,2.67-1.48,3.69c-0.98,1.02-2.2,1.53-3.65,1.53s-2.67-0.51-3.66-1.53
				C142.73,151.67,142.24,150.45,142.24,149.03z M151.23,149.04c0-1.09-0.38-2.04-1.14-2.83s-1.67-1.2-2.71-1.2s-1.95,0.4-2.7,1.2
				c-0.76,0.8-1.13,1.75-1.13,2.85s0.37,2.04,1.1,2.81c0.73,0.77,1.64,1.15,2.72,1.15s2-0.39,2.75-1.16
				C150.85,151.09,151.23,150.15,151.23,149.04z"/>
			<path class="st0" d="M154.87,144.03h1.26v1.71c0.88-1.31,2.01-1.97,3.38-1.97c0.73,0,1.38,0.21,1.96,0.62
				c0.58,0.42,0.96,1,1.16,1.76c0.41-0.77,0.93-1.36,1.56-1.77c0.63-0.41,1.36-0.61,2.18-0.61c0.82,0,1.57,0.32,2.24,0.96
				c0.67,0.64,1,1.9,1,3.78v5.39h-1.3v-5.39c0-0.9-0.06-1.57-0.17-2c-0.11-0.43-0.35-0.79-0.72-1.08c-0.37-0.29-0.86-0.44-1.48-0.44
				s-1.19,0.2-1.72,0.61c-0.53,0.41-0.9,0.93-1.1,1.56s-0.3,1.59-0.3,2.86v3.86h-1.25v-5.05c0-1.05-0.06-1.8-0.17-2.26
				s-0.36-0.83-0.74-1.13c-0.38-0.3-0.85-0.46-1.41-0.46s-1.08,0.16-1.57,0.49s-0.87,0.78-1.15,1.35c-0.28,0.57-0.42,1.53-0.42,2.88
				v4.18h-1.26V144.03z"/>
			<path class="st0" d="M180.6,150.7l1.08,0.56c-1.07,1.98-2.64,2.97-4.72,2.97c-1.49,0-2.71-0.51-3.68-1.53
				c-0.97-1.02-1.45-2.25-1.45-3.69c0-1.44,0.49-2.67,1.46-3.7c0.97-1.03,2.17-1.54,3.6-1.54s2.63,0.48,3.6,1.43
				c0.97,0.95,1.48,2.25,1.51,3.9h-8.88c0.04,1.19,0.41,2.15,1.12,2.87s1.58,1.09,2.59,1.09
				C178.52,153.06,179.77,152.27,180.6,150.7z M180.6,148c-0.17-0.94-0.61-1.68-1.3-2.21c-0.69-0.53-1.49-0.8-2.4-0.8
				c-1.86,0-3.07,1-3.64,3.01H180.6z"/>
			<path class="st0" d="M183.89,144.03h1.3v1.43c0.35-0.58,0.68-1.01,1.01-1.28s0.69-0.41,1.1-0.41c0.4,0,0.81,0.11,1.22,0.33
				l-0.67,1.08c-0.19-0.11-0.38-0.17-0.58-0.17c-0.38,0-0.75,0.2-1.09,0.59s-0.59,0.91-0.75,1.53c-0.16,0.63-0.24,1.76-0.24,3.41
				v3.34h-1.3V144.03z"/>
			<path class="st0" d="M194.93,145.11l-0.82,0.84c-0.68-0.66-1.34-0.98-1.99-0.98c-0.42,0-0.77,0.13-1.06,0.4
				c-0.28,0.27-0.43,0.59-0.43,0.98c0,0.39,0.15,0.72,0.46,1c0.3,0.28,0.83,0.61,1.57,1c0.74,0.39,1.31,0.81,1.7,1.26
				c0.39,0.45,0.58,1.01,0.58,1.66c0,0.83-0.29,1.53-0.86,2.1c-0.58,0.57-1.29,0.85-2.13,0.85c-0.56,0-1.09-0.12-1.61-0.37
				c-0.51-0.25-0.95-0.59-1.31-1.04l0.8-0.89c0.66,0.73,1.34,1.1,2.06,1.1c0.51,0,0.94-0.17,1.3-0.5c0.36-0.33,0.54-0.73,0.54-1.18
				c0-0.45-0.16-0.82-0.47-1.11s-0.84-0.62-1.58-0.99c-0.74-0.37-1.29-0.78-1.65-1.22c-0.37-0.44-0.55-1.01-0.55-1.71
				c0-0.7,0.26-1.3,0.77-1.79c0.51-0.5,1.2-0.74,2.04-0.74C193.15,143.77,194.03,144.21,194.93,145.11z"/>
			<path class="st0" d="M198.44,151.44l1.23,0.58l-1.84,3.44l-0.91-0.39L198.44,151.44z"/>
			<path class="st0" d="M206.97,144.03h1.28v1.76c1.02-1.35,2.25-2.03,3.7-2.03c0.74,0,1.41,0.2,2.01,0.6s1.02,0.93,1.26,1.58
				c0.25,0.65,0.37,1.61,0.37,2.87v5.07h-1.26v-4.7c0-1.15-0.05-1.93-0.16-2.34c-0.1-0.41-0.27-0.76-0.48-1.04
				c-0.22-0.28-0.49-0.5-0.83-0.65c-0.33-0.15-0.74-0.22-1.22-0.22s-0.94,0.12-1.4,0.35c-0.46,0.24-0.85,0.56-1.17,0.99
				s-0.54,0.85-0.65,1.3c-0.11,0.45-0.17,1.34-0.17,2.69v3.62h-1.28V144.03z"/>
			<path class="st0" d="M226.61,150.7l1.08,0.56c-1.07,1.98-2.64,2.97-4.72,2.97c-1.49,0-2.71-0.51-3.68-1.53
				c-0.97-1.02-1.45-2.25-1.45-3.69c0-1.44,0.49-2.67,1.46-3.7c0.97-1.03,2.17-1.54,3.6-1.54s2.63,0.48,3.6,1.43
				c0.97,0.95,1.48,2.25,1.51,3.9h-8.88c0.04,1.19,0.41,2.15,1.12,2.87s1.58,1.09,2.59,1.09
				C224.53,153.06,225.78,152.27,226.61,150.7z M226.61,148c-0.17-0.94-0.61-1.68-1.3-2.21c-0.69-0.53-1.49-0.8-2.4-0.8
				c-1.86,0-3.07,1-3.64,3.01H226.61z"/>
			<path class="st0" d="M229.45,144.03h1.36l3.29,7.51l3.29-7.51h1.36l-4.52,10.2H234L229.45,144.03z"/>
			<path class="st0" d="M248.98,150.7l1.08,0.56c-1.07,1.98-2.64,2.97-4.72,2.97c-1.49,0-2.71-0.51-3.68-1.53
				c-0.97-1.02-1.45-2.25-1.45-3.69c0-1.44,0.49-2.67,1.46-3.7c0.97-1.03,2.17-1.54,3.6-1.54s2.63,0.48,3.6,1.43
				c0.97,0.95,1.48,2.25,1.51,3.9h-8.88c0.04,1.19,0.41,2.15,1.12,2.87s1.58,1.09,2.59,1.09
				C246.9,153.06,248.15,152.27,248.98,150.7z M248.98,148c-0.17-0.94-0.61-1.68-1.3-2.21c-0.69-0.53-1.49-0.8-2.4-0.8
				c-1.86,0-3.07,1-3.64,3.01H248.98z"/>
			<path class="st0" d="M252.27,144.03h1.3v1.43c0.35-0.58,0.68-1.01,1.01-1.28s0.69-0.41,1.1-0.41c0.4,0,0.81,0.11,1.22,0.33
				l-0.67,1.08c-0.19-0.11-0.38-0.17-0.58-0.17c-0.38,0-0.75,0.2-1.09,0.59s-0.59,0.91-0.75,1.53c-0.16,0.63-0.24,1.76-0.24,3.41
				v3.34h-1.3V144.03z"/>
			<path class="st0" d="M272.63,146.07l-1,0.63c-0.87-1.15-2.06-1.73-3.57-1.73c-1.19,0-2.19,0.38-2.99,1.14
				c-0.81,0.76-1.21,1.71-1.21,2.83s0.4,2.09,1.19,2.9c0.79,0.8,1.8,1.21,3.01,1.21c1.45,0,2.64-0.58,3.57-1.73l1,0.67
				c-0.5,0.72-1.16,1.27-2,1.65s-1.74,0.58-2.7,0.58c-1.52,0-2.8-0.5-3.82-1.5c-1.02-1-1.53-2.23-1.53-3.68s0.52-2.69,1.55-3.73
				s2.36-1.55,3.99-1.55c0.95,0,1.84,0.21,2.65,0.61C271.57,144.79,272.2,145.35,272.63,146.07z"/>
			<path class="st0" d="M274.54,149.03c0-1.45,0.5-2.69,1.5-3.72c1-1.03,2.21-1.54,3.64-1.54s2.64,0.51,3.64,1.54
				c1,1.03,1.5,2.26,1.5,3.7c0,1.44-0.49,2.67-1.48,3.69c-0.98,1.02-2.2,1.53-3.65,1.53s-2.67-0.51-3.66-1.53
				C275.04,151.67,274.54,150.45,274.54,149.03z M283.53,149.04c0-1.09-0.38-2.04-1.14-2.83s-1.67-1.2-2.71-1.2s-1.95,0.4-2.7,1.2
				c-0.76,0.8-1.13,1.75-1.13,2.85s0.37,2.04,1.1,2.81c0.73,0.77,1.64,1.15,2.72,1.15s2-0.39,2.75-1.16
				C283.16,151.09,283.53,150.15,283.53,149.04z"/>
			<path class="st0" d="M287.18,144.03h1.28v1.76c1.02-1.35,2.25-2.03,3.7-2.03c0.74,0,1.41,0.2,2.01,0.6s1.02,0.93,1.26,1.58
				c0.25,0.65,0.37,1.61,0.37,2.87v5.07h-1.26v-4.7c0-1.15-0.05-1.93-0.16-2.34c-0.1-0.41-0.27-0.76-0.48-1.04
				c-0.22-0.28-0.49-0.5-0.83-0.65c-0.33-0.15-0.74-0.22-1.22-0.22s-0.94,0.12-1.4,0.35c-0.46,0.24-0.85,0.56-1.17,0.99
				s-0.54,0.85-0.65,1.3c-0.11,0.45-0.17,1.34-0.17,2.69v3.62h-1.28V144.03z"/>
			<path class="st0" d="M308.36,140.22v13.67h-1.25v-1.69c-1.13,1.35-2.42,2.03-3.87,2.03c-1.46,0-2.68-0.51-3.67-1.54
				c-0.99-1.03-1.49-2.26-1.49-3.7c0-1.44,0.5-2.67,1.5-3.69c1-1.02,2.21-1.53,3.6-1.53c1.61,0,2.92,0.69,3.92,2.06v-5.61H308.36z
				 M307.19,149.03c0-1.13-0.37-2.08-1.12-2.86c-0.74-0.78-1.67-1.17-2.79-1.17c-1.12,0-2.05,0.4-2.8,1.2s-1.12,1.74-1.12,2.82
				s0.38,2.03,1.15,2.83c0.77,0.8,1.67,1.21,2.72,1.21s1.97-0.38,2.76-1.14C306.79,151.15,307.19,150.19,307.19,149.03z"/>
			<path class="st0" d="M319.71,153.89h-1.28v-1.76c-1.02,1.35-2.25,2.03-3.7,2.03c-0.74,0-1.41-0.2-2.01-0.6
				c-0.59-0.4-1.02-0.93-1.26-1.58s-0.37-1.61-0.37-2.87v-5.07h1.26v4.7c0,1.15,0.05,1.93,0.16,2.34c0.11,0.41,0.27,0.75,0.48,1.04
				s0.49,0.5,0.83,0.65c0.33,0.15,0.74,0.22,1.22,0.22c0.48,0,0.94-0.12,1.4-0.35s0.85-0.56,1.17-0.99c0.32-0.42,0.54-0.85,0.65-1.3
				c0.11-0.45,0.17-1.34,0.17-2.69v-3.62h1.28V153.89z"/>
			<path class="st0" d="M332.18,146.07l-1,0.63c-0.87-1.15-2.06-1.73-3.57-1.73c-1.19,0-2.19,0.38-2.99,1.14
				c-0.81,0.76-1.21,1.71-1.21,2.83s0.4,2.09,1.19,2.9c0.79,0.8,1.8,1.21,3.01,1.21c1.45,0,2.64-0.58,3.57-1.73l1,0.67
				c-0.5,0.72-1.16,1.27-2,1.65s-1.74,0.58-2.7,0.58c-1.52,0-2.8-0.5-3.82-1.5c-1.02-1-1.53-2.23-1.53-3.68s0.52-2.69,1.55-3.73
				s2.36-1.55,3.99-1.55c0.95,0,1.84,0.21,2.65,0.61C331.12,144.79,331.74,145.35,332.18,146.07z"/>
			<path class="st0" d="M336.95,152.33c0,0.33,0.04,0.53,0.13,0.59c0.09,0.06,0.31,0.09,0.67,0.09h0.76v1.08
				c-0.52,0.09-0.93,0.13-1.23,0.13c-0.56,0-0.97-0.14-1.23-0.41s-0.39-0.7-0.39-1.28v-7.43h-1.75v-1.08h1.75v-3.81h1.28v3.81h2.01
				v1.08h-2.01V152.33z"/>
			<path class="st0" d="M21.51,173.03c0-1.45,0.5-2.69,1.5-3.72c1-1.03,2.21-1.54,3.64-1.54s2.64,0.51,3.64,1.54
				c1,1.03,1.5,2.26,1.5,3.7c0,1.44-0.49,2.67-1.48,3.69c-0.98,1.02-2.2,1.53-3.65,1.53s-2.67-0.51-3.66-1.53
				C22,175.67,21.51,174.45,21.51,173.03z M30.5,173.04c0-1.09-0.38-2.04-1.14-2.83s-1.67-1.2-2.71-1.2s-1.95,0.4-2.7,1.2
				c-0.76,0.8-1.13,1.75-1.13,2.85s0.37,2.04,1.1,2.81c0.73,0.77,1.64,1.15,2.72,1.15s2-0.39,2.75-1.16
				C30.12,175.09,30.5,174.15,30.5,173.04z"/>
			<path class="st0" d="M33.66,168.03h1.3v1.43c0.35-0.58,0.68-1.01,1.01-1.28s0.69-0.41,1.1-0.41c0.4,0,0.81,0.11,1.22,0.33
				l-0.67,1.08c-0.19-0.11-0.38-0.17-0.58-0.17c-0.38,0-0.75,0.2-1.09,0.59s-0.59,0.91-0.75,1.53c-0.16,0.63-0.24,1.76-0.24,3.41
				v3.34h-1.3V168.03z"/>
			<path class="st0" d="M54.02,170.07l-1,0.63c-0.87-1.15-2.06-1.73-3.57-1.73c-1.19,0-2.19,0.38-2.99,1.14
				c-0.81,0.76-1.21,1.71-1.21,2.83s0.4,2.09,1.19,2.9c0.79,0.8,1.8,1.21,3.01,1.21c1.45,0,2.64-0.58,3.57-1.73l1,0.67
				c-0.5,0.72-1.16,1.27-2,1.65s-1.74,0.58-2.7,0.58c-1.52,0-2.8-0.5-3.82-1.5c-1.02-1-1.53-2.23-1.53-3.68s0.52-2.69,1.55-3.73
				s2.36-1.55,3.99-1.55c0.95,0,1.84,0.21,2.65,0.61C52.96,168.79,53.59,169.35,54.02,170.07z"/>
			<path class="st0" d="M55.93,173.03c0-1.45,0.5-2.69,1.5-3.72c1-1.03,2.21-1.54,3.64-1.54s2.64,0.51,3.64,1.54
				c1,1.03,1.5,2.26,1.5,3.7c0,1.44-0.49,2.67-1.48,3.69c-0.98,1.02-2.2,1.53-3.65,1.53s-2.67-0.51-3.66-1.53
				C56.43,175.67,55.93,174.45,55.93,173.03z M64.93,173.04c0-1.09-0.38-2.04-1.14-2.83s-1.67-1.2-2.71-1.2s-1.95,0.4-2.7,1.2
				c-0.76,0.8-1.13,1.75-1.13,2.85s0.37,2.04,1.1,2.81c0.73,0.77,1.64,1.15,2.72,1.15s2-0.39,2.75-1.16
				C64.55,175.09,64.93,174.15,64.93,173.04z"/>
			<path class="st0" d="M68.57,168.03h1.26v1.71c0.88-1.31,2.01-1.97,3.38-1.97c0.73,0,1.38,0.21,1.96,0.62
				c0.58,0.42,0.96,1,1.16,1.76c0.41-0.77,0.93-1.36,1.56-1.77c0.63-0.41,1.36-0.61,2.18-0.61c0.82,0,1.57,0.32,2.24,0.96
				c0.67,0.64,1,1.9,1,3.78v5.39h-1.3v-5.39c0-0.9-0.06-1.57-0.17-2c-0.11-0.43-0.35-0.79-0.72-1.08c-0.37-0.29-0.86-0.44-1.48-0.44
				s-1.19,0.2-1.72,0.61c-0.53,0.41-0.9,0.93-1.1,1.56s-0.3,1.59-0.3,2.86v3.86h-1.25v-5.05c0-1.05-0.06-1.8-0.17-2.26
				s-0.36-0.83-0.74-1.13c-0.38-0.3-0.85-0.46-1.41-0.46s-1.08,0.16-1.57,0.49s-0.87,0.78-1.15,1.35c-0.28,0.57-0.42,1.53-0.42,2.88
				v4.18h-1.26V168.03z"/>
			<path class="st0" d="M86,168.03h1.26v1.71c0.88-1.31,2.01-1.97,3.38-1.97c0.73,0,1.38,0.21,1.96,0.62c0.58,0.42,0.96,1,1.16,1.76
				c0.41-0.77,0.93-1.36,1.56-1.77c0.63-0.41,1.36-0.61,2.18-0.61c0.82,0,1.57,0.32,2.24,0.96c0.67,0.64,1,1.9,1,3.78v5.39h-1.3
				v-5.39c0-0.9-0.06-1.57-0.17-2c-0.11-0.43-0.35-0.79-0.72-1.08c-0.37-0.29-0.86-0.44-1.48-0.44s-1.19,0.2-1.72,0.61
				c-0.53,0.41-0.9,0.93-1.1,1.56s-0.3,1.59-0.3,2.86v3.86h-1.25v-5.05c0-1.05-0.06-1.8-0.17-2.26s-0.36-0.83-0.74-1.13
				c-0.38-0.3-0.85-0.46-1.41-0.46s-1.08,0.16-1.57,0.49s-0.87,0.78-1.15,1.35c-0.28,0.57-0.42,1.53-0.42,2.88v4.18H86V168.03z"/>
			<path class="st0" d="M102.83,165.28c0-0.29,0.1-0.53,0.31-0.74s0.45-0.32,0.74-0.32s0.54,0.1,0.74,0.31
				c0.2,0.21,0.31,0.45,0.31,0.74c0,0.29-0.1,0.54-0.31,0.74c-0.2,0.21-0.45,0.31-0.74,0.31s-0.54-0.1-0.74-0.32
				S102.83,165.55,102.83,165.28z M103.24,168.03h1.28v9.87h-1.28V168.03z"/>
			<path class="st0" d="M112.1,169.11l-0.82,0.84c-0.68-0.66-1.34-0.98-1.99-0.98c-0.42,0-0.77,0.13-1.06,0.4
				c-0.28,0.27-0.43,0.59-0.43,0.98c0,0.39,0.15,0.72,0.46,1c0.3,0.28,0.83,0.61,1.57,1c0.74,0.39,1.31,0.81,1.7,1.26
				c0.39,0.45,0.58,1.01,0.58,1.66c0,0.83-0.29,1.53-0.86,2.1c-0.58,0.57-1.29,0.85-2.13,0.85c-0.56,0-1.09-0.12-1.61-0.37
				c-0.51-0.25-0.95-0.59-1.31-1.04l0.8-0.89c0.66,0.73,1.34,1.1,2.06,1.1c0.51,0,0.94-0.17,1.3-0.5c0.36-0.33,0.54-0.73,0.54-1.18
				c0-0.45-0.16-0.82-0.47-1.11s-0.84-0.62-1.58-0.99c-0.74-0.37-1.29-0.78-1.65-1.22c-0.37-0.44-0.55-1.01-0.55-1.71
				c0-0.7,0.26-1.3,0.77-1.79c0.51-0.5,1.2-0.74,2.04-0.74C110.32,167.77,111.2,168.21,112.1,169.11z"/>
			<path class="st0" d="M119.31,169.11l-0.82,0.84c-0.68-0.66-1.34-0.98-1.99-0.98c-0.42,0-0.77,0.13-1.06,0.4
				c-0.28,0.27-0.43,0.59-0.43,0.98c0,0.39,0.15,0.72,0.46,1c0.3,0.28,0.83,0.61,1.57,1c0.74,0.39,1.31,0.81,1.7,1.26
				c0.39,0.45,0.58,1.01,0.58,1.66c0,0.83-0.29,1.53-0.86,2.1c-0.58,0.57-1.29,0.85-2.13,0.85c-0.56,0-1.09-0.12-1.61-0.37
				c-0.51-0.25-0.95-0.59-1.31-1.04l0.8-0.89c0.66,0.73,1.34,1.1,2.06,1.1c0.51,0,0.94-0.17,1.3-0.5c0.36-0.33,0.54-0.73,0.54-1.18
				c0-0.45-0.16-0.82-0.47-1.11s-0.84-0.62-1.58-0.99c-0.74-0.37-1.29-0.78-1.65-1.22c-0.37-0.44-0.55-1.01-0.55-1.71
				c0-0.7,0.26-1.3,0.77-1.79c0.51-0.5,1.2-0.74,2.04-0.74C117.53,167.77,118.4,168.21,119.31,169.11z"/>
			<path class="st0" d="M120.96,165.28c0-0.29,0.1-0.53,0.31-0.74s0.45-0.32,0.74-0.32s0.54,0.1,0.74,0.31
				c0.2,0.21,0.31,0.45,0.31,0.74c0,0.29-0.1,0.54-0.31,0.74c-0.2,0.21-0.45,0.31-0.74,0.31s-0.54-0.1-0.74-0.32
				S120.96,165.55,120.96,165.28z M121.37,168.03h1.28v9.87h-1.28V168.03z"/>
			<path class="st0" d="M124.81,173.03c0-1.45,0.5-2.69,1.5-3.72c1-1.03,2.21-1.54,3.64-1.54s2.64,0.51,3.64,1.54
				c1,1.03,1.5,2.26,1.5,3.7c0,1.44-0.49,2.67-1.48,3.69c-0.98,1.02-2.2,1.53-3.65,1.53s-2.67-0.51-3.66-1.53
				C125.3,175.67,124.81,174.45,124.81,173.03z M133.8,173.04c0-1.09-0.38-2.04-1.14-2.83s-1.67-1.2-2.71-1.2s-1.95,0.4-2.7,1.2
				c-0.76,0.8-1.13,1.75-1.13,2.85s0.37,2.04,1.1,2.81c0.73,0.77,1.64,1.15,2.72,1.15s2-0.39,2.75-1.16
				C133.43,175.09,133.8,174.15,133.8,173.04z"/>
			<path class="st0" d="M137.44,168.03h1.28v1.76c1.02-1.35,2.25-2.03,3.7-2.03c0.74,0,1.41,0.2,2.01,0.6s1.02,0.93,1.26,1.58
				c0.25,0.65,0.37,1.61,0.37,2.87v5.07h-1.26v-4.7c0-1.15-0.05-1.93-0.16-2.34c-0.1-0.41-0.27-0.76-0.48-1.04
				c-0.22-0.28-0.49-0.5-0.83-0.65c-0.33-0.15-0.74-0.22-1.22-0.22s-0.94,0.12-1.4,0.35c-0.46,0.24-0.85,0.56-1.17,0.99
				s-0.54,0.85-0.65,1.3c-0.11,0.45-0.17,1.34-0.17,2.69v3.62h-1.28V168.03z"/>
			<path class="st0" d="M163.25,168.03v9.87H162v-1.69c-1.13,1.35-2.42,2.03-3.86,2.03s-2.67-0.52-3.67-1.55s-1.5-2.27-1.5-3.7
				s0.5-2.66,1.5-3.68c1-1.02,2.21-1.53,3.6-1.53c1.61,0,2.92,0.69,3.92,2.06v-1.8H163.25z M162.08,173.01
				c0-1.13-0.38-2.08-1.13-2.85c-0.75-0.77-1.68-1.16-2.78-1.16c-1.1,0-2.02,0.4-2.78,1.2c-0.76,0.8-1.13,1.74-1.13,2.83
				s0.38,2.03,1.15,2.83c0.77,0.8,1.69,1.2,2.76,1.2s1.99-0.38,2.76-1.15C161.7,175.14,162.08,174.17,162.08,173.01z"/>
			<path class="st0" d="M166.11,168.03h1.28v1.76c1.02-1.35,2.25-2.03,3.7-2.03c0.74,0,1.41,0.2,2.01,0.6s1.02,0.93,1.26,1.58
				c0.25,0.65,0.37,1.61,0.37,2.87v5.07h-1.26v-4.7c0-1.15-0.05-1.93-0.16-2.34c-0.1-0.41-0.27-0.76-0.48-1.04
				c-0.22-0.28-0.49-0.5-0.83-0.65c-0.33-0.15-0.74-0.22-1.22-0.22s-0.94,0.12-1.4,0.35c-0.46,0.24-0.85,0.56-1.17,0.99
				s-0.54,0.85-0.65,1.3c-0.11,0.45-0.17,1.34-0.17,2.69v3.62h-1.28V168.03z"/>
			<path class="st0" d="M176.85,165.28c0-0.29,0.1-0.53,0.31-0.74s0.45-0.32,0.74-0.32s0.54,0.1,0.74,0.31
				c0.2,0.21,0.31,0.45,0.31,0.74c0,0.29-0.1,0.54-0.31,0.74c-0.2,0.21-0.45,0.31-0.74,0.31s-0.54-0.1-0.74-0.32
				S176.85,165.55,176.85,165.28z M177.26,168.03h1.28v9.87h-1.28V168.03z"/>
			<path class="st0" d="M181.16,168.03h1.26v1.71c0.88-1.31,2.01-1.97,3.38-1.97c0.73,0,1.38,0.21,1.96,0.62
				c0.58,0.42,0.96,1,1.16,1.76c0.41-0.77,0.93-1.36,1.56-1.77c0.63-0.41,1.36-0.61,2.18-0.61c0.82,0,1.57,0.32,2.24,0.96
				c0.67,0.64,1,1.9,1,3.78v5.39h-1.3v-5.39c0-0.9-0.06-1.57-0.17-2c-0.11-0.43-0.35-0.79-0.72-1.08c-0.37-0.29-0.86-0.44-1.48-0.44
				s-1.19,0.2-1.72,0.61c-0.53,0.41-0.9,0.93-1.1,1.56s-0.3,1.59-0.3,2.86v3.86h-1.25v-5.05c0-1.05-0.06-1.8-0.17-2.26
				s-0.36-0.83-0.74-1.13c-0.38-0.3-0.85-0.46-1.41-0.46s-1.08,0.16-1.57,0.49s-0.87,0.78-1.15,1.35c-0.28,0.57-0.42,1.53-0.42,2.88
				v4.18h-1.26V168.03z"/>
			<path class="st0" d="M208.42,168.03v9.87h-1.25v-1.69c-1.13,1.35-2.42,2.03-3.86,2.03s-2.67-0.52-3.67-1.55s-1.5-2.27-1.5-3.7
				s0.5-2.66,1.5-3.68c1-1.02,2.21-1.53,3.6-1.53c1.61,0,2.92,0.69,3.92,2.06v-1.8H208.42z M207.25,173.01
				c0-1.13-0.38-2.08-1.13-2.85c-0.75-0.77-1.68-1.16-2.78-1.16c-1.1,0-2.02,0.4-2.78,1.2c-0.76,0.8-1.13,1.74-1.13,2.83
				s0.38,2.03,1.15,2.83c0.77,0.8,1.69,1.2,2.76,1.2s1.99-0.38,2.76-1.15C206.86,175.14,207.25,174.17,207.25,173.01z"/>
			<path class="st0" d="M211.09,164.22h1.26v13.67h-1.26V164.22z"/>
			<path class="st0" d="M222.03,176.33c0,0.33,0.04,0.53,0.13,0.59c0.09,0.06,0.31,0.09,0.67,0.09h0.76v1.08
				c-0.52,0.09-0.93,0.13-1.23,0.13c-0.56,0-0.97-0.14-1.23-0.41s-0.39-0.7-0.39-1.28v-7.43h-1.75v-1.08h1.75v-3.81h1.28v3.81h2.01
				v1.08h-2.01V176.33z"/>
			<path class="st0" d="M234.24,174.7l1.08,0.56c-1.07,1.98-2.64,2.97-4.72,2.97c-1.49,0-2.71-0.51-3.68-1.53
				c-0.97-1.02-1.45-2.25-1.45-3.69c0-1.44,0.49-2.67,1.46-3.7c0.97-1.03,2.17-1.54,3.6-1.54s2.63,0.48,3.6,1.43
				c0.97,0.95,1.48,2.25,1.51,3.9h-8.88c0.04,1.19,0.41,2.15,1.12,2.87s1.58,1.09,2.59,1.09
				C232.16,177.06,233.41,176.27,234.24,174.7z M234.24,172c-0.17-0.94-0.61-1.68-1.3-2.21c-0.69-0.53-1.49-0.8-2.4-0.8
				c-1.86,0-3.07,1-3.64,3.01H234.24z"/>
			<path class="st0" d="M242.98,169.11l-0.82,0.84c-0.68-0.66-1.34-0.98-1.99-0.98c-0.42,0-0.77,0.13-1.06,0.4
				c-0.28,0.27-0.43,0.59-0.43,0.98c0,0.39,0.15,0.72,0.46,1c0.3,0.28,0.83,0.61,1.57,1c0.74,0.39,1.31,0.81,1.7,1.26
				c0.39,0.45,0.58,1.01,0.58,1.66c0,0.83-0.29,1.53-0.86,2.1c-0.58,0.57-1.29,0.85-2.13,0.85c-0.56,0-1.09-0.12-1.61-0.37
				c-0.51-0.25-0.95-0.59-1.31-1.04l0.8-0.89c0.66,0.73,1.34,1.1,2.06,1.1c0.51,0,0.94-0.17,1.3-0.5c0.36-0.33,0.54-0.73,0.54-1.18
				c0-0.45-0.16-0.82-0.47-1.11s-0.84-0.62-1.58-0.99c-0.74-0.37-1.29-0.78-1.65-1.22c-0.37-0.44-0.55-1.01-0.55-1.71
				c0-0.7,0.26-1.3,0.77-1.79c0.51-0.5,1.2-0.74,2.04-0.74C241.19,167.77,242.07,168.21,242.98,169.11z"/>
			<path class="st0" d="M247.62,176.33c0,0.33,0.04,0.53,0.13,0.59c0.09,0.06,0.31,0.09,0.67,0.09h0.76v1.08
				c-0.52,0.09-0.93,0.13-1.23,0.13c-0.56,0-0.97-0.14-1.23-0.41s-0.39-0.7-0.39-1.28v-7.43h-1.75v-1.08h1.75v-3.81h1.28v3.81h2.01
				v1.08h-2.01V176.33z"/>
			<path class="st0" d="M256.48,169.11l-0.82,0.84c-0.68-0.66-1.34-0.98-1.99-0.98c-0.42,0-0.77,0.13-1.06,0.4
				c-0.28,0.27-0.43,0.59-0.43,0.98c0,0.39,0.15,0.72,0.46,1c0.3,0.28,0.83,0.61,1.57,1c0.74,0.39,1.31,0.81,1.7,1.26
				c0.39,0.45,0.58,1.01,0.58,1.66c0,0.83-0.29,1.53-0.86,2.1c-0.58,0.57-1.29,0.85-2.13,0.85c-0.56,0-1.09-0.12-1.61-0.37
				c-0.51-0.25-0.95-0.59-1.31-1.04l0.8-0.89c0.66,0.73,1.34,1.1,2.06,1.1c0.51,0,0.94-0.17,1.3-0.5c0.36-0.33,0.54-0.73,0.54-1.18
				c0-0.45-0.16-0.82-0.47-1.11s-0.84-0.62-1.58-0.99c-0.74-0.37-1.29-0.78-1.65-1.22c-0.37-0.44-0.55-1.01-0.55-1.71
				c0-0.7,0.26-1.3,0.77-1.79c0.51-0.5,1.2-0.74,2.04-0.74C254.7,167.77,255.58,168.21,256.48,169.11z"/>
			<path class="st0" d="M259.99,175.44l1.23,0.58l-1.84,3.44l-0.91-0.39L259.99,175.44z"/>
			<path class="st0" d="M278.35,168.03v9.87h-1.25v-1.69c-1.13,1.35-2.42,2.03-3.86,2.03s-2.67-0.52-3.67-1.55s-1.5-2.27-1.5-3.7
				s0.5-2.66,1.5-3.68c1-1.02,2.21-1.53,3.6-1.53c1.61,0,2.92,0.69,3.92,2.06v-1.8H278.35z M277.18,173.01
				c0-1.13-0.38-2.08-1.13-2.85c-0.75-0.77-1.68-1.16-2.78-1.16c-1.1,0-2.02,0.4-2.78,1.2c-0.76,0.8-1.13,1.74-1.13,2.83
				s0.38,2.03,1.15,2.83c0.77,0.8,1.69,1.2,2.76,1.2s1.99-0.38,2.76-1.15C276.8,175.14,277.18,174.17,277.18,173.01z"/>
			<path class="st0" d="M281.21,168.03h1.28v1.76c1.02-1.35,2.25-2.03,3.7-2.03c0.74,0,1.41,0.2,2.01,0.6s1.02,0.93,1.26,1.58
				c0.25,0.65,0.37,1.61,0.37,2.87v5.07h-1.26v-4.7c0-1.15-0.05-1.93-0.16-2.34c-0.1-0.41-0.27-0.76-0.48-1.04
				c-0.22-0.28-0.49-0.5-0.83-0.65c-0.33-0.15-0.74-0.22-1.22-0.22s-0.94,0.12-1.4,0.35c-0.46,0.24-0.85,0.56-1.17,0.99
				s-0.54,0.85-0.65,1.3c-0.11,0.45-0.17,1.34-0.17,2.69v3.62h-1.28V168.03z"/>
			<path class="st0" d="M302.39,164.22v13.67h-1.25v-1.69c-1.13,1.35-2.42,2.03-3.87,2.03c-1.46,0-2.68-0.51-3.67-1.54
				c-0.99-1.03-1.49-2.26-1.49-3.7c0-1.44,0.5-2.67,1.5-3.69c1-1.02,2.21-1.53,3.6-1.53c1.61,0,2.92,0.69,3.92,2.06v-5.61H302.39z
				 M301.22,173.03c0-1.13-0.37-2.08-1.12-2.86c-0.74-0.78-1.67-1.17-2.79-1.17c-1.12,0-2.05,0.4-2.8,1.2s-1.12,1.74-1.12,2.82
				s0.38,2.03,1.15,2.83c0.77,0.8,1.67,1.21,2.72,1.21s1.97-0.38,2.76-1.14C300.83,175.15,301.22,174.19,301.22,173.03z"/>
			<path class="st0" d="M312.31,176.33c0,0.33,0.04,0.53,0.13,0.59c0.09,0.06,0.31,0.09,0.67,0.09h0.76v1.08
				c-0.52,0.09-0.93,0.13-1.23,0.13c-0.56,0-0.97-0.14-1.23-0.41s-0.39-0.7-0.39-1.28v-7.43h-1.75v-1.08h1.75v-3.81h1.28v3.81h2.01
				v1.08h-2.01V176.33z"/>
			<path class="st0" d="M315.73,168.03h1.3v1.43c0.35-0.58,0.68-1.01,1.01-1.28s0.69-0.41,1.1-0.41c0.4,0,0.81,0.11,1.22,0.33
				l-0.67,1.08c-0.19-0.11-0.38-0.17-0.58-0.17c-0.38,0-0.75,0.2-1.09,0.59s-0.59,0.91-0.75,1.53c-0.16,0.63-0.24,1.76-0.24,3.41
				v3.34h-1.3V168.03z"/>
			<path class="st0" d="M320.75,168.03h1.34l3.4,7.6l3.29-7.6h1.36l-5.89,13.47h-1.34l1.9-4.35L320.75,168.03z"/>
			<path class="st0" d="M338.81,176.33c0,0.33,0.04,0.53,0.13,0.59c0.09,0.06,0.31,0.09,0.67,0.09h0.76v1.08
				c-0.52,0.09-0.93,0.13-1.23,0.13c-0.56,0-0.97-0.14-1.23-0.41s-0.39-0.7-0.39-1.28v-7.43h-1.75v-1.08h1.75v-3.81h1.28v3.81h2.01
				v1.08h-2.01V176.33z"/>
			<path class="st0" d="M342.25,173.03c0-1.45,0.5-2.69,1.5-3.72c1-1.03,2.21-1.54,3.64-1.54s2.64,0.51,3.64,1.54
				c1,1.03,1.5,2.26,1.5,3.7c0,1.44-0.49,2.67-1.48,3.69c-0.98,1.02-2.2,1.53-3.65,1.53s-2.67-0.51-3.66-1.53
				C342.74,175.67,342.25,174.45,342.25,173.03z M351.24,173.04c0-1.09-0.38-2.04-1.14-2.83s-1.67-1.2-2.71-1.2s-1.95,0.4-2.7,1.2
				c-0.76,0.8-1.13,1.75-1.13,2.85s0.37,2.04,1.1,2.81c0.73,0.77,1.64,1.15,2.72,1.15s2-0.39,2.75-1.16
				C350.86,175.09,351.24,174.15,351.24,173.04z"/>
			<path class="st0" d="M21.97,192.03h1.26v1.71c0.88-1.31,2.01-1.97,3.38-1.97c0.73,0,1.38,0.21,1.96,0.62
				c0.58,0.42,0.96,1,1.16,1.76c0.41-0.77,0.93-1.36,1.56-1.77c0.63-0.41,1.36-0.61,2.18-0.61c0.82,0,1.57,0.32,2.24,0.96
				c0.67,0.64,1,1.9,1,3.78v5.39h-1.3v-5.39c0-0.9-0.06-1.57-0.17-2c-0.11-0.43-0.35-0.79-0.72-1.08c-0.37-0.29-0.86-0.44-1.48-0.44
				s-1.19,0.2-1.72,0.61c-0.53,0.41-0.9,0.93-1.1,1.56s-0.3,1.59-0.3,2.86v3.86H28.7v-5.05c0-1.05-0.06-1.8-0.17-2.26
				s-0.36-0.83-0.74-1.13c-0.38-0.3-0.85-0.46-1.41-0.46s-1.08,0.16-1.57,0.49s-0.87,0.78-1.15,1.35c-0.28,0.57-0.42,1.53-0.42,2.88
				v4.18h-1.26V192.03z"/>
			<path class="st0" d="M38.8,189.28c0-0.29,0.1-0.53,0.31-0.74s0.45-0.32,0.74-0.32s0.54,0.1,0.74,0.31
				c0.2,0.21,0.31,0.45,0.31,0.74c0,0.29-0.1,0.54-0.31,0.74c-0.2,0.21-0.45,0.31-0.74,0.31s-0.54-0.1-0.74-0.32
				S38.8,189.55,38.8,189.28z M39.21,192.03h1.28v9.87h-1.28V192.03z"/>
			<path class="st0" d="M43.11,192.03h1.28v1.76c1.02-1.35,2.25-2.03,3.7-2.03c0.74,0,1.41,0.2,2.01,0.6s1.02,0.93,1.26,1.58
				c0.25,0.65,0.37,1.61,0.37,2.87v5.07h-1.26v-4.7c0-1.15-0.05-1.93-0.16-2.34c-0.1-0.41-0.27-0.76-0.48-1.04
				c-0.22-0.28-0.49-0.5-0.83-0.65c-0.33-0.15-0.74-0.22-1.22-0.22s-0.94,0.12-1.4,0.35c-0.46,0.24-0.85,0.56-1.17,0.99
				s-0.54,0.85-0.65,1.3c-0.11,0.45-0.17,1.34-0.17,2.69v3.62h-1.28V192.03z"/>
			<path class="st0" d="M53.85,189.28c0-0.29,0.1-0.53,0.31-0.74s0.45-0.32,0.74-0.32s0.54,0.1,0.74,0.31
				c0.2,0.21,0.31,0.45,0.31,0.74c0,0.29-0.1,0.54-0.31,0.74c-0.2,0.21-0.45,0.31-0.74,0.31s-0.54-0.1-0.74-0.32
				S53.85,189.55,53.85,189.28z M54.26,192.03h1.28v9.87h-1.28V192.03z"/>
			<path class="st0" d="M58.16,192.03h1.26v1.71c0.88-1.31,2.01-1.97,3.38-1.97c0.73,0,1.38,0.21,1.96,0.62
				c0.58,0.42,0.96,1,1.16,1.76c0.41-0.77,0.93-1.36,1.56-1.77c0.63-0.41,1.36-0.61,2.18-0.61c0.82,0,1.57,0.32,2.24,0.96
				c0.67,0.64,1,1.9,1,3.78v5.39h-1.3v-5.39c0-0.9-0.06-1.57-0.17-2c-0.11-0.43-0.35-0.79-0.72-1.08c-0.37-0.29-0.86-0.44-1.48-0.44
				s-1.19,0.2-1.72,0.61c-0.53,0.41-0.9,0.93-1.1,1.56s-0.3,1.59-0.3,2.86v3.86h-1.25v-5.05c0-1.05-0.06-1.8-0.17-2.26
				s-0.36-0.83-0.74-1.13c-0.38-0.3-0.85-0.46-1.41-0.46s-1.08,0.16-1.57,0.49s-0.87,0.78-1.15,1.35c-0.28,0.57-0.42,1.53-0.42,2.88
				v4.18h-1.26V192.03z"/>
			<path class="st0" d="M75,189.28c0-0.29,0.1-0.53,0.31-0.74s0.45-0.32,0.74-0.32s0.54,0.1,0.74,0.31c0.2,0.21,0.31,0.45,0.31,0.74
				c0,0.29-0.1,0.54-0.31,0.74c-0.2,0.21-0.45,0.31-0.74,0.31s-0.54-0.1-0.74-0.32S75,189.55,75,189.28z M75.4,192.03h1.28v9.87
				H75.4V192.03z"/>
			<path class="st0" d="M78.51,192.03h7.25l-5.59,8.73h5.41v1.13h-7.6l5.59-8.75h-5.05V192.03z"/>
			<path class="st0" d="M95.51,198.7l1.08,0.56c-1.07,1.98-2.64,2.97-4.72,2.97c-1.49,0-2.71-0.51-3.68-1.53
				c-0.97-1.02-1.45-2.25-1.45-3.69c0-1.44,0.49-2.67,1.46-3.7c0.97-1.03,2.17-1.54,3.6-1.54s2.63,0.48,3.6,1.43
				c0.97,0.95,1.48,2.25,1.51,3.9h-8.88c0.04,1.19,0.41,2.15,1.12,2.87s1.58,1.09,2.59,1.09C93.43,201.06,94.68,200.27,95.51,198.7z
				 M95.51,196c-0.17-0.94-0.61-1.68-1.3-2.21c-0.69-0.53-1.49-0.8-2.4-0.8c-1.86,0-3.07,1-3.64,3.01H95.51z"/>
			<path class="st0" d="M106.32,200.33c0,0.33,0.04,0.53,0.13,0.59c0.09,0.06,0.31,0.09,0.67,0.09h0.76v1.08
				c-0.52,0.09-0.93,0.13-1.23,0.13c-0.56,0-0.97-0.14-1.23-0.41s-0.39-0.7-0.39-1.28v-7.43h-1.75v-1.08h1.75v-3.81h1.28v3.81h2.01
				v1.08h-2.01V200.33z"/>
			<path class="st0" d="M110.22,188.22h1.28v5.57c1.02-1.35,2.25-2.03,3.7-2.03c0.74,0,1.41,0.2,2.01,0.6s1.02,0.93,1.26,1.58
				c0.25,0.65,0.37,1.61,0.37,2.87v5.07h-1.28v-4.7c0-1.02-0.03-1.72-0.09-2.1c-0.06-0.38-0.2-0.75-0.41-1.1
				c-0.21-0.35-0.49-0.61-0.84-0.79c-0.35-0.18-0.78-0.27-1.28-0.27s-0.98,0.12-1.44,0.35c-0.46,0.24-0.85,0.56-1.17,0.99
				s-0.54,0.85-0.65,1.3c-0.11,0.45-0.17,1.34-0.17,2.69v3.62h-1.28V188.22z"/>
			<path class="st0" d="M129.86,198.7l1.08,0.56c-1.07,1.98-2.64,2.97-4.72,2.97c-1.49,0-2.71-0.51-3.68-1.53
				c-0.97-1.02-1.45-2.25-1.45-3.69c0-1.44,0.49-2.67,1.46-3.7c0.97-1.03,2.17-1.54,3.6-1.54s2.63,0.48,3.6,1.43
				c0.97,0.95,1.48,2.25,1.51,3.9h-8.88c0.04,1.19,0.41,2.15,1.12,2.87s1.58,1.09,2.59,1.09
				C127.78,201.06,129.03,200.27,129.86,198.7z M129.86,196c-0.17-0.94-0.61-1.68-1.3-2.21c-0.69-0.53-1.49-0.8-2.4-0.8
				c-1.86,0-3.07,1-3.64,3.01H129.86z"/>
			<path class="st0" d="M146.75,201.89h-1.28v-1.76c-1.02,1.35-2.25,2.03-3.7,2.03c-0.74,0-1.41-0.2-2.01-0.6
				c-0.59-0.4-1.02-0.93-1.26-1.58s-0.37-1.61-0.37-2.87v-5.07h1.26v4.7c0,1.15,0.05,1.93,0.16,2.34c0.11,0.41,0.27,0.75,0.48,1.04
				s0.49,0.5,0.83,0.65c0.33,0.15,0.74,0.22,1.22,0.22c0.48,0,0.94-0.12,1.4-0.35s0.85-0.56,1.17-0.99c0.32-0.42,0.54-0.85,0.65-1.3
				c0.11-0.45,0.17-1.34,0.17-2.69v-3.62h1.28V201.89z"/>
			<path class="st0" d="M154.53,193.11l-0.82,0.84c-0.68-0.66-1.34-0.98-1.99-0.98c-0.42,0-0.77,0.13-1.06,0.4
				c-0.28,0.27-0.43,0.59-0.43,0.98c0,0.39,0.15,0.72,0.46,1c0.3,0.28,0.83,0.61,1.57,1c0.74,0.39,1.31,0.81,1.7,1.26
				c0.39,0.45,0.58,1.01,0.58,1.66c0,0.83-0.29,1.53-0.86,2.1c-0.58,0.57-1.29,0.85-2.13,0.85c-0.56,0-1.09-0.12-1.61-0.37
				c-0.51-0.25-0.95-0.59-1.31-1.04l0.8-0.89c0.66,0.73,1.34,1.1,2.06,1.1c0.51,0,0.94-0.17,1.3-0.5c0.36-0.33,0.54-0.73,0.54-1.18
				c0-0.45-0.16-0.82-0.47-1.11s-0.84-0.62-1.58-0.99c-0.74-0.37-1.29-0.78-1.65-1.22c-0.37-0.44-0.55-1.01-0.55-1.71
				c0-0.7,0.26-1.3,0.77-1.79c0.51-0.5,1.2-0.74,2.04-0.74C152.75,191.77,153.63,192.21,154.53,193.11z"/>
			<path class="st0" d="M165.09,198.7l1.08,0.56c-1.07,1.98-2.64,2.97-4.72,2.97c-1.49,0-2.71-0.51-3.68-1.53
				c-0.97-1.02-1.45-2.25-1.45-3.69c0-1.44,0.49-2.67,1.46-3.7c0.97-1.03,2.17-1.54,3.6-1.54s2.63,0.48,3.6,1.43
				c0.97,0.95,1.48,2.25,1.51,3.9h-8.88c0.04,1.19,0.41,2.15,1.12,2.87s1.58,1.09,2.59,1.09
				C163.01,201.06,164.26,200.27,165.09,198.7z M165.09,196c-0.17-0.94-0.61-1.68-1.3-2.21c-0.69-0.53-1.49-0.8-2.4-0.8
				c-1.86,0-3.07,1-3.64,3.01H165.09z"/>
			<path class="st0" d="M173.04,197.03c0-1.45,0.5-2.69,1.5-3.72c1-1.03,2.21-1.54,3.64-1.54s2.64,0.51,3.64,1.54
				c1,1.03,1.5,2.26,1.5,3.7c0,1.44-0.49,2.67-1.48,3.69c-0.98,1.02-2.2,1.53-3.65,1.53s-2.67-0.51-3.66-1.53
				C173.53,199.67,173.04,198.45,173.04,197.03z M182.03,197.04c0-1.09-0.38-2.04-1.14-2.83s-1.67-1.2-2.71-1.2s-1.95,0.4-2.7,1.2
				c-0.76,0.8-1.13,1.75-1.13,2.85s0.37,2.04,1.1,2.81c0.73,0.77,1.64,1.15,2.72,1.15s2-0.39,2.75-1.16
				C181.66,199.09,182.03,198.15,182.03,197.04z"/>
			<path class="st0" d="M189.74,188.48v1.25c-0.48-0.21-0.91-0.32-1.29-0.32s-0.62,0.12-0.73,0.36s-0.17,0.63-0.17,1.18v1.08h2.06
				v1.08h-2.06v8.79h-1.28v-8.79h-1.28v-1.08h1.28v-1.28c0-0.87,0.16-1.5,0.48-1.91c0.32-0.41,0.82-0.61,1.51-0.61
				C188.65,188.22,189.15,188.31,189.74,188.48z"/>
			<path class="st0" d="M196.17,192.03h1.26v1.8c1-1.38,2.31-2.06,3.92-2.06c1.39,0,2.58,0.51,3.59,1.53c1,1.02,1.5,2.25,1.5,3.69
				c0,1.44-0.5,2.67-1.49,3.7s-2.18,1.54-3.57,1.54c-1.51,0-2.83-0.67-3.96-2.03v5.29h-1.26V192.03z M205.18,197.01
				c0-1.1-0.38-2.05-1.14-2.83c-0.76-0.79-1.69-1.18-2.8-1.18s-2.03,0.39-2.78,1.16c-0.75,0.77-1.12,1.73-1.12,2.87
				s0.38,2.1,1.15,2.87c0.77,0.77,1.69,1.16,2.76,1.16c1.07,0,1.99-0.39,2.77-1.18C204.8,199.09,205.18,198.13,205.18,197.01z"/>
			<path class="st0" d="M218.65,192.03v9.87h-1.25v-1.69c-1.13,1.35-2.42,2.03-3.86,2.03s-2.67-0.52-3.67-1.55s-1.5-2.27-1.5-3.7
				s0.5-2.66,1.5-3.68c1-1.02,2.21-1.53,3.6-1.53c1.61,0,2.92,0.69,3.92,2.06v-1.8H218.65z M217.48,197.01
				c0-1.13-0.38-2.08-1.13-2.85c-0.75-0.77-1.68-1.16-2.78-1.16c-1.1,0-2.02,0.4-2.78,1.2c-0.76,0.8-1.13,1.74-1.13,2.83
				s0.38,2.03,1.15,2.83c0.77,0.8,1.69,1.2,2.76,1.2s1.99-0.38,2.76-1.15C217.1,199.14,217.48,198.17,217.48,197.01z"/>
			<path class="st0" d="M231.16,194.07l-1,0.63c-0.87-1.15-2.06-1.73-3.57-1.73c-1.19,0-2.19,0.38-2.99,1.14
				c-0.81,0.76-1.21,1.71-1.21,2.83s0.4,2.09,1.19,2.9c0.79,0.8,1.8,1.21,3.01,1.21c1.45,0,2.64-0.58,3.57-1.73l1,0.67
				c-0.5,0.72-1.16,1.27-2,1.65s-1.74,0.58-2.7,0.58c-1.52,0-2.8-0.5-3.82-1.5c-1.02-1-1.53-2.23-1.53-3.68s0.52-2.69,1.55-3.73
				s2.36-1.55,3.99-1.55c0.95,0,1.84,0.21,2.65,0.61C230.1,192.79,230.72,193.35,231.16,194.07z"/>
			<path class="st0" d="M233.35,188.22h1.28V196l4.55-3.98h1.88l-5.42,4.7l5.74,5.17h-1.8l-4.94-4.44v4.44h-1.28V188.22z"/>
			<path class="st0" d="M252.69,192.03v9.87h-1.25v-1.69c-1.13,1.35-2.42,2.03-3.86,2.03s-2.67-0.52-3.67-1.55s-1.5-2.27-1.5-3.7
				s0.5-2.66,1.5-3.68c1-1.02,2.21-1.53,3.6-1.53c1.61,0,2.92,0.69,3.92,2.06v-1.8H252.69z M251.52,197.01
				c0-1.13-0.38-2.08-1.13-2.85c-0.75-0.77-1.68-1.16-2.78-1.16c-1.1,0-2.02,0.4-2.78,1.2c-0.76,0.8-1.13,1.74-1.13,2.83
				s0.38,2.03,1.15,2.83c0.77,0.8,1.69,1.2,2.76,1.2s1.99-0.38,2.76-1.15C251.14,199.14,251.52,198.17,251.52,197.01z"/>
			<path class="st0" d="M264.19,192.03h1.28v7.62c0,1.35-0.12,2.34-0.35,2.97c-0.24,0.63-0.58,1.16-1.02,1.58
				c-0.45,0.42-0.99,0.74-1.62,0.97c-0.63,0.22-1.33,0.33-2.08,0.33c-2.58,0-4.27-1.03-5.09-3.08h1.38
				c0.72,1.29,1.94,1.93,3.66,1.93c0.83,0,1.55-0.16,2.16-0.48s1.05-0.73,1.3-1.24s0.38-1.29,0.38-2.35v-0.43
				c-0.51,0.63-1.11,1.1-1.8,1.41c-0.69,0.31-1.42,0.46-2.19,0.46c-1.44,0-2.63-0.49-3.59-1.47c-0.95-0.98-1.43-2.13-1.43-3.46
				c0-1.38,0.51-2.56,1.52-3.55c1.01-0.99,2.24-1.49,3.69-1.49s2.71,0.66,3.8,1.97V192.03z M264.25,196.8c0-1.08-0.37-1.98-1.1-2.71
				c-0.73-0.73-1.64-1.1-2.71-1.1c-1.14,0-2.09,0.39-2.84,1.18c-0.76,0.79-1.13,1.69-1.13,2.7c0,1.02,0.37,1.88,1.1,2.59
				c0.73,0.71,1.67,1.07,2.81,1.07c1.14,0,2.07-0.35,2.8-1.04C263.89,198.8,264.25,197.91,264.25,196.8z"/>
			<path class="st0" d="M267.46,189.28c0-0.29,0.1-0.53,0.31-0.74s0.45-0.32,0.74-0.32s0.54,0.1,0.74,0.31
				c0.2,0.21,0.31,0.45,0.31,0.74c0,0.29-0.1,0.54-0.31,0.74c-0.2,0.21-0.45,0.31-0.74,0.31s-0.54-0.1-0.74-0.32
				S267.46,189.55,267.46,189.28z M267.87,192.03h1.28v9.87h-1.28V192.03z"/>
			<path class="st0" d="M271.77,192.03h1.28v1.76c1.02-1.35,2.25-2.03,3.7-2.03c0.74,0,1.41,0.2,2.01,0.6s1.02,0.93,1.26,1.58
				c0.25,0.65,0.37,1.61,0.37,2.87v5.07h-1.26v-4.7c0-1.15-0.05-1.93-0.16-2.34c-0.1-0.41-0.27-0.76-0.48-1.04
				c-0.22-0.28-0.49-0.5-0.83-0.65c-0.33-0.15-0.74-0.22-1.22-0.22s-0.94,0.12-1.4,0.35c-0.46,0.24-0.85,0.56-1.17,0.99
				s-0.54,0.85-0.65,1.3c-0.11,0.45-0.17,1.34-0.17,2.69v3.62h-1.28V192.03z"/>
			<path class="st0" d="M291.74,192.03h1.28v7.62c0,1.35-0.12,2.34-0.35,2.97c-0.24,0.63-0.58,1.16-1.02,1.58
				c-0.45,0.42-0.99,0.74-1.62,0.97c-0.63,0.22-1.33,0.33-2.08,0.33c-2.58,0-4.27-1.03-5.09-3.08h1.38
				c0.72,1.29,1.94,1.93,3.66,1.93c0.83,0,1.55-0.16,2.16-0.48s1.05-0.73,1.3-1.24s0.38-1.29,0.38-2.35v-0.43
				c-0.51,0.63-1.11,1.1-1.8,1.41c-0.69,0.31-1.42,0.46-2.19,0.46c-1.44,0-2.63-0.49-3.59-1.47c-0.95-0.98-1.43-2.13-1.43-3.46
				c0-1.38,0.51-2.56,1.52-3.55c1.01-0.99,2.24-1.49,3.69-1.49s2.71,0.66,3.8,1.97V192.03z M291.8,196.8c0-1.08-0.37-1.98-1.1-2.71
				c-0.73-0.73-1.64-1.1-2.71-1.1c-1.14,0-2.09,0.39-2.84,1.18c-0.76,0.79-1.13,1.69-1.13,2.7c0,1.02,0.37,1.88,1.1,2.59
				c0.73,0.71,1.67,1.07,2.81,1.07c1.14,0,2.07-0.35,2.8-1.04C291.44,198.8,291.8,197.91,291.8,196.8z"/>
			<path class="st0" d="M295.89,201.02c0-0.31,0.11-0.57,0.33-0.79s0.49-0.33,0.79-0.33s0.56,0.11,0.78,0.33s0.33,0.48,0.33,0.8
				c0,0.32-0.11,0.58-0.33,0.8s-0.48,0.33-0.78,0.33s-0.57-0.11-0.79-0.33C296,201.6,295.89,201.33,295.89,201.02z"/>
			<path class="st0" d="M308.93,189.85v-1.3h7.32v1.3h-2.97v12.04h-1.36v-12.04H308.93z"/>
			<path class="st0" d="M317.96,188.22h1.28v5.57c1.02-1.35,2.25-2.03,3.7-2.03c0.74,0,1.41,0.2,2.01,0.6s1.02,0.93,1.26,1.58
				c0.25,0.65,0.37,1.61,0.37,2.87v5.07h-1.28v-4.7c0-1.02-0.03-1.72-0.09-2.1c-0.06-0.38-0.2-0.75-0.41-1.1
				c-0.21-0.35-0.49-0.61-0.84-0.79c-0.35-0.18-0.78-0.27-1.28-0.27s-0.98,0.12-1.44,0.35c-0.46,0.24-0.85,0.56-1.17,0.99
				s-0.54,0.85-0.65,1.3c-0.11,0.45-0.17,1.34-0.17,2.69v3.62h-1.28V188.22z"/>
			<path class="st0" d="M337.6,198.7l1.08,0.56c-1.07,1.98-2.64,2.97-4.72,2.97c-1.49,0-2.71-0.51-3.68-1.53
				c-0.97-1.02-1.45-2.25-1.45-3.69c0-1.44,0.49-2.67,1.46-3.7c0.97-1.03,2.17-1.54,3.6-1.54s2.63,0.48,3.6,1.43
				c0.97,0.95,1.48,2.25,1.51,3.9h-8.88c0.04,1.19,0.41,2.15,1.12,2.87s1.58,1.09,2.59,1.09
				C335.52,201.06,336.77,200.27,337.6,198.7z M337.6,196c-0.17-0.94-0.61-1.68-1.3-2.21c-0.69-0.53-1.49-0.8-2.4-0.8
				c-1.86,0-3.07,1-3.64,3.01H337.6z"/>
			<path class="st0" d="M21.97,216.03h1.26v1.71c0.88-1.31,2.01-1.97,3.38-1.97c0.73,0,1.38,0.21,1.96,0.62
				c0.58,0.42,0.96,1,1.16,1.76c0.41-0.77,0.93-1.36,1.56-1.77c0.63-0.41,1.36-0.61,2.18-0.61c0.82,0,1.57,0.32,2.24,0.96
				c0.67,0.64,1,1.9,1,3.78v5.39h-1.3v-5.39c0-0.9-0.06-1.57-0.17-2c-0.11-0.43-0.35-0.79-0.72-1.08c-0.37-0.29-0.86-0.44-1.48-0.44
				s-1.19,0.2-1.72,0.61c-0.53,0.41-0.9,0.93-1.1,1.56s-0.3,1.59-0.3,2.86v3.86H28.7v-5.05c0-1.05-0.06-1.8-0.17-2.26
				s-0.36-0.83-0.74-1.13c-0.38-0.3-0.85-0.46-1.41-0.46s-1.08,0.16-1.57,0.49s-0.87,0.78-1.15,1.35c-0.28,0.57-0.42,1.53-0.42,2.88
				v4.18h-1.26V216.03z"/>
			<path class="st0" d="M47.7,222.7l1.08,0.56c-1.07,1.98-2.64,2.97-4.72,2.97c-1.49,0-2.71-0.51-3.68-1.53
				c-0.97-1.02-1.45-2.25-1.45-3.69c0-1.44,0.49-2.67,1.46-3.7c0.97-1.03,2.17-1.54,3.6-1.54s2.63,0.48,3.6,1.43
				c0.97,0.95,1.48,2.25,1.51,3.9h-8.88c0.04,1.19,0.41,2.15,1.12,2.87s1.58,1.09,2.59,1.09C45.62,225.06,46.87,224.27,47.7,222.7z
				 M47.7,220c-0.17-0.94-0.61-1.68-1.3-2.21c-0.69-0.53-1.49-0.8-2.4-0.8c-1.86,0-3.07,1-3.64,3.01H47.7z"/>
			<path class="st0" d="M56.44,217.11l-0.82,0.84c-0.68-0.66-1.34-0.98-1.99-0.98c-0.42,0-0.77,0.13-1.06,0.4
				c-0.28,0.27-0.43,0.59-0.43,0.98c0,0.39,0.15,0.72,0.46,1c0.3,0.28,0.83,0.61,1.57,1c0.74,0.39,1.31,0.81,1.7,1.26
				c0.39,0.45,0.58,1.01,0.58,1.66c0,0.83-0.29,1.53-0.86,2.1c-0.58,0.57-1.29,0.85-2.13,0.85c-0.56,0-1.09-0.12-1.61-0.37
				c-0.51-0.25-0.95-0.59-1.31-1.04l0.8-0.89c0.66,0.73,1.34,1.1,2.06,1.1c0.51,0,0.94-0.17,1.3-0.5c0.36-0.33,0.54-0.73,0.54-1.18
				c0-0.45-0.16-0.82-0.47-1.11s-0.84-0.62-1.58-0.99c-0.74-0.37-1.29-0.78-1.65-1.22c-0.37-0.44-0.55-1.01-0.55-1.71
				c0-0.7,0.26-1.3,0.77-1.79c0.51-0.5,1.2-0.74,2.04-0.74C54.65,215.77,55.53,216.21,56.44,217.11z"/>
			<path class="st0" d="M63.65,217.11l-0.82,0.84c-0.68-0.66-1.34-0.98-1.99-0.98c-0.42,0-0.77,0.13-1.06,0.4
				c-0.28,0.27-0.43,0.59-0.43,0.98c0,0.39,0.15,0.72,0.46,1c0.3,0.28,0.83,0.61,1.57,1c0.74,0.39,1.31,0.81,1.7,1.26
				c0.39,0.45,0.58,1.01,0.58,1.66c0,0.83-0.29,1.53-0.86,2.1c-0.58,0.57-1.29,0.85-2.13,0.85c-0.56,0-1.09-0.12-1.61-0.37
				c-0.51-0.25-0.95-0.59-1.31-1.04l0.8-0.89c0.66,0.73,1.34,1.1,2.06,1.1c0.51,0,0.94-0.17,1.3-0.5c0.36-0.33,0.54-0.73,0.54-1.18
				c0-0.45-0.16-0.82-0.47-1.11s-0.84-0.62-1.58-0.99c-0.74-0.37-1.29-0.78-1.65-1.22c-0.37-0.44-0.55-1.01-0.55-1.71
				c0-0.7,0.26-1.3,0.77-1.79c0.51-0.5,1.2-0.74,2.04-0.74C61.86,215.77,62.74,216.21,63.65,217.11z"/>
			<path class="st0" d="M75.72,216.03v9.87h-1.25v-1.69c-1.13,1.35-2.42,2.03-3.86,2.03s-2.67-0.52-3.67-1.55s-1.5-2.27-1.5-3.7
				s0.5-2.66,1.5-3.68c1-1.02,2.21-1.53,3.6-1.53c1.61,0,2.92,0.69,3.92,2.06v-1.8H75.72z M74.55,221.01c0-1.13-0.38-2.08-1.13-2.85
				c-0.75-0.77-1.68-1.16-2.78-1.16c-1.1,0-2.02,0.4-2.78,1.2c-0.76,0.8-1.13,1.74-1.13,2.83s0.38,2.03,1.15,2.83
				c0.77,0.8,1.69,1.2,2.76,1.2s1.99-0.38,2.76-1.15C74.17,223.14,74.55,222.17,74.55,221.01z"/>
			<path class="st0" d="M87.22,216.03h1.28v7.62c0,1.35-0.12,2.34-0.35,2.97c-0.24,0.63-0.58,1.16-1.02,1.58
				c-0.45,0.42-0.99,0.74-1.62,0.97c-0.63,0.22-1.33,0.33-2.08,0.33c-2.58,0-4.27-1.03-5.09-3.08h1.38
				c0.72,1.29,1.94,1.93,3.66,1.93c0.83,0,1.55-0.16,2.16-0.48s1.05-0.73,1.3-1.24s0.38-1.29,0.38-2.35v-0.43
				c-0.51,0.63-1.11,1.1-1.8,1.41c-0.69,0.31-1.42,0.46-2.19,0.46c-1.44,0-2.63-0.49-3.59-1.47c-0.95-0.98-1.43-2.13-1.43-3.46
				c0-1.38,0.51-2.56,1.52-3.55c1.01-0.99,2.24-1.49,3.69-1.49s2.71,0.66,3.8,1.97V216.03z M87.28,220.8c0-1.08-0.37-1.98-1.1-2.71
				c-0.73-0.73-1.64-1.1-2.71-1.1c-1.14,0-2.09,0.39-2.84,1.18c-0.76,0.79-1.13,1.69-1.13,2.7c0,1.02,0.37,1.88,1.1,2.59
				c0.73,0.71,1.67,1.07,2.81,1.07c1.14,0,2.07-0.35,2.8-1.04C86.92,222.8,87.28,221.91,87.28,220.8z"/>
			<path class="st0" d="M99.39,222.7l1.08,0.56c-1.07,1.98-2.64,2.97-4.72,2.97c-1.49,0-2.71-0.51-3.68-1.53
				c-0.97-1.02-1.45-2.25-1.45-3.69c0-1.44,0.49-2.67,1.46-3.7c0.97-1.03,2.17-1.54,3.6-1.54s2.63,0.48,3.6,1.43
				c0.97,0.95,1.48,2.25,1.51,3.9h-8.88c0.04,1.19,0.41,2.15,1.12,2.87s1.58,1.09,2.59,1.09C97.31,225.06,98.56,224.27,99.39,222.7z
				 M99.39,220c-0.17-0.94-0.61-1.68-1.3-2.21c-0.69-0.53-1.49-0.8-2.4-0.8c-1.86,0-3.07,1-3.64,3.01H99.39z"/>
			<path class="st0" d="M107.34,221.03c0-1.45,0.5-2.69,1.5-3.72c1-1.03,2.21-1.54,3.64-1.54s2.64,0.51,3.64,1.54
				c1,1.03,1.5,2.26,1.5,3.7c0,1.44-0.49,2.67-1.48,3.69c-0.98,1.02-2.2,1.53-3.65,1.53s-2.67-0.51-3.66-1.53
				C107.84,223.67,107.34,222.45,107.34,221.03z M116.34,221.04c0-1.09-0.38-2.04-1.14-2.83s-1.67-1.2-2.71-1.2s-1.95,0.4-2.7,1.2
				c-0.76,0.8-1.13,1.75-1.13,2.85s0.37,2.04,1.1,2.81c0.73,0.77,1.64,1.15,2.72,1.15s2-0.39,2.75-1.16
				C115.96,223.09,116.34,222.15,116.34,221.04z"/>
			<path class="st0" d="M124.05,212.48v1.25c-0.48-0.21-0.91-0.32-1.29-0.32s-0.62,0.12-0.73,0.36s-0.17,0.63-0.17,1.18v1.08h2.06
				v1.08h-2.06v8.79h-1.28v-8.79h-1.28v-1.08h1.28v-1.28c0-0.87,0.16-1.5,0.48-1.91c0.32-0.41,0.82-0.61,1.51-0.61
				C122.96,212.22,123.45,212.31,124.05,212.48z"/>
			<path class="st0" d="M140.31,212.22v13.67h-1.25v-1.69c-1.13,1.35-2.42,2.03-3.87,2.03c-1.46,0-2.68-0.51-3.67-1.54
				c-0.99-1.03-1.49-2.26-1.49-3.7c0-1.44,0.5-2.67,1.5-3.69c1-1.02,2.21-1.53,3.6-1.53c1.61,0,2.92,0.69,3.92,2.06v-5.61H140.31z
				 M139.13,221.03c0-1.13-0.37-2.08-1.12-2.86c-0.74-0.78-1.67-1.17-2.79-1.17c-1.12,0-2.05,0.4-2.8,1.2s-1.12,1.74-1.12,2.82
				s0.38,2.03,1.15,2.83c0.77,0.8,1.67,1.21,2.72,1.21s1.97-0.38,2.76-1.14C138.74,223.15,139.13,222.19,139.13,221.03z"/>
			<path class="st0" d="M142.59,213.28c0-0.29,0.1-0.53,0.31-0.74s0.45-0.32,0.74-0.32s0.54,0.1,0.74,0.31
				c0.2,0.21,0.31,0.45,0.31,0.74c0,0.29-0.1,0.54-0.31,0.74c-0.2,0.21-0.45,0.31-0.74,0.31s-0.54-0.1-0.74-0.32
				S142.59,213.55,142.59,213.28z M143,216.03h1.28v9.87H143V216.03z"/>
			<path class="st0" d="M145.97,216.03h1.36l3.29,7.51l3.29-7.51h1.36l-4.52,10.2h-0.22L145.97,216.03z"/>
			<path class="st0" d="M165.5,222.7l1.08,0.56c-1.07,1.98-2.64,2.97-4.72,2.97c-1.49,0-2.71-0.51-3.68-1.53
				c-0.97-1.02-1.45-2.25-1.45-3.69c0-1.44,0.49-2.67,1.46-3.7c0.97-1.03,2.17-1.54,3.6-1.54s2.63,0.48,3.6,1.43
				c0.97,0.95,1.48,2.25,1.51,3.9h-8.88c0.04,1.19,0.41,2.15,1.12,2.87s1.58,1.09,2.59,1.09
				C163.42,225.06,164.67,224.27,165.5,222.7z M165.5,220c-0.17-0.94-0.61-1.68-1.3-2.21c-0.69-0.53-1.49-0.8-2.4-0.8
				c-1.86,0-3.07,1-3.64,3.01H165.5z"/>
			<path class="st0" d="M168.79,216.03h1.3v1.43c0.35-0.58,0.68-1.01,1.01-1.28s0.69-0.41,1.1-0.41c0.4,0,0.81,0.11,1.22,0.33
				l-0.67,1.08c-0.19-0.11-0.38-0.17-0.58-0.17c-0.38,0-0.75,0.2-1.09,0.59s-0.59,0.91-0.75,1.53c-0.16,0.63-0.24,1.76-0.24,3.41
				v3.34h-1.3V216.03z"/>
			<path class="st0" d="M179.82,217.11l-0.82,0.84c-0.68-0.66-1.34-0.98-1.99-0.98c-0.42,0-0.77,0.13-1.06,0.4
				c-0.28,0.27-0.43,0.59-0.43,0.98c0,0.39,0.15,0.72,0.46,1c0.3,0.28,0.83,0.61,1.57,1c0.74,0.39,1.31,0.81,1.7,1.26
				c0.39,0.45,0.58,1.01,0.58,1.66c0,0.83-0.29,1.53-0.86,2.1c-0.58,0.57-1.29,0.85-2.13,0.85c-0.56,0-1.09-0.12-1.61-0.37
				c-0.51-0.25-0.95-0.59-1.31-1.04l0.8-0.89c0.66,0.73,1.34,1.1,2.06,1.1c0.51,0,0.94-0.17,1.3-0.5c0.36-0.33,0.54-0.73,0.54-1.18
				c0-0.45-0.16-0.82-0.47-1.11s-0.84-0.62-1.58-0.99c-0.74-0.37-1.29-0.78-1.65-1.22c-0.37-0.44-0.55-1.01-0.55-1.71
				c0-0.7,0.26-1.3,0.77-1.79c0.51-0.5,1.2-0.74,2.04-0.74C178.04,215.77,178.92,216.21,179.82,217.11z"/>
			<path class="st0" d="M181.48,213.28c0-0.29,0.1-0.53,0.31-0.74s0.45-0.32,0.74-0.32s0.54,0.1,0.74,0.31
				c0.2,0.21,0.31,0.45,0.31,0.74c0,0.29-0.1,0.54-0.31,0.74c-0.2,0.21-0.45,0.31-0.74,0.31s-0.54-0.1-0.74-0.32
				S181.48,213.55,181.48,213.28z M181.89,216.03h1.28v9.87h-1.28V216.03z"/>
			<path class="st0" d="M188.19,224.33c0,0.33,0.04,0.53,0.13,0.59c0.09,0.06,0.31,0.09,0.67,0.09h0.76v1.08
				c-0.52,0.09-0.93,0.13-1.23,0.13c-0.56,0-0.97-0.14-1.23-0.41s-0.39-0.7-0.39-1.28v-7.43h-1.75v-1.08h1.75v-3.81h1.28v3.81h2.01
				v1.08h-2.01V224.33z"/>
			<path class="st0" d="M191.03,216.03h1.34l3.4,7.6l3.29-7.6h1.36l-5.89,13.47h-1.34l1.9-4.35L191.03,216.03z"/>
			<path class="st0" d="M216.52,216.03v9.87h-1.25v-1.69c-1.13,1.35-2.42,2.03-3.86,2.03s-2.67-0.52-3.67-1.55s-1.5-2.27-1.5-3.7
				s0.5-2.66,1.5-3.68c1-1.02,2.21-1.53,3.6-1.53c1.61,0,2.92,0.69,3.92,2.06v-1.8H216.52z M215.35,221.01
				c0-1.13-0.38-2.08-1.13-2.85c-0.75-0.77-1.68-1.16-2.78-1.16c-1.1,0-2.02,0.4-2.78,1.2c-0.76,0.8-1.13,1.74-1.13,2.83
				s0.38,2.03,1.15,2.83c0.77,0.8,1.69,1.2,2.76,1.2s1.99-0.38,2.76-1.15C214.97,223.14,215.35,222.17,215.35,221.01z"/>
			<path class="st0" d="M219.38,216.03h1.28v1.76c1.02-1.35,2.25-2.03,3.7-2.03c0.74,0,1.41,0.2,2.01,0.6s1.02,0.93,1.26,1.58
				c0.25,0.65,0.37,1.61,0.37,2.87v5.07h-1.26v-4.7c0-1.15-0.05-1.93-0.16-2.34c-0.1-0.41-0.27-0.76-0.48-1.04
				c-0.22-0.28-0.49-0.5-0.83-0.65c-0.33-0.15-0.74-0.22-1.22-0.22s-0.94,0.12-1.4,0.35c-0.46,0.24-0.85,0.56-1.17,0.99
				s-0.54,0.85-0.65,1.3c-0.11,0.45-0.17,1.34-0.17,2.69v3.62h-1.28V216.03z"/>
			<path class="st0" d="M240.56,212.22v13.67h-1.25v-1.69c-1.13,1.35-2.42,2.03-3.87,2.03c-1.46,0-2.68-0.51-3.67-1.54
				c-0.99-1.03-1.49-2.26-1.49-3.7c0-1.44,0.5-2.67,1.5-3.69c1-1.02,2.21-1.53,3.6-1.53c1.61,0,2.92,0.69,3.92,2.06v-5.61H240.56z
				 M239.39,221.03c0-1.13-0.37-2.08-1.12-2.86c-0.74-0.78-1.67-1.17-2.79-1.17c-1.12,0-2.05,0.4-2.8,1.2s-1.12,1.74-1.12,2.82
				s0.38,2.03,1.15,2.83c0.77,0.8,1.67,1.21,2.72,1.21s1.97-0.38,2.76-1.14C238.99,223.15,239.39,222.19,239.39,221.03z"/>
			<path class="st0" d="M257.73,218.07l-1,0.63c-0.87-1.15-2.06-1.73-3.57-1.73c-1.19,0-2.19,0.38-2.99,1.14
				c-0.81,0.76-1.21,1.71-1.21,2.83s0.4,2.09,1.19,2.9c0.79,0.8,1.8,1.21,3.01,1.21c1.45,0,2.64-0.58,3.57-1.73l1,0.67
				c-0.5,0.72-1.16,1.27-2,1.65s-1.74,0.58-2.7,0.58c-1.52,0-2.8-0.5-3.82-1.5c-1.02-1-1.53-2.23-1.53-3.68s0.52-2.69,1.55-3.73
				s2.36-1.55,3.99-1.55c0.95,0,1.84,0.21,2.65,0.61C256.67,216.79,257.3,217.35,257.73,218.07z"/>
			<path class="st0" d="M259.64,221.03c0-1.45,0.5-2.69,1.5-3.72c1-1.03,2.21-1.54,3.64-1.54s2.64,0.51,3.64,1.54
				c1,1.03,1.5,2.26,1.5,3.7c0,1.44-0.49,2.67-1.48,3.69c-0.98,1.02-2.2,1.53-3.65,1.53s-2.67-0.51-3.66-1.53
				C260.14,223.67,259.64,222.45,259.64,221.03z M268.64,221.04c0-1.09-0.38-2.04-1.14-2.83s-1.67-1.2-2.71-1.2s-1.95,0.4-2.7,1.2
				c-0.76,0.8-1.13,1.75-1.13,2.85s0.37,2.04,1.1,2.81c0.73,0.77,1.64,1.15,2.72,1.15s2-0.39,2.75-1.16
				C268.26,223.09,268.64,222.15,268.64,221.04z"/>
			<path class="st0" d="M280.58,222.7l1.08,0.56c-1.07,1.98-2.64,2.97-4.72,2.97c-1.49,0-2.71-0.51-3.68-1.53
				c-0.97-1.02-1.45-2.25-1.45-3.69c0-1.44,0.49-2.67,1.46-3.7c0.97-1.03,2.17-1.54,3.6-1.54s2.63,0.48,3.6,1.43
				c0.97,0.95,1.48,2.25,1.51,3.9h-8.88c0.04,1.19,0.41,2.15,1.12,2.87s1.58,1.09,2.59,1.09
				C278.5,225.06,279.75,224.27,280.58,222.7z M280.58,220c-0.17-0.94-0.61-1.68-1.3-2.21c-0.69-0.53-1.49-0.8-2.4-0.8
				c-1.86,0-3.07,1-3.64,3.01H280.58z"/>
			<path class="st0" d="M287.38,221.77l-2.86,4.12h-1.5l3.6-5.2l-3.25-4.66h1.52l2.49,3.57l2.47-3.57h1.52l-3.23,4.64l3.66,5.22
				h-1.54L287.38,221.77z"/>
			<path class="st0" d="M292.68,213.28c0-0.29,0.1-0.53,0.31-0.74s0.45-0.32,0.74-0.32s0.54,0.1,0.74,0.31
				c0.2,0.21,0.31,0.45,0.31,0.74c0,0.29-0.1,0.54-0.31,0.74c-0.2,0.21-0.45,0.31-0.74,0.31s-0.54-0.1-0.74-0.32
				S292.68,213.55,292.68,213.28z M293.09,216.03h1.28v9.87h-1.28V216.03z"/>
			<path class="st0" d="M301.95,217.11l-0.82,0.84c-0.68-0.66-1.34-0.98-1.99-0.98c-0.42,0-0.77,0.13-1.06,0.4
				c-0.28,0.27-0.43,0.59-0.43,0.98c0,0.39,0.15,0.72,0.46,1c0.3,0.28,0.83,0.61,1.57,1c0.74,0.39,1.31,0.81,1.7,1.26
				c0.39,0.45,0.58,1.01,0.58,1.66c0,0.83-0.29,1.53-0.86,2.1c-0.58,0.57-1.29,0.85-2.13,0.85c-0.56,0-1.09-0.12-1.61-0.37
				c-0.51-0.25-0.95-0.59-1.31-1.04l0.8-0.89c0.66,0.73,1.34,1.1,2.06,1.1c0.51,0,0.94-0.17,1.3-0.5c0.36-0.33,0.54-0.73,0.54-1.18
				c0-0.45-0.16-0.82-0.47-1.11s-0.84-0.62-1.58-0.99c-0.74-0.37-1.29-0.78-1.65-1.22c-0.37-0.44-0.55-1.01-0.55-1.71
				c0-0.7,0.26-1.3,0.77-1.79c0.51-0.5,1.2-0.74,2.04-0.74C300.17,215.77,301.04,216.21,301.95,217.11z"/>
			<path class="st0" d="M306.59,224.33c0,0.33,0.04,0.53,0.13,0.59c0.09,0.06,0.31,0.09,0.67,0.09h0.76v1.08
				c-0.52,0.09-0.93,0.13-1.23,0.13c-0.56,0-0.97-0.14-1.23-0.41s-0.39-0.7-0.39-1.28v-7.43h-1.75v-1.08h1.75v-3.81h1.28v3.81h2.01
				v1.08h-2.01V224.33z"/>
			<path class="st0" d="M318.8,222.7l1.08,0.56c-1.07,1.98-2.64,2.97-4.72,2.97c-1.49,0-2.71-0.51-3.68-1.53
				c-0.97-1.02-1.45-2.25-1.45-3.69c0-1.44,0.49-2.67,1.46-3.7c0.97-1.03,2.17-1.54,3.6-1.54s2.63,0.48,3.6,1.43
				c0.97,0.95,1.48,2.25,1.51,3.9h-8.88c0.04,1.19,0.41,2.15,1.12,2.87s1.58,1.09,2.59,1.09
				C316.72,225.06,317.97,224.27,318.8,222.7z M318.8,220c-0.17-0.94-0.61-1.68-1.3-2.21c-0.69-0.53-1.49-0.8-2.4-0.8
				c-1.86,0-3.07,1-3.64,3.01H318.8z"/>
			<path class="st0" d="M322.57,216.03h1.28v1.76c1.02-1.35,2.25-2.03,3.7-2.03c0.74,0,1.41,0.2,2.01,0.6s1.02,0.93,1.26,1.58
				c0.25,0.65,0.37,1.61,0.37,2.87v5.07h-1.26v-4.7c0-1.15-0.05-1.93-0.16-2.34c-0.1-0.41-0.27-0.76-0.48-1.04
				c-0.22-0.28-0.49-0.5-0.83-0.65c-0.33-0.15-0.74-0.22-1.22-0.22s-0.94,0.12-1.4,0.35c-0.46,0.24-0.85,0.56-1.17,0.99
				s-0.54,0.85-0.65,1.3c-0.11,0.45-0.17,1.34-0.17,2.69v3.62h-1.28V216.03z"/>
			<path class="st0" d="M343.55,218.07l-1,0.63c-0.87-1.15-2.06-1.73-3.57-1.73c-1.19,0-2.19,0.38-2.99,1.14
				c-0.81,0.76-1.21,1.71-1.21,2.83s0.4,2.09,1.19,2.9c0.79,0.8,1.8,1.21,3.01,1.21c1.45,0,2.64-0.58,3.57-1.73l1,0.67
				c-0.5,0.72-1.16,1.27-2,1.65s-1.74,0.58-2.7,0.58c-1.52,0-2.8-0.5-3.82-1.5c-1.02-1-1.53-2.23-1.53-3.68s0.52-2.69,1.55-3.73
				s2.36-1.55,3.99-1.55c0.95,0,1.84,0.21,2.65,0.61C342.49,216.79,343.11,217.35,343.55,218.07z"/>
			<path class="st0" d="M354.23,222.7l1.08,0.56c-1.07,1.98-2.64,2.97-4.72,2.97c-1.49,0-2.71-0.51-3.68-1.53
				c-0.97-1.02-1.45-2.25-1.45-3.69c0-1.44,0.49-2.67,1.46-3.7c0.97-1.03,2.17-1.54,3.6-1.54s2.63,0.48,3.6,1.43
				c0.97,0.95,1.48,2.25,1.51,3.9h-8.88c0.04,1.19,0.41,2.15,1.12,2.87s1.58,1.09,2.59,1.09
				C352.15,225.06,353.4,224.27,354.23,222.7z M354.23,220c-0.17-0.94-0.61-1.68-1.3-2.21c-0.69-0.53-1.49-0.8-2.4-0.8
				c-1.86,0-3.07,1-3.64,3.01H354.23z"/>
			<path class="st0" d="M21.38,237.28c0-0.29,0.1-0.53,0.31-0.74s0.45-0.32,0.74-0.32s0.54,0.1,0.74,0.31
				c0.2,0.21,0.31,0.45,0.31,0.74c0,0.29-0.1,0.54-0.31,0.74c-0.2,0.21-0.45,0.31-0.74,0.31s-0.54-0.1-0.74-0.32
				S21.38,237.55,21.38,237.28z M21.78,240.03h1.28v9.87h-1.28V240.03z"/>
			<path class="st0" d="M30.65,241.11l-0.82,0.84c-0.68-0.66-1.34-0.98-1.99-0.98c-0.42,0-0.77,0.13-1.06,0.4
				c-0.28,0.27-0.43,0.59-0.43,0.98c0,0.39,0.15,0.72,0.46,1c0.3,0.28,0.83,0.61,1.57,1c0.74,0.39,1.31,0.81,1.7,1.26
				c0.39,0.45,0.58,1.01,0.58,1.66c0,0.83-0.29,1.53-0.86,2.1c-0.58,0.57-1.29,0.85-2.13,0.85c-0.56,0-1.09-0.12-1.61-0.37
				c-0.51-0.25-0.95-0.59-1.31-1.04l0.8-0.89c0.66,0.73,1.34,1.1,2.06,1.1c0.51,0,0.94-0.17,1.3-0.5c0.36-0.33,0.54-0.73,0.54-1.18
				c0-0.45-0.16-0.82-0.47-1.11s-0.84-0.62-1.58-0.99c-0.74-0.37-1.29-0.78-1.65-1.22c-0.37-0.44-0.55-1.01-0.55-1.71
				c0-0.7,0.26-1.3,0.77-1.79c0.51-0.5,1.2-0.74,2.04-0.74C28.87,239.77,29.74,240.21,30.65,241.11z"/>
			<path class="st0" d="M45.85,246.7l1.08,0.56c-1.07,1.98-2.64,2.97-4.72,2.97c-1.49,0-2.71-0.51-3.68-1.53
				c-0.97-1.02-1.45-2.25-1.45-3.69c0-1.44,0.49-2.67,1.46-3.7c0.97-1.03,2.17-1.54,3.6-1.54s2.63,0.48,3.6,1.43
				c0.97,0.95,1.48,2.25,1.51,3.9h-8.88c0.04,1.19,0.41,2.15,1.12,2.87s1.58,1.09,2.59,1.09C43.76,249.06,45.02,248.27,45.85,246.7z
				 M45.85,244c-0.17-0.94-0.61-1.68-1.3-2.21c-0.69-0.53-1.49-0.8-2.4-0.8c-1.86,0-3.07,1-3.64,3.01H45.85z"/>
			<path class="st0" d="M52.65,245.77l-2.86,4.12h-1.5l3.6-5.2l-3.25-4.66h1.52l2.49,3.57l2.47-3.57h1.52l-3.23,4.64l3.66,5.22
				h-1.54L52.65,245.77z"/>
			<path class="st0" d="M58.55,240.03h1.26v1.8c1-1.38,2.31-2.06,3.92-2.06c1.39,0,2.58,0.51,3.59,1.53c1,1.02,1.5,2.25,1.5,3.69
				c0,1.44-0.5,2.67-1.49,3.7s-2.18,1.54-3.57,1.54c-1.51,0-2.83-0.67-3.96-2.03v5.29h-1.26V240.03z M67.57,245.01
				c0-1.1-0.38-2.05-1.14-2.83c-0.76-0.79-1.69-1.18-2.8-1.18s-2.03,0.39-2.78,1.16c-0.75,0.77-1.12,1.73-1.12,2.87
				s0.38,2.1,1.15,2.87c0.77,0.77,1.69,1.16,2.76,1.16c1.07,0,1.99-0.39,2.77-1.18C67.18,247.09,67.57,246.13,67.57,245.01z"/>
			<path class="st0" d="M70.72,240.03h1.3v1.43c0.35-0.58,0.68-1.01,1.01-1.28s0.69-0.41,1.1-0.41c0.4,0,0.81,0.11,1.22,0.33
				l-0.67,1.08c-0.19-0.11-0.38-0.17-0.58-0.17c-0.38,0-0.75,0.2-1.09,0.59s-0.59,0.91-0.75,1.53c-0.16,0.63-0.24,1.76-0.24,3.41
				v3.34h-1.3V240.03z"/>
			<path class="st0" d="M85.1,246.7l1.08,0.56c-1.07,1.98-2.64,2.97-4.72,2.97c-1.49,0-2.71-0.51-3.68-1.53
				c-0.97-1.02-1.45-2.25-1.45-3.69c0-1.44,0.49-2.67,1.46-3.7c0.97-1.03,2.17-1.54,3.6-1.54s2.63,0.48,3.6,1.43
				c0.97,0.95,1.48,2.25,1.51,3.9h-8.88c0.04,1.19,0.41,2.15,1.12,2.87s1.58,1.09,2.59,1.09C83.02,249.06,84.27,248.27,85.1,246.7z
				 M85.1,244c-0.17-0.94-0.61-1.68-1.3-2.21c-0.69-0.53-1.49-0.8-2.4-0.8c-1.86,0-3.07,1-3.64,3.01H85.1z"/>
			<path class="st0" d="M93.84,241.11l-0.82,0.84c-0.68-0.66-1.34-0.98-1.99-0.98c-0.42,0-0.77,0.13-1.06,0.4
				c-0.28,0.27-0.43,0.59-0.43,0.98c0,0.39,0.15,0.72,0.46,1c0.3,0.28,0.83,0.61,1.57,1c0.74,0.39,1.31,0.81,1.7,1.26
				c0.39,0.45,0.58,1.01,0.58,1.66c0,0.83-0.29,1.53-0.86,2.1c-0.58,0.57-1.29,0.85-2.13,0.85c-0.56,0-1.09-0.12-1.61-0.37
				c-0.51-0.25-0.95-0.59-1.31-1.04l0.8-0.89c0.66,0.73,1.34,1.1,2.06,1.1c0.51,0,0.94-0.17,1.3-0.5c0.36-0.33,0.54-0.73,0.54-1.18
				c0-0.45-0.16-0.82-0.47-1.11s-0.84-0.62-1.58-0.99c-0.74-0.37-1.29-0.78-1.65-1.22c-0.37-0.44-0.55-1.01-0.55-1.71
				c0-0.7,0.26-1.3,0.77-1.79c0.51-0.5,1.2-0.74,2.04-0.74C92.06,239.77,92.93,240.21,93.84,241.11z"/>
			<path class="st0" d="M101.05,241.11l-0.82,0.84c-0.68-0.66-1.34-0.98-1.99-0.98c-0.42,0-0.77,0.13-1.06,0.4
				c-0.28,0.27-0.43,0.59-0.43,0.98c0,0.39,0.15,0.72,0.46,1c0.3,0.28,0.83,0.61,1.57,1c0.74,0.39,1.31,0.81,1.7,1.26
				c0.39,0.45,0.58,1.01,0.58,1.66c0,0.83-0.29,1.53-0.86,2.1c-0.58,0.57-1.29,0.85-2.13,0.85c-0.56,0-1.09-0.12-1.61-0.37
				c-0.51-0.25-0.95-0.59-1.31-1.04l0.8-0.89c0.66,0.73,1.34,1.1,2.06,1.1c0.51,0,0.94-0.17,1.3-0.5c0.36-0.33,0.54-0.73,0.54-1.18
				c0-0.45-0.16-0.82-0.47-1.11s-0.84-0.62-1.58-0.99c-0.74-0.37-1.29-0.78-1.65-1.22c-0.37-0.44-0.55-1.01-0.55-1.71
				c0-0.7,0.26-1.3,0.77-1.79c0.51-0.5,1.2-0.74,2.04-0.74C99.26,239.77,100.14,240.21,101.05,241.11z"/>
			<path class="st0" d="M111.6,246.7l1.08,0.56c-1.07,1.98-2.64,2.97-4.72,2.97c-1.49,0-2.71-0.51-3.68-1.53
				c-0.97-1.02-1.45-2.25-1.45-3.69c0-1.44,0.49-2.67,1.46-3.7c0.97-1.03,2.17-1.54,3.6-1.54s2.63,0.48,3.6,1.43
				c0.97,0.95,1.48,2.25,1.51,3.9h-8.88c0.04,1.19,0.41,2.15,1.12,2.87s1.58,1.09,2.59,1.09
				C109.52,249.06,110.77,248.27,111.6,246.7z M111.6,244c-0.17-0.94-0.61-1.68-1.3-2.21c-0.69-0.53-1.49-0.8-2.4-0.8
				c-1.86,0-3.07,1-3.64,3.01H111.6z"/>
			<path class="st0" d="M125.22,236.22v13.67h-1.25v-1.69c-1.13,1.35-2.42,2.03-3.87,2.03c-1.46,0-2.68-0.51-3.67-1.54
				c-0.99-1.03-1.49-2.26-1.49-3.7c0-1.44,0.5-2.67,1.5-3.69c1-1.02,2.21-1.53,3.6-1.53c1.61,0,2.92,0.69,3.92,2.06v-5.61H125.22z
				 M124.05,245.03c0-1.13-0.37-2.08-1.12-2.86c-0.74-0.78-1.67-1.17-2.79-1.17c-1.12,0-2.05,0.4-2.8,1.2s-1.12,1.74-1.12,2.82
				s0.38,2.03,1.15,2.83c0.77,0.8,1.67,1.21,2.72,1.21s1.97-0.38,2.76-1.14C123.65,247.15,124.05,246.19,124.05,245.03z"/>
			<path class="st0" d="M132.84,249.89v-13.67h1.25v5.5c1.08-1.3,2.4-1.95,3.96-1.95c1.41,0,2.61,0.51,3.6,1.53
				c0.98,1.02,1.48,2.25,1.48,3.69c0,1.44-0.5,2.67-1.5,3.7c-1,1.03-2.21,1.54-3.6,1.54c-1.56,0-2.87-0.72-3.92-2.16v1.82H132.84z
				 M134.01,244.9c0,1.15,0.38,2.13,1.13,2.92c0.76,0.79,1.68,1.19,2.77,1.19s2.02-0.4,2.78-1.21c0.76-0.81,1.14-1.75,1.14-2.83
				s-0.37-2.03-1.12-2.83c-0.74-0.81-1.67-1.21-2.79-1.21c-1.11,0-2.05,0.38-2.8,1.13C134.38,242.81,134.01,243.76,134.01,244.9z"/>
			<path class="st0" d="M144.35,240.03h1.34l3.4,7.6l3.29-7.6h1.36l-5.89,13.47h-1.34l1.9-4.35L144.35,240.03z"/>
			<path class="st0" d="M169.66,242.07l-1,0.63c-0.87-1.15-2.06-1.73-3.57-1.73c-1.19,0-2.19,0.38-2.99,1.14
				c-0.81,0.76-1.21,1.71-1.21,2.83s0.4,2.09,1.19,2.9c0.79,0.8,1.8,1.21,3.01,1.21c1.45,0,2.64-0.58,3.57-1.73l1,0.67
				c-0.5,0.72-1.16,1.27-2,1.65s-1.74,0.58-2.7,0.58c-1.52,0-2.8-0.5-3.82-1.5c-1.02-1-1.53-2.23-1.53-3.68s0.52-2.69,1.55-3.73
				s2.36-1.55,3.99-1.55c0.95,0,1.84,0.21,2.65,0.61C168.6,240.79,169.23,241.35,169.66,242.07z"/>
			<path class="st0" d="M172.04,236.22h1.28v5.57c1.02-1.35,2.25-2.03,3.7-2.03c0.74,0,1.41,0.2,2.01,0.6s1.02,0.93,1.26,1.58
				c0.25,0.65,0.37,1.61,0.37,2.87v5.07h-1.28v-4.7c0-1.02-0.03-1.72-0.09-2.1c-0.06-0.38-0.2-0.75-0.41-1.1
				c-0.21-0.35-0.49-0.61-0.84-0.79c-0.35-0.18-0.78-0.27-1.28-0.27s-0.98,0.12-1.44,0.35c-0.46,0.24-0.85,0.56-1.17,0.99
				s-0.54,0.85-0.65,1.3c-0.11,0.45-0.17,1.34-0.17,2.69v3.62h-1.28V236.22z"/>
			<path class="st0" d="M193.2,240.03v9.87h-1.25v-1.69c-1.13,1.35-2.42,2.03-3.86,2.03s-2.67-0.52-3.67-1.55s-1.5-2.27-1.5-3.7
				s0.5-2.66,1.5-3.68c1-1.02,2.21-1.53,3.6-1.53c1.61,0,2.92,0.69,3.92,2.06v-1.8H193.2z M192.03,245.01
				c0-1.13-0.38-2.08-1.13-2.85c-0.75-0.77-1.68-1.16-2.78-1.16c-1.1,0-2.02,0.4-2.78,1.2c-0.76,0.8-1.13,1.74-1.13,2.83
				s0.38,2.03,1.15,2.83c0.77,0.8,1.69,1.2,2.76,1.2s1.99-0.38,2.76-1.15C191.65,247.14,192.03,246.17,192.03,245.01z"/>
			<path class="st0" d="M195.58,240.03h1.3v1.43c0.35-0.58,0.68-1.01,1.01-1.28s0.69-0.41,1.1-0.41c0.4,0,0.81,0.11,1.22,0.33
				l-0.67,1.08c-0.19-0.11-0.38-0.17-0.58-0.17c-0.38,0-0.75,0.2-1.09,0.59s-0.59,0.91-0.75,1.53c-0.16,0.63-0.24,1.76-0.24,3.41
				v3.34h-1.3V240.03z"/>
			<path class="st0" d="M211.48,240.03v9.87h-1.25v-1.69c-1.13,1.35-2.42,2.03-3.86,2.03s-2.67-0.52-3.67-1.55s-1.5-2.27-1.5-3.7
				s0.5-2.66,1.5-3.68c1-1.02,2.21-1.53,3.6-1.53c1.61,0,2.92,0.69,3.92,2.06v-1.8H211.48z M210.31,245.01
				c0-1.13-0.38-2.08-1.13-2.85c-0.75-0.77-1.68-1.16-2.78-1.16c-1.1,0-2.02,0.4-2.78,1.2c-0.76,0.8-1.13,1.74-1.13,2.83
				s0.38,2.03,1.15,2.83c0.77,0.8,1.69,1.2,2.76,1.2s1.99-0.38,2.76-1.15C209.93,247.14,210.31,246.17,210.31,245.01z"/>
			<path class="st0" d="M223.99,242.07l-1,0.63c-0.87-1.15-2.06-1.73-3.57-1.73c-1.19,0-2.19,0.38-2.99,1.14
				c-0.81,0.76-1.21,1.71-1.21,2.83s0.4,2.09,1.19,2.9c0.79,0.8,1.8,1.21,3.01,1.21c1.45,0,2.64-0.58,3.57-1.73l1,0.67
				c-0.5,0.72-1.16,1.27-2,1.65s-1.74,0.58-2.7,0.58c-1.52,0-2.8-0.5-3.82-1.5c-1.02-1-1.53-2.23-1.53-3.68s0.52-2.69,1.55-3.73
				s2.36-1.55,3.99-1.55c0.95,0,1.84,0.21,2.65,0.61C222.93,240.79,223.55,241.35,223.99,242.07z"/>
			<path class="st0" d="M228.76,248.33c0,0.33,0.04,0.53,0.13,0.59c0.09,0.06,0.31,0.09,0.67,0.09h0.76v1.08
				c-0.52,0.09-0.93,0.13-1.23,0.13c-0.56,0-0.97-0.14-1.23-0.41s-0.39-0.7-0.39-1.28v-7.43h-1.75v-1.08h1.75v-3.81h1.28v3.81h2.01
				v1.08h-2.01V248.33z"/>
			<path class="st0" d="M240.97,246.7l1.08,0.56c-1.07,1.98-2.64,2.97-4.72,2.97c-1.49,0-2.71-0.51-3.68-1.53
				c-0.97-1.02-1.45-2.25-1.45-3.69c0-1.44,0.49-2.67,1.46-3.7c0.97-1.03,2.17-1.54,3.6-1.54s2.63,0.48,3.6,1.43
				c0.97,0.95,1.48,2.25,1.51,3.9h-8.88c0.04,1.19,0.41,2.15,1.12,2.87s1.58,1.09,2.59,1.09
				C238.89,249.06,240.14,248.27,240.97,246.7z M240.97,244c-0.17-0.94-0.61-1.68-1.3-2.21c-0.69-0.53-1.49-0.8-2.4-0.8
				c-1.86,0-3.07,1-3.64,3.01H240.97z"/>
			<path class="st0" d="M244.26,240.03h1.3v1.43c0.35-0.58,0.68-1.01,1.01-1.28s0.69-0.41,1.1-0.41c0.4,0,0.81,0.11,1.22,0.33
				l-0.67,1.08c-0.19-0.11-0.38-0.17-0.58-0.17c-0.38,0-0.75,0.2-1.09,0.59s-0.59,0.91-0.75,1.53c-0.16,0.63-0.24,1.76-0.24,3.41
				v3.34h-1.3V240.03z"/>
			<path class="st0" d="M249.74,237.28c0-0.29,0.1-0.53,0.31-0.74s0.45-0.32,0.74-0.32s0.54,0.1,0.74,0.31
				c0.2,0.21,0.31,0.45,0.31,0.74c0,0.29-0.1,0.54-0.31,0.74c-0.2,0.21-0.45,0.31-0.74,0.31s-0.54-0.1-0.74-0.32
				S249.74,237.55,249.74,237.28z M250.15,240.03h1.28v9.87h-1.28V240.03z"/>
			<path class="st0" d="M253.25,240.03h7.25l-5.59,8.73h5.41v1.13h-7.6l5.59-8.75h-5.05V240.03z"/>
			<path class="st0" d="M261.35,237.28c0-0.29,0.1-0.53,0.31-0.74s0.45-0.32,0.74-0.32s0.54,0.1,0.74,0.31
				c0.2,0.21,0.31,0.45,0.31,0.74c0,0.29-0.1,0.54-0.31,0.74c-0.2,0.21-0.45,0.31-0.74,0.31s-0.54-0.1-0.74-0.32
				S261.35,237.55,261.35,237.28z M261.76,240.03h1.28v9.87h-1.28V240.03z"/>
			<path class="st0" d="M265.66,240.03h1.28v1.76c1.02-1.35,2.25-2.03,3.7-2.03c0.74,0,1.41,0.2,2.01,0.6s1.02,0.93,1.26,1.58
				c0.25,0.65,0.37,1.61,0.37,2.87v5.07h-1.26v-4.7c0-1.15-0.05-1.93-0.16-2.34c-0.1-0.41-0.27-0.76-0.48-1.04
				c-0.22-0.28-0.49-0.5-0.83-0.65c-0.33-0.15-0.74-0.22-1.22-0.22s-0.94,0.12-1.4,0.35c-0.46,0.24-0.85,0.56-1.17,0.99
				s-0.54,0.85-0.65,1.3c-0.11,0.45-0.17,1.34-0.17,2.69v3.62h-1.28V240.03z"/>
			<path class="st0" d="M285.63,240.03h1.28v7.62c0,1.35-0.12,2.34-0.35,2.97c-0.24,0.63-0.58,1.16-1.02,1.58
				c-0.45,0.42-0.99,0.74-1.62,0.97c-0.63,0.22-1.33,0.33-2.08,0.33c-2.58,0-4.27-1.03-5.09-3.08h1.38
				c0.72,1.29,1.94,1.93,3.66,1.93c0.83,0,1.55-0.16,2.16-0.48s1.05-0.73,1.3-1.24s0.38-1.29,0.38-2.35v-0.43
				c-0.51,0.63-1.11,1.1-1.8,1.41c-0.69,0.31-1.42,0.46-2.19,0.46c-1.44,0-2.63-0.49-3.59-1.47c-0.95-0.98-1.43-2.13-1.43-3.46
				c0-1.38,0.51-2.56,1.52-3.55c1.01-0.99,2.24-1.49,3.69-1.49s2.71,0.66,3.8,1.97V240.03z M285.69,244.8c0-1.08-0.37-1.98-1.1-2.71
				c-0.73-0.73-1.64-1.1-2.71-1.1c-1.14,0-2.09,0.39-2.84,1.18c-0.76,0.79-1.13,1.69-1.13,2.7c0,1.02,0.37,1.88,1.1,2.59
				c0.73,0.71,1.67,1.07,2.81,1.07c1.14,0,2.07-0.35,2.8-1.04C285.33,246.8,285.69,245.91,285.69,244.8z"/>
			<path class="st0" d="M296.54,248.33c0,0.33,0.04,0.53,0.13,0.59c0.09,0.06,0.31,0.09,0.67,0.09h0.76v1.08
				c-0.52,0.09-0.93,0.13-1.23,0.13c-0.56,0-0.97-0.14-1.23-0.41s-0.39-0.7-0.39-1.28v-7.43h-1.75v-1.08h1.75v-3.81h1.28v3.81h2.01
				v1.08h-2.01V248.33z"/>
			<path class="st0" d="M300.44,236.22h1.28v5.57c1.02-1.35,2.25-2.03,3.7-2.03c0.74,0,1.41,0.2,2.01,0.6s1.02,0.93,1.26,1.58
				c0.25,0.65,0.37,1.61,0.37,2.87v5.07h-1.28v-4.7c0-1.02-0.03-1.72-0.09-2.1c-0.06-0.38-0.2-0.75-0.41-1.1
				c-0.21-0.35-0.49-0.61-0.84-0.79c-0.35-0.18-0.78-0.27-1.28-0.27s-0.98,0.12-1.44,0.35c-0.46,0.24-0.85,0.56-1.17,0.99
				s-0.54,0.85-0.65,1.3c-0.11,0.45-0.17,1.34-0.17,2.69v3.62h-1.28V236.22z"/>
			<path class="st0" d="M320.08,246.7l1.08,0.56c-1.07,1.98-2.64,2.97-4.72,2.97c-1.49,0-2.71-0.51-3.68-1.53
				c-0.97-1.02-1.45-2.25-1.45-3.69c0-1.44,0.49-2.67,1.46-3.7c0.97-1.03,2.17-1.54,3.6-1.54s2.63,0.48,3.6,1.43
				c0.97,0.95,1.48,2.25,1.51,3.9h-8.88c0.04,1.19,0.41,2.15,1.12,2.87s1.58,1.09,2.59,1.09C318,249.06,319.25,248.27,320.08,246.7z
				 M320.08,244c-0.17-0.94-0.61-1.68-1.3-2.21c-0.69-0.53-1.49-0.8-2.4-0.8c-1.86,0-3.07,1-3.64,3.01H320.08z"/>
			<path class="st0" d="M323.26,237.28c0-0.29,0.1-0.53,0.31-0.74s0.45-0.32,0.74-0.32s0.54,0.1,0.74,0.31
				c0.2,0.21,0.31,0.45,0.31,0.74c0,0.29-0.1,0.54-0.31,0.74c-0.2,0.21-0.45,0.31-0.74,0.31s-0.54-0.1-0.74-0.32
				S323.26,237.55,323.26,237.28z M323.67,240.03h1.28v9.87h-1.28V240.03z"/>
			<path class="st0" d="M327.08,240.03h1.3v1.43c0.35-0.58,0.68-1.01,1.01-1.28s0.69-0.41,1.1-0.41c0.4,0,0.81,0.11,1.22,0.33
				l-0.67,1.08c-0.19-0.11-0.38-0.17-0.58-0.17c-0.38,0-0.75,0.2-1.09,0.59s-0.59,0.91-0.75,1.53c-0.16,0.63-0.24,1.76-0.24,3.41
				v3.34h-1.3V240.03z"/>
			<path class="st0" d="M21.04,264.03h1.36l3.29,7.51l3.29-7.51h1.36l-4.52,10.2h-0.22L21.04,264.03z"/>
			<path class="st0" d="M42.09,264.03v9.87h-1.25v-1.69c-1.13,1.35-2.42,2.03-3.86,2.03s-2.67-0.52-3.67-1.55s-1.5-2.27-1.5-3.7
				s0.5-2.66,1.5-3.68c1-1.02,2.21-1.53,3.6-1.53c1.61,0,2.92,0.69,3.92,2.06v-1.8H42.09z M40.92,269.01c0-1.13-0.38-2.08-1.13-2.85
				c-0.75-0.77-1.68-1.16-2.78-1.16c-1.1,0-2.02,0.4-2.78,1.2c-0.76,0.8-1.13,1.74-1.13,2.83s0.38,2.03,1.15,2.83
				c0.77,0.8,1.69,1.2,2.76,1.2s1.99-0.38,2.76-1.15C40.54,271.14,40.92,270.17,40.92,269.01z"/>
			<path class="st0" d="M44.47,264.03h1.3v1.43c0.35-0.58,0.68-1.01,1.01-1.28s0.69-0.41,1.1-0.41c0.4,0,0.81,0.11,1.22,0.33
				l-0.67,1.08c-0.19-0.11-0.38-0.17-0.58-0.17c-0.38,0-0.75,0.2-1.09,0.59s-0.59,0.91-0.75,1.53c-0.16,0.63-0.24,1.76-0.24,3.41
				v3.34h-1.3V264.03z"/>
			<path class="st0" d="M49.95,261.28c0-0.29,0.1-0.53,0.31-0.74s0.45-0.32,0.74-0.32s0.54,0.1,0.74,0.31
				c0.2,0.21,0.31,0.45,0.31,0.74c0,0.29-0.1,0.54-0.31,0.74c-0.2,0.21-0.45,0.31-0.74,0.31s-0.54-0.1-0.74-0.32
				S49.95,261.55,49.95,261.28z M50.36,264.03h1.28v9.87h-1.28V264.03z"/>
			<path class="st0" d="M53.8,269.03c0-1.45,0.5-2.69,1.5-3.72c1-1.03,2.21-1.54,3.64-1.54s2.64,0.51,3.64,1.54
				c1,1.03,1.5,2.26,1.5,3.7c0,1.44-0.49,2.67-1.48,3.69c-0.98,1.02-2.2,1.53-3.65,1.53s-2.67-0.51-3.66-1.53
				C54.29,271.67,53.8,270.45,53.8,269.03z M62.79,269.04c0-1.09-0.38-2.04-1.14-2.83s-1.67-1.2-2.71-1.2s-1.95,0.4-2.7,1.2
				c-0.76,0.8-1.13,1.75-1.13,2.85s0.37,2.04,1.1,2.81c0.73,0.77,1.64,1.15,2.72,1.15s2-0.39,2.75-1.16
				C62.42,271.09,62.79,270.15,62.79,269.04z"/>
			<path class="st0" d="M74.9,273.89h-1.28v-1.76c-1.02,1.35-2.25,2.03-3.7,2.03c-0.74,0-1.41-0.2-2.01-0.6
				c-0.59-0.4-1.02-0.93-1.26-1.58s-0.37-1.61-0.37-2.87v-5.07h1.26v4.7c0,1.15,0.05,1.93,0.16,2.34c0.11,0.41,0.27,0.75,0.48,1.04
				s0.49,0.5,0.83,0.65c0.33,0.15,0.74,0.22,1.22,0.22c0.48,0,0.94-0.12,1.4-0.35s0.85-0.56,1.17-0.99c0.32-0.42,0.54-0.85,0.65-1.3
				c0.11-0.45,0.17-1.34,0.17-2.69v-3.62h1.28V273.89z"/>
			<path class="st0" d="M82.69,265.11l-0.82,0.84c-0.68-0.66-1.34-0.98-1.99-0.98c-0.42,0-0.77,0.13-1.06,0.4
				c-0.28,0.27-0.43,0.59-0.43,0.98c0,0.39,0.15,0.72,0.46,1c0.3,0.28,0.83,0.61,1.57,1c0.74,0.39,1.31,0.81,1.7,1.26
				c0.39,0.45,0.58,1.01,0.58,1.66c0,0.83-0.29,1.53-0.86,2.1c-0.58,0.57-1.29,0.85-2.13,0.85c-0.56,0-1.09-0.12-1.61-0.37
				c-0.51-0.25-0.95-0.59-1.31-1.04l0.8-0.89c0.66,0.73,1.34,1.1,2.06,1.1c0.51,0,0.94-0.17,1.3-0.5c0.36-0.33,0.54-0.73,0.54-1.18
				c0-0.45-0.16-0.82-0.47-1.11s-0.84-0.62-1.58-0.99c-0.74-0.37-1.29-0.78-1.65-1.22c-0.37-0.44-0.55-1.01-0.55-1.71
				c0-0.7,0.26-1.3,0.77-1.79c0.51-0.5,1.2-0.74,2.04-0.74C80.91,263.77,81.78,264.21,82.69,265.11z"/>
			<path class="st0" d="M89.6,264.03h1.26v1.8c1-1.38,2.31-2.06,3.92-2.06c1.39,0,2.58,0.51,3.59,1.53c1,1.02,1.5,2.25,1.5,3.69
				c0,1.44-0.5,2.67-1.49,3.7s-2.18,1.54-3.57,1.54c-1.51,0-2.83-0.67-3.96-2.03v5.29H89.6V264.03z M98.61,269.01
				c0-1.1-0.38-2.05-1.14-2.83c-0.76-0.79-1.69-1.18-2.8-1.18s-2.03,0.39-2.78,1.16c-0.75,0.77-1.12,1.73-1.12,2.87
				s0.38,2.1,1.15,2.87c0.77,0.77,1.69,1.16,2.76,1.16c1.07,0,1.99-0.39,2.77-1.18C98.22,271.09,98.61,270.13,98.61,269.01z"/>
			<path class="st0" d="M101.77,264.03h1.3v1.43c0.35-0.58,0.68-1.01,1.01-1.28s0.69-0.41,1.1-0.41c0.4,0,0.81,0.11,1.22,0.33
				l-0.67,1.08c-0.19-0.11-0.38-0.17-0.58-0.17c-0.38,0-0.75,0.2-1.09,0.59s-0.59,0.91-0.75,1.53c-0.16,0.63-0.24,1.76-0.24,3.41
				v3.34h-1.3V264.03z"/>
			<path class="st0" d="M107.38,269.03c0-1.45,0.5-2.69,1.5-3.72c1-1.03,2.21-1.54,3.64-1.54s2.64,0.51,3.64,1.54
				c1,1.03,1.5,2.26,1.5,3.7c0,1.44-0.49,2.67-1.48,3.69c-0.98,1.02-2.2,1.53-3.65,1.53s-2.67-0.51-3.66-1.53
				C107.88,271.67,107.38,270.45,107.38,269.03z M116.37,269.04c0-1.09-0.38-2.04-1.14-2.83s-1.67-1.2-2.71-1.2s-1.95,0.4-2.7,1.2
				c-0.76,0.8-1.13,1.75-1.13,2.85s0.37,2.04,1.1,2.81c0.73,0.77,1.64,1.15,2.72,1.15s2-0.39,2.75-1.16
				C116,271.09,116.37,270.15,116.37,269.04z"/>
			<path class="st0" d="M129.86,260.22v13.67h-1.25v-1.69c-1.13,1.35-2.42,2.03-3.87,2.03c-1.46,0-2.68-0.51-3.67-1.54
				c-0.99-1.03-1.49-2.26-1.49-3.7c0-1.44,0.5-2.67,1.5-3.69c1-1.02,2.21-1.53,3.6-1.53c1.61,0,2.92,0.69,3.92,2.06v-5.61H129.86z
				 M128.69,269.03c0-1.13-0.37-2.08-1.12-2.86c-0.74-0.78-1.67-1.17-2.79-1.17c-1.12,0-2.05,0.4-2.8,1.2s-1.12,1.74-1.12,2.82
				s0.38,2.03,1.15,2.83c0.77,0.8,1.67,1.21,2.72,1.21s1.97-0.38,2.76-1.14C128.3,271.15,128.69,270.19,128.69,269.03z"/>
			<path class="st0" d="M141.22,273.89h-1.28v-1.76c-1.02,1.35-2.25,2.03-3.7,2.03c-0.74,0-1.41-0.2-2.01-0.6
				c-0.59-0.4-1.02-0.93-1.26-1.58s-0.37-1.61-0.37-2.87v-5.07h1.26v4.7c0,1.15,0.05,1.93,0.16,2.34c0.11,0.41,0.27,0.75,0.48,1.04
				s0.49,0.5,0.83,0.65c0.33,0.15,0.74,0.22,1.22,0.22c0.48,0,0.94-0.12,1.4-0.35s0.85-0.56,1.17-0.99c0.32-0.42,0.54-0.85,0.65-1.3
				c0.11-0.45,0.17-1.34,0.17-2.69v-3.62h1.28V273.89z"/>
			<path class="st0" d="M153.68,266.07l-1,0.63c-0.87-1.15-2.06-1.73-3.57-1.73c-1.19,0-2.19,0.38-2.99,1.14
				c-0.81,0.76-1.21,1.71-1.21,2.83s0.4,2.09,1.19,2.9c0.79,0.8,1.8,1.21,3.01,1.21c1.45,0,2.64-0.58,3.57-1.73l1,0.67
				c-0.5,0.72-1.16,1.27-2,1.65s-1.74,0.58-2.7,0.58c-1.52,0-2.8-0.5-3.82-1.5c-1.02-1-1.53-2.23-1.53-3.68s0.52-2.69,1.55-3.73
				s2.36-1.55,3.99-1.55c0.95,0,1.84,0.21,2.65,0.61C152.63,264.79,153.25,265.35,153.68,266.07z"/>
			<path class="st0" d="M158.46,272.33c0,0.33,0.04,0.53,0.13,0.59c0.09,0.06,0.31,0.09,0.67,0.09h0.76v1.08
				c-0.52,0.09-0.93,0.13-1.23,0.13c-0.56,0-0.97-0.14-1.23-0.41s-0.39-0.7-0.39-1.28v-7.43h-1.75v-1.08h1.75v-3.81h1.28v3.81h2.01
				v1.08h-2.01V272.33z"/>
			<path class="st0" d="M167.32,265.11l-0.82,0.84c-0.68-0.66-1.34-0.98-1.99-0.98c-0.42,0-0.77,0.13-1.06,0.4
				c-0.28,0.27-0.43,0.59-0.43,0.98c0,0.39,0.15,0.72,0.46,1c0.3,0.28,0.83,0.61,1.57,1c0.74,0.39,1.31,0.81,1.7,1.26
				c0.39,0.45,0.58,1.01,0.58,1.66c0,0.83-0.29,1.53-0.86,2.1c-0.58,0.57-1.29,0.85-2.13,0.85c-0.56,0-1.09-0.12-1.61-0.37
				c-0.51-0.25-0.95-0.59-1.31-1.04l0.8-0.89c0.66,0.73,1.34,1.1,2.06,1.1c0.51,0,0.94-0.17,1.3-0.5c0.36-0.33,0.54-0.73,0.54-1.18
				c0-0.45-0.16-0.82-0.47-1.11s-0.84-0.62-1.58-0.99c-0.74-0.37-1.29-0.78-1.65-1.22c-0.37-0.44-0.55-1.01-0.55-1.71
				c0-0.7,0.26-1.3,0.77-1.79c0.51-0.5,1.2-0.74,2.04-0.74C165.54,263.77,166.41,264.21,167.32,265.11z"/>
			<path class="st0" d="M169.85,273.02c0-0.31,0.11-0.57,0.33-0.79s0.49-0.33,0.79-0.33s0.56,0.11,0.78,0.33s0.33,0.48,0.33,0.8
				c0,0.32-0.11,0.58-0.33,0.8s-0.48,0.33-0.78,0.33s-0.57-0.11-0.79-0.33C169.96,273.6,169.85,273.33,169.85,273.02z"/>
		</g>
	</g>
</g>
</svg>
