<?xml version="1.0" encoding="utf-8"?>
<!-- Generator: Adobe Illustrator 23.0.1, SVG Export Plug-In . SVG Version: 6.00 Build 0)  -->
<svg version="1.1" id="レイヤー_1" xmlns="http://www.w3.org/2000/svg" xmlns:xlink="http://www.w3.org/1999/xlink" x="0px"
	 y="0px" viewBox="0 0 408 74" style="enable-background:new 0 0 408 74;" xml:space="preserve">
<style type="text/css">
	.st0{font-family:'TsukuBRdGothic-Regular-83pv-RKSJ-H';}
	.st1{font-size:22.4px;}
	.st2{fill:none;stroke:#000000;stroke-miterlimit:10;}
	.st3{fill:none;stroke:#000000;stroke-miterlimit:10;stroke-dasharray:9.8339,7.8671;}
	.st4{fill:none;stroke:#000000;stroke-miterlimit:10;stroke-dasharray:10.1206,8.0965;}
</style>
<text transform="matrix(1 0 0 1 38.0813 45.2666)" class="st0 st1">Design portfolio download</text>
<g>
	<g>
		<g>
			<rect x="359.02" y="19.52" width="3.39" height="20.05"/>
		</g>
		<g>
			<polygon points="360.71,41.97 352.26,33.51 354.66,31.11 360.71,37.17 366.77,31.11 369.17,33.51 			"/>
		</g>
	</g>
	<g>
		<polygon points="378.39,50.05 343.04,50.05 343.04,36.39 352.57,36.39 352.57,39.92 346.57,39.92 346.57,46.52 374.86,46.52 
			374.86,39.92 368.83,39.92 368.83,36.39 378.39,36.39 		"/>
	</g>
</g>
<g>
	<g>
		<polyline class="st2" points="399.63,58.03 399.63,63.03 394.63,63.03 		"/>
		<line class="st3" x1="386.77" y1="63.03" x2="18.98" y2="63.03"/>
		<polyline class="st2" points="15.05,63.03 10.05,63.03 10.05,58.03 		"/>
		<line class="st4" x1="10.05" y1="49.93" x2="10.05" y2="17.55"/>
		<polyline class="st2" points="10.05,13.5 10.05,8.5 15.05,8.5 		"/>
		<line class="st3" x1="22.91" y1="8.5" x2="390.7" y2="8.5"/>
		<polyline class="st2" points="394.63,8.5 399.63,8.5 399.63,13.5 		"/>
		<line class="st4" x1="399.63" y1="21.59" x2="399.63" y2="53.98"/>
	</g>
</g>
</svg>
