<?xml version="1.0" encoding="utf-8"?>
<!-- Generator: Adobe Illustrator 23.0.1, SVG Export Plug-In . SVG Version: 6.00 Build 0)  -->
<svg version="1.1" id="レイヤー_1" xmlns="http://www.w3.org/2000/svg" xmlns:xlink="http://www.w3.org/1999/xlink" x="0px"
	 y="0px" viewBox="0 0 414.69 266.53" style="enable-background:new 0 0 414.69 266.53;" xml:space="preserve">
<style type="text/css">
	.st0{fill:#E0E0DF;}
	.st1{fill:#DF7073;}
	.st2{fill:#DB9C98;}
	.st3{fill:#E7A29B;}
	.st4{fill:#FFFFFF;}
</style>
<g>
	<g>
		<g>
			<rect x="18.76" y="6.72" class="st0" width="389.88" height="25.54"/>
			<polygon class="st1" points="3.58,43.49 30.09,43.49 30.09,17.92 3.58,17.92 10.84,30.92 			"/>
			<polygon class="st2" points="3.58,43.49 30.09,43.49 30.09,17.92 3.58,17.92 10.84,30.92 			"/>
			<path class="st3" d="M358.81,6.69c-0.22,0-340.05,0.03-340.05,0.03v25.54l340.17-0.02c8.24,0,14.8-5.72,14.8-12.78
				C373.74,12.41,367.05,6.69,358.81,6.69z"/>
		</g>
	</g>
	<g>
		<g>
			<path class="st4" d="M30.7,25.64c-0.39,0-0.58-0.19-0.58-0.58V14.62c0-0.39,0.19-0.58,0.58-0.58s0.58,0.19,0.58,0.58v10.44
				C31.28,25.44,31.09,25.64,30.7,25.64z"/>
			<path class="st4" d="M39.4,22.82v-8.2c0-0.39,0.19-0.58,0.58-0.58s0.58,0.19,0.58,0.58v10.44c0,0.39-0.19,0.58-0.58,0.58
				c-0.23,0-0.4-0.1-0.51-0.29l-4.72-8.5v8.21c0,0.39-0.19,0.58-0.58,0.58s-0.58-0.19-0.58-0.58V14.62c0-0.39,0.19-0.58,0.58-0.58
				c0.23,0,0.41,0.11,0.54,0.34L39.4,22.82z"/>
			<path class="st4" d="M42.88,14.62c0-0.39,0.19-0.58,0.58-0.58h5.8c0.39,0,0.58,0.19,0.58,0.58s-0.19,0.58-0.58,0.58h-2.32v9.86
				c0,0.39-0.19,0.58-0.58,0.58s-0.58-0.19-0.58-0.58V15.2h-2.32C43.08,15.2,42.88,15,42.88,14.62z"/>
			<path class="st4" d="M52.16,25.06V14.62c0-0.39,0.19-0.58,0.58-0.58h4.64c0.39,0,0.58,0.19,0.58,0.58s-0.19,0.58-0.58,0.58h-4.06
				v3.48h2.9c0.39,0,0.58,0.19,0.58,0.58s-0.19,0.58-0.58,0.58h-2.9v4.64h4.06c0.39,0,0.58,0.19,0.58,0.58s-0.19,0.58-0.58,0.58
				h-4.64C52.36,25.64,52.16,25.44,52.16,25.06z"/>
			<path class="st4" d="M65.16,20.75l2.02,4.04c0.05,0.09,0.07,0.18,0.07,0.26c0,0.15-0.06,0.29-0.18,0.4s-0.25,0.18-0.41,0.18
				c-0.25,0-0.42-0.11-0.53-0.33L63.98,21c-0.05,0-0.12,0-0.21,0h-2.32v4.06c0,0.39-0.19,0.58-0.58,0.58s-0.58-0.19-0.58-0.58V14.62
				c0-0.39,0.19-0.58,0.58-0.58h2.9c0.97,0,1.79,0.34,2.46,1.02c0.68,0.68,1.02,1.5,1.02,2.46C67.25,19.12,66.55,20.19,65.16,20.75z
				 M61.45,15.2v4.64h2.32c0.65,0,1.2-0.22,1.65-0.67c0.45-0.45,0.67-1,0.67-1.65s-0.22-1.2-0.67-1.65c-0.45-0.45-1-0.67-1.65-0.67
				H61.45z"/>
			<path class="st4" d="M70.15,25.64c-0.39,0-0.58-0.19-0.58-0.58V14.62c0-0.39,0.19-0.58,0.58-0.58s0.58,0.19,0.58,0.58v10.44
				C70.73,25.44,70.53,25.64,70.15,25.64z"/>
			<path class="st4" d="M80.01,22.16c0,0.96-0.34,1.78-1.02,2.46s-1.5,1.02-2.46,1.02s-1.78-0.34-2.46-1.02s-1.02-1.5-1.02-2.46
				v-4.64c0-0.96,0.34-1.78,1.02-2.46s1.5-1.02,2.46-1.02c0.97,0,1.79,0.34,2.46,1.02c0.68,0.68,1.02,1.5,1.02,2.46V22.16z
				 M78.85,22.16v-4.64c0-0.65-0.22-1.2-0.67-1.65c-0.45-0.45-1-0.67-1.65-0.67s-1.2,0.22-1.65,0.67c-0.45,0.45-0.67,1-0.67,1.65
				v4.64c0,0.65,0.22,1.2,0.67,1.65c0.45,0.45,1,0.67,1.65,0.67s1.2-0.22,1.65-0.67C78.62,23.36,78.85,22.81,78.85,22.16z"/>
			<path class="st4" d="M87.2,20.75l2.02,4.04c0.05,0.09,0.07,0.18,0.07,0.26c0,0.15-0.06,0.29-0.18,0.4s-0.25,0.18-0.41,0.18
				c-0.25,0-0.42-0.11-0.53-0.33L86.02,21c-0.05,0-0.12,0-0.21,0h-2.32v4.06c0,0.39-0.19,0.58-0.58,0.58s-0.58-0.19-0.58-0.58V14.62
				c0-0.39,0.19-0.58,0.58-0.58h2.9c0.97,0,1.79,0.34,2.46,1.02c0.68,0.68,1.02,1.5,1.02,2.46C89.29,19.12,88.59,20.19,87.2,20.75z
				 M83.49,15.2v4.64h2.32c0.65,0,1.2-0.22,1.65-0.67c0.45-0.45,0.67-1,0.67-1.65s-0.22-1.2-0.67-1.65c-0.45-0.45-1-0.67-1.65-0.67
				H83.49z"/>
			<path class="st4" d="M98.57,14.62c0-0.39,0.19-0.58,0.58-0.58h3.48c0.81,0,1.5,0.28,2.06,0.84s0.84,1.25,0.84,2.06v5.8
				c0,0.8-0.28,1.49-0.85,2.05s-1.25,0.85-2.05,0.85h-3.48c-0.39,0-0.58-0.19-0.58-0.58V14.62z M99.73,15.2v9.28h2.9
				c0.48,0,0.89-0.17,1.23-0.51s0.51-0.75,0.51-1.23v-5.8c0-0.48-0.17-0.89-0.51-1.23s-0.75-0.51-1.23-0.51H99.73z"/>
			<path class="st4" d="M107.85,25.06V14.62c0-0.39,0.19-0.58,0.58-0.58h4.64c0.39,0,0.58,0.19,0.58,0.58s-0.19,0.58-0.58,0.58
				h-4.06v3.48h2.9c0.39,0,0.58,0.19,0.58,0.58s-0.19,0.58-0.58,0.58h-2.9v4.64h4.06c0.39,0,0.58,0.19,0.58,0.58
				s-0.19,0.58-0.58,0.58h-4.64C108.05,25.64,107.85,25.44,107.85,25.06z"/>
			<path class="st4" d="M122.93,22.74c0,0.8-0.28,1.48-0.85,2.05s-1.25,0.85-2.05,0.85c-1.43,0-2.7-0.42-3.81-1.27
				c-0.17-0.13-0.25-0.29-0.25-0.47c0-0.16,0.06-0.29,0.17-0.41c0.11-0.12,0.25-0.17,0.41-0.17c0.09,0,0.21,0.04,0.33,0.11
				c0.34,0.21,0.87,0.47,1.6,0.81c0.47,0.16,0.99,0.25,1.55,0.25c0.48,0,0.89-0.17,1.23-0.51s0.51-0.75,0.51-1.23
				c0-0.71-0.32-1.23-0.97-1.56l-3.26-1.67c-1.05-0.54-1.57-1.4-1.57-2.58c0-0.8,0.28-1.48,0.85-2.05s1.25-0.85,2.05-0.85
				c1.37,0,2.42,0.21,3.14,0.63c0.23,0.13,0.34,0.31,0.34,0.53c0,0.16-0.06,0.29-0.17,0.41c-0.11,0.12-0.25,0.17-0.41,0.17
				c-0.06,0-0.14-0.02-0.25-0.06c-0.89-0.35-1.78-0.52-2.65-0.52c-0.48,0-0.89,0.17-1.23,0.51s-0.51,0.75-0.51,1.23
				c0,0.71,0.32,1.22,0.95,1.55l3.26,1.67C122.4,20.7,122.93,21.56,122.93,22.74z"/>
			<path class="st4" d="M125.83,25.64c-0.39,0-0.58-0.19-0.58-0.58V14.62c0-0.39,0.19-0.58,0.58-0.58s0.58,0.19,0.58,0.58v10.44
				C126.41,25.44,126.22,25.64,125.83,25.64z"/>
			<path class="st4" d="M131.64,24.48h2.9v-4.64h-1.16c-0.39,0-0.58-0.19-0.58-0.58s0.19-0.58,0.58-0.58h1.74
				c0.39,0,0.58,0.19,0.58,0.58v5.8c0,0.39-0.19,0.58-0.58,0.58h-3.48c-0.8,0-1.49-0.28-2.05-0.85s-0.85-1.25-0.85-2.05v-5.8
				c0-0.8,0.28-1.49,0.85-2.05c0.57-0.56,1.25-0.85,2.05-0.85h3.48c0.39,0,0.58,0.19,0.58,0.58s-0.19,0.58-0.58,0.58h-3.48
				c-0.49,0-0.9,0.17-1.24,0.51s-0.5,0.75-0.5,1.23v5.8c0,0.49,0.17,0.9,0.5,1.23C130.74,24.31,131.15,24.48,131.64,24.48z"/>
			<path class="st4" d="M143.82,22.82v-8.2c0-0.39,0.19-0.58,0.58-0.58s0.58,0.19,0.58,0.58v10.44c0,0.39-0.19,0.58-0.58,0.58
				c-0.23,0-0.4-0.1-0.51-0.29l-4.72-8.5v8.21c0,0.39-0.19,0.58-0.58,0.58s-0.58-0.19-0.58-0.58V14.62c0-0.39,0.19-0.58,0.58-0.58
				c0.23,0,0.41,0.11,0.54,0.34L143.82,22.82z"/>
		</g>
	</g>
</g>
<g>
	<g>
		<rect x="18.76" y="60.27" class="st0" width="389.88" height="25.54"/>
		<polygon class="st1" points="3.58,97.04 30.09,97.04 30.09,71.47 3.58,71.47 10.84,84.47 		"/>
		<polygon class="st2" points="3.58,97.04 30.09,97.04 30.09,71.47 3.58,71.47 10.84,84.47 		"/>
		<path class="st3" d="M379.28,60.24c-0.26,0-0.5,0.02-0.76,0.03H18.76v25.54l361.66-0.02c9.59,0,16.23-5.72,16.23-12.78
			S388.87,60.24,379.28,60.24z"/>
	</g>
	<g>
		<g>
			<path class="st4" d="M34.15,77.82h2.9v-4.64h-1.16c-0.39,0-0.58-0.19-0.58-0.58s0.19-0.58,0.58-0.58h1.74
				c0.39,0,0.58,0.19,0.58,0.58v5.8c0,0.39-0.19,0.58-0.58,0.58h-3.48c-0.8,0-1.49-0.28-2.05-0.85s-0.85-1.25-0.85-2.05v-5.8
				c0-0.8,0.28-1.49,0.85-2.05c0.57-0.56,1.25-0.85,2.05-0.85h3.48c0.39,0,0.58,0.19,0.58,0.58s-0.19,0.58-0.58,0.58h-3.48
				c-0.49,0-0.9,0.17-1.23,0.51s-0.51,0.75-0.51,1.23v5.8c0,0.49,0.17,0.9,0.51,1.23C33.25,77.65,33.66,77.82,34.15,77.82z"/>
			<path class="st4" d="M45.4,74.09l2.02,4.04c0.05,0.09,0.07,0.18,0.07,0.26c0,0.15-0.06,0.29-0.18,0.4s-0.25,0.18-0.4,0.18
				c-0.25,0-0.42-0.11-0.53-0.33l-2.16-4.32c-0.05,0-0.12,0-0.21,0h-2.32v4.06c0,0.39-0.19,0.58-0.58,0.58s-0.58-0.19-0.58-0.58
				V67.96c0-0.39,0.19-0.58,0.58-0.58h2.9c0.97,0,1.79,0.34,2.47,1.02c0.68,0.68,1.02,1.5,1.02,2.46
				C47.49,72.46,46.79,73.53,45.4,74.09z M41.69,68.54v4.64h2.32c0.65,0,1.2-0.22,1.65-0.67c0.45-0.45,0.67-1,0.67-1.65
				s-0.22-1.2-0.67-1.65c-0.45-0.45-1-0.67-1.65-0.67H41.69z"/>
			<path class="st4" d="M57.93,78.4c0,0.39-0.19,0.58-0.58,0.58c-0.28,0-0.46-0.13-0.55-0.4l-0.83-2.5h-4.2l-0.83,2.5
				c-0.09,0.26-0.27,0.4-0.55,0.4c-0.38,0-0.58-0.19-0.58-0.58c0-0.07,0.01-0.13,0.03-0.18l3.45-10.37c0.11-0.31,0.3-0.47,0.58-0.47
				s0.47,0.15,0.57,0.45l3.46,10.39C57.92,78.26,57.93,78.33,57.93,78.4z M53.87,69.77l-1.71,5.14h3.43L53.87,69.77z"/>
			<path class="st4" d="M60.83,67.38h2.9c0.97,0,1.79,0.34,2.47,1.02c0.68,0.68,1.02,1.5,1.02,2.46c0,1.03-0.32,1.87-0.97,2.51
				s-1.48,0.97-2.51,0.97h-2.32v4.06c0,0.39-0.19,0.58-0.58,0.58s-0.58-0.19-0.58-0.58V67.96C60.25,67.57,60.45,67.38,60.83,67.38z
				 M61.41,68.54v4.64h2.32c0.65,0,1.2-0.22,1.65-0.67c0.45-0.45,0.67-1,0.67-1.65s-0.22-1.2-0.67-1.65c-0.45-0.45-1-0.67-1.65-0.67
				H61.41z"/>
			<path class="st4" d="M69.53,78.4V67.96c0-0.39,0.19-0.58,0.58-0.58s0.58,0.19,0.58,0.58v4.06h4.64v-4.06
				c0-0.39,0.19-0.58,0.58-0.58s0.58,0.19,0.58,0.58V78.4c0,0.39-0.19,0.58-0.58,0.58s-0.58-0.19-0.58-0.58v-5.22h-4.64v5.22
				c0,0.39-0.19,0.58-0.58,0.58S69.53,78.78,69.53,78.4z"/>
			<path class="st4" d="M79.39,78.98c-0.39,0-0.58-0.19-0.58-0.58V67.96c0-0.39,0.19-0.58,0.58-0.58s0.58,0.19,0.58,0.58V78.4
				C79.97,78.78,79.78,78.98,79.39,78.98z"/>
			<path class="st4" d="M87.52,67.38c0.39,0,0.58,0.19,0.58,0.58s-0.19,0.58-0.58,0.58H85.2c-0.49,0-0.9,0.17-1.23,0.51
				s-0.51,0.75-0.51,1.23v5.8c0,0.48,0.17,0.89,0.51,1.23s0.75,0.51,1.23,0.51h2.32c0.39,0,0.58,0.19,0.58,0.58
				s-0.19,0.58-0.58,0.58H85.2c-0.8,0-1.49-0.28-2.05-0.85s-0.85-1.25-0.85-2.05v-5.8c0-0.8,0.28-1.49,0.85-2.05
				c0.57-0.56,1.25-0.85,2.05-0.85H87.52z"/>
			<path class="st4" d="M97.38,67.96c0-0.39,0.19-0.58,0.58-0.58h3.48c0.81,0,1.5,0.28,2.06,0.84s0.84,1.25,0.84,2.06v5.8
				c0,0.8-0.28,1.49-0.85,2.05s-1.25,0.85-2.05,0.85h-3.48c-0.39,0-0.58-0.19-0.58-0.58V67.96z M98.54,68.54v9.28h2.9
				c0.48,0,0.89-0.17,1.23-0.51s0.51-0.75,0.51-1.23v-5.8c0-0.48-0.17-0.89-0.51-1.23s-0.75-0.51-1.23-0.51H98.54z"/>
			<path class="st4" d="M106.66,78.4V67.96c0-0.39,0.19-0.58,0.58-0.58h4.64c0.39,0,0.58,0.19,0.58,0.58s-0.19,0.58-0.58,0.58h-4.06
				v3.48h2.9c0.39,0,0.58,0.19,0.58,0.58s-0.19,0.58-0.58,0.58h-2.9v4.64h4.06c0.39,0,0.58,0.19,0.58,0.58s-0.19,0.58-0.58,0.58
				h-4.64C106.85,78.98,106.66,78.78,106.66,78.4z"/>
			<path class="st4" d="M121.74,76.08c0,0.8-0.28,1.48-0.85,2.05s-1.25,0.85-2.05,0.85c-1.43,0-2.7-0.42-3.81-1.27
				c-0.17-0.13-0.25-0.29-0.25-0.47c0-0.16,0.06-0.29,0.17-0.41c0.11-0.12,0.25-0.17,0.41-0.17c0.09,0,0.21,0.04,0.33,0.11
				c0.34,0.21,0.87,0.47,1.6,0.81c0.47,0.16,0.99,0.25,1.55,0.25c0.48,0,0.89-0.17,1.23-0.51s0.51-0.75,0.51-1.23
				c0-0.71-0.32-1.23-0.97-1.56l-3.26-1.67c-1.05-0.54-1.57-1.4-1.57-2.58c0-0.8,0.28-1.48,0.85-2.05s1.25-0.85,2.05-0.85
				c1.37,0,2.42,0.21,3.14,0.63c0.23,0.13,0.34,0.31,0.34,0.53c0,0.16-0.06,0.29-0.17,0.41c-0.11,0.12-0.25,0.17-0.41,0.17
				c-0.06,0-0.14-0.02-0.25-0.06c-0.89-0.35-1.78-0.52-2.65-0.52c-0.48,0-0.89,0.17-1.23,0.51s-0.51,0.75-0.51,1.23
				c0,0.71,0.32,1.22,0.95,1.55l3.26,1.67C121.21,74.04,121.74,74.9,121.74,76.08z"/>
			<path class="st4" d="M124.64,78.98c-0.39,0-0.58-0.19-0.58-0.58V67.96c0-0.39,0.19-0.58,0.58-0.58s0.58,0.19,0.58,0.58V78.4
				C125.22,78.78,125.03,78.98,124.64,78.98z"/>
			<path class="st4" d="M130.44,77.82h2.9v-4.64h-1.16c-0.39,0-0.58-0.19-0.58-0.58s0.19-0.58,0.58-0.58h1.74
				c0.39,0,0.58,0.19,0.58,0.58v5.8c0,0.39-0.19,0.58-0.58,0.58h-3.48c-0.8,0-1.49-0.28-2.05-0.85c-0.57-0.57-0.85-1.25-0.85-2.05
				v-5.8c0-0.8,0.28-1.49,0.85-2.05c0.57-0.56,1.25-0.85,2.05-0.85h3.48c0.39,0,0.58,0.19,0.58,0.58s-0.19,0.58-0.58,0.58h-3.48
				c-0.49,0-0.9,0.17-1.23,0.51s-0.51,0.75-0.51,1.23v5.8c0,0.49,0.17,0.9,0.51,1.23C129.54,77.65,129.95,77.82,130.44,77.82z"/>
			<path class="st4" d="M142.62,76.16v-8.2c0-0.39,0.19-0.58,0.58-0.58s0.58,0.19,0.58,0.58V78.4c0,0.39-0.19,0.58-0.58,0.58
				c-0.23,0-0.4-0.1-0.51-0.29l-4.72-8.5v8.21c0,0.39-0.19,0.58-0.58,0.58s-0.58-0.19-0.58-0.58V67.96c0-0.39,0.19-0.58,0.58-0.58
				c0.23,0,0.41,0.11,0.54,0.34L142.62,76.16z"/>
		</g>
	</g>
</g>
<g>
	<g>
		<rect x="18.76" y="113.82" class="st0" width="390.87" height="25.54"/>
		<polygon class="st1" points="3.58,150.59 30.09,150.59 30.09,125.02 3.58,125.02 10.84,138.02 		"/>
		<polygon class="st2" points="3.58,150.59 30.09,150.59 30.09,125.02 3.58,125.02 10.84,138.02 		"/>
		<path class="st3" d="M342.29,113.79c-0.21,0-323.53,0.03-323.53,0.03v25.54l324.27-0.02c8.01,0,13.75-5.72,13.75-12.78
			C356.79,119.51,350.3,113.79,342.29,113.79z"/>
	</g>
	<g>
		<g>
			<path class="st4" d="M36.47,121.21c0.39,0,0.58,0.19,0.58,0.58s-0.19,0.58-0.58,0.58h-2.32c-0.49,0-0.9,0.17-1.23,0.51
				s-0.51,0.75-0.51,1.23v5.8c0,0.48,0.17,0.89,0.51,1.23s0.75,0.51,1.23,0.51h2.32c0.39,0,0.58,0.19,0.58,0.58
				s-0.19,0.58-0.58,0.58h-2.32c-0.8,0-1.49-0.28-2.05-0.85s-0.85-1.25-0.85-2.05v-5.8c0-0.8,0.28-1.49,0.85-2.05
				c0.57-0.56,1.25-0.85,2.05-0.85H36.47z"/>
			<path class="st4" d="M44.24,127.92l2.02,4.04c0.05,0.09,0.07,0.18,0.07,0.26c0,0.15-0.06,0.29-0.18,0.4s-0.25,0.18-0.4,0.18
				c-0.25,0-0.42-0.11-0.53-0.33l-2.16-4.32c-0.05,0-0.12,0-0.21,0h-2.32v4.06c0,0.39-0.19,0.58-0.58,0.58s-0.58-0.19-0.58-0.58
				v-10.44c0-0.39,0.19-0.58,0.58-0.58h2.9c0.97,0,1.79,0.34,2.47,1.02c0.68,0.68,1.02,1.5,1.02,2.46
				C46.33,126.29,45.63,127.37,44.24,127.92z M40.53,122.37v4.64h2.32c0.65,0,1.2-0.22,1.65-0.67c0.45-0.45,0.67-1,0.67-1.65
				s-0.22-1.2-0.67-1.65c-0.45-0.45-1-0.67-1.65-0.67H40.53z"/>
			<path class="st4" d="M48.65,132.23v-10.44c0-0.39,0.19-0.58,0.58-0.58h4.64c0.39,0,0.58,0.19,0.58,0.58s-0.19,0.58-0.58,0.58
				h-4.06v3.48h2.9c0.39,0,0.58,0.19,0.58,0.58s-0.19,0.58-0.58,0.58h-2.9v4.64h4.06c0.39,0,0.58,0.19,0.58,0.58
				s-0.19,0.58-0.58,0.58h-4.64C48.84,132.81,48.65,132.62,48.65,132.23z"/>
			<path class="st4" d="M64.89,132.23c0,0.39-0.19,0.58-0.58,0.58c-0.28,0-0.46-0.13-0.55-0.4l-0.83-2.5h-4.2l-0.83,2.5
				c-0.09,0.26-0.27,0.4-0.55,0.4c-0.38,0-0.58-0.19-0.58-0.58c0-0.07,0.01-0.13,0.03-0.18l3.45-10.37c0.11-0.31,0.3-0.47,0.58-0.47
				s0.47,0.15,0.57,0.45l3.46,10.39C64.88,132.1,64.89,132.16,64.89,132.23z M60.83,123.61l-1.71,5.14h3.43L60.83,123.61z"/>
			<path class="st4" d="M67.21,121.79c0-0.39,0.19-0.58,0.58-0.58h5.8c0.39,0,0.58,0.19,0.58,0.58s-0.19,0.58-0.58,0.58h-2.32v9.86
				c0,0.39-0.19,0.58-0.58,0.58s-0.58-0.19-0.58-0.58v-9.86h-2.32C67.41,122.37,67.21,122.17,67.21,121.79z"/>
			<path class="st4" d="M77.07,132.81c-0.39,0-0.58-0.19-0.58-0.58v-10.44c0-0.39,0.19-0.58,0.58-0.58s0.58,0.19,0.58,0.58v10.44
				C77.65,132.62,77.46,132.81,77.07,132.81z"/>
			<path class="st4" d="M84.03,132.81c-0.28,0-0.47-0.15-0.57-0.45L80,121.97c-0.02-0.05-0.03-0.11-0.03-0.18
				c0-0.39,0.19-0.58,0.58-0.58c0.28,0,0.46,0.13,0.55,0.4l2.93,8.8l2.93-8.8c0.09-0.26,0.27-0.4,0.55-0.4
				c0.38,0,0.58,0.19,0.58,0.58c0,0.07-0.01,0.13-0.03,0.18l-3.46,10.39C84.51,132.66,84.32,132.81,84.03,132.81z"/>
			<path class="st4" d="M90.42,132.23v-10.44c0-0.39,0.19-0.58,0.58-0.58h4.64c0.39,0,0.58,0.19,0.58,0.58s-0.19,0.58-0.58,0.58
				h-4.06v3.48h2.9c0.39,0,0.58,0.19,0.58,0.58s-0.19,0.58-0.58,0.58h-2.9v4.64h4.06c0.39,0,0.58,0.19,0.58,0.58
				s-0.19,0.58-0.58,0.58H91C90.61,132.81,90.42,132.62,90.42,132.23z"/>
		</g>
	</g>
</g>
<g>
	<g>
		<rect x="18.76" y="167.37" class="st0" width="389.88" height="25.54"/>
		<polygon class="st1" points="3.58,204.14 30.09,204.14 30.09,178.57 3.58,178.57 10.84,191.57 		"/>
		<polygon class="st2" points="3.58,204.14 30.09,204.14 30.09,178.57 3.58,178.57 10.84,191.57 		"/>
		<path class="st3" d="M332.55,167.34c-0.23,0-313.79,0.03-313.79,0.03v25.54l313.79-0.02c8.52,0,15.42-5.72,15.42-12.78
			C347.97,173.06,341.07,167.34,332.55,167.34z"/>
	</g>
	<g>
		<g>
			<path class="st4" d="M31.83,174.48h2.9c0.97,0,1.79,0.34,2.47,1.02c0.68,0.68,1.02,1.5,1.02,2.46c0,1.03-0.32,1.87-0.97,2.51
				s-1.48,0.97-2.51,0.97h-2.32v4.06c0,0.39-0.19,0.58-0.58,0.58s-0.58-0.19-0.58-0.58v-10.44
				C31.25,174.67,31.44,174.48,31.83,174.48z M32.41,175.64v4.64h2.32c0.65,0,1.2-0.22,1.65-0.67c0.45-0.45,0.67-1,0.67-1.65
				s-0.22-1.2-0.67-1.65c-0.45-0.45-1-0.67-1.65-0.67H32.41z"/>
			<path class="st4" d="M40.53,175.06c0-0.39,0.19-0.58,0.58-0.58s0.58,0.19,0.58,0.58v9.86h4.06c0.39,0,0.58,0.19,0.58,0.58
				s-0.19,0.58-0.58,0.58h-4.64c-0.39,0-0.58-0.19-0.58-0.58V175.06z"/>
			<path class="st4" d="M56.77,185.5c0,0.39-0.19,0.58-0.58,0.58c-0.28,0-0.46-0.13-0.55-0.4l-0.83-2.5h-4.2l-0.83,2.5
				c-0.09,0.26-0.27,0.4-0.55,0.4c-0.38,0-0.58-0.19-0.58-0.58c0-0.07,0.01-0.13,0.03-0.18l3.45-10.37c0.11-0.31,0.3-0.47,0.58-0.47
				s0.47,0.15,0.57,0.45l3.46,10.39C56.76,185.37,56.77,185.43,56.77,185.5z M52.71,176.88L51,182.02h3.43L52.71,176.88z"/>
			<path class="st4" d="M64.89,183.26v-8.2c0-0.39,0.19-0.58,0.58-0.58s0.58,0.19,0.58,0.58v10.44c0,0.39-0.19,0.58-0.58,0.58
				c-0.23,0-0.4-0.1-0.51-0.29l-4.72-8.5v8.21c0,0.39-0.19,0.58-0.58,0.58s-0.58-0.19-0.58-0.58v-10.44c0-0.39,0.19-0.58,0.58-0.58
				c0.23,0,0.41,0.11,0.54,0.34L64.89,183.26z"/>
			<path class="st4" d="M74.17,183.26v-8.2c0-0.39,0.19-0.58,0.58-0.58s0.58,0.19,0.58,0.58v10.44c0,0.39-0.19,0.58-0.58,0.58
				c-0.23,0-0.4-0.1-0.51-0.29l-4.72-8.5v8.21c0,0.39-0.19,0.58-0.58,0.58s-0.58-0.19-0.58-0.58v-10.44c0-0.39,0.19-0.58,0.58-0.58
				c0.23,0,0.41,0.11,0.54,0.34L74.17,183.26z"/>
			<path class="st4" d="M78.23,186.08c-0.39,0-0.58-0.19-0.58-0.58v-10.44c0-0.39,0.19-0.58,0.58-0.58s0.58,0.19,0.58,0.58v10.44
				C78.81,185.89,78.62,186.08,78.23,186.08z"/>
			<path class="st4" d="M86.94,183.26v-8.2c0-0.39,0.19-0.58,0.58-0.58s0.58,0.19,0.58,0.58v10.44c0,0.39-0.19,0.58-0.58,0.58
				c-0.23,0-0.4-0.1-0.51-0.29l-4.72-8.5v8.21c0,0.39-0.19,0.58-0.58,0.58s-0.58-0.19-0.58-0.58v-10.44c0-0.39,0.19-0.58,0.58-0.58
				c0.23,0,0.41,0.11,0.54,0.34L86.94,183.26z"/>
			<path class="st4" d="M93.32,184.92h2.9v-4.64h-1.16c-0.39,0-0.58-0.19-0.58-0.58s0.19-0.58,0.58-0.58h1.74
				c0.39,0,0.58,0.19,0.58,0.58v5.8c0,0.39-0.19,0.58-0.58,0.58h-3.48c-0.8,0-1.49-0.28-2.05-0.85s-0.85-1.25-0.85-2.05v-5.8
				c0-0.8,0.28-1.49,0.85-2.05c0.57-0.56,1.25-0.85,2.05-0.85h3.48c0.39,0,0.58,0.19,0.58,0.58s-0.19,0.58-0.58,0.58h-3.48
				c-0.49,0-0.9,0.17-1.23,0.51s-0.51,0.75-0.51,1.23v5.8c0,0.49,0.17,0.9,0.51,1.23C92.42,184.75,92.83,184.92,93.32,184.92z"/>
			<path class="st4" d="M114.78,185.5c0,0.39-0.19,0.58-0.58,0.58c-0.28,0-0.46-0.13-0.55-0.4l-0.83-2.5h-4.2l-0.83,2.5
				c-0.09,0.26-0.27,0.4-0.55,0.4c-0.38,0-0.58-0.19-0.58-0.58c0-0.07,0.01-0.13,0.03-0.18l3.45-10.37c0.11-0.31,0.3-0.47,0.58-0.47
				s0.47,0.15,0.57,0.45l3.46,10.39C114.77,185.37,114.78,185.43,114.78,185.5z M110.72,176.88l-1.71,5.14h3.43L110.72,176.88z"/>
			<path class="st4" d="M122.41,179.64c1.1,0.66,1.65,1.64,1.65,2.96c0,0.96-0.34,1.78-1.02,2.46s-1.5,1.02-2.46,1.02h-2.9
				c-0.39,0-0.58-0.19-0.58-0.58v-10.44c0-0.39,0.19-0.58,0.58-0.58h2.9c0.81,0,1.5,0.28,2.06,0.84s0.84,1.25,0.84,2.06
				C123.48,178.3,123.12,179.06,122.41,179.64z M118.26,175.64v3.48h2.32c0.48,0,0.89-0.17,1.23-0.51s0.51-0.75,0.51-1.23
				s-0.17-0.89-0.51-1.23s-0.75-0.51-1.23-0.51H118.26z M118.26,180.28v4.64h2.32c0.65,0,1.2-0.22,1.65-0.67
				c0.45-0.45,0.67-1,0.67-1.65s-0.22-1.2-0.67-1.65c-0.45-0.45-1-0.67-1.65-0.67H118.26z"/>
			<path class="st4" d="M126.96,186.08c-0.39,0-0.58-0.19-0.58-0.58v-10.44c0-0.39,0.19-0.58,0.58-0.58s0.58,0.19,0.58,0.58v10.44
				C127.54,185.89,127.35,186.08,126.96,186.08z"/>
			<path class="st4" d="M129.86,175.06c0-0.39,0.19-0.58,0.58-0.58s0.58,0.19,0.58,0.58v9.86h4.06c0.39,0,0.58,0.19,0.58,0.58
				s-0.19,0.58-0.58,0.58h-4.64c-0.39,0-0.58-0.19-0.58-0.58V175.06z"/>
			<path class="st4" d="M138.56,186.08c-0.39,0-0.58-0.19-0.58-0.58v-10.44c0-0.39,0.19-0.58,0.58-0.58s0.58,0.19,0.58,0.58v10.44
				C139.14,185.89,138.95,186.08,138.56,186.08z"/>
			<path class="st4" d="M141.46,175.06c0-0.39,0.19-0.58,0.58-0.58h5.8c0.39,0,0.58,0.19,0.58,0.58s-0.19,0.58-0.58,0.58h-2.32v9.86
				c0,0.39-0.19,0.58-0.58,0.58s-0.58-0.19-0.58-0.58v-9.86h-2.32C141.66,175.64,141.46,175.45,141.46,175.06z"/>
			<path class="st4" d="M155.38,180.29v5.21c0,0.39-0.19,0.58-0.58,0.58s-0.58-0.19-0.58-0.58v-5.23l-3.37-4.88
				c-0.07-0.1-0.11-0.21-0.11-0.33c0-0.38,0.19-0.58,0.58-0.58c0.21,0,0.37,0.08,0.48,0.25l3,4.36l3-4.36
				c0.11-0.16,0.27-0.25,0.48-0.25c0.39,0,0.58,0.19,0.58,0.58c0,0.12-0.03,0.24-0.1,0.33L155.38,180.29z"/>
		</g>
	</g>
</g>
<g>
	<g>
		<rect x="18.76" y="220.92" class="st0" width="387.21" height="25.54"/>
		<polygon class="st1" points="3.58,257.69 30.09,257.69 30.09,232.12 3.58,232.12 10.84,245.12 		"/>
		<polygon class="st2" points="3.58,257.69 30.09,257.69 30.09,232.12 3.58,232.12 10.84,245.12 		"/>
		<path class="st3" d="M373.86,220.89c-0.28,0-355.09,0.03-355.09,0.03v25.54l355.09-0.02c10.56,0,19.13-5.72,19.13-12.78
			C392.99,226.61,384.42,220.89,373.86,220.89z"/>
	</g>
	<g>
		<g>
			<path class="st4" d="M36.47,228.78c0.39,0,0.58,0.19,0.58,0.58s-0.19,0.58-0.58,0.58h-2.32c-0.49,0-0.9,0.17-1.23,0.51
				s-0.51,0.75-0.51,1.23v5.8c0,0.48,0.17,0.89,0.51,1.23s0.75,0.51,1.23,0.51h2.32c0.39,0,0.58,0.19,0.58,0.58
				s-0.19,0.58-0.58,0.58h-2.32c-0.8,0-1.49-0.28-2.05-0.85s-0.85-1.25-0.85-2.05v-5.8c0-0.8,0.28-1.49,0.85-2.05
				c0.57-0.56,1.25-0.85,2.05-0.85H36.47z"/>
			<path class="st4" d="M46.33,236.9c0,0.96-0.34,1.78-1.02,2.46s-1.5,1.02-2.46,1.02s-1.78-0.34-2.46-1.02s-1.02-1.5-1.02-2.46
				v-4.64c0-0.96,0.34-1.78,1.02-2.46s1.5-1.02,2.46-1.02c0.97,0,1.79,0.34,2.47,1.02c0.68,0.68,1.02,1.5,1.02,2.46V236.9z
				 M45.17,236.9v-4.64c0-0.65-0.22-1.2-0.67-1.65c-0.45-0.45-1-0.67-1.65-0.67s-1.2,0.22-1.65,0.67c-0.45,0.45-0.67,1-0.67,1.65
				v4.64c0,0.65,0.22,1.2,0.67,1.65c0.45,0.45,1,0.67,1.65,0.67s1.2-0.22,1.65-0.67C44.95,238.1,45.17,237.55,45.17,236.9z"/>
			<path class="st4" d="M56.19,228.78c0.39,0,0.58,0.19,0.58,0.58v10.44c0,0.39-0.19,0.58-0.58,0.58s-0.58-0.19-0.58-0.58v-8.53
				l-2.36,3.53c-0.16,0.23-0.34,0.35-0.54,0.35c-0.21,0-0.39-0.12-0.55-0.35l-2.35-3.54v8.53c0,0.39-0.19,0.58-0.58,0.58
				s-0.58-0.19-0.58-0.58v-10.44c0-0.39,0.19-0.58,0.58-0.58c0.21,0,0.38,0.1,0.51,0.29l2.97,4.46l2.99-4.49
				C55.81,228.86,55.97,228.78,56.19,228.78z"/>
			<path class="st4" d="M66.63,228.78c0.39,0,0.58,0.19,0.58,0.58v10.44c0,0.39-0.19,0.58-0.58,0.58s-0.58-0.19-0.58-0.58v-8.53
				l-2.36,3.53c-0.16,0.23-0.34,0.35-0.54,0.35c-0.21,0-0.39-0.12-0.55-0.35l-2.35-3.54v8.53c0,0.39-0.19,0.58-0.58,0.58
				s-0.58-0.19-0.58-0.58v-10.44c0-0.39,0.19-0.58,0.58-0.58c0.21,0,0.38,0.1,0.51,0.29l2.97,4.46l2.99-4.49
				C66.25,228.86,66.42,228.78,66.63,228.78z"/>
			<path class="st4" d="M70.11,240.38c-0.39,0-0.58-0.19-0.58-0.58v-10.44c0-0.39,0.19-0.58,0.58-0.58s0.58,0.19,0.58,0.58v10.44
				C70.69,240.19,70.5,240.38,70.11,240.38z"/>
			<path class="st4" d="M79.97,229.36v7.54c0,0.96-0.34,1.78-1.02,2.46s-1.5,1.02-2.46,1.02s-1.78-0.34-2.46-1.02
				s-1.02-1.5-1.02-2.46v-7.54c0-0.39,0.19-0.58,0.58-0.58s0.58,0.19,0.58,0.58v7.54c0,0.65,0.22,1.2,0.67,1.65
				c0.45,0.45,1,0.67,1.65,0.67s1.2-0.22,1.65-0.67c0.45-0.45,0.67-1,0.67-1.65v-7.54c0-0.39,0.19-0.58,0.58-0.58
				S79.97,228.97,79.97,229.36z"/>
			<path class="st4" d="M88.1,237.56v-8.2c0-0.39,0.19-0.58,0.58-0.58s0.58,0.19,0.58,0.58v10.44c0,0.39-0.19,0.58-0.58,0.58
				c-0.23,0-0.4-0.1-0.51-0.29l-4.72-8.5v8.21c0,0.39-0.19,0.58-0.58,0.58s-0.58-0.19-0.58-0.58v-10.44c0-0.39,0.19-0.58,0.58-0.58
				c0.23,0,0.41,0.11,0.54,0.34L88.1,237.56z"/>
			<path class="st4" d="M92.16,240.38c-0.39,0-0.58-0.19-0.58-0.58v-10.44c0-0.39,0.19-0.58,0.58-0.58s0.58,0.19,0.58,0.58v10.44
				C92.74,240.19,92.54,240.38,92.16,240.38z"/>
			<path class="st4" d="M100.28,228.78c0.39,0,0.58,0.19,0.58,0.58s-0.19,0.58-0.58,0.58h-2.32c-0.49,0-0.9,0.17-1.23,0.51
				s-0.51,0.75-0.51,1.23v5.8c0,0.48,0.17,0.89,0.51,1.23s0.75,0.51,1.23,0.51h2.32c0.39,0,0.58,0.19,0.58,0.58
				s-0.19,0.58-0.58,0.58h-2.32c-0.8,0-1.49-0.28-2.05-0.85s-0.85-1.25-0.85-2.05v-5.8c0-0.8,0.28-1.49,0.85-2.05
				c0.57-0.56,1.25-0.85,2.05-0.85H100.28z"/>
			<path class="st4" d="M111.3,239.8c0,0.39-0.19,0.58-0.58,0.58c-0.28,0-0.46-0.13-0.55-0.4l-0.83-2.5h-4.2l-0.83,2.5
				c-0.09,0.26-0.27,0.4-0.55,0.4c-0.38,0-0.58-0.19-0.58-0.58c0-0.07,0.01-0.13,0.03-0.18l3.45-10.37c0.11-0.31,0.3-0.47,0.58-0.47
				s0.47,0.15,0.57,0.45l3.46,10.39C111.29,239.67,111.3,239.73,111.3,239.8z M107.24,231.18l-1.71,5.14h3.43L107.24,231.18z"/>
			<path class="st4" d="M113.62,229.36c0-0.39,0.19-0.58,0.58-0.58h5.8c0.39,0,0.58,0.19,0.58,0.58s-0.19,0.58-0.58,0.58h-2.32v9.86
				c0,0.39-0.19,0.58-0.58,0.58s-0.58-0.19-0.58-0.58v-9.86h-2.32C113.81,229.94,113.62,229.75,113.62,229.36z"/>
			<path class="st4" d="M123.48,240.38c-0.39,0-0.58-0.19-0.58-0.58v-10.44c0-0.39,0.19-0.58,0.58-0.58s0.58,0.19,0.58,0.58v10.44
				C124.06,240.19,123.87,240.38,123.48,240.38z"/>
			<path class="st4" d="M133.34,236.9c0,0.96-0.34,1.78-1.02,2.46s-1.5,1.02-2.46,1.02s-1.78-0.34-2.46-1.02
				c-0.68-0.68-1.02-1.5-1.02-2.46v-4.64c0-0.96,0.34-1.78,1.02-2.46c0.68-0.68,1.5-1.02,2.46-1.02c0.97,0,1.79,0.34,2.47,1.02
				c0.68,0.68,1.02,1.5,1.02,2.46V236.9z M132.18,236.9v-4.64c0-0.65-0.22-1.2-0.67-1.65c-0.45-0.45-1-0.67-1.65-0.67
				s-1.2,0.22-1.65,0.67c-0.45,0.45-0.67,1-0.67,1.65v4.64c0,0.65,0.22,1.2,0.67,1.65c0.45,0.45,1,0.67,1.65,0.67
				s1.2-0.22,1.65-0.67C131.96,238.1,132.18,237.55,132.18,236.9z"/>
			<path class="st4" d="M141.46,237.56v-8.2c0-0.39,0.19-0.58,0.58-0.58s0.58,0.19,0.58,0.58v10.44c0,0.39-0.19,0.58-0.58,0.58
				c-0.23,0-0.4-0.1-0.51-0.29l-4.72-8.5v8.21c0,0.39-0.19,0.58-0.58,0.58s-0.58-0.19-0.58-0.58v-10.44c0-0.39,0.19-0.58,0.58-0.58
				c0.23,0,0.41,0.11,0.54,0.34L141.46,237.56z"/>
		</g>
	</g>
</g>
</svg>
