<?xml version="1.0" encoding="utf-8"?>
<!-- Generator: Adobe Illustrator 23.0.0, SVG Export Plug-In . SVG Version: 6.00 Build 0)  -->
<svg version="1.1" id="Layer_1" xmlns="http://www.w3.org/2000/svg" xmlns:xlink="http://www.w3.org/1999/xlink" x="0px" y="0px"
	 viewBox="0 0 190 60" style="enable-background:new 0 0 190 60;" xml:space="preserve">
<style type="text/css">
	.st0{fill:#4D4D4D;}
	.st1{fill:#FFFFFF;}
</style>
<rect x="65.46" y="-64.85" transform="matrix(6.123234e-17 -1 1 6.123234e-17 65.3063 125.612)" class="st0" width="60" height="190"/>
<g>
	<path class="st1" d="M76.03,27.77c-0.04,0.76-0.04,1.26-0.04,1.8c0,0.5,0,1.04,0.04,1.87c0,0.04,0,0.04,0,0.07
		c0,0.76-0.76,0.87-0.9,0.87c-0.5,0-1.01-0.29-1.01-0.94c0-2.88-3.2-2.88-3.42-2.88c-1.87,0-2.92,1.12-2.92,2.3
		c0,0.87,0.58,1.8,1.76,2.38c1.01,0.47,2.74,1.19,3.85,1.76c2.23,1.15,3.2,2.84,3.2,4.46c0,1.98-1.58,4.64-5.69,4.64
		c-1.55,0-2.84-0.54-3.6-1.19c-0.07-0.07-0.18-0.14-0.25-0.14c-0.07,0-0.11,0.07-0.11,0.18c0,0.9-0.43,1.01-0.86,1.01
		c-0.47,0-0.94-0.29-0.94-0.86c0-0.04,0-0.04,0-0.07c0.04-0.79,0.07-1.33,0.07-1.87c0-0.54-0.04-1.08-0.07-1.94
		c0-0.04,0-0.04,0-0.07c0-0.61,0.5-0.94,1.01-0.94s0.97,0.32,0.97,0.97c0,0.25-0.07,0.43-0.07,0.68c0,1.19,1.8,2.38,3.85,2.38
		c1.84,0,3.6-1.04,3.6-2.77c0-1.91-1.58-2.77-5.76-4.5c-1.98-0.83-2.92-2.41-2.92-3.99c0-2.09,1.69-4.14,4.9-4.14
		c1.3,0,2.63,0.54,3.17,0.97c0.07,0.07,0.14,0.07,0.22,0.07c0.18,0,0.14-0.32,0.18-0.43c0.11-0.4,0.47-0.58,0.83-0.58
		c0.47,0,0.9,0.29,0.9,0.86V27.77z"/>
	<path class="st1" d="M96.23,43.61c-0.94-0.04-1.8-0.07-2.59-0.07s-1.58,0.04-2.41,0.07c-0.04,0-0.04,0-0.07,0
		c-0.65,0-0.97-0.47-0.97-0.94c0-0.94,0.72-0.94,0.97-0.94c0.94,0,0.94-0.21,0.94-0.25c0-0.04-0.04-0.11-0.07-0.14
		c-1.91-1.87-4.86-4.61-5.98-5.76c-0.36-0.4-0.72-0.43-1.08-0.43c-0.54,0-0.58,0.32-0.58,2.2c0,0.86,0,2.02,0.04,3.74
		c0,0.36,0.18,0.61,0.61,0.61c0.54,0,0.5,0,1.01-0.04h0.04c0.68,0,1.04,0.47,1.04,0.97s-0.36,0.97-1.04,0.97h-0.04
		c-0.94-0.04-1.87-0.07-2.81-0.07c-0.9,0-1.76,0.04-2.59,0.07c-0.83,0.04-1.08-0.54-1.08-0.94c0-0.5,0.36-1.01,1.04-1.01h0.04
		c0.43,0,0.5,0.04,1.08,0.04c0.36,0,0.61-0.22,0.61-0.61c0.07-3.78,0.11-8.64,0.11-13.03c0-2.52-0.04-4.93-0.04-6.88
		c0-1.01-0.29-1.4-1.19-1.44c-0.79,0-0.79,0-0.79,0h-0.04c-0.65,0-1.01-0.5-1.01-1.01c0-0.94,0.65-1.04,1.91-1.04
		c2.95,0,3.2,1.91,3.2,2.7c0,4.64-0.07,12.28-0.07,12.28c0,0.4,0.25,0.58,0.61,0.58c0.4,0,0.54-0.04,6.23-3.96
		c0.11-0.07,0.14-0.14,0.14-0.18c0-0.07-0.07-0.11-0.25-0.11c-0.65,0-1.51,0-1.51-0.86c0-0.47,0.32-0.94,0.97-0.94
		c0.04,0,0.04,0,0.07,0c0.9,0.04,1.69,0.04,2.52,0.04c0.79,0,1.66,0,2.59-0.04c0.36-0.04,1.04,0.07,1.04,0.94
		c0,0.47-0.36,0.94-1.01,0.94h-0.04c-0.5,0-0.22-0.04-0.72-0.04c-0.29,0-0.65,0.14-0.9,0.32c-2.12,1.44-4.9,3.31-6.66,4.46
		c-0.22,0.14-0.29,0.25-0.29,0.36c0,0.25,0.94,1.12,7.45,7.09c0.36,0.36,0.68,0.43,1.04,0.43c0.14,0,0.32-0.04,0.54-0.04
		c0.58-0.04,1.01,0.32,1.01,0.94c0,0.5-0.32,1.01-1.01,1.01H96.23z"/>
	<path class="st1" d="M106.13,43.65c-0.97-0.04-2.05-0.07-3.06-0.07s-2.02,0.04-2.88,0.07c-0.14,0-1.12,0.04-1.12-1.01
		c0-0.5,0.36-1.01,1.08-1.01h0.04c0.47,0,0.68,0.04,1.3,0.04c0.43,0,0.65-0.25,0.65-0.72c0.04-3.42,0.07-6.95,0.07-10.08
		c0-1.04-0.36-1.62-1.22-1.65c-0.29,0-0.47,0.04-0.76,0.04c-0.04,0-0.04,0-0.07,0c-0.65,0-0.97-0.5-0.97-0.97
		c0-0.54,0.36-1.08,1.04-1.08c0.68,0,0.58,0.04,1.4,0.04c1.98,0,2.66,1.44,2.66,2.95c0,0.04,0,0.07,0,0.11
		c-0.04,2.52-0.07,5.25-0.07,7.88c0,0.94,0,1.91,0,2.81c0,0.36,0.22,0.68,0.65,0.68c0.58,0,0.72,0,1.26-0.04
		c0.14,0,1.12-0.04,1.12,1.01c0,0.5-0.36,1.01-1.08,1.01H106.13z M102.49,20.64c-0.18,0-1.69,0-1.69-1.73
		c0-1.15,1.01-1.69,1.73-1.69c1.12,0,1.76,0.83,1.76,1.69C104.29,19.21,104.11,20.64,102.49,20.64z"/>
	<path class="st1" d="M115.85,52.9c-0.97-0.04-2.23-0.04-3.42-0.04c-0.83,0-1.66,0-2.3,0.04c-0.22,0-1.04,0-1.01-0.97
		c0-0.5,0.29-0.97,0.94-0.97c0.04,0,0.04,0,0.07,0c0.47,0.04,0.58,0.04,1.15,0.04c0.5,0,0.68-0.32,0.68-0.87
		c0.04-3.6,0.04-9.18,0.04-13.93c0-1.94,0-3.74,0-5.22c0-1.04-0.32-1.73-1.26-1.76c-0.32,0-0.25,0.04-0.72,0.04h-0.04
		c-0.65,0-1.01-0.5-1.01-1.01c0-0.47,0.36-1.01,1.04-1.01c0.47,0,0.83-0.04,1.19-0.04c1.37,0.04,2.59,0.9,2.7,2.3
		c0.04,0.29,0,0.58,0.07,0.58c0.07,0,0.14-0.11,0.29-0.29c1.19-1.69,3.53-2.84,5.94-2.84c4.68,0,8.17,3.49,8.17,8.57
		c0,5.15-3.49,8.53-8.17,8.53c-2.12,0-4.28-0.87-5.72-2.63c-0.22-0.25-0.32-0.43-0.36-0.43c-0.07,0-0.07,0.18-0.07,0.58v8.57
		c0,0.47,0.18,0.83,0.83,0.83c0.58,0,0.5-0.04,1.04-0.04h0.04c0.61,0,0.94,0.47,0.94,0.97s-0.32,1.01-1.01,1.01H115.85z
		 M126.25,35.51c0-4.03-2.7-6.7-6.12-6.7c-3.42,0-6.12,2.66-6.12,6.7s2.7,6.66,6.12,6.66C123.55,42.17,126.25,39.54,126.25,35.51z"
		/>
</g>
</svg>
