<?xml version="1.0" encoding="utf-8"?>
<!-- Generator: Adobe Illustrator 23.0.1, SVG Export Plug-In . SVG Version: 6.00 Build 0)  -->
<svg version="1.1" id="レイヤー_1" xmlns="http://www.w3.org/2000/svg" xmlns:xlink="http://www.w3.org/1999/xlink" x="0px"
	 y="0px" viewBox="0 0 414.69 299.47" style="enable-background:new 0 0 414.69 299.47;" xml:space="preserve">
<style type="text/css">
	.st0{fill:#1B2733;}
	.st1{fill:#E7A29B;}
	.st2{fill:#E6E6E5;}
	.st3{fill:#4E4D4D;}
</style>
<g>
	<g>
		<path class="st0" d="M30.75,29.43V13.19c0-0.6,0.3-0.9,0.9-0.9s0.9,0.3,0.9,0.9v6.32h7.22v-6.32c0-0.6,0.3-0.9,0.9-0.9
			s0.9,0.3,0.9,0.9v16.24c0,0.6-0.3,0.9-0.9,0.9s-0.9-0.3-0.9-0.9v-8.12h-7.22v8.12c0,0.6-0.3,0.9-0.9,0.9S30.75,30.04,30.75,29.43z
			"/>
		<path class="st0" d="M45.19,13.19c0-0.6,0.3-0.9,0.9-0.9h9.02c0.6,0,0.9,0.3,0.9,0.9s-0.3,0.9-0.9,0.9h-3.61v15.34
			c0,0.6-0.3,0.9-0.9,0.9s-0.9-0.3-0.9-0.9V14.09h-3.61C45.49,14.09,45.19,13.79,45.19,13.19z"/>
		<path class="st0" d="M71.36,12.29c0.6,0,0.9,0.3,0.9,0.9v16.24c0,0.6-0.3,0.9-0.9,0.9s-0.9-0.3-0.9-0.9V16.17l-3.67,5.5
			c-0.25,0.36-0.53,0.54-0.84,0.54c-0.32,0-0.6-0.18-0.85-0.54l-3.66-5.51v13.28c0,0.6-0.3,0.9-0.9,0.9s-0.9-0.3-0.9-0.9V13.19
			c0-0.6,0.3-0.9,0.9-0.9c0.33,0,0.59,0.15,0.79,0.45l4.62,6.93l4.65-6.99C70.77,12.42,71.02,12.29,71.36,12.29z"/>
		<path class="st0" d="M75.87,13.19c0-0.6,0.3-0.9,0.9-0.9s0.9,0.3,0.9,0.9v15.34h6.32c0.6,0,0.9,0.3,0.9,0.9s-0.3,0.9-0.9,0.9
			h-7.22c-0.6,0-0.9-0.3-0.9-0.9V13.19z"/>
		<path class="st0" d="M90.31,28.53c0.6,0,0.9,0.3,0.9,0.89c0,0.08-0.31,1.36-0.93,3.84c-0.11,0.46-0.4,0.68-0.88,0.68
			c-0.6,0-0.9-0.3-0.9-0.9c0-0.41,0.31-1.69,0.93-3.83C89.56,28.76,89.85,28.53,90.31,28.53z"/>
		<path class="st0" d="M102.94,12.29c0.6,0,0.9,0.3,0.9,0.9s-0.3,0.9-0.9,0.9h-3.61c-0.76,0-1.4,0.26-1.92,0.79
			c-0.52,0.53-0.79,1.17-0.79,1.91v9.02c0,0.75,0.26,1.39,0.79,1.91c0.53,0.53,1.17,0.79,1.91,0.79h3.61c0.6,0,0.9,0.3,0.9,0.9
			s-0.3,0.9-0.9,0.9h-3.61c-1.25,0-2.31-0.44-3.19-1.32c-0.88-0.88-1.32-1.94-1.32-3.19V16.8c0-1.25,0.44-2.31,1.32-3.19
			c0.88-0.88,1.94-1.32,3.19-1.32H102.94z"/>
		<path class="st0" d="M118.28,25.82c0,1.24-0.44,2.3-1.33,3.19c-0.88,0.88-1.95,1.33-3.19,1.33c-2.22,0-4.2-0.66-5.92-1.97
			c-0.26-0.2-0.4-0.45-0.4-0.74c0-0.25,0.09-0.46,0.27-0.64s0.39-0.27,0.64-0.27c0.15,0,0.32,0.05,0.52,0.16
			c0.53,0.32,1.36,0.74,2.49,1.26c0.74,0.25,1.54,0.38,2.41,0.38c0.75,0,1.38-0.26,1.91-0.79c0.53-0.53,0.79-1.17,0.79-1.91
			c0-1.1-0.5-1.91-1.5-2.42l-5.07-2.6c-1.63-0.84-2.45-2.17-2.45-4.01c0-1.24,0.44-2.3,1.33-3.19c0.88-0.88,1.95-1.33,3.19-1.33
			c2.13,0,3.76,0.33,4.88,0.98c0.36,0.21,0.53,0.48,0.53,0.82c0,0.25-0.09,0.46-0.27,0.64S116.72,15,116.48,15
			c-0.09,0-0.22-0.03-0.38-0.1c-1.39-0.54-2.76-0.81-4.13-0.81c-0.75,0-1.39,0.26-1.91,0.79c-0.53,0.53-0.79,1.17-0.79,1.91
			c0,1.1,0.49,1.9,1.48,2.41l5.07,2.6C117.45,22.65,118.28,23.99,118.28,25.82z"/>
		<path class="st0" d="M132.72,25.82c0,1.24-0.44,2.3-1.33,3.19c-0.88,0.88-1.95,1.33-3.19,1.33c-2.22,0-4.2-0.66-5.92-1.97
			c-0.26-0.2-0.4-0.45-0.4-0.74c0-0.25,0.09-0.46,0.27-0.64s0.39-0.27,0.64-0.27c0.15,0,0.32,0.05,0.52,0.16
			c0.53,0.32,1.36,0.74,2.49,1.26c0.74,0.25,1.54,0.38,2.41,0.38c0.75,0,1.38-0.26,1.91-0.79c0.53-0.53,0.79-1.17,0.79-1.91
			c0-1.1-0.5-1.91-1.5-2.42l-5.07-2.6c-1.63-0.84-2.45-2.17-2.45-4.01c0-1.24,0.44-2.3,1.33-3.19c0.88-0.88,1.95-1.33,3.19-1.33
			c2.13,0,3.76,0.33,4.88,0.98c0.36,0.21,0.53,0.48,0.53,0.82c0,0.25-0.09,0.46-0.27,0.64S131.16,15,130.91,15
			c-0.09,0-0.22-0.03-0.38-0.1c-1.39-0.54-2.76-0.81-4.13-0.81c-0.75,0-1.39,0.26-1.91,0.79c-0.53,0.53-0.79,1.17-0.79,1.91
			c0,1.1,0.49,1.9,1.48,2.41l5.07,2.6C131.89,22.65,132.72,23.99,132.72,25.82z"/>
	</g>
</g>
<g>
	<circle class="st1" cx="286.8" cy="20.31" r="6"/>
	<circle class="st1" cx="315.71" cy="20.31" r="6"/>
	<circle class="st1" cx="344.62" cy="20.31" r="6"/>
	<circle class="st1" cx="373.54" cy="20.31" r="6"/>
	<circle class="st2" cx="402.45" cy="20.31" r="6"/>
</g>
<g>
	<circle class="st1" cx="286.8" cy="58.09" r="6"/>
	<circle class="st1" cx="315.71" cy="58.09" r="6"/>
	<circle class="st1" cx="344.62" cy="58.09" r="6"/>
	<circle class="st1" cx="373.54" cy="58.09" r="6"/>
	<circle class="st1" cx="402.45" cy="58.09" r="6"/>
</g>
<g>
	<circle class="st1" cx="286.8" cy="95.87" r="6"/>
	<circle class="st1" cx="315.71" cy="95.87" r="6"/>
	<circle class="st1" cx="344.62" cy="95.87" r="6"/>
	<circle class="st1" cx="373.54" cy="95.87" r="6"/>
	<circle class="st1" cx="402.45" cy="95.87" r="6"/>
</g>
<g>
	<circle class="st1" cx="286.8" cy="133.66" r="6"/>
	<circle class="st1" cx="315.71" cy="133.66" r="6"/>
	<circle class="st1" cx="344.62" cy="133.66" r="6"/>
	<circle class="st1" cx="373.54" cy="133.66" r="6"/>
	<circle class="st2" cx="402.45" cy="133.66" r="6"/>
</g>
<g>
	<circle class="st1" cx="286.8" cy="171.44" r="6"/>
	<circle class="st1" cx="315.71" cy="171.44" r="6"/>
	<circle class="st1" cx="344.62" cy="171.44" r="6"/>
	<circle class="st1" cx="373.54" cy="171.44" r="6"/>
	<circle class="st1" cx="402.45" cy="171.44" r="6"/>
</g>
<g>
	<circle class="st1" cx="286.8" cy="209.23" r="6"/>
	<circle class="st1" cx="315.71" cy="209.23" r="6"/>
	<circle class="st1" cx="344.62" cy="209.23" r="6"/>
	<circle class="st1" cx="373.54" cy="209.23" r="6"/>
	<circle class="st2" cx="402.45" cy="209.23" r="6"/>
</g>
<g>
	<circle class="st1" cx="286.8" cy="247.01" r="6"/>
	<circle class="st1" cx="315.71" cy="247.01" r="6"/>
	<circle class="st1" cx="344.62" cy="247.01" r="6"/>
	<circle class="st2" cx="373.54" cy="247.01" r="6"/>
	<circle class="st2" cx="402.45" cy="247.01" r="6"/>
</g>
<g>
	<circle class="st1" cx="286.8" cy="284.79" r="6"/>
	<circle class="st1" cx="315.71" cy="284.79" r="6"/>
	<circle class="st1" cx="344.62" cy="284.79" r="6"/>
	<circle class="st2" cx="373.54" cy="284.79" r="6"/>
	<circle class="st2" cx="402.45" cy="284.79" r="6"/>
</g>
<g>
	<g>
		<path class="st0" d="M31.66,49.77h4.51c1.5,0,2.78,0.53,3.83,1.58s1.58,2.33,1.58,3.83c0,1.6-0.5,2.91-1.5,3.91
			c-1,1-2.31,1.5-3.91,1.5h-3.61v6.32c0,0.6-0.3,0.9-0.9,0.9s-0.9-0.3-0.9-0.9V50.67C30.75,50.07,31.05,49.77,31.66,49.77z
			 M32.56,51.57v7.22h3.61c1.01,0,1.87-0.35,2.56-1.05s1.05-1.55,1.05-2.56s-0.35-1.87-1.05-2.56s-1.55-1.05-2.56-1.05H32.56z"/>
		<path class="st0" d="M45.19,66.91V50.67c0-0.6,0.3-0.9,0.9-0.9s0.9,0.3,0.9,0.9v6.32h7.22v-6.32c0-0.6,0.3-0.9,0.9-0.9
			s0.9,0.3,0.9,0.9v16.24c0,0.6-0.3,0.9-0.9,0.9s-0.9-0.3-0.9-0.9v-8.12h-7.22v8.12c0,0.6-0.3,0.9-0.9,0.9S45.19,67.52,45.19,66.91z
			"/>
		<path class="st0" d="M70.46,62.4c0,1.5-0.53,2.77-1.59,3.83c-1.06,1.06-2.33,1.59-3.83,1.59c-1.5,0-2.77-0.53-3.83-1.59
			c-1.06-1.06-1.59-2.33-1.59-3.83v-7.22c0-1.5,0.53-2.77,1.59-3.83c1.06-1.06,2.33-1.59,3.83-1.59c1.5,0,2.78,0.53,3.83,1.58
			s1.58,2.33,1.58,3.83V62.4z M68.65,62.4v-7.22c0-1.01-0.35-1.87-1.05-2.56s-1.55-1.05-2.56-1.05s-1.87,0.35-2.56,1.05
			s-1.05,1.55-1.05,2.56v7.22c0,1.01,0.35,1.87,1.05,2.56s1.55,1.05,2.56,1.05s1.87-0.35,2.56-1.05S68.65,63.41,68.65,62.4z"/>
		<path class="st0" d="M74.07,50.67c0-0.6,0.3-0.9,0.9-0.9h9.02c0.6,0,0.9,0.3,0.9,0.9s-0.3,0.9-0.9,0.9h-3.61v15.34
			c0,0.6-0.3,0.9-0.9,0.9s-0.9-0.3-0.9-0.9V51.57h-3.61C74.37,51.57,74.07,51.27,74.07,50.67z"/>
		<path class="st0" d="M99.33,62.4c0,1.5-0.53,2.77-1.59,3.83c-1.06,1.06-2.33,1.59-3.83,1.59c-1.5,0-2.77-0.53-3.83-1.59
			c-1.06-1.06-1.59-2.33-1.59-3.83v-7.22c0-1.5,0.53-2.77,1.59-3.83c1.06-1.06,2.33-1.59,3.83-1.59c1.5,0,2.78,0.53,3.83,1.58
			s1.58,2.33,1.58,3.83V62.4z M97.53,62.4v-7.22c0-1.01-0.35-1.87-1.05-2.56s-1.55-1.05-2.56-1.05s-1.87,0.35-2.56,1.05
			s-1.05,1.55-1.05,2.56v7.22c0,1.01,0.35,1.87,1.05,2.56s1.55,1.05,2.56,1.05s1.87-0.35,2.56-1.05S97.53,63.41,97.53,62.4z"/>
		<path class="st0" d="M113.77,63.3c0,1.24-0.44,2.3-1.33,3.19c-0.88,0.88-1.95,1.33-3.19,1.33c-2.22,0-4.2-0.66-5.92-1.97
			c-0.26-0.2-0.4-0.45-0.4-0.74c0-0.25,0.09-0.46,0.27-0.64s0.39-0.27,0.64-0.27c0.15,0,0.32,0.05,0.52,0.16
			c0.53,0.32,1.36,0.74,2.49,1.26c0.74,0.25,1.54,0.38,2.41,0.38c0.75,0,1.38-0.26,1.91-0.79c0.53-0.53,0.79-1.17,0.79-1.91
			c0-1.1-0.5-1.91-1.5-2.42l-5.07-2.6c-1.63-0.84-2.45-2.17-2.45-4.01c0-1.24,0.44-2.3,1.33-3.19c0.88-0.88,1.95-1.33,3.19-1.33
			c2.13,0,3.76,0.33,4.88,0.98c0.36,0.21,0.53,0.48,0.53,0.82c0,0.25-0.09,0.46-0.27,0.64s-0.39,0.27-0.64,0.27
			c-0.09,0-0.22-0.03-0.38-0.1c-1.39-0.54-2.76-0.81-4.13-0.81c-0.75,0-1.39,0.26-1.91,0.79c-0.53,0.53-0.79,1.17-0.79,1.91
			c0,1.1,0.49,1.9,1.48,2.41l5.07,2.6C112.94,60.13,113.77,61.47,113.77,63.3z"/>
		<path class="st0" d="M117.38,66.91V50.67c0-0.6,0.3-0.9,0.9-0.9s0.9,0.3,0.9,0.9v6.32h7.22v-6.32c0-0.6,0.3-0.9,0.9-0.9
			s0.9,0.3,0.9,0.9v16.24c0,0.6-0.3,0.9-0.9,0.9s-0.9-0.3-0.9-0.9v-8.12h-7.22v8.12c0,0.6-0.3,0.9-0.9,0.9
			S117.38,67.52,117.38,66.91z"/>
		<path class="st0" d="M142.64,62.4c0,1.5-0.53,2.77-1.59,3.83c-1.06,1.06-2.33,1.59-3.83,1.59c-1.5,0-2.77-0.53-3.83-1.59
			c-1.06-1.06-1.59-2.33-1.59-3.83v-7.22c0-1.5,0.53-2.77,1.59-3.83c1.06-1.06,2.33-1.59,3.83-1.59c1.5,0,2.78,0.53,3.83,1.58
			s1.58,2.33,1.58,3.83V62.4z M140.84,62.4v-7.22c0-1.01-0.35-1.87-1.05-2.56s-1.55-1.05-2.56-1.05s-1.87,0.35-2.56,1.05
			s-1.05,1.55-1.05,2.56v7.22c0,1.01,0.35,1.87,1.05,2.56s1.55,1.05,2.56,1.05s1.87-0.35,2.56-1.05S140.84,63.41,140.84,62.4z"/>
		<path class="st0" d="M147.16,49.77h4.51c1.5,0,2.78,0.53,3.83,1.58s1.58,2.33,1.58,3.83c0,1.6-0.5,2.91-1.5,3.91
			c-1,1-2.31,1.5-3.91,1.5h-3.61v6.32c0,0.6-0.3,0.9-0.9,0.9s-0.9-0.3-0.9-0.9V50.67C146.25,50.07,146.55,49.77,147.16,49.77z
			 M148.06,51.57v7.22h3.61c1.01,0,1.87-0.35,2.56-1.05s1.05-1.55,1.05-2.56s-0.35-1.87-1.05-2.56s-1.55-1.05-2.56-1.05H148.06z"/>
	</g>
</g>
<g>
	<g>
		<path class="st0" d="M31.66,105.3c-0.6,0-0.9-0.3-0.9-0.9V88.15c0-0.6,0.3-0.9,0.9-0.9s0.9,0.3,0.9,0.9v16.24
			C32.56,105,32.26,105.3,31.66,105.3z"/>
		<path class="st0" d="M36.17,88.15c0-0.6,0.3-0.9,0.9-0.9s0.9,0.3,0.9,0.9v15.34h6.32c0.6,0,0.9,0.3,0.9,0.9s-0.3,0.9-0.9,0.9
			h-7.22c-0.6,0-0.9-0.3-0.9-0.9V88.15z"/>
		<path class="st0" d="M48.8,88.15c0-0.6,0.3-0.9,0.9-0.9s0.9,0.3,0.9,0.9v15.34h6.32c0.6,0,0.9,0.3,0.9,0.9s-0.3,0.9-0.9,0.9H49.7
			c-0.6,0-0.9-0.3-0.9-0.9V88.15z"/>
		<path class="st0" d="M72.26,88.15v11.73c0,1.5-0.53,2.77-1.59,3.83c-1.06,1.06-2.33,1.59-3.83,1.59c-1.5,0-2.77-0.53-3.83-1.59
			c-1.06-1.06-1.59-2.33-1.59-3.83V88.15c0-0.6,0.3-0.9,0.9-0.9s0.9,0.3,0.9,0.9v11.73c0,1.01,0.35,1.87,1.05,2.56
			c0.7,0.7,1.55,1.05,2.56,1.05s1.87-0.35,2.56-1.05s1.05-1.55,1.05-2.56V88.15c0-0.6,0.3-0.9,0.9-0.9S72.26,87.55,72.26,88.15z"/>
		<path class="st0" d="M86.7,100.79c0,1.24-0.44,2.3-1.33,3.19c-0.88,0.88-1.95,1.33-3.19,1.33c-2.22,0-4.2-0.66-5.92-1.97
			c-0.26-0.2-0.4-0.45-0.4-0.74c0-0.25,0.09-0.46,0.27-0.64s0.39-0.27,0.64-0.27c0.15,0,0.32,0.05,0.52,0.16
			c0.53,0.32,1.36,0.74,2.49,1.26c0.74,0.25,1.54,0.38,2.41,0.38c0.75,0,1.38-0.26,1.91-0.79c0.53-0.53,0.79-1.17,0.79-1.91
			c0-1.1-0.5-1.91-1.5-2.42l-5.07-2.6c-1.63-0.84-2.45-2.17-2.45-4.01c0-1.24,0.44-2.3,1.33-3.19c0.88-0.88,1.95-1.33,3.19-1.33
			c2.13,0,3.76,0.33,4.88,0.98c0.36,0.21,0.53,0.48,0.53,0.82c0,0.25-0.09,0.46-0.27,0.64s-0.39,0.27-0.64,0.27
			c-0.09,0-0.22-0.03-0.38-0.1c-1.39-0.54-2.76-0.81-4.13-0.81c-0.75,0-1.39,0.26-1.91,0.79c-0.53,0.53-0.79,1.17-0.79,1.91
			c0,1.1,0.49,1.9,1.48,2.41l5.07,2.6C85.87,97.61,86.7,98.95,86.7,100.79z"/>
		<path class="st0" d="M90.31,88.15c0-0.6,0.3-0.9,0.9-0.9h9.02c0.6,0,0.9,0.3,0.9,0.9s-0.3,0.9-0.9,0.9h-3.61v15.34
			c0,0.6-0.3,0.9-0.9,0.9s-0.9-0.3-0.9-0.9V89.05h-3.61C90.61,89.05,90.31,88.75,90.31,88.15z"/>
		<path class="st0" d="M112.32,97.7l3.14,6.29c0.07,0.15,0.11,0.28,0.11,0.41c0,0.24-0.09,0.45-0.27,0.63
			c-0.18,0.18-0.39,0.27-0.63,0.27c-0.38,0-0.66-0.17-0.82-0.5l-3.36-6.72c-0.08,0-0.19,0-0.33,0h-3.61v6.32c0,0.6-0.3,0.9-0.9,0.9
			s-0.9-0.3-0.9-0.9V88.15c0-0.6,0.3-0.9,0.9-0.9h4.51c1.5,0,2.78,0.53,3.83,1.58s1.58,2.33,1.58,3.83
			C115.57,95.15,114.49,96.83,112.32,97.7z M106.55,89.05v7.22h3.61c1.01,0,1.87-0.35,2.56-1.05s1.05-1.55,1.05-2.56
			s-0.35-1.87-1.05-2.56s-1.55-1.05-2.56-1.05H106.55z"/>
		<path class="st0" d="M131.82,104.39c0,0.6-0.3,0.9-0.9,0.9c-0.43,0-0.72-0.21-0.86-0.62l-1.3-3.89h-6.53l-1.3,3.89
			c-0.14,0.41-0.42,0.62-0.86,0.62c-0.6,0-0.9-0.3-0.9-0.9c0-0.11,0.01-0.21,0.04-0.29l5.37-16.13c0.16-0.48,0.46-0.72,0.9-0.72
			s0.73,0.23,0.89,0.7l5.39,16.16C131.8,104.19,131.82,104.29,131.82,104.39z M125.5,90.98l-2.66,8h5.33L125.5,90.98z"/>
		<path class="st0" d="M135.42,88.15c0-0.6,0.3-0.9,0.9-0.9h9.02c0.6,0,0.9,0.3,0.9,0.9s-0.3,0.9-0.9,0.9h-3.61v15.34
			c0,0.6-0.3,0.9-0.9,0.9s-0.9-0.3-0.9-0.9V89.05h-3.61C135.73,89.05,135.42,88.75,135.42,88.15z"/>
		<path class="st0" d="M160.69,99.88c0,1.5-0.53,2.77-1.59,3.83c-1.06,1.06-2.33,1.59-3.83,1.59c-1.5,0-2.77-0.53-3.83-1.59
			c-1.06-1.06-1.59-2.33-1.59-3.83v-7.22c0-1.5,0.53-2.77,1.59-3.83c1.06-1.06,2.33-1.59,3.83-1.59c1.5,0,2.78,0.53,3.83,1.58
			s1.58,2.33,1.58,3.83V99.88z M158.89,99.88v-7.22c0-1.01-0.35-1.87-1.05-2.56s-1.55-1.05-2.56-1.05s-1.87,0.35-2.56,1.05
			s-1.05,1.55-1.05,2.56v7.22c0,1.01,0.35,1.87,1.05,2.56s1.55,1.05,2.56,1.05s1.87-0.35,2.56-1.05S158.89,100.89,158.89,99.88z"/>
		<path class="st0" d="M171.87,97.7l3.14,6.29c0.07,0.15,0.11,0.28,0.11,0.41c0,0.24-0.09,0.45-0.27,0.63
			c-0.18,0.18-0.39,0.27-0.63,0.27c-0.38,0-0.66-0.17-0.82-0.5l-3.36-6.72c-0.08,0-0.19,0-0.33,0h-3.61v6.32c0,0.6-0.3,0.9-0.9,0.9
			s-0.9-0.3-0.9-0.9V88.15c0-0.6,0.3-0.9,0.9-0.9h4.51c1.5,0,2.78,0.53,3.83,1.58s1.58,2.33,1.58,3.83
			C175.13,95.15,174.04,96.83,171.87,97.7z M166.1,89.05v7.22h3.61c1.01,0,1.87-0.35,2.56-1.05s1.05-1.55,1.05-2.56
			s-0.35-1.87-1.05-2.56s-1.55-1.05-2.56-1.05H166.1z"/>
	</g>
</g>
<g>
	<g>
		<path class="st0" d="M31.66,142.78c-0.6,0-0.9-0.3-0.9-0.9v-16.24c0-0.6,0.3-0.9,0.9-0.9s0.9,0.3,0.9,0.9v16.24
			C32.56,142.48,32.26,142.78,31.66,142.78z"/>
		<path class="st0" d="M45.19,138.39v-12.76c0-0.6,0.3-0.9,0.9-0.9s0.9,0.3,0.9,0.9v16.24c0,0.6-0.3,0.9-0.9,0.9
			c-0.36,0-0.62-0.15-0.79-0.46l-7.34-13.22v12.77c0,0.6-0.3,0.9-0.9,0.9s-0.9-0.3-0.9-0.9v-16.24c0-0.6,0.3-0.9,0.9-0.9
			c0.36,0,0.63,0.18,0.83,0.53L45.19,138.39z"/>
		<path class="st0" d="M50.6,125.63c0-0.6,0.3-0.9,0.9-0.9h5.41c1.27,0,2.33,0.44,3.21,1.31c0.87,0.87,1.31,1.94,1.31,3.21v9.02
			c0,1.25-0.44,2.31-1.32,3.19c-0.88,0.88-1.94,1.32-3.19,1.32h-5.41c-0.6,0-0.9-0.3-0.9-0.9V125.63z M52.41,126.53v14.44h4.51
			c0.75,0,1.38-0.26,1.91-0.79c0.53-0.53,0.79-1.17,0.79-1.91v-9.02c0-0.75-0.26-1.39-0.79-1.91c-0.53-0.53-1.17-0.79-1.91-0.79
			H52.41z"/>
		<path class="st0" d="M65.04,141.88v-16.24c0-0.6,0.3-0.9,0.9-0.9h7.22c0.6,0,0.9,0.3,0.9,0.9s-0.3,0.9-0.9,0.9h-6.32v5.41h4.51
			c0.6,0,0.9,0.3,0.9,0.9c0,0.6-0.3,0.9-0.9,0.9h-4.51v7.22h6.32c0.6,0,0.9,0.3,0.9,0.9s-0.3,0.9-0.9,0.9h-7.22
			C65.34,142.78,65.04,142.48,65.04,141.88z"/>
		<path class="st0" d="M88.5,138.27c0,1.24-0.44,2.3-1.33,3.19c-0.88,0.88-1.95,1.33-3.19,1.33c-2.22,0-4.2-0.66-5.92-1.97
			c-0.26-0.2-0.4-0.45-0.4-0.74c0-0.25,0.09-0.46,0.27-0.64s0.39-0.27,0.64-0.27c0.15,0,0.32,0.05,0.52,0.16
			c0.53,0.32,1.36,0.74,2.49,1.26c0.74,0.25,1.54,0.38,2.41,0.38c0.75,0,1.38-0.26,1.91-0.79c0.53-0.53,0.79-1.17,0.79-1.91
			c0-1.1-0.5-1.91-1.5-2.42l-5.07-2.6c-1.63-0.84-2.45-2.17-2.45-4.01c0-1.24,0.44-2.3,1.33-3.19c0.88-0.88,1.95-1.33,3.19-1.33
			c2.13,0,3.76,0.33,4.88,0.98c0.36,0.21,0.53,0.48,0.53,0.82c0,0.25-0.09,0.46-0.27,0.64s-0.39,0.27-0.64,0.27
			c-0.09,0-0.22-0.03-0.38-0.1c-1.39-0.54-2.76-0.81-4.13-0.81c-0.75,0-1.39,0.26-1.91,0.79c-0.53,0.53-0.79,1.17-0.79,1.91
			c0,1.1,0.49,1.9,1.48,2.41l5.07,2.6C87.68,135.09,88.5,136.43,88.5,138.27z"/>
		<path class="st0" d="M93.01,142.78c-0.6,0-0.9-0.3-0.9-0.9v-16.24c0-0.6,0.3-0.9,0.9-0.9s0.9,0.3,0.9,0.9v16.24
			C93.92,142.48,93.62,142.78,93.01,142.78z"/>
		<path class="st0" d="M102.04,140.97h4.51v-7.22h-1.8c-0.6,0-0.9-0.3-0.9-0.9c0-0.6,0.3-0.9,0.9-0.9h2.71c0.6,0,0.9,0.3,0.9,0.9
			v9.02c0,0.6-0.3,0.9-0.9,0.9h-5.41c-1.25,0-2.31-0.44-3.19-1.32c-0.88-0.88-1.32-1.94-1.32-3.19v-9.02c0-1.25,0.44-2.31,1.32-3.19
			c0.88-0.88,1.94-1.32,3.19-1.32h5.41c0.6,0,0.9,0.3,0.9,0.9s-0.3,0.9-0.9,0.9h-5.41c-0.76,0-1.4,0.26-1.92,0.79
			c-0.52,0.53-0.79,1.17-0.79,1.91v9.02c0,0.76,0.26,1.4,0.79,1.92C100.64,140.71,101.28,140.97,102.04,140.97z"/>
		<path class="st0" d="M120.99,138.39v-12.76c0-0.6,0.3-0.9,0.9-0.9s0.9,0.3,0.9,0.9v16.24c0,0.6-0.3,0.9-0.9,0.9
			c-0.36,0-0.62-0.15-0.79-0.46l-7.34-13.22v12.77c0,0.6-0.3,0.9-0.9,0.9s-0.9-0.3-0.9-0.9v-16.24c0-0.6,0.3-0.9,0.9-0.9
			c0.36,0,0.63,0.18,0.83,0.53L120.99,138.39z"/>
	</g>
</g>
<g>
	<g>
		<path class="st0" d="M43.39,179.36c0,0.6-0.3,0.9-0.9,0.9c-0.44,0-0.72-0.21-0.86-0.62l-1.3-3.89H33.8l-1.3,3.89
			c-0.14,0.41-0.42,0.62-0.86,0.62c-0.6,0-0.9-0.3-0.9-0.9c0-0.11,0.01-0.21,0.04-0.29l5.37-16.13c0.16-0.48,0.46-0.72,0.9-0.72
			s0.73,0.23,0.89,0.7l5.39,16.16C43.37,179.15,43.39,179.25,43.39,179.36z M37.07,165.94l-2.66,8h5.33L37.07,165.94z"/>
		<path class="st0" d="M57.82,163.11v11.73c0,1.5-0.53,2.77-1.59,3.83c-1.06,1.06-2.33,1.59-3.83,1.59c-1.5,0-2.77-0.53-3.83-1.59
			c-1.06-1.06-1.59-2.33-1.59-3.83v-11.73c0-0.6,0.3-0.9,0.9-0.9s0.9,0.3,0.9,0.9v11.73c0,1.01,0.35,1.87,1.05,2.56
			s1.55,1.05,2.56,1.05s1.87-0.35,2.56-1.05s1.05-1.55,1.05-2.56v-11.73c0-0.6,0.3-0.9,0.9-0.9S57.82,162.51,57.82,163.11z"/>
		<path class="st0" d="M61.43,163.11c0-0.6,0.3-0.9,0.9-0.9h9.02c0.6,0,0.9,0.3,0.9,0.9s-0.3,0.9-0.9,0.9h-3.61v15.34
			c0,0.6-0.3,0.9-0.9,0.9s-0.9-0.3-0.9-0.9v-15.34h-3.61C61.73,164.02,61.43,163.71,61.43,163.11z"/>
		<path class="st0" d="M86.7,174.84c0,1.5-0.53,2.77-1.59,3.83c-1.06,1.06-2.33,1.59-3.83,1.59c-1.5,0-2.77-0.53-3.83-1.59
			c-1.06-1.06-1.59-2.33-1.59-3.83v-7.22c0-1.5,0.53-2.77,1.59-3.83c1.06-1.06,2.33-1.59,3.83-1.59c1.5,0,2.78,0.53,3.83,1.58
			s1.58,2.33,1.58,3.83V174.84z M84.89,174.84v-7.22c0-1.01-0.35-1.87-1.05-2.56s-1.55-1.05-2.56-1.05s-1.87,0.35-2.56,1.05
			s-1.05,1.55-1.05,2.56v7.22c0,1.01,0.35,1.87,1.05,2.56s1.55,1.05,2.56,1.05s1.87-0.35,2.56-1.05S84.89,175.86,84.89,174.84z"/>
		<path class="st0" d="M109.26,162.21c0.6,0,0.9,0.3,0.9,0.9s-0.3,0.9-0.9,0.9h-3.61c-0.76,0-1.4,0.26-1.92,0.79
			c-0.52,0.53-0.79,1.17-0.79,1.91v9.02c0,0.75,0.26,1.39,0.79,1.91c0.53,0.53,1.17,0.79,1.91,0.79h3.61c0.6,0,0.9,0.3,0.9,0.9
			s-0.3,0.9-0.9,0.9h-3.61c-1.25,0-2.31-0.44-3.19-1.32c-0.88-0.88-1.32-1.94-1.32-3.19v-9.02c0-1.25,0.44-2.31,1.32-3.19
			c0.88-0.88,1.94-1.32,3.19-1.32H109.26z"/>
		<path class="st0" d="M126.4,179.36c0,0.6-0.3,0.9-0.9,0.9c-0.44,0-0.72-0.21-0.86-0.62l-1.3-3.89h-6.53l-1.3,3.89
			c-0.14,0.41-0.42,0.62-0.86,0.62c-0.6,0-0.9-0.3-0.9-0.9c0-0.11,0.01-0.21,0.04-0.29l5.37-16.13c0.16-0.48,0.46-0.72,0.9-0.72
			s0.73,0.23,0.89,0.7l5.39,16.16C126.39,179.15,126.4,179.25,126.4,179.36z M120.08,165.94l-2.66,8h5.33L120.08,165.94z"/>
		<path class="st0" d="M130.01,163.11c0-0.6,0.3-0.9,0.9-0.9h5.41c1.27,0,2.34,0.44,3.21,1.31c0.87,0.87,1.31,1.94,1.31,3.21v9.02
			c0,1.25-0.44,2.31-1.32,3.19c-0.88,0.88-1.94,1.32-3.19,1.32h-5.41c-0.6,0-0.9-0.3-0.9-0.9V163.11z M131.81,164.02v14.44h4.51
			c0.75,0,1.39-0.26,1.91-0.79c0.53-0.53,0.79-1.17,0.79-1.91v-9.02c0-0.75-0.26-1.39-0.79-1.91c-0.53-0.53-1.17-0.79-1.91-0.79
			H131.81z"/>
	</g>
</g>
<g>
	<g>
		<path class="st0" d="M41.58,213.23c0,1.24-0.44,2.3-1.33,3.19c-0.88,0.88-1.95,1.33-3.19,1.33c-2.22,0-4.2-0.66-5.92-1.97
			c-0.26-0.2-0.4-0.45-0.4-0.74c0-0.25,0.09-0.46,0.27-0.64s0.39-0.27,0.64-0.27c0.15,0,0.32,0.05,0.52,0.16
			c0.53,0.32,1.36,0.74,2.49,1.26c0.74,0.25,1.54,0.38,2.41,0.38c0.75,0,1.39-0.26,1.91-0.79c0.53-0.53,0.79-1.17,0.79-1.91
			c0-1.1-0.5-1.91-1.5-2.42l-5.07-2.6c-1.63-0.84-2.45-2.17-2.45-4.01c0-1.24,0.44-2.3,1.33-3.19c0.88-0.88,1.95-1.33,3.19-1.33
			c2.13,0,3.76,0.33,4.88,0.98c0.36,0.21,0.53,0.48,0.53,0.82c0,0.25-0.09,0.46-0.27,0.64s-0.39,0.27-0.64,0.27
			c-0.09,0-0.22-0.03-0.38-0.1c-1.39-0.54-2.76-0.81-4.13-0.81c-0.75,0-1.39,0.26-1.91,0.79c-0.53,0.53-0.79,1.17-0.79,1.91
			c0,1.1,0.49,1.9,1.48,2.41l5.07,2.6C40.76,210.05,41.58,211.39,41.58,213.23z"/>
		<path class="st0" d="M49.33,208.31l-2.34,2.56v5.97c0,0.6-0.3,0.9-0.9,0.9s-0.9-0.3-0.9-0.9v-16.24c0-0.6,0.3-0.9,0.9-0.9
			s0.9,0.3,0.9,0.9v7.59l7.44-8.19c0.18-0.2,0.41-0.3,0.68-0.3c0.6,0,0.9,0.3,0.9,0.9c0,0.23-0.08,0.43-0.25,0.61l-5.15,5.67
			l5.27,9.51c0.09,0.15,0.13,0.3,0.13,0.45c0,0.23-0.09,0.43-0.28,0.62c-0.19,0.19-0.39,0.28-0.62,0.28c-0.36,0-0.63-0.16-0.81-0.48
			L49.33,208.31z"/>
		<path class="st0" d="M59.63,216.84v-16.24c0-0.6,0.3-0.9,0.9-0.9h7.22c0.6,0,0.9,0.3,0.9,0.9s-0.3,0.9-0.9,0.9h-6.32v5.41h4.51
			c0.6,0,0.9,0.3,0.9,0.9s-0.3,0.9-0.9,0.9h-4.51v7.22h6.32c0.6,0,0.9,0.3,0.9,0.9s-0.3,0.9-0.9,0.9h-7.22
			C59.93,217.74,59.63,217.44,59.63,216.84z"/>
		<path class="st0" d="M72.26,200.59c0-0.6,0.3-0.9,0.9-0.9h9.02c0.6,0,0.9,0.3,0.9,0.9s-0.3,0.9-0.9,0.9h-3.61v15.34
			c0,0.6-0.3,0.9-0.9,0.9s-0.9-0.3-0.9-0.9V201.5h-3.61C72.56,201.5,72.26,201.19,72.26,200.59z"/>
		<path class="st0" d="M94.82,199.69c0.6,0,0.9,0.3,0.9,0.9s-0.3,0.9-0.9,0.9h-3.61c-0.76,0-1.4,0.26-1.92,0.79
			c-0.52,0.53-0.79,1.17-0.79,1.91v9.02c0,0.75,0.26,1.39,0.79,1.91c0.53,0.53,1.17,0.79,1.91,0.79h3.61c0.6,0,0.9,0.3,0.9,0.9
			s-0.3,0.9-0.9,0.9h-3.61c-1.25,0-2.31-0.44-3.19-1.32c-0.88-0.88-1.32-1.94-1.32-3.19v-9.02c0-1.25,0.44-2.31,1.32-3.19
			c0.88-0.88,1.94-1.32,3.19-1.32H94.82z"/>
		<path class="st0" d="M99.33,216.84v-16.24c0-0.6,0.3-0.9,0.9-0.9s0.9,0.3,0.9,0.9v6.32h7.22v-6.32c0-0.6,0.3-0.9,0.9-0.9
			s0.9,0.3,0.9,0.9v16.24c0,0.6-0.3,0.9-0.9,0.9s-0.9-0.3-0.9-0.9v-8.12h-7.22v8.12c0,0.6-0.3,0.9-0.9,0.9
			S99.33,217.44,99.33,216.84z"/>
		<path class="st0" d="M135.42,200.59v11.73c0,1.5-0.53,2.77-1.59,3.83c-1.06,1.06-2.33,1.59-3.83,1.59c-1.5,0-2.77-0.53-3.83-1.59
			c-1.06-1.06-1.59-2.33-1.59-3.83v-11.73c0-0.6,0.3-0.9,0.9-0.9s0.9,0.3,0.9,0.9v11.73c0,1.01,0.35,1.87,1.05,2.56
			c0.7,0.7,1.55,1.05,2.56,1.05s1.87-0.35,2.56-1.05s1.05-1.55,1.05-2.56v-11.73c0-0.6,0.3-0.9,0.9-0.9S135.42,199.99,135.42,200.59
			z"/>
		<path class="st0" d="M139.94,199.69h4.51c1.5,0,2.78,0.53,3.83,1.58s1.58,2.33,1.58,3.83c0,1.6-0.5,2.91-1.5,3.91
			c-1,1-2.31,1.5-3.91,1.5h-3.61v6.32c0,0.6-0.3,0.9-0.9,0.9s-0.9-0.3-0.9-0.9v-16.24C139.03,199.99,139.33,199.69,139.94,199.69z
			 M140.84,201.5v7.22h3.61c1.01,0,1.87-0.35,2.56-1.05s1.05-1.55,1.05-2.56s-0.35-1.87-1.05-2.56s-1.55-1.05-2.56-1.05H140.84z"/>
	</g>
</g>
<g>
	<g>
		<path class="st0" d="M43.39,254.32c0,0.6-0.3,0.9-0.9,0.9c-0.44,0-0.72-0.21-0.86-0.62l-1.3-3.89H33.8l-1.3,3.89
			c-0.14,0.41-0.42,0.62-0.86,0.62c-0.6,0-0.9-0.3-0.9-0.9c0-0.11,0.01-0.21,0.04-0.29l5.37-16.13c0.16-0.48,0.46-0.72,0.9-0.72
			s0.73,0.23,0.89,0.7l5.39,16.16C43.37,254.11,43.39,254.21,43.39,254.32z M37.07,240.9l-2.66,8h5.33L37.07,240.9z"/>
		<path class="st0" d="M46.99,254.32v-16.24c0-0.6,0.3-0.9,0.9-0.9h7.22c0.6,0,0.9,0.3,0.9,0.9s-0.3,0.9-0.9,0.9H48.8v5.41h6.32
			c0.6,0,0.9,0.3,0.9,0.9s-0.3,0.9-0.9,0.9H48.8v8.12c0,0.6-0.3,0.9-0.9,0.9S46.99,254.92,46.99,254.32z"/>
		<path class="st0" d="M59.63,238.07c0-0.6,0.3-0.9,0.9-0.9h9.02c0.6,0,0.9,0.3,0.9,0.9s-0.3,0.9-0.9,0.9h-3.61v15.34
			c0,0.6-0.3,0.9-0.9,0.9s-0.9-0.3-0.9-0.9v-15.34h-3.61C59.93,238.98,59.63,238.67,59.63,238.07z"/>
		<path class="st0" d="M74.06,254.32v-16.24c0-0.6,0.3-0.9,0.9-0.9h7.22c0.6,0,0.9,0.3,0.9,0.9s-0.3,0.9-0.9,0.9h-6.32v5.41h4.51
			c0.6,0,0.9,0.3,0.9,0.9s-0.3,0.9-0.9,0.9h-4.51v7.22h6.32c0.6,0,0.9,0.3,0.9,0.9s-0.3,0.9-0.9,0.9h-7.22
			C74.37,255.22,74.06,254.92,74.06,254.32z"/>
		<path class="st0" d="M94.27,247.62l3.14,6.29c0.07,0.15,0.11,0.28,0.11,0.41c0,0.24-0.09,0.45-0.27,0.63
			c-0.18,0.18-0.39,0.27-0.63,0.27c-0.38,0-0.66-0.17-0.82-0.5L92.44,248c-0.08,0-0.19,0-0.33,0H88.5v6.32c0,0.6-0.3,0.9-0.9,0.9
			s-0.9-0.3-0.9-0.9v-16.24c0-0.6,0.3-0.9,0.9-0.9h4.51c1.5,0,2.78,0.53,3.83,1.58s1.58,2.33,1.58,3.83
			C97.53,245.07,96.44,246.75,94.27,247.62z M88.5,238.98v7.22h3.61c1.01,0,1.87-0.35,2.56-1.05s1.05-1.55,1.05-2.56
			s-0.35-1.87-1.05-2.56s-1.55-1.05-2.56-1.05H88.5z"/>
		<path class="st0" d="M111.96,254.32v-16.24c0-0.6,0.3-0.9,0.9-0.9h7.22c0.6,0,0.9,0.3,0.9,0.9s-0.3,0.9-0.9,0.9h-6.32v5.41h4.51
			c0.6,0,0.9,0.3,0.9,0.9s-0.3,0.9-0.9,0.9h-4.51v7.22h6.32c0.6,0,0.9,0.3,0.9,0.9s-0.3,0.9-0.9,0.9h-7.22
			C112.26,255.22,111.96,254.92,111.96,254.32z"/>
		<path class="st0" d="M124.6,254.32v-16.24c0-0.6,0.3-0.9,0.9-0.9h7.22c0.6,0,0.9,0.3,0.9,0.9s-0.3,0.9-0.9,0.9h-6.32v5.41h6.32
			c0.6,0,0.9,0.3,0.9,0.9s-0.3,0.9-0.9,0.9h-6.32v8.12c0,0.6-0.3,0.9-0.9,0.9S124.6,254.92,124.6,254.32z"/>
		<path class="st0" d="M137.23,254.32v-16.24c0-0.6,0.3-0.9,0.9-0.9h7.22c0.6,0,0.9,0.3,0.9,0.9s-0.3,0.9-0.9,0.9h-6.32v5.41h6.32
			c0.6,0,0.9,0.3,0.9,0.9s-0.3,0.9-0.9,0.9h-6.32v8.12c0,0.6-0.3,0.9-0.9,0.9S137.23,254.92,137.23,254.32z"/>
		<path class="st0" d="M149.86,254.32v-16.24c0-0.6,0.3-0.9,0.9-0.9h7.22c0.6,0,0.9,0.3,0.9,0.9s-0.3,0.9-0.9,0.9h-6.32v5.41h4.51
			c0.6,0,0.9,0.3,0.9,0.9s-0.3,0.9-0.9,0.9h-4.51v7.22h6.32c0.6,0,0.9,0.3,0.9,0.9s-0.3,0.9-0.9,0.9h-7.22
			C150.16,255.22,149.86,254.92,149.86,254.32z"/>
		<path class="st0" d="M170.62,237.17c0.6,0,0.9,0.3,0.9,0.9s-0.3,0.9-0.9,0.9h-3.61c-0.76,0-1.4,0.26-1.92,0.79
			c-0.52,0.53-0.79,1.17-0.79,1.91v9.02c0,0.75,0.26,1.39,0.79,1.91c0.53,0.53,1.17,0.79,1.91,0.79h3.61c0.6,0,0.9,0.3,0.9,0.9
			s-0.3,0.9-0.9,0.9h-3.61c-1.25,0-2.31-0.44-3.19-1.32c-0.88-0.88-1.32-1.94-1.32-3.19v-9.02c0-1.25,0.44-2.31,1.32-3.19
			c0.88-0.88,1.94-1.32,3.19-1.32H170.62z"/>
		<path class="st0" d="M175.13,238.07c0-0.6,0.3-0.9,0.9-0.9h9.02c0.6,0,0.9,0.3,0.9,0.9s-0.3,0.9-0.9,0.9h-3.61v15.34
			c0,0.6-0.3,0.9-0.9,0.9s-0.9-0.3-0.9-0.9v-15.34h-3.61C175.43,238.98,175.13,238.67,175.13,238.07z"/>
		<path class="st0" d="M200.39,250.71c0,1.24-0.44,2.3-1.33,3.19c-0.88,0.88-1.95,1.33-3.19,1.33c-2.22,0-4.2-0.66-5.92-1.97
			c-0.26-0.2-0.4-0.45-0.4-0.74c0-0.25,0.09-0.46,0.27-0.64s0.39-0.27,0.64-0.27c0.15,0,0.32,0.05,0.52,0.16
			c0.53,0.32,1.36,0.74,2.49,1.26c0.74,0.25,1.54,0.38,2.41,0.38c0.75,0,1.39-0.26,1.91-0.79c0.53-0.53,0.79-1.17,0.79-1.91
			c0-1.1-0.5-1.91-1.5-2.42l-5.07-2.6c-1.63-0.84-2.45-2.17-2.45-4.01c0-1.24,0.44-2.3,1.33-3.19c0.88-0.88,1.95-1.33,3.19-1.33
			c2.13,0,3.76,0.33,4.88,0.98c0.36,0.21,0.53,0.48,0.53,0.82c0,0.25-0.09,0.46-0.27,0.64s-0.39,0.27-0.64,0.27
			c-0.09,0-0.22-0.03-0.38-0.1c-1.39-0.54-2.76-0.81-4.13-0.81c-0.75,0-1.39,0.26-1.91,0.79c-0.53,0.53-0.79,1.17-0.79,1.91
			c0,1.1,0.49,1.9,1.48,2.41l5.07,2.6C199.57,247.53,200.39,248.87,200.39,250.71z"/>
	</g>
</g>
<g>
	<g>
		<path class="st0" d="M31.65,274.65h4.51c1.5,0,2.78,0.53,3.83,1.58s1.58,2.33,1.58,3.83c0,1.6-0.5,2.91-1.5,3.91
			c-1,1-2.31,1.5-3.91,1.5h-3.61v6.32c0,0.6-0.3,0.9-0.9,0.9s-0.9-0.3-0.9-0.9v-16.24C30.75,274.95,31.05,274.65,31.65,274.65z
			 M32.56,276.46v7.22h3.61c1.01,0,1.87-0.35,2.56-1.05s1.05-1.55,1.05-2.56s-0.35-1.87-1.05-2.56s-1.55-1.05-2.56-1.05H32.56z"/>
		<path class="st0" d="M52.76,285.1l3.14,6.29c0.07,0.15,0.11,0.28,0.11,0.41c0,0.24-0.09,0.45-0.27,0.63
			c-0.18,0.18-0.39,0.27-0.63,0.27c-0.38,0-0.66-0.17-0.82-0.5l-3.36-6.72c-0.08,0-0.19,0-0.33,0h-3.61v6.32c0,0.6-0.3,0.9-0.9,0.9
			s-0.9-0.3-0.9-0.9v-16.24c0-0.6,0.3-0.9,0.9-0.9h4.51c1.5,0,2.78,0.53,3.83,1.58s1.58,2.33,1.58,3.83
			C56.02,282.55,54.93,284.23,52.76,285.1z M46.99,276.46v7.22h3.61c1.01,0,1.87-0.35,2.56-1.05s1.05-1.55,1.05-2.56
			s-0.35-1.87-1.05-2.56s-1.55-1.05-2.56-1.05H46.99z"/>
		<path class="st0" d="M59.63,291.8v-16.24c0-0.6,0.3-0.9,0.9-0.9h7.22c0.6,0,0.9,0.3,0.9,0.9s-0.3,0.9-0.9,0.9h-6.32v5.41h4.51
			c0.6,0,0.9,0.3,0.9,0.9s-0.3,0.9-0.9,0.9h-4.51v7.22h6.32c0.6,0,0.9,0.3,0.9,0.9s-0.3,0.9-0.9,0.9h-7.22
			C59.93,292.7,59.63,292.4,59.63,291.8z"/>
		<path class="st0" d="M83.99,274.65c0.6,0,0.9,0.3,0.9,0.9v16.24c0,0.6-0.3,0.9-0.9,0.9s-0.9-0.3-0.9-0.9v-13.26l-3.67,5.5
			c-0.25,0.36-0.53,0.54-0.84,0.54c-0.32,0-0.6-0.18-0.85-0.54l-3.66-5.51v13.28c0,0.6-0.3,0.9-0.9,0.9s-0.9-0.3-0.9-0.9v-16.24
			c0-0.6,0.3-0.9,0.9-0.9c0.33,0,0.59,0.15,0.79,0.45l4.62,6.93l4.65-6.99C83.4,274.78,83.65,274.65,83.99,274.65z"/>
		<path class="st0" d="M89.4,292.7c-0.6,0-0.9-0.3-0.9-0.9v-16.24c0-0.6,0.3-0.9,0.9-0.9s0.9,0.3,0.9,0.9v16.24
			C90.31,292.4,90.01,292.7,89.4,292.7z"/>
		<path class="st0" d="M93.92,291.8v-16.24c0-0.6,0.3-0.9,0.9-0.9h7.22c0.6,0,0.9,0.3,0.9,0.9s-0.3,0.9-0.9,0.9h-6.32v5.41h4.51
			c0.6,0,0.9,0.3,0.9,0.9s-0.3,0.9-0.9,0.9h-4.51v7.22h6.32c0.6,0,0.9,0.3,0.9,0.9s-0.3,0.9-0.9,0.9h-7.22
			C94.22,292.7,93.92,292.4,93.92,291.8z"/>
		<path class="st0" d="M114.12,285.1l3.14,6.29c0.07,0.15,0.11,0.28,0.11,0.41c0,0.24-0.09,0.45-0.27,0.63
			c-0.18,0.18-0.39,0.27-0.63,0.27c-0.38,0-0.66-0.17-0.82-0.5l-3.36-6.72c-0.08,0-0.19,0-0.33,0h-3.61v6.32c0,0.6-0.3,0.9-0.9,0.9
			s-0.9-0.3-0.9-0.9v-16.24c0-0.6,0.3-0.9,0.9-0.9h4.51c1.5,0,2.78,0.53,3.83,1.58s1.58,2.33,1.58,3.83
			C117.38,282.55,116.29,284.23,114.12,285.1z M108.35,276.46v7.22h3.61c1.01,0,1.87-0.35,2.56-1.05s1.05-1.55,1.05-2.56
			s-0.35-1.87-1.05-2.56s-1.55-1.05-2.56-1.05H108.35z"/>
		<path class="st0" d="M120.99,291.8v-16.24c0-0.6,0.3-0.9,0.9-0.9h7.22c0.6,0,0.9,0.3,0.9,0.9s-0.3,0.9-0.9,0.9h-6.32v5.41h4.51
			c0.6,0,0.9,0.3,0.9,0.9s-0.3,0.9-0.9,0.9h-4.51v7.22h6.32c0.6,0,0.9,0.3,0.9,0.9s-0.3,0.9-0.9,0.9h-7.22
			C121.29,292.7,120.99,292.4,120.99,291.8z"/>
		<path class="st0" d="M145.35,274.65h4.51c1.5,0,2.78,0.53,3.83,1.58s1.58,2.33,1.58,3.83c0,1.6-0.5,2.91-1.5,3.91
			c-1,1-2.31,1.5-3.91,1.5h-3.61v6.32c0,0.6-0.3,0.9-0.9,0.9s-0.9-0.3-0.9-0.9v-16.24C144.45,274.95,144.75,274.65,145.35,274.65z
			 M146.25,276.46v7.22h3.61c1.01,0,1.87-0.35,2.56-1.05s1.05-1.55,1.05-2.56s-0.35-1.87-1.05-2.56s-1.55-1.05-2.56-1.05H146.25z"/>
		<path class="st0" d="M166.46,285.1l3.14,6.29c0.07,0.15,0.11,0.28,0.11,0.41c0,0.24-0.09,0.45-0.27,0.63
			c-0.18,0.18-0.39,0.27-0.63,0.27c-0.38,0-0.66-0.17-0.82-0.5l-3.36-6.72c-0.08,0-0.19,0-0.33,0h-3.61v6.32c0,0.6-0.3,0.9-0.9,0.9
			s-0.9-0.3-0.9-0.9v-16.24c0-0.6,0.3-0.9,0.9-0.9h4.51c1.5,0,2.78,0.53,3.83,1.58s1.58,2.33,1.58,3.83
			C169.71,282.55,168.63,284.23,166.46,285.1z M160.69,276.46v7.22h3.61c1.01,0,1.87-0.35,2.56-1.05s1.05-1.55,1.05-2.56
			s-0.35-1.87-1.05-2.56s-1.55-1.05-2.56-1.05H160.69z"/>
		<path class="st0" d="M184.15,287.28c0,1.5-0.53,2.77-1.59,3.83c-1.06,1.06-2.33,1.59-3.83,1.59c-1.5,0-2.77-0.53-3.83-1.59
			c-1.06-1.06-1.59-2.33-1.59-3.83v-7.22c0-1.5,0.53-2.77,1.59-3.83c1.06-1.06,2.33-1.59,3.83-1.59c1.5,0,2.78,0.53,3.83,1.58
			s1.58,2.33,1.58,3.83V287.28z M182.35,287.28v-7.22c0-1.01-0.35-1.87-1.05-2.56s-1.55-1.05-2.56-1.05s-1.87,0.35-2.56,1.05
			s-1.05,1.55-1.05,2.56v7.22c0,1.01,0.35,1.87,1.05,2.56s1.55,1.05,2.56,1.05s1.87-0.35,2.56-1.05S182.35,288.3,182.35,287.28z"/>
	</g>
</g>
<rect x="6.24" y="19.81" class="st3" width="15" height="1"/>
<rect x="6.24" y="57.75" class="st3" width="15" height="1"/>
<rect x="6.24" y="95.7" class="st3" width="15" height="1"/>
<rect x="6.24" y="133.65" class="st3" width="15" height="1"/>
<rect x="6.24" y="171.59" class="st3" width="15" height="1"/>
<rect x="6.24" y="209.54" class="st3" width="15" height="1"/>
<rect x="6.24" y="247.49" class="st3" width="15" height="1"/>
<rect x="6.24" y="285.43" class="st3" width="15" height="1"/>
</svg>
