<?xml version="1.0" encoding="utf-8"?>
<!-- Generator: Adobe Illustrator 23.0.1, SVG Export Plug-In . SVG Version: 6.00 Build 0)  -->
<svg version="1.1" id="レイヤー_1" xmlns="http://www.w3.org/2000/svg" xmlns:xlink="http://www.w3.org/1999/xlink" x="0px"
	 y="0px" viewBox="0 0 31.35 27.78" style="enable-background:new 0 0 31.35 27.78;" xml:space="preserve">
<style type="text/css">
	.st0{opacity:0.1;}
	.st1{fill:#EEEEEC;}
	.st2{fill:#EDEDEB;}
	.st3{fill:#ECECEA;}
	.st4{fill:#ECEBE9;}
	.st5{fill:#EBEAE8;}
	.st6{fill:#EAE9E7;}
	.st7{fill:#E9E8E6;}
	.st8{fill:#E8E7E5;}
	.st9{fill:#E7E6E4;}
	.st10{fill:#E6E5E3;}
	.st11{fill:#E5E4E2;}
	.st12{fill:#E4E3E1;}
	.st13{fill:#E4E2E0;}
	.st14{fill:#E3E1DF;}
	.st15{fill:#E2E0DE;}
	.st16{fill:#E1DFDD;}
	.st17{fill:#E0DEDC;}
	.st18{fill:#DFDDDB;}
	.st19{fill:#DEDCDA;}
	.st20{fill:#DDDBD9;}
	.st21{fill:#DCDAD8;}
	.st22{fill:#DBD9D7;}
	.st23{fill:#DAD8D6;}
	.st24{fill:#D9D7D5;}
	.st25{fill:#D9D6D3;}
	.st26{fill:#D8D5D2;}
	.st27{fill:#D7D4D1;}
	.st28{fill:#D6D3D0;}
	.st29{fill:#D5D2CF;}
	.st30{fill:#D4D1CE;}
	.st31{fill:#D3D0CD;}
	.st32{fill:#D2CFCC;}
	.st33{fill:#D1CECB;}
	.st34{fill:#D0CDCA;}
	.st35{fill:#CFCCC9;}
	.st36{fill:#CECBC8;}
	.st37{fill:#CECAC7;}
	.st38{fill:#CDC9C6;}
	.st39{fill:#CCC8C5;}
	.st40{fill:#CBC7C4;}
	.st41{fill:#CAC6C3;}
	.st42{fill:#C9C5C2;}
	.st43{fill:#C8C4C1;}
	.st44{fill:#C7C4C0;}
	.st45{fill:#C7C3BF;}
	.st46{fill:#C6C2BE;}
	.st47{fill:#C5C1BD;}
	.st48{fill:#C4C0BC;}
	.st49{fill:#C3BFBC;}
	.st50{fill:#C2BEBB;}
	.st51{fill:#C1BDBA;}
	.st52{fill:#C0BCB9;}
	.st53{fill:#C0BBB8;}
	.st54{fill:#BFBAB7;}
	.st55{fill:#BEB9B6;}
	.st56{fill:#BDB8B5;}
	.st57{fill:#BCB7B4;}
	.st58{fill:#BBB6B3;}
	.st59{fill:#BAB5B2;}
	.st60{fill:#BAB4B1;}
	.st61{fill:#B9B4B0;}
	.st62{fill:#B8B3AF;}
	.st63{fill:#B7B2AE;}
	.st64{fill:#B6B1AD;}
	.st65{fill:#B5B0AC;}
	.st66{fill:#B5AFAB;}
	.st67{fill:#B4AEAA;}
	.st68{fill:#B3ADAA;}
	.st69{fill:#B2ACA9;}
	.st70{fill:#B1ABA8;}
	.st71{fill:#B0AAA7;}
	.st72{fill:#B0AAA6;}
	.st73{fill:#AFA9A5;}
	.st74{fill:#AEA8A4;}
	.st75{fill:#ADA7A3;}
	.st76{fill:#ACA6A2;}
	.st77{fill:#ABA5A1;}
	.st78{fill:#ABA4A0;}
	.st79{fill:#AAA3A0;}
	.st80{fill:#A9A29F;}
	.st81{fill:#A8A29E;}
	.st82{fill:#A7A19D;}
	.st83{fill:#A6A09C;}
	.st84{fill:#A69F9B;}
	.st85{fill:#A59E9A;}
	.st86{fill:#A49D99;}
	.st87{fill:#A39C98;}
	.st88{fill:#A29B98;}
	.st89{fill:#A19B97;}
	.st90{fill:#A19A96;}
	.st91{fill:#A09995;}
	.st92{fill:#9F9894;}
	.st93{fill:#9E9793;}
	.st94{fill:#9D9692;}
	.st95{fill:#9D9591;}
	.st96{fill:#9C9591;}
	.st97{fill:#9B9490;}
	.st98{fill:#9A938F;}
	.st99{fill:#99928E;}
	.st100{fill:#99918D;}
	.st101{fill:#98908C;}
	.st102{fill:#97908B;}
	.st103{fill:#968F8B;}
	.st104{fill:#958E8A;}
	.st105{fill:#958D89;}
	.st106{fill:#948C88;}
	.st107{fill:#938B87;}
	.st108{fill:#928B86;}
	.st109{fill:#928A86;}
	.st110{fill:#918985;}
	.st111{fill:#908884;}
	.st112{fill:#8F8783;}
	.st113{fill:#8E8682;}
	.st114{fill:#8E8681;}
	.st115{fill:#8D8581;}
	.st116{fill:#8C8480;}
	.st117{fill:#8B837F;}
	.st118{fill:#8B827E;}
	.st119{fill:#8A827D;}
	.st120{fill:#89817D;}
	.st121{fill:#88807C;}
	.st122{fill:#887F7B;}
	.st123{fill:#877E7A;}
	.st124{fill:#867E79;}
	.st125{fill:#857D79;}
	.st126{fill:#847C78;}
	.st127{fill:#847B77;}
	.st128{fill:#837A76;}
	.st129{fill:#827A75;}
	.st130{fill:#817975;}
	.st131{fill:#817874;}
	.st132{fill:#807773;}
	.st133{fill:#7F7772;}
	.st134{fill:#7E7672;}
	.st135{fill:#7E7571;}
	.st136{fill:#7D7470;}
	.st137{fill:#7C746F;}
	.st138{fill:#7B736F;}
	.st139{fill:#7A726E;}
	.st140{fill:#7A716D;}
	.st141{fill:#79706C;}
	.st142{fill:#78706C;}
	.st143{fill:#776F6B;}
	.st144{fill:#776E6A;}
	.st145{fill:#766D69;}
	.st146{fill:#756D69;}
	.st147{fill:#756C68;}
	.st148{fill:#746B67;}
	.st149{fill:#736B67;}
	.st150{fill:#726A66;}
	.st151{fill:#726965;}
	.st152{fill:#716865;}
	.st153{fill:#706864;}
	.st154{fill:#6F6763;}
	.st155{fill:#6F6662;}
	.st156{fill:#6E6662;}
	.st157{fill:#6D6561;}
	.st158{fill:#6D6460;}
	.st159{fill:#6C6360;}
	.st160{fill:#6B635F;}
	.st161{fill:#6B625E;}
	.st162{fill:#6A615E;}
	.st163{fill:#69615D;}
	.st164{fill:#68605C;}
	.st165{fill:#685F5C;}
	.st166{fill:#675E5B;}
	.st167{fill:#665E5A;}
	.st168{fill:#665D5A;}
	.st169{fill:#655C59;}
	.st170{fill:#645C58;}
	.st171{fill:#635B58;}
	.st172{fill:#635A57;}
	.st173{fill:#625A56;}
	.st174{fill:#615956;}
	.st175{fill:#615855;}
	.st176{fill:#605855;}
	.st177{fill:#5F5754;}
	.st178{fill:#5E5653;}
	.st179{fill:#5D5552;}
	.st180{fill:#5C5551;}
	.st181{fill:#5C5451;}
	.st182{fill:#5B5350;}
	.st183{fill:#5A5350;}
	.st184{fill:#5A524F;}
	.st185{fill:#59514E;}
	.st186{fill:#58514E;}
	.st187{fill:#58504D;}
	.st188{fill:#574F4C;}
	.st189{fill:#564F4C;}
	.st190{fill:#564E4B;}
	.st191{fill:#554D4B;}
	.st192{fill:#544D4A;}
	.st193{fill:#544C49;}
	.st194{fill:#534C49;}
	.st195{fill:#524B48;}
	.st196{fill:#524A48;}
	.st197{fill:#514A47;}
	.st198{fill:#504947;}
	.st199{fill:#504946;}
	.st200{fill:#4F4845;}
	.st201{fill:#4F4745;}
	.st202{fill:#4E4744;}
	.st203{fill:#4D4644;}
	.st204{fill:#4D4543;}
	.st205{fill:#4C4543;}
	.st206{fill:#4B4442;}
	.st207{fill:#4B4441;}
	.st208{fill:#4A4341;}
	.st209{fill:#4A4240;}
	.st210{fill:#494240;}
	.st211{fill:#48413F;}
	.st212{fill:#47403E;}
	.st213{fill:#46403E;}
	.st214{fill:#463F3D;}
	.st215{fill:#453E3C;}
	.st216{fill:#443E3C;}
	.st217{fill:#443D3B;}
	.st218{fill:#433D3B;}
	.st219{fill:#423C3A;}
	.st220{fill:#413B39;}
	.st221{fill:#413A39;}
	.st222{fill:#403A38;}
	.st223{fill:#3F3938;}
	.st224{fill:#3F3937;}
	.st225{fill:#3E3837;}
	.st226{fill:#3D3836;}
	.st227{fill:#3D3736;}
	.st228{fill:#3C3735;}
	.st229{fill:#3B3635;}
	.st230{fill:#3B3534;}
	.st231{fill:#3A3534;}
	.st232{fill:#3A3433;}
	.st233{fill:#393433;}
	.st234{fill:#383332;}
	.st235{fill:#373231;}
	.st236{fill:#363130;}
	.st237{fill:#35302F;}
	.st238{fill:#342F2F;}
	.st239{fill:#342F2E;}
	.st240{fill:#332E2E;}
	.st241{fill:#332E2D;}
	.st242{fill:#322D2D;}
	.st243{fill:#312D2C;}
	.st244{fill:#312C2C;}
	.st245{fill:#302C2B;}
	.st246{fill:#302B2B;}
	.st247{fill:#2F2B2A;}
	.st248{fill:#2E2A2A;}
	.st249{fill:#2E2A29;}
	.st250{fill:#2D2929;}
	.st251{fill:#2D2928;}
	.st252{fill:#2C2828;}
	.st253{fill:#2B2828;}
	.st254{fill:#2B2727;}
	.st255{fill:#2A2727;}
	.st256{fill:#292626;}
	.st257{fill:#282525;}
	.st258{fill:#272424;}
	.st259{fill:#262424;}
	.st260{fill:#262323;}
	.st261{fill:#252323;}
	.st262{fill:#252222;}
	.st263{fill:#242222;}
	.st264{fill:#232121;}
	.st265{fill:#222020;}
	.st266{fill:#211F20;}
	.st267{fill:#201F1F;}
	.st268{fill:#201E1F;}
	.st269{fill:#1F1E1E;}
	.st270{fill:#1F1D1E;}
	.st271{fill:#1E1D1D;}
	.st272{fill:#1D1C1D;}
	.st273{fill:#1D1C1C;}
	.st274{fill:#1C1B1C;}
	.st275{fill:#1B1A1B;}
	.st276{fill:#1A191A;}
	.st277{fill:#191819;}
	.st278{fill:#181819;}
	.st279{fill:#181718;}
	.st280{fill:#171718;}
	.st281{fill:#171618;}
	.st282{fill:#161617;}
	.st283{fill:#151516;}
	.st284{fill:#141516;}
	.st285{fill:#141416;}
	.st286{fill:#131415;}
	.st287{fill:#131315;}
	.st288{fill:#121314;}
	.st289{fill:#696C6B;}
	.st290{fill:#4E5050;}
	.st291{fill:#464748;}
	.st292{fill:url(#SVGID_1_);}
</style>
<g>
	<g class="st0">
		<path class="st1" d="M27.07,15.52c0.07-0.36,0.11-0.73,0.11-1.1c0-3.18-2.58-5.76-5.76-5.76c-3.18,0-5.76,2.58-5.76,5.76
			c0,0.38,0.04,0.75,0.11,1.1c0.3,2.19,2.53,3.83,5.65,11.59C24.34,19.6,26.77,17.71,27.07,15.52z"/>
		<path class="st2" d="M27.05,15.51c0.07-0.36,0.11-0.73,0.11-1.1c0-3.18-2.58-5.76-5.76-5.76c-3.18,0-5.76,2.58-5.76,5.76
			c0,0.38,0.04,0.75,0.11,1.1c0.3,2.19,2.53,3.83,5.65,11.59C24.32,19.59,26.75,17.69,27.05,15.51z"/>
		<path class="st3" d="M27.02,15.49c0.07-0.36,0.11-0.73,0.11-1.1c0-3.18-2.58-5.76-5.76-5.76c-3.18,0-5.76,2.58-5.76,5.76
			c0,0.38,0.04,0.75,0.11,1.1c0.3,2.19,2.53,3.83,5.65,11.59C24.29,19.58,26.73,17.68,27.02,15.49z"/>
		<path class="st4" d="M27,15.48c0.07-0.36,0.11-0.73,0.11-1.1c0-3.18-2.58-5.76-5.76-5.76c-3.18,0-5.76,2.58-5.76,5.76
			c0,0.38,0.04,0.75,0.11,1.1c0.3,2.19,2.53,3.83,5.65,11.59C24.27,19.56,26.7,17.67,27,15.48z"/>
		<path class="st5" d="M26.98,15.47c0.07-0.36,0.11-0.73,0.11-1.1c0-3.18-2.58-5.76-5.76-5.76c-3.18,0-5.76,2.58-5.76,5.76
			c0,0.38,0.04,0.75,0.11,1.1c0.3,2.19,2.53,3.83,5.65,11.59C24.25,19.55,26.68,17.65,26.98,15.47z"/>
		<path class="st6" d="M26.96,15.45c0.07-0.36,0.11-0.73,0.11-1.1c0-3.18-2.58-5.76-5.76-5.76c-3.18,0-5.76,2.58-5.76,5.76
			c0,0.38,0.04,0.75,0.11,1.1c0.3,2.19,2.53,3.83,5.65,11.59C24.23,19.54,26.66,17.64,26.96,15.45z"/>
		<path class="st7" d="M26.94,15.44c0.07-0.36,0.11-0.73,0.11-1.1c0-3.18-2.58-5.76-5.76-5.76c-3.18,0-5.76,2.58-5.76,5.76
			c0,0.38,0.04,0.75,0.11,1.1c0.3,2.19,2.53,3.83,5.65,11.59C24.2,19.52,26.64,17.63,26.94,15.44z"/>
		<path class="st8" d="M26.91,15.43c0.07-0.36,0.11-0.73,0.11-1.1c0-3.18-2.58-5.76-5.76-5.76c-3.18,0-5.76,2.58-5.76,5.76
			c0,0.38,0.04,0.75,0.11,1.1c0.3,2.19,2.53,3.83,5.65,11.59C24.18,19.51,26.61,17.61,26.91,15.43z"/>
		<path class="st9" d="M26.89,15.41c0.07-0.36,0.11-0.73,0.11-1.1c0-3.18-2.58-5.76-5.76-5.76c-3.18,0-5.76,2.58-5.76,5.76
			c0,0.38,0.04,0.75,0.11,1.1c0.3,2.19,2.53,3.83,5.65,11.59C24.16,19.49,26.59,17.6,26.89,15.41z"/>
		<path class="st10" d="M26.87,15.4c0.07-0.36,0.11-0.73,0.11-1.1c0-3.18-2.58-5.76-5.76-5.76c-3.18,0-5.76,2.58-5.76,5.76
			c0,0.38,0.04,0.75,0.11,1.1c0.3,2.19,2.53,3.83,5.65,11.59C24.14,19.48,26.57,17.59,26.87,15.4z"/>
		<path class="st11" d="M26.85,15.39c0.07-0.36,0.11-0.73,0.11-1.1c0-3.18-2.58-5.76-5.76-5.76c-3.18,0-5.76,2.58-5.76,5.76
			c0,0.38,0.04,0.75,0.11,1.1c0.3,2.19,2.53,3.83,5.65,11.59C24.11,19.47,26.55,17.57,26.85,15.39z"/>
		<path class="st12" d="M26.82,15.37c0.07-0.36,0.11-0.73,0.11-1.1c0-3.18-2.58-5.76-5.76-5.76c-3.18,0-5.76,2.58-5.76,5.76
			c0,0.38,0.04,0.75,0.11,1.1c0.3,2.19,2.53,3.83,5.65,11.59C24.09,19.45,26.53,17.56,26.82,15.37z"/>
		<path class="st13" d="M26.8,15.36c0.07-0.36,0.11-0.73,0.11-1.1c0-3.18-2.58-5.76-5.76-5.76c-3.18,0-5.76,2.58-5.76,5.76
			c0,0.38,0.04,0.75,0.11,1.1c0.3,2.19,2.53,3.83,5.65,11.59C24.07,19.44,26.5,17.55,26.8,15.36z"/>
		<path class="st14" d="M26.78,15.35c0.07-0.36,0.11-0.73,0.11-1.1c0-3.18-2.58-5.76-5.76-5.76c-3.18,0-5.76,2.58-5.76,5.76
			c0,0.38,0.04,0.75,0.11,1.1c0.3,2.19,2.53,3.83,5.65,11.59C24.05,19.43,26.48,17.53,26.78,15.35z"/>
		<path class="st15" d="M26.76,15.33c0.07-0.36,0.11-0.73,0.11-1.1c0-3.18-2.58-5.76-5.76-5.76c-3.18,0-5.76,2.58-5.76,5.76
			c0,0.38,0.04,0.75,0.11,1.1c0.3,2.19,2.53,3.83,5.65,11.59C24.03,19.41,26.46,17.52,26.76,15.33z"/>
		<path class="st16" d="M26.73,15.32c0.07-0.36,0.11-0.73,0.11-1.1c0-3.18-2.58-5.76-5.76-5.76c-3.18,0-5.76,2.58-5.76,5.76
			c0,0.38,0.04,0.75,0.11,1.1c0.3,2.19,2.53,3.83,5.65,11.59C24,19.4,26.44,17.51,26.73,15.32z"/>
		<path class="st17" d="M26.71,15.31c0.07-0.36,0.11-0.73,0.11-1.1c0-3.18-2.58-5.76-5.76-5.76c-3.18,0-5.76,2.58-5.76,5.76
			c0,0.38,0.04,0.75,0.11,1.1c0.3,2.19,2.53,3.83,5.65,11.59C23.98,19.39,26.41,17.49,26.71,15.31z"/>
		<path class="st18" d="M26.69,15.29c0.07-0.36,0.11-0.73,0.11-1.1c0-3.18-2.58-5.76-5.76-5.76c-3.18,0-5.76,2.58-5.76,5.76
			c0,0.38,0.04,0.75,0.11,1.1c0.3,2.19,2.53,3.83,5.65,11.59C23.96,19.37,26.39,17.48,26.69,15.29z"/>
		<path class="st19" d="M26.67,15.28c0.07-0.36,0.11-0.73,0.11-1.1c0-3.18-2.58-5.76-5.76-5.76c-3.18,0-5.76,2.58-5.76,5.76
			c0,0.38,0.04,0.75,0.11,1.1c0.3,2.19,2.53,3.83,5.65,11.59C23.94,19.36,26.37,17.47,26.67,15.28z"/>
		<path class="st20" d="M26.65,15.27c0.07-0.36,0.11-0.73,0.11-1.1c0-3.18-2.58-5.76-5.76-5.76c-3.18,0-5.76,2.58-5.76,5.76
			c0,0.38,0.04,0.75,0.11,1.1c0.3,2.19,2.53,3.83,5.65,11.59C23.91,19.35,26.35,17.45,26.65,15.27z"/>
		<path class="st21" d="M26.62,15.25c0.07-0.36,0.11-0.73,0.11-1.1c0-3.18-2.58-5.76-5.76-5.76c-3.18,0-5.76,2.58-5.76,5.76
			c0,0.38,0.04,0.75,0.11,1.1c0.3,2.19,2.53,3.83,5.65,11.59C23.89,19.33,26.32,17.44,26.62,15.25z"/>
		<path class="st22" d="M26.6,15.24c0.07-0.36,0.11-0.73,0.11-1.1c0-3.18-2.58-5.76-5.76-5.76c-3.18,0-5.76,2.58-5.76,5.76
			c0,0.38,0.04,0.75,0.11,1.1c0.3,2.19,2.53,3.83,5.65,11.59C23.87,19.32,26.3,17.43,26.6,15.24z"/>
		<path class="st23" d="M26.58,15.23c0.07-0.36,0.11-0.73,0.11-1.1c0-3.18-2.58-5.76-5.76-5.76c-3.18,0-5.76,2.58-5.76,5.76
			c0,0.38,0.04,0.75,0.11,1.1c0.3,2.19,2.53,3.83,5.65,11.59C23.85,19.31,26.28,17.41,26.58,15.23z"/>
		<path class="st24" d="M26.56,15.21c0.07-0.36,0.11-0.73,0.11-1.1c0-3.18-2.58-5.76-5.76-5.76c-3.18,0-5.76,2.58-5.76,5.76
			c0,0.38,0.04,0.75,0.11,1.1c0.3,2.19,2.53,3.83,5.65,11.59C23.83,19.29,26.26,17.4,26.56,15.21z"/>
		<path class="st25" d="M26.53,15.2c0.07-0.36,0.11-0.73,0.11-1.1c0-3.18-2.58-5.76-5.76-5.76c-3.18,0-5.76,2.58-5.76,5.76
			c0,0.38,0.04,0.75,0.11,1.1c0.3,2.19,2.53,3.83,5.65,11.59C23.8,19.28,26.24,17.39,26.53,15.2z"/>
		<path class="st26" d="M26.51,15.18c0.07-0.36,0.11-0.73,0.11-1.1c0-3.18-2.58-5.76-5.76-5.76c-3.18,0-5.76,2.58-5.76,5.76
			c0,0.38,0.04,0.75,0.11,1.1c0.3,2.19,2.53,3.83,5.65,11.59C23.78,19.27,26.21,17.37,26.51,15.18z"/>
		<path class="st27" d="M26.49,15.17c0.07-0.36,0.11-0.73,0.11-1.1c0-3.18-2.58-5.76-5.76-5.76c-3.18,0-5.76,2.58-5.76,5.76
			c0,0.38,0.04,0.75,0.11,1.1c0.3,2.19,2.53,3.83,5.65,11.59C23.76,19.25,26.19,17.36,26.49,15.17z"/>
		<path class="st28" d="M26.47,15.16c0.07-0.36,0.11-0.73,0.11-1.1c0-3.18-2.58-5.76-5.76-5.76c-3.18,0-5.76,2.58-5.76,5.76
			c0,0.38,0.04,0.75,0.11,1.1c0.3,2.19,2.53,3.83,5.65,11.59C23.74,19.24,26.17,17.35,26.47,15.16z"/>
		<path class="st29" d="M26.45,15.14c0.07-0.36,0.11-0.73,0.11-1.1c0-3.18-2.58-5.76-5.76-5.76c-3.18,0-5.76,2.58-5.76,5.76
			c0,0.38,0.04,0.75,0.11,1.1c0.3,2.19,2.53,3.83,5.65,11.59C23.71,19.23,26.15,17.33,26.45,15.14z"/>
		<path class="st30" d="M26.42,15.13c0.07-0.36,0.11-0.73,0.11-1.1c0-3.18-2.58-5.76-5.76-5.76c-3.18,0-5.76,2.58-5.76,5.76
			c0,0.38,0.04,0.75,0.11,1.1c0.3,2.19,2.53,3.83,5.65,11.59C23.69,19.21,26.12,17.32,26.42,15.13z"/>
		<path class="st31" d="M26.4,15.12c0.07-0.36,0.11-0.73,0.11-1.1c0-3.18-2.58-5.76-5.76-5.76c-3.18,0-5.76,2.58-5.76,5.76
			c0,0.38,0.04,0.75,0.11,1.1c0.3,2.19,2.53,3.83,5.65,11.59C23.67,19.2,26.1,17.31,26.4,15.12z"/>
		<path class="st32" d="M26.38,15.1c0.07-0.36,0.11-0.73,0.11-1.1c0-3.18-2.58-5.76-5.76-5.76c-3.18,0-5.76,2.58-5.76,5.76
			c0,0.38,0.04,0.75,0.11,1.1c0.3,2.19,2.53,3.83,5.65,11.59C23.65,19.19,26.08,17.29,26.38,15.1z"/>
		<path class="st33" d="M26.36,15.09c0.07-0.36,0.11-0.73,0.11-1.1c0-3.18-2.58-5.76-5.76-5.76c-3.18,0-5.76,2.58-5.76,5.76
			c0,0.38,0.04,0.75,0.11,1.1c0.3,2.19,2.53,3.83,5.65,11.59C23.62,19.17,26.06,17.28,26.36,15.09z"/>
		<path class="st34" d="M26.33,15.08c0.07-0.36,0.11-0.73,0.11-1.1c0-3.18-2.58-5.76-5.76-5.76c-3.18,0-5.76,2.58-5.76,5.76
			c0,0.38,0.04,0.75,0.11,1.1c0.3,2.19,2.53,3.83,5.65,11.59C23.6,19.16,26.04,17.27,26.33,15.08z"/>
		<path class="st35" d="M26.31,15.06c0.07-0.36,0.11-0.73,0.11-1.1c0-3.18-2.58-5.76-5.76-5.76c-3.18,0-5.76,2.58-5.76,5.76
			c0,0.38,0.04,0.75,0.11,1.1c0.3,2.19,2.53,3.83,5.65,11.59C23.58,19.15,26.01,17.25,26.31,15.06z"/>
		<path class="st36" d="M26.29,15.05c0.07-0.36,0.11-0.73,0.11-1.1c0-3.18-2.58-5.76-5.76-5.76c-3.18,0-5.76,2.58-5.76,5.76
			c0,0.38,0.04,0.75,0.11,1.1c0.3,2.19,2.53,3.83,5.65,11.59C23.56,19.13,25.99,17.24,26.29,15.05z"/>
		<path class="st37" d="M26.27,15.04c0.07-0.36,0.11-0.73,0.11-1.1c0-3.18-2.58-5.76-5.76-5.76c-3.18,0-5.76,2.58-5.76,5.76
			c0,0.38,0.04,0.75,0.11,1.1c0.3,2.19,2.53,3.83,5.65,11.59C23.54,19.12,25.97,17.23,26.27,15.04z"/>
		<path class="st38" d="M26.24,15.02c0.07-0.36,0.11-0.73,0.11-1.1c0-3.18-2.58-5.76-5.76-5.76c-3.18,0-5.76,2.58-5.76,5.76
			c0,0.38,0.04,0.75,0.11,1.1c0.3,2.19,2.53,3.83,5.65,11.59C23.51,19.11,25.95,17.21,26.24,15.02z"/>
		<path class="st39" d="M26.22,15.01c0.07-0.36,0.11-0.73,0.11-1.1c0-3.18-2.58-5.76-5.76-5.76c-3.18,0-5.76,2.58-5.76,5.76
			c0,0.38,0.04,0.75,0.11,1.1c0.3,2.19,2.53,3.83,5.65,11.59C23.49,19.09,25.92,17.2,26.22,15.01z"/>
		<path class="st40" d="M26.2,15c0.07-0.36,0.11-0.73,0.11-1.1c0-3.18-2.58-5.76-5.76-5.76c-3.18,0-5.76,2.58-5.76,5.76
			c0,0.38,0.04,0.75,0.11,1.1c0.3,2.19,2.53,3.83,5.65,11.59C23.47,19.08,25.9,17.19,26.2,15z"/>
		<path class="st41" d="M26.18,14.98c0.07-0.36,0.11-0.73,0.11-1.1c0-3.18-2.58-5.76-5.76-5.76c-3.18,0-5.76,2.58-5.76,5.76
			c0,0.38,0.04,0.75,0.11,1.1c0.3,2.19,2.53,3.83,5.65,11.59C23.45,19.07,25.88,17.17,26.18,14.98z"/>
		<path class="st42" d="M26.16,14.97c0.07-0.36,0.11-0.73,0.11-1.1c0-3.18-2.58-5.76-5.76-5.76c-3.18,0-5.76,2.58-5.76,5.76
			c0,0.38,0.04,0.75,0.11,1.1c0.3,2.19,2.53,3.83,5.65,11.59C23.42,19.05,25.86,17.16,26.16,14.97z"/>
		<path class="st43" d="M26.13,14.96c0.07-0.36,0.11-0.73,0.11-1.1c0-3.18-2.58-5.76-5.76-5.76c-3.18,0-5.76,2.58-5.76,5.76
			c0,0.38,0.04,0.75,0.11,1.1c0.3,2.19,2.53,3.83,5.65,11.59C23.4,19.04,25.83,17.15,26.13,14.96z"/>
		<path class="st44" d="M26.11,14.94c0.07-0.36,0.11-0.73,0.11-1.1c0-3.18-2.58-5.76-5.76-5.76c-3.18,0-5.76,2.58-5.76,5.76
			c0,0.38,0.04,0.75,0.11,1.1c0.3,2.19,2.53,3.83,5.65,11.59C23.38,19.03,25.81,17.13,26.11,14.94z"/>
		<path class="st45" d="M26.09,14.93c0.07-0.36,0.11-0.73,0.11-1.1c0-3.18-2.58-5.76-5.76-5.76c-3.18,0-5.76,2.58-5.76,5.76
			c0,0.38,0.04,0.75,0.11,1.1c0.3,2.19,2.53,3.83,5.65,11.59C23.36,19.01,25.79,17.12,26.09,14.93z"/>
		<path class="st46" d="M26.07,14.92c0.07-0.36,0.11-0.73,0.11-1.1c0-3.18-2.58-5.76-5.76-5.76c-3.18,0-5.76,2.58-5.76,5.76
			c0,0.38,0.04,0.75,0.11,1.1c0.3,2.19,2.53,3.83,5.65,11.59C23.33,19,25.77,17.11,26.07,14.92z"/>
		<path class="st47" d="M26.04,14.9c0.07-0.36,0.11-0.73,0.11-1.1c0-3.18-2.58-5.76-5.76-5.76c-3.18,0-5.76,2.58-5.76,5.76
			c0,0.38,0.04,0.75,0.11,1.1c0.3,2.19,2.53,3.83,5.65,11.59C23.31,18.99,25.75,17.09,26.04,14.9z"/>
		<path class="st48" d="M26.02,14.89c0.07-0.36,0.11-0.73,0.11-1.1c0-3.18-2.58-5.76-5.76-5.76c-3.18,0-5.76,2.58-5.76,5.76
			c0,0.38,0.04,0.75,0.11,1.1c0.3,2.19,2.53,3.83,5.65,11.59C23.29,18.97,25.72,17.08,26.02,14.89z"/>
		<path class="st49" d="M26,14.88c0.07-0.36,0.11-0.73,0.11-1.1c0-3.18-2.58-5.76-5.76-5.76c-3.18,0-5.76,2.58-5.76,5.76
			c0,0.38,0.04,0.75,0.11,1.1c0.3,2.19,2.53,3.83,5.65,11.59C23.27,18.96,25.7,17.07,26,14.88z"/>
		<path class="st50" d="M25.98,14.86c0.07-0.36,0.11-0.73,0.11-1.1c0-3.18-2.58-5.76-5.76-5.76c-3.18,0-5.76,2.58-5.76,5.76
			c0,0.38,0.04,0.75,0.11,1.1c0.3,2.19,2.53,3.83,5.65,11.59C23.25,18.95,25.68,17.05,25.98,14.86z"/>
		<path class="st51" d="M25.95,14.85c0.07-0.36,0.11-0.73,0.11-1.1c0-3.18-2.58-5.76-5.76-5.76c-3.18,0-5.76,2.58-5.76,5.76
			c0,0.38,0.04,0.75,0.11,1.1c0.3,2.19,2.53,3.83,5.65,11.59C23.22,18.93,25.66,17.04,25.95,14.85z"/>
		<path class="st52" d="M25.93,14.84c0.07-0.36,0.11-0.73,0.11-1.1c0-3.18-2.58-5.76-5.76-5.76c-3.18,0-5.76,2.58-5.76,5.76
			c0,0.38,0.04,0.75,0.11,1.1c0.3,2.19,2.53,3.83,5.65,11.59C23.2,18.92,25.63,17.03,25.93,14.84z"/>
		<path class="st53" d="M25.91,14.82c0.07-0.36,0.11-0.73,0.11-1.1c0-3.18-2.58-5.76-5.76-5.76c-3.18,0-5.76,2.58-5.76,5.76
			c0,0.38,0.04,0.75,0.11,1.1c0.3,2.19,2.53,3.83,5.65,11.59C23.18,18.91,25.61,17.01,25.91,14.82z"/>
		<path class="st54" d="M25.89,14.81c0.07-0.36,0.11-0.73,0.11-1.1c0-3.18-2.58-5.76-5.76-5.76c-3.18,0-5.76,2.58-5.76,5.76
			c0,0.38,0.04,0.75,0.11,1.1c0.3,2.19,2.53,3.83,5.65,11.59C23.16,18.89,25.59,17,25.89,14.81z"/>
		<path class="st55" d="M25.87,14.8c0.07-0.36,0.11-0.73,0.11-1.1c0-3.18-2.58-5.76-5.76-5.76c-3.18,0-5.76,2.58-5.76,5.76
			c0,0.38,0.04,0.75,0.11,1.1c0.3,2.19,2.53,3.83,5.65,11.59C23.13,18.88,25.57,16.99,25.87,14.8z"/>
		<path class="st56" d="M25.84,14.78c0.07-0.36,0.11-0.73,0.11-1.1c0-3.18-2.58-5.76-5.76-5.76c-3.18,0-5.76,2.58-5.76,5.76
			c0,0.38,0.04,0.75,0.11,1.1c0.3,2.19,2.53,3.83,5.65,11.59C23.11,18.87,25.54,16.97,25.84,14.78z"/>
		<path class="st57" d="M25.82,14.77c0.07-0.36,0.11-0.73,0.11-1.1c0-3.18-2.58-5.76-5.76-5.76c-3.18,0-5.76,2.58-5.76,5.76
			c0,0.38,0.04,0.75,0.11,1.1c0.3,2.19,2.53,3.83,5.65,11.59C23.09,18.85,25.52,16.96,25.82,14.77z"/>
		<path class="st58" d="M25.8,14.76c0.07-0.36,0.11-0.73,0.11-1.1c0-3.18-2.58-5.76-5.76-5.76c-3.18,0-5.76,2.58-5.76,5.76
			c0,0.38,0.04,0.75,0.11,1.1c0.3,2.19,2.53,3.83,5.65,11.59C23.07,18.84,25.5,16.95,25.8,14.76z"/>
		<path class="st59" d="M25.78,14.74c0.07-0.36,0.11-0.73,0.11-1.1c0-3.18-2.58-5.76-5.76-5.76c-3.18,0-5.76,2.58-5.76,5.76
			c0,0.38,0.04,0.75,0.11,1.1c0.3,2.19,2.53,3.83,5.65,11.59C23.04,18.83,25.48,16.93,25.78,14.74z"/>
		<path class="st60" d="M25.75,14.73c0.07-0.36,0.11-0.73,0.11-1.1c0-3.18-2.58-5.76-5.76-5.76c-3.18,0-5.76,2.58-5.76,5.76
			c0,0.38,0.04,0.75,0.11,1.1c0.3,2.19,2.53,3.83,5.65,11.59C23.02,18.81,25.46,16.92,25.75,14.73z"/>
		<path class="st61" d="M25.73,14.72c0.07-0.36,0.11-0.73,0.11-1.1c0-3.18-2.58-5.76-5.76-5.76c-3.18,0-5.76,2.58-5.76,5.76
			c0,0.38,0.04,0.75,0.11,1.1c0.3,2.19,2.53,3.83,5.65,11.59C23,18.8,25.43,16.91,25.73,14.72z"/>
		<path class="st62" d="M25.71,14.7c0.07-0.36,0.11-0.73,0.11-1.1c0-3.18-2.58-5.76-5.76-5.76c-3.18,0-5.76,2.58-5.76,5.76
			c0,0.38,0.04,0.75,0.11,1.1c0.3,2.19,2.53,3.83,5.65,11.59C22.98,18.79,25.41,16.89,25.71,14.7z"/>
		<path class="st63" d="M25.69,14.69c0.07-0.36,0.11-0.73,0.11-1.1c0-3.18-2.58-5.76-5.76-5.76c-3.18,0-5.76,2.58-5.76,5.76
			c0,0.38,0.04,0.75,0.11,1.1c0.3,2.19,2.53,3.83,5.65,11.59C22.96,18.77,25.39,16.88,25.69,14.69z"/>
		<path class="st64" d="M25.66,14.68c0.07-0.36,0.11-0.73,0.11-1.1c0-3.18-2.58-5.76-5.76-5.76c-3.18,0-5.76,2.58-5.76,5.76
			c0,0.38,0.04,0.75,0.11,1.1c0.3,2.19,2.53,3.83,5.65,11.59C22.93,18.76,25.37,16.87,25.66,14.68z"/>
		<path class="st65" d="M25.64,14.66c0.07-0.36,0.11-0.73,0.11-1.1c0-3.18-2.58-5.76-5.76-5.76c-3.18,0-5.76,2.58-5.76,5.76
			c0,0.38,0.04,0.75,0.11,1.1c0.3,2.19,2.53,3.83,5.65,11.59C22.91,18.75,25.34,16.85,25.64,14.66z"/>
		<path class="st66" d="M25.62,14.65c0.07-0.36,0.11-0.73,0.11-1.1c0-3.18-2.58-5.76-5.76-5.76c-3.18,0-5.76,2.58-5.76,5.76
			c0,0.38,0.04,0.75,0.11,1.1c0.3,2.19,2.53,3.83,5.65,11.59C22.89,18.73,25.32,16.84,25.62,14.65z"/>
		<path class="st67" d="M25.6,14.64c0.07-0.36,0.11-0.73,0.11-1.1c0-3.18-2.58-5.76-5.76-5.76c-3.18,0-5.76,2.58-5.76,5.76
			c0,0.38,0.04,0.75,0.11,1.1c0.3,2.19,2.53,3.83,5.65,11.59C22.87,18.72,25.3,16.83,25.6,14.64z"/>
		<path class="st68" d="M25.58,14.62c0.07-0.36,0.11-0.73,0.11-1.1c0-3.18-2.58-5.76-5.76-5.76c-3.18,0-5.76,2.58-5.76,5.76
			c0,0.38,0.04,0.75,0.11,1.1c0.3,2.19,2.53,3.83,5.65,11.59C22.84,18.71,25.28,16.81,25.58,14.62z"/>
		<path class="st69" d="M25.55,14.61c0.07-0.36,0.11-0.73,0.11-1.1c0-3.18-2.58-5.76-5.76-5.76c-3.18,0-5.76,2.58-5.76,5.76
			c0,0.38,0.04,0.75,0.11,1.1c0.3,2.19,2.53,3.83,5.65,11.59C22.82,18.69,25.25,16.8,25.55,14.61z"/>
		<path class="st70" d="M25.53,14.6c0.07-0.36,0.11-0.73,0.11-1.1c0-3.18-2.58-5.76-5.76-5.76c-3.18,0-5.76,2.58-5.76,5.76
			c0,0.38,0.04,0.75,0.11,1.1c0.3,2.19,2.53,3.83,5.65,11.59C22.8,18.68,25.23,16.78,25.53,14.6z"/>
		<path class="st71" d="M25.51,14.58c0.07-0.36,0.11-0.73,0.11-1.1c0-3.18-2.58-5.76-5.76-5.76c-3.18,0-5.76,2.58-5.76,5.76
			c0,0.38,0.04,0.75,0.11,1.1c0.3,2.19,2.53,3.83,5.65,11.59C22.78,18.67,25.21,16.77,25.51,14.58z"/>
		<path class="st72" d="M25.49,14.57c0.07-0.36,0.11-0.73,0.11-1.1c0-3.18-2.58-5.76-5.76-5.76c-3.18,0-5.76,2.58-5.76,5.76
			c0,0.38,0.04,0.75,0.11,1.1c0.3,2.19,2.53,3.83,5.65,11.59C22.76,18.65,25.19,16.76,25.49,14.57z"/>
		<path class="st73" d="M25.46,14.56c0.07-0.36,0.11-0.73,0.11-1.1c0-3.18-2.58-5.76-5.76-5.76c-3.18,0-5.76,2.58-5.76,5.76
			c0,0.38,0.04,0.75,0.11,1.1c0.3,2.19,2.53,3.83,5.65,11.59C22.73,18.64,25.17,16.74,25.46,14.56z"/>
		<path class="st74" d="M25.44,14.54c0.07-0.36,0.11-0.73,0.11-1.1c0-3.18-2.58-5.76-5.76-5.76c-3.18,0-5.76,2.58-5.76,5.76
			c0,0.38,0.04,0.75,0.11,1.1c0.3,2.19,2.53,3.83,5.65,11.59C22.71,18.63,25.14,16.73,25.44,14.54z"/>
		<path class="st75" d="M25.42,14.53c0.07-0.36,0.11-0.73,0.11-1.1c0-3.18-2.58-5.76-5.76-5.76c-3.18,0-5.76,2.58-5.76,5.76
			c0,0.38,0.04,0.75,0.11,1.1c0.3,2.19,2.53,3.83,5.65,11.59C22.69,18.61,25.12,16.72,25.42,14.53z"/>
		<path class="st76" d="M25.4,14.52c0.07-0.36,0.11-0.73,0.11-1.1c0-3.18-2.58-5.76-5.76-5.76c-3.18,0-5.76,2.58-5.76,5.76
			c0,0.38,0.04,0.75,0.11,1.1c0.3,2.19,2.53,3.83,5.65,11.59C22.67,18.6,25.1,16.7,25.4,14.52z"/>
		<path class="st77" d="M25.37,14.5c0.07-0.36,0.11-0.73,0.11-1.1c0-3.18-2.58-5.76-5.76-5.76c-3.18,0-5.76,2.58-5.76,5.76
			c0,0.38,0.04,0.75,0.11,1.1c0.3,2.19,2.53,3.83,5.65,11.59C22.64,18.59,25.08,16.69,25.37,14.5z"/>
		<path class="st78" d="M25.35,14.49c0.07-0.36,0.11-0.73,0.11-1.1c0-3.18-2.58-5.76-5.76-5.76c-3.18,0-5.76,2.58-5.76,5.76
			c0,0.38,0.04,0.75,0.11,1.1c0.3,2.19,2.53,3.83,5.65,11.59C22.62,18.57,25.05,16.68,25.35,14.49z"/>
		<path class="st79" d="M25.33,14.48c0.07-0.36,0.11-0.73,0.11-1.1c0-3.18-2.58-5.76-5.76-5.76c-3.18,0-5.76,2.58-5.76,5.76
			c0,0.38,0.04,0.75,0.11,1.1c0.3,2.19,2.53,3.83,5.65,11.59C22.6,18.56,25.03,16.66,25.33,14.48z"/>
		<path class="st80" d="M25.31,14.46c0.07-0.36,0.11-0.73,0.11-1.1c0-3.18-2.58-5.76-5.76-5.76c-3.18,0-5.76,2.58-5.76,5.76
			c0,0.38,0.04,0.75,0.11,1.1c0.3,2.19,2.53,3.83,5.65,11.59C22.58,18.55,25.01,16.65,25.31,14.46z"/>
		<path class="st81" d="M25.29,14.45c0.07-0.36,0.11-0.73,0.11-1.1c0-3.18-2.58-5.76-5.76-5.76c-3.18,0-5.76,2.58-5.76,5.76
			c0,0.38,0.04,0.75,0.11,1.1c0.3,2.19,2.53,3.83,5.65,11.59C22.55,18.53,24.99,16.64,25.29,14.45z"/>
		<path class="st82" d="M25.26,14.44c0.07-0.36,0.11-0.73,0.11-1.1c0-3.18-2.58-5.76-5.76-5.76c-3.18,0-5.76,2.58-5.76,5.76
			c0,0.38,0.04,0.75,0.11,1.1c0.3,2.19,2.53,3.83,5.65,11.59C22.53,18.52,24.97,16.62,25.26,14.44z"/>
		<path class="st83" d="M25.24,14.42c0.07-0.36,0.11-0.73,0.11-1.1c0-3.18-2.58-5.76-5.76-5.76c-3.18,0-5.76,2.58-5.76,5.76
			c0,0.38,0.04,0.75,0.11,1.1c0.3,2.19,2.53,3.83,5.65,11.59C22.51,18.51,24.94,16.61,25.24,14.42z"/>
		<path class="st84" d="M25.22,14.41c0.07-0.36,0.11-0.73,0.11-1.1c0-3.18-2.58-5.76-5.76-5.76c-3.18,0-5.76,2.58-5.76,5.76
			c0,0.38,0.04,0.75,0.11,1.1c0.3,2.19,2.53,3.83,5.65,11.59C22.49,18.49,24.92,16.6,25.22,14.41z"/>
		<path class="st85" d="M25.2,14.4c0.07-0.36,0.11-0.73,0.11-1.1c0-3.18-2.58-5.76-5.76-5.76c-3.18,0-5.76,2.58-5.76,5.76
			c0,0.38,0.04,0.75,0.11,1.1c0.3,2.19,2.53,3.83,5.65,11.59C22.47,18.48,24.9,16.58,25.2,14.4z"/>
		<path class="st86" d="M25.17,14.38c0.07-0.36,0.11-0.73,0.11-1.1c0-3.18-2.58-5.76-5.76-5.76c-3.18,0-5.76,2.58-5.76,5.76
			c0,0.38,0.04,0.75,0.11,1.1c0.3,2.19,2.53,3.83,5.65,11.59C22.44,18.47,24.88,16.57,25.17,14.38z"/>
		<path class="st87" d="M25.15,14.37c0.07-0.36,0.11-0.73,0.11-1.1c0-3.18-2.58-5.76-5.76-5.76c-3.18,0-5.76,2.58-5.76,5.76
			c0,0.38,0.04,0.75,0.11,1.1c0.3,2.19,2.53,3.83,5.65,11.59C22.42,18.45,24.85,16.56,25.15,14.37z"/>
		<path class="st88" d="M25.13,14.36c0.07-0.36,0.11-0.73,0.11-1.1c0-3.18-2.58-5.76-5.76-5.76c-3.18,0-5.76,2.58-5.76,5.76
			c0,0.38,0.04,0.75,0.11,1.1c0.3,2.19,2.53,3.83,5.65,11.59C22.4,18.44,24.83,16.54,25.13,14.36z"/>
		<path class="st89" d="M25.11,14.34c0.07-0.36,0.11-0.73,0.11-1.1c0-3.18-2.58-5.76-5.76-5.76c-3.18,0-5.76,2.58-5.76,5.76
			c0,0.38,0.04,0.75,0.11,1.1c0.3,2.19,2.53,3.83,5.65,11.59C22.38,18.42,24.81,16.53,25.11,14.34z"/>
		<path class="st90" d="M25.09,14.33c0.07-0.36,0.11-0.73,0.11-1.1c0-3.18-2.58-5.76-5.76-5.76c-3.18,0-5.76,2.58-5.76,5.76
			c0,0.38,0.04,0.75,0.11,1.1c0.3,2.19,2.53,3.83,5.65,11.59C22.35,18.41,24.79,16.52,25.09,14.33z"/>
		<path class="st91" d="M25.06,14.32c0.07-0.36,0.11-0.73,0.11-1.1c0-3.18-2.58-5.76-5.76-5.76c-3.18,0-5.76,2.58-5.76,5.76
			c0,0.38,0.04,0.75,0.11,1.1c0.3,2.19,2.53,3.83,5.65,11.59C22.33,18.4,24.76,16.5,25.06,14.32z"/>
		<path class="st92" d="M25.04,14.3c0.07-0.36,0.11-0.73,0.11-1.1c0-3.18-2.58-5.76-5.76-5.76c-3.18,0-5.76,2.58-5.76,5.76
			c0,0.38,0.04,0.75,0.11,1.1c0.3,2.19,2.53,3.83,5.65,11.59C22.31,18.38,24.74,16.49,25.04,14.3z"/>
		<path class="st93" d="M25.02,14.29c0.07-0.36,0.11-0.73,0.11-1.1c0-3.18-2.58-5.76-5.76-5.76c-3.18,0-5.76,2.58-5.76,5.76
			c0,0.38,0.04,0.75,0.11,1.1c0.3,2.19,2.53,3.83,5.65,11.59C22.29,18.37,24.72,16.48,25.02,14.29z"/>
		<path class="st94" d="M25,14.28c0.07-0.36,0.11-0.73,0.11-1.1c0-3.18-2.58-5.76-5.76-5.76c-3.18,0-5.76,2.58-5.76,5.76
			c0,0.38,0.04,0.75,0.11,1.1c0.3,2.19,2.53,3.83,5.65,11.59C22.26,18.36,24.7,16.46,25,14.28z"/>
		<path class="st95" d="M24.97,14.26c0.07-0.36,0.11-0.73,0.11-1.1c0-3.18-2.58-5.76-5.76-5.76c-3.18,0-5.76,2.58-5.76,5.76
			c0,0.38,0.04,0.75,0.11,1.1c0.3,2.19,2.53,3.83,5.65,11.59C22.24,18.34,24.68,16.45,24.97,14.26z"/>
		<path class="st96" d="M24.95,14.25c0.07-0.36,0.11-0.73,0.11-1.1c0-3.18-2.58-5.76-5.76-5.76c-3.18,0-5.76,2.58-5.76,5.76
			c0,0.38,0.04,0.75,0.11,1.1c0.3,2.19,2.53,3.83,5.65,11.59C22.22,18.33,24.65,16.44,24.95,14.25z"/>
		<path class="st97" d="M24.93,14.24c0.07-0.36,0.11-0.73,0.11-1.1c0-3.18-2.58-5.76-5.76-5.76c-3.18,0-5.76,2.58-5.76,5.76
			c0,0.38,0.04,0.75,0.11,1.1c0.3,2.19,2.53,3.83,5.65,11.59C22.2,18.32,24.63,16.42,24.93,14.24z"/>
		<path class="st98" d="M24.91,14.22c0.07-0.36,0.11-0.73,0.11-1.1c0-3.18-2.58-5.76-5.76-5.76c-3.18,0-5.76,2.58-5.76,5.76
			c0,0.38,0.04,0.75,0.11,1.1c0.3,2.19,2.53,3.83,5.65,11.59C22.18,18.3,24.61,16.41,24.91,14.22z"/>
		<path class="st99" d="M24.88,14.21c0.07-0.36,0.11-0.73,0.11-1.1c0-3.18-2.58-5.76-5.76-5.76c-3.18,0-5.76,2.58-5.76,5.76
			c0,0.38,0.04,0.75,0.11,1.1c0.3,2.19,2.53,3.83,5.65,11.59C22.15,18.29,24.59,16.4,24.88,14.21z"/>
		<path class="st100" d="M24.86,14.2c0.07-0.36,0.11-0.73,0.11-1.1c0-3.18-2.58-5.76-5.76-5.76c-3.18,0-5.76,2.58-5.76,5.76
			c0,0.38,0.04,0.75,0.11,1.1c0.3,2.19,2.53,3.83,5.65,11.59C22.13,18.28,24.56,16.38,24.86,14.2z"/>
		<path class="st101" d="M24.84,14.18c0.07-0.36,0.11-0.73,0.11-1.1c0-3.18-2.58-5.76-5.76-5.76c-3.18,0-5.76,2.58-5.76,5.76
			c0,0.38,0.04,0.75,0.11,1.1c0.3,2.19,2.53,3.83,5.65,11.59C22.11,18.26,24.54,16.37,24.84,14.18z"/>
		<path class="st102" d="M24.82,14.17c0.07-0.36,0.11-0.73,0.11-1.1c0-3.18-2.58-5.76-5.76-5.76c-3.18,0-5.76,2.58-5.76,5.76
			c0,0.38,0.04,0.75,0.11,1.1c0.3,2.19,2.53,3.83,5.65,11.59C22.09,18.25,24.52,16.36,24.82,14.17z"/>
		<path class="st103" d="M24.8,14.16c0.07-0.36,0.11-0.73,0.11-1.1c0-3.18-2.58-5.76-5.76-5.76c-3.18,0-5.76,2.58-5.76,5.76
			c0,0.38,0.04,0.75,0.11,1.1c0.3,2.19,2.53,3.83,5.65,11.59C22.06,18.24,24.5,16.34,24.8,14.16z"/>
		<path class="st104" d="M24.77,14.14c0.07-0.36,0.11-0.73,0.11-1.1c0-3.18-2.58-5.76-5.76-5.76c-3.18,0-5.76,2.58-5.76,5.76
			c0,0.38,0.04,0.75,0.11,1.1c0.3,2.19,2.53,3.83,5.65,11.59C22.04,18.22,24.47,16.33,24.77,14.14z"/>
		<path class="st105" d="M24.75,14.13c0.07-0.36,0.11-0.73,0.11-1.1c0-3.18-2.58-5.76-5.76-5.76c-3.18,0-5.76,2.58-5.76,5.76
			c0,0.38,0.04,0.75,0.11,1.1c0.3,2.19,2.53,3.83,5.65,11.59C22.02,18.21,24.45,16.32,24.75,14.13z"/>
		<path class="st106" d="M24.73,14.11c0.07-0.36,0.11-0.73,0.11-1.1c0-3.18-2.58-5.76-5.76-5.76c-3.18,0-5.76,2.58-5.76,5.76
			c0,0.38,0.04,0.75,0.11,1.1c0.3,2.19,2.53,3.83,5.65,11.59C22,18.2,24.43,16.3,24.73,14.11z"/>
		<path class="st107" d="M24.71,14.1c0.07-0.36,0.11-0.73,0.11-1.1c0-3.18-2.58-5.76-5.76-5.76c-3.18,0-5.76,2.58-5.76,5.76
			c0,0.38,0.04,0.75,0.11,1.1c0.3,2.19,2.53,3.83,5.65,11.59C21.97,18.18,24.41,16.29,24.71,14.1z"/>
		<path class="st108" d="M24.68,14.09c0.07-0.36,0.11-0.73,0.11-1.1c0-3.18-2.58-5.76-5.76-5.76c-3.18,0-5.76,2.58-5.76,5.76
			c0,0.38,0.04,0.75,0.11,1.1c0.3,2.19,2.53,3.83,5.65,11.59C21.95,18.17,24.39,16.28,24.68,14.09z"/>
		<path class="st109" d="M24.66,14.07c0.07-0.36,0.11-0.73,0.11-1.1c0-3.18-2.58-5.76-5.76-5.76c-3.18,0-5.76,2.58-5.76,5.76
			c0,0.38,0.04,0.75,0.11,1.1c0.3,2.19,2.53,3.83,5.65,11.59C21.93,18.16,24.36,16.26,24.66,14.07z"/>
		<path class="st110" d="M24.64,14.06c0.07-0.36,0.11-0.73,0.11-1.1c0-3.18-2.58-5.76-5.76-5.76c-3.18,0-5.76,2.58-5.76,5.76
			c0,0.38,0.04,0.75,0.11,1.1c0.3,2.19,2.53,3.83,5.65,11.59C21.91,18.14,24.34,16.25,24.64,14.06z"/>
		<path class="st111" d="M24.62,14.05c0.07-0.36,0.11-0.73,0.11-1.1c0-3.18-2.58-5.76-5.76-5.76c-3.18,0-5.76,2.58-5.76,5.76
			c0,0.38,0.04,0.75,0.11,1.1c0.3,2.19,2.53,3.83,5.65,11.59C21.89,18.13,24.32,16.24,24.62,14.05z"/>
		<path class="st112" d="M24.59,14.03c0.07-0.36,0.11-0.73,0.11-1.1c0-3.18-2.58-5.76-5.76-5.76c-3.18,0-5.76,2.58-5.76,5.76
			c0,0.38,0.04,0.75,0.11,1.1c0.3,2.19,2.53,3.83,5.65,11.59C21.86,18.12,24.3,16.22,24.59,14.03z"/>
		<path class="st113" d="M24.57,14.02c0.07-0.36,0.11-0.73,0.11-1.1c0-3.18-2.58-5.76-5.76-5.76c-3.18,0-5.76,2.58-5.76,5.76
			c0,0.38,0.04,0.75,0.11,1.1c0.3,2.19,2.53,3.83,5.65,11.59C21.84,18.1,24.27,16.21,24.57,14.02z"/>
		<path class="st114" d="M24.55,14.01c0.07-0.36,0.11-0.73,0.11-1.1c0-3.18-2.58-5.76-5.76-5.76c-3.18,0-5.76,2.58-5.76,5.76
			c0,0.38,0.04,0.75,0.11,1.1c0.3,2.19,2.53,3.83,5.65,11.59C21.82,18.09,24.25,16.2,24.55,14.01z"/>
		<path class="st115" d="M24.53,13.99c0.07-0.36,0.11-0.73,0.11-1.1c0-3.18-2.58-5.76-5.76-5.76c-3.18,0-5.76,2.58-5.76,5.76
			c0,0.38,0.04,0.75,0.11,1.1c0.3,2.19,2.53,3.83,5.65,11.59C21.8,18.08,24.23,16.18,24.53,13.99z"/>
		<path class="st116" d="M24.51,13.98c0.07-0.36,0.11-0.73,0.11-1.1c0-3.18-2.58-5.76-5.76-5.76c-3.18,0-5.76,2.58-5.76,5.76
			c0,0.38,0.04,0.75,0.11,1.1c0.3,2.19,2.53,3.83,5.65,11.59C21.77,18.06,24.21,16.17,24.51,13.98z"/>
		<path class="st117" d="M24.48,13.97c0.07-0.36,0.11-0.73,0.11-1.1c0-3.18-2.58-5.76-5.76-5.76c-3.18,0-5.76,2.58-5.76,5.76
			c0,0.38,0.04,0.75,0.11,1.1c0.3,2.19,2.53,3.83,5.65,11.59C21.75,18.05,24.18,16.16,24.48,13.97z"/>
		<path class="st118" d="M24.46,13.95c0.07-0.36,0.11-0.73,0.11-1.1c0-3.18-2.58-5.76-5.76-5.76c-3.18,0-5.76,2.58-5.76,5.76
			c0,0.38,0.04,0.75,0.11,1.1c0.3,2.19,2.53,3.83,5.65,11.59C21.73,18.04,24.16,16.14,24.46,13.95z"/>
		<path class="st119" d="M24.44,13.94c0.07-0.36,0.11-0.73,0.11-1.1c0-3.18-2.58-5.76-5.76-5.76c-3.18,0-5.76,2.58-5.76,5.76
			c0,0.38,0.04,0.75,0.11,1.1c0.3,2.19,2.53,3.83,5.65,11.59C21.71,18.02,24.14,16.13,24.44,13.94z"/>
		<path class="st120" d="M24.42,13.93c0.07-0.36,0.11-0.73,0.11-1.1c0-3.18-2.58-5.76-5.76-5.76c-3.18,0-5.76,2.58-5.76,5.76
			c0,0.38,0.04,0.75,0.11,1.1c0.3,2.19,2.53,3.83,5.65,11.59C21.68,18.01,24.12,16.12,24.42,13.93z"/>
		<path class="st121" d="M24.39,13.91c0.07-0.36,0.11-0.73,0.11-1.1c0-3.18-2.58-5.76-5.76-5.76c-3.18,0-5.76,2.58-5.76,5.76
			c0,0.38,0.04,0.75,0.11,1.1c0.3,2.19,2.53,3.83,5.65,11.59C21.66,18,24.1,16.1,24.39,13.91z"/>
		<path class="st122" d="M24.37,13.9c0.07-0.36,0.11-0.73,0.11-1.1c0-3.18-2.58-5.76-5.76-5.76c-3.18,0-5.76,2.58-5.76,5.76
			c0,0.38,0.04,0.75,0.11,1.1c0.3,2.19,2.53,3.83,5.65,11.59C21.64,17.98,24.07,16.09,24.37,13.9z"/>
		<path class="st123" d="M24.35,13.89c0.07-0.36,0.11-0.73,0.11-1.1c0-3.18-2.58-5.76-5.76-5.76c-3.18,0-5.76,2.58-5.76,5.76
			c0,0.38,0.04,0.75,0.11,1.1c0.3,2.19,2.53,3.83,5.65,11.59C21.62,17.97,24.05,16.08,24.35,13.89z"/>
		<path class="st124" d="M24.33,13.87c0.07-0.36,0.11-0.73,0.11-1.1c0-3.18-2.58-5.76-5.76-5.76c-3.18,0-5.76,2.58-5.76,5.76
			c0,0.38,0.04,0.75,0.11,1.1c0.3,2.19,2.53,3.83,5.65,11.59C21.6,17.96,24.03,16.06,24.33,13.87z"/>
		<path class="st125" d="M24.3,13.86c0.07-0.36,0.11-0.73,0.11-1.1c0-3.18-2.58-5.76-5.76-5.76c-3.18,0-5.76,2.58-5.76,5.76
			c0,0.38,0.04,0.75,0.11,1.1c0.3,2.19,2.53,3.83,5.65,11.59C21.57,17.94,24.01,16.05,24.3,13.86z"/>
		<path class="st126" d="M24.28,13.85c0.07-0.36,0.11-0.73,0.11-1.1c0-3.18-2.58-5.76-5.76-5.76c-3.18,0-5.76,2.58-5.76,5.76
			c0,0.38,0.04,0.75,0.11,1.1c0.3,2.19,2.53,3.83,5.65,11.59C21.55,17.93,23.98,16.04,24.28,13.85z"/>
		<path class="st127" d="M24.26,13.83c0.07-0.36,0.11-0.73,0.11-1.1c0-3.18-2.58-5.76-5.76-5.76c-3.18,0-5.76,2.58-5.76,5.76
			c0,0.38,0.04,0.75,0.11,1.1c0.3,2.19,2.53,3.83,5.65,11.59C21.53,17.92,23.96,16.02,24.26,13.83z"/>
		<path class="st128" d="M24.24,13.82c0.07-0.36,0.11-0.73,0.11-1.1c0-3.18-2.58-5.76-5.76-5.76c-3.18,0-5.76,2.58-5.76,5.76
			c0,0.38,0.04,0.75,0.11,1.1c0.3,2.19,2.53,3.83,5.65,11.59C21.51,17.9,23.94,16.01,24.24,13.82z"/>
		<path class="st129" d="M24.22,13.81c0.07-0.36,0.11-0.73,0.11-1.1c0-3.18-2.58-5.76-5.76-5.76c-3.18,0-5.76,2.58-5.76,5.76
			c0,0.38,0.04,0.75,0.11,1.1c0.3,2.19,2.53,3.83,5.65,11.59C21.48,17.89,23.92,16,24.22,13.81z"/>
		<path class="st130" d="M24.19,13.79c0.07-0.36,0.11-0.73,0.11-1.1c0-3.18-2.58-5.76-5.76-5.76c-3.18,0-5.76,2.58-5.76,5.76
			c0,0.38,0.04,0.75,0.11,1.1c0.3,2.19,2.53,3.83,5.65,11.59C21.46,17.88,23.9,15.98,24.19,13.79z"/>
		<path class="st131" d="M24.17,13.78c0.07-0.36,0.11-0.73,0.11-1.1c0-3.18-2.58-5.76-5.76-5.76c-3.18,0-5.76,2.58-5.76,5.76
			c0,0.38,0.04,0.75,0.11,1.1c0.3,2.19,2.53,3.83,5.65,11.59C21.44,17.86,23.87,15.97,24.17,13.78z"/>
		<path class="st132" d="M24.15,13.77c0.07-0.36,0.11-0.73,0.11-1.1c0-3.18-2.58-5.76-5.76-5.76c-3.18,0-5.76,2.58-5.76,5.76
			c0,0.38,0.04,0.75,0.11,1.1c0.3,2.19,2.53,3.83,5.65,11.59C21.42,17.85,23.85,15.96,24.15,13.77z"/>
		<path class="st133" d="M24.13,13.75c0.07-0.36,0.11-0.73,0.11-1.1c0-3.18-2.58-5.76-5.76-5.76c-3.18,0-5.76,2.58-5.76,5.76
			c0,0.38,0.04,0.75,0.11,1.1c0.3,2.19,2.53,3.83,5.65,11.59C21.4,17.84,23.83,15.94,24.13,13.75z"/>
		<path class="st134" d="M24.1,13.74c0.07-0.36,0.11-0.73,0.11-1.1c0-3.18-2.58-5.76-5.76-5.76c-3.18,0-5.76,2.58-5.76,5.76
			c0,0.38,0.04,0.75,0.11,1.1c0.3,2.19,2.53,3.83,5.65,11.59C21.37,17.82,23.81,15.93,24.1,13.74z"/>
		<path class="st135" d="M24.08,13.73c0.07-0.36,0.11-0.73,0.11-1.1c0-3.18-2.58-5.76-5.76-5.76c-3.18,0-5.76,2.58-5.76,5.76
			c0,0.38,0.04,0.75,0.11,1.1c0.3,2.19,2.53,3.83,5.65,11.59C21.35,17.81,23.78,15.92,24.08,13.73z"/>
		<path class="st136" d="M24.06,13.71c0.07-0.36,0.11-0.73,0.11-1.1c0-3.18-2.58-5.76-5.76-5.76c-3.18,0-5.76,2.58-5.76,5.76
			c0,0.38,0.04,0.75,0.11,1.1c0.3,2.19,2.53,3.83,5.65,11.59C21.33,17.8,23.76,15.9,24.06,13.71z"/>
		<path class="st137" d="M24.04,13.7c0.07-0.36,0.11-0.73,0.11-1.1c0-3.18-2.58-5.76-5.76-5.76c-3.18,0-5.76,2.58-5.76,5.76
			c0,0.38,0.04,0.75,0.11,1.1c0.3,2.19,2.53,3.83,5.65,11.59C21.31,17.78,23.74,15.89,24.04,13.7z"/>
		<path class="st138" d="M24.02,13.69c0.07-0.36,0.11-0.73,0.11-1.1c0-3.18-2.58-5.76-5.76-5.76c-3.18,0-5.76,2.58-5.76,5.76
			c0,0.38,0.04,0.75,0.11,1.1c0.3,2.19,2.53,3.83,5.65,11.59C21.28,17.77,23.72,15.88,24.02,13.69z"/>
		<path class="st139" d="M23.99,13.67c0.07-0.36,0.11-0.73,0.11-1.1c0-3.18-2.58-5.76-5.76-5.76c-3.18,0-5.76,2.58-5.76,5.76
			c0,0.38,0.04,0.75,0.11,1.1c0.3,2.19,2.53,3.83,5.65,11.59C21.26,17.76,23.69,15.86,23.99,13.67z"/>
		<path class="st140" d="M23.97,13.66c0.07-0.36,0.11-0.73,0.11-1.1c0-3.18-2.58-5.76-5.76-5.76c-3.18,0-5.76,2.58-5.76,5.76
			c0,0.38,0.04,0.75,0.11,1.1c0.3,2.19,2.53,3.83,5.65,11.59C21.24,17.74,23.67,15.85,23.97,13.66z"/>
		<path class="st141" d="M23.95,13.65c0.07-0.36,0.11-0.73,0.11-1.1c0-3.18-2.58-5.76-5.76-5.76c-3.18,0-5.76,2.58-5.76,5.76
			c0,0.38,0.04,0.75,0.11,1.1c0.3,2.19,2.53,3.83,5.65,11.59C21.22,17.73,23.65,15.84,23.95,13.65z"/>
		<path class="st142" d="M23.93,13.63c0.07-0.36,0.11-0.73,0.11-1.1c0-3.18-2.58-5.76-5.76-5.76c-3.18,0-5.76,2.58-5.76,5.76
			c0,0.38,0.04,0.75,0.11,1.1c0.3,2.19,2.53,3.83,5.65,11.59C21.19,17.72,23.63,15.82,23.93,13.63z"/>
		<path class="st143" d="M23.9,13.62c0.07-0.36,0.11-0.73,0.11-1.1c0-3.18-2.58-5.76-5.76-5.76c-3.18,0-5.76,2.58-5.76,5.76
			c0,0.38,0.04,0.75,0.11,1.1c0.3,2.19,2.53,3.83,5.65,11.59C21.17,17.7,23.61,15.81,23.9,13.62z"/>
		<path class="st144" d="M23.88,13.61c0.07-0.36,0.11-0.73,0.11-1.1c0-3.18-2.58-5.76-5.76-5.76c-3.18,0-5.76,2.58-5.76,5.76
			c0,0.38,0.04,0.75,0.11,1.1c0.3,2.19,2.53,3.83,5.65,11.59C21.15,17.69,23.58,15.8,23.88,13.61z"/>
		<path class="st145" d="M23.86,13.59c0.07-0.36,0.11-0.73,0.11-1.1c0-3.18-2.58-5.76-5.76-5.76c-3.18,0-5.76,2.58-5.76,5.76
			c0,0.38,0.04,0.75,0.11,1.1c0.3,2.19,2.53,3.83,5.65,11.59C21.13,17.68,23.56,15.78,23.86,13.59z"/>
		<path class="st146" d="M23.84,13.58c0.07-0.36,0.11-0.73,0.11-1.1c0-3.18-2.58-5.76-5.76-5.76c-3.18,0-5.76,2.58-5.76,5.76
			c0,0.38,0.04,0.75,0.11,1.1c0.3,2.19,2.53,3.83,5.65,11.59C21.11,17.66,23.54,15.77,23.84,13.58z"/>
		<path class="st147" d="M23.81,13.57c0.07-0.36,0.11-0.73,0.11-1.1c0-3.18-2.58-5.76-5.76-5.76c-3.18,0-5.76,2.58-5.76,5.76
			c0,0.38,0.04,0.75,0.11,1.1c0.3,2.19,2.53,3.83,5.65,11.59C21.08,17.65,23.52,15.76,23.81,13.57z"/>
		<path class="st148" d="M23.79,13.55c0.07-0.36,0.11-0.73,0.11-1.1c0-3.18-2.58-5.76-5.76-5.76c-3.18,0-5.76,2.58-5.76,5.76
			c0,0.38,0.04,0.75,0.11,1.1c0.3,2.19,2.53,3.83,5.65,11.59C21.06,17.64,23.49,15.74,23.79,13.55z"/>
		<path class="st149" d="M23.77,13.54c0.07-0.36,0.11-0.73,0.11-1.1c0-3.18-2.58-5.76-5.76-5.76c-3.18,0-5.76,2.58-5.76,5.76
			c0,0.38,0.04,0.75,0.11,1.1c0.3,2.19,2.53,3.83,5.65,11.59C21.04,17.62,23.47,15.73,23.77,13.54z"/>
		<path class="st150" d="M23.75,13.53c0.07-0.36,0.11-0.73,0.11-1.1c0-3.18-2.58-5.76-5.76-5.76c-3.18,0-5.76,2.58-5.76,5.76
			c0,0.38,0.04,0.75,0.11,1.1c0.3,2.19,2.53,3.83,5.65,11.59C21.02,17.61,23.45,15.71,23.75,13.53z"/>
		<path class="st151" d="M23.73,13.51c0.07-0.36,0.11-0.73,0.11-1.1c0-3.18-2.58-5.76-5.76-5.76c-3.18,0-5.76,2.58-5.76,5.76
			c0,0.38,0.04,0.75,0.11,1.1c0.3,2.19,2.53,3.83,5.65,11.59C20.99,17.6,23.43,15.7,23.73,13.51z"/>
		<path class="st152" d="M23.7,13.5c0.07-0.36,0.11-0.73,0.11-1.1c0-3.18-2.58-5.76-5.76-5.76c-3.18,0-5.76,2.58-5.76,5.76
			c0,0.38,0.04,0.75,0.11,1.1c0.3,2.19,2.53,3.83,5.65,11.59C20.97,17.58,23.4,15.69,23.7,13.5z"/>
		<path class="st153" d="M23.68,13.49c0.07-0.36,0.11-0.73,0.11-1.1c0-3.18-2.58-5.76-5.76-5.76c-3.18,0-5.76,2.58-5.76,5.76
			c0,0.38,0.04,0.75,0.11,1.1c0.3,2.19,2.53,3.83,5.65,11.59C20.95,17.57,23.38,15.67,23.68,13.49z"/>
		<path class="st154" d="M23.66,13.47c0.07-0.36,0.11-0.73,0.11-1.1c0-3.18-2.58-5.76-5.76-5.76c-3.18,0-5.76,2.58-5.76,5.76
			c0,0.38,0.04,0.75,0.11,1.1c0.3,2.19,2.53,3.83,5.65,11.59C20.93,17.56,23.36,15.66,23.66,13.47z"/>
		<path class="st155" d="M23.64,13.46c0.07-0.36,0.11-0.73,0.11-1.1c0-3.18-2.58-5.76-5.76-5.76c-3.18,0-5.76,2.58-5.76,5.76
			c0,0.38,0.04,0.75,0.11,1.1c0.3,2.19,2.53,3.83,5.65,11.59C20.9,17.54,23.34,15.65,23.64,13.46z"/>
		<path class="st156" d="M23.61,13.45c0.07-0.36,0.11-0.73,0.11-1.1c0-3.18-2.58-5.76-5.76-5.76c-3.18,0-5.76,2.58-5.76,5.76
			c0,0.38,0.04,0.75,0.11,1.1c0.3,2.19,2.53,3.83,5.65,11.59C20.88,17.53,23.32,15.63,23.61,13.45z"/>
		<path class="st157" d="M23.59,13.43c0.07-0.36,0.11-0.73,0.11-1.1c0-3.18-2.58-5.76-5.76-5.76c-3.18,0-5.76,2.58-5.76,5.76
			c0,0.38,0.04,0.75,0.11,1.1c0.3,2.19,2.53,3.83,5.65,11.59C20.86,17.52,23.29,15.62,23.59,13.43z"/>
		<path class="st158" d="M23.57,13.42c0.07-0.36,0.11-0.73,0.11-1.1c0-3.18-2.58-5.76-5.76-5.76c-3.18,0-5.76,2.58-5.76,5.76
			c0,0.38,0.04,0.75,0.11,1.1c0.3,2.19,2.53,3.83,5.65,11.59C20.84,17.5,23.27,15.61,23.57,13.42z"/>
		<path class="st159" d="M23.55,13.41c0.07-0.36,0.11-0.73,0.11-1.1c0-3.18-2.58-5.76-5.76-5.76c-3.18,0-5.76,2.58-5.76,5.76
			c0,0.38,0.04,0.75,0.11,1.1c0.3,2.19,2.53,3.83,5.65,11.59C20.82,17.49,23.25,15.59,23.55,13.41z"/>
		<path class="st160" d="M23.52,13.39c0.07-0.36,0.11-0.73,0.11-1.1c0-3.18-2.58-5.76-5.76-5.76c-3.18,0-5.76,2.58-5.76,5.76
			c0,0.38,0.04,0.75,0.11,1.1c0.3,2.19,2.53,3.83,5.65,11.59C20.79,17.48,23.23,15.58,23.52,13.39z"/>
		<path class="st161" d="M23.5,13.38c0.07-0.36,0.11-0.73,0.11-1.1c0-3.18-2.58-5.76-5.76-5.76c-3.18,0-5.76,2.58-5.76,5.76
			c0,0.38,0.04,0.75,0.11,1.1c0.3,2.19,2.53,3.83,5.65,11.59C20.77,17.46,23.2,15.57,23.5,13.38z"/>
		<path class="st162" d="M23.48,13.37c0.07-0.36,0.11-0.73,0.11-1.1c0-3.18-2.58-5.76-5.76-5.76c-3.18,0-5.76,2.58-5.76,5.76
			c0,0.38,0.04,0.75,0.11,1.1c0.3,2.19,2.53,3.83,5.65,11.59C20.75,17.45,23.18,15.55,23.48,13.37z"/>
		<path class="st163" d="M23.46,13.35c0.07-0.36,0.11-0.73,0.11-1.1c0-3.18-2.58-5.76-5.76-5.76c-3.18,0-5.76,2.58-5.76,5.76
			c0,0.38,0.04,0.75,0.11,1.1c0.3,2.19,2.53,3.83,5.65,11.59C20.73,17.44,23.16,15.54,23.46,13.35z"/>
		<path class="st164" d="M23.44,13.34c0.07-0.36,0.11-0.73,0.11-1.1c0-3.18-2.58-5.76-5.76-5.76c-3.18,0-5.76,2.58-5.76,5.76
			c0,0.38,0.04,0.75,0.11,1.1c0.3,2.19,2.53,3.83,5.65,11.59C20.7,17.42,23.14,15.53,23.44,13.34z"/>
		<path class="st165" d="M23.41,13.33c0.07-0.36,0.11-0.73,0.11-1.1c0-3.18-2.58-5.76-5.76-5.76c-3.18,0-5.76,2.58-5.76,5.76
			c0,0.38,0.04,0.75,0.11,1.1c0.3,2.19,2.53,3.83,5.65,11.59C20.68,17.41,23.11,15.51,23.41,13.33z"/>
		<path class="st166" d="M23.39,13.31c0.07-0.36,0.11-0.73,0.11-1.1c0-3.18-2.58-5.76-5.76-5.76c-3.18,0-5.76,2.58-5.76,5.76
			c0,0.38,0.04,0.75,0.11,1.1c0.3,2.19,2.53,3.83,5.65,11.59C20.66,17.4,23.09,15.5,23.39,13.31z"/>
		<path class="st167" d="M23.37,13.3c0.07-0.36,0.11-0.73,0.11-1.1c0-3.18-2.58-5.76-5.76-5.76c-3.18,0-5.76,2.58-5.76,5.76
			c0,0.38,0.04,0.75,0.11,1.1c0.3,2.19,2.53,3.83,5.65,11.59C20.64,17.38,23.07,15.49,23.37,13.3z"/>
		<path class="st168" d="M23.35,13.29c0.07-0.36,0.11-0.73,0.11-1.1c0-3.18-2.58-5.76-5.76-5.76c-3.18,0-5.76,2.58-5.76,5.76
			c0,0.38,0.04,0.75,0.11,1.1c0.3,2.19,2.53,3.83,5.65,11.59C20.61,17.37,23.05,15.47,23.35,13.29z"/>
		<path class="st169" d="M23.32,13.27c0.07-0.36,0.11-0.73,0.11-1.1c0-3.18-2.58-5.76-5.76-5.76c-3.18,0-5.76,2.58-5.76,5.76
			c0,0.38,0.04,0.75,0.11,1.1c0.3,2.19,2.53,3.83,5.65,11.59C20.59,17.35,23.03,15.46,23.32,13.27z"/>
		<path class="st170" d="M23.3,13.26c0.07-0.36,0.11-0.73,0.11-1.1c0-3.18-2.58-5.76-5.76-5.76c-3.18,0-5.76,2.58-5.76,5.76
			c0,0.38,0.04,0.75,0.11,1.1c0.3,2.19,2.53,3.83,5.65,11.59C20.57,17.34,23,15.45,23.3,13.26z"/>
		<path class="st171" d="M23.28,13.25c0.07-0.36,0.11-0.73,0.11-1.1c0-3.18-2.58-5.76-5.76-5.76c-3.18,0-5.76,2.58-5.76,5.76
			c0,0.38,0.04,0.75,0.11,1.1c0.3,2.19,2.53,3.83,5.65,11.59C20.55,17.33,22.98,15.43,23.28,13.25z"/>
		<path class="st172" d="M23.26,13.23c0.07-0.36,0.11-0.73,0.11-1.1c0-3.18-2.58-5.76-5.76-5.76c-3.18,0-5.76,2.58-5.76,5.76
			c0,0.38,0.04,0.75,0.11,1.1c0.3,2.19,2.53,3.83,5.65,11.59C20.53,17.31,22.96,15.42,23.26,13.23z"/>
		<path class="st173" d="M23.23,13.22c0.07-0.36,0.11-0.73,0.11-1.1c0-3.18-2.58-5.76-5.76-5.76c-3.18,0-5.76,2.58-5.76,5.76
			c0,0.38,0.04,0.75,0.11,1.1c0.3,2.19,2.53,3.83,5.65,11.59C20.5,17.3,22.94,15.41,23.23,13.22z"/>
		<path class="st174" d="M23.21,13.21c0.07-0.36,0.11-0.73,0.11-1.1c0-3.18-2.58-5.76-5.76-5.76c-3.18,0-5.76,2.58-5.76,5.76
			c0,0.38,0.04,0.75,0.11,1.1c0.3,2.19,2.53,3.83,5.65,11.59C20.48,17.29,22.91,15.39,23.21,13.21z"/>
		<path class="st175" d="M23.19,13.19c0.07-0.36,0.11-0.73,0.11-1.1c0-3.18-2.58-5.76-5.76-5.76c-3.18,0-5.76,2.58-5.76,5.76
			c0,0.38,0.04,0.75,0.11,1.1c0.3,2.19,2.53,3.83,5.65,11.59C20.46,17.27,22.89,15.38,23.19,13.19z"/>
		<path class="st176" d="M23.17,13.18c0.07-0.36,0.11-0.73,0.11-1.1c0-3.18-2.58-5.76-5.76-5.76c-3.18,0-5.76,2.58-5.76,5.76
			c0,0.38,0.04,0.75,0.11,1.1c0.3,2.19,2.53,3.83,5.65,11.59C20.44,17.26,22.87,15.37,23.17,13.18z"/>
		<path class="st177" d="M23.15,13.17c0.07-0.36,0.11-0.73,0.11-1.1c0-3.18-2.58-5.76-5.76-5.76c-3.18,0-5.76,2.58-5.76,5.76
			c0,0.38,0.04,0.75,0.11,1.1c0.3,2.19,2.53,3.83,5.65,11.59C20.41,17.25,22.85,15.35,23.15,13.17z"/>
		<path class="st178" d="M23.12,13.15c0.07-0.36,0.11-0.73,0.11-1.1c0-3.18-2.58-5.76-5.76-5.76c-3.18,0-5.76,2.58-5.76,5.76
			c0,0.38,0.04,0.75,0.11,1.1c0.3,2.19,2.53,3.83,5.65,11.59C20.39,17.23,22.83,15.34,23.12,13.15z"/>
		<path class="st178" d="M23.1,13.14c0.07-0.36,0.11-0.73,0.11-1.1c0-3.18-2.58-5.76-5.76-5.76c-3.18,0-5.76,2.58-5.76,5.76
			c0,0.38,0.04,0.75,0.11,1.1c0.3,2.19,2.53,3.83,5.65,11.59C20.37,17.22,22.8,15.33,23.1,13.14z"/>
		<path class="st179" d="M23.08,13.13c0.07-0.36,0.11-0.73,0.11-1.1c0-3.18-2.58-5.76-5.76-5.76c-3.18,0-5.76,2.58-5.76,5.76
			c0,0.38,0.04,0.75,0.11,1.1c0.3,2.19,2.53,3.83,5.65,11.59C20.35,17.21,22.78,15.31,23.08,13.13z"/>
		<path class="st180" d="M23.06,13.11c0.07-0.36,0.11-0.73,0.11-1.1c0-3.18-2.58-5.76-5.76-5.76c-3.18,0-5.76,2.58-5.76,5.76
			c0,0.38,0.04,0.75,0.11,1.1c0.3,2.19,2.53,3.83,5.65,11.59C20.33,17.19,22.76,15.3,23.06,13.11z"/>
		<path class="st181" d="M23.03,13.1c0.07-0.36,0.11-0.73,0.11-1.1c0-3.18-2.58-5.76-5.76-5.76c-3.18,0-5.76,2.58-5.76,5.76
			c0,0.38,0.04,0.75,0.11,1.1c0.3,2.19,2.53,3.83,5.65,11.59C20.3,17.18,22.74,15.29,23.03,13.1z"/>
		<path class="st182" d="M23.01,13.08c0.07-0.36,0.11-0.73,0.11-1.1c0-3.18-2.58-5.76-5.76-5.76c-3.18,0-5.76,2.58-5.76,5.76
			c0,0.38,0.04,0.75,0.11,1.1c0.3,2.19,2.53,3.83,5.65,11.59C20.28,17.17,22.71,15.27,23.01,13.08z"/>
		<path class="st183" d="M22.99,13.07c0.07-0.36,0.11-0.73,0.11-1.1c0-3.18-2.58-5.76-5.76-5.76c-3.18,0-5.76,2.58-5.76,5.76
			c0,0.38,0.04,0.75,0.11,1.1c0.3,2.19,2.53,3.83,5.65,11.59C20.26,17.15,22.69,15.26,22.99,13.07z"/>
		<path class="st184" d="M22.97,13.06c0.07-0.36,0.11-0.73,0.11-1.1c0-3.18-2.58-5.76-5.76-5.76c-3.18,0-5.76,2.58-5.76,5.76
			c0,0.38,0.04,0.75,0.11,1.1c0.3,2.19,2.53,3.83,5.65,11.59C20.24,17.14,22.67,15.25,22.97,13.06z"/>
		<path class="st185" d="M22.95,13.04c0.07-0.36,0.11-0.73,0.11-1.1c0-3.18-2.58-5.76-5.76-5.76c-3.18,0-5.76,2.58-5.76,5.76
			c0,0.38,0.04,0.75,0.11,1.1c0.3,2.19,2.53,3.83,5.65,11.59C20.21,17.13,22.65,15.23,22.95,13.04z"/>
		<path class="st186" d="M22.92,13.03c0.07-0.36,0.11-0.73,0.11-1.1c0-3.18-2.58-5.76-5.76-5.76c-3.18,0-5.76,2.58-5.76,5.76
			c0,0.38,0.04,0.75,0.11,1.1c0.3,2.19,2.53,3.83,5.65,11.59C20.19,17.11,22.62,15.22,22.92,13.03z"/>
		<path class="st187" d="M22.9,13.02c0.07-0.36,0.11-0.73,0.11-1.1c0-3.18-2.58-5.76-5.76-5.76c-3.18,0-5.76,2.58-5.76,5.76
			c0,0.38,0.04,0.75,0.11,1.1c0.3,2.19,2.53,3.83,5.65,11.59C20.17,17.1,22.6,15.21,22.9,13.02z"/>
		<path class="st188" d="M22.88,13c0.07-0.36,0.11-0.73,0.11-1.1c0-3.18-2.58-5.76-5.76-5.76c-3.18,0-5.76,2.58-5.76,5.76
			c0,0.38,0.04,0.75,0.11,1.1c0.3,2.19,2.53,3.83,5.65,11.59C20.15,17.09,22.58,15.19,22.88,13z"/>
		<path class="st189" d="M22.86,12.99c0.07-0.36,0.11-0.73,0.11-1.1c0-3.18-2.58-5.76-5.76-5.76c-3.18,0-5.76,2.58-5.76,5.76
			c0,0.38,0.04,0.75,0.11,1.1c0.3,2.19,2.53,3.83,5.65,11.59C20.12,17.07,22.56,15.18,22.86,12.99z"/>
		<path class="st190" d="M22.83,12.98c0.07-0.36,0.11-0.73,0.11-1.1c0-3.18-2.58-5.76-5.76-5.76c-3.18,0-5.76,2.58-5.76,5.76
			c0,0.38,0.04,0.75,0.11,1.1c0.3,2.19,2.53,3.83,5.65,11.59C20.1,17.06,22.54,15.17,22.83,12.98z"/>
		<path class="st191" d="M22.81,12.96c0.07-0.36,0.11-0.73,0.11-1.1c0-3.18-2.58-5.76-5.76-5.76c-3.18,0-5.76,2.58-5.76,5.76
			c0,0.38,0.04,0.75,0.11,1.1c0.3,2.19,2.53,3.83,5.65,11.59C20.08,17.05,22.51,15.15,22.81,12.96z"/>
		<path class="st192" d="M22.79,12.95c0.07-0.36,0.11-0.73,0.11-1.1c0-3.18-2.58-5.76-5.76-5.76c-3.18,0-5.76,2.58-5.76,5.76
			c0,0.38,0.04,0.75,0.11,1.1c0.3,2.19,2.53,3.83,5.65,11.59C20.06,17.03,22.49,15.14,22.79,12.95z"/>
		<path class="st193" d="M22.77,12.94c0.07-0.36,0.11-0.73,0.11-1.1c0-3.18-2.58-5.76-5.76-5.76c-3.18,0-5.76,2.58-5.76,5.76
			c0,0.38,0.04,0.75,0.11,1.1c0.3,2.19,2.53,3.83,5.65,11.59C20.04,17.02,22.47,15.13,22.77,12.94z"/>
		<path class="st194" d="M22.74,12.92c0.07-0.36,0.11-0.73,0.11-1.1c0-3.18-2.58-5.76-5.76-5.76c-3.18,0-5.76,2.58-5.76,5.76
			c0,0.38,0.04,0.75,0.11,1.1c0.3,2.19,2.53,3.83,5.65,11.59C20.01,17.01,22.45,15.11,22.74,12.92z"/>
		<path class="st195" d="M22.72,12.91c0.07-0.36,0.11-0.73,0.11-1.1c0-3.18-2.58-5.76-5.76-5.76c-3.18,0-5.76,2.58-5.76,5.76
			c0,0.38,0.04,0.75,0.11,1.1c0.3,2.19,2.53,3.83,5.65,11.59C19.99,16.99,22.42,15.1,22.72,12.91z"/>
		<path class="st196" d="M22.7,12.9c0.07-0.36,0.11-0.73,0.11-1.1c0-3.18-2.58-5.76-5.76-5.76c-3.18,0-5.76,2.58-5.76,5.76
			c0,0.38,0.04,0.75,0.11,1.1c0.3,2.19,2.53,3.83,5.65,11.59C19.97,16.98,22.4,15.09,22.7,12.9z"/>
		<path class="st197" d="M22.68,12.88c0.07-0.36,0.11-0.73,0.11-1.1c0-3.18-2.58-5.76-5.76-5.76c-3.18,0-5.76,2.58-5.76,5.76
			c0,0.38,0.04,0.75,0.11,1.1c0.3,2.19,2.53,3.83,5.65,11.59C19.95,16.97,22.38,15.07,22.68,12.88z"/>
		<path class="st198" d="M22.66,12.87c0.07-0.36,0.11-0.73,0.11-1.1c0-3.18-2.58-5.76-5.76-5.76c-3.18,0-5.76,2.58-5.76,5.76
			c0,0.38,0.04,0.75,0.11,1.1c0.3,2.19,2.53,3.83,5.65,11.59C19.92,16.95,22.36,15.06,22.66,12.87z"/>
		<path class="st199" d="M22.63,12.86c0.07-0.36,0.11-0.73,0.11-1.1c0-3.18-2.58-5.76-5.76-5.76c-3.18,0-5.76,2.58-5.76,5.76
			c0,0.38,0.04,0.75,0.11,1.1c0.3,2.19,2.53,3.83,5.65,11.59C19.9,16.94,22.33,15.05,22.63,12.86z"/>
		<path class="st200" d="M22.61,12.84c0.07-0.36,0.11-0.73,0.11-1.1c0-3.18-2.58-5.76-5.76-5.76c-3.18,0-5.76,2.58-5.76,5.76
			c0,0.38,0.04,0.75,0.11,1.1c0.3,2.19,2.53,3.83,5.65,11.59C19.88,16.93,22.31,15.03,22.61,12.84z"/>
		<path class="st201" d="M22.59,12.83c0.07-0.36,0.11-0.73,0.11-1.1c0-3.18-2.58-5.76-5.76-5.76c-3.18,0-5.76,2.58-5.76,5.76
			c0,0.38,0.04,0.75,0.11,1.1c0.3,2.19,2.53,3.83,5.65,11.59C19.86,16.91,22.29,15.02,22.59,12.83z"/>
		<path class="st202" d="M22.57,12.82c0.07-0.36,0.11-0.73,0.11-1.1c0-3.18-2.58-5.76-5.76-5.76c-3.18,0-5.76,2.58-5.76,5.76
			c0,0.38,0.04,0.75,0.11,1.1c0.3,2.19,2.53,3.83,5.65,11.59C19.83,16.9,22.27,15.01,22.57,12.82z"/>
		<path class="st203" d="M22.54,12.8c0.07-0.36,0.11-0.73,0.11-1.1c0-3.18-2.58-5.76-5.76-5.76c-3.18,0-5.76,2.58-5.76,5.76
			c0,0.38,0.04,0.75,0.11,1.1c0.3,2.19,2.53,3.83,5.65,11.59C19.81,16.89,22.25,14.99,22.54,12.8z"/>
		<path class="st204" d="M22.52,12.79c0.07-0.36,0.11-0.73,0.11-1.1c0-3.18-2.58-5.76-5.76-5.76c-3.18,0-5.76,2.58-5.76,5.76
			c0,0.38,0.04,0.75,0.11,1.1c0.3,2.19,2.53,3.83,5.65,11.59C19.79,16.87,22.22,14.98,22.52,12.79z"/>
		<path class="st205" d="M22.5,12.78c0.07-0.36,0.11-0.73,0.11-1.1c0-3.18-2.58-5.76-5.76-5.76c-3.18,0-5.76,2.58-5.76,5.76
			c0,0.38,0.04,0.75,0.11,1.1c0.3,2.19,2.53,3.83,5.65,11.59C19.77,16.86,22.2,14.97,22.5,12.78z"/>
		<path class="st206" d="M22.48,12.76c0.07-0.36,0.11-0.73,0.11-1.1c0-3.18-2.58-5.76-5.76-5.76c-3.18,0-5.76,2.58-5.76,5.76
			c0,0.38,0.04,0.75,0.11,1.1c0.3,2.19,2.53,3.83,5.65,11.59C19.75,16.85,22.18,14.95,22.48,12.76z"/>
		<path class="st207" d="M22.45,12.75c0.07-0.36,0.11-0.73,0.11-1.1c0-3.18-2.58-5.76-5.76-5.76c-3.18,0-5.76,2.58-5.76,5.76
			c0,0.38,0.04,0.75,0.11,1.1c0.3,2.19,2.53,3.83,5.65,11.59C19.72,16.83,22.16,14.94,22.45,12.75z"/>
		<path class="st208" d="M22.43,12.74c0.07-0.36,0.11-0.73,0.11-1.1c0-3.18-2.58-5.76-5.76-5.76c-3.18,0-5.76,2.58-5.76,5.76
			c0,0.38,0.04,0.75,0.11,1.1c0.3,2.19,2.53,3.83,5.65,11.59C19.7,16.82,22.13,14.93,22.43,12.74z"/>
		<path class="st209" d="M22.41,12.72c0.07-0.36,0.11-0.73,0.11-1.1c0-3.18-2.58-5.76-5.76-5.76c-3.18,0-5.76,2.58-5.76,5.76
			c0,0.38,0.04,0.75,0.11,1.1c0.3,2.19,2.53,3.83,5.65,11.59C19.68,16.81,22.11,14.91,22.41,12.72z"/>
		<path class="st210" d="M22.39,12.71c0.07-0.36,0.11-0.73,0.11-1.1c0-3.18-2.58-5.76-5.76-5.76c-3.18,0-5.76,2.58-5.76,5.76
			c0,0.38,0.04,0.75,0.11,1.1c0.3,2.19,2.53,3.83,5.65,11.59C19.66,16.79,22.09,14.9,22.39,12.71z"/>
		<path class="st211" d="M22.37,12.7c0.07-0.36,0.11-0.73,0.11-1.1c0-3.18-2.58-5.76-5.76-5.76c-3.18,0-5.76,2.58-5.76,5.76
			c0,0.38,0.04,0.75,0.11,1.1c0.3,2.19,2.53,3.83,5.65,11.59C19.63,16.78,22.07,14.89,22.37,12.7z"/>
		<path class="st211" d="M22.34,12.68c0.07-0.36,0.11-0.73,0.11-1.1c0-3.18-2.58-5.76-5.76-5.76c-3.18,0-5.76,2.58-5.76,5.76
			c0,0.38,0.04,0.75,0.11,1.1c0.3,2.19,2.53,3.83,5.65,11.59C19.61,16.77,22.04,14.87,22.34,12.68z"/>
		<path class="st212" d="M22.32,12.67c0.07-0.36,0.11-0.73,0.11-1.1c0-3.18-2.58-5.76-5.76-5.76c-3.18,0-5.76,2.58-5.76,5.76
			c0,0.38,0.04,0.75,0.11,1.1c0.3,2.19,2.53,3.83,5.65,11.59C19.59,16.75,22.02,14.86,22.32,12.67z"/>
		<path class="st213" d="M22.3,12.66c0.07-0.36,0.11-0.73,0.11-1.1c0-3.18-2.58-5.76-5.76-5.76c-3.18,0-5.76,2.58-5.76,5.76
			c0,0.38,0.04,0.75,0.11,1.1c0.3,2.19,2.53,3.83,5.65,11.59C19.57,16.74,22,14.85,22.3,12.66z"/>
		<path class="st214" d="M22.28,12.64c0.07-0.36,0.11-0.73,0.11-1.1c0-3.18-2.58-5.76-5.76-5.76c-3.18,0-5.76,2.58-5.76,5.76
			c0,0.38,0.04,0.75,0.11,1.1c0.3,2.19,2.53,3.83,5.65,11.59C19.54,16.73,21.98,14.83,22.28,12.64z"/>
		<path class="st215" d="M22.25,12.63c0.07-0.36,0.11-0.73,0.11-1.1c0-3.18-2.58-5.76-5.76-5.76c-3.18,0-5.76,2.58-5.76,5.76
			c0,0.38,0.04,0.75,0.11,1.1c0.3,2.19,2.53,3.83,5.65,11.59C19.52,16.71,21.96,14.82,22.25,12.63z"/>
		<path class="st216" d="M22.23,12.62c0.07-0.36,0.11-0.73,0.11-1.1c0-3.18-2.58-5.76-5.76-5.76c-3.18,0-5.76,2.58-5.76,5.76
			c0,0.38,0.04,0.75,0.11,1.1c0.3,2.19,2.53,3.83,5.65,11.59C19.5,16.7,21.93,14.81,22.23,12.62z"/>
		<path class="st217" d="M22.21,12.6c0.07-0.36,0.11-0.73,0.11-1.1c0-3.18-2.58-5.76-5.76-5.76c-3.18,0-5.76,2.58-5.76,5.76
			c0,0.38,0.04,0.75,0.11,1.1c0.3,2.19,2.53,3.83,5.65,11.59C19.48,16.69,21.91,14.79,22.21,12.6z"/>
		<path class="st218" d="M22.19,12.59c0.07-0.36,0.11-0.73,0.11-1.1c0-3.18-2.58-5.76-5.76-5.76c-3.18,0-5.76,2.58-5.76,5.76
			c0,0.38,0.04,0.75,0.11,1.1c0.3,2.19,2.53,3.83,5.65,11.59C19.46,16.67,21.89,14.78,22.19,12.59z"/>
		<path class="st219" d="M22.16,12.58c0.07-0.36,0.11-0.73,0.11-1.1c0-3.18-2.58-5.76-5.76-5.76c-3.18,0-5.76,2.58-5.76,5.76
			c0,0.38,0.04,0.75,0.11,1.1c0.3,2.19,2.53,3.83,5.65,11.59C19.43,16.66,21.87,14.77,22.16,12.58z"/>
		<path class="st219" d="M22.14,12.56c0.07-0.36,0.11-0.73,0.11-1.1c0-3.18-2.58-5.76-5.76-5.76c-3.18,0-5.76,2.58-5.76,5.76
			c0,0.38,0.04,0.75,0.11,1.1c0.3,2.19,2.53,3.83,5.65,11.59C19.41,16.65,21.84,14.75,22.14,12.56z"/>
		<path class="st220" d="M22.12,12.55c0.07-0.36,0.11-0.73,0.11-1.1c0-3.18-2.58-5.76-5.76-5.76c-3.18,0-5.76,2.58-5.76,5.76
			c0,0.38,0.04,0.75,0.11,1.1c0.3,2.19,2.53,3.83,5.65,11.59C19.39,16.63,21.82,14.74,22.12,12.55z"/>
		<path class="st221" d="M22.1,12.54c0.07-0.36,0.11-0.73,0.11-1.1c0-3.18-2.58-5.76-5.76-5.76c-3.18,0-5.76,2.58-5.76,5.76
			c0,0.38,0.04,0.75,0.11,1.1c0.3,2.19,2.53,3.83,5.65,11.59C19.37,16.62,21.8,14.73,22.1,12.54z"/>
		<path class="st222" d="M22.08,12.52c0.07-0.36,0.11-0.73,0.11-1.1c0-3.18-2.58-5.76-5.76-5.76c-3.18,0-5.76,2.58-5.76,5.76
			c0,0.38,0.04,0.75,0.11,1.1c0.3,2.19,2.53,3.83,5.65,11.59C19.34,16.61,21.78,14.71,22.08,12.52z"/>
		<path class="st223" d="M22.05,12.51c0.07-0.36,0.11-0.73,0.11-1.1c0-3.18-2.58-5.76-5.76-5.76c-3.18,0-5.76,2.58-5.76,5.76
			c0,0.38,0.04,0.75,0.11,1.1c0.3,2.19,2.53,3.83,5.65,11.59C19.32,16.59,21.76,14.7,22.05,12.51z"/>
		<path class="st224" d="M22.03,12.5c0.07-0.36,0.11-0.73,0.11-1.1c0-3.18-2.58-5.76-5.76-5.76c-3.18,0-5.76,2.58-5.76,5.76
			c0,0.38,0.04,0.75,0.11,1.1c0.3,2.19,2.53,3.83,5.65,11.59C19.3,16.58,21.73,14.69,22.03,12.5z"/>
		<path class="st225" d="M22.01,12.48c0.07-0.36,0.11-0.73,0.11-1.1c0-3.18-2.58-5.76-5.76-5.76c-3.18,0-5.76,2.58-5.76,5.76
			c0,0.38,0.04,0.75,0.11,1.1c0.3,2.19,2.53,3.83,5.65,11.59C19.28,16.57,21.71,14.67,22.01,12.48z"/>
		<path class="st226" d="M21.99,12.47c0.07-0.36,0.11-0.73,0.11-1.1c0-3.18-2.58-5.76-5.76-5.76c-3.18,0-5.76,2.58-5.76,5.76
			c0,0.38,0.04,0.75,0.11,1.1c0.3,2.19,2.53,3.83,5.65,11.59C19.26,16.55,21.69,14.66,21.99,12.47z"/>
		<path class="st227" d="M21.96,12.46c0.07-0.36,0.11-0.73,0.11-1.1c0-3.18-2.58-5.76-5.76-5.76c-3.18,0-5.76,2.58-5.76,5.76
			c0,0.38,0.04,0.75,0.11,1.1c0.3,2.19,2.53,3.83,5.65,11.59C19.23,16.54,21.67,14.64,21.96,12.46z"/>
		<path class="st228" d="M21.94,12.44c0.07-0.36,0.11-0.73,0.11-1.1c0-3.18-2.58-5.76-5.76-5.76c-3.18,0-5.76,2.58-5.76,5.76
			c0,0.38,0.04,0.75,0.11,1.1c0.3,2.19,2.53,3.83,5.65,11.59C19.21,16.53,21.64,14.63,21.94,12.44z"/>
		<path class="st229" d="M21.92,12.43c0.07-0.36,0.11-0.73,0.11-1.1c0-3.18-2.58-5.76-5.76-5.76c-3.18,0-5.76,2.58-5.76,5.76
			c0,0.38,0.04,0.75,0.11,1.1c0.3,2.19,2.53,3.83,5.65,11.59C19.19,16.51,21.62,14.62,21.92,12.43z"/>
		<path class="st230" d="M21.9,12.42c0.07-0.36,0.11-0.73,0.11-1.1c0-3.18-2.58-5.76-5.76-5.76c-3.18,0-5.76,2.58-5.76,5.76
			c0,0.38,0.04,0.75,0.11,1.1c0.3,2.19,2.53,3.83,5.65,11.59C19.17,16.5,21.6,14.6,21.9,12.42z"/>
		<path class="st231" d="M21.88,12.4c0.07-0.36,0.11-0.73,0.11-1.1c0-3.18-2.58-5.76-5.76-5.76c-3.18,0-5.76,2.58-5.76,5.76
			c0,0.38,0.04,0.75,0.11,1.1c0.3,2.19,2.53,3.83,5.65,11.59C19.14,16.49,21.58,14.59,21.88,12.4z"/>
		<path class="st232" d="M21.85,12.39c0.07-0.36,0.11-0.73,0.11-1.1c0-3.18-2.58-5.76-5.76-5.76c-3.18,0-5.76,2.58-5.76,5.76
			c0,0.38,0.04,0.75,0.11,1.1c0.3,2.19,2.53,3.83,5.65,11.59C19.12,16.47,21.55,14.58,21.85,12.39z"/>
		<path class="st233" d="M21.83,12.38c0.07-0.36,0.11-0.73,0.11-1.1c0-3.18-2.58-5.76-5.76-5.76c-3.18,0-5.76,2.58-5.76,5.76
			c0,0.38,0.04,0.75,0.11,1.1c0.3,2.19,2.53,3.83,5.65,11.59C19.1,16.46,21.53,14.56,21.83,12.38z"/>
		<path class="st234" d="M21.81,12.36c0.07-0.36,0.11-0.73,0.11-1.1c0-3.18-2.58-5.76-5.76-5.76c-3.18,0-5.76,2.58-5.76,5.76
			c0,0.38,0.04,0.75,0.11,1.1c0.3,2.19,2.53,3.83,5.65,11.59C19.08,16.45,21.51,14.55,21.81,12.36z"/>
		<path class="st234" d="M21.79,12.35c0.07-0.36,0.11-0.73,0.11-1.1c0-3.18-2.58-5.76-5.76-5.76c-3.18,0-5.76,2.58-5.76,5.76
			c0,0.38,0.04,0.75,0.11,1.1c0.3,2.19,2.53,3.83,5.65,11.59C19.05,16.43,21.49,14.54,21.79,12.35z"/>
		<path class="st235" d="M21.76,12.34c0.07-0.36,0.11-0.73,0.11-1.1c0-3.18-2.58-5.76-5.76-5.76c-3.18,0-5.76,2.58-5.76,5.76
			c0,0.38,0.04,0.75,0.11,1.1c0.3,2.19,2.53,3.83,5.65,11.59C19.03,16.42,21.47,14.52,21.76,12.34z"/>
		<path class="st235" d="M21.74,12.32c0.07-0.36,0.11-0.73,0.11-1.1c0-3.18-2.58-5.76-5.76-5.76c-3.18,0-5.76,2.58-5.76,5.76
			c0,0.38,0.04,0.75,0.11,1.1c0.3,2.19,2.53,3.83,5.65,11.59C19.01,16.41,21.44,14.51,21.74,12.32z"/>
		<path class="st236" d="M21.72,12.31c0.07-0.36,0.11-0.73,0.11-1.1c0-3.18-2.58-5.76-5.76-5.76c-3.18,0-5.76,2.58-5.76,5.76
			c0,0.38,0.04,0.75,0.11,1.1c0.3,2.19,2.53,3.83,5.65,11.59C18.99,16.39,21.42,14.5,21.72,12.31z"/>
		<path class="st236" d="M21.7,12.3c0.07-0.36,0.11-0.73,0.11-1.1c0-3.18-2.58-5.76-5.76-5.76c-3.18,0-5.76,2.58-5.76,5.76
			c0,0.38,0.04,0.75,0.11,1.1c0.3,2.19,2.53,3.83,5.65,11.59C18.97,16.38,21.4,14.48,21.7,12.3z"/>
		<path class="st237" d="M21.67,12.28c0.07-0.36,0.11-0.73,0.11-1.1c0-3.18-2.58-5.76-5.76-5.76c-3.18,0-5.76,2.58-5.76,5.76
			c0,0.38,0.04,0.75,0.11,1.1c0.3,2.19,2.53,3.83,5.65,11.59C18.94,16.37,21.38,14.47,21.67,12.28z"/>
		<path class="st238" d="M21.65,12.27c0.07-0.36,0.11-0.73,0.11-1.1c0-3.18-2.58-5.76-5.76-5.76c-3.18,0-5.76,2.58-5.76,5.76
			c0,0.38,0.04,0.75,0.11,1.1c0.3,2.19,2.53,3.83,5.65,11.59C18.92,16.35,21.35,14.46,21.65,12.27z"/>
		<path class="st239" d="M21.63,12.26c0.07-0.36,0.11-0.73,0.11-1.1c0-3.18-2.58-5.76-5.76-5.76c-3.18,0-5.76,2.58-5.76,5.76
			c0,0.38,0.04,0.75,0.11,1.1c0.3,2.19,2.53,3.83,5.65,11.59C18.9,16.34,21.33,14.44,21.63,12.26z"/>
		<path class="st240" d="M21.61,12.24c0.07-0.36,0.11-0.73,0.11-1.1c0-3.18-2.58-5.76-5.76-5.76c-3.18,0-5.76,2.58-5.76,5.76
			c0,0.38,0.04,0.75,0.11,1.1c0.3,2.19,2.53,3.83,5.65,11.59C18.88,16.32,21.31,14.43,21.61,12.24z"/>
		<path class="st241" d="M21.59,12.23c0.07-0.36,0.11-0.73,0.11-1.1c0-3.18-2.58-5.76-5.76-5.76c-3.18,0-5.76,2.58-5.76,5.76
			c0,0.38,0.04,0.75,0.11,1.1c0.3,2.19,2.53,3.83,5.65,11.59C18.85,16.31,21.29,14.42,21.59,12.23z"/>
		<path class="st242" d="M21.56,12.22c0.07-0.36,0.11-0.73,0.11-1.1c0-3.18-2.58-5.76-5.76-5.76c-3.18,0-5.76,2.58-5.76,5.76
			c0,0.38,0.04,0.75,0.11,1.1c0.3,2.19,2.53,3.83,5.65,11.59C18.83,16.3,21.26,14.4,21.56,12.22z"/>
		<path class="st243" d="M21.54,12.2c0.07-0.36,0.11-0.73,0.11-1.1c0-3.18-2.58-5.76-5.76-5.76c-3.18,0-5.76,2.58-5.76,5.76
			c0,0.38,0.04,0.75,0.11,1.1c0.3,2.19,2.53,3.83,5.65,11.59C18.81,16.28,21.24,14.39,21.54,12.2z"/>
		<path class="st244" d="M21.52,12.19c0.07-0.36,0.11-0.73,0.11-1.1c0-3.18-2.58-5.76-5.76-5.76c-3.18,0-5.76,2.58-5.76,5.76
			c0,0.38,0.04,0.75,0.11,1.1c0.3,2.19,2.53,3.83,5.65,11.59C18.79,16.27,21.22,14.38,21.52,12.19z"/>
		<path class="st245" d="M21.5,12.18c0.07-0.36,0.11-0.73,0.11-1.1c0-3.18-2.58-5.76-5.76-5.76c-3.18,0-5.76,2.58-5.76,5.76
			c0,0.38,0.04,0.75,0.11,1.1c0.3,2.19,2.53,3.83,5.65,11.59C18.76,16.26,21.2,14.36,21.5,12.18z"/>
		<path class="st246" d="M21.47,12.16c0.07-0.36,0.11-0.73,0.11-1.1c0-3.18-2.58-5.76-5.76-5.76c-3.18,0-5.76,2.58-5.76,5.76
			c0,0.38,0.04,0.75,0.11,1.1c0.3,2.19,2.53,3.83,5.65,11.59C18.74,16.24,21.18,14.35,21.47,12.16z"/>
		<path class="st247" d="M21.45,12.15c0.07-0.36,0.11-0.73,0.11-1.1c0-3.18-2.58-5.76-5.76-5.76c-3.18,0-5.76,2.58-5.76,5.76
			c0,0.38,0.04,0.75,0.11,1.1c0.3,2.19,2.53,3.83,5.65,11.59C18.72,16.23,21.15,14.34,21.45,12.15z"/>
		<path class="st248" d="M21.43,12.14c0.07-0.36,0.11-0.73,0.11-1.1c0-3.18-2.58-5.76-5.76-5.76c-3.18,0-5.76,2.58-5.76,5.76
			c0,0.38,0.04,0.75,0.11,1.1c0.3,2.19,2.53,3.83,5.65,11.59C18.7,16.22,21.13,14.32,21.43,12.14z"/>
		<path class="st249" d="M21.41,12.12c0.07-0.36,0.11-0.73,0.11-1.1c0-3.18-2.58-5.76-5.76-5.76c-3.18,0-5.76,2.58-5.76,5.76
			c0,0.38,0.04,0.75,0.11,1.1c0.3,2.19,2.53,3.83,5.65,11.59C18.68,16.2,21.11,14.31,21.41,12.12z"/>
		<path class="st250" d="M21.38,12.11c0.07-0.36,0.11-0.73,0.11-1.1c0-3.18-2.58-5.76-5.76-5.76c-3.18,0-5.76,2.58-5.76,5.76
			c0,0.38,0.04,0.75,0.11,1.1c0.3,2.19,2.53,3.83,5.65,11.59C18.65,16.19,21.09,14.3,21.38,12.11z"/>
		<path class="st251" d="M21.36,12.1c0.07-0.36,0.11-0.73,0.11-1.1c0-3.18-2.58-5.76-5.76-5.76c-3.18,0-5.76,2.58-5.76,5.76
			c0,0.38,0.04,0.75,0.11,1.1c0.3,2.19,2.53,3.83,5.65,11.59C18.63,16.18,21.06,14.28,21.36,12.1z"/>
		<path class="st252" d="M21.34,12.08c0.07-0.36,0.11-0.73,0.11-1.1c0-3.18-2.58-5.76-5.76-5.76c-3.18,0-5.76,2.58-5.76,5.76
			c0,0.38,0.04,0.75,0.11,1.1c0.3,2.19,2.53,3.83,5.65,11.59C18.61,16.16,21.04,14.27,21.34,12.08z"/>
		<path class="st253" d="M21.32,12.07c0.07-0.36,0.11-0.73,0.11-1.1c0-3.18-2.58-5.76-5.76-5.76c-3.18,0-5.76,2.58-5.76,5.76
			c0,0.38,0.04,0.75,0.11,1.1c0.3,2.19,2.53,3.83,5.65,11.59C18.59,16.15,21.02,14.26,21.32,12.07z"/>
		<path class="st254" d="M21.3,12.06c0.07-0.36,0.11-0.73,0.11-1.1c0-3.18-2.58-5.76-5.76-5.76c-3.18,0-5.76,2.58-5.76,5.76
			c0,0.38,0.04,0.75,0.11,1.1c0.3,2.19,2.53,3.83,5.65,11.59C18.56,16.14,21,14.24,21.3,12.06z"/>
		<path class="st255" d="M21.27,12.04c0.07-0.36,0.11-0.73,0.11-1.1c0-3.18-2.58-5.76-5.76-5.76c-3.18,0-5.76,2.58-5.76,5.76
			c0,0.38,0.04,0.75,0.11,1.1c0.3,2.19,2.53,3.83,5.65,11.59C18.54,16.12,20.97,14.23,21.27,12.04z"/>
		<path class="st256" d="M21.25,12.03c0.07-0.36,0.11-0.73,0.11-1.1c0-3.18-2.58-5.76-5.76-5.76c-3.18,0-5.76,2.58-5.76,5.76
			c0,0.38,0.04,0.75,0.11,1.1c0.3,2.19,2.53,3.83,5.65,11.59C18.52,16.11,20.95,14.22,21.25,12.03z"/>
		<path class="st256" d="M21.23,12.01c0.07-0.36,0.11-0.73,0.11-1.1c0-3.18-2.58-5.76-5.76-5.76c-3.18,0-5.76,2.58-5.76,5.76
			c0,0.38,0.04,0.75,0.11,1.1c0.3,2.19,2.53,3.83,5.65,11.59C18.5,16.1,20.93,14.2,21.23,12.01z"/>
		<path class="st257" d="M21.21,12c0.07-0.36,0.11-0.73,0.11-1.1c0-3.18-2.58-5.76-5.76-5.76c-3.18,0-5.76,2.58-5.76,5.76
			c0,0.38,0.04,0.75,0.11,1.1c0.3,2.19,2.53,3.83,5.65,11.59C18.47,16.08,20.91,14.19,21.21,12z"/>
		<path class="st257" d="M21.18,11.99c0.07-0.36,0.11-0.73,0.11-1.1c0-3.18-2.58-5.76-5.76-5.76c-3.18,0-5.76,2.58-5.76,5.76
			c0,0.38,0.04,0.75,0.11,1.1c0.3,2.19,2.53,3.83,5.65,11.59C18.45,16.07,20.89,14.18,21.18,11.99z"/>
		<path class="st258" d="M21.16,11.97c0.07-0.36,0.11-0.73,0.11-1.1c0-3.18-2.58-5.76-5.76-5.76c-3.18,0-5.76,2.58-5.76,5.76
			c0,0.38,0.04,0.75,0.11,1.1c0.3,2.19,2.53,3.83,5.65,11.59C18.43,16.06,20.86,14.16,21.16,11.97z"/>
		<path class="st259" d="M21.14,11.96c0.07-0.36,0.11-0.73,0.11-1.1c0-3.18-2.58-5.76-5.76-5.76c-3.18,0-5.76,2.58-5.76,5.76
			c0,0.38,0.04,0.75,0.11,1.1c0.3,2.19,2.53,3.83,5.65,11.59C18.41,16.04,20.84,14.15,21.14,11.96z"/>
		<path class="st260" d="M21.12,11.95c0.07-0.36,0.11-0.73,0.11-1.1c0-3.18-2.58-5.76-5.76-5.76c-3.18,0-5.76,2.58-5.76,5.76
			c0,0.38,0.04,0.75,0.11,1.1c0.3,2.19,2.53,3.83,5.65,11.59C18.39,16.03,20.82,14.14,21.12,11.95z"/>
		<path class="st261" d="M21.09,11.93c0.07-0.36,0.11-0.73,0.11-1.1c0-3.18-2.58-5.76-5.76-5.76c-3.18,0-5.76,2.58-5.76,5.76
			c0,0.38,0.04,0.75,0.11,1.1c0.3,2.19,2.53,3.83,5.65,11.59C18.36,16.02,20.8,14.12,21.09,11.93z"/>
		<path class="st262" d="M21.07,11.92c0.07-0.36,0.11-0.73,0.11-1.1c0-3.18-2.58-5.76-5.76-5.76c-3.18,0-5.76,2.58-5.76,5.76
			c0,0.38,0.04,0.75,0.11,1.1c0.3,2.19,2.53,3.83,5.65,11.59C18.34,16,20.77,14.11,21.07,11.92z"/>
		<path class="st263" d="M21.05,11.91c0.07-0.36,0.11-0.73,0.11-1.1c0-3.18-2.58-5.76-5.76-5.76c-3.18,0-5.76,2.58-5.76,5.76
			c0,0.38,0.04,0.75,0.11,1.1c0.3,2.19,2.53,3.83,5.65,11.59C18.32,15.99,20.75,14.1,21.05,11.91z"/>
		<path class="st264" d="M21.03,11.89c0.07-0.36,0.11-0.73,0.11-1.1c0-3.18-2.58-5.76-5.76-5.76c-3.18,0-5.76,2.58-5.76,5.76
			c0,0.38,0.04,0.75,0.11,1.1c0.3,2.19,2.53,3.83,5.65,11.59C18.3,15.98,20.73,14.08,21.03,11.89z"/>
		<path class="st264" d="M21.01,11.88c0.07-0.36,0.11-0.73,0.11-1.1c0-3.18-2.58-5.76-5.76-5.76c-3.18,0-5.76,2.58-5.76,5.76
			c0,0.38,0.04,0.75,0.11,1.1c0.3,2.19,2.53,3.83,5.65,11.59C18.27,15.96,20.71,14.07,21.01,11.88z"/>
		<path class="st265" d="M20.98,11.87c0.07-0.36,0.11-0.73,0.11-1.1c0-3.18-2.58-5.76-5.76-5.76c-3.18,0-5.76,2.58-5.76,5.76
			c0,0.38,0.04,0.75,0.11,1.1c0.3,2.19,2.53,3.83,5.65,11.59C18.25,15.95,20.68,14.06,20.98,11.87z"/>
		<path class="st265" d="M20.96,11.85c0.07-0.36,0.11-0.73,0.11-1.1c0-3.18-2.58-5.76-5.76-5.76c-3.18,0-5.76,2.58-5.76,5.76
			c0,0.38,0.04,0.75,0.11,1.1c0.3,2.19,2.53,3.83,5.65,11.59C18.23,15.94,20.66,14.04,20.96,11.85z"/>
		<path class="st266" d="M20.94,11.84c0.07-0.36,0.11-0.73,0.11-1.1c0-3.18-2.58-5.76-5.76-5.76c-3.18,0-5.76,2.58-5.76,5.76
			c0,0.38,0.04,0.75,0.11,1.1c0.3,2.19,2.53,3.83,5.65,11.59C18.21,15.92,20.64,14.03,20.94,11.84z"/>
		<path class="st267" d="M20.92,11.83c0.07-0.36,0.11-0.73,0.11-1.1c0-3.18-2.58-5.76-5.76-5.76c-3.18,0-5.76,2.58-5.76,5.76
			c0,0.38,0.04,0.75,0.11,1.1c0.3,2.19,2.53,3.83,5.65,11.59C18.18,15.91,20.62,14.02,20.92,11.83z"/>
		<path class="st268" d="M20.89,11.81c0.07-0.36,0.11-0.73,0.11-1.1c0-3.18-2.58-5.76-5.76-5.76c-3.18,0-5.76,2.58-5.76,5.76
			c0,0.38,0.04,0.75,0.11,1.1c0.3,2.19,2.53,3.83,5.65,11.59C18.16,15.9,20.6,14,20.89,11.81z"/>
		<path class="st269" d="M20.87,11.8c0.07-0.36,0.11-0.73,0.11-1.1c0-3.18-2.58-5.76-5.76-5.76c-3.18,0-5.76,2.58-5.76,5.76
			c0,0.38,0.04,0.75,0.11,1.1c0.3,2.19,2.53,3.83,5.65,11.59C18.14,15.88,20.57,13.99,20.87,11.8z"/>
		<path class="st270" d="M20.85,11.79c0.07-0.36,0.11-0.73,0.11-1.1c0-3.18-2.58-5.76-5.76-5.76c-3.18,0-5.76,2.58-5.76,5.76
			c0,0.38,0.04,0.75,0.11,1.1c0.3,2.19,2.53,3.83,5.65,11.59C18.12,15.87,20.55,13.98,20.85,11.79z"/>
		<path class="st271" d="M20.83,11.77c0.07-0.36,0.11-0.73,0.11-1.1c0-3.18-2.58-5.76-5.76-5.76c-3.18,0-5.76,2.58-5.76,5.76
			c0,0.38,0.04,0.75,0.11,1.1c0.3,2.19,2.53,3.83,5.65,11.59C18.1,15.86,20.53,13.96,20.83,11.77z"/>
		<path class="st272" d="M20.8,11.76c0.07-0.36,0.11-0.73,0.11-1.1c0-3.18-2.58-5.76-5.76-5.76c-3.18,0-5.76,2.58-5.76,5.76
			c0,0.38,0.04,0.75,0.11,1.1c0.3,2.19,2.53,3.83,5.65,11.59C18.07,15.84,20.51,13.95,20.8,11.76z"/>
		<path class="st273" d="M20.78,11.75c0.07-0.36,0.11-0.73,0.11-1.1c0-3.18-2.58-5.76-5.76-5.76c-3.18,0-5.76,2.58-5.76,5.76
			c0,0.38,0.04,0.75,0.11,1.1c0.3,2.19,2.53,3.83,5.65,11.59C18.05,15.83,20.48,13.94,20.78,11.75z"/>
		<path class="st274" d="M20.76,11.73c0.07-0.36,0.11-0.73,0.11-1.1c0-3.18-2.58-5.76-5.76-5.76c-3.18,0-5.76,2.58-5.76,5.76
			c0,0.38,0.04,0.75,0.11,1.1c0.3,2.19,2.53,3.83,5.65,11.59C18.03,15.82,20.46,13.92,20.76,11.73z"/>
		<path class="st274" d="M20.74,11.72c0.07-0.36,0.11-0.73,0.11-1.1c0-3.18-2.58-5.76-5.76-5.76c-3.18,0-5.76,2.58-5.76,5.76
			c0,0.38,0.04,0.75,0.11,1.1c0.3,2.19,2.53,3.83,5.65,11.59C18.01,15.8,20.44,13.91,20.74,11.72z"/>
		<path class="st275" d="M20.72,11.71c0.07-0.36,0.11-0.73,0.11-1.1c0-3.18-2.58-5.76-5.76-5.76c-3.18,0-5.76,2.58-5.76,5.76
			c0,0.38,0.04,0.75,0.11,1.1c0.3,2.19,2.53,3.83,5.65,11.59C17.98,15.79,20.42,13.9,20.72,11.71z"/>
		<path class="st275" d="M20.69,11.69c0.07-0.36,0.11-0.73,0.11-1.1c0-3.18-2.58-5.76-5.76-5.76c-3.18,0-5.76,2.58-5.76,5.76
			c0,0.38,0.04,0.75,0.11,1.1c0.3,2.19,2.53,3.83,5.65,11.59C17.96,15.78,20.4,13.88,20.69,11.69z"/>
		<path class="st276" d="M20.67,11.68c0.07-0.36,0.11-0.73,0.11-1.1c0-3.18-2.58-5.76-5.76-5.76c-3.18,0-5.76,2.58-5.76,5.76
			c0,0.38,0.04,0.75,0.11,1.1c0.3,2.19,2.53,3.83,5.65,11.59C17.94,15.76,20.37,13.87,20.67,11.68z"/>
		<path class="st276" d="M20.65,11.67c0.07-0.36,0.11-0.73,0.11-1.1c0-3.18-2.58-5.76-5.76-5.76c-3.18,0-5.76,2.58-5.76,5.76
			c0,0.38,0.04,0.75,0.11,1.1c0.3,2.19,2.53,3.83,5.65,11.59C17.92,15.75,20.35,13.86,20.65,11.67z"/>
		<path class="st277" d="M20.63,11.65c0.07-0.36,0.11-0.73,0.11-1.1c0-3.18-2.58-5.76-5.76-5.76c-3.18,0-5.76,2.58-5.76,5.76
			c0,0.38,0.04,0.75,0.11,1.1c0.3,2.19,2.53,3.83,5.65,11.59C17.9,15.74,20.33,13.84,20.63,11.65z"/>
		<path class="st278" d="M20.6,11.64c0.07-0.36,0.11-0.73,0.11-1.1c0-3.18-2.58-5.76-5.76-5.76c-3.18,0-5.76,2.58-5.76,5.76
			c0,0.38,0.04,0.75,0.11,1.1c0.3,2.19,2.53,3.83,5.65,11.59C17.87,15.72,20.31,13.83,20.6,11.64z"/>
		<path class="st279" d="M20.58,11.63c0.07-0.36,0.11-0.73,0.11-1.1c0-3.18-2.58-5.76-5.76-5.76c-3.18,0-5.76,2.58-5.76,5.76
			c0,0.38,0.04,0.75,0.11,1.1c0.3,2.19,2.53,3.83,5.65,11.59C17.85,15.71,20.28,13.82,20.58,11.63z"/>
		<path class="st280" d="M20.56,11.61c0.07-0.36,0.11-0.73,0.11-1.1c0-3.18-2.58-5.76-5.76-5.76c-3.18,0-5.76,2.58-5.76,5.76
			c0,0.38,0.04,0.75,0.11,1.1c0.3,2.19,2.53,3.83,5.65,11.59C17.83,15.7,20.26,13.8,20.56,11.61z"/>
		<path class="st281" d="M20.54,11.6c0.07-0.36,0.11-0.73,0.11-1.1c0-3.18-2.58-5.76-5.76-5.76c-3.18,0-5.76,2.58-5.76,5.76
			c0,0.38,0.04,0.75,0.11,1.1c0.3,2.19,2.53,3.83,5.65,11.59C17.81,15.68,20.24,13.79,20.54,11.6z"/>
		<path class="st282" d="M20.52,11.59c0.07-0.36,0.11-0.73,0.11-1.1c0-3.18-2.58-5.76-5.76-5.76c-3.18,0-5.76,2.58-5.76,5.76
			c0,0.38,0.04,0.75,0.11,1.1c0.3,2.19,2.53,3.83,5.65,11.59C17.78,15.67,20.22,13.78,20.52,11.59z"/>
		<path class="st282" d="M20.49,11.57c0.07-0.36,0.11-0.73,0.11-1.1c0-3.18-2.58-5.76-5.76-5.76c-3.18,0-5.76,2.58-5.76,5.76
			c0,0.38,0.04,0.75,0.11,1.1c0.3,2.19,2.53,3.83,5.65,11.59C17.76,15.66,20.19,13.76,20.49,11.57z"/>
		<path class="st283" d="M20.47,11.56c0.07-0.36,0.11-0.73,0.11-1.1c0-3.18-2.58-5.76-5.76-5.76c-3.18,0-5.76,2.58-5.76,5.76
			c0,0.38,0.04,0.75,0.11,1.1c0.3,2.19,2.53,3.83,5.65,11.59C17.74,15.64,20.17,13.75,20.47,11.56z"/>
		<path class="st284" d="M20.45,11.55c0.07-0.36,0.11-0.73,0.11-1.1c0-3.18-2.58-5.76-5.76-5.76c-3.18,0-5.76,2.58-5.76,5.76
			c0,0.38,0.04,0.75,0.11,1.1c0.3,2.19,2.53,3.83,5.65,11.59C17.72,15.63,20.15,13.74,20.45,11.55z"/>
		<path class="st285" d="M20.43,11.53c0.07-0.36,0.11-0.73,0.11-1.1c0-3.18-2.58-5.76-5.76-5.76c-3.18,0-5.76,2.58-5.76,5.76
			c0,0.38,0.04,0.75,0.11,1.1c0.3,2.19,2.53,3.83,5.65,11.59C17.69,15.62,20.13,13.72,20.43,11.53z"/>
		<path class="st286" d="M20.4,11.52c0.07-0.36,0.11-0.73,0.11-1.1c0-3.18-2.58-5.76-5.76-5.76c-3.18,0-5.76,2.58-5.76,5.76
			c0,0.38,0.04,0.75,0.11,1.1c0.3,2.19,2.53,3.83,5.65,11.59C17.67,15.6,20.11,13.71,20.4,11.52z"/>
		<path class="st287" d="M20.38,11.51c0.07-0.36,0.11-0.73,0.11-1.1c0-3.18-2.58-5.76-5.76-5.76c-3.18,0-5.76,2.58-5.76,5.76
			c0,0.38,0.04,0.75,0.11,1.1c0.3,2.19,2.53,3.83,5.65,11.59C17.65,15.59,20.08,13.7,20.38,11.51z"/>
		<path class="st288" d="M20.36,11.49c0.07-0.36,0.11-0.73,0.11-1.1c0-3.18-2.58-5.76-5.76-5.76c-3.18,0-5.76,2.58-5.76,5.76
			c0,0.38,0.04,0.75,0.11,1.1c0.3,2.19,2.53,3.83,5.65,11.59C17.63,15.58,20.06,13.68,20.36,11.49z"/>
	</g>
	<g>
		<path class="st289" d="M20.36,11.49c0.07-0.36,0.11-0.73,0.11-1.1c0-3.18-2.58-5.76-5.76-5.76c-3.18,0-5.76,2.58-5.76,5.76
			c0,0.38,0.04,0.75,0.11,1.1c0.3,2.19,2.53,3.83,5.65,11.59C17.63,15.58,20.06,13.68,20.36,11.49z"/>
		<path class="st290" d="M19.47,10.39c0,2.63-2.13,4.76-4.76,4.76s-4.76-2.13-4.76-4.76c0-2.63,2.13-4.76,4.76-4.76
			S19.47,7.76,19.47,10.39z"/>
		<path class="st291" d="M14.71,15.15c-2.63,0-4.76-2.13-4.76-4.76c0-2.63,2.13-4.76,4.76-4.76"/>
		<linearGradient id="SVGID_1_" gradientUnits="userSpaceOnUse" x1="11.919" y1="13.1775" x2="17.4973" y2="7.5992">
			<stop  offset="0" style="stop-color:#D9DAD8"/>
			<stop  offset="0.129" style="stop-color:#E6E6E5"/>
			<stop  offset="0.3434" style="stop-color:#F4F4F4"/>
			<stop  offset="0.599" style="stop-color:#FCFCFC"/>
			<stop  offset="1" style="stop-color:#FFFFFF"/>
		</linearGradient>
		<path class="st292" d="M18.65,10.39c0,2.18-1.77,3.94-3.94,3.94c-2.18,0-3.94-1.77-3.94-3.94c0-2.18,1.77-3.94,3.94-3.94
			C16.89,6.44,18.65,8.21,18.65,10.39z"/>
	</g>
</g>
</svg>
