<?xml version="1.0" encoding="utf-8"?>
<!-- Generator: Adobe Illustrator 23.0.1, SVG Export Plug-In . SVG Version: 6.00 Build 0)  -->
<svg version="1.1" id="レイヤー_1" xmlns="http://www.w3.org/2000/svg" xmlns:xlink="http://www.w3.org/1999/xlink" x="0px"
	 y="0px" viewBox="0 0 31.35 27.78" style="enable-background:new 0 0 31.35 27.78;" xml:space="preserve">
<style type="text/css">
	.st0{opacity:0.1;}
	.st1{fill:#EEEEEC;}
	.st2{fill:#EDEDEB;}
	.st3{fill:#ECECEA;}
	.st4{fill:#ECEBE9;}
	.st5{fill:#EBEAE8;}
	.st6{fill:#EAE9E7;}
	.st7{fill:#E9E8E6;}
	.st8{fill:#E8E7E5;}
	.st9{fill:#E7E6E4;}
	.st10{fill:#E6E5E3;}
	.st11{fill:#E5E4E2;}
	.st12{fill:#E4E3E1;}
	.st13{fill:#E4E2E0;}
	.st14{fill:#E3E1DF;}
	.st15{fill:#E2E0DE;}
	.st16{fill:#E1DFDD;}
	.st17{fill:#E0DEDC;}
	.st18{fill:#DFDDDB;}
	.st19{fill:#DEDCDA;}
	.st20{fill:#DDDBD9;}
	.st21{fill:#DCDAD8;}
	.st22{fill:#DBD9D7;}
	.st23{fill:#DAD8D6;}
	.st24{fill:#D9D7D5;}
	.st25{fill:#D9D6D3;}
	.st26{fill:#D8D5D2;}
	.st27{fill:#D7D4D1;}
	.st28{fill:#D6D3D0;}
	.st29{fill:#D5D2CF;}
	.st30{fill:#D4D1CE;}
	.st31{fill:#D3D0CD;}
	.st32{fill:#D2CFCC;}
	.st33{fill:#D1CECB;}
	.st34{fill:#D0CDCA;}
	.st35{fill:#CFCCC9;}
	.st36{fill:#CECBC8;}
	.st37{fill:#CECAC7;}
	.st38{fill:#CDC9C6;}
	.st39{fill:#CCC8C5;}
	.st40{fill:#CBC7C4;}
	.st41{fill:#CAC6C3;}
	.st42{fill:#C9C5C2;}
	.st43{fill:#C8C4C1;}
	.st44{fill:#C7C4C0;}
	.st45{fill:#C7C3BF;}
	.st46{fill:#C6C2BE;}
	.st47{fill:#C5C1BD;}
	.st48{fill:#C4C0BC;}
	.st49{fill:#C3BFBC;}
	.st50{fill:#C2BEBB;}
	.st51{fill:#C1BDBA;}
	.st52{fill:#C0BCB9;}
	.st53{fill:#C0BBB8;}
	.st54{fill:#BFBAB7;}
	.st55{fill:#BEB9B6;}
	.st56{fill:#BDB8B5;}
	.st57{fill:#BCB7B4;}
	.st58{fill:#BBB6B3;}
	.st59{fill:#BAB5B2;}
	.st60{fill:#BAB4B1;}
	.st61{fill:#B9B4B0;}
	.st62{fill:#B8B3AF;}
	.st63{fill:#B7B2AE;}
	.st64{fill:#B6B1AD;}
	.st65{fill:#B5B0AC;}
	.st66{fill:#B5AFAB;}
	.st67{fill:#B4AEAA;}
	.st68{fill:#B3ADAA;}
	.st69{fill:#B2ACA9;}
	.st70{fill:#B1ABA8;}
	.st71{fill:#B0AAA7;}
	.st72{fill:#B0AAA6;}
	.st73{fill:#AFA9A5;}
	.st74{fill:#AEA8A4;}
	.st75{fill:#ADA7A3;}
	.st76{fill:#ACA6A2;}
	.st77{fill:#ABA5A1;}
	.st78{fill:#ABA4A0;}
	.st79{fill:#AAA3A0;}
	.st80{fill:#A9A29F;}
	.st81{fill:#A8A29E;}
	.st82{fill:#A7A19D;}
	.st83{fill:#A6A09C;}
	.st84{fill:#A69F9B;}
	.st85{fill:#A59E9A;}
	.st86{fill:#A49D99;}
	.st87{fill:#A39C98;}
	.st88{fill:#A29B98;}
	.st89{fill:#A19B97;}
	.st90{fill:#A19A96;}
	.st91{fill:#A09995;}
	.st92{fill:#9F9894;}
	.st93{fill:#9E9793;}
	.st94{fill:#9D9692;}
	.st95{fill:#9D9591;}
	.st96{fill:#9C9591;}
	.st97{fill:#9B9490;}
	.st98{fill:#9A938F;}
	.st99{fill:#99928E;}
	.st100{fill:#99918D;}
	.st101{fill:#98908C;}
	.st102{fill:#97908B;}
	.st103{fill:#968F8B;}
	.st104{fill:#958E8A;}
	.st105{fill:#958D89;}
	.st106{fill:#948C88;}
	.st107{fill:#938B87;}
	.st108{fill:#928B86;}
	.st109{fill:#928A86;}
	.st110{fill:#918985;}
	.st111{fill:#908884;}
	.st112{fill:#8F8783;}
	.st113{fill:#8E8682;}
	.st114{fill:#8E8681;}
	.st115{fill:#8D8581;}
	.st116{fill:#8C8480;}
	.st117{fill:#8B837F;}
	.st118{fill:#8B827E;}
	.st119{fill:#8A827D;}
	.st120{fill:#89817D;}
	.st121{fill:#88807C;}
	.st122{fill:#887F7B;}
	.st123{fill:#877E7A;}
	.st124{fill:#867E79;}
	.st125{fill:#857D79;}
	.st126{fill:#847C78;}
	.st127{fill:#847B77;}
	.st128{fill:#837A76;}
	.st129{fill:#827A75;}
	.st130{fill:#817975;}
	.st131{fill:#817874;}
	.st132{fill:#807773;}
	.st133{fill:#7F7772;}
	.st134{fill:#7E7672;}
	.st135{fill:#7E7571;}
	.st136{fill:#7D7470;}
	.st137{fill:#7C746F;}
	.st138{fill:#7B736F;}
	.st139{fill:#7A726E;}
	.st140{fill:#7A716D;}
	.st141{fill:#79706C;}
	.st142{fill:#78706C;}
	.st143{fill:#776F6B;}
	.st144{fill:#776E6A;}
	.st145{fill:#766D69;}
	.st146{fill:#756D69;}
	.st147{fill:#756C68;}
	.st148{fill:#746B67;}
	.st149{fill:#736B67;}
	.st150{fill:#726A66;}
	.st151{fill:#726965;}
	.st152{fill:#716865;}
	.st153{fill:#706864;}
	.st154{fill:#6F6763;}
	.st155{fill:#6F6662;}
	.st156{fill:#6E6662;}
	.st157{fill:#6D6561;}
	.st158{fill:#6D6460;}
	.st159{fill:#6C6360;}
	.st160{fill:#6B635F;}
	.st161{fill:#6B625E;}
	.st162{fill:#6A615E;}
	.st163{fill:#69615D;}
	.st164{fill:#68605C;}
	.st165{fill:#685F5C;}
	.st166{fill:#675E5B;}
	.st167{fill:#665E5A;}
	.st168{fill:#665D5A;}
	.st169{fill:#655C59;}
	.st170{fill:#645C58;}
	.st171{fill:#635B58;}
	.st172{fill:#635A57;}
	.st173{fill:#625A56;}
	.st174{fill:#615956;}
	.st175{fill:#615855;}
	.st176{fill:#605855;}
	.st177{fill:#5F5754;}
	.st178{fill:#5E5653;}
	.st179{fill:#5D5552;}
	.st180{fill:#5C5551;}
	.st181{fill:#5C5451;}
	.st182{fill:#5B5350;}
	.st183{fill:#5A5350;}
	.st184{fill:#5A524F;}
	.st185{fill:#59514E;}
	.st186{fill:#58514E;}
	.st187{fill:#58504D;}
	.st188{fill:#574F4C;}
	.st189{fill:#564F4C;}
	.st190{fill:#564E4B;}
	.st191{fill:#554D4B;}
	.st192{fill:#544D4A;}
	.st193{fill:#544C49;}
	.st194{fill:#534C49;}
	.st195{fill:#524B48;}
	.st196{fill:#524A48;}
	.st197{fill:#514A47;}
	.st198{fill:#504947;}
	.st199{fill:#504946;}
	.st200{fill:#4F4845;}
	.st201{fill:#4F4745;}
	.st202{fill:#4E4744;}
	.st203{fill:#4D4644;}
	.st204{fill:#4D4543;}
	.st205{fill:#4C4543;}
	.st206{fill:#4B4442;}
	.st207{fill:#4B4441;}
	.st208{fill:#4A4341;}
	.st209{fill:#4A4240;}
	.st210{fill:#494240;}
	.st211{fill:#48413F;}
	.st212{fill:#47403E;}
	.st213{fill:#46403E;}
	.st214{fill:#463F3D;}
	.st215{fill:#453E3C;}
	.st216{fill:#443E3C;}
	.st217{fill:#443D3B;}
	.st218{fill:#433D3B;}
	.st219{fill:#423C3A;}
	.st220{fill:#413B39;}
	.st221{fill:#413A39;}
	.st222{fill:#403A38;}
	.st223{fill:#3F3938;}
	.st224{fill:#3F3937;}
	.st225{fill:#3E3837;}
	.st226{fill:#3D3836;}
	.st227{fill:#3D3736;}
	.st228{fill:#3C3735;}
	.st229{fill:#3B3635;}
	.st230{fill:#3B3534;}
	.st231{fill:#3A3534;}
	.st232{fill:#3A3433;}
	.st233{fill:#393433;}
	.st234{fill:#383332;}
	.st235{fill:#373231;}
	.st236{fill:#363130;}
	.st237{fill:#35302F;}
	.st238{fill:#342F2F;}
	.st239{fill:#342F2E;}
	.st240{fill:#332E2E;}
	.st241{fill:#332E2D;}
	.st242{fill:#322D2D;}
	.st243{fill:#312D2C;}
	.st244{fill:#312C2C;}
	.st245{fill:#302C2B;}
	.st246{fill:#302B2B;}
	.st247{fill:#2F2B2A;}
	.st248{fill:#2E2A2A;}
	.st249{fill:#2E2A29;}
	.st250{fill:#2D2929;}
	.st251{fill:#2D2928;}
	.st252{fill:#2C2828;}
	.st253{fill:#2B2828;}
	.st254{fill:#2B2727;}
	.st255{fill:#2A2727;}
	.st256{fill:#292626;}
	.st257{fill:#282525;}
	.st258{fill:#272424;}
	.st259{fill:#262424;}
	.st260{fill:#262323;}
	.st261{fill:#252323;}
	.st262{fill:#252222;}
	.st263{fill:#242222;}
	.st264{fill:#232121;}
	.st265{fill:#222020;}
	.st266{fill:#211F20;}
	.st267{fill:#201F1F;}
	.st268{fill:#201E1F;}
	.st269{fill:#1F1E1E;}
	.st270{fill:#1F1D1E;}
	.st271{fill:#1E1D1D;}
	.st272{fill:#1D1C1D;}
	.st273{fill:#1D1C1C;}
	.st274{fill:#1C1B1C;}
	.st275{fill:#1B1A1B;}
	.st276{fill:#1A191A;}
	.st277{fill:#191819;}
	.st278{fill:#181819;}
	.st279{fill:#181718;}
	.st280{fill:#171718;}
	.st281{fill:#171618;}
	.st282{fill:#161617;}
	.st283{fill:#151516;}
	.st284{fill:#141516;}
	.st285{fill:#141416;}
	.st286{fill:#131415;}
	.st287{fill:#131315;}
	.st288{fill:#121314;}
	.st289{fill:#696C6B;}
	.st290{fill:#4E5050;}
	.st291{fill:#464748;}
	.st292{fill:url(#SVGID_1_);}
</style>
<g>
	<g class="st0">
		<path class="st1" d="M21.96,13.71c0.07-0.36,0.11-0.73,0.11-1.1c0-3.18-2.58-5.76-5.76-5.76c-3.18,0-5.76,2.58-5.76,5.76
			c0,0.38,0.04,0.75,0.11,1.1c0.3,2.19,2.53,3.83,5.65,11.59C19.23,17.79,21.66,15.89,21.96,13.71z"/>
		<path class="st2" d="M21.93,13.69c0.07-0.36,0.11-0.73,0.11-1.1c0-3.18-2.58-5.76-5.76-5.76c-3.18,0-5.76,2.58-5.76,5.76
			c0,0.38,0.04,0.75,0.11,1.1c0.3,2.19,2.53,3.83,5.65,11.59C19.2,17.77,21.64,15.88,21.93,13.69z"/>
		<path class="st3" d="M21.91,13.68c0.07-0.36,0.11-0.73,0.11-1.1c0-3.18-2.58-5.76-5.76-5.76c-3.18,0-5.76,2.58-5.76,5.76
			c0,0.38,0.04,0.75,0.11,1.1c0.3,2.19,2.53,3.83,5.65,11.59C19.18,17.76,21.61,15.87,21.91,13.68z"/>
		<path class="st4" d="M21.89,13.67c0.07-0.36,0.11-0.73,0.11-1.1c0-3.18-2.58-5.76-5.76-5.76c-3.18,0-5.76,2.58-5.76,5.76
			c0,0.38,0.04,0.75,0.11,1.1c0.3,2.19,2.53,3.83,5.65,11.59C19.16,17.75,21.59,15.85,21.89,13.67z"/>
		<path class="st5" d="M21.87,13.65c0.07-0.36,0.11-0.73,0.11-1.1c0-3.18-2.58-5.76-5.76-5.76c-3.18,0-5.76,2.58-5.76,5.76
			c0,0.38,0.04,0.75,0.11,1.1c0.3,2.19,2.53,3.83,5.65,11.59C19.14,17.73,21.57,15.84,21.87,13.65z"/>
		<path class="st6" d="M21.85,13.64c0.07-0.36,0.11-0.73,0.11-1.1c0-3.18-2.58-5.76-5.76-5.76c-3.18,0-5.76,2.58-5.76,5.76
			c0,0.38,0.04,0.75,0.11,1.1c0.3,2.19,2.53,3.83,5.65,11.59C19.11,17.72,21.55,15.83,21.85,13.64z"/>
		<path class="st7" d="M21.82,13.63c0.07-0.36,0.11-0.73,0.11-1.1c0-3.18-2.58-5.76-5.76-5.76c-3.18,0-5.76,2.58-5.76,5.76
			c0,0.38,0.04,0.75,0.11,1.1c0.3,2.19,2.53,3.83,5.65,11.59C19.09,17.71,21.52,15.81,21.82,13.63z"/>
		<path class="st8" d="M21.8,13.61c0.07-0.36,0.11-0.73,0.11-1.1c0-3.18-2.58-5.76-5.76-5.76c-3.18,0-5.76,2.58-5.76,5.76
			c0,0.38,0.04,0.75,0.11,1.1c0.3,2.19,2.53,3.83,5.65,11.59C19.07,17.69,21.5,15.8,21.8,13.61z"/>
		<path class="st9" d="M21.78,13.6c0.07-0.36,0.11-0.73,0.11-1.1c0-3.18-2.58-5.76-5.76-5.76c-3.18,0-5.76,2.58-5.76,5.76
			c0,0.38,0.04,0.75,0.11,1.1c0.3,2.19,2.53,3.83,5.65,11.59C19.05,17.68,21.48,15.79,21.78,13.6z"/>
		<path class="st10" d="M21.76,13.59c0.07-0.36,0.11-0.73,0.11-1.1c0-3.18-2.58-5.76-5.76-5.76c-3.18,0-5.76,2.58-5.76,5.76
			c0,0.38,0.04,0.75,0.11,1.1c0.3,2.19,2.53,3.83,5.65,11.59C19.03,17.67,21.46,15.77,21.76,13.59z"/>
		<path class="st11" d="M21.73,13.57c0.07-0.36,0.11-0.73,0.11-1.1c0-3.18-2.58-5.76-5.76-5.76c-3.18,0-5.76,2.58-5.76,5.76
			c0,0.38,0.04,0.75,0.11,1.1c0.3,2.19,2.53,3.83,5.65,11.59C19,17.65,21.44,15.76,21.73,13.57z"/>
		<path class="st12" d="M21.71,13.56c0.07-0.36,0.11-0.73,0.11-1.1c0-3.18-2.58-5.76-5.76-5.76c-3.18,0-5.76,2.58-5.76,5.76
			c0,0.38,0.04,0.75,0.11,1.1c0.3,2.19,2.53,3.83,5.65,11.59C18.98,17.64,21.41,15.75,21.71,13.56z"/>
		<path class="st13" d="M21.69,13.55c0.07-0.36,0.11-0.73,0.11-1.1c0-3.18-2.58-5.76-5.76-5.76c-3.18,0-5.76,2.58-5.76,5.76
			c0,0.38,0.04,0.75,0.11,1.1c0.3,2.19,2.53,3.83,5.65,11.59C18.96,17.63,21.39,15.73,21.69,13.55z"/>
		<path class="st14" d="M21.67,13.53c0.07-0.36,0.11-0.73,0.11-1.1c0-3.18-2.58-5.76-5.76-5.76c-3.18,0-5.76,2.58-5.76,5.76
			c0,0.38,0.04,0.75,0.11,1.1c0.3,2.19,2.53,3.83,5.65,11.59C18.94,17.61,21.37,15.72,21.67,13.53z"/>
		<path class="st15" d="M21.65,13.52c0.07-0.36,0.11-0.73,0.11-1.1c0-3.18-2.58-5.76-5.76-5.76c-3.18,0-5.76,2.58-5.76,5.76
			c0,0.38,0.04,0.75,0.11,1.1c0.3,2.19,2.53,3.83,5.65,11.59C18.91,17.6,21.35,15.71,21.65,13.52z"/>
		<path class="st16" d="M21.62,13.51c0.07-0.36,0.11-0.73,0.11-1.1c0-3.18-2.58-5.76-5.76-5.76c-3.18,0-5.76,2.58-5.76,5.76
			c0,0.38,0.04,0.75,0.11,1.1c0.3,2.19,2.53,3.83,5.65,11.59C18.89,17.59,21.32,15.69,21.62,13.51z"/>
		<path class="st17" d="M21.6,13.49c0.07-0.36,0.11-0.73,0.11-1.1c0-3.18-2.58-5.76-5.76-5.76c-3.18,0-5.76,2.58-5.76,5.76
			c0,0.38,0.04,0.75,0.11,1.1c0.3,2.19,2.53,3.83,5.65,11.59C18.87,17.57,21.3,15.68,21.6,13.49z"/>
		<path class="st18" d="M21.58,13.48c0.07-0.36,0.11-0.73,0.11-1.1c0-3.18-2.58-5.76-5.76-5.76c-3.18,0-5.76,2.58-5.76,5.76
			c0,0.38,0.04,0.75,0.11,1.1c0.3,2.19,2.53,3.83,5.65,11.59C18.85,17.56,21.28,15.67,21.58,13.48z"/>
		<path class="st19" d="M21.56,13.46c0.07-0.36,0.11-0.73,0.11-1.1c0-3.18-2.58-5.76-5.76-5.76c-3.18,0-5.76,2.58-5.76,5.76
			c0,0.38,0.04,0.75,0.11,1.1c0.3,2.19,2.53,3.83,5.65,11.59C18.82,17.55,21.26,15.65,21.56,13.46z"/>
		<path class="st20" d="M21.53,13.45c0.07-0.36,0.11-0.73,0.11-1.1c0-3.18-2.58-5.76-5.76-5.76c-3.18,0-5.76,2.58-5.76,5.76
			c0,0.38,0.04,0.75,0.11,1.1c0.3,2.19,2.53,3.83,5.65,11.59C18.8,17.53,21.24,15.64,21.53,13.45z"/>
		<path class="st21" d="M21.51,13.44c0.07-0.36,0.11-0.73,0.11-1.1c0-3.18-2.58-5.76-5.76-5.76c-3.18,0-5.76,2.58-5.76,5.76
			c0,0.38,0.04,0.75,0.11,1.1c0.3,2.19,2.53,3.83,5.65,11.59C18.78,17.52,21.21,15.63,21.51,13.44z"/>
		<path class="st22" d="M21.49,13.42c0.07-0.36,0.11-0.73,0.11-1.1c0-3.18-2.58-5.76-5.76-5.76c-3.18,0-5.76,2.58-5.76,5.76
			c0,0.38,0.04,0.75,0.11,1.1c0.3,2.19,2.53,3.83,5.65,11.59C18.76,17.51,21.19,15.61,21.49,13.42z"/>
		<path class="st23" d="M21.47,13.41c0.07-0.36,0.11-0.73,0.11-1.1c0-3.18-2.58-5.76-5.76-5.76c-3.18,0-5.76,2.58-5.76,5.76
			c0,0.38,0.04,0.75,0.11,1.1c0.3,2.19,2.53,3.83,5.65,11.59C18.74,17.49,21.17,15.6,21.47,13.41z"/>
		<path class="st24" d="M21.44,13.4c0.07-0.36,0.11-0.73,0.11-1.1c0-3.18-2.58-5.76-5.76-5.76c-3.18,0-5.76,2.58-5.76,5.76
			c0,0.38,0.04,0.75,0.11,1.1c0.3,2.19,2.53,3.83,5.65,11.59C18.71,17.48,21.15,15.59,21.44,13.4z"/>
		<path class="st25" d="M21.42,13.38c0.07-0.36,0.11-0.73,0.11-1.1c0-3.18-2.58-5.76-5.76-5.76c-3.18,0-5.76,2.58-5.76,5.76
			c0,0.38,0.04,0.75,0.11,1.1c0.3,2.19,2.53,3.83,5.65,11.59C18.69,17.47,21.12,15.57,21.42,13.38z"/>
		<path class="st26" d="M21.4,13.37c0.07-0.36,0.11-0.73,0.11-1.1c0-3.18-2.58-5.76-5.76-5.76c-3.18,0-5.76,2.58-5.76,5.76
			c0,0.38,0.04,0.75,0.11,1.1c0.3,2.19,2.53,3.83,5.65,11.59C18.67,17.45,21.1,15.56,21.4,13.37z"/>
		<path class="st27" d="M21.38,13.36c0.07-0.36,0.11-0.73,0.11-1.1c0-3.18-2.58-5.76-5.76-5.76c-3.18,0-5.76,2.58-5.76,5.76
			c0,0.38,0.04,0.75,0.11,1.1c0.3,2.19,2.53,3.83,5.65,11.59C18.65,17.44,21.08,15.55,21.38,13.36z"/>
		<path class="st28" d="M21.36,13.34c0.07-0.36,0.11-0.73,0.11-1.1c0-3.18-2.58-5.76-5.76-5.76c-3.18,0-5.76,2.58-5.76,5.76
			c0,0.38,0.04,0.75,0.11,1.1c0.3,2.19,2.53,3.83,5.65,11.59C18.62,17.43,21.06,15.53,21.36,13.34z"/>
		<path class="st29" d="M21.33,13.33c0.07-0.36,0.11-0.73,0.11-1.1c0-3.18-2.58-5.76-5.76-5.76c-3.18,0-5.76,2.58-5.76,5.76
			c0,0.38,0.04,0.75,0.11,1.1c0.3,2.19,2.53,3.83,5.65,11.59C18.6,17.41,21.03,15.52,21.33,13.33z"/>
		<path class="st30" d="M21.31,13.32c0.07-0.36,0.11-0.73,0.11-1.1c0-3.18-2.58-5.76-5.76-5.76c-3.18,0-5.76,2.58-5.76,5.76
			c0,0.38,0.04,0.75,0.11,1.1c0.3,2.19,2.53,3.83,5.65,11.59C18.58,17.4,21.01,15.51,21.31,13.32z"/>
		<path class="st31" d="M21.29,13.3c0.07-0.36,0.11-0.73,0.11-1.1c0-3.18-2.58-5.76-5.76-5.76c-3.18,0-5.76,2.58-5.76,5.76
			c0,0.38,0.04,0.75,0.11,1.1c0.3,2.19,2.53,3.83,5.65,11.59C18.56,17.39,20.99,15.49,21.29,13.3z"/>
		<path class="st32" d="M21.27,13.29c0.07-0.36,0.11-0.73,0.11-1.1c0-3.18-2.58-5.76-5.76-5.76c-3.18,0-5.76,2.58-5.76,5.76
			c0,0.38,0.04,0.75,0.11,1.1c0.3,2.19,2.53,3.83,5.65,11.59C18.53,17.37,20.97,15.48,21.27,13.29z"/>
		<path class="st33" d="M21.24,13.28c0.07-0.36,0.11-0.73,0.11-1.1c0-3.18-2.58-5.76-5.76-5.76c-3.18,0-5.76,2.58-5.76,5.76
			c0,0.38,0.04,0.75,0.11,1.1c0.3,2.19,2.53,3.83,5.65,11.59C18.51,17.36,20.95,15.47,21.24,13.28z"/>
		<path class="st34" d="M21.22,13.26c0.07-0.36,0.11-0.73,0.11-1.1c0-3.18-2.58-5.76-5.76-5.76c-3.18,0-5.76,2.58-5.76,5.76
			c0,0.38,0.04,0.75,0.11,1.1c0.3,2.19,2.53,3.83,5.65,11.59C18.49,17.35,20.92,15.45,21.22,13.26z"/>
		<path class="st35" d="M21.2,13.25c0.07-0.36,0.11-0.73,0.11-1.1c0-3.18-2.58-5.76-5.76-5.76c-3.18,0-5.76,2.58-5.76,5.76
			c0,0.38,0.04,0.75,0.11,1.1c0.3,2.19,2.53,3.83,5.65,11.59C18.47,17.33,20.9,15.44,21.2,13.25z"/>
		<path class="st36" d="M21.18,13.24c0.07-0.36,0.11-0.73,0.11-1.1c0-3.18-2.58-5.76-5.76-5.76c-3.18,0-5.76,2.58-5.76,5.76
			c0,0.38,0.04,0.75,0.11,1.1c0.3,2.19,2.53,3.83,5.65,11.59C18.45,17.32,20.88,15.43,21.18,13.24z"/>
		<path class="st37" d="M21.15,13.22c0.07-0.36,0.11-0.73,0.11-1.1c0-3.18-2.58-5.76-5.76-5.76c-3.18,0-5.76,2.58-5.76,5.76
			c0,0.38,0.04,0.75,0.11,1.1c0.3,2.19,2.53,3.83,5.65,11.59C18.42,17.31,20.86,15.41,21.15,13.22z"/>
		<path class="st38" d="M21.13,13.21c0.07-0.36,0.11-0.73,0.11-1.1c0-3.18-2.58-5.76-5.76-5.76c-3.18,0-5.76,2.58-5.76,5.76
			c0,0.38,0.04,0.75,0.11,1.1c0.3,2.19,2.53,3.83,5.65,11.59C18.4,17.29,20.83,15.4,21.13,13.21z"/>
		<path class="st39" d="M21.11,13.2c0.07-0.36,0.11-0.73,0.11-1.1c0-3.18-2.58-5.76-5.76-5.76c-3.18,0-5.76,2.58-5.76,5.76
			c0,0.38,0.04,0.75,0.11,1.1c0.3,2.19,2.53,3.83,5.65,11.59C18.38,17.28,20.81,15.39,21.11,13.2z"/>
		<path class="st40" d="M21.09,13.18c0.07-0.36,0.11-0.73,0.11-1.1c0-3.18-2.58-5.76-5.76-5.76c-3.18,0-5.76,2.58-5.76,5.76
			c0,0.38,0.04,0.75,0.11,1.1c0.3,2.19,2.53,3.83,5.65,11.59C18.36,17.27,20.79,15.37,21.09,13.18z"/>
		<path class="st41" d="M21.07,13.17c0.07-0.36,0.11-0.73,0.11-1.1c0-3.18-2.58-5.76-5.76-5.76c-3.18,0-5.76,2.58-5.76,5.76
			c0,0.38,0.04,0.75,0.11,1.1c0.3,2.19,2.53,3.83,5.65,11.59C18.33,17.25,20.77,15.36,21.07,13.17z"/>
		<path class="st42" d="M21.04,13.16c0.07-0.36,0.11-0.73,0.11-1.1c0-3.18-2.58-5.76-5.76-5.76c-3.18,0-5.76,2.58-5.76,5.76
			c0,0.38,0.04,0.75,0.11,1.1c0.3,2.19,2.53,3.83,5.65,11.59C18.31,17.24,20.74,15.35,21.04,13.16z"/>
		<path class="st43" d="M21.02,13.14c0.07-0.36,0.11-0.73,0.11-1.1c0-3.18-2.58-5.76-5.76-5.76c-3.18,0-5.76,2.58-5.76,5.76
			c0,0.38,0.04,0.75,0.11,1.1c0.3,2.19,2.53,3.83,5.65,11.59C18.29,17.23,20.72,15.33,21.02,13.14z"/>
		<path class="st44" d="M21,13.13c0.07-0.36,0.11-0.73,0.11-1.1c0-3.18-2.58-5.76-5.76-5.76c-3.18,0-5.76,2.58-5.76,5.76
			c0,0.38,0.04,0.75,0.11,1.1c0.3,2.19,2.53,3.83,5.65,11.59C18.27,17.21,20.7,15.32,21,13.13z"/>
		<path class="st45" d="M20.98,13.12c0.07-0.36,0.11-0.73,0.11-1.1c0-3.18-2.58-5.76-5.76-5.76c-3.18,0-5.76,2.58-5.76,5.76
			c0,0.38,0.04,0.75,0.11,1.1c0.3,2.19,2.53,3.83,5.65,11.59C18.24,17.2,20.68,15.31,20.98,13.12z"/>
		<path class="st46" d="M20.95,13.1c0.07-0.36,0.11-0.73,0.11-1.1c0-3.18-2.58-5.76-5.76-5.76c-3.18,0-5.76,2.58-5.76,5.76
			c0,0.38,0.04,0.75,0.11,1.1c0.3,2.19,2.53,3.83,5.65,11.59C18.22,17.19,20.66,15.29,20.95,13.1z"/>
		<path class="st47" d="M20.93,13.09c0.07-0.36,0.11-0.73,0.11-1.1c0-3.18-2.58-5.76-5.76-5.76c-3.18,0-5.76,2.58-5.76,5.76
			c0,0.38,0.04,0.75,0.11,1.1c0.3,2.19,2.53,3.83,5.65,11.59C18.2,17.17,20.63,15.28,20.93,13.09z"/>
		<path class="st48" d="M20.91,13.08c0.07-0.36,0.11-0.73,0.11-1.1c0-3.18-2.58-5.76-5.76-5.76c-3.18,0-5.76,2.58-5.76,5.76
			c0,0.38,0.04,0.75,0.11,1.1c0.3,2.19,2.53,3.83,5.65,11.59C18.18,17.16,20.61,15.27,20.91,13.08z"/>
		<path class="st49" d="M20.89,13.06c0.07-0.36,0.11-0.73,0.11-1.1c0-3.18-2.58-5.76-5.76-5.76c-3.18,0-5.76,2.58-5.76,5.76
			c0,0.38,0.04,0.75,0.11,1.1c0.3,2.19,2.53,3.83,5.65,11.59C18.16,17.15,20.59,15.25,20.89,13.06z"/>
		<path class="st50" d="M20.86,13.05c0.07-0.36,0.11-0.73,0.11-1.1c0-3.18-2.58-5.76-5.76-5.76c-3.18,0-5.76,2.58-5.76,5.76
			c0,0.38,0.04,0.75,0.11,1.1c0.3,2.19,2.53,3.83,5.65,11.59C18.13,17.13,20.57,15.24,20.86,13.05z"/>
		<path class="st51" d="M20.84,13.04c0.07-0.36,0.11-0.73,0.11-1.1c0-3.18-2.58-5.76-5.76-5.76c-3.18,0-5.76,2.58-5.76,5.76
			c0,0.38,0.04,0.75,0.11,1.1c0.3,2.19,2.53,3.83,5.65,11.59C18.11,17.12,20.54,15.23,20.84,13.04z"/>
		<path class="st52" d="M20.82,13.02c0.07-0.36,0.11-0.73,0.11-1.1c0-3.18-2.58-5.76-5.76-5.76c-3.18,0-5.76,2.58-5.76,5.76
			c0,0.38,0.04,0.75,0.11,1.1c0.3,2.19,2.53,3.83,5.65,11.59C18.09,17.11,20.52,15.21,20.82,13.02z"/>
		<path class="st53" d="M20.8,13.01c0.07-0.36,0.11-0.73,0.11-1.1c0-3.18-2.58-5.76-5.76-5.76c-3.18,0-5.76,2.58-5.76,5.76
			c0,0.38,0.04,0.75,0.11,1.1c0.3,2.19,2.53,3.83,5.65,11.59C18.07,17.09,20.5,15.2,20.8,13.01z"/>
		<path class="st54" d="M20.78,13c0.07-0.36,0.11-0.73,0.11-1.1c0-3.18-2.58-5.76-5.76-5.76c-3.18,0-5.76,2.58-5.76,5.76
			c0,0.38,0.04,0.75,0.11,1.1c0.3,2.19,2.53,3.83,5.65,11.59C18.04,17.08,20.48,15.19,20.78,13z"/>
		<path class="st55" d="M20.75,12.98c0.07-0.36,0.11-0.73,0.11-1.1c0-3.18-2.58-5.76-5.76-5.76c-3.18,0-5.76,2.58-5.76,5.76
			c0,0.38,0.04,0.75,0.11,1.1c0.3,2.19,2.53,3.83,5.65,11.59C18.02,17.07,20.45,15.17,20.75,12.98z"/>
		<path class="st56" d="M20.73,12.97c0.07-0.36,0.11-0.73,0.11-1.1c0-3.18-2.58-5.76-5.76-5.76c-3.18,0-5.76,2.58-5.76,5.76
			c0,0.38,0.04,0.75,0.11,1.1c0.3,2.19,2.53,3.83,5.65,11.59C18,17.05,20.43,15.16,20.73,12.97z"/>
		<path class="st57" d="M20.71,12.96c0.07-0.36,0.11-0.73,0.11-1.1c0-3.18-2.58-5.76-5.76-5.76c-3.18,0-5.76,2.58-5.76,5.76
			c0,0.38,0.04,0.75,0.11,1.1c0.3,2.19,2.53,3.83,5.65,11.59C17.98,17.04,20.41,15.15,20.71,12.96z"/>
		<path class="st58" d="M20.69,12.94c0.07-0.36,0.11-0.73,0.11-1.1c0-3.18-2.58-5.76-5.76-5.76c-3.18,0-5.76,2.58-5.76,5.76
			c0,0.38,0.04,0.75,0.11,1.1c0.3,2.19,2.53,3.83,5.65,11.59C17.96,17.03,20.39,15.13,20.69,12.94z"/>
		<path class="st59" d="M20.66,12.93c0.07-0.36,0.11-0.73,0.11-1.1c0-3.18-2.58-5.76-5.76-5.76c-3.18,0-5.76,2.58-5.76,5.76
			c0,0.38,0.04,0.75,0.11,1.1c0.3,2.19,2.53,3.83,5.65,11.59C17.93,17.01,20.37,15.12,20.66,12.93z"/>
		<path class="st60" d="M20.64,12.92c0.07-0.36,0.11-0.73,0.11-1.1c0-3.18-2.58-5.76-5.76-5.76c-3.18,0-5.76,2.58-5.76,5.76
			c0,0.38,0.04,0.75,0.11,1.1c0.3,2.19,2.53,3.83,5.65,11.59C17.91,17,20.34,15.11,20.64,12.92z"/>
		<path class="st61" d="M20.62,12.9c0.07-0.36,0.11-0.73,0.11-1.1c0-3.18-2.58-5.76-5.76-5.76c-3.18,0-5.76,2.58-5.76,5.76
			c0,0.38,0.04,0.75,0.11,1.1c0.3,2.19,2.53,3.83,5.65,11.59C17.89,16.99,20.32,15.09,20.62,12.9z"/>
		<path class="st62" d="M20.6,12.89c0.07-0.36,0.11-0.73,0.11-1.1c0-3.18-2.58-5.76-5.76-5.76c-3.18,0-5.76,2.58-5.76,5.76
			c0,0.38,0.04,0.75,0.11,1.1c0.3,2.19,2.53,3.83,5.65,11.59C17.87,16.97,20.3,15.08,20.6,12.89z"/>
		<path class="st63" d="M20.57,12.88c0.07-0.36,0.11-0.73,0.11-1.1c0-3.18-2.58-5.76-5.76-5.76c-3.18,0-5.76,2.58-5.76,5.76
			c0,0.38,0.04,0.75,0.11,1.1c0.3,2.19,2.53,3.83,5.65,11.59C17.84,16.96,20.28,15.06,20.57,12.88z"/>
		<path class="st64" d="M20.55,12.86c0.07-0.36,0.11-0.73,0.11-1.1C20.66,8.58,18.08,6,14.9,6c-3.18,0-5.76,2.58-5.76,5.76
			c0,0.38,0.04,0.75,0.11,1.1c0.3,2.19,2.53,3.83,5.65,11.59C17.82,16.95,20.25,15.05,20.55,12.86z"/>
		<path class="st65" d="M20.53,12.85c0.07-0.36,0.11-0.73,0.11-1.1c0-3.18-2.58-5.76-5.76-5.76c-3.18,0-5.76,2.58-5.76,5.76
			c0,0.38,0.04,0.75,0.11,1.1c0.3,2.19,2.53,3.83,5.65,11.59C17.8,16.93,20.23,15.04,20.53,12.85z"/>
		<path class="st66" d="M20.51,12.84c0.07-0.36,0.11-0.73,0.11-1.1c0-3.18-2.58-5.76-5.76-5.76c-3.18,0-5.76,2.58-5.76,5.76
			c0,0.38,0.04,0.75,0.11,1.1c0.3,2.19,2.53,3.83,5.65,11.59C17.78,16.92,20.21,15.02,20.51,12.84z"/>
		<path class="st67" d="M20.49,12.82c0.07-0.36,0.11-0.73,0.11-1.1c0-3.18-2.58-5.76-5.76-5.76c-3.18,0-5.76,2.58-5.76,5.76
			c0,0.38,0.04,0.75,0.11,1.1c0.3,2.19,2.53,3.83,5.65,11.59C17.75,16.91,20.19,15.01,20.49,12.82z"/>
		<path class="st68" d="M20.46,12.81c0.07-0.36,0.11-0.73,0.11-1.1c0-3.18-2.58-5.76-5.76-5.76c-3.18,0-5.76,2.58-5.76,5.76
			c0,0.38,0.04,0.75,0.11,1.1c0.3,2.19,2.53,3.83,5.65,11.59C17.73,16.89,20.17,15,20.46,12.81z"/>
		<path class="st69" d="M20.44,12.8c0.07-0.36,0.11-0.73,0.11-1.1c0-3.18-2.58-5.76-5.76-5.76c-3.18,0-5.76,2.58-5.76,5.76
			c0,0.38,0.04,0.75,0.11,1.1c0.3,2.19,2.53,3.83,5.65,11.59C17.71,16.88,20.14,14.98,20.44,12.8z"/>
		<path class="st70" d="M20.42,12.78c0.07-0.36,0.11-0.73,0.11-1.1c0-3.18-2.58-5.76-5.76-5.76c-3.18,0-5.76,2.58-5.76,5.76
			c0,0.38,0.04,0.75,0.11,1.1c0.3,2.19,2.53,3.83,5.65,11.59C17.69,16.87,20.12,14.97,20.42,12.78z"/>
		<path class="st71" d="M20.4,12.77c0.07-0.36,0.11-0.73,0.11-1.1c0-3.18-2.58-5.76-5.76-5.76c-3.18,0-5.76,2.58-5.76,5.76
			c0,0.38,0.04,0.75,0.11,1.1c0.3,2.19,2.53,3.83,5.65,11.59C17.67,16.85,20.1,14.96,20.4,12.77z"/>
		<path class="st72" d="M20.37,12.76c0.07-0.36,0.11-0.73,0.11-1.1c0-3.18-2.58-5.76-5.76-5.76c-3.18,0-5.76,2.58-5.76,5.76
			c0,0.38,0.04,0.75,0.11,1.1c0.3,2.19,2.53,3.83,5.65,11.59C17.64,16.84,20.08,14.94,20.37,12.76z"/>
		<path class="st73" d="M20.35,12.74c0.07-0.36,0.11-0.73,0.11-1.1c0-3.18-2.58-5.76-5.76-5.76c-3.18,0-5.76,2.58-5.76,5.76
			c0,0.38,0.04,0.75,0.11,1.1c0.3,2.19,2.53,3.83,5.65,11.59C17.62,16.83,20.05,14.93,20.35,12.74z"/>
		<path class="st74" d="M20.33,12.73c0.07-0.36,0.11-0.73,0.11-1.1c0-3.18-2.58-5.76-5.76-5.76c-3.18,0-5.76,2.58-5.76,5.76
			c0,0.38,0.04,0.75,0.11,1.1c0.3,2.19,2.53,3.83,5.65,11.59C17.6,16.81,20.03,14.92,20.33,12.73z"/>
		<path class="st75" d="M20.31,12.72c0.07-0.36,0.11-0.73,0.11-1.1c0-3.18-2.58-5.76-5.76-5.76c-3.18,0-5.76,2.58-5.76,5.76
			c0,0.38,0.04,0.75,0.11,1.1c0.3,2.19,2.53,3.83,5.65,11.59C17.58,16.8,20.01,14.9,20.31,12.72z"/>
		<path class="st76" d="M20.29,12.7c0.07-0.36,0.11-0.73,0.11-1.1c0-3.18-2.58-5.76-5.76-5.76c-3.18,0-5.76,2.58-5.76,5.76
			c0,0.38,0.04,0.75,0.11,1.1c0.3,2.19,2.53,3.83,5.65,11.59C17.55,16.79,19.99,14.89,20.29,12.7z"/>
		<path class="st77" d="M20.26,12.69c0.07-0.36,0.11-0.73,0.11-1.1c0-3.18-2.58-5.76-5.76-5.76c-3.18,0-5.76,2.58-5.76,5.76
			c0,0.38,0.04,0.75,0.11,1.1c0.3,2.19,2.53,3.83,5.65,11.59C17.53,16.77,19.96,14.88,20.26,12.69z"/>
		<path class="st78" d="M20.24,12.68c0.07-0.36,0.11-0.73,0.11-1.1c0-3.18-2.58-5.76-5.76-5.76c-3.18,0-5.76,2.58-5.76,5.76
			c0,0.38,0.04,0.75,0.11,1.1c0.3,2.19,2.53,3.83,5.65,11.59C17.51,16.76,19.94,14.86,20.24,12.68z"/>
		<path class="st79" d="M20.22,12.66c0.07-0.36,0.11-0.73,0.11-1.1c0-3.18-2.58-5.76-5.76-5.76c-3.18,0-5.76,2.58-5.76,5.76
			c0,0.38,0.04,0.75,0.11,1.1c0.3,2.19,2.53,3.83,5.65,11.59C17.49,16.75,19.92,14.85,20.22,12.66z"/>
		<path class="st80" d="M20.2,12.65c0.07-0.36,0.11-0.73,0.11-1.1c0-3.18-2.58-5.76-5.76-5.76c-3.18,0-5.76,2.58-5.76,5.76
			c0,0.38,0.04,0.75,0.11,1.1c0.3,2.19,2.53,3.83,5.65,11.59C17.46,16.73,19.9,14.84,20.2,12.65z"/>
		<path class="st81" d="M20.17,12.64c0.07-0.36,0.11-0.73,0.11-1.1c0-3.18-2.58-5.76-5.76-5.76c-3.18,0-5.76,2.58-5.76,5.76
			c0,0.38,0.04,0.75,0.11,1.1c0.3,2.19,2.53,3.83,5.65,11.59C17.44,16.72,19.88,14.82,20.17,12.64z"/>
		<path class="st82" d="M20.15,12.62c0.07-0.36,0.11-0.73,0.11-1.1c0-3.18-2.58-5.76-5.76-5.76c-3.18,0-5.76,2.58-5.76,5.76
			c0,0.38,0.04,0.75,0.11,1.1c0.3,2.19,2.53,3.83,5.65,11.59C17.42,16.7,19.85,14.81,20.15,12.62z"/>
		<path class="st83" d="M20.13,12.61c0.07-0.36,0.11-0.73,0.11-1.1c0-3.18-2.58-5.76-5.76-5.76c-3.18,0-5.76,2.58-5.76,5.76
			c0,0.38,0.04,0.75,0.11,1.1c0.3,2.19,2.53,3.83,5.65,11.59C17.4,16.69,19.83,14.8,20.13,12.61z"/>
		<path class="st84" d="M20.11,12.6c0.07-0.36,0.11-0.73,0.11-1.1c0-3.18-2.58-5.76-5.76-5.76c-3.18,0-5.76,2.58-5.76,5.76
			c0,0.38,0.04,0.75,0.11,1.1c0.3,2.19,2.53,3.83,5.65,11.59C17.38,16.68,19.81,14.78,20.11,12.6z"/>
		<path class="st85" d="M20.08,12.58c0.07-0.36,0.11-0.73,0.11-1.1c0-3.18-2.58-5.76-5.76-5.76c-3.18,0-5.76,2.58-5.76,5.76
			c0,0.38,0.04,0.75,0.11,1.1c0.3,2.19,2.53,3.83,5.65,11.59C17.35,16.66,19.79,14.77,20.08,12.58z"/>
		<path class="st86" d="M20.06,12.57c0.07-0.36,0.11-0.73,0.11-1.1c0-3.18-2.58-5.76-5.76-5.76c-3.18,0-5.76,2.58-5.76,5.76
			c0,0.38,0.04,0.75,0.11,1.1c0.3,2.19,2.53,3.83,5.65,11.59C17.33,16.65,19.76,14.76,20.06,12.57z"/>
		<path class="st87" d="M20.04,12.56c0.07-0.36,0.11-0.73,0.11-1.1c0-3.18-2.58-5.76-5.76-5.76c-3.18,0-5.76,2.58-5.76,5.76
			c0,0.38,0.04,0.75,0.11,1.1c0.3,2.19,2.53,3.83,5.65,11.59C17.31,16.64,19.74,14.74,20.04,12.56z"/>
		<path class="st88" d="M20.02,12.54c0.07-0.36,0.11-0.73,0.11-1.1c0-3.18-2.58-5.76-5.76-5.76c-3.18,0-5.76,2.58-5.76,5.76
			c0,0.38,0.04,0.75,0.11,1.1c0.3,2.19,2.53,3.83,5.65,11.59C17.29,16.62,19.72,14.73,20.02,12.54z"/>
		<path class="st89" d="M20,12.53c0.07-0.36,0.11-0.73,0.11-1.1c0-3.18-2.58-5.76-5.76-5.76c-3.18,0-5.76,2.58-5.76,5.76
			c0,0.38,0.04,0.75,0.11,1.1c0.3,2.19,2.53,3.83,5.65,11.59C17.26,16.61,19.7,14.72,20,12.53z"/>
		<path class="st90" d="M19.97,12.52c0.07-0.36,0.11-0.73,0.11-1.1c0-3.18-2.58-5.76-5.76-5.76c-3.18,0-5.76,2.58-5.76,5.76
			c0,0.38,0.04,0.75,0.11,1.1c0.3,2.19,2.53,3.83,5.65,11.59C17.24,16.6,19.67,14.7,19.97,12.52z"/>
		<path class="st91" d="M19.95,12.5c0.07-0.36,0.11-0.73,0.11-1.1c0-3.18-2.58-5.76-5.76-5.76c-3.18,0-5.76,2.58-5.76,5.76
			c0,0.38,0.04,0.75,0.11,1.1c0.3,2.19,2.53,3.83,5.65,11.59C17.22,16.58,19.65,14.69,19.95,12.5z"/>
		<path class="st92" d="M19.93,12.49c0.07-0.36,0.11-0.73,0.11-1.1c0-3.18-2.58-5.76-5.76-5.76c-3.18,0-5.76,2.58-5.76,5.76
			c0,0.38,0.04,0.75,0.11,1.1c0.3,2.19,2.53,3.83,5.65,11.59C17.2,16.57,19.63,14.68,19.93,12.49z"/>
		<path class="st93" d="M19.91,12.48c0.07-0.36,0.11-0.73,0.11-1.1c0-3.18-2.58-5.76-5.76-5.76c-3.18,0-5.76,2.58-5.76,5.76
			c0,0.38,0.04,0.75,0.11,1.1c0.3,2.19,2.53,3.83,5.65,11.59C17.17,16.56,19.61,14.66,19.91,12.48z"/>
		<path class="st94" d="M19.88,12.46c0.07-0.36,0.11-0.73,0.11-1.1c0-3.18-2.58-5.76-5.76-5.76c-3.18,0-5.76,2.58-5.76,5.76
			c0,0.38,0.04,0.75,0.11,1.1c0.3,2.19,2.53,3.83,5.65,11.59C17.15,16.54,19.59,14.65,19.88,12.46z"/>
		<path class="st95" d="M19.86,12.45c0.07-0.36,0.11-0.73,0.11-1.1c0-3.18-2.58-5.76-5.76-5.76c-3.18,0-5.76,2.58-5.76,5.76
			c0,0.38,0.04,0.75,0.11,1.1c0.3,2.19,2.53,3.83,5.65,11.59C17.13,16.53,19.56,14.64,19.86,12.45z"/>
		<path class="st96" d="M19.84,12.44c0.07-0.36,0.11-0.73,0.11-1.1c0-3.18-2.58-5.76-5.76-5.76c-3.18,0-5.76,2.58-5.76,5.76
			c0,0.38,0.04,0.75,0.11,1.1c0.3,2.19,2.53,3.83,5.65,11.59C17.11,16.52,19.54,14.62,19.84,12.44z"/>
		<path class="st97" d="M19.82,12.42c0.07-0.36,0.11-0.73,0.11-1.1c0-3.18-2.58-5.76-5.76-5.76c-3.18,0-5.76,2.58-5.76,5.76
			c0,0.38,0.04,0.75,0.11,1.1c0.3,2.19,2.53,3.83,5.65,11.59C17.09,16.5,19.52,14.61,19.82,12.42z"/>
		<path class="st98" d="M19.79,12.41c0.07-0.36,0.11-0.73,0.11-1.1c0-3.18-2.58-5.76-5.76-5.76c-3.18,0-5.76,2.58-5.76,5.76
			c0,0.38,0.04,0.75,0.11,1.1c0.3,2.19,2.53,3.83,5.65,11.59C17.06,16.49,19.5,14.6,19.79,12.41z"/>
		<path class="st99" d="M19.77,12.39c0.07-0.36,0.11-0.73,0.11-1.1c0-3.18-2.58-5.76-5.76-5.76c-3.18,0-5.76,2.58-5.76,5.76
			c0,0.38,0.04,0.75,0.11,1.1c0.3,2.19,2.53,3.83,5.65,11.59C17.04,16.48,19.47,14.58,19.77,12.39z"/>
		<path class="st100" d="M19.75,12.38c0.07-0.36,0.11-0.73,0.11-1.1c0-3.18-2.58-5.76-5.76-5.76c-3.18,0-5.76,2.58-5.76,5.76
			c0,0.38,0.04,0.75,0.11,1.1c0.3,2.19,2.53,3.83,5.65,11.59C17.02,16.46,19.45,14.57,19.75,12.38z"/>
		<path class="st101" d="M19.73,12.37c0.07-0.36,0.11-0.73,0.11-1.1c0-3.18-2.58-5.76-5.76-5.76c-3.18,0-5.76,2.58-5.76,5.76
			c0,0.38,0.04,0.75,0.11,1.1c0.3,2.19,2.53,3.83,5.65,11.59C17,16.45,19.43,14.56,19.73,12.37z"/>
		<path class="st102" d="M19.71,12.35c0.07-0.36,0.11-0.73,0.11-1.1c0-3.18-2.58-5.76-5.76-5.76c-3.18,0-5.76,2.58-5.76,5.76
			c0,0.38,0.04,0.75,0.11,1.1c0.3,2.19,2.53,3.83,5.65,11.59C16.97,16.44,19.41,14.54,19.71,12.35z"/>
		<path class="st103" d="M19.68,12.34c0.07-0.36,0.11-0.73,0.11-1.1c0-3.18-2.58-5.76-5.76-5.76c-3.18,0-5.76,2.58-5.76,5.76
			c0,0.38,0.04,0.75,0.11,1.1c0.3,2.19,2.53,3.83,5.65,11.59C16.95,16.42,19.38,14.53,19.68,12.34z"/>
		<path class="st104" d="M19.66,12.33c0.07-0.36,0.11-0.73,0.11-1.1c0-3.18-2.58-5.76-5.76-5.76c-3.18,0-5.76,2.58-5.76,5.76
			c0,0.38,0.04,0.75,0.11,1.1c0.3,2.19,2.53,3.83,5.65,11.59C16.93,16.41,19.36,14.52,19.66,12.33z"/>
		<path class="st105" d="M19.64,12.31c0.07-0.36,0.11-0.73,0.11-1.1c0-3.18-2.58-5.76-5.76-5.76c-3.18,0-5.76,2.58-5.76,5.76
			c0,0.38,0.04,0.75,0.11,1.1c0.3,2.19,2.53,3.83,5.65,11.59C16.91,16.4,19.34,14.5,19.64,12.31z"/>
		<path class="st106" d="M19.62,12.3c0.07-0.36,0.11-0.73,0.11-1.1c0-3.18-2.58-5.76-5.76-5.76c-3.18,0-5.76,2.58-5.76,5.76
			c0,0.38,0.04,0.75,0.11,1.1c0.3,2.19,2.53,3.83,5.65,11.59C16.88,16.38,19.32,14.49,19.62,12.3z"/>
		<path class="st107" d="M19.59,12.29c0.07-0.36,0.11-0.73,0.11-1.1c0-3.18-2.58-5.76-5.76-5.76c-3.18,0-5.76,2.58-5.76,5.76
			c0,0.38,0.04,0.75,0.11,1.1c0.3,2.19,2.53,3.83,5.65,11.59C16.86,16.37,19.3,14.48,19.59,12.29z"/>
		<path class="st108" d="M19.57,12.27c0.07-0.36,0.11-0.73,0.11-1.1c0-3.18-2.58-5.76-5.76-5.76c-3.18,0-5.76,2.58-5.76,5.76
			c0,0.38,0.04,0.75,0.11,1.1c0.3,2.19,2.53,3.83,5.65,11.59C16.84,16.36,19.27,14.46,19.57,12.27z"/>
		<path class="st109" d="M19.55,12.26c0.07-0.36,0.11-0.73,0.11-1.1c0-3.18-2.58-5.76-5.76-5.76c-3.18,0-5.76,2.58-5.76,5.76
			c0,0.38,0.04,0.75,0.11,1.1c0.3,2.19,2.53,3.83,5.65,11.59C16.82,16.34,19.25,14.45,19.55,12.26z"/>
		<path class="st110" d="M19.53,12.25c0.07-0.36,0.11-0.73,0.11-1.1c0-3.18-2.58-5.76-5.76-5.76c-3.18,0-5.76,2.58-5.76,5.76
			c0,0.38,0.04,0.75,0.11,1.1c0.3,2.19,2.53,3.83,5.65,11.59C16.8,16.33,19.23,14.44,19.53,12.25z"/>
		<path class="st111" d="M19.5,12.23c0.07-0.36,0.11-0.73,0.11-1.1c0-3.18-2.58-5.76-5.76-5.76c-3.18,0-5.76,2.58-5.76,5.76
			c0,0.38,0.04,0.75,0.11,1.1c0.3,2.19,2.53,3.83,5.65,11.59C16.77,16.32,19.21,14.42,19.5,12.23z"/>
		<path class="st112" d="M19.48,12.22c0.07-0.36,0.11-0.73,0.11-1.1c0-3.18-2.58-5.76-5.76-5.76c-3.18,0-5.76,2.58-5.76,5.76
			c0,0.38,0.04,0.75,0.11,1.1c0.3,2.19,2.53,3.83,5.65,11.59C16.75,16.3,19.18,14.41,19.48,12.22z"/>
		<path class="st113" d="M19.46,12.21c0.07-0.36,0.11-0.73,0.11-1.1c0-3.18-2.58-5.76-5.76-5.76c-3.18,0-5.76,2.58-5.76,5.76
			c0,0.38,0.04,0.75,0.11,1.1c0.3,2.19,2.53,3.83,5.65,11.59C16.73,16.29,19.16,14.4,19.46,12.21z"/>
		<path class="st114" d="M19.44,12.19c0.07-0.36,0.11-0.73,0.11-1.1c0-3.18-2.58-5.76-5.76-5.76c-3.18,0-5.76,2.58-5.76,5.76
			c0,0.38,0.04,0.75,0.11,1.1c0.3,2.19,2.53,3.83,5.65,11.59C16.71,16.28,19.14,14.38,19.44,12.19z"/>
		<path class="st115" d="M19.42,12.18c0.07-0.36,0.11-0.73,0.11-1.1c0-3.18-2.58-5.76-5.76-5.76c-3.18,0-5.76,2.58-5.76,5.76
			c0,0.38,0.04,0.75,0.11,1.1c0.3,2.19,2.53,3.83,5.65,11.59C16.68,16.26,19.12,14.37,19.42,12.18z"/>
		<path class="st116" d="M19.39,12.17c0.07-0.36,0.11-0.73,0.11-1.1c0-3.18-2.58-5.76-5.76-5.76c-3.18,0-5.76,2.58-5.76,5.76
			c0,0.38,0.04,0.75,0.11,1.1c0.3,2.19,2.53,3.83,5.65,11.59C16.66,16.25,19.1,14.36,19.39,12.17z"/>
		<path class="st117" d="M19.37,12.15c0.07-0.36,0.11-0.73,0.11-1.1c0-3.18-2.58-5.76-5.76-5.76c-3.18,0-5.76,2.58-5.76,5.76
			c0,0.38,0.04,0.75,0.11,1.1c0.3,2.19,2.53,3.83,5.65,11.59C16.64,16.24,19.07,14.34,19.37,12.15z"/>
		<path class="st118" d="M19.35,12.14c0.07-0.36,0.11-0.73,0.11-1.1c0-3.18-2.58-5.76-5.76-5.76c-3.18,0-5.76,2.58-5.76,5.76
			c0,0.38,0.04,0.75,0.11,1.1c0.3,2.19,2.53,3.83,5.65,11.59C16.62,16.22,19.05,14.33,19.35,12.14z"/>
		<path class="st119" d="M19.33,12.13c0.07-0.36,0.11-0.73,0.11-1.1c0-3.18-2.58-5.76-5.76-5.76c-3.18,0-5.76,2.58-5.76,5.76
			c0,0.38,0.04,0.75,0.11,1.1c0.3,2.19,2.53,3.83,5.65,11.59C16.6,16.21,19.03,14.32,19.33,12.13z"/>
		<path class="st120" d="M19.3,12.11c0.07-0.36,0.11-0.73,0.11-1.1c0-3.18-2.58-5.76-5.76-5.76c-3.18,0-5.76,2.58-5.76,5.76
			c0,0.38,0.04,0.75,0.11,1.1c0.3,2.19,2.53,3.83,5.65,11.59C16.57,16.2,19.01,14.3,19.3,12.11z"/>
		<path class="st121" d="M19.28,12.1c0.07-0.36,0.11-0.73,0.11-1.1c0-3.18-2.58-5.76-5.76-5.76c-3.18,0-5.76,2.58-5.76,5.76
			c0,0.38,0.04,0.75,0.11,1.1c0.3,2.19,2.53,3.83,5.65,11.59C16.55,16.18,18.98,14.29,19.28,12.1z"/>
		<path class="st122" d="M19.26,12.09c0.07-0.36,0.11-0.73,0.11-1.1c0-3.18-2.58-5.76-5.76-5.76c-3.18,0-5.76,2.58-5.76,5.76
			c0,0.38,0.04,0.75,0.11,1.1c0.3,2.19,2.53,3.83,5.65,11.59C16.53,16.17,18.96,14.28,19.26,12.09z"/>
		<path class="st123" d="M19.24,12.07c0.07-0.36,0.11-0.73,0.11-1.1c0-3.18-2.58-5.76-5.76-5.76c-3.18,0-5.76,2.58-5.76,5.76
			c0,0.38,0.04,0.75,0.11,1.1c0.3,2.19,2.53,3.83,5.65,11.59C16.51,16.16,18.94,14.26,19.24,12.07z"/>
		<path class="st124" d="M19.22,12.06c0.07-0.36,0.11-0.73,0.11-1.1c0-3.18-2.58-5.76-5.76-5.76c-3.18,0-5.76,2.58-5.76,5.76
			c0,0.38,0.04,0.75,0.11,1.1c0.3,2.19,2.53,3.83,5.65,11.59C16.48,16.14,18.92,14.25,19.22,12.06z"/>
		<path class="st125" d="M19.19,12.05c0.07-0.36,0.11-0.73,0.11-1.1c0-3.18-2.58-5.76-5.76-5.76c-3.18,0-5.76,2.58-5.76,5.76
			c0,0.38,0.04,0.75,0.11,1.1c0.3,2.19,2.53,3.83,5.65,11.59C16.46,16.13,18.89,14.24,19.19,12.05z"/>
		<path class="st126" d="M19.17,12.03c0.07-0.36,0.11-0.73,0.11-1.1c0-3.18-2.58-5.76-5.76-5.76c-3.18,0-5.76,2.58-5.76,5.76
			c0,0.38,0.04,0.75,0.11,1.1c0.3,2.19,2.53,3.83,5.65,11.59C16.44,16.12,18.87,14.22,19.17,12.03z"/>
		<path class="st127" d="M19.15,12.02c0.07-0.36,0.11-0.73,0.11-1.1c0-3.18-2.58-5.76-5.76-5.76c-3.18,0-5.76,2.58-5.76,5.76
			c0,0.38,0.04,0.75,0.11,1.1c0.3,2.19,2.53,3.83,5.65,11.59C16.42,16.1,18.85,14.21,19.15,12.02z"/>
		<path class="st128" d="M19.13,12.01c0.07-0.36,0.11-0.73,0.11-1.1c0-3.18-2.58-5.76-5.76-5.76c-3.18,0-5.76,2.58-5.76,5.76
			c0,0.38,0.04,0.75,0.11,1.1c0.3,2.19,2.53,3.83,5.65,11.59C16.39,16.09,18.83,14.2,19.13,12.01z"/>
		<path class="st129" d="M19.1,11.99c0.07-0.36,0.11-0.73,0.11-1.1c0-3.18-2.58-5.76-5.76-5.76c-3.18,0-5.76,2.58-5.76,5.76
			c0,0.38,0.04,0.75,0.11,1.1c0.3,2.19,2.53,3.83,5.65,11.59C16.37,16.08,18.81,14.18,19.1,11.99z"/>
		<path class="st130" d="M19.08,11.98c0.07-0.36,0.11-0.73,0.11-1.1c0-3.18-2.58-5.76-5.76-5.76c-3.18,0-5.76,2.58-5.76,5.76
			c0,0.38,0.04,0.75,0.11,1.1c0.3,2.19,2.53,3.83,5.65,11.59C16.35,16.06,18.78,14.17,19.08,11.98z"/>
		<path class="st131" d="M19.06,11.97c0.07-0.36,0.11-0.73,0.11-1.1c0-3.18-2.58-5.76-5.76-5.76c-3.18,0-5.76,2.58-5.76,5.76
			c0,0.38,0.04,0.75,0.11,1.1c0.3,2.19,2.53,3.83,5.65,11.59C16.33,16.05,18.76,14.16,19.06,11.97z"/>
		<path class="st132" d="M19.04,11.95c0.07-0.36,0.11-0.73,0.11-1.1c0-3.18-2.58-5.76-5.76-5.76c-3.18,0-5.76,2.58-5.76,5.76
			c0,0.38,0.04,0.75,0.11,1.1c0.3,2.19,2.53,3.83,5.65,11.59C16.31,16.04,18.74,14.14,19.04,11.95z"/>
		<path class="st133" d="M19.01,11.94c0.07-0.36,0.11-0.73,0.11-1.1c0-3.18-2.58-5.76-5.76-5.76c-3.18,0-5.76,2.58-5.76,5.76
			c0,0.38,0.04,0.75,0.11,1.1c0.3,2.19,2.53,3.83,5.65,11.59C16.28,16.02,18.72,14.13,19.01,11.94z"/>
		<path class="st134" d="M18.99,11.93c0.07-0.36,0.11-0.73,0.11-1.1c0-3.18-2.58-5.76-5.76-5.76c-3.18,0-5.76,2.58-5.76,5.76
			c0,0.38,0.04,0.75,0.11,1.1c0.3,2.19,2.53,3.83,5.65,11.59C16.26,16.01,18.69,14.12,18.99,11.93z"/>
		<path class="st135" d="M18.97,11.91c0.07-0.36,0.11-0.73,0.11-1.1c0-3.18-2.58-5.76-5.76-5.76c-3.18,0-5.76,2.58-5.76,5.76
			c0,0.38,0.04,0.75,0.11,1.1c0.3,2.19,2.53,3.83,5.65,11.59C16.24,16,18.67,14.1,18.97,11.91z"/>
		<path class="st136" d="M18.95,11.9c0.07-0.36,0.11-0.73,0.11-1.1c0-3.18-2.58-5.76-5.76-5.76c-3.18,0-5.76,2.58-5.76,5.76
			c0,0.38,0.04,0.75,0.11,1.1c0.3,2.19,2.53,3.83,5.65,11.59C16.22,15.98,18.65,14.09,18.95,11.9z"/>
		<path class="st137" d="M18.93,11.89c0.07-0.36,0.11-0.73,0.11-1.1c0-3.18-2.58-5.76-5.76-5.76c-3.18,0-5.76,2.58-5.76,5.76
			c0,0.38,0.04,0.75,0.11,1.1c0.3,2.19,2.53,3.83,5.65,11.59C16.19,15.97,18.63,14.08,18.93,11.89z"/>
		<path class="st138" d="M18.9,11.87c0.07-0.36,0.11-0.73,0.11-1.1c0-3.18-2.58-5.76-5.76-5.76c-3.18,0-5.76,2.58-5.76,5.76
			c0,0.38,0.04,0.75,0.11,1.1c0.3,2.19,2.53,3.83,5.65,11.59C16.17,15.96,18.6,14.06,18.9,11.87z"/>
		<path class="st139" d="M18.88,11.86c0.07-0.36,0.11-0.73,0.11-1.1c0-3.18-2.58-5.76-5.76-5.76c-3.18,0-5.76,2.58-5.76,5.76
			c0,0.38,0.04,0.75,0.11,1.1c0.3,2.19,2.53,3.83,5.65,11.59C16.15,15.94,18.58,14.05,18.88,11.86z"/>
		<path class="st140" d="M18.86,11.85c0.07-0.36,0.11-0.73,0.11-1.1c0-3.18-2.58-5.76-5.76-5.76c-3.18,0-5.76,2.58-5.76,5.76
			c0,0.38,0.04,0.75,0.11,1.1c0.3,2.19,2.53,3.83,5.65,11.59C16.13,15.93,18.56,14.04,18.86,11.85z"/>
		<path class="st141" d="M18.84,11.83c0.07-0.36,0.11-0.73,0.11-1.1c0-3.18-2.58-5.76-5.76-5.76c-3.18,0-5.76,2.58-5.76,5.76
			c0,0.38,0.04,0.75,0.11,1.1c0.3,2.19,2.53,3.83,5.65,11.59C16.1,15.92,18.54,14.02,18.84,11.83z"/>
		<path class="st142" d="M18.81,11.82c0.07-0.36,0.11-0.73,0.11-1.1c0-3.18-2.58-5.76-5.76-5.76c-3.18,0-5.76,2.58-5.76,5.76
			c0,0.38,0.04,0.75,0.11,1.1c0.3,2.19,2.53,3.83,5.65,11.59C16.08,15.9,18.52,14.01,18.81,11.82z"/>
		<path class="st143" d="M18.79,11.81c0.07-0.36,0.11-0.73,0.11-1.1c0-3.18-2.58-5.76-5.76-5.76c-3.18,0-5.76,2.58-5.76,5.76
			c0,0.38,0.04,0.75,0.11,1.1c0.3,2.19,2.53,3.83,5.65,11.59C16.06,15.89,18.49,13.99,18.79,11.81z"/>
		<path class="st144" d="M18.77,11.79c0.07-0.36,0.11-0.73,0.11-1.1c0-3.18-2.58-5.76-5.76-5.76c-3.18,0-5.76,2.58-5.76,5.76
			c0,0.38,0.04,0.75,0.11,1.1c0.3,2.19,2.53,3.83,5.65,11.59C16.04,15.88,18.47,13.98,18.77,11.79z"/>
		<path class="st145" d="M18.75,11.78c0.07-0.36,0.11-0.73,0.11-1.1c0-3.18-2.58-5.76-5.76-5.76c-3.18,0-5.76,2.58-5.76,5.76
			c0,0.38,0.04,0.75,0.11,1.1c0.3,2.19,2.53,3.83,5.65,11.59C16.02,15.86,18.45,13.97,18.75,11.78z"/>
		<path class="st146" d="M18.72,11.77c0.07-0.36,0.11-0.73,0.11-1.1c0-3.18-2.58-5.76-5.76-5.76c-3.18,0-5.76,2.58-5.76,5.76
			c0,0.38,0.04,0.75,0.11,1.1c0.3,2.19,2.53,3.83,5.65,11.59C15.99,15.85,18.43,13.95,18.72,11.77z"/>
		<path class="st147" d="M18.7,11.75c0.07-0.36,0.11-0.73,0.11-1.1c0-3.18-2.58-5.76-5.76-5.76c-3.18,0-5.76,2.58-5.76,5.76
			c0,0.38,0.04,0.75,0.11,1.1c0.3,2.19,2.53,3.83,5.65,11.59C15.97,15.84,18.4,13.94,18.7,11.75z"/>
		<path class="st148" d="M18.68,11.74c0.07-0.36,0.11-0.73,0.11-1.1c0-3.18-2.58-5.76-5.76-5.76c-3.18,0-5.76,2.58-5.76,5.76
			c0,0.38,0.04,0.75,0.11,1.1c0.3,2.19,2.53,3.83,5.65,11.59C15.95,15.82,18.38,13.93,18.68,11.74z"/>
		<path class="st149" d="M18.66,11.73c0.07-0.36,0.11-0.73,0.11-1.1c0-3.18-2.58-5.76-5.76-5.76c-3.18,0-5.76,2.58-5.76,5.76
			c0,0.38,0.04,0.75,0.11,1.1c0.3,2.19,2.53,3.83,5.65,11.59C15.93,15.81,18.36,13.91,18.66,11.73z"/>
		<path class="st150" d="M18.64,11.71c0.07-0.36,0.11-0.73,0.11-1.1c0-3.18-2.58-5.76-5.76-5.76c-3.18,0-5.76,2.58-5.76,5.76
			c0,0.38,0.04,0.75,0.11,1.1c0.3,2.19,2.53,3.83,5.65,11.59C15.9,15.8,18.34,13.9,18.64,11.71z"/>
		<path class="st151" d="M18.61,11.7c0.07-0.36,0.11-0.73,0.11-1.1c0-3.18-2.58-5.76-5.76-5.76c-3.18,0-5.76,2.58-5.76,5.76
			c0,0.38,0.04,0.75,0.11,1.1c0.3,2.19,2.53,3.83,5.65,11.59C15.88,15.78,18.31,13.89,18.61,11.7z"/>
		<path class="st152" d="M18.59,11.69c0.07-0.36,0.11-0.73,0.11-1.1c0-3.18-2.58-5.76-5.76-5.76c-3.18,0-5.76,2.58-5.76,5.76
			c0,0.38,0.04,0.75,0.11,1.1c0.3,2.19,2.53,3.83,5.65,11.59C15.86,15.77,18.29,13.87,18.59,11.69z"/>
		<path class="st153" d="M18.57,11.67c0.07-0.36,0.11-0.73,0.11-1.1c0-3.18-2.58-5.76-5.76-5.76c-3.18,0-5.76,2.58-5.76,5.76
			c0,0.38,0.04,0.75,0.11,1.1c0.3,2.19,2.53,3.83,5.65,11.59C15.84,15.76,18.27,13.86,18.57,11.67z"/>
		<path class="st154" d="M18.55,11.66c0.07-0.36,0.11-0.73,0.11-1.1c0-3.18-2.58-5.76-5.76-5.76c-3.18,0-5.76,2.58-5.76,5.76
			c0,0.38,0.04,0.75,0.11,1.1c0.3,2.19,2.53,3.83,5.65,11.59C15.81,15.74,18.25,13.85,18.55,11.66z"/>
		<path class="st155" d="M18.52,11.65c0.07-0.36,0.11-0.73,0.11-1.1c0-3.18-2.58-5.76-5.76-5.76c-3.18,0-5.76,2.58-5.76,5.76
			c0,0.38,0.04,0.75,0.11,1.1c0.3,2.19,2.53,3.83,5.65,11.59C15.79,15.73,18.23,13.83,18.52,11.65z"/>
		<path class="st156" d="M18.5,11.63c0.07-0.36,0.11-0.73,0.11-1.1c0-3.18-2.58-5.76-5.76-5.76c-3.18,0-5.76,2.58-5.76,5.76
			c0,0.38,0.04,0.75,0.11,1.1c0.3,2.19,2.53,3.83,5.65,11.59C15.77,15.72,18.2,13.82,18.5,11.63z"/>
		<path class="st157" d="M18.48,11.62c0.07-0.36,0.11-0.73,0.11-1.1c0-3.18-2.58-5.76-5.76-5.76c-3.18,0-5.76,2.58-5.76,5.76
			c0,0.38,0.04,0.75,0.11,1.1c0.3,2.19,2.53,3.83,5.65,11.59C15.75,15.7,18.18,13.81,18.48,11.62z"/>
		<path class="st158" d="M18.46,11.61c0.07-0.36,0.11-0.73,0.11-1.1c0-3.18-2.58-5.76-5.76-5.76c-3.18,0-5.76,2.58-5.76,5.76
			c0,0.38,0.04,0.75,0.11,1.1c0.3,2.19,2.53,3.83,5.65,11.59C15.73,15.69,18.16,13.79,18.46,11.61z"/>
		<path class="st159" d="M18.43,11.59c0.07-0.36,0.11-0.73,0.11-1.1c0-3.18-2.58-5.76-5.76-5.76c-3.18,0-5.76,2.58-5.76,5.76
			c0,0.38,0.04,0.75,0.11,1.1c0.3,2.19,2.53,3.83,5.65,11.59C15.7,15.68,18.14,13.78,18.43,11.59z"/>
		<path class="st160" d="M18.41,11.58c0.07-0.36,0.11-0.73,0.11-1.1c0-3.18-2.58-5.76-5.76-5.76C9.58,4.72,7,7.29,7,10.47
			c0,0.38,0.04,0.75,0.11,1.1c0.3,2.19,2.53,3.83,5.65,11.59C15.68,15.66,18.11,13.77,18.41,11.58z"/>
		<path class="st161" d="M18.39,11.57c0.07-0.36,0.11-0.73,0.11-1.1c0-3.18-2.58-5.76-5.76-5.76c-3.18,0-5.76,2.58-5.76,5.76
			c0,0.38,0.04,0.75,0.11,1.1c0.3,2.19,2.53,3.83,5.65,11.59C15.66,15.65,18.09,13.75,18.39,11.57z"/>
		<path class="st162" d="M18.37,11.55c0.07-0.36,0.11-0.73,0.11-1.1c0-3.18-2.58-5.76-5.76-5.76c-3.18,0-5.76,2.58-5.76,5.76
			c0,0.38,0.04,0.75,0.11,1.1c0.3,2.19,2.53,3.83,5.65,11.59C15.64,15.63,18.07,13.74,18.37,11.55z"/>
		<path class="st163" d="M18.35,11.54c0.07-0.36,0.11-0.73,0.11-1.1c0-3.18-2.58-5.76-5.76-5.76c-3.18,0-5.76,2.58-5.76,5.76
			c0,0.38,0.04,0.75,0.11,1.1c0.3,2.19,2.53,3.83,5.65,11.59C15.61,15.62,18.05,13.73,18.35,11.54z"/>
		<path class="st164" d="M18.32,11.53c0.07-0.36,0.11-0.73,0.11-1.1c0-3.18-2.58-5.76-5.76-5.76c-3.18,0-5.76,2.58-5.76,5.76
			c0,0.38,0.04,0.75,0.11,1.1c0.3,2.19,2.53,3.83,5.65,11.59C15.59,15.61,18.03,13.71,18.32,11.53z"/>
		<path class="st165" d="M18.3,11.51c0.07-0.36,0.11-0.73,0.11-1.1c0-3.18-2.58-5.76-5.76-5.76c-3.18,0-5.76,2.58-5.76,5.76
			c0,0.38,0.04,0.75,0.11,1.1c0.3,2.19,2.53,3.83,5.65,11.59C15.57,15.59,18,13.7,18.3,11.51z"/>
		<path class="st166" d="M18.28,11.5c0.07-0.36,0.11-0.73,0.11-1.1c0-3.18-2.58-5.76-5.76-5.76c-3.18,0-5.76,2.58-5.76,5.76
			c0,0.38,0.04,0.75,0.11,1.1c0.3,2.19,2.53,3.83,5.65,11.59C15.55,15.58,17.98,13.69,18.28,11.5z"/>
		<path class="st167" d="M18.26,11.49c0.07-0.36,0.11-0.73,0.11-1.1c0-3.18-2.58-5.76-5.76-5.76c-3.18,0-5.76,2.58-5.76,5.76
			c0,0.38,0.04,0.75,0.11,1.1c0.3,2.19,2.53,3.83,5.65,11.59C15.53,15.57,17.96,13.67,18.26,11.49z"/>
		<path class="st168" d="M18.23,11.47c0.07-0.36,0.11-0.73,0.11-1.1c0-3.18-2.58-5.76-5.76-5.76c-3.18,0-5.76,2.58-5.76,5.76
			c0,0.38,0.04,0.75,0.11,1.1c0.3,2.19,2.53,3.83,5.65,11.59C15.5,15.55,17.94,13.66,18.23,11.47z"/>
		<path class="st169" d="M18.21,11.46c0.07-0.36,0.11-0.73,0.11-1.1c0-3.18-2.58-5.76-5.76-5.76c-3.18,0-5.76,2.58-5.76,5.76
			c0,0.38,0.04,0.75,0.11,1.1c0.3,2.19,2.53,3.83,5.65,11.59C15.48,15.54,17.91,13.65,18.21,11.46z"/>
		<path class="st170" d="M18.19,11.45c0.07-0.36,0.11-0.73,0.11-1.1c0-3.18-2.58-5.76-5.76-5.76c-3.18,0-5.76,2.58-5.76,5.76
			c0,0.38,0.04,0.75,0.11,1.1c0.3,2.19,2.53,3.83,5.65,11.59C15.46,15.53,17.89,13.63,18.19,11.45z"/>
		<path class="st171" d="M18.17,11.43c0.07-0.36,0.11-0.73,0.11-1.1c0-3.18-2.58-5.76-5.76-5.76c-3.18,0-5.76,2.58-5.76,5.76
			c0,0.38,0.04,0.75,0.11,1.1c0.3,2.19,2.53,3.83,5.65,11.59C15.44,15.51,17.87,13.62,18.17,11.43z"/>
		<path class="st172" d="M18.15,11.42c0.07-0.36,0.11-0.73,0.11-1.1c0-3.18-2.58-5.76-5.76-5.76c-3.18,0-5.76,2.58-5.76,5.76
			c0,0.38,0.04,0.75,0.11,1.1c0.3,2.19,2.53,3.83,5.65,11.59C15.41,15.5,17.85,13.61,18.15,11.42z"/>
		<path class="st173" d="M18.12,11.41c0.07-0.36,0.11-0.73,0.11-1.1c0-3.18-2.58-5.76-5.76-5.76c-3.18,0-5.76,2.58-5.76,5.76
			c0,0.38,0.04,0.75,0.11,1.1c0.3,2.19,2.53,3.83,5.65,11.59C15.39,15.49,17.82,13.59,18.12,11.41z"/>
		<path class="st174" d="M18.1,11.39c0.07-0.36,0.11-0.73,0.11-1.1c0-3.18-2.58-5.76-5.76-5.76c-3.18,0-5.76,2.58-5.76,5.76
			c0,0.38,0.04,0.75,0.11,1.1c0.3,2.19,2.53,3.83,5.65,11.59C15.37,15.47,17.8,13.58,18.1,11.39z"/>
		<path class="st175" d="M18.08,11.38c0.07-0.36,0.11-0.73,0.11-1.1c0-3.18-2.58-5.76-5.76-5.76c-3.18,0-5.76,2.58-5.76,5.76
			c0,0.38,0.04,0.75,0.11,1.1c0.3,2.19,2.53,3.83,5.65,11.59C15.35,15.46,17.78,13.57,18.08,11.38z"/>
		<path class="st176" d="M18.06,11.36c0.07-0.36,0.11-0.73,0.11-1.1c0-3.18-2.58-5.76-5.76-5.76c-3.18,0-5.76,2.58-5.76,5.76
			c0,0.38,0.04,0.75,0.11,1.1c0.3,2.19,2.53,3.83,5.65,11.59C15.32,15.45,17.76,13.55,18.06,11.36z"/>
		<path class="st177" d="M18.03,11.35c0.07-0.36,0.11-0.73,0.11-1.1c0-3.18-2.58-5.76-5.76-5.76c-3.18,0-5.76,2.58-5.76,5.76
			c0,0.38,0.04,0.75,0.11,1.1c0.3,2.19,2.53,3.83,5.65,11.59C15.3,15.43,17.74,13.54,18.03,11.35z"/>
		<path class="st178" d="M18.01,11.34c0.07-0.36,0.11-0.73,0.11-1.1c0-3.18-2.58-5.76-5.76-5.76c-3.18,0-5.76,2.58-5.76,5.76
			c0,0.38,0.04,0.75,0.11,1.1c0.3,2.19,2.53,3.83,5.65,11.59C15.28,15.42,17.71,13.53,18.01,11.34z"/>
		<path class="st178" d="M17.99,11.32c0.07-0.36,0.11-0.73,0.11-1.1c0-3.18-2.58-5.76-5.76-5.76c-3.18,0-5.76,2.58-5.76,5.76
			c0,0.38,0.04,0.75,0.11,1.1c0.3,2.19,2.53,3.83,5.65,11.59C15.26,15.41,17.69,13.51,17.99,11.32z"/>
		<path class="st179" d="M17.97,11.31c0.07-0.36,0.11-0.73,0.11-1.1c0-3.18-2.58-5.76-5.76-5.76c-3.18,0-5.76,2.58-5.76,5.76
			c0,0.38,0.04,0.75,0.11,1.1c0.3,2.19,2.53,3.83,5.65,11.59C15.24,15.39,17.67,13.5,17.97,11.31z"/>
		<path class="st180" d="M17.94,11.3c0.07-0.36,0.11-0.73,0.11-1.1c0-3.18-2.58-5.76-5.76-5.76c-3.18,0-5.76,2.58-5.76,5.76
			c0,0.38,0.04,0.75,0.11,1.1c0.3,2.19,2.53,3.83,5.65,11.59C15.21,15.38,17.65,13.49,17.94,11.3z"/>
		<path class="st181" d="M17.92,11.28c0.07-0.36,0.11-0.73,0.11-1.1c0-3.18-2.58-5.76-5.76-5.76c-3.18,0-5.76,2.58-5.76,5.76
			c0,0.38,0.04,0.75,0.11,1.1c0.3,2.19,2.53,3.83,5.65,11.59C15.19,15.37,17.62,13.47,17.92,11.28z"/>
		<path class="st182" d="M17.9,11.27c0.07-0.36,0.11-0.73,0.11-1.1c0-3.18-2.58-5.76-5.76-5.76c-3.18,0-5.76,2.58-5.76,5.76
			c0,0.38,0.04,0.75,0.11,1.1c0.3,2.19,2.53,3.83,5.65,11.59C15.17,15.35,17.6,13.46,17.9,11.27z"/>
		<path class="st183" d="M17.88,11.26c0.07-0.36,0.11-0.73,0.11-1.1c0-3.18-2.58-5.76-5.76-5.76c-3.18,0-5.76,2.58-5.76,5.76
			c0,0.38,0.04,0.75,0.11,1.1c0.3,2.19,2.53,3.83,5.65,11.59C15.15,15.34,17.58,13.45,17.88,11.26z"/>
		<path class="st184" d="M17.86,11.24c0.07-0.36,0.11-0.73,0.11-1.1c0-3.18-2.58-5.76-5.76-5.76c-3.18,0-5.76,2.58-5.76,5.76
			c0,0.38,0.04,0.75,0.11,1.1c0.3,2.19,2.53,3.83,5.65,11.59C15.12,15.33,17.56,13.43,17.86,11.24z"/>
		<path class="st185" d="M17.83,11.23c0.07-0.36,0.11-0.73,0.11-1.1c0-3.18-2.58-5.76-5.76-5.76c-3.18,0-5.76,2.58-5.76,5.76
			c0,0.38,0.04,0.75,0.11,1.1c0.3,2.19,2.53,3.83,5.65,11.59C15.1,15.31,17.53,13.42,17.83,11.23z"/>
		<path class="st186" d="M17.81,11.22c0.07-0.36,0.11-0.73,0.11-1.1c0-3.18-2.58-5.76-5.76-5.76c-3.18,0-5.76,2.58-5.76,5.76
			c0,0.38,0.04,0.75,0.11,1.1c0.3,2.19,2.53,3.83,5.65,11.59C15.08,15.3,17.51,13.41,17.81,11.22z"/>
		<path class="st187" d="M17.79,11.2c0.07-0.36,0.11-0.73,0.11-1.1c0-3.18-2.58-5.76-5.76-5.76c-3.18,0-5.76,2.58-5.76,5.76
			c0,0.38,0.04,0.75,0.11,1.1c0.3,2.19,2.53,3.83,5.65,11.59C15.06,15.29,17.49,13.39,17.79,11.2z"/>
		<path class="st188" d="M17.77,11.19c0.07-0.36,0.11-0.73,0.11-1.1c0-3.18-2.58-5.76-5.76-5.76c-3.18,0-5.76,2.58-5.76,5.76
			c0,0.38,0.04,0.75,0.11,1.1c0.3,2.19,2.53,3.83,5.65,11.59C15.03,15.27,17.47,13.38,17.77,11.19z"/>
		<path class="st189" d="M17.74,11.18c0.07-0.36,0.11-0.73,0.11-1.1c0-3.18-2.58-5.76-5.76-5.76c-3.18,0-5.76,2.58-5.76,5.76
			c0,0.38,0.04,0.75,0.11,1.1c0.3,2.19,2.53,3.83,5.65,11.59C15.01,15.26,17.45,13.37,17.74,11.18z"/>
		<path class="st190" d="M17.72,11.16c0.07-0.36,0.11-0.73,0.11-1.1c0-3.18-2.58-5.76-5.76-5.76c-3.18,0-5.76,2.58-5.76,5.76
			c0,0.38,0.04,0.75,0.11,1.1c0.3,2.19,2.53,3.83,5.65,11.59C14.99,15.25,17.42,13.35,17.72,11.16z"/>
		<path class="st191" d="M17.7,11.15c0.07-0.36,0.11-0.73,0.11-1.1c0-3.18-2.58-5.76-5.76-5.76c-3.18,0-5.76,2.58-5.76,5.76
			c0,0.38,0.04,0.75,0.11,1.1c0.3,2.19,2.53,3.83,5.65,11.59C14.97,15.23,17.4,13.34,17.7,11.15z"/>
		<path class="st192" d="M17.68,11.14c0.07-0.36,0.11-0.73,0.11-1.1c0-3.18-2.58-5.76-5.76-5.76c-3.18,0-5.76,2.58-5.76,5.76
			c0,0.38,0.04,0.75,0.11,1.1c0.3,2.19,2.53,3.83,5.65,11.59C14.95,15.22,17.38,13.33,17.68,11.14z"/>
		<path class="st193" d="M17.65,11.12c0.07-0.36,0.11-0.73,0.11-1.1c0-3.18-2.58-5.76-5.76-5.76c-3.18,0-5.76,2.58-5.76,5.76
			c0,0.38,0.04,0.75,0.11,1.1c0.3,2.19,2.53,3.83,5.65,11.59C14.92,15.21,17.36,13.31,17.65,11.12z"/>
		<path class="st194" d="M17.63,11.11c0.07-0.36,0.11-0.73,0.11-1.1c0-3.18-2.58-5.76-5.76-5.76c-3.18,0-5.76,2.58-5.76,5.76
			c0,0.38,0.04,0.75,0.11,1.1c0.3,2.19,2.53,3.83,5.65,11.59C14.9,15.19,17.33,13.3,17.63,11.11z"/>
		<path class="st195" d="M17.61,11.1c0.07-0.36,0.11-0.73,0.11-1.1c0-3.18-2.58-5.76-5.76-5.76c-3.18,0-5.76,2.58-5.76,5.76
			c0,0.38,0.04,0.75,0.11,1.1c0.3,2.19,2.53,3.83,5.65,11.59C14.88,15.18,17.31,13.29,17.61,11.1z"/>
		<path class="st196" d="M17.59,11.08c0.07-0.36,0.11-0.73,0.11-1.1c0-3.18-2.58-5.76-5.76-5.76c-3.18,0-5.76,2.58-5.76,5.76
			c0,0.38,0.04,0.75,0.11,1.1c0.3,2.19,2.53,3.83,5.65,11.59C14.86,15.17,17.29,13.27,17.59,11.08z"/>
		<path class="st197" d="M17.57,11.07c0.07-0.36,0.11-0.73,0.11-1.1c0-3.18-2.58-5.76-5.76-5.76c-3.18,0-5.76,2.58-5.76,5.76
			c0,0.38,0.04,0.75,0.11,1.1c0.3,2.19,2.53,3.83,5.65,11.59C14.83,15.15,17.27,13.26,17.57,11.07z"/>
		<path class="st198" d="M17.54,11.06c0.07-0.36,0.11-0.73,0.11-1.1c0-3.18-2.58-5.76-5.76-5.76c-3.18,0-5.76,2.58-5.76,5.76
			c0,0.38,0.04,0.75,0.11,1.1c0.3,2.19,2.53,3.83,5.65,11.59C14.81,15.14,17.24,13.25,17.54,11.06z"/>
		<path class="st199" d="M17.52,11.04c0.07-0.36,0.11-0.73,0.11-1.1c0-3.18-2.58-5.76-5.76-5.76c-3.18,0-5.76,2.58-5.76,5.76
			c0,0.38,0.04,0.75,0.11,1.1c0.3,2.19,2.53,3.83,5.65,11.59C14.79,15.13,17.22,13.23,17.52,11.04z"/>
		<path class="st200" d="M17.5,11.03c0.07-0.36,0.11-0.73,0.11-1.1c0-3.18-2.58-5.76-5.76-5.76c-3.18,0-5.76,2.58-5.76,5.76
			c0,0.38,0.04,0.75,0.11,1.1c0.3,2.19,2.53,3.83,5.65,11.59C14.77,15.11,17.2,13.22,17.5,11.03z"/>
		<path class="st201" d="M17.48,11.02c0.07-0.36,0.11-0.73,0.11-1.1c0-3.18-2.58-5.76-5.76-5.76c-3.18,0-5.76,2.58-5.76,5.76
			c0,0.38,0.04,0.75,0.11,1.1c0.3,2.19,2.53,3.83,5.65,11.59C14.74,15.1,17.18,13.21,17.48,11.02z"/>
		<path class="st202" d="M17.45,11c0.07-0.36,0.11-0.73,0.11-1.1c0-3.18-2.58-5.76-5.76-5.76c-3.18,0-5.76,2.58-5.76,5.76
			c0,0.38,0.04,0.75,0.11,1.1c0.3,2.19,2.53,3.83,5.65,11.59C14.72,15.09,17.16,13.19,17.45,11z"/>
		<path class="st203" d="M17.43,10.99c0.07-0.36,0.11-0.73,0.11-1.1c0-3.18-2.58-5.76-5.76-5.76c-3.18,0-5.76,2.58-5.76,5.76
			c0,0.38,0.04,0.75,0.11,1.1c0.3,2.19,2.53,3.83,5.65,11.59C14.7,15.07,17.13,13.18,17.43,10.99z"/>
		<path class="st204" d="M17.41,10.98c0.07-0.36,0.11-0.73,0.11-1.1c0-3.18-2.58-5.76-5.76-5.76C8.58,4.11,6,6.69,6,9.87
			c0,0.38,0.04,0.75,0.11,1.1c0.3,2.19,2.53,3.83,5.65,11.59C14.68,15.06,17.11,13.17,17.41,10.98z"/>
		<path class="st205" d="M17.39,10.96c0.07-0.36,0.11-0.73,0.11-1.1c0-3.18-2.58-5.76-5.76-5.76c-3.18,0-5.76,2.58-5.76,5.76
			c0,0.38,0.04,0.75,0.11,1.1c0.3,2.19,2.53,3.83,5.65,11.59C14.66,15.05,17.09,13.15,17.39,10.96z"/>
		<path class="st206" d="M17.36,10.95c0.07-0.36,0.11-0.73,0.11-1.1c0-3.18-2.58-5.76-5.76-5.76c-3.18,0-5.76,2.58-5.76,5.76
			c0,0.38,0.04,0.75,0.11,1.1c0.3,2.19,2.53,3.83,5.65,11.59C14.63,15.03,17.07,13.14,17.36,10.95z"/>
		<path class="st207" d="M17.34,10.94c0.07-0.36,0.11-0.73,0.11-1.1c0-3.18-2.58-5.76-5.76-5.76c-3.18,0-5.76,2.58-5.76,5.76
			c0,0.38,0.04,0.75,0.11,1.1c0.3,2.19,2.53,3.83,5.65,11.59C14.61,15.02,17.04,13.13,17.34,10.94z"/>
		<path class="st208" d="M17.32,10.92c0.07-0.36,0.11-0.73,0.11-1.1c0-3.18-2.58-5.76-5.76-5.76c-3.18,0-5.76,2.58-5.76,5.76
			c0,0.38,0.04,0.75,0.11,1.1c0.3,2.19,2.53,3.83,5.65,11.59C14.59,15.01,17.02,13.11,17.32,10.92z"/>
		<path class="st209" d="M17.3,10.91c0.07-0.36,0.11-0.73,0.11-1.1c0-3.18-2.58-5.76-5.76-5.76c-3.18,0-5.76,2.58-5.76,5.76
			c0,0.38,0.04,0.75,0.11,1.1c0.3,2.19,2.53,3.83,5.65,11.59C14.57,14.99,17,13.1,17.3,10.91z"/>
		<path class="st210" d="M17.28,10.9c0.07-0.36,0.11-0.73,0.11-1.1c0-3.18-2.58-5.76-5.76-5.76c-3.18,0-5.76,2.58-5.76,5.76
			c0,0.38,0.04,0.75,0.11,1.1c0.3,2.19,2.53,3.83,5.65,11.59C14.54,14.98,16.98,13.09,17.28,10.9z"/>
		<path class="st211" d="M17.25,10.88c0.07-0.36,0.11-0.73,0.11-1.1c0-3.18-2.58-5.76-5.76-5.76c-3.18,0-5.76,2.58-5.76,5.76
			c0,0.38,0.04,0.75,0.11,1.1c0.3,2.19,2.53,3.83,5.65,11.59C14.52,14.97,16.96,13.07,17.25,10.88z"/>
		<path class="st211" d="M17.23,10.87c0.07-0.36,0.11-0.73,0.11-1.1c0-3.18-2.58-5.76-5.76-5.76c-3.18,0-5.76,2.58-5.76,5.76
			c0,0.38,0.04,0.75,0.11,1.1c0.3,2.19,2.53,3.83,5.65,11.59C14.5,14.95,16.93,13.06,17.23,10.87z"/>
		<path class="st212" d="M17.21,10.86c0.07-0.36,0.11-0.73,0.11-1.1c0-3.18-2.58-5.76-5.76-5.76c-3.18,0-5.76,2.58-5.76,5.76
			c0,0.38,0.04,0.75,0.11,1.1c0.3,2.19,2.53,3.83,5.65,11.59C14.48,14.94,16.91,13.05,17.21,10.86z"/>
		<path class="st213" d="M17.19,10.84c0.07-0.36,0.11-0.73,0.11-1.1c0-3.18-2.58-5.76-5.76-5.76c-3.18,0-5.76,2.58-5.76,5.76
			c0,0.38,0.04,0.75,0.11,1.1c0.3,2.19,2.53,3.83,5.65,11.59C14.46,14.93,16.89,13.03,17.19,10.84z"/>
		<path class="st214" d="M17.16,10.83c0.07-0.36,0.11-0.73,0.11-1.1c0-3.18-2.58-5.76-5.76-5.76c-3.18,0-5.76,2.58-5.76,5.76
			c0,0.38,0.04,0.75,0.11,1.1c0.3,2.19,2.53,3.83,5.65,11.59C14.43,14.91,16.87,13.02,17.16,10.83z"/>
		<path class="st215" d="M17.14,10.82c0.07-0.36,0.11-0.73,0.11-1.1c0-3.18-2.58-5.76-5.76-5.76c-3.18,0-5.76,2.58-5.76,5.76
			c0,0.38,0.04,0.75,0.11,1.1c0.3,2.19,2.53,3.83,5.65,11.59C14.41,14.9,16.84,13.01,17.14,10.82z"/>
		<path class="st216" d="M17.12,10.8c0.07-0.36,0.11-0.73,0.11-1.1c0-3.18-2.58-5.76-5.76-5.76c-3.18,0-5.76,2.58-5.76,5.76
			c0,0.38,0.04,0.75,0.11,1.1c0.3,2.19,2.53,3.83,5.65,11.59C14.39,14.89,16.82,12.99,17.12,10.8z"/>
		<path class="st217" d="M17.1,10.79c0.07-0.36,0.11-0.73,0.11-1.1c0-3.18-2.58-5.76-5.76-5.76c-3.18,0-5.76,2.58-5.76,5.76
			c0,0.38,0.04,0.75,0.11,1.1c0.3,2.19,2.53,3.83,5.65,11.59C14.37,14.87,16.8,12.98,17.1,10.79z"/>
		<path class="st218" d="M17.07,10.78c0.07-0.36,0.11-0.73,0.11-1.1c0-3.18-2.58-5.76-5.76-5.76c-3.18,0-5.76,2.58-5.76,5.76
			c0,0.38,0.04,0.75,0.11,1.1c0.3,2.19,2.53,3.83,5.65,11.59C14.34,14.86,16.78,12.97,17.07,10.78z"/>
		<path class="st219" d="M17.05,10.76c0.07-0.36,0.11-0.73,0.11-1.1c0-3.18-2.58-5.76-5.76-5.76c-3.18,0-5.76,2.58-5.76,5.76
			c0,0.38,0.04,0.75,0.11,1.1c0.3,2.19,2.53,3.83,5.65,11.59C14.32,14.85,16.75,12.95,17.05,10.76z"/>
		<path class="st219" d="M17.03,10.75c0.07-0.36,0.11-0.73,0.11-1.1c0-3.18-2.58-5.76-5.76-5.76c-3.18,0-5.76,2.58-5.76,5.76
			c0,0.38,0.04,0.75,0.11,1.1c0.3,2.19,2.53,3.83,5.65,11.59C14.3,14.83,16.73,12.94,17.03,10.75z"/>
		<path class="st220" d="M17.01,10.74c0.07-0.36,0.11-0.73,0.11-1.1c0-3.18-2.58-5.76-5.76-5.76c-3.18,0-5.76,2.58-5.76,5.76
			c0,0.38,0.04,0.75,0.11,1.1c0.3,2.19,2.53,3.83,5.65,11.59C14.28,14.82,16.71,12.92,17.01,10.74z"/>
		<path class="st221" d="M16.99,10.72c0.07-0.36,0.11-0.73,0.11-1.1c0-3.18-2.58-5.76-5.76-5.76c-3.18,0-5.76,2.58-5.76,5.76
			c0,0.38,0.04,0.75,0.11,1.1c0.3,2.19,2.53,3.83,5.65,11.59C14.25,14.81,16.69,12.91,16.99,10.72z"/>
		<path class="st222" d="M16.96,10.71c0.07-0.36,0.11-0.73,0.11-1.1c0-3.18-2.58-5.76-5.76-5.76c-3.18,0-5.76,2.58-5.76,5.76
			c0,0.38,0.04,0.75,0.11,1.1c0.3,2.19,2.53,3.83,5.65,11.59C14.23,14.79,16.67,12.9,16.96,10.71z"/>
		<path class="st223" d="M16.94,10.7c0.07-0.36,0.11-0.73,0.11-1.1c0-3.18-2.58-5.76-5.76-5.76c-3.18,0-5.76,2.58-5.76,5.76
			c0,0.38,0.04,0.75,0.11,1.1c0.3,2.19,2.53,3.83,5.65,11.59C14.21,14.78,16.64,12.88,16.94,10.7z"/>
		<path class="st224" d="M16.92,10.68c0.07-0.36,0.11-0.73,0.11-1.1c0-3.18-2.58-5.76-5.76-5.76c-3.18,0-5.76,2.58-5.76,5.76
			c0,0.38,0.04,0.75,0.11,1.1c0.3,2.19,2.53,3.83,5.65,11.59C14.19,14.77,16.62,12.87,16.92,10.68z"/>
		<path class="st225" d="M16.9,10.67C16.97,10.31,17,9.94,17,9.56c0-3.18-2.58-5.76-5.76-5.76c-3.18,0-5.76,2.58-5.76,5.76
			c0,0.38,0.04,0.75,0.11,1.1c0.3,2.19,2.53,3.83,5.65,11.59C14.17,14.75,16.6,12.86,16.9,10.67z"/>
		<path class="st226" d="M16.87,10.66c0.07-0.36,0.11-0.73,0.11-1.1c0-3.18-2.58-5.76-5.76-5.76c-3.18,0-5.76,2.58-5.76,5.76
			c0,0.38,0.04,0.75,0.11,1.1c0.3,2.19,2.53,3.83,5.65,11.59C14.14,14.74,16.58,12.84,16.87,10.66z"/>
		<path class="st227" d="M16.85,10.64c0.07-0.36,0.11-0.73,0.11-1.1c0-3.18-2.58-5.76-5.76-5.76c-3.18,0-5.76,2.58-5.76,5.76
			c0,0.38,0.04,0.75,0.11,1.1c0.3,2.19,2.53,3.83,5.65,11.59C14.12,14.73,16.55,12.83,16.85,10.64z"/>
		<path class="st228" d="M16.83,10.63c0.07-0.36,0.11-0.73,0.11-1.1c0-3.18-2.58-5.76-5.76-5.76C8,3.77,5.42,6.34,5.42,9.52
			c0,0.38,0.04,0.75,0.11,1.1c0.3,2.19,2.53,3.83,5.65,11.59C14.1,14.71,16.53,12.82,16.83,10.63z"/>
		<path class="st229" d="M16.81,10.62c0.07-0.36,0.11-0.73,0.11-1.1c0-3.18-2.58-5.76-5.76-5.76c-3.18,0-5.76,2.58-5.76,5.76
			c0,0.38,0.04,0.75,0.11,1.1c0.3,2.19,2.53,3.83,5.65,11.59C14.08,14.7,16.51,12.8,16.81,10.62z"/>
		<path class="st230" d="M16.79,10.6c0.07-0.36,0.11-0.73,0.11-1.1c0-3.18-2.58-5.76-5.76-5.76c-3.18,0-5.76,2.58-5.76,5.76
			c0,0.38,0.04,0.75,0.11,1.1c0.3,2.19,2.53,3.83,5.65,11.59C14.05,14.69,16.49,12.79,16.79,10.6z"/>
		<path class="st231" d="M16.76,10.59c0.07-0.36,0.11-0.73,0.11-1.1c0-3.18-2.58-5.76-5.76-5.76c-3.18,0-5.76,2.58-5.76,5.76
			c0,0.38,0.04,0.75,0.11,1.1c0.3,2.19,2.53,3.83,5.65,11.59C14.03,14.67,16.46,12.78,16.76,10.59z"/>
		<path class="st232" d="M16.74,10.58c0.07-0.36,0.11-0.73,0.11-1.1c0-3.18-2.58-5.76-5.76-5.76c-3.18,0-5.76,2.58-5.76,5.76
			c0,0.38,0.04,0.75,0.11,1.1c0.3,2.19,2.53,3.83,5.65,11.59C14.01,14.66,16.44,12.76,16.74,10.58z"/>
		<path class="st233" d="M16.72,10.56c0.07-0.36,0.11-0.73,0.11-1.1c0-3.18-2.58-5.76-5.76-5.76c-3.18,0-5.76,2.58-5.76,5.76
			c0,0.38,0.04,0.75,0.11,1.1c0.3,2.19,2.53,3.83,5.65,11.59C13.99,14.65,16.42,12.75,16.72,10.56z"/>
		<path class="st234" d="M16.7,10.55c0.07-0.36,0.11-0.73,0.11-1.1c0-3.18-2.58-5.76-5.76-5.76c-3.18,0-5.76,2.58-5.76,5.76
			c0,0.38,0.04,0.75,0.11,1.1c0.3,2.19,2.53,3.83,5.65,11.59C13.96,14.63,16.4,12.74,16.7,10.55z"/>
		<path class="st234" d="M16.67,10.54c0.07-0.36,0.11-0.73,0.11-1.1c0-3.18-2.58-5.76-5.76-5.76c-3.18,0-5.76,2.58-5.76,5.76
			c0,0.38,0.04,0.75,0.11,1.1c0.3,2.19,2.53,3.83,5.65,11.59C13.94,14.62,16.38,12.72,16.67,10.54z"/>
		<path class="st235" d="M16.65,10.52c0.07-0.36,0.11-0.73,0.11-1.1c0-3.18-2.58-5.76-5.76-5.76c-3.18,0-5.76,2.58-5.76,5.76
			c0,0.38,0.04,0.75,0.11,1.1c0.3,2.19,2.53,3.83,5.65,11.59C13.92,14.6,16.35,12.71,16.65,10.52z"/>
		<path class="st235" d="M16.63,10.51c0.07-0.36,0.11-0.73,0.11-1.1c0-3.18-2.58-5.76-5.76-5.76c-3.18,0-5.76,2.58-5.76,5.76
			c0,0.38,0.04,0.75,0.11,1.1c0.3,2.19,2.53,3.83,5.65,11.59C13.9,14.59,16.33,12.7,16.63,10.51z"/>
		<path class="st236" d="M16.61,10.5c0.07-0.36,0.11-0.73,0.11-1.1c0-3.18-2.58-5.76-5.76-5.76c-3.18,0-5.76,2.58-5.76,5.76
			c0,0.38,0.04,0.75,0.11,1.1c0.3,2.19,2.53,3.83,5.65,11.59C13.88,14.58,16.31,12.68,16.61,10.5z"/>
		<path class="st236" d="M16.58,10.48c0.07-0.36,0.11-0.73,0.11-1.1c0-3.18-2.58-5.76-5.76-5.76c-3.18,0-5.76,2.58-5.76,5.76
			c0,0.38,0.04,0.75,0.11,1.1c0.3,2.19,2.53,3.83,5.65,11.59C13.85,14.56,16.29,12.67,16.58,10.48z"/>
		<path class="st237" d="M16.56,10.47c0.07-0.36,0.11-0.73,0.11-1.1c0-3.18-2.58-5.76-5.76-5.76c-3.18,0-5.76,2.58-5.76,5.76
			c0,0.38,0.04,0.75,0.11,1.1c0.3,2.19,2.53,3.83,5.65,11.59C13.83,14.55,16.26,12.66,16.56,10.47z"/>
		<path class="st238" d="M16.54,10.46c0.07-0.36,0.11-0.73,0.11-1.1c0-3.18-2.58-5.76-5.76-5.76c-3.18,0-5.76,2.58-5.76,5.76
			c0,0.38,0.04,0.75,0.11,1.1c0.3,2.19,2.53,3.83,5.65,11.59C13.81,14.54,16.24,12.64,16.54,10.46z"/>
		<path class="st239" d="M16.52,10.44c0.07-0.36,0.11-0.73,0.11-1.1c0-3.18-2.58-5.76-5.76-5.76c-3.18,0-5.76,2.58-5.76,5.76
			c0,0.38,0.04,0.75,0.11,1.1c0.3,2.19,2.53,3.83,5.65,11.59C13.79,14.52,16.22,12.63,16.52,10.44z"/>
		<path class="st240" d="M16.5,10.43c0.07-0.36,0.11-0.73,0.11-1.1c0-3.18-2.58-5.76-5.76-5.76c-3.18,0-5.76,2.58-5.76,5.76
			c0,0.38,0.04,0.75,0.11,1.1c0.3,2.19,2.53,3.83,5.65,11.59C13.76,14.51,16.2,12.62,16.5,10.43z"/>
		<path class="st241" d="M16.47,10.42c0.07-0.36,0.11-0.73,0.11-1.1c0-3.18-2.58-5.76-5.76-5.76c-3.18,0-5.76,2.58-5.76,5.76
			c0,0.38,0.04,0.75,0.11,1.1C5.47,12.6,7.7,14.24,10.82,22C13.74,14.5,16.17,12.6,16.47,10.42z"/>
		<path class="st242" d="M16.45,10.4c0.07-0.36,0.11-0.73,0.11-1.1c0-3.18-2.58-5.76-5.76-5.76c-3.18,0-5.76,2.58-5.76,5.76
			c0,0.38,0.04,0.75,0.11,1.1c0.3,2.19,2.53,3.83,5.65,11.59C13.72,14.48,16.15,12.59,16.45,10.4z"/>
		<path class="st243" d="M16.43,10.39c0.07-0.36,0.11-0.73,0.11-1.1c0-3.18-2.58-5.76-5.76-5.76c-3.18,0-5.76,2.58-5.76,5.76
			c0,0.38,0.04,0.75,0.11,1.1c0.3,2.19,2.53,3.83,5.65,11.59C13.7,14.47,16.13,12.58,16.43,10.39z"/>
		<path class="st244" d="M16.41,10.38c0.07-0.36,0.11-0.73,0.11-1.1c0-3.18-2.58-5.76-5.76-5.76C7.58,3.51,5,6.09,5,9.27
			c0,0.38,0.04,0.75,0.11,1.1c0.3,2.19,2.53,3.83,5.65,11.59C13.67,14.46,16.11,12.56,16.41,10.38z"/>
		<path class="st245" d="M16.38,10.36c0.07-0.36,0.11-0.73,0.11-1.1c0-3.18-2.58-5.76-5.76-5.76c-3.18,0-5.76,2.58-5.76,5.76
			c0,0.38,0.04,0.75,0.11,1.1c0.3,2.19,2.53,3.83,5.65,11.59C13.65,14.44,16.09,12.55,16.38,10.36z"/>
		<path class="st246" d="M16.36,10.35c0.07-0.36,0.11-0.73,0.11-1.1c0-3.18-2.58-5.76-5.76-5.76c-3.18,0-5.76,2.58-5.76,5.76
			c0,0.38,0.04,0.75,0.11,1.1c0.3,2.19,2.53,3.83,5.65,11.59C13.63,14.43,16.06,12.54,16.36,10.35z"/>
		<path class="st247" d="M16.34,10.34c0.07-0.36,0.11-0.73,0.11-1.1c0-3.18-2.58-5.76-5.76-5.76c-3.18,0-5.76,2.58-5.76,5.76
			c0,0.38,0.04,0.75,0.11,1.1c0.3,2.19,2.53,3.83,5.65,11.59C13.61,14.42,16.04,12.52,16.34,10.34z"/>
		<path class="st248" d="M16.32,10.32c0.07-0.36,0.11-0.73,0.11-1.1c0-3.18-2.58-5.76-5.76-5.76c-3.18,0-5.76,2.58-5.76,5.76
			c0,0.38,0.04,0.75,0.11,1.1c0.3,2.19,2.53,3.83,5.65,11.59C13.59,14.4,16.02,12.51,16.32,10.32z"/>
		<path class="st249" d="M16.29,10.31c0.07-0.36,0.11-0.73,0.11-1.1c0-3.18-2.58-5.76-5.76-5.76c-3.18,0-5.76,2.58-5.76,5.76
			c0,0.38,0.04,0.75,0.11,1.1c0.3,2.19,2.53,3.83,5.65,11.59C13.56,14.39,16,12.5,16.29,10.31z"/>
		<path class="st250" d="M16.27,10.29c0.07-0.36,0.11-0.73,0.11-1.1c0-3.18-2.58-5.76-5.76-5.76c-3.18,0-5.76,2.58-5.76,5.76
			c0,0.38,0.04,0.75,0.11,1.1c0.3,2.19,2.53,3.83,5.65,11.59C13.54,14.38,15.97,12.48,16.27,10.29z"/>
		<path class="st251" d="M16.25,10.28c0.07-0.36,0.11-0.73,0.11-1.1c0-3.18-2.58-5.76-5.76-5.76C7.42,3.42,4.84,6,4.84,9.18
			c0,0.38,0.04,0.75,0.11,1.1c0.3,2.19,2.53,3.83,5.65,11.59C13.52,14.36,15.95,12.47,16.25,10.28z"/>
		<path class="st252" d="M16.23,10.27c0.07-0.36,0.11-0.73,0.11-1.1c0-3.18-2.58-5.76-5.76-5.76c-3.18,0-5.76,2.58-5.76,5.76
			c0,0.38,0.04,0.75,0.11,1.1c0.3,2.19,2.53,3.83,5.65,11.59C13.5,14.35,15.93,12.46,16.23,10.27z"/>
		<path class="st253" d="M16.21,10.25c0.07-0.36,0.11-0.73,0.11-1.1c0-3.18-2.58-5.76-5.76-5.76c-3.18,0-5.76,2.58-5.76,5.76
			c0,0.38,0.04,0.75,0.11,1.1c0.3,2.19,2.53,3.83,5.65,11.59C13.47,14.34,15.91,12.44,16.21,10.25z"/>
		<path class="st254" d="M16.18,10.24c0.07-0.36,0.11-0.73,0.11-1.1c0-3.18-2.58-5.76-5.76-5.76c-3.18,0-5.76,2.58-5.76,5.76
			c0,0.38,0.04,0.75,0.11,1.1c0.3,2.19,2.53,3.83,5.65,11.59C13.45,14.32,15.88,12.43,16.18,10.24z"/>
		<path class="st255" d="M16.16,10.23c0.07-0.36,0.11-0.73,0.11-1.1c0-3.18-2.58-5.76-5.76-5.76c-3.18,0-5.76,2.58-5.76,5.76
			c0,0.38,0.04,0.75,0.11,1.1c0.3,2.19,2.53,3.83,5.65,11.59C13.43,14.31,15.86,12.42,16.16,10.23z"/>
		<path class="st256" d="M16.14,10.21c0.07-0.36,0.11-0.73,0.11-1.1c0-3.18-2.58-5.76-5.76-5.76c-3.18,0-5.76,2.58-5.76,5.76
			c0,0.38,0.04,0.75,0.11,1.1c0.3,2.19,2.53,3.83,5.65,11.59C13.41,14.3,15.84,12.4,16.14,10.21z"/>
		<path class="st256" d="M16.12,10.2c0.07-0.36,0.11-0.73,0.11-1.1c0-3.18-2.58-5.76-5.76-5.76c-3.18,0-5.76,2.58-5.76,5.76
			c0,0.38,0.04,0.75,0.11,1.1c0.3,2.19,2.53,3.83,5.65,11.59C13.38,14.28,15.82,12.39,16.12,10.2z"/>
		<path class="st257" d="M16.09,10.19c0.07-0.36,0.11-0.73,0.11-1.1c0-3.18-2.58-5.76-5.76-5.76c-3.18,0-5.76,2.58-5.76,5.76
			c0,0.38,0.04,0.75,0.11,1.1c0.3,2.19,2.53,3.83,5.65,11.59C13.36,14.27,15.8,12.38,16.09,10.19z"/>
		<path class="st257" d="M16.07,10.17c0.07-0.36,0.11-0.73,0.11-1.1c0-3.18-2.58-5.76-5.76-5.76c-3.18,0-5.76,2.58-5.76,5.76
			c0,0.38,0.04,0.75,0.11,1.1c0.3,2.19,2.53,3.83,5.65,11.59C13.34,14.26,15.77,12.36,16.07,10.17z"/>
		<path class="st258" d="M16.05,10.16c0.07-0.36,0.11-0.73,0.11-1.1c0-3.18-2.58-5.76-5.76-5.76c-3.18,0-5.76,2.58-5.76,5.76
			c0,0.38,0.04,0.75,0.11,1.1c0.3,2.19,2.53,3.83,5.65,11.59C13.32,14.24,15.75,12.35,16.05,10.16z"/>
		<path class="st259" d="M16.03,10.15c0.07-0.36,0.11-0.73,0.11-1.1c0-3.18-2.58-5.76-5.76-5.76c-3.18,0-5.76,2.58-5.76,5.76
			c0,0.38,0.04,0.75,0.11,1.1c0.3,2.19,2.53,3.83,5.65,11.59C13.3,14.23,15.73,12.34,16.03,10.15z"/>
		<path class="st260" d="M16,10.13c0.07-0.36,0.11-0.73,0.11-1.1c0-3.18-2.58-5.76-5.76-5.76c-3.18,0-5.76,2.58-5.76,5.76
			c0,0.38,0.04,0.75,0.11,1.1c0.3,2.19,2.53,3.83,5.65,11.59C13.27,14.22,15.71,12.32,16,10.13z"/>
		<path class="st261" d="M15.98,10.12c0.07-0.36,0.11-0.73,0.11-1.1c0-3.18-2.58-5.76-5.76-5.76c-3.18,0-5.76,2.58-5.76,5.76
			c0,0.38,0.04,0.75,0.11,1.1c0.3,2.19,2.53,3.83,5.65,11.59C13.25,14.2,15.68,12.31,15.98,10.12z"/>
		<path class="st262" d="M15.96,10.11c0.07-0.36,0.11-0.73,0.11-1.1c0-3.18-2.58-5.76-5.76-5.76C7.13,3.24,4.55,5.82,4.55,9
			c0,0.38,0.04,0.75,0.11,1.1c0.3,2.19,2.53,3.83,5.65,11.59C13.23,14.19,15.66,12.3,15.96,10.11z"/>
		<path class="st263" d="M15.94,10.09c0.07-0.36,0.11-0.73,0.11-1.1c0-3.18-2.58-5.76-5.76-5.76c-3.18,0-5.76,2.58-5.76,5.76
			c0,0.38,0.04,0.75,0.11,1.1c0.3,2.19,2.53,3.83,5.65,11.59C13.21,14.18,15.64,12.28,15.94,10.09z"/>
		<path class="st264" d="M15.92,10.08c0.07-0.36,0.11-0.73,0.11-1.1c0-3.18-2.58-5.76-5.76-5.76c-3.18,0-5.76,2.58-5.76,5.76
			c0,0.38,0.04,0.75,0.11,1.1c0.3,2.19,2.53,3.83,5.65,11.59C13.18,14.16,15.62,12.27,15.92,10.08z"/>
		<path class="st264" d="M15.89,10.07C15.96,9.71,16,9.34,16,8.96c0-3.18-2.58-5.76-5.76-5.76c-3.18,0-5.76,2.58-5.76,5.76
			c0,0.38,0.04,0.75,0.11,1.1c0.3,2.19,2.53,3.83,5.65,11.59C13.16,14.15,15.6,12.26,15.89,10.07z"/>
		<path class="st265" d="M15.87,10.05c0.07-0.36,0.11-0.73,0.11-1.1c0-3.18-2.58-5.76-5.76-5.76c-3.18,0-5.76,2.58-5.76,5.76
			c0,0.38,0.04,0.75,0.11,1.1c0.3,2.19,2.53,3.83,5.65,11.59C13.14,14.14,15.57,12.24,15.87,10.05z"/>
		<path class="st265" d="M15.85,10.04c0.07-0.36,0.11-0.73,0.11-1.1c0-3.18-2.58-5.76-5.76-5.76c-3.18,0-5.76,2.58-5.76,5.76
			c0,0.38,0.04,0.75,0.11,1.1c0.3,2.19,2.53,3.83,5.65,11.59C13.12,14.12,15.55,12.23,15.85,10.04z"/>
		<path class="st266" d="M15.83,10.03c0.07-0.36,0.11-0.73,0.11-1.1c0-3.18-2.58-5.76-5.76-5.76C7,3.16,4.42,5.74,4.42,8.92
			c0,0.38,0.04,0.75,0.11,1.1c0.3,2.19,2.53,3.83,5.65,11.59C13.1,14.11,15.53,12.22,15.83,10.03z"/>
		<path class="st267" d="M15.8,10.01c0.07-0.36,0.11-0.73,0.11-1.1c0-3.18-2.58-5.76-5.76-5.76c-3.18,0-5.76,2.58-5.76,5.76
			c0,0.38,0.04,0.75,0.11,1.1c0.3,2.19,2.53,3.83,5.65,11.59C13.07,14.1,15.51,12.2,15.8,10.01z"/>
		<path class="st268" d="M15.78,10c0.07-0.36,0.11-0.73,0.11-1.1c0-3.18-2.58-5.76-5.76-5.76c-3.18,0-5.76,2.58-5.76,5.76
			c0,0.38,0.04,0.75,0.11,1.1c0.3,2.19,2.53,3.83,5.65,11.59C13.05,14.08,15.48,12.19,15.78,10z"/>
		<path class="st269" d="M15.76,9.99c0.07-0.36,0.11-0.73,0.11-1.1c0-3.18-2.58-5.76-5.76-5.76c-3.18,0-5.76,2.58-5.76,5.76
			c0,0.38,0.04,0.75,0.11,1.1c0.3,2.19,2.53,3.83,5.65,11.59C13.03,14.07,15.46,12.18,15.76,9.99z"/>
		<path class="st270" d="M15.74,9.97c0.07-0.36,0.11-0.73,0.11-1.1c0-3.18-2.58-5.76-5.76-5.76c-3.18,0-5.76,2.58-5.76,5.76
			c0,0.38,0.04,0.75,0.11,1.1c0.3,2.19,2.53,3.83,5.65,11.59C13.01,14.06,15.44,12.16,15.74,9.97z"/>
		<path class="st271" d="M15.72,9.96c0.07-0.36,0.11-0.73,0.11-1.1c0-3.18-2.58-5.76-5.76-5.76c-3.18,0-5.76,2.58-5.76,5.76
			c0,0.38,0.04,0.75,0.11,1.1c0.3,2.19,2.53,3.83,5.65,11.59C12.98,14.04,15.42,12.15,15.72,9.96z"/>
		<path class="st272" d="M15.69,9.95c0.07-0.36,0.11-0.73,0.11-1.1c0-3.18-2.58-5.76-5.76-5.76c-3.18,0-5.76,2.58-5.76,5.76
			c0,0.38,0.04,0.75,0.11,1.1c0.3,2.19,2.53,3.83,5.65,11.59C12.96,14.03,15.39,12.14,15.69,9.95z"/>
		<path class="st273" d="M15.67,9.93c0.07-0.36,0.11-0.73,0.11-1.1c0-3.18-2.58-5.76-5.76-5.76c-3.18,0-5.76,2.58-5.76,5.76
			c0,0.38,0.04,0.75,0.11,1.1c0.3,2.19,2.53,3.83,5.65,11.59C12.94,14.02,15.37,12.12,15.67,9.93z"/>
		<path class="st274" d="M15.65,9.92c0.07-0.36,0.11-0.73,0.11-1.1c0-3.18-2.58-5.76-5.76-5.76c-3.18,0-5.76,2.58-5.76,5.76
			c0,0.38,0.04,0.75,0.11,1.1c0.3,2.19,2.53,3.83,5.65,11.59C12.92,14,15.35,12.11,15.65,9.92z"/>
		<path class="st274" d="M15.63,9.91c0.07-0.36,0.11-0.73,0.11-1.1c0-3.18-2.58-5.76-5.76-5.76c-3.18,0-5.76,2.58-5.76,5.76
			c0,0.38,0.04,0.75,0.11,1.1c0.3,2.19,2.53,3.83,5.65,11.59C12.89,13.99,15.33,12.1,15.63,9.91z"/>
		<path class="st275" d="M15.6,9.89c0.07-0.36,0.11-0.73,0.11-1.1c0-3.18-2.58-5.76-5.76-5.76c-3.18,0-5.76,2.58-5.76,5.76
			c0,0.38,0.04,0.75,0.11,1.1c0.3,2.19,2.53,3.83,5.65,11.59C12.87,13.98,15.31,12.08,15.6,9.89z"/>
		<path class="st275" d="M15.58,9.88c0.07-0.36,0.11-0.73,0.11-1.1c0-3.18-2.58-5.76-5.76-5.76c-3.18,0-5.76,2.58-5.76,5.76
			c0,0.38,0.04,0.75,0.11,1.1c0.3,2.19,2.53,3.83,5.65,11.59C12.85,13.96,15.28,12.07,15.58,9.88z"/>
		<path class="st276" d="M15.56,9.87c0.07-0.36,0.11-0.73,0.11-1.1C15.67,5.58,13.09,3,9.91,3C6.73,3,4.15,5.58,4.15,8.76
			c0,0.38,0.04,0.75,0.11,1.1c0.3,2.19,2.53,3.83,5.65,11.59C12.83,13.95,15.26,12.06,15.56,9.87z"/>
		<path class="st276" d="M15.54,9.85c0.07-0.36,0.11-0.73,0.11-1.1c0-3.18-2.58-5.76-5.76-5.76c-3.18,0-5.76,2.58-5.76,5.76
			c0,0.38,0.04,0.75,0.11,1.1c0.3,2.19,2.53,3.83,5.65,11.59C12.81,13.94,15.24,12.04,15.54,9.85z"/>
		<path class="st277" d="M15.51,9.84c0.07-0.36,0.11-0.73,0.11-1.1c0-3.18-2.58-5.76-5.76-5.76c-3.18,0-5.76,2.58-5.76,5.76
			c0,0.38,0.04,0.75,0.11,1.1c0.3,2.19,2.53,3.83,5.65,11.59C12.78,13.92,15.22,12.03,15.51,9.84z"/>
		<path class="st278" d="M15.49,9.83c0.07-0.36,0.11-0.73,0.11-1.1c0-3.18-2.58-5.76-5.76-5.76c-3.18,0-5.76,2.58-5.76,5.76
			c0,0.38,0.04,0.75,0.11,1.1c0.3,2.19,2.53,3.83,5.65,11.59C12.76,13.91,15.19,12.02,15.49,9.83z"/>
		<path class="st279" d="M15.47,9.81c0.07-0.36,0.11-0.73,0.11-1.1c0-3.18-2.58-5.76-5.76-5.76c-3.18,0-5.76,2.58-5.76,5.76
			c0,0.38,0.04,0.75,0.11,1.1C4.47,12,6.7,13.64,9.82,21.4C12.74,13.9,15.17,12,15.47,9.81z"/>
		<path class="st280" d="M15.45,9.8c0.07-0.36,0.11-0.73,0.11-1.1c0-3.18-2.58-5.76-5.76-5.76c-3.18,0-5.76,2.58-5.76,5.76
			c0,0.38,0.04,0.75,0.11,1.1c0.3,2.19,2.53,3.83,5.65,11.59C12.72,13.88,15.15,11.99,15.45,9.8z"/>
		<path class="st281" d="M15.43,9.79c0.07-0.36,0.11-0.73,0.11-1.1c0-3.18-2.58-5.76-5.76-5.76c-3.18,0-5.76,2.58-5.76,5.76
			c0,0.38,0.04,0.75,0.11,1.1c0.3,2.19,2.53,3.83,5.65,11.59C12.69,13.87,15.13,11.98,15.43,9.79z"/>
		<path class="st282" d="M15.4,9.77c0.07-0.36,0.11-0.73,0.11-1.1c0-3.18-2.58-5.76-5.76-5.76c-3.18,0-5.76,2.58-5.76,5.76
			c0,0.38,0.04,0.75,0.11,1.1c0.3,2.19,2.53,3.83,5.65,11.59C12.67,13.86,15.1,11.96,15.4,9.77z"/>
		<path class="st282" d="M15.38,9.76c0.07-0.36,0.11-0.73,0.11-1.1c0-3.18-2.58-5.76-5.76-5.76c-3.18,0-5.76,2.58-5.76,5.76
			c0,0.38,0.04,0.75,0.11,1.1c0.3,2.19,2.53,3.83,5.65,11.59C12.65,13.84,15.08,11.95,15.38,9.76z"/>
		<path class="st283" d="M15.36,9.75c0.07-0.36,0.11-0.73,0.11-1.1c0-3.18-2.58-5.76-5.76-5.76c-3.18,0-5.76,2.58-5.76,5.76
			c0,0.38,0.04,0.75,0.11,1.1c0.3,2.19,2.53,3.83,5.65,11.59C12.63,13.83,15.06,11.94,15.36,9.75z"/>
		<path class="st284" d="M15.34,9.73c0.07-0.36,0.11-0.73,0.11-1.1c0-3.18-2.58-5.76-5.76-5.76c-3.18,0-5.76,2.58-5.76,5.76
			c0,0.38,0.04,0.75,0.11,1.1c0.3,2.19,2.53,3.83,5.65,11.59C12.6,13.82,15.04,11.92,15.34,9.73z"/>
		<path class="st285" d="M15.31,9.72c0.07-0.36,0.11-0.73,0.11-1.1c0-3.18-2.58-5.76-5.76-5.76c-3.18,0-5.76,2.58-5.76,5.76
			c0,0.38,0.04,0.75,0.11,1.1c0.3,2.19,2.53,3.83,5.65,11.59C12.58,13.8,15.02,11.91,15.31,9.72z"/>
		<path class="st286" d="M15.29,9.71c0.07-0.36,0.11-0.73,0.11-1.1c0-3.18-2.58-5.76-5.76-5.76c-3.18,0-5.76,2.58-5.76,5.76
			c0,0.38,0.04,0.75,0.11,1.1c0.3,2.19,2.53,3.83,5.65,11.59C12.56,13.79,14.99,11.89,15.29,9.71z"/>
		<path class="st287" d="M15.27,9.69c0.07-0.36,0.11-0.73,0.11-1.1c0-3.18-2.58-5.76-5.76-5.76c-3.18,0-5.76,2.58-5.76,5.76
			c0,0.38,0.04,0.75,0.11,1.1c0.3,2.19,2.53,3.83,5.65,11.59C12.54,13.78,14.97,11.88,15.27,9.69z"/>
		<path class="st288" d="M15.25,9.68c0.07-0.36,0.11-0.73,0.11-1.1c0-3.18-2.58-5.76-5.76-5.76c-3.18,0-5.76,2.58-5.76,5.76
			c0,0.38,0.04,0.75,0.11,1.1c0.3,2.19,2.53,3.83,5.65,11.59C12.52,13.76,14.95,11.87,15.25,9.68z"/>
	</g>
	<g>
		<path class="st289" d="M15.25,9.68c0.07-0.36,0.11-0.73,0.11-1.1c0-3.18-2.58-5.76-5.76-5.76c-3.18,0-5.76,2.58-5.76,5.76
			c0,0.38,0.04,0.75,0.11,1.1c0.3,2.19,2.53,3.83,5.65,11.59C12.52,13.76,14.95,11.87,15.25,9.68z"/>
		<path class="st290" d="M14.35,8.57c0,2.63-2.13,4.76-4.76,4.76S4.84,11.2,4.84,8.57c0-2.63,2.13-4.76,4.76-4.76
			S14.35,5.95,14.35,8.57z"/>
		<path class="st291" d="M9.6,13.33c-2.63,0-4.76-2.13-4.76-4.76c0-2.63,2.13-4.76,4.76-4.76"/>
		<linearGradient id="SVGID_1_" gradientUnits="userSpaceOnUse" x1="6.8069" y1="11.3638" x2="12.3852" y2="5.7856">
			<stop  offset="0" style="stop-color:#D9DAD8"/>
			<stop  offset="0.129" style="stop-color:#E6E6E5"/>
			<stop  offset="0.3434" style="stop-color:#F4F4F4"/>
			<stop  offset="0.599" style="stop-color:#FCFCFC"/>
			<stop  offset="1" style="stop-color:#FFFFFF"/>
		</linearGradient>
		<path class="st292" d="M13.54,8.57c0,2.18-1.77,3.94-3.94,3.94c-2.18,0-3.94-1.77-3.94-3.94c0-2.18,1.77-3.94,3.94-3.94
			C11.77,4.63,13.54,6.4,13.54,8.57z"/>
	</g>
</g>
</svg>
