<?xml version="1.0" encoding="utf-8"?>
<!-- Generator: Adobe Illustrator 23.0.1, SVG Export Plug-In . SVG Version: 6.00 Build 0)  -->
<svg version="1.1" id="レイヤー_1" xmlns="http://www.w3.org/2000/svg" xmlns:xlink="http://www.w3.org/1999/xlink" x="0px"
	 y="0px" viewBox="0 0 47.62 47.62" style="enable-background:new 0 0 47.62 47.62;" xml:space="preserve">
<path d="M18.02,14.99c1.2-3.3,4.3-4.9,7.7-4s4.5,4.8,3.9,7.9c-1.5,8-13.9,3.8-11.8-3.9c0.4-1.5-1.9-2.1-2.3-0.6
	c-2.7,10.2,12.1,16,16.3,5.9c1.7-4.1-0.6-9.7-4.7-11.2c-4.9-1.9-9.5,0.7-11.3,5.4C15.12,15.89,17.52,16.49,18.02,14.99L18.02,14.99z
	"/>
<path d="M37.72,37.99c0,0-5.2,0-6.8,0.2c-4.4,0.3-21.3-0.5-21.3-0.5c-0.7,0-1.2-0.6-1.2-1.2c0-3.2-0.6-7.1,4-9.2
	c1.2-0.6,2.8-1.5,4.3-1.9c0.4-0.1,0.9,0,1.2,0.3c1.6,1.6,3.5,3,5.7,3c2.1,0,4.3-1.3,5.8-2.8c0.3-0.3,0.8-0.4,1.2-0.3
	c1.6,0.4,2.9,1,4.1,1.8c3.8,2.6,4.1,5.8,4.1,9.4C38.92,37.39,38.42,37.99,37.72,37.99z M10.52,35.49c0,0,3.8,0.2,8.7,0.4
	s17.2,0.1,17.2,0.1c-0.1-2.9-0.7-5-3-6.6c-0.8-0.5-1.7-1-2.7-1.3c-1.9,1.5-4.3,2.4-6.8,2.4c-2.7,0-5.2-0.9-7.1-2.7
	c-1.1,0.3-2.2,0.7-3.1,1.1C11.12,30.09,10.62,32.49,10.52,35.49z"/>
</svg>
