<?xml version="1.0" encoding="UTF-8" standalone="no"?>
<svg width="216px" height="216px" viewBox="0 0 216 216" version="1.1" xmlns="http://www.w3.org/2000/svg" xmlns:xlink="http://www.w3.org/1999/xlink" xmlns:sketch="http://www.bohemiancoding.com/sketch/ns">
    <!-- Generator: Sketch 3.3.3 (12081) - http://www.bohemiancoding.com/sketch -->
    <title>Add-to-Basket-Icon</title>
    <desc>Created with Sketch.</desc>
    <defs></defs>
    <g id="Page-1" stroke="none" stroke-width="1" fill="none" fill-rule="evenodd" sketch:type="MSPage">
        <g id="Add-to-Basket-Icon" sketch:type="MSArtboardGroup">
            <g id="btn-checkout-+-Group-+-Line-Copy-2-+-Line-Copy-3" sketch:type="MSLayerGroup" transform="translate(1.000000, 1.000000)">
                <path d="M209.823016,147.478 L208.165016,50.524 C208.085016,45.642 204.049016,41.668 199.165016,41.668 L179.293016,41.668 C172.383016,41.668 167.817016,46.788 167.397016,51.734 C167.051016,55.766 169.543016,58.944 173.597016,59.642 C177.733016,60.346 180.585016,60.192 184.531016,59.972 L185.803016,59.9 C187.357016,59.82 188.853016,59.738 190.313016,59.698 L191.163016,106.008 L192.019016,160.312 C178.973016,159.708 126.277016,157.354 109.799016,157.578 C93.9050161,157.81 54.6710161,159.658 41.3010161,160.306 L44.7170161,59.668 L74.5830161,59.668 C75.0290161,63.046 76.8550161,65.968 79.4930161,67.432 C82.1770161,68.934 85.2390161,68.686 88.1030161,66.736 C90.1390161,65.354 90.7910161,62.912 91.2650161,61.13 C91.3970161,60.638 91.6250161,59.78 91.7510161,59.44 C92.0570161,59.442 92.7170161,59.478 93.6270161,59.57 C94.4390161,59.652 94.9730161,59.71 95.4130161,59.656 C101.957016,59.002 108.835016,59.228 115.489016,59.448 L118.071016,59.542 C119.859016,59.612 121.275016,59.668 123.623016,59.668 C126.917016,59.668 129.817016,57.862 131.381016,54.836 C132.967016,51.764 132.745016,48.154 130.803016,45.42 C128.109016,41.622 124.083016,41.64 120.825016,41.672 L119.341016,41.668 C113.391016,41.558 108.999016,41.586 103.447016,41.622 L102.283016,41.63 C100.003016,41.646 97.7230161,41.656 95.4450161,41.664 C97.4930161,34.972 101.799016,24.442 109.459016,20.128 C112.929016,18.172 116.775016,17.8 120.881016,19.006 C137.255016,23.828 140.367016,46.072 142.425016,60.8 L142.601016,62.056 C143.221016,66.48 144.157016,73.164 148.441016,75.576 C150.479016,76.716 152.881016,76.7 155.593016,75.528 C162.731016,72.446 161.499016,63.412 160.763016,58.01 C160.677016,57.378 160.595016,56.776 160.527016,56.22 C158.459016,38.74 153.611016,25.416 145.707016,15.484 C137.039016,4.596 121.305016,-3.728 105.695016,2.194 C88.2350161,8.832 80.4250161,29.28 77.8810161,37.762 C77.5830161,38.748 77.3710161,39.528 77.1610161,40.3 C77.0650161,40.654 76.9730161,40.994 76.9110161,41.23 C76.2910161,41.332 75.5590161,41.456 74.5270161,41.738 C72.0530161,42.42 68.4330161,42.154 65.1930161,41.912 C63.5230161,41.788 61.9430161,41.668 60.4830161,41.668 L36.0010161,41.668 C31.1110161,41.668 27.1590161,45.494 27.0050161,50.378 L24.5870161,118.946 L23.0050161,169.126 C22.9290161,171.48 23.7170161,173.472 25.3430161,175.044 C28.0990161,177.706 33.3030161,179 41.2490161,179 C44.5210161,179 47.7230161,178.79 50.3170161,178.618 C51.9950161,178.506 53.4470161,178.408 54.3850161,178.408 L201.165016,178.408 C203.575016,178.408 205.581016,177.554 207.131016,175.868 C211.745016,170.844 210.771016,159.45 210.127016,151.908 C209.973016,150.098 209.839016,148.54 209.823016,147.478 Z" id="btn-checkout" fill="#1D1D1B" sketch:type="MSShapeGroup"></path>
                <circle id="Oval-3" fill="#1D1D1B" sketch:type="MSShapeGroup" cx="43.5" cy="162.5" r="43.5"></circle>
                <g id="Line-Copy-2-+-Line-Copy-3" transform="translate(42.786773, 163.320357) rotate(-2.000000) translate(-42.786773, -163.320357) translate(20.942629, 142.066594)" stroke="#FFFFFF" stroke-width="10" sketch:type="MSShapeGroup" stroke-linecap="round">
                    <path d="M21.2537625,0.295191146 L21.2537625,42.2123339" id="Line-Copy-2"></path>
                    <path d="M42.507525,21.2537625 L4.61852778e-14,21.2537625" id="Line-Copy-3" transform="translate(21.253762, 21.253762) scale(-1, -1) translate(-21.253762, -21.253762) "></path>
                </g>
            </g>
        </g>
    </g>
</svg>