<?xml version="1.0" encoding="utf-8"?>
<!-- Generator: Adobe Illustrator 23.0.1, SVG Export Plug-In . SVG Version: 6.00 Build 0)  -->
<svg version="1.1" id="レイヤー_1" xmlns="http://www.w3.org/2000/svg" xmlns:xlink="http://www.w3.org/1999/xlink" x="0px"
	 y="0px" viewBox="0 0 47.62 47.62" style="enable-background:new 0 0 47.62 47.62;" xml:space="preserve">
<style type="text/css">
	.st0{fill:none;stroke:#000000;stroke-miterlimit:10;}
	.st1{fill:#FFFFFF;}
</style>
<circle class="st0" cx="23.31" cy="24.18" r="20"/>
<g>
	<polygon class="st1" points="25.62,27.89 24.72,17.29 17.78,23.63 	"/>
	<g>
		<g>
			<g>
				<path d="M43.74,24.63c-5.66-2.76-12.99-4.55-19.06-2.01c-0.69,0.29-0.06,0.63,0.42,0.43c5.62-2.35,12.56-0.44,17.78,2.1
					C43.19,25.3,44.18,24.84,43.74,24.63L43.74,24.63z"/>
			</g>
		</g>
		<g>
			<g>
				<path d="M25.11,18.68c-2.55,1.15-5.29,1.74-7.19,3.92c-0.05,0.06-0.1,0.19-0.01,0.25c2.64,1.85,4.26,4.77,6.98,6.54
					c0.29,0.19,1.32,0.07,1.39-0.37c0.24-1.52-0.09-2.54-0.18-4.08c-0.13-2.07,0.19-4.15,0-6.22c-0.03-0.39-1.48-0.1-1.44,0.39
					c0.17,1.86-0.09,3.74-0.03,5.61c0.05,1.58,0.46,2.95,0.22,4.51c0.46-0.12,0.92-0.25,1.39-0.37c-2.18-1.42-3.63-3.52-5.48-5.31
					c-0.54-0.53-1-0.63-0.92-1.34c0.09-0.82,1.28-1.19,1.93-1.49c1.27-0.58,2.61-0.99,3.88-1.57
					C26.56,18.75,25.71,18.41,25.11,18.68L25.11,18.68z"/>
			</g>
		</g>
	</g>
</g>
</svg>
