<?xml version="1.0" encoding="utf-8"?>
<!-- Generator: Adobe Illustrator 23.0.1, SVG Export Plug-In . SVG Version: 6.00 Build 0)  -->
<svg version="1.1" id="レイヤー_1" xmlns="http://www.w3.org/2000/svg" xmlns:xlink="http://www.w3.org/1999/xlink" x="0px"
	 y="0px" viewBox="0 0 47.62 47.62" style="enable-background:new 0 0 47.62 47.62;" xml:space="preserve">
<style type="text/css">
	.st0{fill:#FFFFFF;}
</style>
<circle cx="23.81" cy="23.81" r="20"/>
<g>
	<g>
		<g>
			<g>
				<path class="st0" d="M4.15,24.62c5.88-3.18,14.14-5.09,20.43-1.93c0.31,0.15,1.3-0.3,0.86-0.52c-6.75-3.4-15.66-1.28-21.96,2.13
					C2.85,24.65,3.8,24.81,4.15,24.62L4.15,24.62z"/>
			</g>
		</g>
		<g>
			<g>
				<path class="st0" d="M24.24,18.82c2.27,1.23,4.81,1.96,6.42,4.11c0.08-0.14,0.16-0.29,0.24-0.43c-2.78,1.65-4.6,4.45-7.44,6.01
					c0.38-0.01,0.77-0.02,1.15-0.03c-0.13-1.6,0.39-2.97,0.56-4.57c0.19-1.83,0.07-3.69,0.37-5.51c0.08-0.47-1.36-0.22-1.43,0.21
					c-0.33,2.01-0.17,4.06-0.43,6.08c-0.2,1.55-0.63,2.63-0.5,4.18c0.03,0.38,1.01,0.05,1.15-0.03c2.85-1.57,4.67-4.37,7.44-6.01
					c0.15-0.09,0.38-0.24,0.24-0.43c-1.66-2.21-4.26-2.94-6.6-4.21C25.04,17.98,23.71,18.53,24.24,18.82L24.24,18.82z"/>
			</g>
		</g>
	</g>
</g>
</svg>
