<?xml version="1.0" encoding="utf-8"?>
<!-- Generator: Adobe Illustrator 23.0.1, SVG Export Plug-In . SVG Version: 6.00 Build 0)  -->
<svg version="1.1" id="レイヤー_1" xmlns="http://www.w3.org/2000/svg" xmlns:xlink="http://www.w3.org/1999/xlink" x="0px"
	 y="0px" viewBox="0 0 47.62 47.62" style="enable-background:new 0 0 47.62 47.62;" xml:space="preserve">
<path d="M18.9,21.85c0,0-0.3-2.6-0.3-4.8c0-0.6-0.1-1.7-0.1-2.3c0.2-2.6,3-4.1,5.7-4c2.2,0.1,3.9,0.8,4.7,3c0.3,0.8,0.4,2.3,0.4,3.1
	c0,1.9,0.1,5.5,0.1,6.4c0,1.6,2.4,2,2.4,1.1c0-1.9-0.2-5.8-0.2-9.2c0-4-3-6-6.5-6.5c-4.4-0.6-8.6,1.8-8.9,6
	c-0.2,2.4,0.1,5.9,0.3,8.7c0.1,1.6,2.6,1.7,2.6,0.7C19.1,24.15,18.9,22.95,18.9,21.85z"/>
<path d="M41,20.45c0.1-2.1-1.3-3.5-3.6-3.5c-3.6,0-10.5,0.2-14.1,0.2H10.1c-5,0-3.2,6.8-3.2,10.2c0.1,12.4,12.9,11.2,21.6,11.2
	c4.6,0,8.6-1.3,11.2-5.4C41.7,29.75,41,24.35,41,20.45c0-1.4-2.3-1.4-2.3,0c0.1,2.5-0.1,5,0,7.5c0.1,6.5-5.6,8.1-10.9,8.1h-9.6
	c-6.8,0-9.1-5.2-9.2-11.1c0-0.8-0.6-5.7,0.6-5.7h13.8c2.3,0,14.9-1,15.2,1.1c0.2,1.4,2.3,1.4,2,0L41,20.45L41,20.45z"/>
</svg>
