<?xml version="1.0" encoding="utf-8"?>
<!-- Generator: Adobe Illustrator 23.0.1, SVG Export Plug-In . SVG Version: 6.00 Build 0)  -->
<svg version="1.1" id="レイヤー_1" xmlns="http://www.w3.org/2000/svg" xmlns:xlink="http://www.w3.org/1999/xlink" x="0px"
	 y="0px" viewBox="0 0 47.62 47.62" style="enable-background:new 0 0 47.62 47.62;" xml:space="preserve">
<style type="text/css">
	.st0{fill:#FFFFFF;}
</style>
<circle cx="23.81" cy="24.01" r="20"/>
<g>
	<path class="st0" d="M30.84,22.23c-0.29,0.02-0.55,0.04-0.8,0.05c-0.5,0.03-1,0.06-1.5,0.09c-0.09,0.01-0.12-0.02-0.14-0.11
		c-0.07-0.3-0.18-0.58-0.45-0.75c-0.41-0.25-0.85-0.27-1.29-0.1c-0.3,0.11-0.44,0.47-0.32,0.71c0.09,0.18,0.25,0.27,0.42,0.32
		c0.27,0.08,0.55,0.14,0.83,0.21c0.51,0.14,1.03,0.28,1.54,0.43c0.36,0.11,0.7,0.28,1.01,0.49c0.62,0.43,0.93,1.04,0.96,1.79
		c0.03,0.91-0.33,1.65-1.04,2.21c-0.47,0.37-1.03,0.56-1.61,0.64c-0.75,0.11-1.49,0.09-2.24-0.02c-0.35-0.05-0.7-0.15-1.03-0.29
		c-0.47-0.21-0.81-0.55-1.08-0.98c-0.27-0.44-0.41-0.92-0.47-1.42c-0.01-0.08,0.02-0.1,0.09-0.1c0.75-0.05,1.51-0.09,2.26-0.14
		c0.09-0.01,0.09,0.05,0.09,0.1c0.03,0.24,0.1,0.48,0.23,0.69c0.32,0.5,0.8,0.64,1.36,0.6c0.27-0.02,0.52-0.1,0.72-0.29
		c0.36-0.35,0.32-0.88-0.11-1.16c-0.24-0.16-0.51-0.24-0.79-0.31c-0.57-0.15-1.15-0.26-1.71-0.48c-0.44-0.17-0.86-0.37-1.2-0.7
		c-0.6-0.59-0.77-1.3-0.56-2.1c0.17-0.65,0.59-1.1,1.18-1.41c0.45-0.24,0.95-0.35,1.45-0.39c0.64-0.05,1.27-0.06,1.91,0.05
		c0.48,0.09,0.94,0.23,1.34,0.53c0.43,0.32,0.68,0.75,0.83,1.26C30.76,21.83,30.79,22.02,30.84,22.23z"/>
	<path class="st0" d="M32.37,19.73c0.82,0,1.64,0,2.51,0c0,0.94,0,1.88,0,2.85c0.81,0,1.58,0,2.4,0c0-0.94,0-1.88,0-2.84
		c0.87,0,1.69,0,2.54,0c0,2.76,0,5.53,0,8.32c-0.82,0-1.63,0-2.5,0c0-1.08,0-2.16,0-3.26c-0.82,0-1.58,0-2.4,0c0,1.08,0,2.16,0,3.27
		c-0.87,0-1.69,0-2.53,0C32.37,25.28,32.37,22.52,32.37,19.73z"/>
	<path class="st0" d="M14.94,19.72c0.82,0,1.67,0,2.55,0c0,0.15,0,0.28,0,0.42c0,1.41,0,2.82,0,4.24c0,0.29,0.02,0.59,0.07,0.88
		c0.12,0.63,0.53,0.93,1.18,0.93c0.64-0.01,1-0.3,1.12-0.94c0.05-0.28,0.07-0.56,0.07-0.84c0.01-1.41,0-2.82,0-4.24
		c0-0.14,0-0.28,0-0.44c0.85,0,1.7,0,2.55,0c0,0.13,0,0.25,0,0.37c0,1.59,0,3.18,0,4.78c0,0.21-0.01,0.41-0.03,0.61
		c-0.22,1.6-1.07,2.46-2.73,2.71c-0.92,0.14-1.85,0.12-2.75-0.17c-1.25-0.4-1.97-1.3-2.02-2.75c-0.06-1.81-0.02-3.62-0.02-5.43
		C14.94,19.82,14.94,19.78,14.94,19.72z"/>
	<path class="st0" d="M13.98,28.06c-2.07,0-4.11,0-6.17,0c0-2.78,0-5.54,0-8.33c0.83,0,1.65,0,2.51,0c0,2.05,0,4.1,0,6.19
		c1.25,0,2.45,0,3.66,0C13.98,26.66,13.98,27.35,13.98,28.06z"/>
</g>
</svg>
