<?xml version="1.0" encoding="utf-8"?>
<!-- Generator: Adobe Illustrator 23.0.0, SVG Export Plug-In . SVG Version: 6.00 Build 0)  -->
<svg version="1.1" id="レイヤー_1" xmlns="http://www.w3.org/2000/svg" xmlns:xlink="http://www.w3.org/1999/xlink" x="0px"
	 y="0px" viewBox="0 0 76 74" style="enable-background:new 0 0 76 74;" xml:space="preserve">
<g>
	<path d="M30.9,64.9l-2.6,7.2l-4.9-1.8l0.4-1.2l3.5,1.2l0.6-1.7l-3-1.1l0.4-1.2l3,1.1l1.1-3.1L30.9,64.9z"/>
	<path d="M25.1,62.8l-4.2,6.4l-2.7-1.8c-0.7-0.4-1.1-0.8-1.4-1.2c-0.2-0.3-0.4-0.7-0.3-1.1s0.1-0.8,0.4-1.2c0.3-0.5,0.7-0.8,1.2-0.9
		c0.5-0.1,1,0,1.6,0.2c-0.2-0.3-0.3-0.7-0.3-1c0-0.3-0.1-0.8,0-1.5l0-1.8l1.5,1l0,2c0,0.7,0,1.2,0.1,1.4c0,0.2,0.1,0.4,0.2,0.5
		c0.1,0.1,0.3,0.3,0.6,0.5l0.3,0.2l1.8-2.7L25.1,62.8z M21.4,65.7l-1-0.6c-0.6-0.4-1-0.6-1.2-0.7s-0.4,0-0.5,0s-0.3,0.2-0.5,0.4
		c-0.1,0.2-0.2,0.4-0.2,0.6c0,0.2,0.1,0.4,0.3,0.6c0.1,0.1,0.4,0.3,0.9,0.6l1,0.7L21.4,65.7z"/>
	<path d="M19.2,58.7l-5.6,5.2l-3.8-4.2l0.9-0.9l2.8,3l1.3-1.1l-2.6-2.8l0.9-0.9l2.6,2.8l1.5-1.4l-2.9-3.1l0.9-0.9L19.2,58.7z"/>
	<path d="M12.8,55.2L11.9,54c0.4-0.3,0.6-0.7,0.7-1c0.1-0.4,0-0.7-0.2-1.2c-0.2-0.4-0.5-0.7-0.8-0.8c-0.3-0.1-0.6-0.1-0.8,0
		c-0.2,0.1-0.3,0.2-0.3,0.4c-0.1,0.2-0.1,0.4,0,0.7c0,0.2,0.1,0.6,0.3,1.2c0.2,0.8,0.3,1.5,0.2,1.9c-0.1,0.6-0.5,1.1-1,1.4
		c-0.3,0.2-0.7,0.3-1.1,0.2S8,56.5,7.6,56.3c-0.4-0.3-0.7-0.7-1-1.2c-0.5-0.8-0.6-1.6-0.5-2.2c0.1-0.6,0.5-1.1,1.1-1.5l0.8,1.3
		c-0.3,0.3-0.5,0.5-0.5,0.8s0,0.6,0.3,1c0.2,0.4,0.5,0.7,0.8,0.8c0.2,0.1,0.4,0.1,0.5,0c0.2-0.1,0.3-0.2,0.3-0.4
		c0.1-0.3,0-0.7-0.2-1.5S8.8,52,8.8,51.6s0.1-0.8,0.3-1.1c0.2-0.3,0.5-0.6,0.9-0.8c0.4-0.2,0.8-0.3,1.3-0.3s0.9,0.2,1.2,0.5
		c0.4,0.3,0.7,0.7,1.1,1.3c0.5,0.8,0.6,1.6,0.5,2.3C13.9,54.1,13.5,54.7,12.8,55.2z"/>
	<path d="M11.6,47.7l-7.4,1.9l-0.4-1.5l2.9-0.8L6,44.5l-2.9,0.8l-0.4-1.5l7.4-1.9l0.4,1.5l-3.2,0.8L8,47.1l3.2-0.8L11.6,47.7z"/>
	<path d="M9.8,37.9l-7.6-0.8l0.2-1.5l3,0.3l0.3-3l-3-0.3L2.8,31l7.6,0.8l-0.2,1.5L6.9,33l-0.3,3l3.3,0.3L9.8,37.9z"/>
	<path d="M13.1,24.2l-0.6,1.6l-1.9,0l-1.1,2.9l1.4,1.2l-0.6,1.5l-6.1-5.5l0.6-1.5L13.1,24.2z M9.2,25.8l-3,0l2.3,2L9.2,25.8z"/>
	<path d="M13.3,23.9l-6.2-4.4L8,18.3l6,0.4l-4.1-3l0.8-1.2l6.2,4.4L16,20.2l-5.8-0.4l4.1,2.9L13.3,23.9z"/>
	<path d="M12.8,12.2l2.2-1.8c0.5-0.4,0.9-0.7,1.2-0.8c0.4-0.2,0.9-0.3,1.3-0.2s0.9,0.2,1.4,0.5s0.9,0.7,1.4,1.2
		c0.4,0.5,0.7,0.9,0.9,1.4c0.2,0.6,0.3,1.1,0.2,1.6c0,0.4-0.2,0.8-0.4,1.2c-0.2,0.3-0.5,0.6-0.9,1l-2.2,1.9L12.8,12.2z M14.8,12.2
		l3.2,3.9l0.9-0.7c0.3-0.3,0.5-0.5,0.7-0.6c0.1-0.2,0.2-0.4,0.3-0.6s0-0.5-0.2-0.8c-0.1-0.3-0.4-0.7-0.8-1.2c-0.4-0.4-0.7-0.8-1-0.9
		c-0.3-0.2-0.5-0.3-0.8-0.3c-0.3,0-0.5,0-0.8,0.2c-0.2,0.1-0.5,0.4-1,0.8L14.8,12.2z"/>
	<path d="M23.3,13.5l-3.1-7l2.1-0.9l3.4,4.2l-0.9-5.3l2.1-0.9l3.1,7l-1.3,0.6l-2.4-5.5l1,6.1l-1.4,0.6l-3.8-4.9l2.4,5.5L23.3,13.5z"
		/>
	<path d="M37.9,9.4l-1.7,0.2L35.3,8l-3,0.4l-0.4,1.8l-1.6,0.2l1.9-8l1.6-0.2L37.9,9.4z M34.7,6.8l-1.4-2.7l-0.6,2.9L34.7,6.8z"/>
	<path d="M39.2,1.9L42,2.2c0.6,0.1,1.1,0.2,1.4,0.3c0.4,0.2,0.8,0.5,1.1,0.8c0.3,0.4,0.5,0.8,0.6,1.3s0.1,1.1,0,1.8
		c-0.1,0.6-0.2,1.2-0.4,1.6c-0.3,0.5-0.6,0.9-1,1.2c-0.3,0.2-0.7,0.4-1.2,0.5c-0.3,0.1-0.8,0.1-1.4,0l-2.9-0.3L39.2,1.9z M40.5,3.3
		l-0.6,5l1.1,0.1c0.4,0.1,0.7,0.1,0.9,0c0.3,0,0.5-0.1,0.7-0.2c0.2-0.1,0.3-0.4,0.5-0.7c0.1-0.3,0.3-0.8,0.3-1.4s0.1-1,0-1.4
		s-0.2-0.6-0.3-0.8s-0.4-0.3-0.7-0.4c-0.2-0.1-0.6-0.2-1.3-0.2L40.5,3.3z"/>
	<path d="M45.5,10.5l2.7-7.1l5.3,2L53,6.6l-3.8-1.5l-0.6,1.6l3.6,1.4l-0.5,1.2l-3.6-1.4l-0.8,1.9l4,1.5l-0.5,1.2L45.5,10.5z"/>
	<path d="M59.6,15.6l0.8,1.3c-0.7,0.5-1.4,0.7-2.1,0.6c-0.7,0-1.3-0.3-1.9-0.9c-0.8-0.7-1.2-1.5-1.2-2.4s0.3-1.9,1.1-2.8
		c0.8-1,1.7-1.5,2.7-1.6s1.8,0.2,2.7,0.9c0.7,0.6,1.1,1.3,1.2,2.1c0,0.5-0.1,1-0.3,1.6l-1.4-0.7c0.2-0.4,0.3-0.7,0.2-1.1
		c-0.1-0.4-0.3-0.7-0.6-0.9c-0.4-0.4-0.9-0.5-1.4-0.4s-1.1,0.5-1.7,1.1c-0.6,0.7-1,1.4-1,1.9s0.2,1,0.6,1.3c0.3,0.3,0.7,0.4,1,0.4
		S59.1,15.9,59.6,15.6z"/>
	<path d="M62.4,16.9c0.7-0.4,1.3-0.7,1.8-0.8c0.4-0.1,0.8-0.1,1.3,0s0.8,0.2,1.1,0.4c0.4,0.3,0.8,0.7,1.2,1.2
		c0.6,0.9,0.8,1.9,0.6,2.8s-0.8,1.8-1.9,2.5c-1,0.7-2,0.9-3,0.8s-1.7-0.7-2.4-1.6c-0.6-0.9-0.8-1.9-0.6-2.8
		C60.8,18.4,61.4,17.6,62.4,16.9z M63.3,18.2c-0.7,0.5-1.2,1-1.3,1.6s0,1.1,0.3,1.6s0.8,0.8,1.4,0.9c0.6,0.1,1.2-0.1,2-0.6
		c0.7-0.5,1.2-1,1.3-1.6c0.1-0.6,0-1.1-0.3-1.6c-0.3-0.5-0.8-0.8-1.4-0.9S64.1,17.7,63.3,18.2z"/>
	<path d="M65.8,24.8l0.6,1.4c-0.4,0.3-0.7,0.5-0.9,0.9c-0.1,0.3-0.1,0.7,0,1.2c0.2,0.5,0.4,0.8,0.7,1c0.3,0.2,0.6,0.2,0.8,0.1
		c0.2-0.1,0.3-0.2,0.4-0.3s0.1-0.4,0.1-0.6c0-0.2,0-0.6-0.1-1.3c-0.1-0.9,0-1.5,0.2-1.9c0.3-0.6,0.7-1,1.2-1.2
		c0.4-0.1,0.8-0.1,1.1,0c0.4,0.1,0.7,0.3,1,0.6s0.6,0.8,0.7,1.3c0.3,0.9,0.3,1.7,0.1,2.3s-0.7,1-1.3,1.3L70.1,28
		c0.3-0.2,0.6-0.4,0.7-0.7c0.1-0.3,0.1-0.6-0.1-1c-0.2-0.4-0.3-0.7-0.6-0.9c-0.2-0.1-0.3-0.1-0.5-0.1c-0.2,0.1-0.3,0.2-0.4,0.4
		c-0.1,0.2-0.1,0.7,0,1.5s0.1,1.4,0,1.8c-0.1,0.4-0.2,0.8-0.5,1s-0.6,0.5-1.1,0.7c-0.4,0.1-0.8,0.2-1.3,0s-0.8-0.3-1.1-0.7
		s-0.6-0.9-0.8-1.5c-0.3-0.9-0.3-1.7-0.1-2.3C64.6,25.7,65.1,25.1,65.8,24.8z"/>
	<path d="M65.8,32.2l7.6-0.5l0.1,2.3l-5.1,1.7l5.3,1l0.1,2.3l-7.6,0.5l-0.1-1.4l6-0.4L66,36.7l-0.1-1.5l5.9-1.9l-6,0.4L65.8,32.2z"
		/>
	<path d="M66,40.7l7.5,1.5l-1.2,5.5l-1.3-0.3l0.8-4l-1.7-0.3l-0.8,3.8l-1.3-0.3l0.8-3.8l-2-0.4l-0.9,4.2l-1.3-0.3L66,40.7z"/>
	<path d="M63.8,48.8l5.8,2.7l0.9-2.1l1.2,0.5l-2.6,5.5l-1.2-0.5l0.9-2l-5.8-2.7L63.8,48.8z"/>
	<path d="M61.7,52.7L68,57l-0.9,1.3L60.8,54L61.7,52.7z"/>
	<path d="M58.9,60.5l-1.4,0.7c-0.4-0.8-0.6-1.5-0.5-2.1c0.1-0.7,0.4-1.3,1-1.9c0.7-0.7,1.5-1.1,2.5-1.1c1,0,1.9,0.4,2.7,1.3
		c0.9,0.9,1.4,1.8,1.4,2.8s-0.3,1.8-1,2.6c-0.7,0.7-1.4,1-2.2,1.1c-0.5,0-1-0.1-1.5-0.4l0.8-1.3c0.3,0.2,0.7,0.3,1.1,0.3
		c0.4,0,0.7-0.2,1-0.5c0.4-0.4,0.6-0.9,0.5-1.4c0-0.5-0.4-1.1-1-1.8c-0.7-0.7-1.3-1-1.8-1.1c-0.5,0-1,0.1-1.4,0.5
		c-0.3,0.3-0.4,0.6-0.5,1C58.4,59.6,58.5,60,58.9,60.5z"/>
	<path d="M56.7,62l-1.2,0.9c-0.3-0.4-0.7-0.6-1-0.7s-0.7,0-1.1,0.3c-0.4,0.3-0.7,0.5-0.8,0.9c-0.1,0.3-0.1,0.6,0.1,0.8
		c0.1,0.2,0.2,0.3,0.4,0.3c0.2,0.1,0.4,0.1,0.7,0c0.2,0,0.6-0.2,1.2-0.4c0.8-0.3,1.4-0.3,1.9-0.3c0.6,0.1,1.1,0.4,1.4,0.9
		c0.2,0.3,0.3,0.7,0.3,1.1s-0.2,0.8-0.4,1.2s-0.6,0.7-1.1,1c-0.8,0.5-1.5,0.7-2.2,0.6s-1.1-0.4-1.5-1l1.3-0.9
		c0.3,0.3,0.5,0.5,0.8,0.5c0.3,0,0.6-0.1,1-0.3c0.4-0.2,0.6-0.5,0.8-0.8c0.1-0.2,0.1-0.4,0-0.5c-0.1-0.2-0.2-0.3-0.4-0.3
		c-0.3,0-0.7,0.1-1.5,0.3s-1.3,0.4-1.7,0.4s-0.8-0.1-1.1-0.2c-0.3-0.2-0.6-0.5-0.9-0.9c-0.2-0.4-0.3-0.8-0.3-1.2
		c0-0.4,0.2-0.9,0.4-1.3s0.7-0.8,1.3-1.1c0.8-0.5,1.6-0.7,2.2-0.6S56.2,61.4,56.7,62z"/>
</g>
</svg>
