<?xml version="1.0" encoding="utf-8"?>
<!-- Generator: Adobe Illustrator 23.0.0, SVG Export Plug-In . SVG Version: 6.00 Build 0)  -->
<svg version="1.1" id="レイヤー_1" xmlns="http://www.w3.org/2000/svg" xmlns:xlink="http://www.w3.org/1999/xlink" x="0px"
	 y="0px" viewBox="0 0 76.5 76.5" style="enable-background:new 0 0 76.5 76.5;" xml:space="preserve">
<style type="text/css">
	.st0{fill:#FFFFFF;}
</style>
<g>
	<circle class="st0" cx="38.3" cy="38.3" r="36.9"/>
	<g>
		<path d="M31.2,65.1l-2.5,7.1l-4.9-1.7l0.4-1.2l3.4,1.2l0.6-1.7l-3-1.1l0.4-1.2l3,1.1l1.1-3L31.2,65.1z"/>
		<path d="M25.6,63l-4.2,6.3l-2.7-1.8c-0.7-0.4-1.1-0.8-1.4-1.1c-0.2-0.3-0.3-0.7-0.3-1.1s0.1-0.8,0.4-1.2c0.3-0.5,0.7-0.8,1.2-0.9
			c0.5-0.1,1,0,1.6,0.2c-0.2-0.3-0.3-0.7-0.3-1c0-0.3-0.1-0.8,0-1.5l0-1.7l1.5,1l0,2c0,0.7,0,1.2,0.1,1.4c0,0.2,0.1,0.4,0.2,0.5
			c0.1,0.1,0.3,0.3,0.6,0.5l0.3,0.2l1.7-2.6L25.6,63z M21.9,65.8L21,65.2c-0.6-0.4-1-0.6-1.2-0.7c-0.2,0-0.4,0-0.5,0
			c-0.2,0.1-0.3,0.2-0.4,0.4c-0.1,0.2-0.2,0.4-0.2,0.6c0,0.2,0.1,0.4,0.3,0.6c0.1,0.1,0.4,0.3,0.9,0.6l1,0.7L21.9,65.8z"/>
		<path d="M19.7,58.9L14.1,64l-3.8-4.1l0.9-0.9l2.7,3l1.2-1.1l-2.6-2.8l0.9-0.9l2.6,2.8l1.5-1.4l-2.8-3.1l0.9-0.9L19.7,58.9z"/>
		<path d="M13.3,55.5l-0.8-1.2c0.4-0.3,0.6-0.7,0.7-1c0.1-0.4,0-0.7-0.2-1.1c-0.2-0.4-0.5-0.7-0.8-0.8c-0.3-0.1-0.6-0.1-0.8,0
			c-0.2,0.1-0.3,0.2-0.3,0.4c-0.1,0.1-0.1,0.4,0,0.6c0,0.2,0.1,0.6,0.3,1.2c0.2,0.8,0.3,1.4,0.2,1.9c-0.1,0.6-0.5,1.1-1,1.3
			C10.1,56.9,9.7,57,9.4,57c-0.4,0-0.8-0.2-1.1-0.5c-0.4-0.3-0.7-0.7-0.9-1.2c-0.5-0.8-0.6-1.6-0.5-2.2c0.1-0.6,0.5-1.1,1.1-1.5
			L8.7,53c-0.3,0.2-0.5,0.5-0.5,0.8s0,0.6,0.2,1c0.2,0.4,0.5,0.6,0.7,0.8c0.2,0.1,0.4,0.1,0.5,0c0.2-0.1,0.3-0.2,0.3-0.4
			c0-0.2,0-0.7-0.2-1.5s-0.3-1.3-0.3-1.7s0.1-0.8,0.3-1.1c0.2-0.3,0.5-0.6,0.9-0.8c0.4-0.2,0.8-0.3,1.2-0.3c0.4,0,0.9,0.2,1.2,0.5
			c0.4,0.3,0.7,0.7,1,1.3c0.5,0.8,0.6,1.6,0.5,2.2C14.4,54.4,14,55,13.3,55.5z"/>
		<path d="M12.2,48.1L4.9,50l-0.4-1.5l2.9-0.8l-0.8-2.9l-2.9,0.8l-0.4-1.5l7.3-1.9l0.4,1.5l-3.2,0.8l0.8,2.9l3.2-0.8L12.2,48.1z"/>
		<path d="M10.4,38.3l-7.5-0.8L3,36.1l3,0.3l0.3-3l-3-0.3l0.2-1.5l7.5,0.8l-0.2,1.5l-3.3-0.3l-0.3,3l3.3,0.3L10.4,38.3z"/>
		<path d="M13.6,24.9L13,26.4l-1.8,0l-1.1,2.8l1.4,1.2L10.9,32l-6-5.4L5.5,25L13.6,24.9z M9.8,26.4l-3,0l2.3,1.9L9.8,26.4z"/>
		<path d="M13.9,24.6l-6.2-4.4L8.6,19l5.9,0.4l-4.1-2.9l0.8-1.2l6.2,4.4l-0.9,1.2l-5.8-0.4l4,2.9L13.9,24.6z"/>
		<path d="M13.3,13l2.1-1.8c0.5-0.4,0.9-0.7,1.2-0.8c0.4-0.2,0.9-0.2,1.3-0.2c0.5,0,0.9,0.2,1.3,0.5c0.4,0.3,0.9,0.7,1.3,1.2
			c0.4,0.5,0.7,0.9,0.9,1.4c0.2,0.5,0.3,1.1,0.2,1.5c0,0.4-0.2,0.8-0.4,1.1c-0.2,0.3-0.5,0.6-0.9,1l-2.2,1.8L13.3,13z M15.3,13
			l3.2,3.8l0.9-0.7c0.3-0.3,0.5-0.5,0.7-0.6c0.1-0.2,0.2-0.4,0.3-0.6c0-0.2,0-0.5-0.2-0.8c-0.1-0.3-0.4-0.7-0.8-1.2
			c-0.4-0.4-0.7-0.8-1-0.9c-0.3-0.2-0.5-0.3-0.8-0.3c-0.3,0-0.5,0-0.8,0.2c-0.2,0.1-0.5,0.3-1,0.7L15.3,13z"/>
		<path d="M23.7,14.3l-3.1-6.9l2.1-0.9l3.3,4.2l-0.9-5.3l2.1-0.9l3.1,6.9l-1.3,0.6l-2.4-5.4l1,6l-1.3,0.6l-3.8-4.8l2.4,5.4
			L23.7,14.3z"/>
		<path d="M38.1,10.2l-1.6,0.2l-0.9-1.6l-3,0.4L32.2,11l-1.6,0.2l1.9-7.9l1.6-0.2L38.1,10.2z M35,7.6L33.5,5l-0.6,2.9L35,7.6z"/>
		<path d="M39.4,2.8l2.8,0.3c0.6,0.1,1.1,0.2,1.4,0.3c0.4,0.2,0.8,0.5,1,0.8c0.3,0.4,0.5,0.8,0.6,1.3c0.1,0.5,0.1,1.1,0,1.8
			c-0.1,0.6-0.2,1.1-0.4,1.6c-0.2,0.5-0.6,0.9-1,1.2c-0.3,0.2-0.7,0.4-1.1,0.5c-0.3,0.1-0.8,0.1-1.4,0l-2.8-0.3L39.4,2.8z M40.8,4.2
			l-0.6,5l1.1,0.1c0.4,0,0.7,0.1,0.9,0c0.3,0,0.5-0.1,0.7-0.2c0.2-0.1,0.3-0.4,0.5-0.7c0.1-0.3,0.2-0.8,0.3-1.4c0.1-0.6,0.1-1,0-1.4
			c-0.1-0.3-0.2-0.6-0.3-0.8c-0.2-0.2-0.4-0.3-0.7-0.4c-0.2-0.1-0.6-0.1-1.2-0.2L40.8,4.2z"/>
		<path d="M45.6,11.3l2.7-7l5.2,2l-0.5,1.2L49.3,6l-0.6,1.6l3.5,1.4l-0.5,1.2l-3.6-1.4l-0.7,1.9l3.9,1.5L51,13.3L45.6,11.3z"/>
		<path d="M59.6,16.3l0.8,1.3c-0.7,0.5-1.4,0.7-2.1,0.6c-0.7,0-1.3-0.3-1.9-0.9c-0.8-0.7-1.2-1.5-1.2-2.4c0-0.9,0.3-1.9,1.1-2.8
			c0.8-0.9,1.7-1.5,2.7-1.6c0.9-0.1,1.8,0.2,2.6,0.9c0.7,0.6,1.1,1.3,1.2,2.1c0,0.5-0.1,1-0.3,1.6l-1.4-0.7c0.2-0.4,0.2-0.7,0.2-1.1
			c-0.1-0.4-0.2-0.7-0.6-0.9c-0.4-0.4-0.9-0.5-1.4-0.4c-0.5,0.1-1.1,0.5-1.7,1.1c-0.6,0.7-0.9,1.3-0.9,1.9s0.2,1,0.6,1.3
			c0.3,0.3,0.7,0.4,1,0.4C58.7,16.8,59.2,16.6,59.6,16.3z"/>
		<path d="M62.4,17.7c0.6-0.4,1.2-0.7,1.8-0.8c0.4-0.1,0.8-0.1,1.3,0c0.4,0.1,0.8,0.2,1.1,0.4c0.4,0.3,0.8,0.7,1.2,1.2
			c0.6,0.9,0.8,1.9,0.6,2.8c-0.2,0.9-0.8,1.7-1.8,2.4c-1,0.7-2,0.9-2.9,0.8c-0.9-0.2-1.7-0.7-2.3-1.6c-0.6-0.9-0.8-1.9-0.6-2.8
			C60.8,19.1,61.4,18.3,62.4,17.7z M63.3,18.9c-0.7,0.5-1.1,1-1.3,1.6c-0.1,0.6,0,1.1,0.3,1.6c0.3,0.5,0.8,0.8,1.4,0.9
			c0.6,0.1,1.2-0.1,2-0.6c0.7-0.5,1.1-1,1.3-1.6c0.1-0.6,0-1.1-0.3-1.6c-0.3-0.5-0.8-0.8-1.4-0.9C64.7,18.3,64,18.5,63.3,18.9z"/>
		<path d="M65.8,25.4l0.6,1.4c-0.4,0.2-0.7,0.5-0.9,0.9c-0.1,0.3-0.1,0.7,0,1.2c0.2,0.5,0.4,0.8,0.7,0.9c0.3,0.2,0.5,0.2,0.8,0.1
			c0.2-0.1,0.3-0.2,0.4-0.3c0.1-0.1,0.1-0.3,0.1-0.6c0-0.2,0-0.6-0.1-1.3c-0.1-0.8,0-1.5,0.1-1.9c0.2-0.6,0.6-1,1.2-1.1
			c0.4-0.1,0.7-0.1,1.1,0c0.4,0.1,0.7,0.3,1,0.6c0.3,0.3,0.5,0.8,0.7,1.3c0.3,0.9,0.3,1.6,0.1,2.2c-0.2,0.6-0.7,1-1.3,1.3L70,28.6
			c0.3-0.2,0.6-0.4,0.7-0.7c0.1-0.3,0.1-0.6-0.1-1c-0.1-0.4-0.3-0.7-0.6-0.9c-0.2-0.1-0.3-0.1-0.5-0.1c-0.2,0.1-0.3,0.2-0.4,0.4
			c-0.1,0.2-0.1,0.7,0,1.5c0.1,0.8,0.1,1.3,0,1.7c-0.1,0.4-0.2,0.7-0.5,1c-0.2,0.3-0.6,0.5-1,0.7c-0.4,0.1-0.8,0.2-1.3,0
			c-0.4-0.1-0.8-0.3-1.1-0.7c-0.3-0.4-0.6-0.8-0.8-1.5c-0.3-0.9-0.3-1.7-0.1-2.3C64.5,26.3,65,25.8,65.8,25.4z"/>
		<path d="M65.7,32.8l7.5-0.5l0.1,2.3l-5.1,1.7l5.2,1l0.1,2.3l-7.5,0.5l-0.1-1.4l5.9-0.4l-6-1.1l-0.1-1.5l5.8-1.9l-5.9,0.4
			L65.7,32.8z"/>
		<path d="M66,41.1l7.4,1.5l-1.1,5.5L71,47.9l0.8-4l-1.6-0.3l-0.8,3.7L68.2,47l0.8-3.7l-2-0.4L66.1,47l-1.2-0.3L66,41.1z"/>
		<path d="M63.7,49.1l5.7,2.6l0.9-2l1.2,0.5L69,55.7l-1.2-0.5l0.9-2l-5.7-2.6L63.7,49.1z"/>
		<path d="M61.7,53l6.3,4.2l-0.9,1.3l-6.3-4.2L61.7,53z"/>
		<path d="M58.9,60.7l-1.4,0.7c-0.4-0.7-0.6-1.4-0.5-2.1c0.1-0.7,0.4-1.3,1-1.9c0.7-0.7,1.5-1.1,2.5-1.1c0.9,0,1.8,0.4,2.7,1.3
			c0.9,0.9,1.4,1.8,1.4,2.7c0,0.9-0.3,1.8-1,2.6c-0.6,0.7-1.4,1-2.2,1c-0.5,0-1-0.1-1.5-0.4l0.8-1.3c0.3,0.2,0.7,0.3,1.1,0.2
			c0.4,0,0.7-0.2,1-0.5c0.4-0.4,0.6-0.9,0.5-1.4c0-0.5-0.4-1.1-1-1.7c-0.7-0.7-1.3-1-1.8-1c-0.5,0-1,0.1-1.4,0.5
			c-0.3,0.3-0.4,0.6-0.5,1C58.4,59.8,58.6,60.2,58.9,60.7z"/>
		<path d="M56.7,62.2l-1.2,0.9c-0.3-0.4-0.7-0.6-1-0.7c-0.4-0.1-0.7,0-1.1,0.3c-0.4,0.3-0.7,0.5-0.8,0.9c-0.1,0.3-0.1,0.6,0.1,0.8
			c0.1,0.1,0.2,0.3,0.4,0.3c0.2,0,0.4,0,0.6,0c0.2,0,0.6-0.2,1.2-0.4c0.8-0.3,1.4-0.3,1.9-0.3c0.6,0.1,1.1,0.4,1.4,0.9
			c0.2,0.3,0.3,0.7,0.3,1.1s-0.1,0.8-0.4,1.1s-0.6,0.7-1.1,1c-0.8,0.5-1.5,0.7-2.1,0.6c-0.6-0.1-1.1-0.4-1.5-1l1.3-0.9
			c0.3,0.3,0.5,0.5,0.8,0.5c0.3,0,0.6-0.1,1-0.3c0.4-0.2,0.6-0.5,0.7-0.8c0.1-0.2,0.1-0.4,0-0.5c-0.1-0.1-0.2-0.2-0.4-0.3
			c-0.2,0-0.7,0.1-1.5,0.3s-1.3,0.4-1.7,0.4c-0.4,0-0.8,0-1.1-0.2c-0.3-0.2-0.6-0.5-0.9-0.9c-0.2-0.4-0.3-0.8-0.3-1.2
			s0.1-0.9,0.4-1.3c0.3-0.4,0.7-0.8,1.3-1.1c0.8-0.5,1.6-0.7,2.2-0.6C55.6,61.2,56.2,61.6,56.7,62.2z"/>
	</g>
</g>
</svg>
