<?xml version="1.0" encoding="utf-8"?>
<!-- Generator: Adobe Illustrator 23.0.1, SVG Export Plug-In . SVG Version: 6.00 Build 0)  -->
<svg version="1.1" id="レイヤー_1" xmlns="http://www.w3.org/2000/svg" xmlns:xlink="http://www.w3.org/1999/xlink" x="0px"
	 y="0px" viewBox="0 0 76 74" style="enable-background:new 0 0 76 74;" xml:space="preserve">
<style type="text/css">
	.st0{fill:#FFFFFF;}
</style>
<path id="SVGID_x5F_1_x5F_" style="fill:none;" d="M-59.91,9.99c15.49,0,28.05,12.56,28.05,28.05S-44.42,66.1-59.91,66.1
	s-28.05-12.56-28.05-28.05S-75.41,9.99-59.91,9.99z"/>
<text><textPath  xlink:href="#SVGID_x5F_1_x5F_" startOffset="71.4793%">
<tspan  style="font-family:'Arial-BoldMT'; font-size:10.6667px;">FRESH HANDMADE COSMETICS </tspan></textPath>
</text>
<g>
	<polygon class="st0" points="38.97,42.86 42.46,32.14 48.11,40.36 	"/>
	<g>
		<g>
			<g>
				<path d="M22.9,36.99c6.45-2.51,11.22-2.59,17.14,1.17c0.47,0.3,2.12-0.48,1.82-0.67c-6.73-4.27-12.45-3.78-19.63-0.98
					C20.95,36.99,22.14,37.28,22.9,36.99L22.9,36.99z"/>
			</g>
		</g>
		<g>
			<g>
				<path d="M40.6,30.07c1.97,1.5,12.59,7.49,10.15,10.15c-1.02,1.11-3.33,1.89-4.66,2.8c-3.15,2.16-6.12,4.46-9.76,5.77
					c0.43-0.03,0.86-0.05,1.29-0.08c0.23-3.21,1.7-5.72,2.51-8.84c0.88-3.41,1.23-6.96,2.33-10.31c0.09-0.28-1.75-0.1-1.9,0.36
					c-1.21,3.68-1.53,7.6-2.6,11.32c-0.85,2.94-2.05,4.93-2.27,7.98c-0.02,0.28,1.24-0.06,1.29-0.08
					c6.02-2.16,10.43-7.03,16.32-9.37c0.06-0.02,0.49-0.21,0.42-0.35c-2.48-4.71-7.23-6.89-11.29-10
					C42.02,29.13,40.38,29.91,40.6,30.07L40.6,30.07z"/>
			</g>
		</g>
	</g>
</g>
</svg>
