<?xml version="1.0" encoding="utf-8"?>
<!-- Generator: Adobe Illustrator 23.0.0, SVG Export Plug-In . SVG Version: 6.00 Build 0)  -->
<svg version="1.1" id="レイヤー_1" xmlns="http://www.w3.org/2000/svg" xmlns:xlink="http://www.w3.org/1999/xlink" x="0px"
	 y="0px" viewBox="0 0 73.7 73.7" style="enable-background:new 0 0 73.7 73.7;" xml:space="preserve">
<g>
	<path d="M29.8,65l-2.5,7.3l-4.9-1.8l0.4-1.2l3.4,1.3l0.6-1.7l-3-1.1l0.4-1.2l3,1.1l1.1-3.1L29.8,65z"/>
	<path d="M24.1,62.9L20,69.3l-2.7-1.8c-0.7-0.5-1.1-0.8-1.4-1.2c-0.2-0.3-0.3-0.7-0.3-1.1s0.1-0.8,0.4-1.2c0.3-0.5,0.7-0.8,1.2-0.9
		c0.5-0.1,1-0.1,1.6,0.2c-0.2-0.4-0.3-0.7-0.3-1c0-0.3-0.1-0.8,0-1.5l0-1.8l1.5,1l0,2c0,0.7,0,1.2,0.1,1.4c0,0.2,0.1,0.4,0.2,0.5
		c0.1,0.1,0.3,0.3,0.6,0.5l0.3,0.2l1.7-2.7L24.1,62.9z M20.5,65.8l-0.9-0.6c-0.6-0.4-1-0.6-1.2-0.7c-0.2-0.1-0.4,0-0.5,0
		s-0.3,0.2-0.4,0.4c-0.1,0.2-0.2,0.4-0.2,0.6c0,0.2,0.1,0.4,0.3,0.6c0.1,0.1,0.4,0.3,0.9,0.6l1,0.7L20.5,65.8z"/>
	<path d="M18.2,58.7l-5.6,5.2l-3.8-4.2l0.9-0.9l2.7,3.1l1.2-1.1l-2.6-2.9l0.9-0.9l2.6,2.9l1.5-1.4l-2.8-3.2l0.9-0.9L18.2,58.7z"/>
	<path d="M11.9,55.2L11.1,54c0.4-0.3,0.6-0.7,0.7-1c0.1-0.4,0-0.7-0.2-1.2c-0.2-0.4-0.5-0.7-0.8-0.8c-0.3-0.1-0.6-0.1-0.8,0
		c-0.2,0.1-0.3,0.2-0.3,0.4c-0.1,0.2-0.1,0.4,0,0.7c0,0.2,0.1,0.6,0.3,1.3c0.2,0.8,0.3,1.5,0.2,1.9c-0.1,0.6-0.5,1.1-1,1.4
		c-0.3,0.2-0.7,0.3-1.1,0.2c-0.4,0-0.8-0.2-1.1-0.5s-0.7-0.7-0.9-1.2c-0.5-0.8-0.6-1.6-0.5-2.2c0.1-0.6,0.5-1.1,1.1-1.5l0.8,1.3
		c-0.3,0.3-0.5,0.5-0.5,0.8s0,0.6,0.2,1c0.2,0.4,0.5,0.7,0.7,0.8c0.2,0.1,0.4,0.1,0.5,0c0.2-0.1,0.3-0.2,0.3-0.4
		c0-0.3,0-0.7-0.2-1.5C8.1,52.6,8,52,8,51.6c0-0.4,0.1-0.8,0.3-1.1c0.2-0.3,0.5-0.6,0.9-0.9c0.4-0.2,0.8-0.3,1.2-0.3
		c0.4,0,0.9,0.2,1.2,0.5c0.4,0.3,0.7,0.7,1,1.3c0.5,0.9,0.6,1.6,0.5,2.3C13,54.1,12.6,54.7,11.9,55.2z"/>
	<path d="M10.8,47.7l-7.3,1.9l-0.4-1.5l2.9-0.8l-0.8-2.9l-2.9,0.8l-0.4-1.5l7.3-1.9l0.4,1.5l-3.2,0.8L7.2,47l3.2-0.8L10.8,47.7z"/>
	<path d="M8.9,37.7l-7.5-0.8l0.2-1.5l3,0.3l0.3-3l-3-0.3L2,30.8l7.5,0.8l-0.2,1.5l-3.3-0.3l-0.3,3l3.3,0.3L8.9,37.7z"/>
	<path d="M12.2,24l-0.6,1.6l-1.8,0l-1.1,2.9l1.4,1.2l-0.6,1.5l-6-5.5L4,24.1L12.2,24z M8.4,25.6l-3,0l2.3,2L8.4,25.6z"/>
	<path d="M12.5,23.7l-6.2-4.5L7.2,18l5.9,0.4l-4.1-3l0.8-1.2l6.2,4.5l-0.9,1.3l-5.8-0.4l4,2.9L12.5,23.7z"/>
	<path d="M11.9,11.9L14,10c0.5-0.4,0.9-0.7,1.2-0.8C15.7,9,16.1,9,16.5,9c0.5,0.1,0.9,0.2,1.3,0.5c0.4,0.3,0.9,0.7,1.3,1.2
		c0.4,0.5,0.7,1,0.9,1.4c0.2,0.6,0.3,1.1,0.2,1.6c0,0.4-0.2,0.8-0.4,1.2c-0.2,0.3-0.5,0.6-0.9,1l-2.2,1.9L11.9,11.9z M13.9,11.9
		l3.2,3.9L18,15c0.3-0.3,0.5-0.5,0.7-0.7c0.1-0.2,0.2-0.4,0.3-0.6c0-0.2,0-0.5-0.2-0.8c-0.1-0.3-0.4-0.7-0.8-1.2
		c-0.4-0.5-0.7-0.8-1-0.9c-0.3-0.2-0.5-0.3-0.8-0.3c-0.3,0-0.5,0-0.8,0.2c-0.2,0.1-0.5,0.4-1,0.8L13.9,11.9z"/>
	<path d="M22.3,13.2l-3.1-7l2.1-0.9l3.3,4.2l-0.9-5.4l2.1-0.9l3.1,7l-1.3,0.6l-2.4-5.5l1,6.2l-1.3,0.6L21.2,7l2.4,5.5L22.3,13.2z"/>
	<path d="M36.7,9l-1.6,0.2l-0.9-1.6l-3,0.4l-0.4,1.8L29.2,10l1.9-8l1.6-0.2L36.7,9z M33.5,6.4l-1.4-2.7l-0.6,3L33.5,6.4z"/>
	<path d="M38,1.4l2.8,0.3c0.6,0.1,1.1,0.2,1.4,0.3c0.4,0.2,0.8,0.5,1,0.8c0.3,0.4,0.5,0.8,0.6,1.3c0.1,0.5,0.1,1.1,0,1.8
		c-0.1,0.6-0.2,1.2-0.4,1.6c-0.2,0.5-0.6,0.9-1,1.3c-0.3,0.2-0.7,0.4-1.1,0.5c-0.3,0.1-0.8,0.1-1.4,0l-2.8-0.3L38,1.4z M39.4,2.9
		L38.8,8l1.1,0.1c0.4,0.1,0.7,0.1,0.9,0c0.3,0,0.5-0.1,0.7-0.2c0.2-0.1,0.3-0.4,0.5-0.7c0.1-0.3,0.2-0.8,0.3-1.4s0.1-1,0-1.4
		s-0.2-0.6-0.3-0.8c-0.2-0.2-0.4-0.3-0.7-0.4C41.1,3.1,40.6,3.1,40,3L39.4,2.9z"/>
	<path d="M44.2,10.1l2.7-7.2l5.2,2l-0.5,1.2l-3.8-1.5l-0.6,1.6l3.5,1.4l-0.5,1.2l-3.6-1.4l-0.7,2L50,11l-0.5,1.2L44.2,10.1z"/>
	<path d="M58.2,15.2l0.8,1.4c-0.7,0.5-1.4,0.7-2.1,0.7c-0.7,0-1.3-0.3-1.9-0.9c-0.8-0.7-1.2-1.5-1.2-2.4c0-1,0.3-1.9,1.1-2.8
		c0.8-1,1.7-1.5,2.7-1.6c0.9-0.1,1.8,0.2,2.6,0.9c0.7,0.6,1.1,1.3,1.2,2.1c0,0.5-0.1,1-0.3,1.6l-1.4-0.7c0.2-0.4,0.2-0.7,0.2-1.1
		c-0.1-0.4-0.2-0.7-0.6-0.9c-0.4-0.4-0.9-0.5-1.4-0.4s-1.1,0.5-1.7,1.1c-0.6,0.7-0.9,1.4-0.9,1.9s0.2,1,0.6,1.4
		c0.3,0.3,0.7,0.4,1,0.4C57.3,15.7,57.7,15.6,58.2,15.2z"/>
	<path d="M61,16.6c0.6-0.4,1.2-0.7,1.8-0.8c0.4-0.1,0.8-0.1,1.3,0c0.4,0.1,0.8,0.2,1.1,0.4c0.4,0.3,0.8,0.7,1.2,1.2
		c0.6,0.9,0.8,1.9,0.6,2.9s-0.8,1.8-1.8,2.5c-1,0.7-2,0.9-2.9,0.8c-0.9-0.2-1.7-0.7-2.3-1.7C59.2,21,59,20,59.2,19.1
		C59.4,18.1,60,17.3,61,16.6z M61.9,17.9c-0.7,0.5-1.1,1-1.3,1.6c-0.1,0.6,0,1.1,0.3,1.7c0.3,0.5,0.8,0.8,1.4,0.9
		c0.6,0.1,1.2-0.1,2-0.6c0.7-0.5,1.1-1,1.3-1.6c0.1-0.6,0-1.1-0.3-1.6s-0.8-0.8-1.4-0.9S62.6,17.4,61.9,17.9z"/>
	<path d="M64.4,24.5l0.6,1.4c-0.4,0.3-0.7,0.5-0.9,0.9c-0.1,0.3-0.1,0.7,0,1.2c0.2,0.5,0.4,0.8,0.7,1c0.3,0.2,0.5,0.2,0.8,0.1
		c0.2-0.1,0.3-0.2,0.4-0.3s0.1-0.4,0.1-0.6c0-0.2,0-0.6-0.1-1.3c-0.1-0.9,0-1.5,0.1-1.9c0.2-0.6,0.6-1,1.2-1.2
		c0.4-0.1,0.7-0.1,1.1,0c0.4,0.1,0.7,0.3,1,0.7c0.3,0.3,0.5,0.8,0.7,1.4c0.3,0.9,0.3,1.7,0.1,2.3c-0.2,0.6-0.7,1-1.3,1.3l-0.6-1.5
		c0.3-0.2,0.6-0.4,0.7-0.7c0.1-0.3,0.1-0.6-0.1-1c-0.1-0.4-0.3-0.7-0.6-0.9c-0.2-0.1-0.3-0.1-0.5-0.1c-0.2,0.1-0.3,0.2-0.4,0.4
		c-0.1,0.2-0.1,0.7,0,1.5s0.1,1.4,0,1.8c-0.1,0.4-0.2,0.8-0.5,1.1c-0.2,0.3-0.6,0.5-1,0.7c-0.4,0.1-0.8,0.2-1.3,0.1
		s-0.8-0.3-1.1-0.7c-0.3-0.4-0.6-0.9-0.8-1.5c-0.3-0.9-0.3-1.7-0.1-2.3C63.1,25.4,63.6,24.9,64.4,24.5z"/>
	<path d="M64.3,32.1l7.5-0.5l0.1,2.3l-5.1,1.7l5.2,1.1l0.1,2.3l-7.5,0.5L64.7,38l5.9-0.4l-6-1.1L64.5,35l5.8-1.9l-5.9,0.4L64.3,32.1
		z"/>
	<path d="M64.6,40.6l7.4,1.6l-1.1,5.6l-1.2-0.3l0.8-4.1l-1.6-0.3L68,46.8l-1.2-0.3l0.8-3.8l-2-0.4l-0.9,4.2l-1.2-0.3L64.6,40.6z"/>
	<path d="M62.3,48.7l5.7,2.7l0.9-2.1l1.2,0.5l-2.5,5.5l-1.2-0.5l0.9-2.1l-5.7-2.7L62.3,48.7z"/>
	<path d="M60.3,52.7l6.3,4.3l-0.9,1.3L59.4,54L60.3,52.7z"/>
	<path d="M57.5,60.5l-1.4,0.7c-0.4-0.8-0.6-1.5-0.5-2.1c0.1-0.7,0.4-1.3,1-1.9c0.7-0.7,1.5-1.1,2.5-1.1c0.9,0,1.8,0.4,2.7,1.3
		c0.9,0.9,1.4,1.8,1.4,2.8c0,1-0.3,1.8-1,2.6c-0.6,0.7-1.4,1-2.2,1.1c-0.5,0-1-0.1-1.5-0.4l0.8-1.4c0.3,0.2,0.7,0.3,1.1,0.3
		c0.4,0,0.7-0.2,1-0.5c0.4-0.4,0.6-0.9,0.5-1.4c0-0.5-0.4-1.1-1-1.8c-0.7-0.7-1.3-1-1.8-1.1c-0.5,0-1,0.1-1.4,0.5
		c-0.3,0.3-0.4,0.6-0.5,1C57,59.6,57.2,60.1,57.5,60.5z"/>
	<path d="M55.3,62.1L54.1,63c-0.3-0.4-0.7-0.6-1-0.7c-0.4-0.1-0.7,0-1.1,0.3c-0.4,0.3-0.7,0.6-0.8,0.9c-0.1,0.3-0.1,0.6,0.1,0.8
		c0.1,0.2,0.2,0.3,0.4,0.3c0.2,0.1,0.4,0.1,0.6,0c0.2,0,0.6-0.2,1.2-0.4c0.8-0.3,1.4-0.4,1.9-0.3c0.6,0.1,1.1,0.4,1.4,0.9
		c0.2,0.3,0.3,0.7,0.3,1.1s-0.1,0.8-0.4,1.2c-0.3,0.4-0.6,0.7-1.1,1c-0.8,0.5-1.5,0.7-2.1,0.6c-0.6-0.1-1.1-0.5-1.5-1l1.3-0.9
		c0.3,0.3,0.5,0.5,0.8,0.5c0.3,0,0.6-0.1,1-0.3c0.4-0.2,0.6-0.5,0.7-0.8c0.1-0.2,0.1-0.4,0-0.5c-0.1-0.2-0.2-0.3-0.4-0.3
		c-0.2,0-0.7,0.1-1.5,0.3s-1.3,0.4-1.7,0.4c-0.4,0-0.8-0.1-1.1-0.2c-0.3-0.2-0.6-0.5-0.9-0.9c-0.2-0.4-0.3-0.8-0.3-1.3
		c0-0.5,0.1-0.9,0.4-1.3c0.3-0.4,0.7-0.8,1.3-1.1c0.8-0.5,1.6-0.7,2.2-0.6C54.2,61,54.8,61.4,55.3,62.1z"/>
</g>
</svg>
