<?xml version="1.0" encoding="utf-8"?>
<!-- Generator: Adobe Illustrator 23.0.1, SVG Export Plug-In . SVG Version: 6.00 Build 0)  -->
<svg version="1.1" id="レイヤー_1" xmlns="http://www.w3.org/2000/svg" xmlns:xlink="http://www.w3.org/1999/xlink" x="0px"
	 y="0px" viewBox="0 0 76 74" style="enable-background:new 0 0 76 74;" xml:space="preserve">
<g>
	<path d="M30.97,65.3l-2.57,7.19l-4.93-1.76l0.43-1.22l3.48,1.24l0.61-1.7l-3-1.07l0.43-1.22l3,1.07l1.09-3.06L30.97,65.3z"/>
	<path d="M25.25,63.18l-4.2,6.38l-2.71-1.78c-0.68-0.45-1.14-0.83-1.37-1.15c-0.23-0.32-0.35-0.68-0.34-1.1s0.13-0.81,0.38-1.19
		c0.31-0.48,0.72-0.78,1.2-0.91c0.49-0.13,1.04-0.05,1.65,0.24c-0.17-0.35-0.28-0.67-0.34-0.99c-0.05-0.31-0.07-0.82-0.05-1.52
		l0.04-1.76l1.54,1.01l0.02,2c0,0.71,0.02,1.17,0.06,1.38c0.04,0.21,0.11,0.38,0.21,0.52s0.31,0.3,0.6,0.5L22.21,65l1.75-2.66
		L25.25,63.18z M21.54,66.02l-0.95-0.63c-0.62-0.41-1.02-0.63-1.21-0.68s-0.37-0.04-0.54,0.03s-0.32,0.2-0.45,0.39
		c-0.14,0.21-0.2,0.43-0.17,0.63c0.03,0.21,0.13,0.4,0.32,0.57c0.09,0.08,0.4,0.3,0.93,0.64l1.01,0.66L21.54,66.02z"/>
	<path d="M19.29,59.05l-5.63,5.16l-3.83-4.17l0.95-0.87l2.78,3.04l1.25-1.14l-2.59-2.83l0.95-0.87l2.59,2.83l1.53-1.4l-2.88-3.14
		l0.95-0.87L19.29,59.05z"/>
	<path d="M12.87,55.56l-0.85-1.24c0.4-0.32,0.63-0.66,0.71-1.02c0.07-0.36,0-0.74-0.23-1.15c-0.24-0.43-0.51-0.71-0.82-0.83
		c-0.31-0.12-0.58-0.11-0.83,0.03c-0.16,0.09-0.27,0.21-0.33,0.36c-0.06,0.15-0.07,0.37-0.02,0.65c0.03,0.19,0.13,0.6,0.3,1.24
		c0.22,0.82,0.28,1.45,0.18,1.89c-0.14,0.61-0.48,1.07-1.01,1.36c-0.34,0.19-0.71,0.27-1.11,0.24s-0.78-0.18-1.14-0.46
		s-0.68-0.67-0.96-1.19c-0.46-0.84-0.63-1.57-0.49-2.2s0.5-1.12,1.1-1.48l0.8,1.32c-0.31,0.25-0.49,0.51-0.54,0.78
		s0.04,0.6,0.25,0.98c0.22,0.39,0.47,0.65,0.75,0.79C8.82,55.71,9,55.7,9.17,55.6c0.16-0.09,0.26-0.23,0.29-0.42
		c0.05-0.25-0.03-0.74-0.24-1.49S8.9,52.37,8.9,51.97s0.08-0.78,0.27-1.11c0.19-0.34,0.5-0.62,0.92-0.85
		c0.38-0.21,0.8-0.3,1.25-0.27s0.87,0.19,1.24,0.49c0.38,0.3,0.73,0.74,1.05,1.32c0.47,0.85,0.63,1.6,0.49,2.27
		C13.99,54.48,13.57,55.06,12.87,55.56z"/>
	<path d="M11.71,48.11l-7.39,1.92l-0.39-1.49l2.91-0.76l-0.76-2.92l-2.91,0.76l-0.39-1.49l7.39-1.93l0.39,1.49l-3.23,0.84l0.76,2.92
		l3.23-0.84L11.71,48.11z"/>
	<path d="M9.87,38.23l-7.6-0.77l0.16-1.53l2.99,0.3l0.31-3.01l-2.99-0.3l0.16-1.53l7.6,0.77l-0.16,1.53l-3.32-0.34L6.7,36.36
		l3.32,0.34L9.87,38.23z"/>
	<path d="M13.17,24.59l-0.59,1.57l-1.86,0.01l-1.08,2.86l1.4,1.2l-0.58,1.53l-6.1-5.47l0.57-1.53L13.17,24.59z M9.34,26.19
		l-3.02-0.01l2.29,1.96L9.34,26.19z"/>
	<path d="M13.45,24.28l-6.22-4.43l0.87-1.22l5.97,0.41l-4.15-2.96l0.83-1.17l6.22,4.43l-0.9,1.26l-5.84-0.38l4.06,2.89L13.45,24.28z
		"/>
	<path d="M12.87,12.6l2.16-1.81c0.49-0.41,0.89-0.68,1.21-0.82c0.43-0.19,0.87-0.25,1.33-0.2s0.91,0.21,1.35,0.48
		s0.89,0.68,1.35,1.23c0.4,0.48,0.69,0.95,0.86,1.4c0.21,0.55,0.29,1.07,0.24,1.56c-0.04,0.37-0.19,0.76-0.44,1.16
		c-0.19,0.3-0.51,0.63-0.94,1l-2.23,1.86L12.87,12.6z M14.88,12.61l3.24,3.88L19,15.75c0.33-0.28,0.55-0.49,0.67-0.65
		c0.15-0.21,0.24-0.42,0.27-0.64s-0.02-0.5-0.16-0.82c-0.14-0.33-0.4-0.72-0.78-1.17c-0.38-0.45-0.71-0.77-0.99-0.94
		c-0.28-0.18-0.55-0.27-0.81-0.29c-0.26-0.02-0.52,0.04-0.78,0.18c-0.2,0.1-0.54,0.35-1.02,0.75L14.88,12.61z"/>
	<path d="M23.36,13.88L20.27,6.9l2.11-0.93l3.38,4.2L24.9,4.85l2.11-0.94l3.09,6.98l-1.31,0.58l-2.43-5.5l1.05,6.11l-1.36,0.6
		L22.24,7.8l2.43,5.5L23.36,13.88z"/>
	<path d="M37.98,9.74l-1.66,0.23l-0.9-1.63L32.4,8.76l-0.39,1.8l-1.62,0.22l1.9-7.97l1.61-0.22L37.98,9.74z M34.75,7.13l-1.43-2.66
		l-0.63,2.95L34.75,7.13z"/>
	<path d="M39.25,2.24l2.8,0.33c0.63,0.07,1.11,0.18,1.43,0.32c0.43,0.18,0.78,0.46,1.06,0.83c0.28,0.37,0.47,0.81,0.58,1.31
		s0.12,1.11,0.04,1.82C45.09,7.47,44.94,8,44.74,8.44c-0.25,0.53-0.58,0.94-0.97,1.24c-0.3,0.23-0.68,0.39-1.15,0.48
		c-0.35,0.07-0.81,0.07-1.37,0l-2.88-0.34L39.25,2.24z M40.63,3.71l-0.59,5.02l1.14,0.14c0.43,0.05,0.74,0.06,0.93,0.04
		c0.26-0.03,0.47-0.11,0.66-0.24c0.18-0.13,0.34-0.36,0.49-0.68c0.14-0.33,0.25-0.78,0.32-1.37s0.07-1.04,0-1.37
		s-0.18-0.59-0.35-0.79s-0.39-0.34-0.67-0.44c-0.21-0.07-0.62-0.15-1.25-0.22L40.63,3.71z"/>
	<path d="M45.56,10.86l2.74-7.13l5.28,2.03l-0.46,1.21l-3.84-1.48l-0.61,1.58l3.58,1.38l-0.46,1.2L48.2,8.27l-0.75,1.94l3.98,1.53
		l-0.46,1.2L45.56,10.86z"/>
	<path d="M59.68,15.93l0.82,1.34c-0.72,0.48-1.41,0.7-2.08,0.65c-0.67-0.04-1.31-0.34-1.93-0.87c-0.77-0.67-1.17-1.47-1.21-2.42
		s0.34-1.88,1.12-2.79c0.83-0.96,1.73-1.49,2.69-1.59s1.84,0.2,2.65,0.9c0.71,0.61,1.1,1.32,1.17,2.12c0.05,0.47-0.06,1-0.33,1.57
		l-1.39-0.73c0.19-0.36,0.25-0.72,0.19-1.08c-0.07-0.36-0.25-0.68-0.56-0.94c-0.43-0.37-0.91-0.52-1.44-0.44s-1.1,0.46-1.69,1.14
		c-0.63,0.73-0.95,1.36-0.96,1.9s0.2,0.99,0.62,1.35c0.31,0.27,0.66,0.4,1.05,0.4S59.22,16.27,59.68,15.93z"/>
	<path d="M62.5,17.31c0.65-0.43,1.25-0.7,1.82-0.8c0.42-0.07,0.84-0.07,1.27,0.01s0.8,0.22,1.12,0.44c0.43,0.28,0.82,0.68,1.17,1.2
		c0.63,0.94,0.84,1.88,0.63,2.83s-0.82,1.77-1.86,2.46c-1.03,0.69-2.01,0.94-2.96,0.77s-1.74-0.72-2.36-1.65
		c-0.63-0.94-0.85-1.89-0.64-2.83C60.89,18.79,61.49,17.98,62.5,17.31z M63.43,18.6c-0.72,0.48-1.15,1.01-1.3,1.59
		s-0.05,1.13,0.29,1.64s0.81,0.81,1.39,0.89c0.59,0.08,1.25-0.12,1.98-0.62c0.73-0.49,1.16-1.01,1.31-1.57
		c0.14-0.56,0.04-1.1-0.31-1.63c-0.35-0.53-0.82-0.83-1.4-0.91S64.16,18.11,63.43,18.6z"/>
	<path d="M65.95,25.14l0.62,1.37c-0.45,0.25-0.74,0.54-0.87,0.88c-0.13,0.34-0.12,0.73,0.03,1.17c0.16,0.47,0.38,0.79,0.66,0.96
		c0.28,0.17,0.55,0.21,0.82,0.12c0.17-0.06,0.3-0.16,0.38-0.3s0.13-0.35,0.13-0.63c0-0.19-0.03-0.62-0.08-1.28
		c-0.07-0.85-0.02-1.48,0.15-1.89c0.25-0.58,0.65-0.97,1.23-1.16c0.37-0.13,0.75-0.14,1.14-0.04c0.39,0.1,0.74,0.32,1.04,0.65
		s0.55,0.78,0.74,1.34c0.31,0.91,0.35,1.66,0.11,2.25s-0.69,1.02-1.34,1.27l-0.56-1.44c0.35-0.19,0.57-0.41,0.66-0.68
		c0.09-0.26,0.07-0.6-0.07-1.01c-0.15-0.42-0.35-0.73-0.6-0.91c-0.17-0.12-0.34-0.14-0.53-0.08c-0.17,0.06-0.29,0.18-0.36,0.37
		c-0.09,0.24-0.1,0.74-0.02,1.51s0.08,1.35,0.02,1.75c-0.06,0.4-0.22,0.75-0.46,1.05s-0.59,0.53-1.05,0.68
		c-0.41,0.14-0.84,0.16-1.28,0.05s-0.82-0.34-1.14-0.7s-0.59-0.85-0.8-1.48c-0.31-0.91-0.34-1.69-0.09-2.32
		C64.66,26.02,65.17,25.51,65.95,25.14z"/>
	<path d="M65.86,32.61l7.62-0.47l0.14,2.3l-5.11,1.7l5.28,1.05l0.14,2.31l-7.62,0.47l-0.09-1.43l6-0.37l-6.09-1.14l-0.09-1.48
		l5.91-1.88l-6,0.37L65.86,32.61z"/>
	<path d="M66.12,41.06l7.48,1.55l-1.15,5.54l-1.26-0.26l0.84-4.03l-1.66-0.34l-0.78,3.75l-1.26-0.26l0.78-3.75l-2.03-0.42
		l-0.87,4.18l-1.26-0.26L66.12,41.06z"/>
	<path d="M63.86,49.15l5.75,2.67l0.95-2.06l1.17,0.54l-2.55,5.5l-1.17-0.54l0.95-2.05l-5.75-2.67L63.86,49.15z"/>
	<path d="M61.78,53.09l6.33,4.27l-0.86,1.28l-6.33-4.27L61.78,53.09z"/>
	<path d="M58.95,60.85l-1.38,0.74c-0.44-0.75-0.62-1.45-0.53-2.11c0.08-0.66,0.41-1.29,0.98-1.88c0.71-0.73,1.54-1.08,2.49-1.07
		c0.95,0.01,1.86,0.44,2.72,1.28c0.91,0.89,1.39,1.81,1.44,2.77s-0.3,1.82-1.05,2.59c-0.65,0.67-1.38,1.02-2.18,1.05
		c-0.48,0.02-0.99-0.12-1.55-0.42l0.8-1.35c0.35,0.21,0.7,0.29,1.07,0.25c0.36-0.04,0.69-0.21,0.97-0.51
		c0.39-0.41,0.57-0.88,0.52-1.41c-0.05-0.54-0.39-1.12-1.05-1.76c-0.69-0.67-1.31-1.03-1.84-1.06c-0.54-0.04-1,0.14-1.38,0.54
		c-0.29,0.29-0.44,0.64-0.46,1.03C58.5,59.93,58.64,60.37,58.95,60.85z"/>
	<path d="M56.78,62.4l-1.2,0.91c-0.34-0.38-0.69-0.6-1.05-0.66s-0.74,0.04-1.14,0.28c-0.42,0.26-0.69,0.55-0.79,0.86
		c-0.1,0.31-0.08,0.59,0.06,0.83c0.09,0.15,0.22,0.26,0.38,0.31c0.16,0.05,0.37,0.05,0.65-0.01c0.19-0.04,0.59-0.16,1.23-0.36
		c0.81-0.26,1.44-0.35,1.88-0.27c0.62,0.11,1.09,0.43,1.4,0.94c0.2,0.33,0.3,0.7,0.29,1.1s-0.15,0.79-0.41,1.16
		s-0.64,0.71-1.14,1.01c-0.82,0.5-1.54,0.7-2.17,0.6s-1.14-0.45-1.53-1.03l1.28-0.87c0.26,0.3,0.53,0.46,0.81,0.5
		c0.28,0.03,0.6-0.07,0.97-0.29c0.38-0.23,0.63-0.5,0.75-0.79c0.08-0.19,0.06-0.36-0.04-0.53c-0.09-0.15-0.24-0.25-0.44-0.27
		c-0.25-0.04-0.74,0.07-1.47,0.31s-1.3,0.38-1.71,0.41s-0.78-0.05-1.12-0.22c-0.35-0.17-0.64-0.46-0.9-0.88
		c-0.23-0.37-0.34-0.79-0.33-1.24s0.15-0.88,0.43-1.27s0.7-0.76,1.27-1.11c0.82-0.51,1.57-0.71,2.24-0.6S56.25,61.73,56.78,62.4z"/>
</g>
</svg>
