<?xml version="1.0" encoding="utf-8"?>
<!-- Generator: Adobe Illustrator 23.0.0, SVG Export Plug-In . SVG Version: 6.00 Build 0)  -->
<svg version="1.1" id="レイヤー_1" xmlns="http://www.w3.org/2000/svg" xmlns:xlink="http://www.w3.org/1999/xlink" x="0px"
	 y="0px" viewBox="0 0 73.7 73.7" style="enable-background:new 0 0 73.7 73.7;" xml:space="preserve">
<g>
	<path d="M29.7,64.8L27.2,72l-4.9-1.8l0.4-1.2l3.5,1.2l0.6-1.7l-3-1.1l0.4-1.2l3,1.1l1.1-3.1L29.7,64.8z"/>
	<path d="M24,62.7L19.8,69l-2.7-1.8c-0.7-0.4-1.1-0.8-1.4-1.2c-0.2-0.3-0.4-0.7-0.3-1.1s0.1-0.8,0.4-1.2c0.3-0.5,0.7-0.8,1.2-0.9
		c0.5-0.1,1,0,1.6,0.2c-0.2-0.3-0.3-0.7-0.3-1c0-0.3-0.1-0.8,0-1.5l0-1.8l1.5,1l0,2c0,0.7,0,1.2,0.1,1.4c0,0.2,0.1,0.4,0.2,0.5
		s0.3,0.3,0.6,0.5l0.3,0.2l1.8-2.7L24,62.7z M20.3,65.5l-1-0.6c-0.6-0.4-1-0.6-1.2-0.7s-0.4,0-0.5,0s-0.3,0.2-0.5,0.4
		C17,64.8,16.9,65,17,65.2c0,0.2,0.1,0.4,0.3,0.6c0.1,0.1,0.4,0.3,0.9,0.6l1,0.7L20.3,65.5z"/>
	<path d="M18,58.5l-5.6,5.2l-3.8-4.2l0.9-0.9l2.8,3l1.3-1.1L11,57.7l0.9-0.9l2.6,2.8l1.5-1.4l-2.9-3.1l0.9-0.9L18,58.5z"/>
	<path d="M11.6,55l-0.9-1.2c0.4-0.3,0.6-0.7,0.7-1c0.1-0.4,0-0.7-0.2-1.2c-0.2-0.4-0.5-0.7-0.8-0.8c-0.3-0.1-0.6-0.1-0.8,0
		c-0.2,0.1-0.3,0.2-0.3,0.4c-0.1,0.2-0.1,0.4,0,0.7c0,0.2,0.1,0.6,0.3,1.2c0.2,0.8,0.3,1.5,0.2,1.9c-0.1,0.6-0.5,1.1-1,1.4
		c-0.3,0.2-0.7,0.3-1.1,0.2c-0.4,0-0.8-0.2-1.1-0.5s-0.7-0.7-1-1.2c-0.5-0.8-0.6-1.6-0.5-2.2s0.5-1.1,1.1-1.5l0.8,1.3
		c-0.3,0.3-0.5,0.5-0.5,0.8s0,0.6,0.3,1c0.2,0.4,0.5,0.7,0.8,0.8c0.2,0.1,0.4,0.1,0.5,0c0.2-0.1,0.3-0.2,0.3-0.4
		c0.1-0.3,0-0.7-0.2-1.5c-0.2-0.8-0.3-1.3-0.3-1.7s0.1-0.8,0.3-1.1c0.2-0.3,0.5-0.6,0.9-0.8c0.4-0.2,0.8-0.3,1.3-0.3
		s0.9,0.2,1.2,0.5c0.4,0.3,0.7,0.7,1.1,1.3c0.5,0.8,0.6,1.6,0.5,2.3C12.7,54,12.3,54.5,11.6,55z"/>
	<path d="M10.5,47.6l-7.4,1.9L2.7,48l2.9-0.8l-0.8-2.9l-2.9,0.8l-0.4-1.5l7.4-1.9l0.4,1.5L6.1,44l0.8,2.9l3.2-0.8L10.5,47.6z"/>
	<path d="M8.6,37.7L1,36.9l0.2-1.5l3,0.3l0.3-3l-3-0.3l0.2-1.5l7.6,0.8l-0.2,1.5l-3.3-0.3l-0.3,3l3.3,0.3L8.6,37.7z"/>
	<path d="M11.9,24.1l-0.6,1.6l-1.9,0l-1.1,2.9l1.4,1.2l-0.6,1.5l-6.1-5.5l0.6-1.5L11.9,24.1z M8.1,25.7l-3,0l2.3,2L8.1,25.7z"/>
	<path d="M12.2,23.8L6,19.3l0.9-1.2l6,0.4l-4.1-3l0.8-1.2l6.2,4.4l-0.9,1.3L9,19.7l4.1,2.9L12.2,23.8z"/>
	<path d="M11.6,12.1l2.2-1.8c0.5-0.4,0.9-0.7,1.2-0.8c0.4-0.2,0.9-0.3,1.3-0.2c0.5,0.1,0.9,0.2,1.4,0.5s0.9,0.7,1.4,1.2
		c0.4,0.5,0.7,0.9,0.9,1.4c0.2,0.6,0.3,1.1,0.2,1.6c0,0.4-0.2,0.8-0.4,1.2c-0.2,0.3-0.5,0.6-0.9,1l-2.2,1.9L11.6,12.1z M13.6,12.1
		l3.2,3.9l0.9-0.7c0.3-0.3,0.5-0.5,0.7-0.6c0.1-0.2,0.2-0.4,0.3-0.6s0-0.5-0.2-0.8c-0.1-0.3-0.4-0.7-0.8-1.2c-0.4-0.4-0.7-0.8-1-0.9
		c-0.3-0.2-0.5-0.3-0.8-0.3c-0.3,0-0.5,0-0.8,0.2c-0.2,0.1-0.5,0.4-1,0.8L13.6,12.1z"/>
	<path d="M22.1,13.4l-3.1-7l2.1-0.9l3.4,4.2l-0.9-5.3l2.1-0.9l3.1,7L27.5,11l-2.4-5.5l1,6.1l-1.4,0.6L21,7.3l2.4,5.5L22.1,13.4z"/>
	<path d="M36.7,9.2l-1.7,0.2l-0.9-1.6l-3,0.4L30.8,10l-1.6,0.2l1.9-8l1.6-0.2L36.7,9.2z M33.5,6.6L32.1,4l-0.6,3L33.5,6.6z"/>
	<path d="M38,1.7l2.8,0.3c0.6,0.1,1.1,0.2,1.4,0.3c0.4,0.2,0.8,0.5,1.1,0.8c0.3,0.4,0.5,0.8,0.6,1.3s0.1,1.1,0,1.8
		c-0.1,0.6-0.2,1.2-0.4,1.6c-0.3,0.5-0.6,0.9-1,1.2c-0.3,0.2-0.7,0.4-1.2,0.5c-0.3,0.1-0.8,0.1-1.4,0l-2.9-0.3L38,1.7z M39.4,3.2
		l-0.6,5l1.1,0.1c0.4,0.1,0.7,0.1,0.9,0c0.3,0,0.5-0.1,0.7-0.2C41.7,8,41.9,7.8,42,7.5c0.1-0.3,0.3-0.8,0.3-1.4s0.1-1,0-1.4
		S42.2,4.1,42,3.9c-0.2-0.2-0.4-0.3-0.7-0.4c-0.2-0.1-0.6-0.2-1.3-0.2L39.4,3.2z"/>
	<path d="M44.3,10.3l2.7-7.1l5.3,2l-0.5,1.2L48,5l-0.6,1.6L51,7.9l-0.5,1.2L47,7.8l-0.8,1.9l4,1.5l-0.5,1.2L44.3,10.3z"/>
	<path d="M58.4,15.4l0.8,1.3c-0.7,0.5-1.4,0.7-2.1,0.6c-0.7,0-1.3-0.3-1.9-0.9c-0.8-0.7-1.2-1.5-1.2-2.4s0.3-1.9,1.1-2.8
		c0.8-1,1.7-1.5,2.7-1.6s1.8,0.2,2.7,0.9c0.7,0.6,1.1,1.3,1.2,2.1c0,0.5-0.1,1-0.3,1.6l-1.4-0.7c0.2-0.4,0.3-0.7,0.2-1.1
		c-0.1-0.4-0.3-0.7-0.6-0.9c-0.4-0.4-0.9-0.5-1.4-0.4s-1.1,0.5-1.7,1.1c-0.6,0.7-1,1.4-1,1.9s0.2,1,0.6,1.3c0.3,0.3,0.7,0.4,1,0.4
		S58,15.8,58.4,15.4z"/>
	<path d="M61.3,16.8c0.7-0.4,1.3-0.7,1.8-0.8c0.4-0.1,0.8-0.1,1.3,0c0.4,0.1,0.8,0.2,1.1,0.4c0.4,0.3,0.8,0.7,1.2,1.2
		c0.6,0.9,0.8,1.9,0.6,2.8s-0.8,1.8-1.9,2.5c-1,0.7-2,0.9-3,0.8s-1.7-0.7-2.4-1.6c-0.6-0.9-0.8-1.9-0.6-2.8
		C59.6,18.3,60.2,17.5,61.3,16.8z M62.2,18.1c-0.7,0.5-1.2,1-1.3,1.6s0,1.1,0.3,1.6s0.8,0.8,1.4,0.9c0.6,0.1,1.2-0.1,2-0.6
		c0.7-0.5,1.2-1,1.3-1.6c0.1-0.6,0-1.1-0.3-1.6c-0.3-0.5-0.8-0.8-1.4-0.9C63.6,17.4,62.9,17.6,62.2,18.1z"/>
	<path d="M64.7,24.6l0.6,1.4c-0.4,0.3-0.7,0.5-0.9,0.9c-0.1,0.3-0.1,0.7,0,1.2c0.2,0.5,0.4,0.8,0.7,1c0.3,0.2,0.6,0.2,0.8,0.1
		c0.2-0.1,0.3-0.2,0.4-0.3s0.1-0.4,0.1-0.6c0-0.2,0-0.6-0.1-1.3c-0.1-0.9,0-1.5,0.2-1.9c0.3-0.6,0.7-1,1.2-1.2
		c0.4-0.1,0.8-0.1,1.1,0c0.4,0.1,0.7,0.3,1,0.6s0.6,0.8,0.7,1.3c0.3,0.9,0.3,1.7,0.1,2.3s-0.7,1-1.3,1.3l-0.6-1.4
		c0.3-0.2,0.6-0.4,0.7-0.7c0.1-0.3,0.1-0.6-0.1-1c-0.2-0.4-0.3-0.7-0.6-0.9c-0.2-0.1-0.3-0.1-0.5-0.1c-0.2,0.1-0.3,0.2-0.4,0.4
		c-0.1,0.2-0.1,0.7,0,1.5s0.1,1.4,0,1.8c-0.1,0.4-0.2,0.8-0.5,1s-0.6,0.5-1.1,0.7c-0.4,0.1-0.8,0.2-1.3,0s-0.8-0.3-1.1-0.7
		c-0.3-0.4-0.6-0.9-0.8-1.5c-0.3-0.9-0.3-1.7-0.1-2.3C63.4,25.5,63.9,25,64.7,24.6z"/>
	<path d="M64.6,32.1l7.6-0.5l0.1,2.3l-5.1,1.7l5.3,1l0.1,2.3l-7.6,0.5L65,38l6-0.4l-6.1-1.1L64.8,35l5.9-1.9l-6,0.4L64.6,32.1z"/>
	<path d="M64.9,40.5l7.5,1.5l-1.2,5.5l-1.3-0.3l0.8-4L69.1,43l-0.8,3.8l-1.3-0.3l0.8-3.8l-2-0.4L65,46.5l-1.3-0.3L64.9,40.5z"/>
	<path d="M62.6,48.6l5.8,2.7l0.9-2.1l1.2,0.5l-2.6,5.5l-1.2-0.5l0.9-2L62,50L62.6,48.6z"/>
	<path d="M60.5,52.6l6.3,4.3L66,58.1l-6.3-4.3L60.5,52.6z"/>
	<path d="M57.7,60.3l-1.4,0.7c-0.4-0.8-0.6-1.5-0.5-2.1c0.1-0.7,0.4-1.3,1-1.9c0.7-0.7,1.5-1.1,2.5-1.1c1,0,1.9,0.4,2.7,1.3
		c0.9,0.9,1.4,1.8,1.4,2.8s-0.3,1.8-1,2.6c-0.7,0.7-1.4,1-2.2,1.1c-0.5,0-1-0.1-1.5-0.4l0.8-1.3c0.3,0.2,0.7,0.3,1.1,0.3
		c0.4,0,0.7-0.2,1-0.5c0.4-0.4,0.6-0.9,0.5-1.4c0-0.5-0.4-1.1-1-1.8c-0.7-0.7-1.3-1-1.8-1.1c-0.5,0-1,0.1-1.4,0.5
		c-0.3,0.3-0.4,0.6-0.5,1C57.3,59.4,57.4,59.9,57.7,60.3z"/>
	<path d="M55.5,61.9l-1.2,0.9c-0.3-0.4-0.7-0.6-1-0.7s-0.7,0-1.1,0.3c-0.4,0.3-0.7,0.5-0.8,0.9c-0.1,0.3-0.1,0.6,0.1,0.8
		c0.1,0.2,0.2,0.3,0.4,0.3c0.2,0.1,0.4,0.1,0.7,0c0.2,0,0.6-0.2,1.2-0.4c0.8-0.3,1.4-0.3,1.9-0.3c0.6,0.1,1.1,0.4,1.4,0.9
		c0.2,0.3,0.3,0.7,0.3,1.1s-0.2,0.8-0.4,1.2s-0.6,0.7-1.1,1c-0.8,0.5-1.5,0.7-2.2,0.6s-1.1-0.4-1.5-1l1.3-0.9
		c0.3,0.3,0.5,0.5,0.8,0.5c0.3,0,0.6-0.1,1-0.3c0.4-0.2,0.6-0.5,0.8-0.8c0.1-0.2,0.1-0.4,0-0.5c-0.1-0.2-0.2-0.3-0.4-0.3
		c-0.3,0-0.7,0.1-1.5,0.3S52.6,66,52.1,66S51.4,66,51,65.8c-0.3-0.2-0.6-0.5-0.9-0.9c-0.2-0.4-0.3-0.8-0.3-1.2s0.2-0.9,0.4-1.3
		s0.7-0.8,1.3-1.1c0.8-0.5,1.6-0.7,2.2-0.6S55,61.2,55.5,61.9z"/>
</g>
</svg>
