<?xml version="1.0" encoding="utf-8"?>
<!-- Generator: Adobe Illustrator 23.0.1, SVG Export Plug-In . SVG Version: 6.00 Build 0)  -->
<svg version="1.1" id="レイヤー_1" xmlns="http://www.w3.org/2000/svg" xmlns:xlink="http://www.w3.org/1999/xlink" x="0px"
	 y="0px" viewBox="0 0 47.62 47.62" style="enable-background:new 0 0 47.62 47.62;" xml:space="preserve">
<style type="text/css">
	.st0{fill:#1D1D1B;}
</style>
<g>
	<path class="st0" d="M17.84,19.93c0.55-11,17.25-12,18.15-0.67c1,12.49-17.69,13.33-18.34,0.86c-0.08-1.54-2.48-1.55-2.4,0
		C15.59,26.54,20,31.39,26.5,31.75c6.85,0.39,11.3-5.09,11.89-11.4c1.4-15-22.21-15.15-22.94-0.42c-0.08,1.55,2.32,1.54,2.4,0
		L17.84,19.93z"/>
	<path class="st0" d="M14.05,38.23c2.23-2.68,4.27-5.53,6.66-8.08c1.06-1.13-0.64-2.83-1.7-1.7c-2.39,2.56-4.42,5.4-6.66,8.08
		C11.35,37.71,13.06,39.42,14.05,38.23z"/>
</g>
</svg>
