<?xml version="1.0" encoding="utf-8"?>
<!-- Generator: Adobe Illustrator 23.0.1, SVG Export Plug-In . SVG Version: 6.00 Build 0)  -->
<svg version="1.1" id="レイヤー_1" xmlns="http://www.w3.org/2000/svg" xmlns:xlink="http://www.w3.org/1999/xlink" x="0px"
	 y="0px" viewBox="0 0 42.8 38.29" style="enable-background:new 0 0 42.8 38.29;" xml:space="preserve">
<style type="text/css">
	.st0{fill:#391B1A;}
	.st1{fill:#EED326;}
</style>
<path class="st0" d="M21.45,1.54C10.21,1.54,1.1,8.27,1.1,16.58c0,5.56,4.09,10.4,10.15,13l-2.06,7.84l8.53-6.06
	c1.21,0.17,2.46,0.26,3.74,0.26c11.24,0,20.35-6.73,20.35-15.04C41.81,8.27,32.69,1.54,21.45,1.54z"/>
<g>
	<path class="st1" d="M13.38,14.15h-2.39v8.08H9.12v-8.08H6.74v-1.61h6.64V14.15z"/>
	<path class="st1" d="M21.57,22.23h-1.95l-0.69-2.56h-2.6l-0.67,2.56h-1.89l2.75-9.69h2.34L21.57,22.23z M18.66,18.26l-0.58-2.21
		c-0.15-0.61-0.32-1.39-0.44-1.98H17.6c-0.13,0.6-0.29,1.4-0.43,1.97l-0.58,2.22H18.66z"/>
	<path class="st1" d="M28.17,22.23h-5.33v-9.69h1.87v8.12h3.47V22.23z"/>
	<path class="st1" d="M36.36,22.23h-2.13l-2.24-4.29l-0.72,0.97v3.31h-1.85v-9.69h1.85v4.39h0.04c0.2-0.38,0.42-0.74,0.62-1.11
		l2.08-3.28h2.22l-2.92,4.15L36.36,22.23z"/>
</g>
</svg>
