<?xml version="1.0" encoding="utf-8"?>
<!-- Generator: Adobe Illustrator 23.0.0, SVG Export Plug-In . SVG Version: 6.00 Build 0)  -->
<svg version="1.1" id="レイヤー_1" xmlns="http://www.w3.org/2000/svg" xmlns:xlink="http://www.w3.org/1999/xlink" x="0px"
	 y="0px" viewBox="0 0 70.2 19" style="enable-background:new 0 0 70.2 19;" xml:space="preserve">
<style type="text/css">
	.st0{fill:#FFFFFF;}
</style>
<g>
	<path class="st0" d="M50.2,5.7c-0.6,0-1.2,0.1-1.7,0.1c-1.1,0.1-2.1,0.1-3.2,0.2C45,6,45,6,44.9,5.8c-0.2-0.6-0.4-1.2-1-1.6
		c-0.9-0.5-1.8-0.6-2.8-0.2c-0.6,0.2-0.9,1-0.7,1.5c0.2,0.4,0.5,0.6,0.9,0.7c0.6,0.2,1.2,0.3,1.8,0.5c1.1,0.3,2.2,0.6,3.3,0.9
		c0.8,0.2,1.5,0.6,2.2,1.1c1.3,0.9,2,2.2,2.1,3.8c0.1,2-0.7,3.5-2.2,4.7c-1,0.8-2.2,1.2-3.5,1.4c-1.6,0.2-3.2,0.2-4.8,0
		c-0.8-0.1-1.5-0.3-2.2-0.6c-1-0.5-1.7-1.2-2.3-2.1c-0.6-0.9-0.9-2-1-3c0-0.2,0-0.2,0.2-0.2c1.6-0.1,3.2-0.2,4.8-0.3
		c0.2,0,0.2,0.1,0.2,0.2c0.1,0.5,0.2,1,0.5,1.5c0.7,1.1,1.7,1.4,2.9,1.3c0.6,0,1.1-0.2,1.5-0.6c0.8-0.8,0.7-1.9-0.2-2.5
		c-0.5-0.3-1.1-0.5-1.7-0.7c-1.2-0.3-2.5-0.6-3.7-1c-0.9-0.4-1.8-0.8-2.6-1.5c-1.3-1.3-1.7-2.8-1.2-4.5C35.9,3,36.8,2,38,1.3
		c1-0.5,2-0.8,3.1-0.8c1.4-0.1,2.7-0.1,4.1,0.1c1,0.2,2,0.5,2.9,1.1c0.9,0.7,1.5,1.6,1.8,2.7C50,4.8,50.1,5.3,50.2,5.7z"/>
	<path class="st0" d="M53.5,0.3c1.8,0,3.5,0,5.4,0c0,2,0,4,0,6.1c1.7,0,3.4,0,5.2,0c0-2,0-4,0-6.1c1.9,0,3.6,0,5.5,0
		c0,5.9,0,11.9,0,17.9c-1.8,0-3.5,0-5.4,0c0-2.3,0-4.6,0-7c-1.8,0-3.4,0-5.2,0c0,2.3,0,4.6,0,7c-1.9,0-3.6,0-5.4,0
		C53.5,12.2,53.5,6.3,53.5,0.3z"/>
	<path class="st0" d="M16.1,0.3c1.8,0,3.6,0,5.5,0c0,0.3,0,0.6,0,0.9c0,3,0,6.1,0,9.1c0,0.6,0,1.3,0.2,1.9c0.3,1.4,1.1,2,2.5,2
		c1.4,0,2.1-0.6,2.4-2c0.1-0.6,0.2-1.2,0.2-1.8c0-3,0-6.1,0-9.1c0-0.3,0-0.6,0-0.9c1.8,0,3.6,0,5.5,0c0,0.3,0,0.5,0,0.8
		c0,3.4,0,6.8,0,10.3c0,0.5,0,0.9-0.1,1.3c-0.5,3.4-2.3,5.3-5.9,5.8c-2,0.3-4,0.3-5.9-0.4c-2.7-0.9-4.2-2.8-4.3-5.9
		c-0.1-3.9,0-7.8,0-11.7C16.1,0.5,16.1,0.4,16.1,0.3z"/>
	<path class="st0" d="M14,18.2c-4.4,0-8.8,0-13.2,0c0-6,0-11.9,0-17.9c1.8,0,3.5,0,5.4,0c0,4.4,0,8.8,0,13.3c2.7,0,5.3,0,7.9,0
		C14,15.2,14,16.7,14,18.2z"/>
</g>
</svg>
