<?xml version="1.0" encoding="utf-8"?>
<!-- Generator: Adobe Illustrator 23.0.1, SVG Export Plug-In . SVG Version: 6.00 Build 0)  -->
<svg version="1.1" id="レイヤー_1" xmlns="http://www.w3.org/2000/svg" xmlns:xlink="http://www.w3.org/1999/xlink" x="0px"
	 y="0px" viewBox="0 0 101 93" style="enable-background:new 0 0 101 93;" xml:space="preserve">
<style type="text/css">
	.st0{font-family:'NanumPen';}
	.st1{font-size:24px;}
	.st2{fill:#A1C36B;}
	.st3{fill:#FFFFFF;}
	.st4{fill:none;stroke:#000000;stroke-width:1.0117;}
</style>
<text transform="matrix(1 0 0 1 15.7805 64.4565)"><tspan x="0" y="0" class="st0 st1">러쉬25주년 </tspan><tspan x="0" y="24" class="st0 st1">기념카달로그</tspan></text>
<g>
	<g>
		<g>
			<path class="st2" d="M17.39,2.49c0.18,1.45-0.11,2.63-0.97,3.81c-0.33,0.46,0.29,0.72,0.65,0.75c0.55,0.04,1.2-0.2,1.52-0.65
				c1.01-1.38,1.32-2.85,1.12-4.53C19.6,1.03,17.27,1.56,17.39,2.49L17.39,2.49z"/>
		</g>
	</g>
	<g>
		<g>
			<path class="st2" d="M24.04,5.59c-1.29,1.21-2.47,2.57-3.45,4.06c-0.24,0.36,0.7,0.28,0.87,0.02c0.94-1.44,2.08-2.75,3.33-3.92
				C25.19,5.38,24.27,5.38,24.04,5.59L24.04,5.59z"/>
		</g>
	</g>
	<g>
		<g>
			<path class="st2" d="M26.6,13.14c-0.66,0.09-1.32,0.18-1.98,0.27c-0.26,0.04-0.61,0.18-0.63,0.49c-0.02,0.28,0.29,0.45,0.55,0.42
				c0.66-0.09,1.32-0.18,1.98-0.27c0.26-0.04,0.61-0.18,0.63-0.49C27.16,13.27,26.85,13.1,26.6,13.14L26.6,13.14z"/>
		</g>
	</g>
</g>
<g>
	<polygon class="st3" points="26.49,29.95 20.03,31.36 24.25,37.17 	"/>
	<g>
		<path class="st4" d="M1.4,6.36c19.76,1.24,23.98,13.85,21.66,23"/>
		<g>
			<g>
				<path d="M28.37,27.86c-2.85,0.93-5.63,2.07-8.48,3c-0.35,0.11-1.06,0.41-0.77,0.89c1.22,2.05,2.59,4.06,4.23,5.8
					c0.47,0.5,1.66,0.04,1.88-0.5c1.25-2.98,2.14-6.09,3.22-9.13c0.24-0.67-1.72-0.43-1.96,0.24c-1.09,3.04-1.97,6.15-3.22,9.13
					c0.63-0.17,1.26-0.34,1.88-0.5c-1.64-1.75-3-3.75-4.23-5.8c-0.26,0.3-0.51,0.59-0.77,0.89c2.85-0.93,5.63-2.07,8.48-3
					C29.78,28.5,29.54,27.48,28.37,27.86L28.37,27.86z"/>
			</g>
		</g>
	</g>
</g>
</svg>
